<svg id="Layer_1" data-name="Layer 1" xmlns="http://www.w3.org/2000/svg" viewBox="0 0 133.68 133.68"><defs><style>.cls-1,.cls-3{fill:#fff;}.cls-1{stroke:#a9b9ed;stroke-width:5px;}.cls-2{fill:#ff5d02;}.cls-3{fill-rule:evenodd;}.cls-4{fill:#ff8d00;}.cls-5{fill:none;stroke:#ff8d00;stroke-width:5.5px;}.cls-6{fill:#262626;}</style></defs><g id="Group-25"><g id="Group-4"><g id="Group-18"><circle id="Oval" class="cls-1" cx="66.84" cy="66.84" r="64.34"/><path id="Path-Copy-2" class="cls-2" d="M179.52,92a17.32,17.32,0,0,0,12.39-4.56,15.4,15.4,0,0,0,4.83-11.73q0-8.76-6.62-12.66a13.14,13.14,0,0,0,5.79-11.39A13.82,13.82,0,0,0,191.5,41a16.06,16.06,0,0,0-11.43-4.14q-6.93,0-10.79,3.5t-5.11,11h8c.58-2.62,1.45-4.48,2.63-5.59A7.54,7.54,0,0,1,180,44.2a8,8,0,0,1,5.83,2.18,7.25,7.25,0,0,1,2.28,5.55q0,4.43-3.14,6.42-1.75,1.14-6.87,1.14h0v6.86q4.69,0,6.94,1.32c2.55,1.51,3.83,4.07,3.83,7.66a9.31,9.31,0,0,1-2.55,6.72,8.7,8.7,0,0,1-6.46,2.59,9.29,9.29,0,0,1-6.26-2,9.46,9.46,0,0,1-3-5.92h-7.76a18.25,18.25,0,0,0,2.45,8.21Q169.89,92,179.52,92Z" transform="translate(-146.94 1.44)"/><path id="Combined-Shape-Copy" class="cls-2" d="M219.36,36l5.9,4.41L212.53,57.69l.34,0c.54-.07,1-.13,1.42-.16a11.35,11.35,0,0,1,1.14-.07,14.94,14.94,0,0,1,11.21,5,16.44,16.44,0,0,1,4.7,11.8A17.86,17.86,0,0,1,213.57,92a17.93,17.93,0,0,1-12.7-5.15,16.29,16.29,0,0,1-5.35-12.17q0-6.31,5.21-13.39h0Zm-5.93,28.6a10,10,0,1,0,7.11,17.15,9.6,9.6,0,0,0,3-7,10.07,10.07,0,0,0-10.07-10.14Z" transform="translate(-146.94 1.44)"/><path id="Path-Copy-3" class="cls-2" d="M243.86,92a19.69,19.69,0,0,0,14.25-5.46,18.42,18.42,0,0,0,5.66-13.87,18.47,18.47,0,0,0-5-13.35A16.73,16.73,0,0,0,246,54l-1,0c-.36,0-.73.06-1.12.1h0l2.62-8.83H263V37.82H241l-8.38,28h2.65q3.95-4.73,9.35-4.73a10.82,10.82,0,0,1,8.11,3.35,11.3,11.3,0,0,1,3.25,8.35,11.9,11.9,0,0,1-3.28,8.45,11.74,11.74,0,0,1-14.36,1.66,19,19,0,0,1-5.07-6h0L227.16,82Q233.27,92,243.86,92Z" transform="translate(-146.94 1.44)"/><polygon id="Path-4" class="cls-3" points="56.41 62.26 83.25 55.6 87.73 62.26 117.68 58.93 116.83 96.79 52.83 96.79 48.83 62.26 56.41 62.26"/><path id="Path" class="cls-4" d="M264.62,73.09a18.92,18.92,0,0,1-32.14,13.55,21.32,21.32,0,0,0,3.46-6.53,12.05,12.05,0,1,0,0-14c-4.37,6-.1,9.86-5.75,17.89a18.93,18.93,0,1,1-2.28-24.42,21.32,21.32,0,0,0-3.46,6.53,12,12,0,1,0-9.75,19.07,12.13,12.13,0,0,0,12.05-12,18.94,18.94,0,0,1,37.87,0" transform="translate(-146.94 1.44)"/><polyline id="Path-3" class="cls-5" points="87.73 99.03 87.73 84.31 98.52 77.4"/><path id="DAYS" class="cls-6" d="M195.85,115.06a6.3,6.3,0,0,0,0-12.6h-5v12.6Zm0-2.78h-2.16v-7h2.16a3.53,3.53,0,0,1,0,7Zm10.36,2.78.63-2h4.68l.63,2h3.15L211,102.46h-3.67l-4.28,12.6Zm4.44-4.68h-3l1.48-4.63Zm11.14,4.68v-4.85l4.23-7.75h-3.28l-2.39,4.86-2.4-4.86h-3.27l4.23,7.75v4.85Zm10,.25c2.73,0,4.68-1.44,4.68-3.87,0-2.67-2.14-3.33-4.05-3.91s-2.27-1-2.27-1.56.45-1,1.35-1a2.21,2.21,0,0,1,2.18,1.46l2.43-1.42a4.89,4.89,0,0,0-4.61-2.85,3.94,3.94,0,0,0-4.23,3.84c0,2.41,1.84,3.31,3.71,3.83s2.61.83,2.61,1.6c0,.49-.34,1-1.71,1a2.64,2.64,0,0,1-2.65-1.75l-2.48,1.44C227.45,114.05,229.14,115.31,231.79,115.31Z" transform="translate(-146.94 1.44)"/></g></g></g></svg>