<?xml version="1.0" encoding="UTF-8"?>
<svg width="51px" height="55px" viewBox="0 0 51 55" version="1.1" xmlns="http://www.w3.org/2000/svg" xmlns:xlink="http://www.w3.org/1999/xlink">
    <title>Group 37</title>
    <g id="Japan" stroke="none" stroke-width="1" fill="none" fill-rule="evenodd">
        <g id="Group-37" transform="translate(0.739462, 0.000000)" fill-rule="nonzero">
            <g id="Group-4-Copy" transform="translate(21.920538, 26.400000)">
                <circle id="Oval" stroke="#0D37D5" stroke-width="0.959" cx="13.7" cy="13.7" r="13.7"></circle>
                <path d="M6.26710555,19.1944149 C7.3288734,19.1944149 8.19913519,18.8744301 8.87789089,18.2344604 C9.5566466,17.5944908 9.89602446,16.7702874 9.89602446,15.7618503 C9.89602446,14.5303936 9.43059196,13.6407387 8.499727,13.0928859 C9.31423385,12.5207918 9.72148727,11.7208297 9.72148727,10.6929997 C9.72148727,9.78152771 9.41119896,9.03732057 8.7906223,8.46037821 C8.17004566,7.87858762 7.36765945,7.58769231 6.38346367,7.58769231 C5.4089644,7.58769231 4.6502125,7.83374125 4.10720793,8.32583914 C3.56420336,8.81793702 3.20543248,9.59244577 3.03089531,10.6493654 L4.71808806,10.6493654 C4.83929444,10.0966643 5.02352812,9.70395564 5.27078914,9.4712394 C5.52774665,9.24337141 5.89136579,9.12943741 6.36164653,9.12943741 C6.86586505,9.12943741 7.2755426,9.28215745 7.59067918,9.58759751 C7.91066401,9.88818934 8.07065642,10.2784739 8.07065642,10.7584511 C8.07065642,11.3790278 7.85006082,11.8299155 7.40886962,12.1111143 C7.16160861,12.2711067 6.67920722,12.3511029 5.96166548,12.3511029 L5.96166548,13.7983071 C6.62102817,13.7983071 7.1082778,13.8904238 7.42341438,14.0746576 C7.96157069,14.3946423 8.23064885,14.9327987 8.23064885,15.6891266 C8.23064885,16.2612206 8.05126342,16.7339254 7.69249253,17.1072411 C7.33372165,17.4708602 6.88040981,17.6526697 6.33255699,17.6526697 C5.78955243,17.6526697 5.34957329,17.5084342 5.01261955,17.2199631 C4.67566583,16.9314919 4.46355467,16.515754 4.37628608,15.9727494 L2.74,15.9727494 C2.81272382,16.7096842 2.98483688,17.2866266 3.25633916,17.7035765 C3.91085359,18.6974687 4.9144424,19.1944149 6.26710555,19.1944149 Z" id="Path-Copy-2" fill="#113DCD"></path>
                <path d="M9.95179483,14.2306206 L10.3303346,17.4857486 C9.91839655,16.8996472 9.71242752,16.24046 9.71242752,15.508187 C9.71242752,15.0939564 9.79221662,14.668101 9.95179483,14.2306206 Z M14.7376439,7.35584615 L15.9812212,8.28671112 L13.2977121,11.9374472 C13.4431598,11.9180542 13.5667903,11.9035094 13.6686036,11.8938129 C13.770417,11.8841164 13.8504133,11.8792681 13.9085922,11.8792681 C14.0056088,11.8792681 14.1012246,11.8832229 14.1954398,11.8911325 L11.3632584,12.5955999 L10.8774275,12.5948462 L14.7376439,7.35584615 Z" id="Combined-Shape" fill="#113DCD"></path>
                <path d="M23.8833485,8.00923077 L23.8833485,9.59461017 L20.4216944,9.59461017 L19.8689933,11.4563401 C19.9514137,11.4466436 20.0301978,11.4393712 20.1053458,11.434523 C20.1804937,11.4296747 20.2495813,11.4272506 20.3126086,11.4272506 C21.1578581,11.4272506 21.8852184,11.6484749 22.4946893,12.0909236 L17.9636525,12.5955999 L17.8994077,12.5002308 L19.2435684,8.00923077 L23.8833485,8.00923077 Z" id="Combined-Shape" fill="#113DCD"></path>
                <path d="M20.2854918,19.3841274 C19.2021829,19.3841274 18.2211825,18.950949 17.5021209,18.2500271 C17.8206557,17.832086 18.0506684,17.4184987 18.2313408,16.8735791 C18.6928173,17.5128256 19.4387259,17.9329434 20.2854918,17.9329434 C21.6858843,17.9329434 22.8250638,16.793764 22.8250638,15.3933714 C22.8250638,13.9929789 21.6858843,12.8537994 20.2854918,12.8537994 C19.4387259,12.8537994 18.6928173,13.2739171 18.2306152,13.9131636 C17.3112901,15.1858521 18.209573,15.9919848 17.0203278,17.6833398 C16.2882054,18.7252899 15.0888019,19.3841274 13.7551637,19.3841274 C11.5508152,19.3841274 9.76440774,17.5977199 9.76440774,15.3933714 C9.76440774,13.1890229 11.5508152,11.4026154 13.7551637,11.4026154 C14.8384726,11.4026154 15.819473,11.8357938 16.5385346,12.5367157 C16.2199998,12.9546567 15.9899871,13.3682441 15.8100403,13.9131636 C15.3478382,13.2739171 14.6019296,12.8537994 13.7551637,12.8537994 C12.3547712,12.8537994 11.2155917,13.9929789 11.2155917,15.3933714 C11.2155917,16.793764 12.3547712,17.9329434 13.7551637,17.9329434 C15.1816776,17.9329434 16.2947357,16.7444237 16.2947357,15.3933714 C16.2947357,13.178139 18.0985575,11.4026154 20.2854918,11.4026154 C22.4898403,11.4026154 24.2762478,13.1890229 24.2762478,15.3933714 C24.2762478,17.5977199 22.4898403,19.3841274 20.2854918,19.3841274 Z" id="Path" fill="#113DCD"></path>
                <polygon id="Path-7" fill="#113DCD" points="17.4938462 17.1769501 17.4938462 20.6128482 18.5258423 20.6128482 18.5258423 17.8001831 20.6297939 16.5783479 20.0347289 15.5969231"></polygon>
            </g>
            <g id="Group-36" fill="#000000" fill-opacity="0.7">
                <path d="M35.0805382,9.67 L27.0805382,1.67 C26.2265528,0.815223488 25.0688106,0.33343016 23.8605382,0.33 L4.55053819,0.33 C3.3341723,0.332594321 2.16925641,0.821054179 1.31480608,1.68677199 C0.460355742,2.55248981 -0.0128019506,3.7237045 0.000263572212,4.94 L0.000263572212,44.39 C0.000263572212,46.9028956 2.03764258,48.94 4.55053819,48.94 L21.3905382,48.94 L21.3905382,45.94 L4.55053819,45.94 C3.71333501,45.9345457 3.03599246,45.2572032 3.03053819,44.42 L3.03053819,4.94 C3.04687821,4.11226596 3.7226429,3.44983873 4.55053819,3.45 L21.2405382,3.45 L21.2405382,13.31 C21.2378648,13.9155092 21.4772198,14.4969907 21.9053837,14.9251545 C22.3335475,15.3533183 22.915029,15.5926734 23.5205382,15.59 L33.3805382,15.59 L33.3805382,24.45 L36.3806206,24.45 L36.3806206,12.89 C36.3877549,11.6874277 35.9206633,10.5304777 35.0805382,9.67 Z M24.2705382,12.52 L24.2705382,3.45 C24.5383086,3.51290703 24.7838099,3.6477599 24.9805382,3.84 L32.9805382,11.84 C33.1769301,12.0311647 33.3155491,12.273748 33.3805382,12.54 L24.2705382,12.52 Z" id="Shape"></path>
                <g id="Group-23" transform="translate(7.260538, 19.000000)">
                    <rect id="Rectangle" x="0.84" y="0.62" width="18.21" height="3.03" rx="1.14"></rect>
                    <path d="M10.56,9.73 C10.91,9.73 11.2,9.22 11.2,8.59 L11.2,7.84 C11.2,7.21 10.91,6.7 10.56,6.7 L1.56,6.7 C1.2,6.7 0.91,7.21 0.91,7.84 L0.91,8.59 C0.91,9.22 1.2,9.73 1.56,9.73 L10.56,9.73 Z" id="Path"></path>
                    <path d="M10.56,15.8 C10.91,15.8 11.2,15.29 11.2,14.66 L11.2,13.91 C11.2,13.28 10.91,12.77 10.56,12.77 L1.56,12.77 C1.2,12.77 0.91,13.28 0.91,13.91 L0.91,14.66 C0.91,15.29 1.2,15.8 1.56,15.8 L10.56,15.8 Z" id="Path-2"></path>
                </g>
            </g>
        </g>
    </g>
</svg>