<?xml version="1.0" encoding="UTF-8"?>
<svg width="46px" height="49px" viewBox="0 0 46 49" version="1.1" xmlns="http://www.w3.org/2000/svg" xmlns:xlink="http://www.w3.org/1999/xlink">
    <title>Group 35</title>
    <defs>
        <path d="M14.597384,27.386432 C16.301408,27.386432 17.734952,26.088128 17.734952,24.03248 C17.734952,21.895688 16.54484,20.894912 14.867864,20.894912 C14.218712,20.894912 13.353176,21.300632 12.812216,21.976832 C12.89336,19.461368 13.84004,18.595832 14.98958,18.595832 C15.571112,18.595832 16.179692,18.920408 16.531316,19.326128 L17.586188,18.136016 C16.977608,17.513912 16.098548,17 14.867864,17 C12.852788,17 11,18.595832 11,22.328456 C11,25.85822 12.6905,27.386432 14.597384,27.386432 Z M14.556812,25.885268 C13.718324,25.885268 13.042124,25.18202 12.852788,23.35628 C13.312604,22.598936 13.948232,22.301408 14.489192,22.301408 C15.354728,22.301408 15.922736,22.855892 15.922736,24.03248 C15.922736,25.263164 15.300632,25.885268 14.556812,25.885268 Z M22.279016,27.386432 C24.334664,27.386432 25.660016,25.58774 25.660016,22.27436 C25.660016,18.988028 24.334664,17.256956 22.279016,17.256956 C20.223368,17.256956 18.884492,18.974504 18.884492,22.27436 C18.884492,25.58774 20.223368,27.386432 22.279016,27.386432 Z M22.279016,25.831172 C21.41348,25.831172 20.764328,24.992684 20.764328,22.27436 C20.764328,19.56956 21.41348,18.812216 22.279016,18.812216 C23.144552,18.812216 23.78018,19.56956 23.78018,22.27436 C23.78018,24.992684 23.144552,25.831172 22.279016,25.831172 Z" id="path-1"></path>
        <path d="M13.9166667,34 L13.9166667,33.2235495 L12.3939394,33.2235495 L12.3939394,32.8566553 L13.5,32.8566553 L13.5,32.1825939 L12.3939394,32.1825939 L12.3939394,31.8242321 L13.6060606,31.8242321 L13.6060606,31.1757679 L14,31.1757679 L14,29.7167235 L12.4090909,29.7167235 L12.4090909,29 L11.5454545,29 L11.5454545,29.7167235 L10,29.7167235 L10,31.1757679 L10.3712121,31.1757679 L10.3712121,31.8242321 L11.5681818,31.8242321 L11.5681818,32.1825939 L10.4469697,32.1825939 L10.4469697,32.8566553 L11.5681818,32.8566553 L11.5681818,33.2235495 L10.0227273,33.2235495 L10.0227273,34 L13.9166667,34 Z M15.2846715,37 C15.8832117,37 16.3357664,36.9649507 16.620438,36.7897043 C16.9124088,36.6319825 17,36.3340635 17,35.7557503 L17,29 L16.1605839,29 L16.1605839,35.746988 C16.1605839,35.8871851 16.1094891,35.939759 15.9854015,35.939759 L15.9270974,35.9400235 L15.9270974,35.9400235 L15.7591241,35.9410572 C15.5612328,35.9417062 15.2822384,35.939759 15,35.9222344 C15.1240876,36.2201533 15.2481752,36.7020811 15.2846715,37 Z M14.9584636,35 L14.9584636,30 L14.0415364,30 L14.0415364,35 L14.9584636,35 Z M10.9776358,30.8002328 L10,30.8002328 L10,30.1997672 L13,30.1997672 L13,30.8002328 L12.0223642,30.8002328 L12.0223642,30.3620552 L10.9776358,30.3620552 L10.9776358,30.8002328 Z M10.7661098,37 L10.7661098,36.5700326 L12.1909308,36.5700326 L12.1909308,36.9120521 L13,36.9120521 L13,34 L10,34 L10,37 L10.7661098,37 Z M13,35.844862 L11,35.844862 L11,35.155138 L13,35.155138 L13,35.844862 Z M24.9828068,37 L24.9828068,29 L24.0171932,29 L24.0171932,37 L24.9828068,37 Z M20.5172414,35.9740338 C20.887931,35.9426898 21.1293103,35.8721659 21.3706897,35.6370861 C21.6724138,35.3314824 21.8275862,34.571391 21.9655172,32.8396366 C21.9913793,32.7142607 22,32.4556729 22,32.4556729 L19.2844828,32.4556729 C19.3362069,32.1892492 19.387931,31.9071534 19.4310345,31.6328937 L21.9310345,31.6328937 L21.9310345,29 L18.3189655,29 L18.3189655,29.8697952 L20.9137931,29.8697952 L20.9137931,30.7630984 L18.5258621,30.7630984 C18.4137931,31.6642376 18.1982759,32.7847846 18,33.521368 L19.0344828,33.6702519 C19.0603448,33.5605479 19.0862069,33.4430081 19.112069,33.3176322 L20.862069,33.3176322 C20.7672414,34.3441473 20.6551724,34.8378148 20.4741379,34.9710267 C20.362069,35.0493866 20.2586207,35.0650586 20.0862069,35.0650586 C19.8534483,35.0650586 19.3017241,35.0572226 18.7844828,35.0102067 C18.9827586,35.2844664 19.137931,35.6919381 19.1637931,35.9897058 C19.6896552,36.0053778 20.2155172,36.0053778 20.5172414,35.9740338 Z" id="path-2"></path>
    </defs>
    <g id="Japan" stroke="none" stroke-width="1" fill="none" fill-rule="evenodd">
        <g id="Group-35" fill-rule="nonzero">
            <g id="60">
                <use fill="#000000" xlink:href="#path-1"></use>
                <use fill="#113DCD" xlink:href="#path-1"></use>
            </g>
            <g id="割引">
                <use fill="#000000" xlink:href="#path-2"></use>
                <use fill="#113DCD" xlink:href="#path-2"></use>
            </g>
            <path d="M44.4463876,27.133115 L42.8428421,25.5295625 C42.308897,24.9951875 41.608655,24.728 40.9084131,24.728 C40.2081711,24.728 39.5079293,24.9951875 38.9735566,25.529135 L23.9093778,40.59338 L23.3664551,45.476285 C23.2980554,46.0910301 23.7824108,46.616 24.3839007,46.616 C24.421948,46.616 24.4599953,46.6138625 24.4988977,46.6095875 L29.3783612,46.0705099 L44.4468151,31.00199 C45.5151328,29.9336675 45.5151328,28.2014375 44.4463876,27.133115 Z M28.7503665,44.7640699 L24.7733515,45.2048225 L25.2162395,41.221805 L36.4974874,29.9405075 L40.0358895,33.478925 L28.7503665,44.7640699 Z M43.4793869,30.034985 L41.0028903,32.5114925 L37.4644882,28.973075 L39.9409848,26.4965675 C40.1991938,26.2383575 40.5429023,26.096 40.9084131,26.096 C41.273924,26.096 41.6172049,26.2383575 41.8758413,26.4965675 L43.4793869,28.10012 C44.012477,28.63364 44.012477,29.501465 43.4793869,30.034985 Z" id="Shape-Copy-2" stroke-opacity="0.7" stroke="#262626" stroke-width="0.5" fill-opacity="0.7" fill="#000000" transform="translate(34.304000, 35.672000) rotate(-360.000000) translate(-34.304000, -35.672000) "></path>
            <path d="M35.0805382,9.34 L27.0805382,1.34 C26.2265528,0.485223488 25.0688106,0.00343015982 23.8605382,1.0658141e-14 L4.55053819,1.0658141e-14 C3.3341723,0.00259432101 2.16925641,0.491054179 1.31480608,1.35677199 C0.460355742,2.22248981 -0.0128019506,3.3937045 0.000263572212,4.61 L0.000263572212,44.06 C0.000263572212,46.5728956 2.03764258,48.61 4.55053819,48.61 L21.3905382,48.61 L21.3905382,45.61 L4.55053819,45.61 C3.71333501,45.6045457 3.03599246,44.9272032 3.03053819,44.09 L3.03053819,4.61 C3.04687821,3.78226596 3.7226429,3.11983873 4.55053819,3.12 L21.2405382,3.12 L21.2405382,12.98 C21.2378648,13.5855092 21.4772198,14.1669907 21.9053837,14.5951545 C22.3335475,15.0233183 22.915029,15.2626734 23.5205382,15.26 L33.3805382,15.26 L33.3805382,24.12 L36.3806206,24.12 L36.3806206,12.56 C36.3877549,11.3574277 35.9206633,10.2004777 35.0805382,9.34 Z M24.2705382,12.19 L24.2705382,3.12 C24.5383086,3.18290703 24.7838099,3.3177599 24.9805382,3.51 L32.9805382,11.51 C33.1769301,11.7011647 33.3155491,11.943748 33.3805382,12.21 L24.2705382,12.19 Z" id="Shape-Copy-3" fill-opacity="0.7" fill="#000000"></path>
        </g>
    </g>
</svg>