<svg width="162" height="120" viewBox="0 0 162 120" fill="none" xmlns="http://www.w3.org/2000/svg">
<path d="M111.337 40.8171C111.337 40.8171 87.5412 101.052 88.9397 104.155C90.3382 107.257 129.609 126.685 144.107 117.602C144.107 117.602 144.209 107.781 146.458 100.138C148.707 92.4955 161.919 55.8143 161.919 55.8143L111.337 40.8171Z" fill="#FCF8EC"/>
<path d="M134.985 117.901C138.104 116.353 140.726 113.962 142.554 111C142.372 111.393 142.203 111.797 141.974 112.177C140.413 114.866 137.93 116.9 134.985 117.901Z" fill="#ABBAC2"/>
<path d="M114.686 51.9104C120.483 53.959 126.77 56.1938 132.606 58.0807C138.608 60.0134 144.624 61.9987 150.843 63.1091C150.06 62.9966 149.276 62.8912 148.499 62.7577C146.321 62.3571 143.693 61.7316 141.574 61.1483C132.45 58.5716 123.476 55.4875 114.696 51.9104H114.686Z" fill="#ABBAC2"/>
<path d="M112.773 59.0365C118.568 61.0815 124.858 63.3199 130.694 65.2033C136.696 67.1359 142.715 69.1213 148.931 70.2317C148.151 70.1192 147.367 70.0138 146.587 69.8803C144.409 69.4762 141.784 68.8507 139.662 68.2674C130.539 65.6908 121.567 62.6079 112.787 59.033L112.773 59.0365Z" fill="#ABBAC2"/>
<path d="M110.859 66.1591C116.657 68.2077 122.943 70.4425 128.78 72.3294C134.781 74.2585 140.797 76.2474 147.013 77.3578C146.233 77.2418 145.449 77.1399 144.669 77.0064C142.484 76.6058 139.859 75.9803 137.751 75.383C128.627 72.8031 119.654 69.719 110.873 66.145L110.859 66.1591Z" fill="#ABBAC2"/>
<path d="M108.937 73.2747C114.731 75.3232 121.021 77.5616 126.858 79.445C132.859 81.3776 138.875 83.363 145.095 84.4734C144.315 84.3609 143.531 84.2555 142.751 84.122C140.572 83.7214 137.947 83.0959 135.825 82.5126C126.697 79.9369 117.721 76.8528 108.937 73.2747Z" fill="#ABBAC2"/>
<path d="M107.033 80.4078C112.827 82.4564 119.117 84.6912 124.953 86.5782C130.955 88.5073 136.971 90.4962 143.187 91.6065C142.407 91.4906 141.623 91.3852 140.843 91.2552C138.668 90.8546 136.04 90.2256 133.917 89.6458C124.795 87.0654 115.824 83.9813 107.043 80.4078H107.033Z" fill="#ABBAC2"/>
<path d="M105.121 87.5305C110.915 89.579 117.202 91.8139 123.042 93.7008C129.044 95.6334 135.059 97.6188 141.279 98.7291C140.499 98.6167 139.715 98.5113 138.935 98.3778C136.756 97.9772 134.128 97.3517 132.009 96.7684C122.886 94.1922 113.914 91.1081 105.135 87.5305H105.121Z" fill="#ABBAC2"/>
<path d="M103.206 94.6566C109 96.7016 115.29 98.94 121.127 100.823C127.128 102.756 133.148 104.741 139.364 105.855C138.584 105.739 137.8 105.634 137.02 105.504C134.841 105.1 132.217 104.474 130.094 103.891C120.972 101.313 112 98.2304 103.22 94.6566H103.206Z" fill="#ABBAC2"/>
<path d="M0.00683594 23.6448C0.00683594 23.6448 24.6531 74.5221 27.4747 75.4568C30.2964 76.3915 65.9797 62.6347 68.7029 47.9537C68.7029 47.9537 62.4518 42.0856 58.8641 36.1261C55.2765 30.1665 39.5378 0 39.5378 0L0.00683594 23.6448Z" fill="#FCF8EC"/>
<path d="M63.5029 53.9906C64.3208 51.0674 64.333 47.9774 63.5381 45.0478C63.6154 45.22 63.6892 45.3992 63.763 45.5749C64.2826 46.9272 64.5273 48.3696 64.4826 49.8177C64.438 51.2658 64.1049 52.6904 63.5029 54.0082V53.9906Z" fill="#ABBAC2"/>
<path d="M9.10791 28.0477C13.4265 25.732 19.4492 22.5485 23.6413 20.1661C28.4272 17.4499 33.2587 14.7617 37.6581 11.4376C37.124 11.8733 36.6039 12.3161 36.0487 12.7413C32.1835 15.6367 27.9985 18.0964 23.8134 20.4718C18.9819 23.1493 14.1011 25.7074 9.10791 28.0477Z" fill="#ABBAC2"/>
<path d="M12.5557 33.4836C16.8742 31.1715 22.897 27.9844 27.089 25.602C31.8749 22.8893 36.7065 20.2152 41.1199 16.8771C40.5858 17.3128 40.0657 17.7555 39.5105 18.1772C35.6453 21.0726 31.4603 23.5323 27.2753 25.9077C22.4507 28.5853 17.5629 31.1434 12.5697 33.4836H12.5557Z" fill="#ABBAC2"/>
<path d="M16.002 38.9231C20.3205 36.611 26.3433 33.4239 30.5353 31.0415C35.3212 28.3288 40.1528 25.6372 44.5521 22.3131C44.018 22.7488 43.498 23.1915 42.9428 23.6167C39.0775 26.5121 34.8925 28.9719 30.7075 31.3472C25.8829 34.0248 20.9952 36.5829 16.002 38.9231Z" fill="#ABBAC2"/>
<path d="M19.4492 44.3626C23.7678 42.0469 29.7905 38.8634 33.9826 36.481C38.772 33.7683 43.6 31.0767 47.9994 27.7525C47.4653 28.1883 46.9452 28.631 46.39 29.0562C42.5248 31.9516 38.3398 34.4113 34.1547 36.7867C29.3337 39.4643 24.4424 42.0223 19.4492 44.3626Z" fill="#ABBAC2"/>
<path d="M22.8965 49.802C27.215 47.4864 33.2378 44.3028 37.4298 41.9169C42.2192 39.2042 47.0473 36.5161 51.4467 33.192C50.9125 33.6277 50.3925 34.0705 49.8373 34.4956C45.972 37.3875 41.787 39.8508 37.602 42.2261C32.781 44.9037 27.8897 47.4618 22.8965 49.8056V49.802Z" fill="#ABBAC2"/>
<path d="M26.3613 55.238C30.6799 52.9259 36.7026 49.7388 40.8947 47.3564C45.6841 44.6437 50.5121 41.9521 54.9115 38.628C54.3774 39.0637 53.8573 39.5064 53.3021 39.9316C49.4369 42.827 45.2519 45.2867 41.0669 47.6621C36.2458 50.3397 31.3545 52.8978 26.3613 55.238Z" fill="#ABBAC2"/>
<path d="M29.791 60.6775C34.1096 58.3618 40.1323 55.1783 44.3244 52.7959C49.1138 50.0832 53.9418 47.3915 58.3412 44.0674C57.8071 44.5031 57.287 44.9459 56.7353 45.3711C52.8701 48.2665 48.6816 50.7262 44.4965 53.1016C39.6755 55.7791 34.7842 58.3372 29.791 60.6775Z" fill="#ABBAC2"/>
<path d="M124.128 13.967L122.088 12.4232L112.603 24.9559L114.643 26.4997L124.128 13.967Z" fill="#94C8E3"/>
<path d="M131.457 26.6316C131.412 26.6913 131.366 26.744 131.32 26.8003L107.454 9.02713C107.5 8.97091 107.538 8.91117 107.581 8.85495C107.623 8.79872 107.581 8.85495 107.581 8.85495C112.5 2.26996 119.879 -0.0386503 128.393 5.82248C128.604 5.96655 128.808 6.1071 129.005 6.2582C137.153 12.2318 136.247 20.1942 131.457 26.6316Z" fill="#4E7AED"/>
<path d="M129.046 24.5444C129.001 24.6041 128.952 24.6568 128.909 24.7165L107.591 8.84088C112.51 2.25589 119.889 -0.0527189 128.403 5.80841C128.614 5.95248 128.818 6.09303 129.015 6.24413C134.489 11.9155 133.302 18.8343 129.046 24.5444Z" fill="#6289FA"/>
<path d="M110.272 9.50148C111.214 8.50705 112.177 7.45641 113.27 6.74309C114.644 5.84706 116.218 5.42891 117.838 5.14428C118.036 5.08928 118.203 4.95824 118.305 4.7798C118.406 4.60136 118.433 4.39004 118.379 4.19203C118.321 3.99633 118.189 3.83072 118.012 3.72985C117.834 3.62899 117.625 3.60069 117.427 3.65089C115.685 3.89892 114.012 4.49654 112.507 5.40782C111.246 6.23007 110.22 7.32639 109.194 8.40867C108.491 9.13252 109.601 10.2324 110.29 9.50499L110.272 9.50148Z" fill="white"/>
<path d="M119.932 4.75427C120.93 4.75427 120.933 3.20465 119.932 3.20465C118.93 3.20465 118.934 4.75427 119.932 4.75427Z" fill="white"/>
<path d="M55.6653 26.9902L57.7051 25.4464L48.2198 12.9137L46.18 14.4575L55.6653 26.9902Z" fill="#94C8E3"/>
<path d="M38.8494 27.1235C38.8916 27.1798 38.9408 27.2325 38.9865 27.2922L62.8527 9.51905C62.807 9.46283 62.7683 9.40309 62.7262 9.34336C57.8068 2.76189 50.4276 0.449761 41.9135 6.31089C41.7027 6.45847 41.4989 6.59903 41.3021 6.75013C33.1535 12.7237 34.06 20.6826 38.8494 27.1235Z" fill="#4E7AED"/>
<path d="M41.2599 25.0363L41.397 25.2049L62.7156 9.32227C57.7962 2.7408 50.4171 0.428674 41.903 6.2898C41.6921 6.43739 41.4883 6.57794 41.2916 6.72904C35.817 12.4074 37.0046 19.3263 41.2599 25.0363Z" fill="#6289FA"/>
<path d="M60.0346 9.99344C59.0929 8.99902 58.1301 7.94837 57.0373 7.23505C55.6633 6.33902 54.0856 5.91735 52.4692 5.63624C52.2725 5.57964 52.1058 5.44831 52.0047 5.27036C51.9035 5.0924 51.8761 4.88194 51.9281 4.68399C51.987 4.48802 52.1193 4.32236 52.2973 4.22154C52.4754 4.12073 52.6855 4.09254 52.8839 4.14285C54.6253 4.39088 56.2987 4.9885 57.8033 5.89978C59.0648 6.71851 60.0908 7.81836 61.1169 8.90063C61.8196 9.62448 60.7092 10.7208 60.0205 9.99695L60.0346 9.99344Z" fill="white"/>
<path d="M50.3748 5.23569C51.3727 5.23569 51.3727 3.68256 50.3748 3.68256C49.3768 3.68256 49.3733 5.23569 50.3748 5.23569Z" fill="white"/>
<path opacity="0.11" d="M86.5217 117.391C119.899 117.391 146.956 116.807 146.956 116.087C146.956 115.367 119.899 114.783 86.5217 114.783C53.1445 114.783 26.0869 115.367 26.0869 116.087C26.0869 116.807 53.1445 117.391 86.5217 117.391Z" fill="#344C82"/>
<path d="M86.2657 107.812C111.149 107.812 131.321 87.6407 131.321 62.7577C131.321 37.8746 111.149 17.7029 86.2657 17.7029C61.3827 17.7029 41.2109 37.8746 41.2109 62.7577C41.2109 87.6407 61.3827 107.812 86.2657 107.812Z" fill="#F3F8FA"/>
<path d="M46.3441 90.0499C46.3441 90.0499 38.3747 113.006 40.7957 113.663C43.2168 114.32 60.5015 99.7833 60.5015 99.7833L46.3441 90.0499Z" fill="#4E7AED"/>
<path d="M125.898 90.0499C125.898 90.0499 133.868 113.006 131.447 113.663C129.026 114.32 111.748 99.7833 111.748 99.7833L125.898 90.0499Z" fill="#4E7AED"/>
<path d="M86.2659 12.2915C76.2848 12.2922 66.528 15.2526 58.2294 20.7983C49.9307 26.344 43.4629 34.226 39.6437 43.4475C35.8246 52.6691 34.8257 62.816 36.7734 72.6053C38.721 82.3945 43.5277 91.3864 50.5857 98.4439C57.6436 105.501 66.6359 110.307 76.4252 112.254C86.2146 114.201 96.3615 113.202 105.583 109.382C114.804 105.562 122.686 99.0938 128.231 90.7948C133.776 82.4958 136.736 72.7388 136.736 62.7577C136.736 56.1301 135.43 49.5674 132.894 43.4443C130.357 37.3212 126.64 31.7577 121.953 27.0715C117.267 22.3852 111.703 18.668 105.58 16.132C99.4563 13.596 92.8935 12.291 86.2659 12.2915ZM86.2659 107.812C77.3549 107.812 68.644 105.17 61.2348 100.219C53.8256 95.2687 48.0508 88.2321 44.6407 79.9994C41.2306 71.7667 40.3384 62.7077 42.0768 53.9679C43.8153 45.2281 48.1063 37.2001 54.4073 30.8991C60.7084 24.5981 68.7364 20.307 77.4761 18.5686C86.2159 16.8301 95.2749 17.7224 103.508 21.1325C111.74 24.5425 118.777 30.3173 123.728 37.7266C128.678 45.1358 131.321 53.8467 131.321 62.7577C131.321 68.6744 130.155 74.5331 127.891 79.9994C125.627 85.4657 122.308 90.4325 118.124 94.6162C113.941 98.7999 108.974 102.119 103.508 104.383C98.0413 106.647 92.1826 107.812 86.2659 107.812Z" fill="#4E7AED"/>
<g style="mix-blend-mode:multiply" opacity="0.23">
<path d="M86.2655 20.0431C98.0043 20.0425 109.28 24.6238 117.691 32.8118C126.103 40.9997 130.987 52.1476 131.303 63.8821C131.303 63.5097 131.32 63.1337 131.32 62.7577C131.373 56.8078 130.246 50.9063 128.006 45.3942C125.765 39.882 122.455 34.8682 118.266 30.6422C114.077 26.4163 109.093 23.0619 103.601 20.7728C98.1086 18.4836 92.2174 17.305 86.2672 17.305C80.317 17.305 74.4258 18.4836 68.9336 20.7728C63.4414 23.0619 58.4571 26.4163 54.2683 30.6422C50.0795 34.8682 46.7693 39.882 44.5287 45.3942C42.2881 50.9063 41.1616 56.8078 41.2142 62.7577C41.2142 63.1337 41.2142 63.5097 41.2142 63.8821C41.531 52.1454 46.4168 40.996 54.8314 32.8079C63.246 24.6197 74.5245 20.0398 86.2655 20.0431Z" fill="#94C8E3"/>
</g>
<path d="M96.2134 14.6247C109.513 17.0668 121.826 25.6934 127.88 37.8935C127.058 36.4161 126.158 34.9828 125.185 33.5996C118.414 23.9013 107.7 17.2004 96.2134 14.6247Z" fill="#94C8E3"/>
<path d="M86.9504 88.5741C101.381 88.5741 113.08 76.8757 113.08 62.4449C113.08 48.0142 101.381 36.3158 86.9504 36.3158C72.5197 36.3158 60.8213 48.0142 60.8213 62.4449C60.8213 76.8757 72.5197 88.5741 86.9504 88.5741Z" fill="#50CAAE"/>
<path d="M50.0588 72.7897C49.6288 72.7885 49.2119 72.6416 48.8762 72.3729C48.5405 72.1042 48.3058 71.7297 48.2105 71.3104C48.091 70.7974 47.9856 70.2773 47.8872 69.7573C49.1311 67.5611 51.4432 68.2604 51.7841 69.8802C51.8895 70.3687 52.0019 70.8571 52.1355 71.3385C51.5908 72.3575 50.7967 72.7897 50.0588 72.7897ZM49.1451 65.8955C48.6547 65.895 48.1834 65.705 47.8298 65.3651C47.4762 65.0253 47.2676 64.5619 47.2477 64.0718L47.2266 63.4077C47.2208 63.1581 47.2643 62.9097 47.3545 62.6769C47.4447 62.444 47.5799 62.2312 47.7523 62.0506C47.9248 61.87 48.1311 61.7252 48.3595 61.6243C48.588 61.5234 48.834 61.4686 49.0837 61.4628C49.3333 61.457 49.5816 61.5005 49.8145 61.5907C50.0473 61.6809 50.2601 61.8161 50.4407 61.9885C50.6213 62.161 50.7662 62.3673 50.8671 62.5957C50.9679 62.8242 51.0228 63.0702 51.0286 63.3199C51.0286 63.5202 51.0286 63.7204 51.0462 63.9207C51.0661 64.4244 50.8852 64.9154 50.5432 65.2858C50.2012 65.6561 49.7261 65.8754 49.2225 65.8955H49.1451ZM49.4965 58.9521C48.857 58.9521 48.1718 58.6253 47.4726 57.8663C47.578 56.9691 47.7103 56.0836 47.8696 55.2099C49.8233 53.6075 51.7349 55.0904 51.4678 56.7243C51.4362 56.9211 51.4046 57.1214 51.3765 57.3182C51.3115 57.7699 51.0862 58.1832 50.7417 58.4826C50.3972 58.7819 49.9565 58.9474 49.5001 58.9486L49.4965 58.9521ZM51.1129 52.1844C50.3364 52.1844 49.5141 51.71 49.0257 50.5575C49.274 49.754 49.5504 48.9599 49.855 48.1751C52.0687 46.9593 53.6675 48.7689 53.1088 50.3256C53.042 50.5153 52.9753 50.7051 52.912 50.8948C52.7853 51.2712 52.544 51.5985 52.2221 51.831C51.9001 52.0635 51.5135 52.1895 51.1164 52.1914L51.1129 52.1844ZM53.9486 45.8278C53.0666 45.8278 52.153 45.2164 51.8403 43.8109C52.2338 43.0706 52.6508 42.3421 53.0912 41.6252C55.4912 40.8346 56.7351 42.9078 55.9023 44.3379L55.6001 44.858C55.436 45.1509 55.1968 45.3948 54.9072 45.5646C54.6175 45.7345 54.2879 45.8241 53.9521 45.8243L53.9486 45.8278ZM57.9017 40.1037C56.9108 40.1037 55.9093 39.3307 55.8602 37.7038C56.3802 37.0432 56.9143 36.4072 57.4906 35.7817C59.9925 35.4479 60.8323 37.7108 59.75 38.9617L59.36 39.4221C59.1819 39.6347 58.9594 39.8057 58.708 39.9229C58.4566 40.04 58.1826 40.1006 57.9052 40.1002L57.9017 40.1037ZM62.8211 35.1843C61.7143 35.1843 60.6214 34.2215 60.9026 32.4189C61.535 31.8672 62.1851 31.3402 62.8527 30.8306C65.3757 30.9536 65.7903 33.3325 64.4972 34.3691C64.3426 34.4909 64.188 34.6174 64.0334 34.7486C63.6978 35.029 63.2759 35.1853 62.8387 35.1914L62.8211 35.1843ZM68.5628 31.2593C67.3294 31.2593 66.1663 30.0576 66.834 28.1601C67.5367 27.7349 68.2922 27.3308 69.0407 26.9513C71.5004 27.5346 71.4723 29.9487 70.014 30.7323C69.8348 30.8236 69.6626 30.922 69.4869 31.0169C69.2107 31.1754 68.8988 31.2612 68.5803 31.2664L68.5628 31.2593ZM74.9194 28.4482C73.5525 28.4482 72.3437 26.9619 73.4435 25.0503C74.2271 24.7657 75.0283 24.5092 75.8365 24.2703C78.1451 25.2998 77.6742 27.6682 76.0965 28.1636L75.5238 28.3499C75.3351 28.4167 75.137 28.4535 74.9369 28.4588L74.9194 28.4482ZM81.7082 26.8916C80.1867 26.8916 78.9814 25.0574 80.5345 23.2442C81.3568 23.1107 82.1884 23.0029 83.0294 22.9209C85.1096 24.3546 84.21 26.5964 82.569 26.7862L81.9717 26.8635C81.8847 26.8798 81.7966 26.8892 81.7082 26.8916Z" fill="url(#paint0_linear_47_911)"/>
<path d="M101.909 24.7833C97.6886 23.1037 93.2139 22.1532 88.6755 21.9722V26.8565C93.2145 27.0728 97.6699 28.1583 101.8 30.0541C118.491 37.6827 126.671 57.0055 120.55 74.3042C118.949 78.8208 116.455 82.9686 113.215 86.4999C109.976 90.0312 106.059 92.8736 101.697 94.8575C97.3349 96.8414 92.6179 97.926 87.8275 98.0466C83.0372 98.1672 78.2716 97.3214 73.8153 95.5596C67.399 93.0156 62.9996 88.6443 60.2272 85.0567L63.3897 86.3111C66.3694 85.2324 66.0005 82.235 64.0925 81.4725L55.2586 77.9586C53.3611 77.5018 52.2191 78.4436 52.0294 79.8526L50.673 89.6915C50.6315 90.0006 50.6512 90.3149 50.7312 90.6165C50.8111 90.918 50.9497 91.2008 51.1389 91.4488C51.3282 91.6968 51.5644 91.9051 51.8342 92.0618C52.1039 92.2184 52.4019 92.3205 52.711 92.362C53.0202 92.4035 53.3345 92.3838 53.6361 92.3038C53.9376 92.2239 54.2204 92.0853 54.4684 91.8961C54.7164 91.7068 54.9247 91.4706 55.0814 91.2008C55.238 90.9311 55.3401 90.6331 55.3816 90.3239L55.8489 87.1158C58.9517 91.3641 64.0714 96.9546 72.0127 100.117C92.7059 108.329 116.435 98.0861 124.647 77.3894C132.859 56.6927 122.598 32.9776 101.909 24.7833Z" fill="#50CAAE"/>
<path d="M86.0691 68.8577C86.0691 73.9845 82.383 77.3086 75.777 77.3086C69.1709 77.3086 65.4848 73.9845 65.4848 68.8577C65.464 67.5177 65.7882 66.1949 66.4263 65.0164C67.0645 63.838 67.9951 62.8435 69.1287 62.1287C68.2632 61.4699 67.5679 60.6136 67.1008 59.6312C66.6338 58.6489 66.4086 57.569 66.4441 56.4819C66.4441 51.0354 70.6081 48.154 75.777 48.154C80.9459 48.154 85.1063 51.0354 85.1063 56.4819C85.1416 57.5686 84.9167 58.6481 84.4503 59.6303C83.984 60.6126 83.2896 61.4691 82.4252 62.1287C83.5583 62.844 84.4886 63.8386 85.1267 65.0169C85.7648 66.1953 86.0893 67.5179 86.0691 68.8577ZM79.6598 67.9371C79.6598 65.8288 78.0188 64.5743 75.777 64.5743C73.5351 64.5743 71.8906 65.8147 71.8906 67.9371C71.8906 70.0595 73.5316 71.2999 75.777 71.2999C78.0223 71.2999 79.6598 70.0595 79.6598 67.9371ZM72.8534 56.8825C72.8534 58.4461 73.9743 59.6057 75.777 59.6057C77.5796 59.6057 78.7005 58.4461 78.7005 56.8825C78.7005 55.3188 77.5796 54.1592 75.777 54.1592C73.9743 54.1592 72.8534 55.3223 72.8534 56.8825Z" fill="white"/>
<path d="M96.7719 56.5451V67.6314H94.2384V63.2285H90.7526V67.6314H88.2051V56.5451H90.7386V60.7899H94.2243V56.5451H96.7719Z" fill="white"/>
<path d="M103.343 59.5706V62.2622C102.363 62.1041 100.968 62.4976 100.968 64.0683V67.6455H98.5923V59.7147H100.968V61.1202C101.284 60.0625 102.345 59.5706 103.343 59.5706Z" fill="white"/>
<path d="M110.36 65.256C110.36 67.0762 108.775 67.8528 107.064 67.8528C105.479 67.8528 104.278 67.2519 103.659 65.9693L105.718 64.7957C105.801 65.0823 105.98 65.3315 106.225 65.5017C106.47 65.6719 106.767 65.7527 107.064 65.7304C107.633 65.7304 107.918 65.5582 107.918 65.242C107.918 64.3705 104.025 64.8273 104.025 62.0795C104.025 60.3507 105.479 59.4792 107.127 59.4792C107.747 59.4603 108.36 59.6078 108.903 59.9063C109.447 60.2047 109.9 60.6433 110.216 61.1764L108.189 62.2692C108.101 62.0619 107.954 61.8849 107.767 61.76C107.579 61.6351 107.36 61.5678 107.134 61.5665C106.723 61.5665 106.47 61.7246 106.47 62.0127C106.477 62.9298 110.36 62.3254 110.36 65.256Z" fill="white"/>
<defs>
<linearGradient id="paint0_linear_47_911" x1="42.4408" y1="56.479" x2="89.5437" y2="38.2469" gradientUnits="userSpaceOnUse">
<stop stop-color="#7EDBB5"/>
<stop offset="1" stop-color="#ECF5FF"/>
</linearGradient>
</defs>
</svg>
