<?xml version="1.0" encoding="UTF-8"?>
<svg width="79px" height="79px" viewBox="0 0 79 79" version="1.1" xmlns="http://www.w3.org/2000/svg" xmlns:xlink="http://www.w3.org/1999/xlink">
    <title>accepted-document</title>
    <g id="Explorations" stroke="none" stroke-width="1" fill="none" fill-rule="evenodd">
        <g id="SES-service-Copy-2" transform="translate(-288.000000, -122.000000)" fill-rule="nonzero">
            <g id="Group-4" transform="translate(228.000000, 91.000000)">
                <g id="Group-2" transform="translate(60.000000, 30.000000)">
                    <g id="accepted-document" transform="translate(0.000000, 1.000000)">
                        <path d="M31.6666667,57.8212766 C31.6666667,43.3659574 43.1666667,31.7680851 57.5,31.7680851 C58.3333333,31.7680851 59.1666667,31.7680851 60,31.9361702 L60,20.1702128 L40,0 L0,0 L0,79 L42.3333333,79 C35.8333333,74.1255319 31.6666667,66.393617 31.6666667,57.8212766 Z M38.1666667,3.19361702 L56.5,21.6829787 L38.1666667,21.6829787 L38.1666667,3.19361702 Z M11,11.5978723 L28.5,11.5978723 C29.8333333,11.5978723 31,12.7744681 31,14.1191489 C31,15.4638298 29.8333333,16.6404255 28.5,16.6404255 L11,16.6404255 C9.66666667,16.6404255 8.5,15.4638298 8.5,14.1191489 C8.5,12.7744681 9.66666667,11.5978723 11,11.5978723 Z M11,29.4148936 L35.3333333,29.4148936 C36.6666667,29.4148936 37.8333333,30.5914894 37.8333333,31.9361702 C37.8333333,33.2808511 36.6666667,34.4574468 35.3333333,34.4574468 L11,34.4574468 C9.66666667,34.4574468 8.5,33.2808511 8.5,31.9361702 C8.5,30.5914894 9.66666667,29.4148936 11,29.4148936 Z M25.3333333,70.0914894 L11,70.0914894 C9.66666667,70.0914894 8.5,68.9148936 8.5,67.5702128 C8.5,66.2255319 9.66666667,65.0489362 11,65.0489362 L25.3333333,65.0489362 C26.6666667,65.0489362 27.8333333,66.2255319 27.8333333,67.5702128 C27.8333333,69.0829787 26.6666667,70.0914894 25.3333333,70.0914894 L25.3333333,70.0914894 Z M25.3333333,52.2744681 L11,52.2744681 C9.66666667,52.2744681 8.5,51.0978723 8.5,49.7531915 C8.5,48.4085106 9.66666667,47.2319149 11,47.2319149 L25.3333333,47.2319149 C26.6666667,47.2319149 27.8333333,48.4085106 27.8333333,49.7531915 C27.8333333,51.0978723 26.6666667,52.2744681 25.3333333,52.2744681 L25.3333333,52.2744681 Z" id="Shape" fill="#FFFFFF"></path>
                        <path d="M58,37 C46.408,37 37,46.408 37,58 C37,69.592 46.408,79 58,79 C69.592,79 79,69.592 79,58 C79,46.408 69.592,37 58,37 Z M67.408,53.8 L55.48,65.728 C54.976,66.232 54.304,66.4 53.632,66.4 L53.296,66.4 C52.456,66.232 51.784,65.896 51.448,65.224 L48.088,59.848 C47.416,58.672 47.752,57.16 48.928,56.32 C50.104,55.648 51.616,55.984 52.456,57.16 L54.136,59.848 L63.88,50.104 C64.888,49.096 66.4,49.096 67.408,50.104 C68.416,51.28 68.416,52.792 67.408,53.8 L67.408,53.8 Z" id="Shape" fill="#00EBA9"></path>
                    </g>
                </g>
            </g>
        </g>
    </g>
</svg>