<?xml version="1.0" encoding="UTF-8"?>
<svg width="45px" height="49px" viewBox="0 0 45 49" version="1.1" xmlns="http://www.w3.org/2000/svg" xmlns:xlink="http://www.w3.org/1999/xlink">
    <title>Group 33 Copy</title>
    <defs>
        <path d="M14.9460582,29.454 L14.9460582,27.75768 L12.7572582,27.75768 C12.2784582,27.75768 11.6081382,27.8124 11.1019782,27.86712 C12.9487782,26.06136 14.4672582,24.09144 14.4672582,22.25832 C14.4672582,20.37048 13.1950182,19.13928 11.2798182,19.13928 C9.89813819,19.13928 8.99525819,19.6728 8.06501819,20.67144 L9.15941819,21.76584 C9.67925819,21.20496 10.2811782,20.72616 11.0198982,20.72616 C11.9911782,20.72616 12.5383782,21.34176 12.5383782,22.36776 C12.5383782,23.92728 10.9104582,25.8288 8.16077819,28.2912 L8.16077819,29.454 L14.9460582,29.454 Z M18.3934182,30.63048 L18.3934182,25.40472 L26.6561382,25.40472 L26.6561382,28.71528 C26.6561382,28.94784 26.5603782,29.02992 26.3004582,29.0436 C26.0268582,29.0436 25.1376582,29.05728 24.3578982,29.00256 C24.5904582,29.42664 24.8640582,30.17904 24.9461382,30.63048 C26.1636582,30.63048 26.9844582,30.60312 27.5316582,30.32952 C28.1062182,30.0696 28.2977382,29.61816 28.2977382,28.72896 L28.2977382,18.72888 L16.7518182,18.72888 L16.7518182,30.63048 L18.3934182,30.63048 Z M26.6561382,23.79048 L23.2361382,23.79048 L23.2361382,20.34312 L26.6561382,20.34312 L26.6561382,23.79048 Z M21.6218982,23.79048 L18.3934182,23.79048 L18.3934182,20.34312 L21.6218982,20.34312 L21.6218982,23.79048 Z" id="path-1"></path>
    </defs>
    <g id="Japan" stroke="none" stroke-width="1" fill="none" fill-rule="evenodd">
        <g id="Group-33-Copy" transform="translate(0.000000, 0.000000)" fill-rule="nonzero">
            <path d="M43.7069258,26.803115 L42.1033803,25.1995625 C41.5694352,24.6651875 40.8691932,24.398 40.1689513,24.398 C39.4687093,24.398 38.7684675,24.6651875 38.2340948,25.199135 L23.169916,40.26338 L22.6269933,45.146285 C22.5585936,45.7610301 23.042949,46.286 23.6444389,46.286 C23.6824862,46.286 23.7205335,46.2838625 23.7594359,46.2795875 L28.6388994,45.7405099 L43.7073532,30.67199 C44.775671,29.6036675 44.775671,27.8714375 43.7069258,26.803115 Z M28.0109047,44.4340699 L24.0338897,44.8748225 L24.4767777,40.891805 L35.7580256,29.6105075 L39.2964277,33.148925 L28.0109047,44.4340699 Z M42.739925,29.704985 L40.2634284,32.1814925 L36.7250264,28.643075 L39.201523,26.1665675 C39.459732,25.9083575 39.8034405,25.766 40.1689513,25.766 C40.5344622,25.766 40.8777431,25.9083575 41.1363795,26.1665675 L42.739925,27.77012 C43.2730152,28.30364 43.2730152,29.171465 42.739925,29.704985 Z" id="Shape-Copy" stroke-opacity="0.7" stroke="#262626" stroke-width="0.5" fill-opacity="0.7" fill="#000000"></path>
            <g id="2円">
                <use fill="#000000" xlink:href="#path-1"></use>
                <use fill="#113DCD" xlink:href="#path-1"></use>
            </g>
            <path d="M35.0805382,9.34 L27.0805382,1.34 C26.2265528,0.485223488 25.0688106,0.00343015982 23.8605382,-4.61852778e-14 L4.55053819,-4.61852778e-14 C3.3341723,0.00259432101 2.16925641,0.491054179 1.31480608,1.35677199 C0.460355742,2.22248981 -0.0128019506,3.3937045 0.000263572212,4.61 L0.000263572212,44.06 C0.000263572212,46.5728956 2.03764258,48.61 4.55053819,48.61 L21.3905382,48.61 L21.3905382,45.61 L4.55053819,45.61 C3.71333501,45.6045457 3.03599246,44.9272032 3.03053819,44.09 L3.03053819,4.61 C3.04687821,3.78226596 3.7226429,3.11983873 4.55053819,3.12 L21.2405382,3.12 L21.2405382,12.98 C21.2378648,13.5855092 21.4772198,14.1669907 21.9053837,14.5951545 C22.3335475,15.0233183 22.915029,15.2626734 23.5205382,15.26 L33.3805382,15.26 L33.3805382,24.12 L36.3806206,24.12 L36.3806206,12.56 C36.3877549,11.3574277 35.9206633,10.2004777 35.0805382,9.34 Z M24.2705382,12.19 L24.2705382,3.12 C24.5383086,3.18290703 24.7838099,3.3177599 24.9805382,3.51 L32.9805382,11.51 C33.1769301,11.7011647 33.3155491,11.943748 33.3805382,12.21 L24.2705382,12.19 Z" id="Shape" fill-opacity="0.7" fill="#000000"></path>
        </g>
    </g>
</svg>