<svg width="80" height="80" viewBox="0 0 80 80" fill="none" xmlns="http://www.w3.org/2000/svg">
<path d="M40 80C62.0914 80 80 62.0914 80 40C80 17.9086 62.0914 0 40 0C17.9086 0 0 17.9086 0 40C0 62.0914 17.9086 80 40 80Z" fill="#DA8638"/>
<path d="M44.7786 68.75C44.4368 68.75 44.1029 68.6254 43.8551 68.4002C43.5472 68.1175 43.4116 67.7102 43.4976 67.3173L45.3421 58.8456C45.3942 58.6132 45.5142 58.4 45.6995 58.2347L65.9907 39.5999C67.5142 38.1983 70.0004 38.1983 71.5239 39.5999L75.2128 42.9876C76.7389 44.3892 76.7389 46.6676 75.2128 48.0692L54.9216 66.704C54.7416 66.8717 54.5094 66.9843 54.2537 67.0322L45.0316 68.726C44.9481 68.7428 44.862 68.75 44.7786 68.75ZM47.8256 59.6722L46.443 66.0259L53.3589 64.7561L73.371 46.3777C73.8797 45.9105 73.8797 45.151 73.371 44.6839L69.6821 41.2961C69.1734 40.829 68.3464 40.829 67.8377 41.2961L47.8256 59.6722ZM54.0007 65.8582H54.0267H54.0007ZM48.9683 47.1875H22.8803C22.1603 47.1875 21.5759 46.6508 21.5759 45.9896C21.5759 45.3283 22.1603 44.7917 22.8803 44.7917H48.9683C49.6883 44.7917 50.2727 45.3283 50.2727 45.9896C50.2727 46.6508 49.6883 47.1875 48.9683 47.1875ZM43.7507 54.375H22.8803C22.1603 54.375 21.5759 53.8383 21.5759 53.1771C21.5759 52.5158 22.1603 51.9792 22.8803 51.9792H43.7507C44.4707 51.9792 45.0551 52.5158 45.0551 53.1771C45.0551 53.8383 44.4707 54.375 43.7507 54.375ZM35.9243 28.0208C33.0468 28.0208 30.7067 25.8718 30.7067 23.2292C30.7067 20.5866 33.0468 18.4375 35.9243 18.4375C38.8018 18.4375 41.1419 20.5866 41.1419 23.2292C41.1419 25.8718 38.8018 28.0208 35.9243 28.0208ZM35.9243 20.8333C34.4843 20.8333 33.3155 21.9091 33.3155 23.2292C33.3155 24.5493 34.4843 25.625 35.9243 25.625C37.3644 25.625 38.5331 24.5493 38.5331 23.2292C38.5331 21.9091 37.3644 20.8333 35.9243 20.8333ZM45.0551 40C44.3351 40 43.7507 39.4633 43.7507 38.8021V36.4062C43.7507 34.4249 41.995 32.8125 39.8375 32.8125H32.0111C29.8536 32.8125 28.0979 34.4249 28.0979 36.4062V38.8021C28.0979 39.4633 27.5135 40 26.7935 40C26.0735 40 25.4891 39.4633 25.4891 38.8021V36.4062C25.4891 33.1048 28.4136 30.4167 32.0111 30.4167H39.8375C43.435 30.4167 46.3595 33.1048 46.3595 36.4062V38.8021C46.3595 39.4633 45.7751 40 45.0551 40Z" fill="black" stroke="black" stroke-width="0.5"/>
<path d="M38.5336 61.5625H20.272C16.6745 61.5625 13.75 58.8744 13.75 55.5729V17.2396C13.75 13.9381 16.6745 11.25 20.272 11.25H51.5775C55.1751 11.25 58.0995 13.9381 58.0995 17.2396V38.8021C58.0995 39.4633 57.5152 40 56.7951 40C56.0751 40 55.4907 39.4633 55.4907 38.8021V17.2396C55.4907 15.2582 53.735 13.6458 51.5775 13.6458H20.272C18.1145 13.6458 16.3588 15.2582 16.3588 17.2396V55.5729C16.3588 57.5543 18.1145 59.1667 20.272 59.1667H38.5336C39.2536 59.1667 39.838 59.7033 39.838 60.3646C39.838 61.0258 39.2536 61.5625 38.5336 61.5625Z" fill="black" stroke="black" stroke-width="0.5"/>
</svg>
