<svg width="80" height="80" fill="none" xmlns="http://www.w3.org/2000/svg"><path d="M80 40c0 22.091-17.909 40-40 40S0 62.091 0 40 17.909 0 40 0s40 17.909 40 40z" fill="#5AC0AA"/><path d="M65.467 58.086c-.081.323-.15.65-.25.968a5.639 5.639 0 0 1-1.907 2.795 5.495 5.495 0 0 1-3.142 1.172c-.15.007-.298.01-.448.01H20.302c-2.607 0-4.699-1.47-5.457-3.876a6.24 6.24 0 0 1-.284-1.831c-.016-10.739-.019-21.478-.007-32.219 0-3.234 2.414-5.702 5.598-5.702 13.238-.013 26.475-.013 39.712 0 2.786 0 4.958 1.869 5.503 4.657.025.096.055.19.09.283l.01 33.743zM40.02 20.913H20.484c-.479-.009-.957.047-1.422.165-1.896.535-3.005 2.064-3.011 4.12-.01 3.041 0 6.094 0 9.142v22.728c0 1.014.205 1.97.83 2.788.873 1.152 2.055 1.647 3.461 1.647h39.321c2.542 0 4.306-1.73 4.308-4.264.009-10.69.004-21.381-.015-32.073a4.706 4.706 0 0 0-.426-1.942c-.764-1.62-2.133-2.32-3.867-2.32l-19.638.01h-.005z" fill="#000"/><path d="M40.014 29.007h-21.12c-.774 0-1.13-.23-1.143-.733-.012-.522.374-.782 1.159-.782H61.1a2.49 2.49 0 0 1 .642.067.662.662 0 0 1 .409.276.681.681 0 0 1 .11.485.693.693 0 0 1-.184.459.672.672 0 0 1-.44.214 4.903 4.903 0 0 1-.595.018l-21.029-.004zM39.075 45.914l-13.76 11.669c-.5.427-.86.474-1.137.153-.277-.32-.178-.714.336-1.15 9.162-7.772 18.326-15.541 27.49-23.308.136-.122.287-.226.449-.31a.553.553 0 0 1 .748.206.59.59 0 0 1-.048.786 4.05 4.05 0 0 1-.374.34L39.075 45.915zM30.53 36.094c-.636 1.688-1.48 3.093-2.545 4.258-1.14-1.21-2.013-2.644-2.649-4.258h5.195zm4.203 0v-1.733h-5.875V32h-1.79v2.36h-5.802v1.733h2.117c.799 2.181 1.82 4.05 3.152 5.588-1.495 1.15-3.345 2.002-5.535 2.585.355.433.903 1.27 1.11 1.733 2.25-.717 4.158-1.688 5.771-2.988 1.554 1.33 3.478 2.33 5.861 2.943.266-.508.829-1.344 1.258-1.778-2.25-.508-4.114-1.39-5.639-2.57 1.362-1.494 2.442-3.302 3.241-5.513h2.132zM20.812 24.222a.766.766 0 0 1-.227.516.742.742 0 0 1-.514.215.742.742 0 0 1-.516-.215.766.766 0 0 1-.225-.518.795.795 0 0 1 .234-.537.77.77 0 0 1 .534-.224.75.75 0 0 1 .506.238c.132.142.207.33.208.525zM23.268 23.452c.192.002.377.08.514.217a.766.766 0 0 1 .224.519.756.756 0 0 1-.2.525.732.732 0 0 1-.502.235.739.739 0 0 1-.542-.209.761.761 0 0 1-.233-.54.812.812 0 0 1 .232-.514.788.788 0 0 1 .507-.233zM27.187 24.203a.753.753 0 0 1-.206.522.73.73 0 0 1-.507.228.74.74 0 0 1-.537-.218.762.762 0 0 1-.223-.543.804.804 0 0 1 .237-.511.78.78 0 0 1 .511-.224.743.743 0 0 1 .509.226.767.767 0 0 1 .216.52z" fill="#000"/><path fill-rule="evenodd" clip-rule="evenodd" d="m46.428 51.11-2.101 4.202a1.057 1.057 0 1 0 1.888.946l1.818-3.64h7.144l1.82 3.64a1.056 1.056 0 0 0 1.89-.946l-2.101-4.202a.246.246 0 0 0-.021-.04l-4.213-8.428c-.36-.716-1.531-.716-1.89 0l-4.213 8.428-.016.03-.005.01zm7.695-.604H49.09l2.515-5.03 2.517 5.03z" fill="#000"/></svg>