<svg width="48" height="48" viewBox="0 0 48 48" fill="none" xmlns="http://www.w3.org/2000/svg">
<g clip-path="url(#clip0_45:199)">
<path d="M33.0036 14.348H14.9968C14.6385 14.348 14.3481 14.6383 14.3481 14.9966V26.1112C14.3481 26.2834 14.4166 26.4483 14.5382 26.5699L21.4303 33.462C21.5519 33.5836 21.7168 33.652 21.8889 33.652H33.0036C33.3619 33.652 33.6522 33.3617 33.6522 33.0034V14.9966C33.6522 14.6383 33.3619 14.348 33.0036 14.348ZM32.3549 32.3547H22.1575L15.6455 25.8427V15.6453H32.3549V32.3547ZM14.9968 30.8083C13.7865 30.8083 12.8017 31.7932 12.8017 33.0034C12.8017 34.2136 13.7866 35.1984 14.9968 35.1984C16.207 35.1984 17.1917 34.2137 17.1917 33.0034C17.1917 31.7931 16.2071 30.8083 14.9968 30.8083ZM14.9968 33.9012C14.5016 33.9012 14.099 33.4986 14.099 33.0034C14.099 32.5082 14.5016 32.1055 14.9968 32.1055C15.4917 32.1055 15.8944 32.5082 15.8944 33.0034C15.8944 33.4986 15.4917 33.9012 14.9968 33.9012ZM44.2586 21.4483C44.6169 21.4483 44.9073 21.158 44.9073 20.7997C44.9073 20.4413 44.6169 20.151 44.2586 20.151H38.9977V15.0475H44.2586C44.6169 15.0475 44.9073 14.7572 44.9073 14.3989C44.9073 14.0406 44.6169 13.7502 44.2586 13.7502H38.9977V9.651C38.9977 9.29269 38.7073 9.00234 38.349 9.00234H34.25V4.39022H36.8062C37.0849 5.28262 37.9093 5.93644 38.8923 5.93644C40.1026 5.93644 41.0871 4.95187 41.0871 3.74156C41.0871 2.53125 40.1026 1.5465 38.8923 1.5465C37.9093 1.5465 37.0849 2.20041 36.8062 3.09291H33.6013C33.243 3.09291 32.9526 3.38325 32.9526 3.74156V9.00234H27.8492V4.281C28.7416 4.00238 29.3954 3.17813 29.3954 2.19516C29.3955 0.984844 28.4109 0 27.2006 0C25.9903 0 25.0056 0.984844 25.0056 2.19506C25.0056 3.17803 25.6595 4.00237 26.5521 4.28091V9.00225H21.4484V4.281C22.3409 4.00247 22.9948 3.17812 22.9948 2.19506C22.9947 0.984844 22.0102 0 20.7998 0C19.5895 0 18.6047 0.984844 18.6047 2.19506C18.6047 3.17803 19.2586 4.00219 20.1509 4.28091V9.00225H15.0476V3.74156C15.0476 3.38325 14.7573 3.09291 14.399 3.09291H11.1938C10.9152 2.20041 10.091 1.5465 9.10799 1.5465C7.89768 1.5465 6.91293 2.53134 6.91293 3.74156C6.91293 4.95178 7.89778 5.93644 9.10799 5.93644C10.091 5.93644 10.9153 5.28262 11.1938 4.39022H13.7503V9.00234H9.6509C9.29259 9.00234 9.00224 9.29269 9.00224 9.651V13.7502H3.74137C3.38306 13.7502 3.09271 14.0406 3.09271 14.3989C3.09271 14.7572 3.38306 15.0475 3.74137 15.0475H9.00234V20.151H3.74137C3.38306 20.151 3.09271 20.4413 3.09271 20.7997C3.09271 21.158 3.38306 21.4483 3.74137 21.4483H9.00234V26.552H3.74137C3.38306 26.552 3.09271 26.8423 3.09271 27.2006C3.09271 27.5589 3.38306 27.8493 3.74137 27.8493H9.00234V32.9526H3.74137C3.38306 32.9526 3.09271 33.2429 3.09271 33.6012C3.09271 33.9595 3.38306 34.2499 3.74137 34.2499H9.00234V38.3491C9.00234 38.7074 9.29268 38.9978 9.65099 38.9978H13.7504V43.6101H11.1939C10.9153 42.7176 10.0911 42.0636 9.10809 42.0636C7.89778 42.0636 6.91302 43.0484 6.91302 44.2586C6.91302 45.4688 7.89787 46.4535 9.10809 46.4535C10.0911 46.4535 10.9154 45.7997 11.1939 44.9073H14.3991C14.7574 44.9073 15.0477 44.6169 15.0477 44.2586V38.9977H20.151V43.719C19.2586 43.9977 18.6048 44.8221 18.6048 45.805C18.6048 47.0153 19.5896 47.9999 20.7998 47.9999C22.0101 47.9999 22.9947 47.0153 22.9947 45.805C22.9947 44.822 22.3408 43.9975 21.4483 43.7189V38.9977H26.552V43.719C25.6595 43.9976 25.0055 44.8221 25.0055 45.805C25.0055 47.0153 25.9903 47.9999 27.2005 47.9999C28.4107 47.9999 29.3954 47.0153 29.3954 45.805C29.3954 44.8221 28.7416 43.9976 27.8492 43.719V38.9977H32.9526V44.2586C32.9526 44.6169 33.243 44.9073 33.6013 44.9073H36.8062C37.0849 45.7997 37.9093 46.4535 38.8923 46.4535C40.1026 46.4535 41.0871 45.4689 41.0871 44.2586C41.0871 43.0483 40.1026 42.0636 38.8923 42.0636C37.9093 42.0636 37.0849 42.7175 36.8062 43.6101H34.25V38.9978H38.349C38.7073 38.9978 38.9977 38.7074 38.9977 38.3491V34.2499H44.2586C44.6169 34.2499 44.9073 33.9595 44.9073 33.6012C44.9073 33.2429 44.6169 32.9526 44.2586 32.9526H38.9977V27.8493H44.2586C44.6169 27.8493 44.9073 27.5589 44.9073 27.2006C44.9073 26.8423 44.6169 26.552 44.2586 26.552H38.9977V21.4483H44.2586ZM38.8923 2.84372C39.3872 2.84372 39.7898 3.24637 39.7898 3.74156C39.7898 4.23647 39.3872 4.63913 38.8923 4.63913C38.3971 4.63913 37.9944 4.23647 37.9944 3.74156C37.9945 3.24637 38.3972 2.84372 38.8923 2.84372ZM27.2006 1.29731C27.6955 1.29731 28.0982 1.69997 28.0982 2.19516C28.0982 2.69006 27.6955 3.09272 27.2006 3.09272C26.7054 3.09272 26.3028 2.69006 26.3028 2.19516C26.3028 1.69997 26.7054 1.29731 27.2006 1.29731ZM20.7998 1.29731C21.2947 1.29731 21.6974 1.69997 21.6974 2.19516C21.6974 2.69006 21.2947 3.09272 20.7998 3.09272C20.3047 3.09272 19.902 2.69006 19.902 2.19516C19.902 1.69997 20.3047 1.29731 20.7998 1.29731ZM9.10809 4.63913C8.6129 4.63913 8.21024 4.23647 8.21024 3.74156C8.21024 3.24637 8.6129 2.84372 9.10809 2.84372C9.60299 2.84372 10.0056 3.24637 10.0056 3.74156C10.0056 4.23647 9.60299 4.63913 9.10809 4.63913ZM9.10809 45.1563C8.6129 45.1563 8.21024 44.7536 8.21024 44.2587C8.21024 43.7635 8.6129 43.3609 9.10809 43.3609C9.60299 43.3609 10.0056 43.7635 10.0056 44.2587C10.0056 44.7536 9.60299 45.1563 9.10809 45.1563ZM20.7998 46.7027C20.3047 46.7027 19.902 46.3 19.902 45.8051C19.902 45.3099 20.3047 44.9073 20.7998 44.9073C21.2947 44.9073 21.6974 45.3099 21.6974 45.8051C21.6974 46.3 21.2947 46.7027 20.7998 46.7027ZM27.2006 46.7027C26.7054 46.7027 26.3028 46.3 26.3028 45.8051C26.3028 45.3099 26.7054 44.9073 27.2006 44.9073C27.6955 44.9073 28.0982 45.3099 28.0982 45.8051C28.0982 46.3 27.6955 46.7027 27.2006 46.7027ZM38.8923 43.3609C39.3872 43.3609 39.7898 43.7635 39.7898 44.2587C39.7898 44.7536 39.3872 45.1563 38.8923 45.1563C38.3971 45.1563 37.9944 44.7536 37.9944 44.2587C37.9945 43.7635 38.3972 43.3609 38.8923 43.3609ZM37.7003 37.7003H10.2996V10.2997H37.7004V37.7003H37.7003ZM20.1333 28.4468C20.4916 28.4468 20.7819 28.1564 20.7819 27.7981V25.0716H24.3307V27.7981C24.3307 28.1564 24.6211 28.4468 24.9794 28.4468C25.3377 28.4468 25.6281 28.1564 25.6281 27.7981V22.6248C25.6281 20.9312 24.2501 19.5534 22.5564 19.5534C20.8626 19.5534 19.4846 20.9312 19.4846 22.6248V27.7981C19.4846 28.1565 19.7749 28.4468 20.1333 28.4468ZM22.5563 20.8508C23.5346 20.8508 24.3307 21.6466 24.3307 22.6248V23.7742H20.7818V22.6248C20.7818 21.6465 21.5779 20.8508 22.5563 20.8508ZM27.2182 27.7982V20.2021C27.2182 19.8438 27.5085 19.5534 27.8668 19.5534C28.2251 19.5534 28.5155 19.8438 28.5155 20.2021V27.7982C28.5155 28.1565 28.2251 28.4468 27.8668 28.4468C27.5084 28.4468 27.2182 28.1565 27.2182 27.7982Z" fill="#96ABEC" stroke="#96ABEC" stroke-width="0.2"/>
</g>
<defs>
<clipPath id="clip0_45:199">
<rect width="48" height="48" fill="white"/>
</clipPath>
</defs>
</svg>
