<svg width="34" height="44" xmlns="http://www.w3.org/2000/svg"><g fill="none" fill-rule="evenodd"><g fill-rule="nonzero"><path d="M16.34 2.486C16.34 1.113 15.297 0 14.008 0H2.341C1.05.001.007 1.113.007 2.486v12.422c0 1.373 1.044 2.484 2.334 2.484h11.666c1.29 0 2.334-1.111 2.334-2.484V2.486zm-5.028 10.509a.464.464 0 01-.221.05.58.58 0 01-.537-.385L9.486 9.94H6.861l-1.067 2.72c-.123.322-.467.472-.758.335a.628.628 0 01-.315-.808l1.12-2.863v-.006l.18-.447 1.616-4.137a.577.577 0 01.537-.385c.233 0 .45.15.537.385l2.916 7.453a.628.628 0 01-.315.808z" fill="#30D0AE"/><path fill="#12967A" d="M7.346 8.697h1.656l-.828-2.112z"/><path d="M30.34 17.392H18.675c-1.29 0-2.333 1.112-2.333 2.485v12.422c0 1.372 1.044 2.484 2.333 2.484h11.667c1.289 0 2.333-1.112 2.333-2.484V19.877c0-1.373-1.044-2.485-2.333-2.485zM31.508 32.3c0 .683-.525 1.242-1.166 1.242H18.674c-.642 0-1.167-.559-1.167-1.242V19.877c0-.683.525-1.242 1.167-1.242h11.667c.641 0 1.166.559 1.166 1.242v12.422z" fill="#30D0AE"/><path d="M27.424 24.224c.322 0 .583-.277.583-.62 0-.344-.26-.622-.583-.622h-2.333v-.62c0-.344-.261-.622-.584-.622-.322 0-.583.278-.583.621v.621h-2.333c-.323 0-.584.278-.584.621 0 .344.261.621.584.621h.577a6.467 6.467 0 001.475 3.798c-.574.454-1.3.871-2.237 1.203-.305.108-.47.46-.369.786.082.26.31.425.554.425a.55.55 0 00.184-.033c1.152-.408 2.041-.936 2.732-1.516.692.58 1.58 1.108 2.732 1.516a.55.55 0 00.185.033.587.587 0 00.553-.425c.102-.326-.063-.678-.368-.786-.938-.332-1.665-.748-2.24-1.2a6.468 6.468 0 001.478-3.8h.577zm-2.92 2.971a5 5 0 01-1.178-2.97h2.36a5.064 5.064 0 01-1.183 2.97zM18.188 9.64a.601.601 0 00.114.146c.009.008.013.021.022.029l2.334 1.863a.557.557 0 00.816-.124.647.647 0 00-.117-.87l-.933-.745h1.75c.167 0 4.083.056 4.083 4.969 0 .343.261.621.584.621.322 0 .583-.278.583-.621 0-6.14-5.198-6.211-5.25-6.211h-1.75l.933-.746a.647.647 0 00.117-.869.559.559 0 00-.816-.124L18.324 8.82c-.01.008-.013.02-.022.029a.601.601 0 00-.114.145c-.013.022-.03.04-.04.062a.644.644 0 00-.057.261c0 .094.022.181.058.261.01.023.026.04.039.062zM14.494 25.144a.6.6 0 00-.115-.146c-.009-.008-.012-.02-.022-.028l-2.333-1.863a.56.56 0 00-.817.124.647.647 0 00.117.87l.933.745h-1.75c-.167 0-4.083-.057-4.083-4.97 0-.343-.26-.62-.583-.62-.323 0-.584.277-.584.62 0 6.14 5.198 6.212 5.25 6.212h1.75l-.933.745a.647.647 0 00-.117.87.557.557 0 00.816.124l2.334-1.864c.01-.007.013-.02.022-.028a.6.6 0 00.115-.146c.012-.021.029-.038.039-.061a.644.644 0 00.058-.261.644.644 0 00-.058-.261c-.01-.023-.027-.04-.04-.062z" fill="#30D0AE"/></g><path d="M13.552.002H3.378C1.827-.02.865.31.495.991c-.132.24-.413.595-.482.959-.012.06-.001.125 0 .19.001.094-.003.192 0 .29.005.221-.004.447 0 .681.01.662 0 1.356 0 2.037v8.427c.059-.301.22-.742.482-1.321.277-.615.694-1.908 1.94-4.504.802-1.672 4.835-5.14 6.013-5.8C9.502 1.36 11.203.71 13.552.002z" fill="#1ABE98"/><path d="M31.472 5.09c-.17-1.306-.97-2.329-1.992-2.545 1.022-.216 1.822-1.24 1.992-2.545.169 1.306.97 2.329 1.991 2.545-1.021.216-1.822 1.24-1.991 2.545zM1.96 43.12c-.167-1.257-.955-2.242-1.96-2.45 1.005-.208 1.793-1.193 1.96-2.45.167 1.257.955 2.242 1.96 2.45-1.005.208-1.793 1.193-1.96 2.45z" fill="#30D0AE" fill-rule="nonzero"/></g></svg>