<?xml version="1.0" encoding="UTF-8"?>
<svg width="25px" height="16px" viewBox="0 0 25 16" version="1.1" xmlns="http://www.w3.org/2000/svg" xmlns:xlink="http://www.w3.org/1999/xlink">
    <title>angle-down</title>
    <g id="pricing-table-component" stroke="none" stroke-width="1" fill="none" fill-rule="evenodd">
        <g id="PES-PT--1501-4000--Desktop-view" transform="translate(-1185.000000, -873.000000)" fill="#262626" fill-rule="nonzero">
            <g id="angle-down" transform="translate(1185.000000, 873.000000)">
                <g id="angle-right" transform="translate(12.500000, 8.000000) rotate(90.000000) translate(-12.500000, -8.000000) translate(5.000000, -4.000000)">
                    <path d="M13.4,13.4095238 L4.37492308,22.7961905 C3.93492308,23.2537905 3.35953846,23.4666667 2.77907692,23.4666667 C2.19861538,23.4666667 1.62492308,23.2370286 1.18323077,22.7961905 C0.301953214,21.8620862 0.301953214,20.4114376 1.18323077,19.4773333 L8.62769231,11.7333333 L1.21538462,4.02285714 C0.33410706,3.08875282 0.33410706,1.63810433 1.21538462,0.704 C1.62821286,0.266456067 2.20575978,0.018088689 2.81038462,0.018088689 C3.41500945,0.018088689 3.99255638,0.266456067 4.40538462,0.704 L13.4,10.0571429 C14.2812776,10.9912472 14.2812776,12.4418957 13.4,13.376 L13.4,13.4095238 Z" id="Path"></path>
                </g>
            </g>
        </g>
    </g>
</svg>