<svg width="30" height="30" viewBox="0 0 30 30" fill="none" xmlns="http://www.w3.org/2000/svg">
<g id="Group 30">
<g id="noun_Celebration_2724312">
<path id="Path" d="M19.6443 8.04021L16.0283 13.1762C15.8923 13.3702 15.6763 13.4742 15.4563 13.4742C15.3163 13.4742 15.1763 13.4322 15.0543 13.3462C14.7383 13.1242 14.6623 12.6862 14.8843 12.3702L15.0883 12.0802C14.9623 11.9682 14.8363 11.8562 14.7083 11.7482C14.4963 11.5622 14.2823 11.3842 14.0703 11.2122L14.1423 11.1222C14.3623 10.7402 14.5383 10.3302 14.6723 9.90221C14.7643 9.97421 14.8583 10.0502 14.9523 10.1262C15.1403 10.2782 15.3303 10.4362 15.5183 10.5982C15.6463 10.7062 15.7723 10.8162 15.8983 10.9282L18.4983 7.23421C18.7223 6.91821 19.1583 6.84221 19.4743 7.06421C19.7903 7.28821 19.8663 7.72421 19.6443 8.04021Z" fill="#B47B3A"/>
<path id="Path_2" d="M25.8562 18.8222C25.7362 18.9022 25.6022 18.9402 25.4682 18.9402C25.2422 18.9402 25.0202 18.8302 24.8862 18.6282C24.2562 17.6842 23.3442 17.1482 22.1762 17.0322C21.7622 16.9902 21.3622 17.0082 21.0002 17.0562C20.5042 17.1242 20.0762 17.2542 19.7662 17.3802C19.5062 17.4882 19.3282 17.5922 19.2622 17.6582C18.9902 17.9302 18.5462 17.9302 18.2742 17.6582C18.0002 17.3842 18.0002 16.9402 18.2742 16.6682C18.4322 16.5102 18.6622 16.3542 18.9442 16.2122C18.7962 16.0182 18.6402 15.8202 18.4782 15.6202H18.4762C17.8782 14.8822 17.2082 14.1382 16.4802 13.4042L16.9462 12.7422L17.2982 12.2422L17.3722 12.3162C18.1722 13.1162 18.9082 13.9302 19.5642 14.7362C19.8442 15.0822 20.1042 15.4202 20.3422 15.7482C20.9562 15.6222 21.6382 15.5702 22.3142 15.6382C23.8982 15.7962 25.1902 16.5602 26.0502 17.8522C26.2642 18.1742 26.1782 18.6082 25.8562 18.8222Z" fill="#E4AB35"/>
<path id="Path_3" d="M25.7288 6.33921L19.759 11.4976C19.4664 11.7504 19.4342 12.1926 19.687 12.485C19.8254 12.6454 20.0206 12.7274 20.217 12.7274C20.3792 12.7274 20.542 12.6714 20.6742 12.557L26.644 7.39861C26.9366 7.14581 26.9688 6.70381 26.716 6.41121C26.4632 6.11881 26.021 6.08641 25.7288 6.33921Z" fill="#B47B3A"/>
<path id="Shape" fill-rule="evenodd" clip-rule="evenodd" d="M29.5218 11.3888C29.7102 11.4162 29.8668 11.548 29.9256 11.729C29.9844 11.91 29.9354 12.1086 29.799 12.2414L28.6734 13.3386L28.939 14.888C28.9712 15.0756 28.8942 15.265 28.7402 15.377C28.653 15.4404 28.5498 15.4726 28.4462 15.4726C28.3666 15.4726 28.2866 15.4536 28.2136 15.4152L26.822 14.6836L25.4306 15.4152C25.2624 15.504 25.0578 15.489 24.904 15.3772C24.7502 15.2654 24.673 15.0758 24.7052 14.8882L24.9708 13.3388L23.8452 12.2416C23.7088 12.1086 23.6598 11.91 23.7186 11.729C23.7774 11.548 23.9342 11.4162 24.1224 11.3888L25.678 11.1626L26.3736 9.753C26.458 9.5824 26.6316 9.4742 26.822 9.4742C27.0122 9.4742 27.186 9.5822 27.2704 9.753L27.9662 11.1626L29.5218 11.3888ZM27.6432 13.2488C27.6154 13.0864 27.6692 12.921 27.787 12.8062L28.375 12.2326L27.5618 12.1144C27.3988 12.0908 27.258 11.9886 27.1852 11.841L26.8216 11.104L26.4582 11.841C26.3854 11.9884 26.2444 12.0908 26.0816 12.1144L25.2684 12.2326L25.8568 12.8062C25.9746 12.921 26.0286 13.0864 26.0006 13.2488L25.8618 14.0588L26.5892 13.6764C26.662 13.6382 26.742 13.619 26.8218 13.619C26.9016 13.619 26.9816 13.6382 27.0544 13.6764L27.782 14.0588L27.6432 13.2488Z" fill="#E1A735"/>
<path id="Shape_2" fill-rule="evenodd" clip-rule="evenodd" d="M4.38198 5.4142L4.64778 3.8646L3.52198 2.7674C3.38578 2.6344 3.33678 2.4358 3.39558 2.2548C3.45438 2.0736 3.61078 1.9418 3.79918 1.9144L5.35478 1.6884L6.05058 0.2788C6.13478 0.108 6.30858 0 6.49898 0C6.68938 0 6.86318 0.108 6.94738 0.2788L7.64318 1.6884L9.19878 1.9144C9.38718 1.9418 9.54358 2.0738 9.60238 2.2548C9.66138 2.4358 9.61218 2.6346 9.47598 2.7674L8.35018 3.8646L8.61598 5.414C8.64818 5.6016 8.57098 5.7912 8.41698 5.903C8.32998 5.9664 8.22678 5.9986 8.12298 5.9986C8.04338 5.9986 7.96358 5.9796 7.89038 5.9412L6.49898 5.2096L5.10758 5.9412C4.93878 6.0298 4.73478 6.015 4.58098 5.9032C4.42698 5.7914 4.34978 5.6018 4.38198 5.4142ZM6.13518 2.3668C6.06258 2.5144 5.92158 2.6166 5.75878 2.6404L4.94518 2.7586L5.53358 3.3322C5.65158 3.447 5.70518 3.6124 5.67738 3.7746L5.53858 4.5846L6.26598 4.2022C6.41158 4.1256 6.58558 4.1256 6.73138 4.2022L7.45858 4.5846L7.31978 3.7748C7.29198 3.6126 7.34578 3.447 7.46358 3.3322L8.05198 2.7586L7.23878 2.6404C7.07598 2.6166 6.93518 2.5144 6.86238 2.3668L6.49878 1.6298L6.13518 2.3668Z" fill="#E1A735"/>
<path id="Shape_3" fill-rule="evenodd" clip-rule="evenodd" d="M20.0363 17.8142C20.3763 17.6842 20.8863 17.5462 21.4723 17.5162C21.7363 18.0102 21.9223 18.4522 22.0241 18.838C22.2181 19.574 22.1241 20.14 21.7441 20.52C21.5589 20.7052 21.3291 20.8228 21.0577 20.8724L0.979871 29.6314C0.889871 29.6706 0.794671 29.6898 0.700271 29.6898C0.518271 29.6898 0.339071 29.619 0.205071 29.4848C0.00147065 29.2812 -0.0567293 28.9738 0.0584707 28.71L8.82047 8.6244C8.87087 8.357 8.98607 8.1298 9.16987 7.946C9.54987 7.566 10.1159 7.472 10.8519 7.666C11.3779 7.806 12.0099 8.098 12.7279 8.534C12.8199 8.59 12.9139 8.648 13.0099 8.708L13.0111 8.7088C13.1295 8.0128 13.1023 7.2666 12.9189 6.5316C12.6227 5.344 11.9557 4.3808 11.1785 4.0176C10.8283 3.854 10.6771 3.4374 10.8407 3.0872C11.0041 2.737 11.4211 2.5856 11.7711 2.7494C12.9385 3.2948 13.8753 4.5822 14.2773 6.193C14.5633 7.3388 14.5433 8.5138 14.2481 9.5764C14.2461 9.58349 14.2438 9.5904 14.2416 9.59734L14.2395 9.60379L14.2361 9.6148C14.2153 9.6872 14.1921 9.7586 14.1687 9.83C14.1639 9.84457 14.1592 9.85923 14.1546 9.8739C14.1471 9.89768 14.1396 9.92149 14.1313 9.945C14.0997 10.0354 14.0651 10.1244 14.0291 10.2128C14.0252 10.2222 14.0216 10.2317 14.018 10.2412C14.0144 10.2507 14.0108 10.2602 14.0069 10.2696C13.8315 10.6882 13.6093 11.0816 13.3407 11.4388C13.2031 11.6216 12.9933 11.718 12.7807 11.718C12.6343 11.718 12.4865 11.6724 12.3605 11.5776C12.0515 11.3452 11.9893 10.9064 12.2217 10.5974C12.3433 10.4356 12.4511 10.2624 12.5475 10.0818C12.4059 9.9838 12.2661 9.894 12.1283 9.8102C12.0863 9.7822 12.0443 9.7562 12.0043 9.7322C11.2503 9.2742 10.7663 9.0922 10.4923 9.0202C10.3543 8.9832 10.2587 8.9712 10.1983 8.9686L10.1931 8.9806C10.1959 9.043 10.2065 9.1364 10.2423 9.2702C10.3163 9.5442 10.4983 10.0262 10.9543 10.7802C11.3383 11.4162 11.8383 12.1122 12.4363 12.8482C13.0603 13.6162 13.7643 14.3942 14.5303 15.1602C15.2943 15.9262 16.0723 16.6302 16.8423 17.2542C17.5783 17.8522 18.2743 18.3502 18.9103 18.7362C19.6643 19.1922 20.1463 19.3742 20.4203 19.4482C20.5535 19.4838 20.6467 19.4946 20.7091 19.4974L20.7219 19.4918C20.7193 19.4296 20.7071 19.3358 20.6703 19.1962C20.6023 18.9402 20.4363 18.4982 20.0363 17.8142ZM11.3483 13.7302C10.7103 12.9442 10.1743 12.1962 9.75627 11.5062C9.61607 11.2738 9.49247 11.0518 9.38227 10.8388L7.01927 16.2554C7.12567 16.9564 7.54127 17.6938 8.22647 18.3796C10.0785 20.233 13.3873 21.3128 16.7937 21.2056L18.8515 20.3078C18.6381 20.1972 18.4163 20.073 18.1843 19.9322C17.4943 19.5162 16.7463 18.9802 15.9603 18.3422C15.1543 17.6862 14.3383 16.9502 13.5403 16.1502C12.7403 15.3502 12.0043 14.5362 11.3483 13.7302ZM8.68947 24.7408C6.89467 24.6894 5.51887 24.2524 4.77887 23.4896C4.51267 23.2152 4.34007 22.9044 4.26267 22.574L6.42747 17.6118C6.68407 18.1194 7.05067 18.6172 7.51927 19.086C8.87707 20.4448 11.3571 21.7956 14.6649 22.134L8.68947 24.7408ZM4.06127 24.1864C3.93787 24.0592 3.83067 23.925 3.73367 23.787L2.05487 27.6356L6.84547 25.5456C5.39867 25.2526 4.54947 24.6896 4.06127 24.1864Z" fill="#B47B3A"/>
<path id="Shape_4" fill-rule="evenodd" clip-rule="evenodd" d="M26.2769 2.72679C26.2769 3.83079 25.3787 4.72899 24.2747 4.72899C23.1707 4.72899 22.2725 3.83079 22.2725 2.72679C22.2725 1.62279 23.1707 0.724594 24.2747 0.724594C25.3787 0.724594 26.2769 1.62279 26.2769 2.72679ZM25.2769 2.72679C25.2769 2.17419 24.8273 1.72459 24.2747 1.72459C23.7221 1.72459 23.2725 2.17419 23.2725 2.72679C23.2725 3.27939 23.7221 3.72899 24.2747 3.72899C24.8273 3.72899 25.2769 3.27939 25.2769 2.72679Z" fill="#B47B3A"/>
<path id="Shape_5" fill-rule="evenodd" clip-rule="evenodd" d="M19.0334 4.00879C19.0334 4.99159 18.234 5.79099 17.2512 5.79099C16.2686 5.79099 15.469 4.99159 15.469 4.00879C15.469 3.02599 16.2684 2.22659 17.2512 2.22659C18.234 2.22659 19.0334 3.02599 19.0334 4.00879ZM18.0334 4.00899C18.0334 3.57759 17.6824 3.22679 17.2512 3.22679C16.82 3.22679 16.469 3.57759 16.469 4.00899C16.469 4.44039 16.8198 4.79119 17.2512 4.79119C17.6826 4.79119 18.0334 4.44039 18.0334 4.00899Z" fill="#B47B3A"/>
<path id="Shape_6" fill-rule="evenodd" clip-rule="evenodd" d="M23.9946 22.9974C23.9946 22.0148 24.794 21.2154 25.7768 21.2154C26.7594 21.2154 27.5588 22.0148 27.5588 22.9974C27.5588 23.9802 26.7594 24.7796 25.7768 24.7796C24.794 24.7796 23.9946 23.9802 23.9946 22.9974ZM24.9946 22.9974C24.9946 23.4286 25.3456 23.7796 25.7768 23.7796C26.208 23.7796 26.5588 23.4286 26.5588 22.9974C26.5588 22.5662 26.208 22.2154 25.7768 22.2154C25.3456 22.2154 24.9946 22.5662 24.9946 22.9974Z" fill="#B47B3A"/>
</g>
<path id="Path 3" fill-rule="evenodd" clip-rule="evenodd" d="M10.2771 9.845L1.9751 28.4867L20.4016 20.0847C20.4016 20.0847 16.203 17.1517 14.3035 15.2306C12.4039 13.3095 10.2771 9.845 10.2771 9.845Z" fill="#B47B3A" stroke="#B47B3A"/>
</g>
</svg>
