<svg xmlns="http://www.w3.org/2000/svg" xmlns:xlink="http://www.w3.org/1999/xlink" width="46" height="46" xmlns:v="https://vecta.io/nano"><g fill="none" fill-rule="evenodd"><g stroke="#96abec" stroke-linejoin="round" stroke-width="1.867"><path d="M36.2 1v8.8H9.8v26.4H1V1h35.2z"/><path d="M9.8 9.8H45V45H9.8z"/></g><g fill="#96abec" fill-rule="nonzero"><use xlink:href="#A"/><use xlink:href="#A" y="8.8"/></g></g><defs><path id="A" d="M24.828 25.724c-.55-.644-.464-1.582.193-2.128s1.652-.507 2.258.1l2.68 2.903 6.373-6.068c.415-.392 1.02-.545 1.585-.4s1.008.56 1.16 1.096-.01 1.106-.425 1.497l-7.6 7.226c-.103.07-.212.133-.327.185-.048.04-.104.07-.163.093a1.58 1.58 0 0 1-.588.108c-.22.02-.442 0-.654-.062l-.196-.124c-.118-.052-.228-.12-.327-.2h0l-3.97-4.215z"/></defs></svg>