<svg xmlns="http://www.w3.org/2000/svg" xmlns:xlink="http://www.w3.org/1999/xlink" width="30" height="30" xmlns:v="https://vecta.io/nano"><g fill="none" fill-rule="evenodd"><g stroke="#fff" stroke-linejoin="round" stroke-width="1.867"><path d="M23.4 1v5.6H6.6v16.8H1V1h22.4z"/><path d="M6.6 6.6H29V29H6.6z"/></g><g fill="#fff" fill-rule="nonzero"><use xlink:href="#A"/><use xlink:href="#A" y="5.6"/></g></g><defs><path id="A" d="M16.163 16.733c-.35-.4-.295-1.006.123-1.354s1.05-.322 1.437.057l1.705 1.847 4.056-3.86c.264-.25.648-.347 1-.255s.642.357.738.698a.95.95 0 0 1-.27.953l-4.835 4.598a1.39 1.39 0 0 1-.208.118c-.03.025-.066.045-.104.06a1.04 1.04 0 0 1-.374.07 1.1 1.1 0 0 1-.416-.039l-.125-.08a.9.9 0 0 1-.208-.128h0l-2.527-2.682z"/></defs></svg>