<svg xmlns="http://www.w3.org/2000/svg" width="30" height="29" xmlns:v="https://vecta.io/nano"><path d="M21.496.085l-.168.017H1.8c-.293-.002-.574.114-.78.32s-.322.488-.32.78V24.18a4.4 4.4 0 0 0 4.381 4.379H24.8c.073-.001.146-.008.218-.024 2.3-.123 4.165-2.03 4.165-4.358v-8.754c.001-.292-.114-.572-.32-.778s-.487-.322-.778-.32h-5.472V1.203c.006-.296-.108-.582-.316-.793s-.493-.328-.79-.325h0zM6.18 6.67H17.12c.595.013 1.07.5 1.07 1.094s-.476 1.08-1.07 1.094H6.18c-.595-.013-1.07-.5-1.07-1.094s.476-1.08 1.07-1.094h0zm0 4.38H17.12c.397-.01.768.198.97.54s.2.766 0 1.108-.572.55-.97.54H6.18c-.595-.013-1.07-.5-1.07-1.094s.476-1.08 1.07-1.094h0zm-.004 4.375l10.946.002c.604.001 1.094.49 1.094 1.095s-.49 1.094-1.094 1.095H6.18a1.1 1.1 0 0 1-.977-.499c-.213-.33-.235-.746-.057-1.095s.53-.576.92-.597c.036-.003.073-.003.11-.002h0zm16.426 1.092h4.38v7.666c0 1.23-.96 2.19-2.192 2.19a2.16 2.16 0 0 1-2.19-2.191v-7.666zM6.176 19.803l10.946.002c.397-.01.768.198.97.54s.2.766 0 1.108-.572.55-.97.54H6.18c-.596.018-1.097-.444-1.128-1.04s.42-1.106 1.014-1.15c.036-.003.073-.003.11-.002h0z" fill="#9273bc"/></svg>