<svg width="61" height="48" viewBox="0 0 61 48" fill="none" xmlns="http://www.w3.org/2000/svg">
<circle opacity="0.5" cx="24" cy="24" r="24" fill="#FFEDB4"/>
<path d="M20.5403 34.5465L36.4836 38.1387C36.817 38.2129 37.1548 38.25 37.5 38.25C37.8452 38.25 38.1838 38.2122 38.5193 38.1365L54.4626 34.5443C55.5362 34.3016 56.3 33.3367 56.3 32.216V7.92941C56.3 6.28547 54.9789 5.00074 53.4132 5.00074C53.3772 5.00094 53.3552 5 53.3331 5C53.1202 5 52.3784 5.12417 37.5 7.45887C22.5995 5.12098 21.8872 5.00015 21.6669 5.00015C21.6406 5.00015 21.6215 5.00094 21.5857 5.00094C20.0211 5.00079 18.7 6.28547 18.7 7.92941V32.216C18.7 33.3367 19.4652 34.3016 20.5403 34.5465ZM38.675 9.6832C38.675 9.6832 53.0247 7.4277 53.4066 7.37723C53.6636 7.37723 53.95 7.59098 53.95 7.93609L53.9483 32.2279L38.675 35.6672V9.6832ZM21.05 7.93609C21.05 7.74142 21.1383 7.61198 21.2124 7.53761C21.2666 7.48311 21.3775 7.39496 21.5989 7.37819C21.99 7.42992 36.325 9.6832 36.325 9.6832V35.6672L21.05 32.216V7.93609ZM59.825 7.375C59.1787 7.375 58.65 7.90641 58.65 8.5625V33.4703C58.65 35.1684 57.453 36.6387 55.8058 36.9653L37.5 40.6027L19.192 36.9682C17.547 36.6395 16.35 35.1699 16.35 33.4703V8.5625C16.35 7.90641 15.8242 7.375 15.175 7.375C14.5258 7.375 14 7.90641 14 8.5625V33.4703C14 36.3003 15.9946 38.7502 18.7426 39.2965L37.2709 42.9762C37.3458 42.9926 37.3605 43 37.5 43C37.6395 43 37.6514 42.993 37.726 42.978L56.2617 39.2982C59.0025 38.7547 61 36.3055 61 33.4703V8.5625C61 7.90641 60.4712 7.375 59.825 7.375Z" fill="black"/>
<line x1="40.6443" y1="13.7903" x2="51.4635" y2="11.804" stroke="black" stroke-width="2" stroke-linecap="round"/>
<line x1="1" y1="-1" x2="11.7941" y2="-1" transform="matrix(-0.983561 -0.180577 -0.180577 0.983561 34.896 15.3103)" stroke="black" stroke-width="2" stroke-linecap="round"/>
<line x1="40.803" y1="18.1834" x2="51.6222" y2="16.1971" stroke="black" stroke-width="2" stroke-linecap="round"/>
<line x1="1" y1="-1" x2="11.7941" y2="-1" transform="matrix(-0.983561 -0.180577 -0.180577 0.983561 34.7397 19.6338)" stroke="black" stroke-width="2" stroke-linecap="round"/>
<line x1="40.9617" y1="23.1834" x2="51.7808" y2="21.1971" stroke="black" stroke-width="2" stroke-linecap="round"/>
<line x1="1" y1="-1" x2="11.7941" y2="-1" transform="matrix(-0.983561 -0.180577 -0.180577 0.983561 34.5837 24.5547)" stroke="black" stroke-width="2" stroke-linecap="round"/>
<line x1="40.9617" y1="28.1834" x2="51.7808" y2="26.1971" stroke="black" stroke-width="2" stroke-linecap="round"/>
<line x1="1" y1="-1" x2="11.7941" y2="-1" transform="matrix(-0.983561 -0.180577 -0.180577 0.983561 34.5837 29.4755)" stroke="black" stroke-width="2" stroke-linecap="round"/>
</svg>
