<svg width="58" height="48" viewBox="0 0 58 48" fill="none" xmlns="http://www.w3.org/2000/svg">
<circle opacity="0.5" cx="24" cy="24" r="24" fill="#FFEDB4"/>
<g clip-path="url(#clip0_4330_1220)">
<path d="M56.3443 12.0942L46.9146 2.66447C45.8432 1.59683 44.4089 0.999887 42.9036 0.999887L29.6667 0.999878C26.5367 0.999878 24 3.5366 24 6.66654L24.0006 40.6665C24.0006 43.7965 26.5373 46.3332 29.6672 46.3332H52.3333C55.4633 46.3332 58 43.7965 58 40.6665V16.0962C58 14.591 57.4068 13.1567 56.3443 12.0942ZM43.8333 4.01739C44.2297 4.15604 44.6006 4.35792 44.9065 4.66365L54.3361 14.0933C54.6443 14.3962 54.8479 14.7681 54.9807 15.1665H45.25C44.4708 15.1665 43.8333 14.529 43.8333 13.7499V4.01739ZM55.1667 40.6665C55.1667 42.2284 53.8952 43.4999 52.3333 43.4999H29.6667C28.1048 43.4999 26.8333 42.2284 26.8333 40.6665V6.66655C26.8333 5.10468 28.1048 3.83322 29.6667 3.83322H41V13.7499C41 16.0962 42.9036 17.9999 45.25 17.9999H55.1667V40.6665ZM32.5 25.0832C32.5 25.8624 33.1375 26.4999 33.9167 26.4999H48.0833C48.8625 26.4999 49.5 25.8624 49.5 25.0832C49.5 24.304 48.8625 23.6665 48.0833 23.6665H33.9167C33.1375 23.6665 32.5 24.304 32.5 25.0832ZM48.0833 29.3332H33.9167C33.1375 29.3332 32.5 29.9707 32.5 30.7499C32.5 31.529 33.1375 32.1665 33.9167 32.1665H48.0833C48.8659 32.1665 49.5 31.5322 49.5 30.7499C49.5 29.9675 48.8625 29.3332 48.0833 29.3332ZM48.0833 34.9999H33.9167C33.1375 34.9999 32.5 35.6374 32.5 36.4165C32.5 37.1957 33.1375 37.8332 33.9167 37.8332H48.0833C48.8659 37.8332 49.5 37.1989 49.5 36.4165C49.5 35.6342 48.8625 34.9999 48.0833 34.9999Z" fill="black"/>
<line x1="33.75" y1="25.25" x2="48.25" y2="25.25" stroke="#F44327" stroke-width="3.5" stroke-linecap="round"/>
</g>
<defs>
<clipPath id="clip0_4330_1220">
<rect width="34" height="45.3333" fill="white" transform="translate(24 1)"/>
</clipPath>
</defs>
</svg>
