<svg width="61" height="48" viewBox="0 0 61 48" fill="none" xmlns="http://www.w3.org/2000/svg">
<circle opacity="0.5" cx="24" cy="24" r="24" fill="#FFEDB4"/>
<rect x="28" y="22" width="32" height="12" fill="#FDECE9"/>
<g clip-path="url(#clip0_4359_1242)">
<path d="M59.3443 12.0942L49.9146 2.66447C48.8432 1.59683 47.4089 0.999887 45.9036 0.999887L32.6667 0.999878C29.5367 0.999878 27 3.5366 27 6.66654L27.0006 40.6665C27.0006 43.7965 29.5373 46.3332 32.6672 46.3332H55.3333C58.4633 46.3332 61 43.7965 61 40.6665V16.0962C61 14.591 60.4068 13.1567 59.3443 12.0942ZM46.8333 4.01739C47.2297 4.15604 47.6006 4.35792 47.9065 4.66365L57.3361 14.0933C57.6443 14.3962 57.8479 14.7681 57.9807 15.1665H48.25C47.4708 15.1665 46.8333 14.529 46.8333 13.7499V4.01739ZM58.1667 40.6665C58.1667 42.2284 56.8952 43.4999 55.3333 43.4999H32.6667C31.1048 43.4999 29.8333 42.2284 29.8333 40.6665V6.66655C29.8333 5.10468 31.1048 3.83322 32.6667 3.83322H44V13.7499C44 16.0962 45.9036 17.9999 48.25 17.9999H58.1667V40.6665ZM35.5 25.0832C35.5 25.8624 36.1375 26.4999 36.9167 26.4999H51.0833C51.8625 26.4999 52.5 25.8624 52.5 25.0832C52.5 24.304 51.8625 23.6665 51.0833 23.6665H36.9167C36.1375 23.6665 35.5 24.304 35.5 25.0832ZM51.0833 29.3332H36.9167C36.1375 29.3332 35.5 29.9707 35.5 30.7499C35.5 31.529 36.1375 32.1665 36.9167 32.1665H51.0833C51.8659 32.1665 52.5 31.5322 52.5 30.7499C52.5 29.9675 51.8625 29.3332 51.0833 29.3332ZM51.0833 34.9999H36.9167C36.1375 34.9999 35.5 35.6374 35.5 36.4165C35.5 37.1957 36.1375 37.8332 36.9167 37.8332H51.0833C51.8659 37.8332 52.5 37.1989 52.5 36.4165C52.5 35.6342 51.8625 34.9999 51.0833 34.9999Z" fill="black"/>
</g>
<defs>
<clipPath id="clip0_4359_1242">
<rect width="34" height="45.3333" fill="white" transform="translate(27 1)"/>
</clipPath>
</defs>
</svg>
