<svg width="74" height="74" viewBox="0 0 74 74" fill="none" xmlns="http://www.w3.org/2000/svg">
<g opacity="0.4" clip-path="url(#clip0_31_487)">
<path d="M60.8006 61.6416L56.3243 49.3425C51.2187 53.9759 44.5056 56.4324 37.6153 56.1886L42.0765 68.4533C42.1731 68.719 42.3324 68.9574 42.5408 69.1484C42.7492 69.3394 43.0005 69.4774 43.2736 69.5505L43.3868 69.5809C43.6835 69.6394 43.9904 69.6203 44.2776 69.5256C44.5648 69.4308 44.8227 69.2635 45.0264 69.0399L50.3553 63.1885L58.9804 63.9928C59.2756 64.0204 59.5729 63.9729 59.8448 63.8547C60.1166 63.7365 60.3542 63.5515 60.5353 63.3168C60.7165 63.0822 60.8353 62.8056 60.8809 62.5127C60.9264 62.2197 60.8971 61.9201 60.7958 61.6415L60.8006 61.6416Z" fill="white"/>
<path d="M13.484 37.8636L3.45785 46.2769C3.23079 46.4674 3.0556 46.7123 2.94858 46.9887C2.84156 47.2652 2.80619 47.5642 2.84576 47.858C2.88532 48.1518 2.99854 48.4308 3.17488 48.669C3.35121 48.9073 3.58495 49.0971 3.85433 49.2208L11.7261 52.8369L13.4153 60.5688C13.4797 60.8646 13.6195 61.1388 13.821 61.3648C14.0226 61.5907 14.279 61.7608 14.5656 61.8585L14.6788 61.8888C14.9523 61.9627 15.2396 61.9694 15.5162 61.9083C15.7928 61.8472 16.0505 61.7202 16.2675 61.5381L26.2668 53.148C20.1763 49.9144 15.5895 44.43 13.484 37.8636Z" fill="white"/>
<path d="M60.666 35.7519C63.9271 23.5812 56.6781 11.0257 44.5075 7.76457C32.3368 4.50345 19.7813 11.7524 16.5202 23.9231C13.259 36.0937 20.508 48.6493 32.6786 51.9104C44.8493 55.1715 57.4049 47.9226 60.666 35.7519ZM34.8018 43.9868C32.0033 43.2369 29.49 41.6741 27.5798 39.4959C25.6695 37.3177 24.4481 34.6219 24.0699 31.7495C23.6918 28.8771 24.1739 25.9571 25.4553 23.3586C26.7367 20.7602 28.7598 18.6002 31.2688 17.1516C33.7779 15.703 36.6601 15.0309 39.5511 15.2204C42.4421 15.4099 45.212 16.4524 47.5105 18.2161C49.809 19.9798 51.5328 22.3855 52.4641 25.1289C53.3954 27.8723 53.4922 30.8303 52.7424 33.6288C51.733 37.379 49.2773 40.5757 45.9139 42.5175C42.5505 44.4594 38.5542 44.9878 34.8018 43.9868Z" fill="white"/>
<path d="M35.7114 40.591C41.6504 42.1823 47.7549 38.6578 49.3463 32.7189C50.9376 26.7799 47.4132 20.6754 41.4742 19.084C35.5352 17.4927 29.4307 21.0171 27.8393 26.9561C26.248 32.8951 29.7724 38.9996 35.7114 40.591Z" fill="white"/>
</g>
<defs>
<clipPath id="clip0_31_487">
<rect width="60" height="60" fill="white" transform="translate(15.5293) rotate(15)"/>
</clipPath>
</defs>
</svg>
