<svg width="71" height="71" xmlns="http://www.w3.org/2000/svg"><path d="M47.207 35.533V3.858a.694.694 0 00-.702-.702H3.858a.694.694 0 00-.702.702v55.145a.694.694 0 00.702.702h31.184a18.958 18.958 0 001.191 3.156H3.858A3.858 3.858 0 010 59.003V3.858A3.858 3.858 0 013.858 0h42.647a3.858 3.858 0 013.857 3.858v30.775c-1.075.21-2.131.51-3.155.9zm-6.169-25.417h-22.71v2.84h22.71v-2.84zm0 9.947h-22.71v2.84h22.71v-2.84zm0 9.948h-22.71v2.84h22.71v-2.84zm-.774 9.948H18.326v2.84h19.532a19.668 19.668 0 012.406-2.84zM18.326 52.747h15.99c.067-.956.206-1.906.418-2.84H18.326v2.84zM12.98 7.675H7.87v5.11h5.11v-5.11zm0 9.947H7.87v5.111h5.11v-5.11zm0 9.948H7.87v5.11h5.11v-5.11zm0 9.947H7.87v5.11h5.11v-5.11zM7.87 52.575h5.11v-5.11H7.87v5.11zm40.137.245a1.578 1.578 0 10-2.231 2.232l6.291 6.29a1.577 1.577 0 002.231 0l16.238-16.238a1.578 1.578 0 00-2.231-2.231L53.183 57.996l-5.175-5.176zm21.075-1.8a1.645 1.645 0 00-1.316 1.75 13.645 13.645 0 11-6.298-10.098c.922.58 2.046.631 2.612-.031a1.65 1.65 0 00-.547-2.39 16.787 16.787 0 10-3.961 29.869 16.787 16.787 0 0011.332-17.683 1.551 1.551 0 00-1.822-1.418z" fill="#F7B501" fill-rule="nonzero"/></svg>