<svg width="43" height="32" viewBox="0 0 43 32" fill="none" xmlns="http://www.w3.org/2000/svg">
<g id="Group 84">
<circle id="Oval Copy 18" opacity="0.5" cx="16" cy="16" r="16" fill="#D6CFF0"/>
<path id="user-edit" d="M29.8281 21.2969L36.2969 14.8281L39.6719 18.2031L33.2031 24.6719L30.3438 25C30.0625 25.0469 29.875 25 29.6875 24.8125C29.5 24.625 29.4531 24.4375 29.5 24.1562L29.8281 21.2969ZM42.6719 13.6094C42.8594 13.8438 43 14.125 43 14.4062C43 14.7344 42.8594 15.0156 42.6719 15.2031L40.7031 17.125L37.375 13.7969L39.2969 11.8281C39.4844 11.6406 39.7656 11.5 40.0938 11.5C40.375 11.5 40.6562 11.6406 40.8906 11.8281L42.6719 13.6094ZM23.5 14.5C22.2812 14.5 21.1562 14.2188 20.125 13.6094C19.0938 13 18.25 12.1562 17.6406 11.125C17.0312 10.0938 16.75 8.96875 16.75 7.75C16.75 6.53125 17.0312 5.40625 17.6406 4.375C18.25 3.34375 19.0938 2.54688 20.125 1.9375C21.1562 1.32812 22.2812 1 23.5 1C24.7188 1 25.8438 1.32812 26.875 1.9375C27.9062 2.54688 28.7031 3.34375 29.3125 4.375C29.9219 5.40625 30.25 6.53125 30.25 7.75C30.25 8.96875 29.9219 10.0938 29.3125 11.125C28.7031 12.1562 27.9062 13 26.875 13.6094C25.8438 14.2188 24.7188 14.5 23.5 14.5ZM23.3125 3.25H23.2656C22.1406 3.34375 21.1562 3.76562 20.3125 4.60938C19.4688 5.45312 19.0469 6.39062 19 7.51562C18.9531 8.40625 19.1406 9.20312 19.5625 9.95312C19.9844 10.7031 20.5469 11.2656 21.2969 11.6875C22.0469 12.1094 22.8438 12.2969 23.7344 12.25C24.8594 12.2031 25.7969 11.7812 26.6406 10.9375C27.4844 10.0938 27.9062 9.10938 28 7.98438C28 7.14062 27.8125 6.34375 27.3906 5.59375C26.9688 4.84375 26.4062 4.28125 25.6562 3.85938C24.9062 3.4375 24.1562 3.25 23.3125 3.25ZM19.2812 17.5C18.1562 17.5 17.2188 17.9219 16.4219 18.7188C15.625 19.5156 15.25 20.4531 15.25 21.5312V22.75H27.3906L27.3438 23.2656C27.25 23.7344 27.25 24.1094 27.25 24.2969C27.25 24.4844 27.25 24.7188 27.3438 25H15.25C14.5938 25 14.0781 24.8125 13.6562 24.3438C13.1875 23.9219 13 23.4062 13 22.75V21.5312C13 20.4062 13.2812 19.375 13.8438 18.3906C14.4062 17.4531 15.1562 16.6562 16.1406 16.0938C17.0781 15.5312 18.1562 15.25 19.2812 15.25C19.6562 15.25 20.2188 15.3906 20.875 15.5781C21.2969 15.7188 21.6719 15.8125 21.9531 15.8594C22.4219 15.9531 22.9375 16 23.5 16C24.0625 16 24.5781 15.9531 25.0469 15.8594C25.3281 15.8125 25.6562 15.7188 26.125 15.5781C26.7812 15.3906 27.2969 15.25 27.7188 15.25C29.0312 15.25 30.2969 15.6719 31.4688 16.5156L29.8281 18.1094C29.1719 17.7344 28.4688 17.5 27.7188 17.5C27.5312 17.5 27.2031 17.5938 26.7812 17.6875C25.6562 18.0625 24.5312 18.25 23.5 18.25C22.4688 18.25 21.3438 18.0625 20.2188 17.6875C19.75 17.5938 19.4219 17.5 19.2812 17.5Z" fill="black"/>
</g>
</svg>
