<?xml version="1.0" encoding="UTF-8"?>
<svg width="32px" height="32px" viewBox="0 0 32 32" version="1.1" xmlns="http://www.w3.org/2000/svg" xmlns:xlink="http://www.w3.org/1999/xlink">
    <title>1926A264-5442-43FD-85F5-8F7CED61D9FC</title>
    <g id="Page-1" stroke="none" stroke-width="1" fill="none" fill-rule="evenodd">
        <g id="Japan-Payment" transform="translate(-829.000000, -1847.000000)" fill="#6882DA" fill-rule="nonzero">
            <g id="bank-transfer" transform="translate(829.000000, 1847.000000)">
                <path d="M5.853,22.202 C6.187,22.035 6.835,21.712 6.835,20.561 C6.835,19.735 6.333,18.506 4.368,18.506 L0.475,18.506 L0.475,26.519 L3.868,26.519 C5.509,26.519 5.944,26.24 6.401,25.791 C6.823,25.381 7.091,24.776 7.091,24.143 C7.091,23.35 6.835,22.569 5.853,22.202 Z M2.083,19.893 L4.003,19.893 C4.761,19.893 5.23,20.093 5.23,20.751 C5.23,21.389 4.707,21.645 4.046,21.645 L2.083,21.645 L2.083,19.893 Z M4.134,25.135 L2.083,25.135 L2.083,22.992 L4.214,22.992 C4.818,22.992 5.419,23.263 5.419,23.963 C5.417,24.776 4.948,25.135 4.134,25.135 Z" id="Shape"></path>
                <polygon id="Path" points="0.476 27.788 0.476 28.516 1.716 28.516 1.716 31.893 2.571 31.893 2.571 28.516 3.814 28.516 3.814 27.788"></polygon>
                <polygon id="Path" points="28.066 21.787 31.336 18.505 29.172 18.505 26.114 21.762 26.114 18.505 24.44 18.505 24.44 26.516 26.114 26.516 26.114 23.805 26.895 23.001 29.371 26.516 31.525 26.516"></polygon>
                <path d="M12.361,18.505 L10.431,18.505 L7.577,26.517 L9.339,26.517 L9.896,24.867 L12.853,24.867 L13.367,26.516 L15.185,26.516 L12.361,18.505 Z M10.342,23.481 L11.369,20.313 L11.392,20.313 L12.384,23.481 L10.342,23.481 Z" id="Shape"></path>
                <path d="M19.829,2.805 C19.327,2.212 18.774,1.659 18.124,1.18 C17.802,0.938 17.458,0.715 17.081,0.515 C16.701,0.319 16.312,0.13 15.847,0 C15.855,0.483 15.939,0.908 16.038,1.324 C16.132,1.728 16.259,2.107 16.407,2.471 C16.053,2.575 15.623,2.721 15.139,2.909 C14.826,3.049 14.483,3.175 14.137,3.362 C13.786,3.53 13.43,3.734 13.069,3.962 C12.702,4.169 12.36,4.463 12.001,4.717 C11.674,5.028 11.315,5.297 11.024,5.65 C10.723,5.988 10.429,6.326 10.202,6.71 C10.087,6.897 9.954,7.07 9.858,7.261 C9.766,7.455 9.678,7.648 9.592,7.836 C9.397,8.2 9.308,8.592 9.206,8.949 C9.085,9.303 9.042,9.65 9.009,9.97 C8.982,10.289 8.915,10.571 8.931,10.831 C8.939,11.087 8.945,11.309 8.951,11.493 C8.962,11.856 8.965,12.063 8.965,12.063 C8.965,12.063 9.004,11.858 9.07,11.501 C9.103,11.324 9.144,11.111 9.191,10.865 C9.228,10.62 9.355,10.36 9.443,10.073 C9.537,9.786 9.646,9.48 9.826,9.186 C9.99,8.887 10.139,8.564 10.381,8.285 C10.49,8.142 10.602,7.994 10.713,7.847 C10.83,7.704 10.98,7.581 11.109,7.447 C11.363,7.17 11.673,6.946 11.98,6.724 C12.273,6.491 12.63,6.334 12.939,6.143 C13.291,6.002 13.601,5.826 13.947,5.724 C14.277,5.604 14.602,5.503 14.92,5.431 C15.229,5.341 15.54,5.301 15.811,5.243 C15.985,5.218 16.145,5.197 16.299,5.178 C16.281,5.224 16.262,5.268 16.246,5.315 C16.088,5.748 15.965,6.203 15.879,6.682 C15.84,6.925 15.808,7.171 15.783,7.422 C15.763,7.677 15.759,7.941 15.777,8.219 C16.038,8.119 16.275,8.006 16.5,7.883 C16.717,7.756 16.93,7.624 17.133,7.488 C17.536,7.211 17.899,6.91 18.227,6.588 C18.891,5.946 19.44,5.229 19.901,4.458 L19.96,4.36 C20.243,3.881 20.21,3.254 19.829,2.805 Z" id="Path"></path>
                <path d="M7.578,30.965 C7.578,30.199 7.394,30.073 7.057,29.925 C7.463,29.788 7.692,29.401 7.692,28.946 C7.692,28.592 7.493,27.787 6.401,27.787 L4.325,27.787 L4.325,31.89 L5.167,31.89 L5.167,30.285 L6.052,30.285 C6.687,30.285 6.722,30.503 6.722,31.061 C6.722,31.483 6.755,31.697 6.812,31.889 L7.761,31.889 L7.761,31.782 C7.578,31.714 7.578,31.564 7.578,30.965 Z M6.169,29.596 L5.166,29.596 L5.166,28.496 L6.234,28.496 C6.736,28.496 6.834,28.814 6.834,29.033 C6.833,29.437 6.617,29.596 6.169,29.596 Z" id="Shape"></path>
                <polygon id="Path" points="23.339 28.516 23.339 27.788 20.419 27.788 20.419 31.894 21.277 31.894 21.277 30.168 23.083 30.168 23.083 29.442 21.277 29.442 21.277 28.516"></polygon>
                <polygon id="Path" points="24.755 31.165 24.755 30.105 26.755 30.105 26.755 29.379 24.755 29.379 24.755 28.517 26.934 28.517 26.934 27.79 23.915 27.79 23.915 31.893 27.03 31.893 27.03 31.165"></polygon>
                <path d="M18.691,29.553 L17.693,29.307 C17.521,29.266 17.257,29.197 17.257,28.877 C17.257,28.506 17.648,28.387 17.972,28.387 C18.722,28.387 18.791,28.82 18.814,29.003 L19.634,29.003 C19.628,28.5 19.292,27.678 18.034,27.678 C16.702,27.678 16.457,28.483 16.457,28.94 C16.457,29.844 17.096,29.995 17.76,30.147 L18.199,30.251 C18.632,30.356 18.942,30.44 18.942,30.762 C18.942,31.191 18.489,31.291 18.086,31.291 C17.336,31.291 17.221,30.857 17.215,30.628 L16.395,30.628 C16.395,31.139 16.65,32 18.148,32 C18.506,32 19.765,31.888 19.765,30.657 C19.764,29.92 19.25,29.689 18.691,29.553 Z" id="Path"></path>
                <path d="M30.982,30.965 C30.982,30.199 30.796,30.073 30.461,29.925 C30.865,29.788 31.098,29.401 31.098,28.946 C31.098,28.592 30.897,27.787 29.805,27.787 L27.731,27.787 L27.731,31.89 L28.573,31.89 L28.573,30.285 L29.458,30.285 C30.091,30.285 30.128,30.503 30.128,31.061 C30.128,31.483 30.161,31.697 30.219,31.889 L31.165,31.889 L31.165,31.782 C30.982,31.714 30.982,31.564 30.982,30.965 Z M29.576,29.596 L28.572,29.596 L28.572,28.496 L29.638,28.496 C30.142,28.496 30.24,28.814 30.24,29.033 C30.24,29.437 30.023,29.596 29.576,29.596 Z" id="Shape"></path>
                <polygon id="Path" points="21.145 18.508 21.145 24.086 21.124 24.086 17.943 18.508 16.18 18.508 16.18 26.52 17.742 26.52 17.744 20.808 17.765 20.808 21.035 26.521 22.707 26.521 22.707 18.508"></polygon>
                <path d="M10.474,27.788 L9.483,27.788 L8.02,31.891 L8.924,31.891 L9.209,31.044 L10.723,31.044 L10.987,31.891 L11.919,31.891 L10.474,27.788 Z M9.439,30.336 L9.966,28.714 L9.974,28.714 L10.486,30.336 L9.439,30.336 Z" id="Shape"></path>
                <polygon id="Path" points="14.976 27.788 14.975 30.644 14.965 30.644 13.334 27.788 12.432 27.788 12.432 31.891 13.231 31.891 13.231 28.964 13.244 28.964 14.918 31.891 15.777 31.891 15.777 27.788"></polygon>
                <path d="M21.957,5.66 C21.938,5.298 21.922,5.092 21.922,5.092 C21.922,5.092 21.893,5.297 21.832,5.656 C21.803,5.833 21.77,6.048 21.731,6.295 C21.701,6.541 21.582,6.804 21.502,7.094 C21.419,7.384 21.32,7.692 21.148,7.992 C20.994,8.296 20.855,8.622 20.621,8.909 C20.517,9.056 20.41,9.206 20.304,9.358 C20.189,9.503 20.045,9.631 19.916,9.769 C19.672,10.052 19.369,10.287 19.068,10.517 C18.785,10.759 18.431,10.925 18.127,11.126 C17.781,11.277 17.476,11.463 17.133,11.574 C16.808,11.705 16.485,11.815 16.169,11.896 C15.864,11.996 15.556,12.045 15.286,12.11 C15.113,12.141 14.952,12.167 14.8,12.19 C14.814,12.143 14.833,12.099 14.849,12.052 C14.993,11.613 15.103,11.155 15.175,10.674 C15.206,10.43 15.229,10.183 15.247,9.931 C15.26,9.676 15.256,9.411 15.231,9.135 C14.973,9.241 14.739,9.362 14.518,9.492 C14.303,9.625 14.098,9.763 13.897,9.905 C13.505,10.194 13.151,10.505 12.833,10.838 C12.189,11.499 11.662,12.232 11.224,13.017 L11.167,13.115 C10.898,13.603 10.95,14.228 11.345,14.666 C11.865,15.243 12.435,15.78 13.097,16.239 C13.425,16.472 13.776,16.684 14.161,16.872 C14.544,17.058 14.938,17.236 15.409,17.351 C15.384,16.87 15.286,16.448 15.179,16.035 C15.072,15.634 14.935,15.258 14.775,14.899 C15.127,14.784 15.55,14.626 16.029,14.424 C16.337,14.276 16.676,14.138 17.017,13.941 C17.361,13.764 17.713,13.549 18.062,13.31 C18.422,13.092 18.756,12.788 19.109,12.523 C19.426,12.204 19.777,11.922 20.058,11.562 C20.349,11.215 20.631,10.87 20.847,10.479 C20.957,10.288 21.082,10.111 21.174,9.917 C21.258,9.72 21.342,9.525 21.422,9.334 C21.606,8.964 21.684,8.569 21.776,8.21 C21.884,7.854 21.92,7.505 21.942,7.185 C21.963,6.866 22.018,6.581 21.996,6.322 C21.979,6.067 21.967,5.844 21.957,5.66 Z" id="Path"></path>
            </g>
        </g>
    </g>
</svg>