<?xml version="1.0" encoding="UTF-8"?>
<svg width="50px" height="50px" viewBox="0 0 50 50" version="1.1" xmlns="http://www.w3.org/2000/svg" xmlns:xlink="http://www.w3.org/1999/xlink">
    <title>D63BE707-5AC6-4267-A888-11EA8E818894</title>
    <g id="Page-1" stroke="none" stroke-width="1" fill="none" fill-rule="evenodd">
        <g id="Japan-Payment" transform="translate(-293.000000, -1666.000000)" fill-rule="nonzero">
            <g id="grant" transform="translate(293.000000, 1666.000000)">
                <path d="M23,36 L23,41 L2.80769231,41 C2.36161616,41 2,40.6269039 2,40.1666667 L2,37.6666667 C2.00266118,36.7473318 2.72433695,36.0027457 3.61538462,36 L23,36 Z" id="Shape" fill="#E8EDFC"></path>
                <polygon id="Rectangle-path" fill="#CAD9FC" points="20 36 23 36 23 41 20 41"></polygon>
                <path d="M34,17.6666667 L34,32.6666667 L23.0526316,32.6666667 C22.5875497,32.6666667 22.2105263,33.0397627 22.2105263,33.5 L22.2105263,36 L2,36 L2,17.6666667 C2.00277457,16.7473318 2.75519843,16.0027457 3.68421053,16 L32.3157895,16 C33.2448016,16.0027457 33.9972254,16.7473318 34,17.6666667 Z" id="Shape" fill="#E8EDFC"></path>
                <path d="M32.4,16 L30,16 C30.8825615,16.0029653 31.5973642,16.8071183 31.6,17.8 L31.6,34 L34,34 L34,17.8 C33.9973642,16.8071183 33.2825615,16.0029653 32.4,16 Z" id="Shape" fill="#CAD9FC"></path>
                <path d="M23,24 L13,24 C13.0041302,21.2402889 15.2402889,19.0041302 18,19 C20.7614237,19 23,21.2385763 23,24 Z" id="Shape" fill="#E8EDFC"></path>
                <path d="M23,25 L23,32.8571429 C22.5397628,32.8571429 22.1666667,33.2089192 22.1666667,33.6428571 L22.1666667,36 L13,36 L13,25 L23,25 Z" id="Shape" fill-opacity="0.478447334" fill="#6882DA"></path>
                <path d="M6,16 C8.64137923,11.582505 13.4008959,8.91791044 18.5,9.00192979 C23.5991041,8.91791044 28.3586208,11.582505 31,16 L6,16 Z" id="Shape" fill="#E8EDFC"></path>
                <path d="M19.2210394,9.00192979 C18.8091421,9.00192979 18.4070131,9.0272978 18,9.06316291 C22.3615291,9.38651346 26.3021462,11.9756045 28.5579211,16 L31,16 C28.5109839,11.582505 24.0260111,8.91791044 19.2210394,9.00192979 Z" id="Shape" fill="#CAD9FC"></path>
                <path d="M7.5,20 C8.32842713,20 9,20.7540467 9,21.6842105 L9,36 L6,36 L6,21.6842105 C6,20.7540467 6.67157287,20 7.5,20 Z" id="Shape" fill-opacity="0.478447334" fill="#6882DA"></path>
                <path d="M28,33 L28,21.7333333 C28.0024711,20.777225 28.6725986,20.0028555 29.5,20 C30.3258766,20.0070782 30.9938746,20.778987 31,21.7333333 L31,33" id="Shape" fill-opacity="0.478447334" fill="#6882DA"></path>
                <path d="M19,1 L23.4135389,2.65333333 C23.7662846,2.78561918 24,3.12303108 24,3.5 C24,3.87696893 23.7662846,4.21438082 23.4135389,4.34666667 L19,6 L19,1 Z" id="Shape" fill="#E8EDFC"></path>
                <path d="M49,35.5 L49,44.5 L48.15625,44.5 C46.292289,44.5 44.78125,46.1117749 44.78125,48.1 L44.78125,49 L26.21875,49 L26.21875,48.1 C26.21875,46.1117749 24.707711,44.5 22.84375,44.5 L22,44.5 L22,35.5 L22.84375,35.5 C24.707711,35.5 26.21875,33.8882251 26.21875,31.9 L26.21875,31 L44.78125,31 L44.78125,31.9 C44.78125,33.8882251 46.292289,35.5 48.15625,35.5 L49,35.5 Z" id="Shape" fill="#E8EDFC"></path>
                <path d="M49,36.4873646 L49,45.5126354 L48,45.5126354 C47.2974112,45.5132918 46.6074777,45.6814164 46,46 L46,36 C46.6074777,36.3185836 47.2974112,36.4867082 48,36.4873646 L49,36.4873646 Z" id="Shape" fill-opacity="0.478447334" fill="#6882DA"></path>
                <path d="M27,33 L27,33.8 C27,35.5673112 25.5673112,37 23.8,37 L23,37 L23,33.8 C23,33.3581722 23.3581722,33 23.8,33 L27,33 Z" id="Shape" fill="#E8EDFC"></path>
                <path d="M49,33.8 L49,37 L48.2,37 C46.4326888,37 45,35.5673112 45,33.8 L45,33 L48.2,33 C48.6418278,33 49,33.3581722 49,33.8 Z" id="Shape" fill="#E8EDFC"></path>
                <path d="M47.25,33 L45,33 C45.4142135,33 45.75,33.3581722 45.75,33.8 L45.75,36.5568 C46.2042295,36.8439998 46.7219737,36.9969759 47.25,37 L48,37 L48,33.8 C48,33.3581722 47.6642135,33 47.25,33 Z" id="Shape" fill-opacity="0.478447334" fill="#6882DA"></path>
                <path d="M27,48.2 L27,49 L23.8,49 C23.3581722,49 23,48.6418278 23,48.2 L23,45 L23.8,45 C25.5673112,45 27,46.4326888 27,48.2 Z" id="Shape" fill="#E8EDFC"></path>
                <path d="M49,45 L49,48.2 C49,48.6418278 48.6418278,49 48.2,49 L45,49 L45,48.2 C45,46.4326888 46.4326888,45 48.2,45 L49,45 Z" id="Shape" fill="#E8EDFC"></path>
                <path d="M47.25,45 C46.7219737,45.0030241 46.2042295,45.1560002 45.75,45.4432 L45.75,48.2 C45.75,48.6418278 45.4142135,49 45,49 L47.25,49 C47.6642135,49 48,48.6418278 48,48.2 L48,45 L47.25,45 Z" id="Shape" fill-opacity="0.478447334" fill="#6882DA"></path>
                <circle id="Oval" fill="#E8EDFC" cx="35.5" cy="40.5" r="3.5"></circle>
                <circle id="Oval" fill="#E8EDFC" cx="26.5" cy="40.5" r="1.5"></circle>
                <circle id="Oval" fill="#E8EDFC" cx="44.5" cy="40.5" r="1.5"></circle>
                <path d="M0.845571874,41 L3.38228749,41 C2.91529104,41 2.53671562,40.6228589 2.53671562,40.157632 L2.53671562,37.6305279 C2.53950161,36.7012258 3.2950229,35.9485672 4.22785937,35.9457918 L4.22785937,17.413695 C4.23064536,16.484393 4.98616664,15.7317344 5.91900312,15.7289589 L8.05829996,15.7289589 C10.3966168,11.8611231 14.4789569,9.36977091 19,9.0515075 C18.1643031,8.98283083 17.3243484,8.98283083 16.4886515,9.0515075 C11.9585022,9.36205018 7.86515789,11.8543398 5.52158433,15.7289589 L3.38228749,15.7289589 C2.44945102,15.7317344 1.69392974,16.484393 1.69114375,17.413695 L1.69114375,35.9457918 C0.758307275,35.9485672 0.00278599021,36.7012258 0,37.6305279 L0,40.157632 C0,40.3810419 0.0890867806,40.5953015 0.247662269,40.7532761 C0.406237757,40.9112508 0.621312269,41 0.845571874,41 Z" id="Shape" fill="#FFFFFF"></path>
                <polygon id="Rectangle-path" fill="#FFFFFF" points="1 18 3 18 3 25 1 25"></polygon>
                <g id="Group">
                    <circle id="Oval" fill="#428DFF" cx="2.5" cy="20.8333333" r="1"></circle>
                    <path d="M48.3333333,31.6666667 L35,31.6666667 L35,17.5 C35,16.1192882 33.8807118,15 32.5,15 L30.8533333,15 C28.2666354,11.0206597 23.9092157,8.54459875 19.1666667,8.35916667 L19.1666667,7.24416667 L23.0383333,5.79333333 C23.7146439,5.53833818 24.1623124,4.89111859 24.1623124,4.16833333 C24.1623124,3.44554807 23.7146439,2.79832848 23.0383333,2.54333333 L19.1666667,1.08916667 L19.1666667,0.833333333 C19.1666667,0.373096042 18.7935706,-1.85037171e-15 18.3333333,-1.85037171e-15 C17.8730961,-1.85037171e-15 17.5,0.373096042 17.5,0.833333333 L17.5,8.35916667 C12.757451,8.54459875 8.40003125,11.0206597 5.81333333,15 L4.16666667,15 C2.78595479,15 1.66666667,16.1192882 1.66666667,17.5 C1.66666667,17.9602373 2.03976271,18.3333333 2.5,18.3333333 C2.96023729,18.3333333 3.33333333,17.9602373 3.33333333,17.5 C3.33333333,17.0397627 3.70642938,16.6666667 4.16666667,16.6666667 L32.5,16.6666667 C32.9602372,16.6666667 33.3333333,17.0397627 33.3333333,17.5 L33.3333333,31.6666667 L31.6666667,31.6666667 L31.6666667,21.6666667 C31.6589265,20.2891736 30.5441597,19.1744068 29.1666667,19.1666667 C27.7859548,19.1666667 26.6666667,20.2859548 26.6666667,21.6666667 L26.6666667,31.6666667 L24.1666667,31.6666667 L24.1666667,24.1666667 C24.1629928,20.9465286 21.5534714,18.3370072 18.3333333,18.3333333 C15.1133853,18.3374653 12.504132,20.9467187 12.5,24.1666667 L12.5,35 L10,35 L10,21.6666667 C10,20.2859548 8.88071183,19.1666667 7.5,19.1666667 C6.11928812,19.1666667 5,20.2859548 5,21.6666667 L5,35 L3.33333333,35 L3.33333333,24.1666667 C3.33333333,23.7064294 2.96023729,23.3333333 2.5,23.3333333 C2.03976271,23.3333333 1.66666667,23.7064294 1.66666667,24.1666667 L1.66666667,35.1533333 C0.671374283,35.5052122 0.00437615833,36.4443455 0,37.5 L0,40 C0,40.9204746 0.746192083,41.6666667 1.66666667,41.6666667 L21.6666667,41.6666667 L21.6666667,48.3333333 C21.6666667,49.2538079 22.4128588,50 23.3333333,50 L48.3333333,50 C49.2538079,50 50,49.2538079 50,48.3333333 L50,33.3333333 C50,32.4128587 49.2538079,31.6666667 48.3333333,31.6666667 Z M22.4533333,4.10083333 L22.4533333,4.2325 L19.1666667,5.46416667 L19.1666667,2.86916667 L22.4533333,4.10083333 Z M18.3333333,10 C22.4198424,9.94585225 26.2995856,11.793349 28.8333333,15 L7.83333333,15 C10.3670811,11.793349 14.2468242,9.94585225 18.3333333,10 Z M48.3333333,35.8333333 C46.9526215,35.8333333 45.8333333,34.7140452 45.8333333,33.3333333 L48.3333333,33.3333333 L48.3333333,35.8333333 Z M28.3333333,21.6666667 C28.3333333,21.2064294 28.7064294,20.8333325 29.1666667,20.8333325 C29.3911204,20.8330038 29.6057742,20.9252567 29.76,21.0883333 C29.9154987,21.2403302 30.0021897,21.4492313 30,21.6666667 L30,31.6666667 L28.3333333,31.6666667 L28.3333333,21.6666667 Z M22.5,25 L22.5,31.8983333 C21.9860406,32.1936772 21.6684542,32.740561 21.6666667,33.3333333 L21.6666667,35 L19.1666667,35 L19.1666667,25 L22.5,25 Z M23.3333333,33.3333333 L25.8333333,33.3333333 C25.8333333,34.7140452 24.7140452,35.8333333 23.3333333,35.8333333 L23.3333333,33.3333333 Z M18.3333333,20 C20.312584,20.0024986 22.0179727,21.3946527 22.4166667,23.3333333 L14.25,23.3333333 C14.6504429,21.3957124 16.3547707,20.0044243 18.3333333,20 Z M14.1666667,25 L17.5,25 L17.5,35 L14.1666667,35 L14.1666667,25 Z M6.66666667,21.6666667 C6.66666667,21.2064294 7.03976271,20.8333333 7.5,20.8333333 C7.96023729,20.8333333 8.33333333,21.2064294 8.33333333,21.6666667 L8.33333333,35 L6.66666667,35 L6.66666667,21.6666667 Z M1.66666667,40 L1.66666667,37.5 C1.66666667,37.0397627 2.03976271,36.6666667 2.5,36.6666667 L21.6666667,36.6666667 L21.6666667,40 L1.66666667,40 Z M23.3333333,45.8333333 C24.7140452,45.8333333 25.8333333,46.9526215 25.8333333,48.3333333 L23.3333333,48.3333333 L23.3333333,45.8333333 Z M23.3333333,44.1666667 L23.3333333,37.5 C25.6333777,37.4972449 27.4972449,35.6333777 27.5,33.3333333 L44.1666667,33.3333333 C44.1694217,35.6333777 46.033289,37.4972449 48.3333333,37.5 L48.3333333,44.1666667 C46.033289,44.1694217 44.1694217,46.033289 44.1666667,48.3333333 L27.5,48.3333333 C27.4972449,46.033289 25.6333777,44.1694217 23.3333333,44.1666667 Z M45.8333333,48.3333333 C45.8333333,46.9526215 46.9526215,45.8333333 48.3333333,45.8333333 L48.3333333,48.3333333 L45.8333333,48.3333333 Z" id="Shape" fill="#6882DA"></path>
                    <path d="M35.8333333,36.6666667 C33.5321469,36.6666667 31.6666667,38.5321469 31.6666667,40.8333333 C31.6666667,43.1345197 33.5321469,45 35.8333333,45 C38.1345197,45 40,43.1345197 40,40.8333333 C39.9972449,38.533289 38.1333777,36.6694217 35.8333333,36.6666667 Z M35.8333333,43.3333333 C34.4526215,43.3333333 33.3333333,42.2140452 33.3333333,40.8333333 C33.3333333,39.4526215 34.4526215,38.3333333 35.8333333,38.3333333 C37.2140452,38.3333333 38.3333333,39.4526215 38.3333333,40.8333333 C38.3333333,42.2140452 37.2140452,43.3333333 35.8333333,43.3333333 Z" id="Shape" fill="#6882DA"></path>
                    <path d="M27.5,38.3333333 C26.1192882,38.3333333 25,39.4526215 25,40.8333333 C25,42.2140452 26.1192882,43.3333333 27.5,43.3333333 C28.8807118,43.3333333 30,42.2140452 30,40.8333333 C30,39.4526215 28.8807118,38.3333333 27.5,38.3333333 Z M27.5,41.6666667 C27.0397628,41.6666667 26.6666667,41.2935706 26.6666667,40.8333333 C26.6666667,40.3730961 27.0397628,40 27.5,40 C27.9602373,40 28.3333333,40.3730961 28.3333333,40.8333333 C28.3333333,41.2935706 27.9602373,41.6666667 27.5,41.6666667 Z" id="Shape" fill="#6882DA"></path>
                    <path d="M46.6666667,40.8333333 C46.6666667,39.4526215 45.5473785,38.3333333 44.1666667,38.3333333 C42.7859548,38.3333333 41.6666667,39.4526215 41.6666667,40.8333333 C41.6666667,42.2140452 42.7859548,43.3333333 44.1666667,43.3333333 C45.5473785,43.3333333 46.6666667,42.2140452 46.6666667,40.8333333 Z M43.3333333,40.8333333 C43.3333333,40.3730961 43.7064294,40 44.1666667,40 C44.6269039,40 45,40.3730961 45,40.8333333 C45,41.2935706 44.6269039,41.6666667 44.1666667,41.6666667 C43.7064294,41.6666667 43.3333333,41.2935706 43.3333333,40.8333333 Z" id="Shape" fill="#6882DA"></path>
                </g>
            </g>
        </g>
    </g>
</svg>