<?xml version="1.0" encoding="UTF-8"?>
<svg width="35px" height="32px" viewBox="0 0 35 32" version="1.1" xmlns="http://www.w3.org/2000/svg" xmlns:xlink="http://www.w3.org/1999/xlink">
    <title>Group 59</title>
    <g id="Page-1" stroke="none" stroke-width="1" fill="none" fill-rule="evenodd">
        <g id="Translation-(With-AI-component)" transform="translate(-300.000000, -7402.000000)">
            <g id="Group-99" transform="translate(-101.000000, 2180.000000)">
                <g id="Group-76" transform="translate(0.000000, 1908.000000)">
                    <g id="Group-59" transform="translate(401.000000, 3314.000000)">
                        <circle id="Oval-Copy-18" fill="#D6CFF0" opacity="0.5" cx="16" cy="16" r="16"></circle>
                        <path d="M27.21875,6.84375 C27.40625,6.84375 27.5,6.75 27.5,6.5625 L27.5,6.5625 L27.5,5.4375 C27.5,5.25 27.40625,5.15625 27.21875,5.15625 L27.21875,5.15625 L14.28125,5.15625 C14.09375,5.15625 14,5.25 14,5.4375 L14,5.4375 L14,6.5625 C14,6.75 14.09375,6.84375 14.28125,6.84375 L14.28125,6.84375 L27.21875,6.84375 Z M34.71875,12.84375 C34.90625,12.84375 35,12.75 35,12.5625 L35,12.5625 L35,11.4375 C35,11.25 34.90625,11.15625 34.71875,11.15625 L34.71875,11.15625 L14.28125,11.15625 C14.09375,11.15625 14,11.25 14,11.4375 L14,11.4375 L14,12.5625 C14,12.75 14.09375,12.84375 14.28125,12.84375 L14.28125,12.84375 L34.71875,12.84375 Z M27.21875,18.84375 C27.40625,18.84375 27.5,18.75 27.5,18.5625 L27.5,18.5625 L27.5,17.4375 C27.5,17.25 27.40625,17.15625 27.21875,17.15625 L27.21875,17.15625 L14.28125,17.15625 C14.09375,17.15625 14,17.25 14,17.4375 L14,17.4375 L14,18.5625 C14,18.75 14.09375,18.84375 14.28125,18.84375 L14.28125,18.84375 L27.21875,18.84375 Z M34.71875,24.84375 C34.90625,24.84375 35,24.75 35,24.5625 L35,24.5625 L35,23.4375 C35,23.25 34.90625,23.15625 34.71875,23.15625 L34.71875,23.15625 L14.28125,23.15625 C14.09375,23.15625 14,23.25 14,23.4375 L14,23.4375 L14,24.5625 C14,24.75 14.09375,24.84375 14.28125,24.84375 L14.28125,24.84375 L34.71875,24.84375 Z" id="" fill="#000000" fill-rule="nonzero"></path>
                    </g>
                </g>
            </g>
        </g>
    </g>
</svg>