<svg width="40" height="40" viewBox="0 0 40 40" fill="none" xmlns="http://www.w3.org/2000/svg">
<circle cx="20" cy="20" r="16" fill="#D3CCEE"/>
<g clip-path="url(#clip0_44:77)">
<path d="M27.894 32C27.763 32 27.635 31.948 27.54 31.854C27.422 31.736 27.37 31.566 27.403 31.402L28.11 27.866C28.13 27.769 28.176 27.68 28.247 27.611L36.025 19.833C36.609 19.248 37.562 19.248 38.146 19.833L39.56 21.247C40.145 21.832 40.145 22.783 39.56 23.368L31.782 31.146C31.713 31.216 31.624 31.263 31.526 31.283L27.991 31.99C27.959 31.997 27.926 32 27.894 32ZM29.062 28.211L28.532 30.863L31.183 30.333L38.854 22.662C39.049 22.467 39.049 22.15 38.854 21.955L37.44 20.541C37.245 20.346 36.928 20.346 36.733 20.541L29.062 28.211ZM31.429 30.793H31.439H31.429ZM29.5 23H19.5C19.224 23 19 22.776 19 22.5C19 22.224 19.224 22 19.5 22H29.5C29.776 22 30 22.224 30 22.5C30 22.776 29.776 23 29.5 23ZM27.5 26H19.5C19.224 26 19 25.776 19 25.5C19 25.224 19.224 25 19.5 25H27.5C27.776 25 28 25.224 28 25.5C28 25.776 27.776 26 27.5 26ZM24.5 15C23.397 15 22.5 14.103 22.5 13C22.5 11.897 23.397 11 24.5 11C25.603 11 26.5 11.897 26.5 13C26.5 14.103 25.603 15 24.5 15ZM24.5 12C23.948 12 23.5 12.449 23.5 13C23.5 13.551 23.948 14 24.5 14C25.052 14 25.5 13.551 25.5 13C25.5 12.449 25.052 12 24.5 12ZM28 20C27.724 20 27.5 19.776 27.5 19.5V18.5C27.5 17.673 26.827 17 26 17H23C22.173 17 21.5 17.673 21.5 18.5V19.5C21.5 19.776 21.276 20 21 20C20.724 20 20.5 19.776 20.5 19.5V18.5C20.5 17.122 21.621 16 23 16H26C27.379 16 28.5 17.122 28.5 18.5V19.5C28.5 19.776 28.276 20 28 20Z" fill="black" stroke="black" stroke-width="0.5"/>
<path d="M25.5 29H18.5C17.121 29 16 27.878 16 26.5V10.5C16 9.122 17.121 8 18.5 8H30.5C31.879 8 33 9.122 33 10.5V19.5C33 19.776 32.776 20 32.5 20C32.224 20 32 19.776 32 19.5V10.5C32 9.673 31.327 9 30.5 9H18.5C17.673 9 17 9.673 17 10.5V26.5C17 27.327 17.673 28 18.5 28H25.5C25.776 28 26 28.224 26 28.5C26 28.776 25.776 29 25.5 29Z" fill="black" stroke="black" stroke-width="0.5"/>
</g>
<defs>
<clipPath id="clip0_44:77">
<rect width="24" height="24" fill="white" transform="translate(16 8)"/>
</clipPath>
</defs>
</svg>
