<?xml version="1.0" encoding="UTF-8"?>
<svg width="40px" height="40px" viewBox="0 0 40 40" version="1.1" xmlns="http://www.w3.org/2000/svg" xmlns:xlink="http://www.w3.org/1999/xlink">
    <title>236A2635-D98F-42E9-8213-46F52847E2B5</title>
    <g id="Page-1" stroke="none" stroke-width="1" fill="none" fill-rule="evenodd">
        <g id="translation-service-2" transform="translate(-600.000000, -2239.000000)">
            <g id="additional-features" transform="translate(-2.000000, 1795.000000)">
                <g id="Group-26" transform="translate(602.000000, 444.000000)">
                    <g id="Group-46">
                        <g id="Group-51">
                            <rect id="Rectangle" x="0" y="0" width="40" height="40"></rect>
                            <g id="Group-41" transform="translate(0.000000, 3.000000)">
                                <g id="Group-55" transform="translate(0.000000, 0.200000)">
                                    <g id="Group-52" transform="translate(0.000000, 0.000000)">
                                        <circle id="Oval-Copy-19" fill="#50CAAE" opacity="0.5" cx="16" cy="16" r="16"></circle>
                                        <g id="Book-editing-icon" transform="translate(16.000000, 2.800000)"></g>
                                    </g>
                                    <g id="Group-21" transform="translate(16.000000, 2.800000)" fill-rule="nonzero">
                                        <path d="M19.5585739,1.64016948e-13 C19.9586443,1.64016948e-13 20.2829655,0.288848555 20.2829655,0.64516129 L20.2829655,3.87096774 L21.0073571,3.87096774 C21.2073923,3.87096774 21.3884903,3.94317988 21.5195793,4.05993111 C21.6506684,4.17668234 21.7317487,4.33797266 21.7317487,4.51612903 L21.7317487,23.8709677 C21.7317487,24.2272805 21.4074276,24.516129 21.0073571,24.516129 L2.8975665,24.516129 C1.29747767,24.516129 0,23.361095 0,21.9354839 L0,2.58064516 C0,1.15503403 1.29747767,1.64016948e-13 2.8975665,1.64016948e-13 L19.5585739,1.64016948e-13 Z M1.44878325,4.81608054 L1.44878325,21.9354839 C1.44878325,22.6483365 2.09746925,23.2258065 2.8975665,23.2258065 L20.2829655,23.2258065 L20.2829655,5.16129032 L2.8975665,5.16129032 C2.36982163,5.16129032 1.87499562,5.03564259 1.44878325,4.81608054 Z M18.8341822,1.29032258 L2.8975665,1.29032258 C2.09746925,1.29032258 1.44878325,1.86779257 1.44878325,2.58064516 C1.44878325,3.29349775 2.09746925,3.87096774 2.8975665,3.87096774 L18.8341822,3.87096774 L18.8341822,1.29032258 Z" id="Combined-Shape" fill="#000000"></path>
                                        <path d="M14.2756631,7.93089885 L17.1732296,10.511544 C17.4561221,10.7634952 17.4561221,11.1719886 17.1732296,11.4239399 L9.92931336,17.8755528 C9.84979341,17.9463752 9.75285112,17.9997357 9.64616388,18.0314085 L5.29981411,19.3217311 C4.73351515,19.4898512 4.19475682,19.0100195 4.38352313,18.5056595 L5.83230638,14.6346917 C5.86786881,14.5396734 5.9277824,14.4533342 6.00730239,14.3825117 L13.2512186,7.93089885 C13.5341112,7.67894769 13.9927705,7.67894769 14.2756631,7.93089885 Z M13.7634409,9.29949262 L7.15266611,15.1872139 L6.2161051,17.6895879 L9.02578809,16.8554632 L15.6365629,10.9677419 L13.7634409,9.29949262 Z" id="Combined-Shape" fill="#262626"></path>
                                    </g>
                                </g>
                            </g>
                        </g>
                    </g>
                </g>
            </g>
        </g>
    </g>
</svg>