<svg xmlns="http://www.w3.org/2000/svg" width="39" height="33" fill-rule="evenodd" xmlns:v="https://vecta.io/nano"><circle fill="#50caae" opacity=".5" cx="16" cy="16.2" r="16"/><path d="M17.633 6.73a1.2 1.2 0 0 1 1.8-1.584L21.4 7.402l4.68-4.716c.304-.304.748-.423 1.164-.312s.74.436.852.852a1.2 1.2 0 0 1-.312 1.164l-5.58 5.616c-.076.055-.156.103-.24.144-.035.03-.076.055-.12.072-.137.057-.284.085-.432.084a1.2 1.2 0 0 1-.48-.048l-.144-.096a1.03 1.03 0 0 1-.24-.156h0L17.633 6.73zm11.7 2.808h8.4a1.2 1.2 0 1 0 0-2.4h-8.4a1.2 1.2 0 1 0 0 2.4zm8.4 4.8h-19.2a1.2 1.2 0 1 0 0 2.4h19.2a1.2 1.2 0 1 0 0-2.4zm0 7.2h-19.2a1.2 1.2 0 1 0 0 2.4h19.2a1.2 1.2 0 0 0 0-2.4z" fill="#262626" fill-rule="nonzero"/></svg>