<svg xmlns="http://www.w3.org/2000/svg" width="54" height="48" viewBox="0 0 54 48">
  <g id="Group_279" data-name="Group 279" transform="translate(-4491 1681)">
    <circle id="Ellipse_1" data-name="Ellipse 1" cx="24" cy="24" r="24" transform="translate(4491 -1681)" fill="#50caae" opacity="0.5"/>
    <path id="card-blue-icon_1_" data-name="card-blue-icon (1)" d="M36.846,0A3.206,3.206,0,0,1,40,3.225v23.55A3.205,3.205,0,0,1,36.846,30H8.568a3.205,3.205,0,0,1-3.154-3.225V21.607H.908a.892.892,0,0,1-.642-.273.933.933,0,0,1-.2-.3A.95.95,0,0,1,0,20.677V15.89a.95.95,0,0,1,.069-.356.933.933,0,0,1,.2-.3.907.907,0,0,1,.3-.2.894.894,0,0,1,.347-.071H5.413V9.829A3.2,3.2,0,0,1,8.568,6.6H11.3V.938a.95.95,0,0,1,.069-.356.933.933,0,0,1,.2-.3A.95.95,0,0,1,12.208,0H36.845Zm0,8.463H8.568A1.342,1.342,0,0,0,7.232,9.83v5.131h4.5a.906.906,0,0,1,.347.071.916.916,0,0,1,.3.2.933.933,0,0,1,.2.3.95.95,0,0,1,.069.356v4.787a.95.95,0,0,1-.069.356.933.933,0,0,1-.2.3.907.907,0,0,1-.3.2.894.894,0,0,1-.347.071h-4.5v5.168a1.353,1.353,0,0,0,1.337,1.367H36.846a1.353,1.353,0,0,0,1.337-1.367V9.829a1.352,1.352,0,0,0-1.337-1.367Zm-1.183,9.162a.891.891,0,0,1,.347.072.915.915,0,0,1,.294.2.933.933,0,0,1,.2.3.95.95,0,0,1,.068.356c.033,2.938.325,4.8-.23,6.325a2.775,2.775,0,0,1-1.725,1.67,7.584,7.584,0,0,1-2.965.167.9.9,0,0,1-.345-.1.917.917,0,0,1-.282-.225.934.934,0,0,1-.175-.319.946.946,0,0,1,.058-.715.912.912,0,0,1,.225-.285.792.792,0,0,1,.314-.167.892.892,0,0,1,.356-.037,6.592,6.592,0,0,0,2.265-.083c.386-.125.445-.2.572-.544.252-.695.15-2.645.117-5.656a.95.95,0,0,1,.062-.364.933.933,0,0,1,.2-.31.916.916,0,0,1,.3-.208.9.9,0,0,1,.354-.073Zm-24.839-.8H1.818v2.928h9V16.82ZM36.846,1.858H13.118V6.6H36.846a3.058,3.058,0,0,1,1.337.308V3.225A1.352,1.352,0,0,0,36.846,1.858Z" transform="translate(4505 -1672)" fill-rule="evenodd"/>
  </g>
</svg>
