<?xml version="1.0" encoding="UTF-8"?>
<svg width="66px" height="66px" viewBox="0 0 66 66" version="1.1" xmlns="http://www.w3.org/2000/svg" xmlns:xlink="http://www.w3.org/1999/xlink">
    <title>6180E113-018E-4EF9-A5C8-852C0EA2CBD2</title>
    <g id="Final-Designs" stroke="none" stroke-width="1" fill="none" fill-rule="evenodd">
        <g id="Japan-HomePage---new-changes" transform="translate(-206.000000, -3935.000000)">
            <g id="Group-51" transform="translate(0.000000, 3452.000000)">
                <g id="Group-55" transform="translate(165.000000, 144.000000)">
                    <g id="Group-54-Copy-2" transform="translate(0.000000, 323.000000)">
                        <g id="Group-44" transform="translate(41.000000, 16.000000)">
                            <g id="Group-47" transform="translate(2.000000, 7.000000)">
                                <ellipse id="Oval" fill="#9889CD" opacity="0.5" cx="26.3563903" cy="26.5" rx="26.3563903" ry="26.5"></ellipse>
                                <g id="Group" transform="translate(21.085112, 1.325000)" fill="#000000" fill-rule="nonzero">
                                    <path d="M31.9681051,10.4351111 C31.9681051,8.44540278 30.3640259,6.83258333 28.3851002,6.83258333 L26.2956242,6.83258333 L3.82314084,6.83258333 C1.87350008,6.83258333 0.292848781,8.42184722 0.292848781,10.3821111 L0.292848781,41.9060694 C0.292848781,43.8663333 1.87350008,45.4555972 3.82314084,45.4555972 L28.437813,45.4555972 C30.3874538,45.4555972 31.9681051,43.8663333 31.9681051,41.9060694 L31.9681051,12.4373333 L31.9681051,10.4351111 Z M29.3119666,13.7719028 L29.3119666,40.7393333 C29.3119666,41.8685278 28.4012069,42.78425 27.2781318,42.78425 L4.98282201,42.78425 C3.85974693,42.78425 2.94898722,41.8685278 2.94898722,40.7393333 L2.94898722,11.547375 C2.94898722,10.4181806 3.85974693,9.50245833 4.98282201,9.50245833 L24.9682871,9.50245833 L27.2327403,9.50245833 C28.3397087,9.50245833 29.2431471,10.3924167 29.2658429,11.5054167 L29.3119666,13.7719028 Z" id="Shape"></path>
                                    <g transform="translate(6.589098, 14.722222)" id="Path">
                                        <path d="M17.805938,2.47627778 L1.27755281,2.47627778 C0.713086782,2.47627778 0.256242683,2.01620833 0.256242683,1.44940278 C0.256242683,0.881861111 0.713818904,0.422527778 1.27755281,0.422527778 L17.805938,0.422527778 C18.370404,0.422527778 18.8272481,0.882597222 18.8272481,1.44940278 C18.8272481,2.01620833 18.3696719,2.47627778 17.805938,2.47627778 Z"></path>
                                        <path d="M17.805938,7.46195833 L1.27755281,7.46195833 C0.713086782,7.46195833 0.256242683,7.00188889 0.256242683,6.43508333 C0.256242683,5.86754167 0.713818904,5.40820833 1.27755281,5.40820833 L17.805938,5.40820833 C18.370404,5.40820833 18.8272481,5.86827778 18.8272481,6.43508333 C18.8272481,7.002625 18.3696719,7.46195833 17.805938,7.46195833 Z"></path>
                                        <path d="M17.805938,12.448375 L1.27755281,12.448375 C0.713086782,12.448375 0.256242683,11.9883056 0.256242683,11.4215 C0.256242683,10.8546944 0.713818904,10.394625 1.27755281,10.394625 L17.805938,10.394625 C18.370404,10.394625 18.8272481,10.8546944 18.8272481,11.4215 C18.8272481,11.9883056 18.3696719,12.448375 17.805938,12.448375 Z"></path>
                                        <path d="M17.805938,17.4340556 L1.27755281,17.4340556 C0.713086782,17.4340556 0.256242683,16.9739861 0.256242683,16.4071806 C0.256242683,15.840375 0.713818904,15.3803056 1.27755281,15.3803056 L17.805938,15.3803056 C18.370404,15.3803056 18.8272481,15.840375 18.8272481,16.4071806 C18.8272481,16.9739861 18.3696719,17.4340556 17.805938,17.4340556 Z"></path>
                                        <path d="M17.805938,22.4204722 L1.27755281,22.4204722 C0.713086782,22.4204722 0.256242683,21.9604028 0.256242683,21.3935972 C0.256242683,20.8267917 0.713818904,20.3667222 1.27755281,20.3667222 L17.805938,20.3667222 C18.370404,20.3667222 18.8272481,20.8267917 18.8272481,21.3935972 C18.8272481,21.9604028 18.3696719,22.4204722 17.805938,22.4204722 Z"></path>
                                    </g>
                                    <path d="M35.6587318,0.184027778 L33.5692558,0.184027778 L11.0967724,0.184027778 C9.14713167,0.184027778 7.56648038,1.77329167 7.56648038,3.73355556 L7.56648038,5.17044444 L10.2226188,5.17044444 L10.2226188,4.89955556 C10.2226188,3.77036111 11.1333785,2.85463889 12.2564536,2.85463889 L32.2419187,2.85463889 L34.5063719,2.85463889 C35.6133403,2.85463889 36.5167787,3.74459722 36.5394745,4.85759722 L36.5855982,7.12408333 L36.5855982,34.0915139 C36.5855982,35.2207083 35.6748385,36.1364306 34.5517634,36.1364306 L33.6212364,36.1364306 L33.6212364,38.8070417 L35.7114446,38.8070417 C37.6610854,38.8070417 39.2417367,37.2177778 39.2417367,35.2575139 L39.2417367,5.78877778 L39.2417367,3.78655556 C39.2417367,1.79684722 37.6376575,0.184027778 35.6587318,0.184027778 Z" id="Path"></path>
                                </g>
                            </g>
                            <rect id="Rectangle" x="0" y="0" width="66" height="66"></rect>
                        </g>
                    </g>
                </g>
            </g>
        </g>
    </g>
</svg>