<svg xmlns="http://www.w3.org/2000/svg" width="36" height="33" fill="none" fill-rule="evenodd" xmlns:v="https://vecta.io/nano"><circle fill="#ffdc68" opacity=".5" cx="16" cy="16.8" r="16"/><g fill-rule="nonzero"><g fill="#262626"><path d="M31.375 26.34H17.2c-1.254-.003-2.273-1.022-2.276-2.276V10.9c.003-1.254 1.022-2.273 2.276-2.276h4.483a.76.76 0 1 1 0 1.521H17.2a.76.76 0 0 0-.755.755v13.155a.76.76 0 0 0 .755.755h14.164c.414 0 .752-.338.752-.755v-4.48a.76.76 0 1 1 1.521 0v4.483c.003 1.25-1.016 2.273-2.27 2.273z"/><path d="M28.442 29.34H14.275c-1.254-.003-2.273-1.022-2.276-2.276V13.9c.003-1.254 1.022-2.273 2.276-2.276h4.483a.76.76 0 1 1 0 1.521h-4.483a.76.76 0 0 0-.755.755v13.155a.76.76 0 0 0 .755.755H28.44c.414 0 .752-.338.752-.755v-4.48a.76.76 0 1 1 1.521 0v4.483c.003 1.25-1.016 2.273-2.27 2.273z"/></g><path d="M35.747 8.55l-2.983-3a.77.77 0 0 0-.541-.224c-.2 0-.396.082-.54.224L21.538 15.706a.74.74 0 0 0-.193.327L20.14 20.2a.76.76 0 0 0 .734.972.69.69 0 0 0 .2-.03l4.206-1.156a.74.74 0 0 0 .335-.198L35.752 9.62a.76.76 0 0 0-.005-1.072zM21.98 19.32l.544-1.882 1.37 1.354-1.914.528zm3.094-1.138l-1.938-1.922 7.218-7.218 1.925 1.906-7.205 7.234zm8.1-8.13L31.25 8.145l.972-.972 1.9 1.914-.96.964z" fill="#000"/></g></svg>