<svg xmlns="http://www.w3.org/2000/svg" width="54.681" height="48" viewBox="0 0 54.681 48">
  <g id="Group_280" data-name="Group 280" transform="translate(-4491 1681)">
    <circle id="Ellipse_1" data-name="Ellipse 1" cx="24" cy="24" r="24" transform="translate(4491 -1681)" fill="#6882da" opacity="0.5"/>
    <g id="Group" transform="translate(4525.001 -1681.123)">
      <path id="Shape" d="M9.86,44a.956.956,0,0,1-.956-.956v-1.9a34.25,34.25,0,0,1-3.525-3.9c-1.3-1.719-2.435-3.638-2.435-5.631V25.91a4,4,0,0,1,1.9-3.227.957.957,0,0,1,1.076,1.584A2.755,2.755,0,0,0,4.855,25.91v5.706A8.793,8.793,0,0,0,6.9,36.1a34.847,34.847,0,0,0,3.615,3.973.955.955,0,0,1,.3.687v1.329H23.991V38.846a.962.962,0,0,1,.3-.688,7.951,7.951,0,0,0,2.48-5.78V28.9a3.763,3.763,0,0,0-1.852-2.973,16.572,16.572,0,0,0-4.631-2.2,40.366,40.366,0,0,0-6.962-1.509.955.955,0,0,1-.851-.955V11.391a1.3,1.3,0,0,0-1.419-1.27,1.314,1.314,0,0,0-1.434,1.27V25.985a.956.956,0,1,1-1.913,0V11.391a3.277,3.277,0,0,1,3.347-3.182,3.263,3.263,0,0,1,3.331,3.182v9.052a37.04,37.04,0,0,1,6.483,1.464,18.133,18.133,0,0,1,5.2,2.48A5.73,5.73,0,0,1,28.681,28.9v3.481A9.843,9.843,0,0,1,25.9,39.19v3.854a.956.956,0,0,1-.956.956ZM12.354,5.654,11,4.324,9.651,5.654A.956.956,0,1,1,8.307,4.295L9.636,2.98,8.307,1.651A.956.956,0,1,1,9.651.292L11,1.621,12.354.292A.956.956,0,1,1,13.7,1.651L12.37,2.98,13.7,4.295a.956.956,0,1,1-1.345,1.359ZM16.3,2.981a2.853,2.853,0,0,1,5.706,0,2.853,2.853,0,0,1-5.706,0Zm1.913,0a.941.941,0,1,0,.941-.927A.924.924,0,0,0,18.21,2.981ZM0,2.981a2.854,2.854,0,0,1,5.707,0A2.854,2.854,0,0,1,0,2.981Zm1.913,0a.923.923,0,0,0,.941.925.926.926,0,1,0,0-1.852A.923.923,0,0,0,1.913,2.981Z" transform="translate(-8.001 2.123)" fill="rgba(0,0,0,0.85)"/>
    </g>
  </g>
</svg>
