<svg xmlns="http://www.w3.org/2000/svg" width="55.159" height="48" viewBox="0 0 55.159 48">
  <g id="Group_279" data-name="Group 279" transform="translate(-4491 1681)">
    <circle id="Ellipse_1" data-name="Ellipse 1" cx="24" cy="24" r="24" transform="translate(4491 -1681)" fill="#ae9fe1" opacity="0.5"/>
    <g id="search" transform="translate(4480.021 -1675)">
      <path id="Path_171" data-name="Path 171" d="M172.838,1.172H178.3a1.769,1.769,0,0,1,.386.044V8.753a2.7,2.7,0,0,0,2.7,2.7h7.521a1.771,1.771,0,0,1,.043.383v2.714a.586.586,0,1,0,1.172,0V11.84a2.911,2.911,0,0,0-.856-2.069L180.375.86A2.91,2.91,0,0,0,178.3,0h-5.463a.586.586,0,0,0,0,1.172Zm15.285,9.113h-6.737a1.531,1.531,0,0,1-1.527-1.532V2Z" transform="translate(-130.236 0)"/>
      <path id="Path_172" data-name="Path 172" d="M31.565,11.867a.586.586,0,0,0,.586-.586V3.711A2.542,2.542,0,0,1,34.69,1.172h5.178a.586.586,0,0,0,0-1.172H34.69a3.715,3.715,0,0,0-3.711,3.711v7.57A.586.586,0,0,0,31.565,11.867Z" transform="translate(0)"/>
      <path id="Path_173" data-name="Path 173" d="M88.972,143.672h9.664a.586.586,0,1,0,0-1.172H88.972a.586.586,0,1,0,0,1.172Z" transform="translate(-52.922 -131.367)"/>
      <path id="Path_174" data-name="Path 174" d="M88.972,322.5a.586.586,0,1,0,0,1.172h9.664a.586.586,0,0,0,0-1.172Z" transform="translate(-52.922 -297.304)"/>
      <path id="Path_175" data-name="Path 175" d="M105.058,203.086a.586.586,0,0,0-.586-.586h-17.5a.586.586,0,1,0,0,1.172h17.5A.586.586,0,0,0,105.058,203.086Z" transform="translate(-51.078 -186.679)"/>
      <path id="Path_176" data-name="Path 176" d="M101.152,263.086a.586.586,0,0,0-.586-.586H86.972a.586.586,0,1,0,0,1.172h13.594A.586.586,0,0,0,101.152,263.086Z" transform="translate(-51.078 -241.992)"/>
      <path id="Path_177" data-name="Path 177" d="M65.454,194.712l-.022-.02-3.717-3.3a7.52,7.52,0,0,0-1.83-9.433v-6.215a.586.586,0,1,0-1.172,0v5.422a7.526,7.526,0,0,0-8.806,1.168.586.586,0,0,0,.81.847,6.338,6.338,0,1,1-1.444,2.071.586.586,0,0,0-1.075-.466,7.53,7.53,0,0,0,1.974,8.67H34.69a2.542,2.542,0,0,1-2.539-2.539V172.474a.586.586,0,0,0-1.172,0v18.447a3.715,3.715,0,0,0,3.711,3.711h17.3a7.52,7.52,0,0,0,6.633-.192l3.758,3.355a2.294,2.294,0,0,0,1.61.664,2.15,2.15,0,0,0,1.519-.616,2.115,2.115,0,0,0,.63-1.52A2.251,2.251,0,0,0,65.454,194.712Zm-.769,2.3a1.061,1.061,0,0,1-1.49-.055l-.024-.023-3.523-3.146a7.6,7.6,0,0,0,1.417-1.4l3.577,3.173a1.086,1.086,0,0,1,.325.767A.952.952,0,0,1,64.685,197.009Z" transform="translate(0 -158.459)"/>
      <path id="Path_178" data-name="Path 178" d="M281.063,321.782a4.995,4.995,0,1,0-4.995-4.995A5,5,0,0,0,281.063,321.782Zm-3.607-6.265a3.826,3.826,0,1,1-.216,1.27A3.829,3.829,0,0,1,277.456,315.518Z" transform="translate(-225.941 -287.433)"/>
    </g>
  </g>
</svg>
