<svg xmlns="http://www.w3.org/2000/svg" width="80" height="72" viewBox="0 0 80 72">
  <g id="Group_419" data-name="Group 419" transform="translate(-36 -35)">
    <circle id="Oval" cx="36" cy="36" r="36" transform="translate(36 35)" fill="#d1c7e3"/>
    <g id="noun_translate_1956545" transform="translate(-35.429 -118.125)">
      <path id="Path_3" data-name="Path 3" d="M137.446,195.461l4.565,5.708a1.3,1.3,0,1,1-2.035,1.628l-4.2-5.249-4.2,5.249a1.3,1.3,0,1,1-2.035-1.628l4.565-5.708-1.343-1.677a1.3,1.3,0,1,1,2.037-1.63l.976,1.221,2.5-3.13h-9.026a1.3,1.3,0,1,1,0-2.609h5.217v-1.3a1.3,1.3,0,0,1,2.609,0v1.3H142.3a1.3,1.3,0,1,1,0,2.609h-.678ZM104.282,186l-2.517,6.044a1.305,1.305,0,0,1-2.41-1l6.522-15.652a1.3,1.3,0,0,1,2.408,0l6.522,15.61a1.3,1.3,0,0,1-2.405,1.007L109.89,186Zm1.088-2.609h3.43l-1.717-4.111ZM94.037,195.461h14.348a1.3,1.3,0,1,1,0,2.609H92.733a1.3,1.3,0,0,1-1.3-1.3V170.678a1.3,1.3,0,0,1,1.3-1.3h32.609a1.3,1.3,0,1,1,0,2.609h-31.3Zm54.783-13.043H134.472a1.3,1.3,0,0,1,0-2.609h15.652a1.3,1.3,0,0,1,1.3,1.3V207.2a1.3,1.3,0,0,1-1.3,1.3H117.516a1.3,1.3,0,1,1,0-2.609h31.3ZM136,164.738a1.3,1.3,0,1,1,2.17,1.445l-31.3,46.957a1.3,1.3,0,0,1-2.17-1.445Z"/>
    </g>
  </g>
</svg>
