<?xml version="1.0" encoding="UTF-8"?>
<svg width="71px" height="56px" viewBox="0 0 71 56" version="1.1" xmlns="http://www.w3.org/2000/svg" xmlns:xlink="http://www.w3.org/1999/xlink">
    <title>018B5DD5-F20C-4FA1-9F18-8E1B5A34A0BF</title>
    <g id="Final-Designs" stroke="none" stroke-width="1" fill="none" fill-rule="evenodd">
        <g id="Japan-HomePage---new-changes" transform="translate(-207.000000, -3619.000000)">
            <g id="Group-51" transform="translate(0.000000, 3452.000000)">
                <g id="Group-55" transform="translate(165.000000, 144.000000)">
                    <g id="Group-25" transform="translate(42.000000, 23.000000)">
                        <circle id="Oval-Copy" fill="#FFDC68" opacity="0.5" cx="28" cy="28" r="28"></circle>
                        <g id="Group-7" transform="translate(22.400000, 4.200000)">
                            <rect id="Rectangle-Copy-3" x="0" y="0" width="47.04" height="47.04"></rect>
                            <path d="M33.21808,26.02096 L37.12828,33.84332 C37.13612,33.85508 37.142,33.86684 37.14788,33.88056 L39.09808,37.78096 C39.33916,38.26508 39.14316,38.85308 38.65904,39.09612 C38.51596,39.16668 38.367,39.2 38.22,39.2 C37.86132,39.2 37.51636,39.00204 37.34388,38.65904 L35.65436,35.28 L29.02368,35.28 L27.33612,38.65904 C27.09504,39.14512 26.50704,39.3372 26.02096,39.09808 C25.53684,38.85504 25.34084,38.26508 25.58388,37.78096 L27.53408,33.88056 C27.53996,33.8688 27.54584,33.85508 27.55368,33.84332 L31.46388,26.02096 C31.79708,25.35652 32.88488,25.35652 33.21808,26.02096 Z M32.34,28.65128 L30.00564,33.32 L34.67632,33.32 L32.34,28.65128 Z" id="Combined-Shape" fill="#000000" fill-rule="nonzero"></path>
                            <path d="M15.4872533,14.3700497 L19.2770867,19.0603843 C19.5185187,19.3590913 19.580608,19.7625946 19.4399662,20.1188985 C19.2993244,20.4752023 18.9773182,20.7301756 18.5952443,20.7877724 C18.2131704,20.8453692 17.8290749,20.6968391 17.5876429,20.3981321 L14.1008302,16.0849636 L10.6140175,20.3981321 C10.3725855,20.6968392 9.98848995,20.8453692 9.60641604,20.7877725 C9.22434212,20.7301757 8.90233594,20.4752024 8.7616941,20.1188985 C8.62105227,19.7625947 8.68314163,19.3590913 8.92457373,19.0603843 L12.7144071,14.3700497 L11.5994572,12.992038 C11.3577285,12.6930374 11.2955234,12.2891062 11.4362738,11.9324013 C11.5770242,11.5756965 11.8993468,11.3204099 12.2818258,11.2627057 C12.6643049,11.2050014 13.0488327,11.3536461 13.2905613,11.6526467 L14.1008302,12.6559576 L16.1763139,10.0839977 L8.68298742,10.0839977 C8.08486998,10.0839977 7.6,9.60408107 7.6,9.01207387 C7.6,8.42006667 8.08486998,7.94015001 8.68298742,7.94015001 L13.0141069,7.94015001 L13.0141069,6.87192386 C13.0141069,6.27991666 13.4989769,5.8 14.0970943,5.8 C14.6952118,5.8 15.1800817,6.27991666 15.1800817,6.87192386 L15.1800817,7.94015001 L19.5170126,7.94015001 C20.11513,7.94015001 20.6,8.42006667 20.6,9.01207387 C20.6,9.60408107 20.11513,10.0839977 19.5170126,10.0839977 L18.9541414,10.0839977 L15.4872533,14.3700497 Z" id="Path_3-path" fill="#000000"></path>
                            <path d="M29.4,4.9 C29.4,4.35904 29.83904,3.92 30.38,3.92 L34.3,3.92 C38.0828,3.92 41.16,6.9972 41.16,10.78 L41.16,14.29428 L43.40616,12.04812 C43.78836,11.66592 44.40968,11.66592 44.79188,12.04812 C45.17408,12.43032 45.17408,13.05164 44.79188,13.43384 L40.87384,17.35188 C40.866,17.35972 40.85816,17.36756 40.85032,17.3754 L40.85032,17.3754 C40.84836,17.3754 40.84836,17.3754 40.84836,17.37736 C40.7582,17.45968 40.65824,17.52436 40.5524,17.56748 C40.44852,17.6106 40.33092,17.63608 40.2094,17.64 C40.2094,17.64 40.2094,17.64 40.20744,17.64 C40.20744,17.64 40.20744,17.64 40.20548,17.64 C40.19764,17.64 40.18784,17.64 40.18,17.64 C40.17216,17.64 40.16236,17.64 40.15452,17.64 C40.15256,17.64 40.15256,17.64 40.15256,17.64 C40.1506,17.64 40.1506,17.64 40.1506,17.64 C40.02908,17.63608 39.91148,17.6106 39.80564,17.56552 C39.69784,17.5224 39.59984,17.45772 39.50968,17.3754 C39.50968,17.3754 39.50968,17.3754 39.50772,17.37344 L39.50772,17.37344 C39.49988,17.3656 39.49204,17.35776 39.4842,17.34992 L35.56616,13.43188 C35.18396,13.04968 35.18396,12.42836 35.56616,12.04616 C35.94836,11.66396 36.56968,11.66396 36.95188,12.04616 L39.2,14.29428 L39.2,10.78 C39.2,8.07912 37.00284,5.88 34.3,5.88 L30.38,5.88 C29.83904,5.88 29.4,5.44096 29.4,4.9 Z" id="Path" fill="#000000" fill-rule="nonzero"></path>
                            <path d="M16.66,41.16 L12.74,41.16 C10.03912,41.16 7.84,38.96088 7.84,36.26 L7.84,32.74572 L10.08616,34.99188 C10.46836,35.37408 11.08968,35.37408 11.47188,34.99188 C11.85408,34.60968 11.85408,33.98836 11.47188,33.60616 L7.55384,29.68812 C7.546,29.68028 7.53816,29.67244 7.53032,29.6646 C7.5264,29.6646 7.5264,29.6646 7.52836,29.66264 C7.44016,29.58032 7.33824,29.51564 7.2324,29.47252 C7.12656,29.4294 7.01092,29.40392 6.8894,29.4 C6.8894,29.4 6.88744,29.4 6.88744,29.4 C6.88744,29.4 6.88548,29.4 6.88548,29.4 L6.88548,29.4 C6.86784,29.4 6.85216,29.4 6.83648,29.4 L6.83648,29.4 C6.83648,29.4 6.83648,29.4 6.83452,29.4 C6.83452,29.4 6.83452,29.4 6.83256,29.4 C6.71104,29.40392 6.5954,29.4294 6.48956,29.47448 C6.38176,29.5176 6.2818,29.58228 6.1936,29.6646 C6.19164,29.66656 6.1936,29.66656 6.19164,29.66656 C6.1838,29.6744 6.17596,29.68224 6.16812,29.69008 L2.25008,33.60812 C1.86788,33.99032 1.86788,34.61164 2.25008,34.99384 C2.63228,35.37604 3.2536,35.37604 3.6358,34.99384 L5.88,32.74572 L5.88,36.26 C5.88,40.0428 8.9572,43.12 12.74,43.12 L16.66,43.12 C17.20096,43.12 17.64,42.68096 17.64,42.14 C17.64,41.59904 17.20096,41.16 16.66,41.16 Z" id="Path" fill="#262626" fill-rule="nonzero"></path>
                            <path d="M26.46,1.96 C27.00096,1.96 27.44,2.39904 27.44,2.94 L27.44,19.6 L44.1,19.6 C44.64096,19.6 45.08,20.03904 45.08,20.58 L45.08,44.1 C45.08,44.64096 44.64096,45.08 44.1,45.08 L20.58,45.08 C20.03904,45.08 19.6,44.64096 19.6,44.1 L19.6,27.44 L2.94,27.44 C2.39904,27.44 1.96,27.00096 1.96,26.46 L1.96,2.94 C1.96,2.39904 2.39904,1.96 2.94,1.96 L26.46,1.96 Z M43.12,21.56 L21.56,21.56 L21.56,43.12 L43.12,43.12 L43.12,21.56 Z M25.48,3.92 L3.92,3.92 L3.92,25.48 L19.6,25.48 L19.6,20.58 C19.6,20.03904 20.03904,19.6 20.58,19.6 L25.48,19.6 L25.48,3.92 Z" id="Combined-Shape" fill="#000000" fill-rule="nonzero"></path>
                        </g>
                    </g>
                </g>
            </g>
        </g>
    </g>
</svg>