<svg xmlns="http://www.w3.org/2000/svg" xmlns:xlink="http://www.w3.org/1999/xlink" width="38" height="32" xmlns:v="https://vecta.io/nano"><defs><path id="A" d="M0 0h30v30H0z"/><path id="B" d="M18.073 11.58h-8.77c-.3 0-.542-.22-.542-.493s.243-.493.542-.493h8.77c.3 0 .542.22.542.493s-.243.493-.542.493z"/></defs><g fill="none" fill-rule="evenodd"><circle fill="#d3ccee" cx="16" cy="16" r="16"/><g transform="translate(9 1)"><mask id="C" fill="#fff"><use xlink:href="#A"/></mask><g mask="url(#C)"><g fill="#000" fill-rule="nonzero"><path d="M21.57 8.966c0-1.066-.848-1.93-1.895-1.93H6.688c-1.03 0-1.867.85-1.867 1.9v16.888c0 1.05.836 1.9 1.867 1.9h13.016c1.03 0 1.867-.85 1.867-1.9V8.966zm-1.405 1.788V25.2c0 .605-.482 1.095-1.075 1.095H7.3c-.594 0-1.075-.5-1.075-1.095V9.562c0-.605.482-1.095 1.075-1.095h11.765c.585 0 1.063.477 1.075 1.073l.024 1.214z"/><use xlink:href="#B"/><use xlink:href="#B" y="3.085"/><use xlink:href="#B" y="6.17"/><use xlink:href="#B" y="9.257"/><use xlink:href="#B" y="12.342"/><path d="M23.617 3.095H10.63c-1.03 0-1.867.85-1.867 1.9v.77h1.405V5.62c0-.605.482-1.095 1.075-1.095h11.765c.585 0 1.063.477 1.075 1.073l.024 1.214V21.26c0 .605-.482 1.095-1.075 1.095h-.492v1.43h1.105c1.03 0 1.867-.85 1.867-1.9V5.025c0-1.066-.848-1.93-1.895-1.93z"/></g><circle fill="#fff" cx="23.049" cy="20.091" r="4.926"/><g fill="#000" fill-rule="nonzero"><path d="M23.05 14.24c-3.227 0-5.85 2.623-5.85 5.85s2.623 5.85 5.85 5.85 5.85-2.623 5.85-5.85a5.82 5.82 0 0 0-1.045-3.335c-1.057-1.52-2.817-2.515-4.805-2.515zm0 10.64a4.8 4.8 0 0 1-4.791-4.791 4.8 4.8 0 0 1 4.791-4.791 4.791 4.791 0 1 1 0 9.582zm1.908-6.76l-2.488 2.82-1.355-1.355a.53.53 0 0 0-.751 0c-.2.2-.2.542 0 .74l1.75 1.75a.53.53 0 0 0 .37.16.56.56 0 0 0 .394-.172l2.845-3.24c.197-.222.172-.554-.05-.74-.197-.197-.53-.172-.714.037z"/></g></g></g></g></svg>