<svg width="40" height="40" viewBox="0 0 40 40" fill="none" xmlns="http://www.w3.org/2000/svg">
<path fill-rule="evenodd" clip-rule="evenodd" d="M26.8202 38.8036C30.6444 37.3977 33.9506 34.8608 36.3199 31.5489C38.7117 28.2009 39.9865 24.1094 40 19.9999L40 19.9954C39.9955 18.932 39.9054 17.8731 39.7432 16.8232C39.1306 12.8353 37.2298 9.08183 34.4506 6.16643C31.6804 3.26455 28.0138 1.2098 24.0815 0.407728C19.906 -0.44391 15.5638 0.0472437 11.6855 1.80009C8.05496 3.44028 4.96046 6.22501 2.89295 9.62706C0.739856 13.1643 -0.264619 17.3819 0.0596961 21.5095C0.384012 25.646 1.97406 29.5662 4.60912 32.7655C7.14958 35.8566 10.654 38.1367 14.4962 39.2362C18.5051 40.3807 22.9014 40.241 26.8202 38.8036ZM28.7166 19.4185C28.7211 19.4185 28.7211 19.423 28.7211 19.423C28.8157 19.6033 28.8607 19.8061 28.8562 20.0088C28.854 20.0314 28.8517 20.0529 28.8495 20.0743C28.8472 20.0957 28.845 20.117 28.8427 20.1395L28.8427 20.144C28.8157 20.4279 28.7031 20.7028 28.4959 20.91C28.4463 20.9641 28.3968 21.0137 28.3427 21.0587C27.6941 21.6941 27.05 22.3339 26.4059 22.9738C25.8608 23.5145 25.3147 24.0552 24.7685 24.596C24.2224 25.1367 23.6762 25.6774 23.1312 26.2181C23.0051 26.3421 22.8789 26.4671 22.7528 26.5921C22.6267 26.7172 22.5006 26.8422 22.3744 26.9661C21.8745 27.4663 20.9601 27.5069 20.4646 26.9661C19.9691 26.4299 19.9286 25.5873 20.4646 25.0556C20.8069 24.7177 21.1492 24.3786 21.4915 24.0396C21.8338 23.7005 22.1762 23.3614 22.5186 23.0234C23.0816 22.4691 23.6402 21.9149 24.1987 21.3606L12.4918 21.3606C11.7847 21.3606 11.109 20.7388 11.1405 20.0088C11.1721 19.2789 11.7351 18.657 12.4918 18.657L24.2393 18.657C23.2303 17.6612 22.2258 16.6654 21.2213 15.6695C21.0952 15.5456 20.9691 15.4206 20.843 15.2955C20.7168 15.1705 20.5907 15.0454 20.4646 14.9215C19.9601 14.4259 19.9286 13.5021 20.4646 13.011C21.0051 12.5153 21.8384 12.4793 22.3744 13.011C22.7167 13.3489 23.059 13.6879 23.4012 14.0269C23.7436 14.366 24.086 14.7052 24.4284 15.0432C24.9735 15.5839 25.5196 16.1246 26.0658 16.6654C26.6119 17.2061 27.1581 17.7468 27.7031 18.2875C27.8112 18.3957 27.9205 18.5038 28.0297 18.612C28.1389 18.7201 28.2482 18.8283 28.3563 18.9364C28.3666 18.9468 28.3774 18.9571 28.3884 18.9676C28.411 18.9891 28.4342 19.0113 28.4554 19.0355C28.4599 19.0423 28.4655 19.0479 28.4711 19.0536C28.4767 19.0592 28.4824 19.0648 28.4869 19.0716C28.5815 19.1707 28.6581 19.2924 28.7166 19.4185Z" fill="#113DCD"/>
</svg>
