<?xml version="1.0" encoding="UTF-8"?>
<svg width="83px" height="72px" viewBox="0 0 83 72" version="1.1" xmlns="http://www.w3.org/2000/svg" xmlns:xlink="http://www.w3.org/1999/xlink">
    <!-- Generator: sketchtool 64 (101010) - https://sketch.com -->
    <title>8BF04DAC-6729-4530-885D-DC900DF3F858</title>
    <desc>Created with sketchtool.</desc>
    <g id="Page-1" stroke="none" stroke-width="1" fill="none" fill-rule="evenodd">
        <g id="Editing-new-(Changes)" transform="translate(-140.000000, -8936.000000)">
            <g id="Group-131" transform="translate(100.000000, 8896.000000)">
                <g id="Group-109">
                    <g id="Group-128" transform="translate(40.000000, 40.000000)">
                        <circle id="Oval" fill="#D1C7E3" cx="36" cy="36" r="36"></circle>
                        <g id="noun_edit-book_2931802" transform="translate(30.000000, 9.000000)" fill="#000000" fill-rule="nonzero">
                            <path d="M0,0 L0,58 L9.78290274,58 L24.456642,58 L24.456642,56.0674382 L9.78290274,56.0674382 L9.78290274,1.93262252 L43.0442802,1.93280478 L43.0442802,29.0002126 L45,29.0002126 L45,0 L9.78290274,0 L0,0 L0,0 Z M15,9 L15,23 L38,23 L38,9 L15,9 Z M19,13 L33,13 L33,15 L19,15 L19,13 Z M19,17 L33,17 L33,19 L19,19 L19,17 L19,17 Z M49.3594508,33 C49.1195327,33 48.8802114,33.0913433 48.6969903,33.2740299 L46,35.9725373 L50.0308636,40 L52.7254666,37.3038806 C53.0913119,36.9391045 53.0913119,36.3456716 52.7266602,35.9814925 L50.0213146,33.2728358 C49.8392871,33.0913433 49.5987722,33 49.3594508,33 Z M44.900039,37 L35,46.8979654 L39.1011758,51 L49,41.0996052 L44.900039,37 L44.900039,37 Z M34.0905478,49 L33,53 L37,51.907594 L34.0905478,49 Z" id="Shape"></path>
                        </g>
                    </g>
                </g>
            </g>
        </g>
    </g>
</svg>