<svg width="85" height="97" viewBox="0 0 85 97" fill="none" xmlns="http://www.w3.org/2000/svg">
<path fill-rule="evenodd" clip-rule="evenodd" d="M82.185 96.9284H11.3347C5.42516 97.2409 0.367383 92.7335 0 86.8271V11.1137C0.367383 5.20725 5.42516 0.699864 11.3347 1.01239H76.5393C77.9958 0.967854 79.228 2.08023 79.3323 3.53363V16.1562H82.1687C82.9047 16.15 83.6177 16.4128 84.1737 16.8951C84.6948 17.3434 84.996 17.9955 84.9996 18.6828V94.4017C84.898 95.866 83.6517 96.9847 82.185 96.9284ZM5.6672 19.8565V86.8271C5.84802 89.7821 8.37825 92.0382 11.3346 91.8804H79.3321V21.2041H11.3346C9.36516 21.2119 7.42229 20.75 5.6672 19.8565ZM5.6672 11.1137C5.84802 8.15868 8.37825 5.90258 11.3346 6.06031H73.681V16.1616H11.3346C8.38025 16.3194 5.85088 14.0665 5.6672 11.1137Z" fill="black"/>
<path fill-rule="evenodd" clip-rule="evenodd" d="M17.4208 75.5254C17.9811 76.2936 18.8772 76.7447 19.8279 76.7372C20.1351 76.7375 20.4407 76.6935 20.7354 76.6068L37.7538 71.5806C38.1559 71.4564 38.5266 71.2469 38.8405 70.9666L67.1882 45.7052C67.7138 45.2613 68.017 44.6082 68.017 43.9202C68.017 43.2322 67.7138 42.5792 67.1882 42.1353L55.848 32.0394C54.6943 31.0558 52.9971 31.0558 51.8434 32.0394L23.5174 57.279C23.2058 57.5459 22.965 57.8856 22.8165 58.268L17.1491 73.4117C16.877 74.117 16.9792 74.9119 17.4208 75.5254ZM27.9788 60.4251L53.8433 37.3916L61.1734 43.9229L35.3089 66.9456L24.3165 70.2058L27.9788 60.4251Z" fill="#262626"/>
</svg>
