<svg xmlns="http://www.w3.org/2000/svg" width="16" height="18" fill="#113dcd" fill-rule="nonzero" xmlns:v="https://vecta.io/nano"><path d="M14.082 0c.288 0 .522.208.522.465v2.323h.522a.56.56 0 0 1 .37.136.44.44 0 0 1 .153.328v13.935c0 .257-.234.465-.522.465H2.086C.934 17.652 0 16.82 0 15.794V1.858C0 .832.934 0 2.086 0h11.996zM1.043 3.468v12.326c0 .513.467.93 1.043.93h12.517V3.716H2.086c-.38 0-.736-.1-1.043-.25zM13.56.93H2.086c-.576 0-1.043.416-1.043.93s.467.93 1.043.93H13.56V.93zM10.278 5.7l2.086 1.858a.43.43 0 0 1 0 .657L7.15 12.87c-.057.05-.127.1-.204.112l-3.13.93c-.408.12-.796-.224-.66-.588L4.2 10.537a.46.46 0 0 1 .126-.182L9.54 5.7a.57.57 0 0 1 .738 0zm-.37.985l-4.76 4.24-.674 1.802 2.023-.6 4.76-4.24-1.35-1.2z"/></svg>