<?xml version="1.0" encoding="UTF-8"?>
<svg width="12px" height="13px" viewBox="0 0 12 13" version="1.1" xmlns="http://www.w3.org/2000/svg" xmlns:xlink="http://www.w3.org/1999/xlink">
    <title>Budget</title>
    <g id="Page-1" stroke="none" stroke-width="1" fill="none" fill-rule="evenodd">
        <g id="ICONS---Form,-Web" transform="translate(-720.000000, -741.000000)" fill="#6882DA" fill-rule="nonzero">
            <g id="Group-17" transform="translate(697.000000, 741.000000)">
                <path d="M30.4999821,2.75001967 L31.6109261,1.0831459 C31.6457161,1.03098385 31.6739829,0.937737613 31.6739829,0.87502414 C31.6739829,0.693898931 31.5453588,0.542634147 31.3745288,0.507648033 L31.2989609,0.500025034 L26.7016971,0.500025034 C26.4946969,0.500025034 26.326698,0.668023901 26.326698,0.87502414 C26.326698,0.937737613 26.354942,1.03098385 26.3897548,1.0831459 L27.4999893,2.75001967 L30.4999821,2.75001967 Z M32.4277119,12.4999964 C33.8475541,12.4999964 34.9983234,11.4921863 34.9983234,10.2500018 C34.9983234,10.2328744 34.9986476,10.2110582 34.9990027,10.184786 L34.9991564,9.97554635 C34.9831728,8.98277967 34.6731509,5.87934629 30.4999821,3.50001788 L27.4999893,3.50001788 C23.2936957,5.89851674 23.0104814,8.99443232 23.0002651,9.9810939 L23.0006963,10.1435184 C23.0013195,10.1885796 23.0021057,10.2243174 23.0021057,10.2500018 C23.0021057,11.4921863 24.1531268,12.4999964 25.5727173,12.4999964 L32.4277119,12.4999964 Z M29.2043538,10.6240625 L28.7958465,10.6240625 C28.6843126,10.6240625 28.5930805,10.5335628 28.592165,10.422029 L28.592165,10.0116448 C28.3476282,9.99910212 27.9889484,9.87131769 27.7915611,9.72641295 C27.7483026,9.69320227 27.7132151,9.6219973 27.7132151,9.56747778 C27.7132151,9.51975603 27.7413675,9.4544562 27.7760888,9.42172618 L28.0770219,9.13905778 C28.1099808,9.10925744 28.1728087,9.08506469 28.2172575,9.08506469 C28.2527798,9.08506469 28.3054454,9.10126948 28.3348338,9.12125082 C28.417643,9.17252023 28.5639211,9.21451994 28.66131,9.21500059 L29.3780289,9.21500059 C29.543739,9.21500059 29.678962,9.06618198 29.678962,8.88172655 C29.678962,8.73032157 29.5870891,8.59905815 29.4544295,8.56133852 L28.3059947,8.22055716 C27.8316383,8.0799325 27.4999893,7.62992899 27.4999893,7.12508553 C27.4999893,6.5068085 27.9846683,6.00429963 28.588892,5.98672155 L28.588892,5.57704693 C28.5897846,5.46551307 28.6810396,5.37501341 28.7925506,5.37501341 L29.2022481,5.37501341 C29.3137819,5.37501341 29.4049225,5.46551307 29.4056778,5.57704693 L29.4056778,5.98836949 C29.650329,6.00079775 30.0091233,6.12858217 30.2065563,6.27360136 C30.2497233,6.30681203 30.284765,6.37797122 30.284765,6.43244497 C30.284765,6.48018961 30.256544,6.54553522 30.2217769,6.57828813 L29.9234301,6.86422953 C29.8904712,6.89396121 29.827712,6.91810818 29.7833319,6.91810818 C29.7477638,6.91810818 29.6950066,6.90183472 29.6656183,6.88180761 C29.5827632,6.83060686 29.4365081,6.78860715 29.3391191,6.78805783 L28.6228809,6.78805783 C28.4571708,6.78805783 28.3219478,6.93687645 28.3219478,7.121103 C28.3219478,7.27250797 28.4138207,7.4037485 28.5462285,7.44171991 L29.6946633,7.78250126 C30.1690427,7.92312593 30.5004399,8.37312943 30.5004399,8.87797289 C30.4971669,9.49673057 30.0101304,10.001574 29.4082641,10.0156273 L29.4082641,10.422029 C29.4075203,10.5149738 29.3440248,10.5933116 29.2583485,10.6168424 L29.2043538,10.6240625 Z" id="Budget"></path>
            </g>
        </g>
    </g>
</svg>