<svg width="74" height="74" viewBox="0 0 74 74" fill="none" xmlns="http://www.w3.org/2000/svg">
<g opacity="0.4" clip-path="url(#clip0_31_492)">
<path d="M20.3395 19.8525C19.6529 19.1658 18.5401 19.1661 17.8539 19.8524C17.1671 20.5389 17.1675 21.6518 17.8537 22.338C18.5398 23.0247 19.6531 23.0244 20.3393 22.3382C21.0261 21.6516 21.0257 20.5388 20.3395 19.8525Z" fill="white"/>
<path d="M64.607 27.8308L62.9091 27.3758L63.3641 25.6779C63.6155 24.7396 63.0598 23.7766 62.1211 23.525C61.1828 23.2736 60.2196 23.8297 59.9682 24.768L59.5133 26.4659L57.8153 26.011C56.8771 25.7596 55.9139 26.3156 55.6625 27.2539C55.4109 28.1926 55.9672 29.1554 56.9054 29.4068L58.6034 29.8618L58.1484 31.5597C57.897 32.4979 58.4531 33.4611 59.3914 33.7125C60.3301 33.9641 61.2928 33.4079 61.5442 32.4696L61.9992 30.7717L63.6971 31.2266C64.6354 31.478 65.5984 30.9224 65.85 29.9837C66.1014 29.0454 65.5453 28.0822 64.607 27.8308Z" fill="white"/>
<path d="M20.1591 10.3402C19.9076 11.2789 20.4634 12.2415 21.4021 12.4931C22.3404 12.7445 23.3034 12.1888 23.555 11.2501L24.0099 9.55218L25.7078 10.0071C26.6461 10.2585 27.6092 9.70289 27.8607 8.76417C28.1121 7.8259 27.556 6.86271 26.6178 6.6113L24.9198 6.15634L25.3748 4.45843C25.6262 3.52015 25.0701 2.55697 24.1318 2.30556C23.1931 2.05403 22.2304 2.61024 21.979 3.54852L21.524 5.24643L19.8261 4.79148C18.8878 4.54007 17.9246 5.09616 17.6732 6.03444C17.4217 6.97316 17.9779 7.9359 18.9162 8.18731L20.6141 8.64227L20.1591 10.3402Z" fill="white"/>
<path d="M32.308 7.89815C33.0578 11.5643 32.9991 15.374 32.2585 19.0417L49.4755 23.655C50.6675 20.1087 52.5215 16.7796 55.004 13.9795L55.554 13.3592C56.0558 12.7936 56.1395 11.9701 55.7608 11.3142C55.3838 10.6587 54.6288 10.3194 53.8864 10.4707L47.4259 11.7926L45.5733 8.58445C45.0878 7.74348 44.0133 7.45558 43.1723 7.94111L39.9643 9.79325L35.0304 5.41779C34.4612 4.91553 33.6435 4.83149 32.9853 5.2115C32.3294 5.58977 31.9902 6.34479 32.1418 7.08587L32.308 7.89815Z" fill="white"/>
<path d="M50.3227 27.6428L29.5312 22.0717L20.7519 28.3189C16.441 31.3883 13.2814 36.0101 11.9097 41.129C8.8696 52.475 15.5692 62.1271 28.9778 65.72C42.3869 69.3129 53.015 64.3037 56.0551 52.9578C57.4267 47.8388 56.971 42.3696 54.7706 37.5555L50.3227 27.6428ZM35.1957 42.4422C38.0047 43.1949 39.6772 46.0917 38.9245 48.9008C38.3341 51.1045 36.42 52.5883 34.2674 52.7707L33.8603 54.29C33.6089 55.2282 32.6462 55.7845 31.7074 55.5329C30.7692 55.2815 30.2135 54.3185 30.4649 53.3802L30.8689 51.8724C29.0742 50.6432 28.143 48.3881 28.737 46.1711C28.9886 45.2323 29.9516 44.6767 30.8899 44.9281C31.8286 45.1796 32.3844 46.1423 32.1329 47.081C31.8818 48.0179 32.4393 48.9829 33.3758 49.2338C34.3128 49.4849 35.2777 48.9278 35.5287 47.9909C35.7798 47.0539 35.2227 46.0891 34.2858 45.838C31.4771 45.0854 29.8043 42.188 30.5569 39.3794C31.151 37.1619 33.0849 35.675 35.2538 35.5078L35.9244 33.0052C36.1758 32.0669 37.1385 31.5107 38.0768 31.7621C39.0155 32.0136 39.5712 32.9767 39.3198 33.915L38.6461 36.4291C40.4191 37.6634 41.3349 39.9054 40.7444 42.1091C40.4928 43.0478 39.5302 43.6036 38.5915 43.3521C37.6532 43.1007 37.097 42.1379 37.3485 41.1992C37.5995 40.2627 37.0425 39.2974 36.1056 39.0463C35.1691 38.7954 34.2036 39.3528 33.9527 40.2893C33.7016 41.2263 34.2587 42.1911 35.1957 42.4422Z" fill="white"/>
</g>
<defs>
<clipPath id="clip0_31_492">
<rect width="60" height="60" fill="white" transform="translate(15.5293) rotate(15)"/>
</clipPath>
</defs>
</svg>
