<svg xmlns="http://www.w3.org/2000/svg" width="67" height="68" xmlns:v="https://vecta.io/nano"><path d="M3.862 44.926c.564 0 1.07.337 1.285.858C9.918 57.25 21.02 64.66 33.435 64.66h.022a1.39 1.39 0 0 1 .948.372l.018.018.033.032.004.004.006.007a1.21 1.21 0 0 1 .096.113c.018.022.033.045.05.067l.004.007.004.008-.004.006.007-.004.01.018.004.008.01.014.006.01.003.003a1.4 1.4 0 0 1 .194.703v.01a1.38 1.38 0 0 1-.397.967l-.018.02-.006.004a1.38 1.38 0 0 1-.966.397h-.006v-.001h-.02c-6.73-.001-13.22-1.994-18.763-5.762a33.64 33.64 0 0 1-7.112-6.51c-2.063-2.523-3.74-5.32-4.987-8.318-.295-.7.042-1.526.75-1.82a1.39 1.39 0 0 1 .535-.107zm35.843 19.12c.66 0 1.235.472 1.363 1.12.15.753-.34 1.488-1.094 1.637a1.39 1.39 0 0 1-.273.026c-.66 0-1.235-.472-1.363-1.12a1.39 1.39 0 0 1 .207-1.045 1.38 1.38 0 0 1 1.16-.618zm25.753-31.482c.766 0 1.4.622 1.392 1.388v.08a33.24 33.24 0 0 1-5.768 18.77 33.53 33.53 0 0 1-6.517 7.115 33.36 33.36 0 0 1-8.325 4.985 1.4 1.4 0 0 1-.533.106 1.39 1.39 0 0 1-1.286-.858 1.38 1.38 0 0 1 0-1.066c.14-.344.4-.6.752-.755a30.55 30.55 0 0 0 18.893-28.298v-.073c-.001-.767.62-1.394 1.388-1.395h.004zm-8.353.022c.766 0 1.4.624 1.392 1.4v.056a24.88 24.88 0 0 1-1.97 9.75c-.628 1.485-1.405 2.917-2.308 4.256a25.14 25.14 0 0 1-3.06 3.707 25.42 25.42 0 0 1-3.706 3.06 25.05 25.05 0 0 1-4.254 2.311 24.92 24.92 0 0 1-9.153 1.967l-.596.007c-.768 0-1.392-.625-1.392-1.392a1.38 1.38 0 0 1 .407-.984c.263-.263.613-.408.984-.408 12.276-.006 22.263-9.998 22.26-22.274v-.05a1.38 1.38 0 0 1 .405-.986c.263-.265.612-.4.984-.4h.003zM27.328 55.5a1.44 1.44 0 0 1 .359.047c.742.198 1.183.963.987 1.704-.163.6-.716 1.034-1.345 1.034a1.38 1.38 0 0 1-.36-.047c-.742-.198-1.185-.962-.987-1.704.163-.608.716-1.034 1.345-1.034zM12.926 20.83a1.38 1.38 0 0 1 1.345 1.032 1.38 1.38 0 0 1-.138 1.057 22.27 22.27 0 0 0-2.967 11.113c0 7.93 4.27 15.326 11.148 19.302h.003a1.4 1.4 0 0 1 .696 1.21 1.39 1.39 0 0 1-.187.692 1.4 1.4 0 0 1-1.059.688l-.147.008a1.39 1.39 0 0 1-.696-.187 25.19 25.19 0 0 1-9.081-9 24.89 24.89 0 0 1-2.555-6.014c-.6-2.172-.906-4.426-.906-6.7a25.14 25.14 0 0 1 .873-6.579 24.96 24.96 0 0 1 2.465-5.926 1.4 1.4 0 0 1 1.207-.696zm21.478-1.068v2.998c1.344.12 2.585.406 3.725.86a25.99 25.99 0 0 1 2.992 1.395l-2.168 4.037c-.06-.08-.244-.208-.55-.386s-.687-.37-1.145-.58-.967-.405-1.526-.594a9.38 9.38 0 0 0-1.694-.401v4.037l.977.238a26.59 26.59 0 0 1 2.809.905c.834.327 1.546.732 2.137 1.217a4.88 4.88 0 0 1 1.358 1.766c.316.693.473 1.524.473 2.494 0 1.128-.204 2.088-.6 2.88a5.4 5.4 0 0 1-1.633 1.944c-.68.504-1.466.886-2.35 1.143a11.71 11.71 0 0 1-2.793.445v3.443H32.28V44.13a18.54 18.54 0 0 1-4.167-.846c-1.374-.445-2.6-1.014-3.7-1.707l2.198-4.245c.08.1.305.263.672.5s.824.47 1.374.727 1.17.5 1.862.727a10.36 10.36 0 0 0 2.137.46v-3.948l-1.466-.416c-.997-.297-1.862-.618-2.595-.965s-1.343-.747-1.832-1.202a4.27 4.27 0 0 1-1.084-1.573c-.234-.594-.35-1.286-.35-2.078 0-1.03.183-1.944.55-2.746a6.4 6.4 0 0 1 1.48-2.063c.62-.573 1.353-1.024 2.198-1.35s1.755-.54 2.732-.638V19.77h2.137zM2.038 38.924a1.39 1.39 0 0 1 1.363 1.121c.072.365-.001.735-.207 1.044s-.52.52-.885.593a1.51 1.51 0 0 1-.273.026c-.66 0-1.235-.472-1.364-1.12a1.39 1.39 0 0 1 .207-1.046 1.38 1.38 0 0 1 .885-.592 1.4 1.4 0 0 1 .274-.026zm32-2.685v3.56c1.567-.06 2.35-.583 2.35-1.573a1.37 1.37 0 0 0-.64-1.202c-.426-.287-.997-.55-1.7-.787zM21.135 3.07c.564 0 1.07.337 1.285.858a1.39 1.39 0 0 1-.75 1.82A30.56 30.56 0 0 0 2.812 34.033v.036a1.38 1.38 0 0 1-.407.984 1.38 1.38 0 0 1-.984.409H1.42c-.767 0-1.4-.624-1.392-1.4v-.04C.03 27.305 2.02 20.82 5.784 15.278a33.57 33.57 0 0 1 6.505-7.112A33.36 33.36 0 0 1 20.6 3.178a1.39 1.39 0 0 1 .535-.107zm11.497 23.995c-1.425.12-2.137.693-2.137 1.722 0 .495.178.88.534 1.158s.9.534 1.603.772v-3.65zm23.66-.6a1.39 1.39 0 0 1 1.343 1.03c.2.74-.24 1.506-.98 1.707-.12.032-.242.047-.363.047-.626 0-1.18-.422-1.343-1.027v-.001c-.2-.742.24-1.508.98-1.707a1.4 1.4 0 0 1 .363-.049zm8.543-.143c.66 0 1.233.47 1.364 1.12.15.752-.34 1.487-1.093 1.637a1.4 1.4 0 0 1-.274.028c-.66 0-1.233-.47-1.363-1.12a1.38 1.38 0 0 1 1.091-1.638 1.4 1.4 0 0 1 .274-.026zM33.44 8.975a25.15 25.15 0 0 1 6.682.9 24.98 24.98 0 0 1 6.001 2.542 25.18 25.18 0 0 1 8.995 9.04c.386.664.16 1.517-.504 1.903a1.38 1.38 0 0 1-.697.188 1.4 1.4 0 0 1-1.206-.692C48.73 16.012 41.345 11.76 33.44 11.76c-3.93 0-7.8 1.036-11.166 2.996-.212.123-.454.188-.697.188a1.4 1.4 0 0 1-1.206-.693c-.12-.2-.187-.45-.188-.692a1.4 1.4 0 0 1 .693-1.211 25.03 25.03 0 0 1 5.95-2.49 25.09 25.09 0 0 1 6.611-.883h.001zm0-8.353c6.724.001 13.206 2 18.746 5.75a33.54 33.54 0 0 1 7.111 6.5 33.31 33.31 0 0 1 4.99 8.304 1.39 1.39 0 0 1-.748 1.82c-.172.07-.352.107-.536.107-.564 0-1.07-.336-1.285-.856A30.56 30.56 0 0 0 33.443 3.406h-.06c-.766 0-1.4-.624-1.392-1.4a1.38 1.38 0 0 1 .407-.986 1.39 1.39 0 0 1 .98-.41h.06zM16.683 15.928a1.38 1.38 0 0 1 .983.407c.263.262.408.6.4.983a1.39 1.39 0 0 1-1.254 1.388l-.138.007c-.372 0-.72-.145-.984-.407-.543-.543-.544-1.426-.001-1.968a1.38 1.38 0 0 1 .986-.409zM27.14 1.24c.66 0 1.235.47 1.364 1.12.15.752-.34 1.487-1.093 1.637a1.47 1.47 0 0 1-.273.026h-.001c-.66 0-1.235-.47-1.364-1.12-.072-.365.001-.736.207-1.045s.52-.52.885-.593a1.4 1.4 0 0 1 .274-.026z" fill="#a86c66"/></svg>