<svg width="20" height="20" viewBox="0 0 20 20" fill="none" xmlns="http://www.w3.org/2000/svg">
<mask id="path-1-inside-1_74_188" fill="white">
<path fill-rule="evenodd" clip-rule="evenodd" d="M5.33333 4H0V20H13.3333V14.6667H5.33333V4Z"/>
</mask>
<path d="M0 4V2.68H-1.32V4H0ZM5.33333 4H6.65333V2.68H5.33333V4ZM0 20H-1.32V21.32H0V20ZM13.3333 20V21.32H14.6533V20H13.3333ZM13.3333 14.6667H14.6533V13.3467H13.3333V14.6667ZM5.33333 14.6667H4.01333V15.9867H5.33333V14.6667ZM0 5.32H5.33333V2.68H0V5.32ZM1.32 20V4H-1.32V20H1.32ZM13.3333 18.68H0V21.32H13.3333V18.68ZM12.0133 14.6667V20H14.6533V14.6667H12.0133ZM13.3333 13.3467H5.33333V15.9867H13.3333V13.3467ZM6.65333 14.6667V4H4.01333V14.6667H6.65333Z" fill="white" mask="url(#path-1-inside-1_74_188)"/>
<rect x="4.66" y="0.66" width="14.68" height="14.68" stroke="white" stroke-width="1.32"/>
</svg>