<svg xmlns="http://www.w3.org/2000/svg" width="30" height="29" xmlns:v="https://vecta.io/nano"><path d="M8.503.085c.577 0 1.033.456 1.033 1.033h0v1.367h8.383V1.118c0-.577.456-1.033 1.033-1.033h1.55c.577 0 1.033.456 1.033 1.033h0v1.367h2.278a3.1 3.1 0 0 1 2.308 1.033h.03v.03c.486.547.8 1.245.8 2.035h0V17.64c1.488 1.063 2.46 2.825 2.46 4.8 0 3.28-2.673 5.953-5.953 5.953a5.94 5.94 0 0 1-5.255-3.159h0-14.55c-1.7 0-3.098-1.397-3.098-3.098h0V5.583c0-.8.304-1.488.8-2.035h0v-.03l.137-.143c.566-.553 1.33-.9 2.17-.9H5.92V1.118C5.92.54 6.377.085 6.954.085h0zM25.847 20.74c-.304-.304-.8-.273-1.093.03h0l-1.883 2.035-.9-.972c-.304-.304-.8-.334-1.093-.03s-.334.8-.03 1.093h0l1.458 1.58a.83.83 0 0 0 .577.243.83.83 0 0 0 .577-.243h0l2.46-2.643c.304-.304.273-.8-.06-1.093zM24.844 9.5H2.6v12.635c0 .577.456 1.033 1.033 1.033h13.9l-.06-.73c0-3.28 2.673-5.953 5.953-5.953.486 0 .942.06 1.397.182h0V9.5zm-9.84 7.867c.486 0 .9.425.9.9h0v1.55c0 .516-.425.9-.9.9h0-2.52c-.516 0-.9-.425-.9-.9h0v-1.55c0-.516.425-.9.9-.9h0zm-6.5 0c.486 0 .9.425.9.9h0v1.55c0 .516-.425.9-.9.9h0-2.52c-.516 0-.9-.425-.9-.9h0v-1.55c0-.516.425-.9.9-.9h0zm6.5-5.68c.486 0 .9.425.9.9h0v1.55c0 .516-.425.9-.9.9h0-2.52c-.516 0-.9-.425-.9-.9h0V12.6c0-.516.425-.9.9-.9h0zm-6.5 0c.486 0 .9.425.9.9h0v1.55c0 .516-.425.9-.9.9h0-2.52c-.516 0-.9-.425-.9-.9h0V12.6c0-.516.425-.9.9-.9h0zm13 0c.486 0 .9.425.9.9h0v1.55c0 .516-.425.9-.9.9h0-2.52c-.516 0-.9-.425-.9-.9h0V12.6c0-.516.425-.9.9-.9h0z" fill="#e4c764"/></svg>