<svg width="32" height="37" viewBox="0 0 32 37" fill="none" xmlns="http://www.w3.org/2000/svg">
<g clip-path="url(#clip0_118_428)">
<path d="M11.4286 2.97187V5.19375H20.5714V2.97187C20.5714 1.74498 21.5929 0.75 22.8571 0.75C24.1214 0.75 25.1429 1.74498 25.1429 2.97187V5.19375H28.5714C30.4643 5.19375 32 6.68588 32 8.52656V11.8594H0V8.52656C0 6.68588 1.535 5.19375 3.42857 5.19375H6.85714V2.97187C6.85714 1.74498 7.87857 0.75 9.14286 0.75C10.4071 0.75 11.4286 1.74498 11.4286 2.97187ZM0 14.0812H32V32.9672C32 34.8072 30.4643 36.3 28.5714 36.3H3.42857C1.535 36.3 0 34.8072 0 32.9672V14.0812ZM4.57143 21.8578C4.57143 22.4688 5.08286 22.9688 5.71429 22.9688H8C8.62857 22.9688 9.14286 22.4688 9.14286 21.8578V19.6359C9.14286 19.0249 8.62857 18.525 8 18.525H5.71429C5.08286 18.525 4.57143 19.0249 4.57143 19.6359V21.8578ZM13.7143 21.8578C13.7143 22.4688 14.2286 22.9688 14.8571 22.9688H17.1429C17.7714 22.9688 18.2857 22.4688 18.2857 21.8578V19.6359C18.2857 19.0249 17.7714 18.525 17.1429 18.525H14.8571C14.2286 18.525 13.7143 19.0249 13.7143 19.6359V21.8578ZM24 18.525C23.3714 18.525 22.8571 19.0249 22.8571 19.6359V21.8578C22.8571 22.4688 23.3714 22.9688 24 22.9688H26.2857C26.9143 22.9688 27.4286 22.4688 27.4286 21.8578V19.6359C27.4286 19.0249 26.9143 18.525 26.2857 18.525H24ZM4.57143 30.7453C4.57143 31.3563 5.08286 31.8562 5.71429 31.8562H8C8.62857 31.8562 9.14286 31.3563 9.14286 30.7453V28.5234C9.14286 27.9124 8.62857 27.4125 8 27.4125H5.71429C5.08286 27.4125 4.57143 27.9124 4.57143 28.5234V30.7453ZM14.8571 27.4125C14.2286 27.4125 13.7143 27.9124 13.7143 28.5234V30.7453C13.7143 31.3563 14.2286 31.8562 14.8571 31.8562H17.1429C17.7714 31.8562 18.2857 31.3563 18.2857 30.7453V28.5234C18.2857 27.9124 17.7714 27.4125 17.1429 27.4125H14.8571ZM22.8571 30.7453C22.8571 31.3563 23.3714 31.8562 24 31.8562H26.2857C26.9143 31.8562 27.4286 31.3563 27.4286 30.7453V28.5234C27.4286 27.9124 26.9143 27.4125 26.2857 27.4125H24C23.3714 27.4125 22.8571 27.9124 22.8571 28.5234V30.7453Z" fill="white"/>
</g>
<defs>
<clipPath id="clip0_118_428">
<rect width="32" height="35.55" fill="white" transform="translate(0 0.75)"/>
</clipPath>
</defs>
</svg>
