<svg xmlns="http://www.w3.org/2000/svg" xmlns:xlink="http://www.w3.org/1999/xlink" width="57" height="57" fill="none" xmlns:v="https://vecta.io/nano"><g clip-path="url(#A)"><g fill="#fff"><path d="M53.601 5.121c.002-.22-.039-.438-.123-.642a1.65 1.65 0 0 0-.362-.544 1.68 1.68 0 0 0-.545-.362c-.204-.084-.422-.125-.642-.123h-8.358v5.01a1.67 1.67 0 0 1-.49 1.181c-.313.313-.739.489-1.182.489s-.869-.176-1.182-.489a1.67 1.67 0 0 1-.49-1.181V3.45h-6.686v5.01a1.67 1.67 0 1 1-3.343 0V3.45h-6.686v5.01a1.67 1.67 0 1 1-3.343 0V3.45h-6.686v5.01a1.67 1.67 0 0 1-.49 1.181c-.314.313-.739.489-1.182.489s-.869-.176-1.182-.489a1.67 1.67 0 0 1-.489-1.181V3.45H1.672a1.64 1.64 0 0 0-.642.123c-.203.084-.389.206-.545.362s-.279.34-.362.544A1.65 1.65 0 0 0 0 5.121v8.35h53.601v-8.35zM25.185 33.51h.401a18.45 18.45 0 0 1 2.142-3.34h-2.543a1.67 1.67 0 1 1 0-3.34h3.343a1.67 1.67 0 0 1 1.528 1.002A18.31 18.31 0 0 1 41.9 23.49h-3.343a1.67 1.67 0 1 1 0-3.34H41.9a1.67 1.67 0 1 1 0 3.34c4.273-.004 8.412 1.486 11.701 4.211v-10.89H0V48.54a1.67 1.67 0 0 0 .49 1.181c.313.313.739.489 1.182.489h23.871a18.23 18.23 0 0 1-2.029-8.35c0-1.838.334-3.59.836-5.266a1.65 1.65 0 0 1-.608-.595 1.64 1.64 0 0 1-.228-.819 1.67 1.67 0 0 1 1.671-1.67zm0-13.359h3.343a1.67 1.67 0 1 1 0 3.34h-3.343a1.67 1.67 0 1 1 0-3.34zm-10.03 23.378h-3.343a1.67 1.67 0 1 1 .001-3.34h3.343a1.67 1.67 0 1 1 0 3.34zm0-6.68h-3.343a1.67 1.67 0 1 1 .001-3.34h3.343a1.67 1.67 0 1 1 0 3.34zm0-6.68h-3.343a1.67 1.67 0 1 1 .001-3.34h3.343a1.67 1.67 0 1 1 0 3.34zm0-6.68h-3.343a1.67 1.67 0 1 1 .001-3.34h3.343a1.67 1.67 0 1 1 0 3.34z"/><path d="M13.484 1.67a1.67 1.67 0 0 0-.49-1.181C12.681.176 12.256 0 11.812 0s-.869.176-1.182.489a1.67 1.67 0 0 0-.49 1.181v1.781h3.343V1.67z"/><use xlink:href="#B"/><path d="M33.543 1.67a1.67 1.67 0 0 0-.49-1.181 1.67 1.67 0 0 0-2.364 0 1.67 1.67 0 0 0-.49 1.181v1.781h3.343V1.67zm10.029 0A1.67 1.67 0 0 0 41.9 0c-.443 0-.869.176-1.182.489a1.67 1.67 0 0 0-.49 1.181v1.781h3.343V1.67z"/></g><path d="M41.956 26.941c-8.295 0-15.044 6.742-15.044 15.029S33.661 57 41.956 57 57 50.258 57 41.971s-6.749-15.029-15.044-15.029zm7.12 5.86L44.031 43.12h2.779c.118 0 .232.047.315.13s.13.197.13.315v1.447c.002.06-.008.12-.031.175s-.057.105-.1.147c-.085.081-.198.126-.315.125h-3.154v1.188h3.155c.118.002.23.049.313.132a.45.45 0 0 1 .132.313v1.447a.42.42 0 0 1-.031.174c-.023.055-.057.105-.1.146-.084.082-.198.127-.315.126h-3.154v2.368a.45.45 0 0 1-.132.313c-.083.083-.196.131-.313.132h-2.405c-.058.001-.116-.01-.17-.031s-.103-.054-.144-.095-.078-.091-.101-.146-.034-.115-.032-.175v-2.368H37.23c-.117.001-.23-.044-.314-.126-.044-.041-.078-.091-.101-.147s-.034-.115-.032-.175v-1.436c.002-.117.05-.229.133-.312s.195-.131.313-.133h3.128v-1.192H37.23c-.117.001-.23-.043-.314-.125-.044-.041-.078-.091-.101-.147s-.034-.115-.032-.175v-1.447a.45.45 0 0 1 .133-.313c.083-.083.196-.131.313-.132h2.766L34.839 32.82c-.037-.069-.056-.145-.056-.223s.019-.154.056-.223.097-.125.165-.164.147-.059.226-.058h2.71c.084-.001.167.022.239.066s.13.108.166.184l3.003 5.932a34.71 34.71 0 0 1 .78 1.745c.094-.223.236-.539.427-.95l.383-.851 2.669-5.861c.03-.082.085-.152.158-.2s.159-.071.246-.065h2.669c.077 0 .153.02.219.059s.121.096.158.163a.42.42 0 0 1 .018.427z" fill="#4beba8"/></g><defs><clipPath id="A"><path fill="#fff" d="M0 0h57v57H0z"/></clipPath><path id="B" d="M23.513 1.67a1.67 1.67 0 0 0-.49-1.181 1.67 1.67 0 0 0-2.364 0 1.67 1.67 0 0 0-.49 1.181v1.781h3.343V1.67z"/></defs></svg>