<svg xmlns="http://www.w3.org/2000/svg" width="48" height="48" viewBox="0 0 48 48">
  <g id="calendar-icon" transform="translate(-527 -161)">
    <rect id="Rectangle_46" data-name="Rectangle 46" width="48" height="48" transform="translate(527 161)" fill="none"/>
    <path id="Union_3" data-name="Union 3" d="M-16036.881-385a3.12,3.12,0,0,1-3.119-3.116v-2.125a.82.82,0,0,1,.822-.818h2.216a6.722,6.722,0,0,1-2.343-5.1,6.734,6.734,0,0,1,6.728-6.724,6.732,6.732,0,0,1,6.725,6.724,6.707,6.707,0,0,1-2.345,5.1h8.2a.819.819,0,0,1,.818.818.823.823,0,0,1-.818.822h-18.362v1.3a1.481,1.481,0,0,0,1.479,1.475h33.017a3.116,3.116,0,0,1-.372-1.479v-1.3h-8.723a.82.82,0,0,1-.818-.822.817.817,0,0,1,.818-.818h9.541a.82.82,0,0,1,.822.818v2.121a1.479,1.479,0,0,0,1.476,1.479,1.483,1.483,0,0,0,1.479-1.479V-419.29a2.465,2.465,0,0,0-2.464-2.459h-3.911v1.026a2.461,2.461,0,0,1-2.459,2.459,2.461,2.461,0,0,1-2.459-2.459v-1.026h-13.782v1.026a2.461,2.461,0,0,1-2.459,2.459,2.465,2.465,0,0,1-2.463-2.459v-1.057a.815.815,0,0,1-.22.031h-3.266a2.465,2.465,0,0,0-2.463,2.459v2.709h29.57a.82.82,0,0,1,.822.818.823.823,0,0,1-.822.822h-29.57v9.625a.819.819,0,0,1-.818.818.823.823,0,0,1-.822-.818V-419.29a4.107,4.107,0,0,1,4.1-4.1h3.266a.815.815,0,0,1,.22.031v-1.18a2.468,2.468,0,0,1,2.463-2.463,2.464,2.464,0,0,1,2.459,2.463v1.149h13.782v-1.149a2.464,2.464,0,0,1,2.459-2.463,2.464,2.464,0,0,1,2.459,2.463v1.149h3.911a4.107,4.107,0,0,1,4.1,4.1v31.169a3.123,3.123,0,0,1-3.12,3.12Zm-.783-11.158a5.093,5.093,0,0,0,5.087,5.087,5.09,5.09,0,0,0,5.083-5.087,5.089,5.089,0,0,0-5.083-5.083A5.092,5.092,0,0,0-16037.664-396.16Zm28.371-28.379v3.815a.819.819,0,0,0,.818.818.823.823,0,0,0,.822-.818v-3.815a.823.823,0,0,0-.822-.822A.819.819,0,0,0-16009.293-424.539Zm-18.7,0v3.815a.823.823,0,0,0,.822.818.819.819,0,0,0,.818-.818v-3.815a.82.82,0,0,0-.818-.822A.823.823,0,0,0-16028-424.539Zm11.335,34.876a.829.829,0,0,1-.242-.58.829.829,0,0,1,.242-.58.823.823,0,0,1,.58-.238.823.823,0,0,1,.58.238.825.825,0,0,1,.238.58.825.825,0,0,1-.238.58.827.827,0,0,1-.58.242A.827.827,0,0,1-16016.662-389.663Zm-17.406-4.084-1.49-1.491a.817.817,0,0,1,0-1.16.816.816,0,0,1,1.16,0l.911.911,2.67-2.67a.824.824,0,0,1,1.161,0,.817.817,0,0,1,0,1.16l-3.252,3.251a.818.818,0,0,1-.579.242A.829.829,0,0,1-16034.068-393.747Zm24.821-5.2a3.122,3.122,0,0,1,3.116-3.12,3.121,3.121,0,0,1,3.116,3.12,3.12,3.12,0,0,1-3.116,3.116A3.121,3.121,0,0,1-16009.247-398.946Zm1.641,0a1.479,1.479,0,0,0,1.476,1.475,1.478,1.478,0,0,0,1.476-1.475,1.479,1.479,0,0,0-1.476-1.479A1.48,1.48,0,0,0-16007.606-398.946Zm-9.3,0a3.122,3.122,0,0,1,3.12-3.12,3.12,3.12,0,0,1,3.115,3.12,3.12,3.12,0,0,1-3.115,3.116A3.121,3.121,0,0,1-16016.9-398.946Zm1.641,0a1.481,1.481,0,0,0,1.479,1.475,1.478,1.478,0,0,0,1.476-1.475,1.479,1.479,0,0,0-1.476-1.479A1.482,1.482,0,0,0-16015.264-398.946Zm-9.294,0a3.12,3.12,0,0,1,3.115-3.12,3.123,3.123,0,0,1,3.12,3.12,3.122,3.122,0,0,1-3.12,3.116A3.12,3.12,0,0,1-16024.558-398.946Zm1.641,0a1.478,1.478,0,0,0,1.475,1.475,1.481,1.481,0,0,0,1.479-1.475,1.482,1.482,0,0,0-1.479-1.479A1.478,1.478,0,0,0-16022.917-398.946Zm13.67-8.534a3.121,3.121,0,0,1,3.116-3.116,3.12,3.12,0,0,1,3.116,3.116,3.121,3.121,0,0,1-3.116,3.12A3.122,3.122,0,0,1-16009.247-407.479Zm1.641,0a1.48,1.48,0,0,0,1.476,1.479,1.479,1.479,0,0,0,1.476-1.479,1.476,1.476,0,0,0-1.476-1.475A1.477,1.477,0,0,0-16007.606-407.479Zm-9.3,0a3.121,3.121,0,0,1,3.12-3.116,3.12,3.12,0,0,1,3.115,3.116,3.12,3.12,0,0,1-3.115,3.12A3.122,3.122,0,0,1-16016.9-407.479Zm1.641,0a1.482,1.482,0,0,0,1.479,1.479,1.479,1.479,0,0,0,1.476-1.479,1.476,1.476,0,0,0-1.476-1.475A1.479,1.479,0,0,0-16015.264-407.479Zm-9.294,0a3.12,3.12,0,0,1,3.115-3.116,3.122,3.122,0,0,1,3.12,3.116,3.123,3.123,0,0,1-3.12,3.12A3.12,3.12,0,0,1-16024.558-407.479Zm1.641,0a1.478,1.478,0,0,0,1.475,1.479,1.482,1.482,0,0,0,1.479-1.479,1.479,1.479,0,0,0-1.479-1.475A1.475,1.475,0,0,0-16022.917-407.479Zm-9.3,0a3.121,3.121,0,0,1,3.119-3.116,3.121,3.121,0,0,1,3.117,3.116,3.122,3.122,0,0,1-3.117,3.12A3.122,3.122,0,0,1-16032.216-407.479Zm1.641,0A1.482,1.482,0,0,0-16029.1-406a1.481,1.481,0,0,0,1.476-1.479,1.478,1.478,0,0,0-1.476-1.475A1.479,1.479,0,0,0-16030.575-407.479Zm27.83-7.7a.822.822,0,0,1-.239-.58.822.822,0,0,1,.239-.58.839.839,0,0,1,.579-.238.842.842,0,0,1,.581.238.829.829,0,0,1,.242.58.829.829,0,0,1-.242.58.829.829,0,0,1-.581.242A.826.826,0,0,1-16002.745-415.183Z" transform="translate(16570 590.002)" fill="#96abec"/>
  </g>
</svg>
