<?xml version="1.0" encoding="UTF-8"?>
<svg width="14px" height="14px" viewBox="0 0 14 14" version="1.1" xmlns="http://www.w3.org/2000/svg" xmlns:xlink="http://www.w3.org/1999/xlink">
    <title>icon-1</title>
    <g id="Korea" stroke="none" stroke-width="1" fill="none" fill-rule="evenodd" opacity="0.400000006">
        <g id="Payments-Page-Korea" transform="translate(-609.000000, -2304.000000)" fill="#000000" fill-rule="nonzero">
            <g id="call" transform="translate(404.000000, 2212.000000)">
                <g id="Group-24" transform="translate(205.000000, 89.000000)">
                    <g id="Group-6" transform="translate(0.239384, 0.148148)">
                        <path d="M5.32363775,9.83969576 C4.96119831,9.49938495 4.72203711,9.08749556 4.67614788,8.69376525 C4.6391365,8.31205 4.75664153,7.91331242 5.30438207,7.43021364 C5.485689,7.27029515 5.72270486,7.07322051 5.8400878,6.72825273 C5.95747074,6.38327465 5.87877359,5.98513465 5.66280991,5.58991212 C5.06065113,4.85524596 4.51015481,4.02382747 3.96698401,3.4043097 C3.59430626,3.03738616 3.05577497,2.92503849 2.65658577,3.04763768 C2.27966968,3.16231727 1.98903789,3.41558808 1.74701625,3.64715384 C0.382618372,4.99042515 -0.189662696,6.37235859 0.055062416,7.76413141 C0.299787529,9.15590596 1.27219965,10.4650262 2.73367828,11.9038753 C3.31169768,12.4729597 3.9472574,13.098673 4.46032374,13.6037894 C5.92178493,15.0426385 7.25149118,16 8.66516199,16.2409324 C10.0788154,16.4818636 11.4824746,15.918439 12.8468725,14.5751677 C13.0820744,14.3369015 13.3393401,14.0507675 13.4558161,13.6796832 C13.5803501,13.2866776 13.4662811,12.7564871 13.0935336,12.3895653 C12.4642704,11.8548002 11.6197934,11.3128299 10.8735659,10.7200073 C10.4721267,10.5073716 10.0677224,10.4298945 9.7173352,10.5454688 C9.36693056,10.6610327 9.16676911,10.8943826 9.00433414,11.0728843 C8.51362811,11.6121381 8.10863081,11.7278205 7.72090084,11.6913804 C7.32097909,11.6462068 6.90256909,11.4107911 6.55696093,11.0539182 L5.32363775,9.83969576 Z M3.21543669,4.12146071 L4.74553114,6.09077333 C4.86359431,6.31564384 4.85291996,6.38079505 4.84573396,6.4019197 C4.83823401,6.42414505 4.77499025,6.51158172 4.60676463,6.65994707 C3.87687996,7.30371131 3.56655645,8.08094273 3.63553854,8.79242192 C3.70415437,9.50018172 4.09797151,10.1025827 4.58365432,10.5682299 C5.03424433,11.0118423 5.37905017,11.3513255 5.81696005,11.782454 C6.2898755,12.2606692 6.90180165,12.648331 7.62069802,12.7158811 C8.34336181,12.7837987 9.13281003,12.4782812 9.78670102,11.7596861 C9.93739769,11.5940683 10.0262111,11.531874 10.0487807,11.5244181 C10.0702515,11.5173433 10.1364254,11.5068291 10.3648251,11.6230782 L12.3651141,13.1294877 C12.5078922,13.2724869 12.4882004,13.2757804 12.4576076,13.3723301 C12.4259857,13.4721562 12.2872192,13.6635727 12.106889,13.846637 C11.3077606,14.6363917 9.9844904,15.5231941 8.84631194,15.2278114 C7.7989352,15.0493097 6.59793158,14.2512559 5.20030718,12.875257 C4.62227034,12.3061742 3.98672806,11.6804609 3.47366172,11.1753445 C2.07601987,9.79934909 1.26541481,8.61694242 1.08410788,7.58578939 C0.784092439,6.4652198 1.68483643,5.16243253 2.48699969,4.37569141 C2.67299845,4.19822687 2.86738669,4.06154 2.96877555,4.03039737 C3.05035058,4.00400273 3.11948966,4.00741303 3.21543669,4.12146071 L3.21543669,4.12146071 Z" id="icon-1"></path>
                    </g>
                </g>
            </g>
        </g>
    </g>
</svg>