<svg xmlns="http://www.w3.org/2000/svg" width="40" height="32" fill-rule="evenodd" xmlns:v="https://vecta.io/nano"><circle cx="16" cy="16" r="16" fill="#ffdc68" opacity=".5"/><path d="M23.524 17.846c-.567-.54-.94-1.195-1.012-1.82-.058-.606.126-1.24.982-2.007.283-.254.654-.567.838-1.115s.06-1.18-.277-1.808l-2.652-3.47c-.583-.583-1.425-.76-2.05-.566-.6.182-1.044.584-1.422.952-2.133 2.133-3.028 4.328-2.646 6.54s1.903 4.3 4.188 6.575l2.7 2.7c2.285 2.285 4.364 3.806 6.575 4.188s4.405-.512 6.54-2.646c.368-.378.77-.833.952-1.422.195-.624.016-1.466-.566-2.05-.984-.85-2.304-1.7-3.47-2.652-.628-.338-1.26-.46-1.808-.277s-.86.554-1.115.838c-.767.856-1.4 1.04-2.007.982-.625-.072-1.28-.446-1.82-1.012l-1.928-1.928zm-3.296-9.082l2.393 3.128c.185.357.168.46.157.494s-.1.174-.374.4c-1.14 1.022-1.627 2.257-1.52 3.387.107 1.124.723 2.08 1.483 2.82l1.928 1.928c.74.76 1.696 1.375 2.82 1.483 1.13.108 2.364-.377 3.387-1.52.236-.263.375-.362.4-.374s.137-.028.494.157l3.128 2.393c.223.227.192.232.145.386-.05.16-.266.463-.548.753-1.25 1.254-3.32 2.663-5.098 2.194-1.638-.284-3.516-1.55-5.7-3.736l-2.7-2.7c-2.185-2.185-3.453-4.063-3.736-5.7-.47-1.78.94-3.85 2.194-5.098.3-.282.595-.5.753-.548.128-.042.236-.037.386.145h0zM33.473 4.1a.82.82 0 0 0-.818.818.82.82 0 0 0 .818.818h2.932L29.62 12.52a.82.82 0 0 0 0 1.159.82.82 0 0 0 1.159 0l6.784-6.784v2.932a.82.82 0 0 0 .818.818.82.82 0 0 0 .818-.818v-4.9a.82.82 0 0 0-.818-.818h-4.9z" fill-rule="nonzero"/></svg>