<?xml version="1.0" encoding="UTF-8"?>
<svg width="78px" height="64px" viewBox="0 0 78 64" version="1.1" xmlns="http://www.w3.org/2000/svg" xmlns:xlink="http://www.w3.org/1999/xlink">
    <title>Group 17</title>
    <g id="Explorations" stroke="none" stroke-width="1" fill="none" fill-rule="evenodd">
        <g id="Topfold-pes-changes-" transform="translate(-582.000000, -2963.000000)">
            <g id="Group-17" transform="translate(582.000000, 2963.000000)">
                <path d="M31.8,63.6 C49.362655,63.6 63.6,49.362655 63.6,31.8 C63.6,29.4528949 63.3457191,27.1651803 62.8632028,24.9629017 C59.7352003,10.6862166 47.0155499,0 31.8,0 C14.237345,0 0,14.237345 0,31.8 C0,49.362655 14.237345,63.6 31.8,63.6 Z" id="Oval-Copy-18" fill="#EFD0CE"></path>
                <path d="M64.3124349,37.7499315 C69.86001,37.7430002 74.3679796,33.2350306 74.3749109,27.6874554 L74.3749109,26.2499589 C74.3749109,16.7373358 66.6375751,9 57.124952,9 C47.612329,9 39.8749931,16.7373358 39.8749931,26.2499589 L39.8749931,27.6874554 C39.8749931,28.4809564 40.5189888,29.124952 41.3124897,29.124952 C42.1059906,29.124952 42.7499863,28.4809564 42.7499863,27.6874554 L42.7499863,26.2499589 C42.7499863,18.3239867 49.1989799,11.8749931 57.124952,11.8749931 C65.0509242,11.8749931 71.4999177,18.3239867 71.4999177,26.2499589 L71.4999177,27.6874554 C71.4954431,31.6504854 68.2754648,34.8704637 64.3124349,34.8749383 L61.4374417,34.8749383 C61.4374417,33.2879365 60.1494504,31.9999452 58.5624486,31.9999452 L55.6874554,31.9999452 C54.1004536,31.9999452 52.8124623,33.2879365 52.8124623,34.8749383 C52.8124623,36.4619401 54.1004536,37.7499315 55.6874554,37.7499315 L64.3124349,37.7499315 Z M49.9688793,35.1866708 C49.9635273,35.0815609 49.9374692,34.9818907 49.9374692,34.8749383 C49.9429089,34.0211615 50.3023708,32.7331702 50.7397439,31.9999452 C49.5013244,30.6425532 48.4961999,28.0496372 48.4961999,26.2121439 C48.4961999,21.4719322 52.3432404,17.6248917 57.083452,17.6248917 C57.0948579,17.6248917 57.1134584,17.6248917 57.124952,17.6249794 C57.1355683,17.6248917 57.1526772,17.6248917 57.1632934,17.6248917 C61.9028909,17.6248917 65.7495805,21.4715813 65.7495805,26.2112665 C65.7495805,28.0398983 64.752791,30.6236019 63.5245492,31.9783617 C63.5245492,31.9864335 63.5362183,31.9918733 63.5406929,31.9999452 L64.3124349,31.9999452 C65.6281513,31.9970498 67.2602504,31.0881737 67.9555727,29.9712711 C68.355394,28.7979531 68.6249246,27.5598846 68.6249246,26.2499589 C68.6249246,19.9019515 63.4729593,14.7499863 57.124952,14.7499863 C50.7769447,14.7499863 45.6249794,19.9019515 45.6249794,26.2499589 C45.6249794,29.8814276 47.3409559,33.0780676 49.9688793,35.1866708 Z M74.3749109,54.9998903 C75.9619127,54.9998903 77.249904,53.711899 77.249904,52.1248972 C77.249904,45.7768899 72.0979388,40.6249246 65.7499315,40.6249246 L65.3276493,40.6249246 C64.2351379,40.6249246 63.1714044,40.8855059 62.1382038,41.2358431 C60.7917791,41.6926062 58.5449888,42.0632986 57.1231973,42.0632986 C55.701318,42.0632986 53.4545277,41.6926062 52.108103,41.2358431 C51.0766571,40.8855059 50.0156436,40.6266794 48.925852,40.6266794 L48.4999726,40.6266794 C42.1530181,40.6266794 37.0009651,45.7779427 37,52.1248972 C37,53.711899 38.2879913,54.9998903 39.8749931,54.9998903 L74.3749109,54.9998903 Z M39.8749931,52.1248972 C39.8799065,47.3688927 43.7439681,43.5048311 48.4999726,43.4999177 L48.925852,43.4999177 C49.5475622,43.4999177 50.2663105,43.6454748 51.1863294,43.9572073 C52.7802625,44.4977601 55.4400348,44.9365369 57.1231973,44.9365369 C58.806272,44.9365369 61.4660443,44.4977601 63.0599774,43.9572073 C63.9863134,43.6436323 64.7068164,43.498163 65.3276493,43.498163 L65.7499315,43.498163 C70.5059359,43.5030763 74.3699976,47.3670502 74.3749109,52.1231424 L39.8749931,52.1248972 Z" id="uuser-headset" fill="#000000" fill-rule="nonzero"></path>
            </g>
        </g>
    </g>
</svg>