<?xml version="1.0" encoding="utf-8"?>
<svg width="30px" height="24px" viewBox="0 0 30 24" version="1.1" xmlns:xlink="http://www.w3.org/1999/xlink" xmlns="http://www.w3.org/2000/svg">
  <g id="Group-4">
    <path d="M12 24C18.6274 24 24 18.6274 24 12C24 5.37258 18.6274 0 12 0C5.37258 0 0 5.37258 0 12C0 18.6274 5.37258 24 12 24Z" id="Oval" fill="#113DCD" fill-opacity="0.14901961" fill-rule="evenodd" stroke="none" />
    <path d="M28.1246 22C18.1209 22 10 13.8947 10 3.87539C10 3.43789 10.3008 3.05899 10.7265 2.96133L14.7889 2.02385C15.2304 1.92231 15.6835 2.15279 15.8631 2.56682L17.7381 6.94173C17.9022 7.32453 17.7928 7.77374 17.4686 8.03546L15.1014 9.9729C16.5077 12.9689 18.9647 15.4611 22.0232 16.8946L23.9607 14.5275C24.2263 14.2033 24.6716 14.0939 25.0544 14.258L29.4293 16.1329C29.8472 16.3165 30.0777 16.7696 29.9762 17.2111L29.0387 21.2735C28.941 21.6953 28.566 22 28.1246 22Z" id="pphone" fill="#113DCD" fill-rule="evenodd" stroke="none" />
  </g>
</svg>