<svg xmlns="http://www.w3.org/2000/svg" width="36" height="27" xmlns:v="https://vecta.io/nano"><path d="M33.16 0C34.716 0 36 1.308 36 2.903v21.194C36 25.692 34.716 27 33.16 27H7.7c-1.558 0-2.84-1.3-2.84-2.903v-4.65H.818c-.107 0-.214-.022-.313-.064a.82.82 0 0 1-.265-.181.84.84 0 0 1-.177-.271.87.87 0 0 1-.062-.32V14.3c0-.1.02-.22.062-.32a.84.84 0 0 1 .177-.271.82.82 0 0 1 .265-.181c.1-.042.206-.064.313-.064h4.054V8.847c0-1.593 1.28-2.903 2.84-2.903h2.46V.836c0-.1.02-.22.062-.32a.84.84 0 0 1 .177-.271.82.82 0 0 1 .265-.181c.1-.042.206-.064.313-.064h22.17zm0 7.617H7.7c-.668 0-1.203.547-1.203 1.23v4.618h4.05c.107 0 .214.022.313.064a.82.82 0 0 1 .265.181.84.84 0 0 1 .177.271.87.87 0 0 1 .062.32v4.308c0 .1-.02.22-.062.32a.84.84 0 0 1-.177.271.82.82 0 0 1-.265.181c-.1.042-.206.064-.313.064H6.5v4.65c0 .683.535 1.23 1.203 1.23h25.45c.662 0 1.203-.55 1.203-1.23V8.847c0-.68-.54-1.23-1.203-1.23zm-1.065 8.245a.81.81 0 0 1 .313.065.82.82 0 0 1 .265.182.84.84 0 0 1 .177.272c.04.1.062.2.06.32.03 2.644.292 4.317-.207 5.692a2.5 2.5 0 0 1-1.552 1.503c-.724.236-1.562.242-2.67.15-.108-.008-.214-.037-.3-.086s-.184-.12-.254-.202a.83.83 0 0 1-.158-.287.86.86 0 0 1-.037-.327.94.94 0 0 1 .09-.317c.05-.1.12-.186.202-.257s.18-.125.283-.157.213-.044.32-.033c1.017.085 1.7.037 2.04-.076s.4-.177.514-.5c.227-.626.136-2.38.105-5.1-.003-.112.016-.224.056-.327a.84.84 0 0 1 .177-.279.82.82 0 0 1 .269-.187.78.78 0 0 1 .32-.065h0zM9.74 15.138H1.636v2.635H9.74v-2.635zM33.16 1.673H11.806v4.27H33.16c.43 0 .837.1 1.203.277V2.903c0-.68-.54-1.23-1.203-1.23z" fill="#fff" fill-rule="evenodd"/></svg>