<svg xmlns="http://www.w3.org/2000/svg" width="48" height="36" xmlns:v="https://vecta.io/nano"><path d="M44.215 0C46.288 0 48 1.744 48 3.87v28.26c0 2.127-1.712 3.87-3.785 3.87H10.282c-2.077 0-3.785-1.747-3.785-3.87v-6.202H1.09a1.07 1.07 0 0 1-.417-.085C.54 25.787.42 25.704.32 25.6a1.12 1.12 0 0 1-.236-.362A1.14 1.14 0 0 1 0 24.812v-5.744a1.14 1.14 0 0 1 .083-.427 1.12 1.12 0 0 1 .236-.362c.1-.103.222-.186.354-.242s.275-.085.417-.085h5.406v-6.157c0-2.124 1.708-3.87 3.785-3.87h3.278v-6.8a1.14 1.14 0 0 1 .083-.427 1.12 1.12 0 0 1 .236-.362c.1-.103.222-.186.354-.242S14.508 0 14.65 0h29.564zm0 10.156H10.282c-.9 0-1.604.73-1.604 1.64v6.157h5.4c.143 0 .285.03.417.085s.253.14.354.242a1.12 1.12 0 0 1 .237.362 1.14 1.14 0 0 1 .083.427v5.744a1.14 1.14 0 0 1-.083.427 1.12 1.12 0 0 1-.237.362c-.1.103-.222.186-.354.242s-.275.085-.417.085h-5.4v6.202c0 .9.714 1.64 1.604 1.64h33.933c.882 0 1.604-.732 1.604-1.64V11.795c0-.907-.72-1.64-1.604-1.64zm-1.42 10.994c.143 0 .285.03.417.086s.252.14.353.243a1.12 1.12 0 0 1 .235.362 1.14 1.14 0 0 1 .082.427c.04 3.525.39 5.756-.276 7.59a3.33 3.33 0 0 1-2.07 2.004c-.966.314-2.083.323-3.558.2-.144-.01-.286-.05-.414-.115a1.1 1.1 0 0 1-.339-.27c-.094-.112-.166-.243-.21-.383s-.062-.29-.05-.436a1.14 1.14 0 0 1 .119-.422c.066-.13.158-.248.27-.342s.24-.166.377-.2a1.07 1.07 0 0 1 .427-.045c1.355.113 2.255.05 2.718-.1s.534-.236.686-.653c.302-.834.18-3.174.14-6.787a1.14 1.14 0 0 1 .075-.437 1.12 1.12 0 0 1 .235-.372c.102-.106.224-.192.36-.25s.28-.087.425-.087zm-29.807-.966H2.182v3.514h10.806v-3.514zM44.215 2.23H15.742v5.694h28.473a3.67 3.67 0 0 1 1.604.37V3.87c0-.907-.72-1.64-1.604-1.64z" fill="#96abec" fill-rule="evenodd"/></svg>