<svg xmlns="http://www.w3.org/2000/svg" width="40" height="32" fill-rule="evenodd" xmlns:v="https://vecta.io/nano"><circle cx="16" cy="16" r="16" fill="#ae9fe1" opacity=".5"/><path d="M31.03 23.658a.71.71 0 0 1 .7.709h0v3.08l.814-.624a.72.72 0 0 1 .871 0h0l.814.624v-3.04a.71.71 0 1 1 1.429 0h0v4.484a.71.71 0 0 1-.395.634.72.72 0 0 1-.748-.067h0l-1.53-1.17-1.53 1.17a.72.72 0 0 1-.748.067.71.71 0 0 1-.395-.634h0v-4.524a.71.71 0 0 1 .714-.709zM36.026 2.4c1.752.002 3.173 1.4 3.174 3.15h0v1.656a.71.71 0 0 1-.703.709h0-2.286a.71.71 0 0 1-.714-.709.71.71 0 0 1 .714-.709h1.56V5.55c-.002-.95-.774-1.724-1.73-1.733h0l-.15.007a1.74 1.74 0 0 0-1.595 1.726h0v3.846a.71.71 0 1 1-1.429 0h0V5.554a3.09 3.09 0 0 1 .523-1.727h0l-15.697.037c-.902.003-1.633.73-1.634 1.625h0v16.86h12.13a.71.71 0 0 1 .714.709.71.71 0 0 1-.714.709h0-15.56v1.055a1.63 1.63 0 0 0 1.634 1.625H28.2a.71.71 0 0 1 .714.709.71.71 0 0 1-.714.709h0-13.926a3.06 3.06 0 0 1-3.063-3.043h0v-1.764a.71.71 0 0 1 .714-.709h2.714V5.5c0-1.675 1.362-3.035 3.05-3.046h0zm-3.05 9.128c.736 0 1.434.33 1.9.896a.98.98 0 0 0 .806.36 2.42 2.42 0 0 1 1.966.908 2.21 2.21 0 0 1 .411 1.963.82.82 0 0 0 .186.749 2.21 2.21 0 0 1 .517 1.985 2.29 2.29 0 0 1-1.366 1.61.9.9 0 0 0-.54.627c-.152.695-.62 1.28-1.266 1.585a2.47 2.47 0 0 1-2.16 0 1.05 1.05 0 0 0-.909 0c-.68.332-1.48.332-2.16 0a2.3 2.3 0 0 1-1.266-1.585.9.9 0 0 0-.54-.627 2.3 2.3 0 0 1-1.363-1.6 2.21 2.21 0 0 1 .517-1.985.82.82 0 0 0 .186-.76 2.21 2.21 0 0 1 .411-1.963 2.42 2.42 0 0 1 1.966-.908c.3.01.608-.123.806-.36.465-.567 1.162-.896 1.9-.896zm-.006 1.43c-.302 0-.588.132-.78.362-.48.582-1.2.913-1.957.896a.99.99 0 0 0-.81.366c-.16.2-.216.46-.15.706a2.23 2.23 0 0 1-.494 2.062h0a.8.8 0 0 0-.194.74c.068.28.268.5.537.618a2.32 2.32 0 0 1 1.37 1.637.89.89 0 0 0 .494.607 1.04 1.04 0 0 0 .91 0 2.5 2.5 0 0 1 2.157 0 1.04 1.04 0 0 0 .91 0c.25-.115.433-.34.494-.607.163-.734.674-1.344 1.37-1.637a.89.89 0 0 0 .537-.618.8.8 0 0 0-.194-.726 2.23 2.23 0 0 1-.494-2.062c.068-.25.01-.52-.154-.72a.99.99 0 0 0-.81-.37 2.46 2.46 0 0 1-1.957-.893h0l-.088-.092c-.187-.172-.434-.27-.693-.27zm-8.967 4.9a.71.71 0 0 1 .714.709.71.71 0 0 1-.714.709h0-4.614a.71.71 0 0 1-.714-.709.71.71 0 0 1 .714-.709h0zm.55-3.577a.71.71 0 0 1 .714.709.71.71 0 0 1-.714.709h0-5.18a.71.71 0 0 1-.714-.709.71.71 0 0 1 .714-.709h0zm2.26-3.58a.71.71 0 0 1 .714.709.71.71 0 0 1-.714.709h0-7.43a.71.71 0 0 1-.714-.709.71.71 0 0 1 .714-.709h0zm2.714-3.577a.71.71 0 0 1 .714.709.71.71 0 0 1-.714.709h0H19.37a.71.71 0 0 1-.714-.709.71.71 0 0 1 .714-.709h0z" fill-rule="nonzero"/></svg>