<svg xmlns="http://www.w3.org/2000/svg" xmlns:xlink="http://www.w3.org/1999/xlink" width="62" height="56" xmlns:v="https://vecta.io/nano"><defs><path id="A" d="M0 0h64v64H0z"/></defs><g transform="translate(-1 -4)" fill="none" fill-rule="evenodd"><mask id="B" fill="#fff"><use xlink:href="#A"/></mask><g mask="url(#B)"><circle fill="#50caae" opacity=".5" cx="29" cy="32" r="28"/><path d="M49.687 41.988c.62.012 1.12.522 1.12 1.147h0v4.983l1.3-1a1.14 1.14 0 0 1 1.393 0h0l1.3 1V43.2c0-.633.5-1.147 1.14-1.147s1.14.514 1.14 1.147h0v7.254a1.15 1.15 0 0 1-.631 1.026 1.14 1.14 0 0 1-1.195-.108h0l-2.443-1.9-2.443 1.9c-.346.26-.8.303-1.195.108a1.15 1.15 0 0 1-.631-1.026h0v-7.318c0-.633.5-1.147 1.14-1.147zM57.673 7.6c2.8.003 5.07 2.283 5.073 5.097h0v2.68c0 .626-.5 1.137-1.123 1.147h0-3.653c-.63 0-1.14-.514-1.14-1.147s.5-1.147 1.14-1.147h2.493v-1.532a2.8 2.8 0 0 0-2.767-2.803h0l-.17.005a2.81 2.81 0 0 0-2.62 2.798h0v6.22c0 .633-.5 1.147-1.14 1.147s-1.14-.514-1.14-1.147h0V12.7c-.001-.994.3-1.966.836-2.794h0l-25.085.06c-1.442.005-2.6 1.18-2.612 2.63h0V39.87H45.15c.63 0 1.14.514 1.14 1.147s-.5 1.147-1.14 1.147h0-24.866v1.707c0 1.45 1.17 2.626 2.612 2.63H45.15c.63 0 1.14.514 1.14 1.147s-.5 1.147-1.14 1.147h0-22.254c-2.703-.005-4.892-2.207-4.895-4.923h0v-2.854c0-.633.5-1.147 1.14-1.147h4.338V12.596c0-2.7 2.176-4.9 4.872-4.928h0zM52.8 22.365c1.177 0 2.3.532 3.034 1.45a1.56 1.56 0 0 0 1.288.583 3.85 3.85 0 0 1 3.141 1.468c.7.893.953 2.072.657 3.175a1.34 1.34 0 0 0 .297 1.211 3.6 3.6 0 0 1 .826 3.212c-.264 1.173-1.077 2.144-2.182 2.606-.434.178-.756.556-.863 1.014a3.71 3.71 0 0 1-2.023 2.565 3.9 3.9 0 0 1-3.452 0 1.66 1.66 0 0 0-1.452 0c-1.088.538-2.363.538-3.452 0a3.71 3.71 0 0 1-2.023-2.565c-.107-.458-.43-.836-.863-1.014-1.098-.46-1.9-1.423-2.178-2.588a3.61 3.61 0 0 1 .826-3.212 1.34 1.34 0 0 0 .297-1.23c-.296-1.103-.052-2.282.657-3.175a3.84 3.84 0 0 1 3.141-1.468 1.6 1.6 0 0 0 1.288-.583c.743-.917 1.857-1.45 3.034-1.45zm-.01 2.314a1.63 1.63 0 0 0-1.25.585 3.92 3.92 0 0 1-3.128 1.45 1.56 1.56 0 0 0-1.292.592c-.255.32-.344.745-.242 1.142.3 1.175.013 2.427-.8 3.336h0a1.3 1.3 0 0 0-.31 1.197 1.44 1.44 0 0 0 .858 1 3.75 3.75 0 0 1 2.192 2.647 1.45 1.45 0 0 0 .8.982 1.64 1.64 0 0 0 1.452 0 3.95 3.95 0 0 1 3.447 0 1.64 1.64 0 0 0 1.452 0 1.43 1.43 0 0 0 .79-.982 3.75 3.75 0 0 1 2.192-2.647 1.44 1.44 0 0 0 .858-1 1.31 1.31 0 0 0-.31-1.175 3.67 3.67 0 0 1-.8-3.336c.1-.406.017-.84-.247-1.165a1.56 1.56 0 0 0-1.297-.596 3.92 3.92 0 0 1-3.128-1.445h0l-.1-.118c-.303-.298-.712-.467-1.14-.467zm-14.33 7.926c.63 0 1.14.514 1.14 1.147s-.5 1.148-1.14 1.148h0-7.374c-.63 0-1.14-.514-1.14-1.147s.5-1.147 1.14-1.147h0zm.877-5.786c.63 0 1.14.514 1.14 1.147s-.5 1.147-1.14 1.147h0-8.278c-.63 0-1.14-.514-1.14-1.147s.5-1.147 1.14-1.147h0zm3.612-5.8c.63 0 1.14.514 1.14 1.147s-.5 1.147-1.14 1.147h0-11.87c-.63 0-1.14-.514-1.14-1.147s.5-1.147 1.14-1.147h0zm4.338-5.786c.63 0 1.14.514 1.14 1.147s-.5 1.147-1.14 1.147h0H31.06c-.63 0-1.14-.514-1.14-1.147s.5-1.147 1.14-1.147h0z" fill="#000" fill-rule="nonzero"/></g></g></svg>