<?xml version="1.0" encoding="UTF-8"?>
<svg width="37px" height="34px" viewBox="0 0 37 34" version="1.1" xmlns="http://www.w3.org/2000/svg" xmlns:xlink="http://www.w3.org/1999/xlink">
    <title>B360F047-B5C6-4768-A8D2-7220D85C3188</title>
    <g id="top-nav-with-services" stroke="none" stroke-width="1" fill="none" fill-rule="evenodd">
        <g id="Japan-Top-nav-_-help-" transform="translate(-519.000000, -540.000000)">
            <g id="Group-4" transform="translate(519.000000, 540.250000)">
                <g id="email-round-icon" fill="#CFA6A1" opacity="0.5">
                    <circle id="Oval" cx="16.2" cy="16" r="16"></circle>
                </g>
                <g id="noun_FAQ_170995" transform="translate(13.000000, 5.400000)" fill="#000000" fill-rule="nonzero">
                    <path d="M23.92,5.72 C23.92,2.76 21.52,0.36 18.56,0.36 L5.44,0.36 C2.48,0.36 0.08,2.76 0.08,5.72 L0.08,16.16 C0.08,18.8 2,21 4.52,21.44 L4.52,25.96 C4.52,26.28 4.72,26.6 5,26.76 C5.12,26.84 5.28,26.84 5.4,26.84 C5.6,26.84 5.76,26.8 5.92,26.68 L8.6,24.72 C11.52,22.6 14.96,21.48 18.56,21.48 C21.52,21.48 23.92,19.08 23.92,16.12 L23.92,5.72 L23.92,5.72 Z M22.16,16.16 C22.16,18.12 20.56,19.72 18.6,19.72 C14.64,19.72 10.84,20.96 7.6,23.28 L6.32,24.2 L6.32,20.6 C6.32,20.12 5.92,19.72 5.44,19.72 C3.48,19.72 1.88,18.12 1.88,16.16 L1.88,5.72 C1.88,3.76 3.48,2.16 5.44,2.16 L18.6,2.16 C20.56,2.16 22.16,3.76 22.16,5.72 L22.16,16.16 Z" id="Shape"></path>
                    <path d="M12,4.964 C10.224,4.964 8.496,6.116 8.496,8.324 C8.496,8.9 8.976,9.38 9.552,9.38 C10.128,9.38 10.608,8.9 10.608,8.324 C10.608,7.172 11.856,7.124 12,7.124 C12.144,7.124 13.392,7.172 13.392,8.324 L13.392,8.564 C13.392,9.044 13.152,9.428 12.72,9.668 L11.76,10.196 C11.232,10.484 10.944,11.012 10.944,11.588 L10.944,12.452 C10.944,13.028 11.424,13.508 12,13.508 C12.576,13.508 13.056,13.028 13.056,12.452 L13.056,11.924 L13.728,11.588 C14.832,11.012 15.504,9.86 15.504,8.612 L15.504,8.324 C15.504,6.116 13.728,4.964 12,4.964 Z" id="Path"></path>
                    <path d="M12,14.708 C10.272,14.708 10.272,17.396 12,17.396 C13.728,17.396 13.728,14.708 12,14.708 Z" id="Path"></path>
                </g>
            </g>
        </g>
    </g>
</svg>