<svg width="40" height="32" viewBox="0 0 40 32" fill="none" xmlns="http://www.w3.org/2000/svg">
<g opacity="0.5">
<path opacity="0.5" d="M16.2 32C25.0366 32 32.2 24.8366 32.2 16C32.2 7.16344 25.0366 0 16.2 0C7.36346 0 0.200012 7.16344 0.200012 16C0.200012 24.8366 7.36346 32 16.2 32Z" fill="#CFA6A1"/>
</g>
<path d="M37.84 8.36C37.84 5.4 35.44 3 32.48 3H19.36C16.4 3 14 5.4 14 8.36V18.8C14 21.44 15.92 23.64 18.44 24.08V28.6C18.44 28.92 18.64 29.24 18.92 29.4C19.04 29.48 19.2 29.48 19.32 29.48C19.52 29.48 19.68 29.44 19.84 29.32L22.52 27.36C25.44 25.24 28.88 24.12 32.48 24.12C35.44 24.12 37.84 21.72 37.84 18.76V8.36ZM36.08 18.8C36.08 20.76 34.48 22.36 32.52 22.36C28.56 22.36 24.76 23.6 21.52 25.92L20.24 26.84V23.24C20.24 22.76 19.84 22.36 19.36 22.36C17.4 22.36 15.8 20.76 15.8 18.8V8.36C15.8 6.4 17.4 4.8 19.36 4.8H32.52C34.48 4.8 36.08 6.4 36.08 8.36V18.8Z" fill="black"/>
<path d="M25.92 7.604C24.144 7.604 22.416 8.756 22.416 10.964C22.416 11.54 22.896 12.02 23.472 12.02C24.048 12.02 24.528 11.54 24.528 10.964C24.528 9.812 25.776 9.764 25.92 9.764C26.064 9.764 27.312 9.812 27.312 10.964V11.204C27.312 11.684 27.072 12.068 26.64 12.308L25.68 12.836C25.152 13.124 24.864 13.652 24.864 14.228V15.092C24.864 15.668 25.344 16.148 25.92 16.148C26.496 16.148 26.976 15.668 26.976 15.092V14.564L27.648 14.228C28.752 13.652 29.424 12.5 29.424 11.252V10.964C29.424 8.756 27.648 7.604 25.92 7.604Z" fill="black"/>
<path d="M25.92 17.348C24.192 17.348 24.192 20.036 25.92 20.036C27.648 20.036 27.648 17.348 25.92 17.348Z" fill="black"/>
</svg>
