<svg xmlns="http://www.w3.org/2000/svg" xmlns:xlink="http://www.w3.org/1999/xlink" width="63" height="58" xmlns:v="https://vecta.io/nano"><defs><path id="A" d="M0 0h64v64H0z"/></defs><g transform="translate(-1 -3)" fill="none" fill-rule="evenodd"><mask id="B" fill="#fff"><use xlink:href="#A"/></mask><g mask="url(#B)"><circle fill="#ae9fe1" opacity=".5" cx="29" cy="33" r="28"/><path d="M46.35 23.6c.236.235.33.517.33.846s-.142.6-.33.846c-.236.235-.52.33-.85.33s-.614-.14-.85-.33c-.236-.235-.33-.517-.33-.846s.142-.6.33-.846c.473-.423 1.276-.423 1.702 0zm0-11.846a3.93 3.93 0 0 0-3.214.752c-.898.752-1.418 1.786-1.418 2.962 0 .658.52 1.175 1.182 1.175s1.182-.517 1.182-1.175a1.4 1.4 0 0 1 .567-1.128c.33-.282.804-.376 1.276-.282a1.42 1.42 0 0 1 1.087 1.081c.142.564-.095 1.128-.52 1.504-1.323 1.034-2.08 2.538-2.08 4.1 0 .658.52 1.175 1.182 1.175s1.182-.517 1.182-1.175c0-.846.425-1.645 1.182-2.2a3.68 3.68 0 0 0 1.37-3.808c-.33-1.504-1.513-2.68-2.978-2.962zm16.97 6.863c0 3.338-1.23 6.628-3.498 9.308.473.893 1.087 1.645 1.9 2.162a1.65 1.65 0 0 1 .709 1.739 1.55 1.55 0 0 1-1.371 1.269 10.39 10.39 0 0 1-1.702.141c-1.75 0-3.356-.376-4.82-1.08a19.79 19.79 0 0 1-9.028 2.162c-9.83 0-17.772-7.004-17.772-15.654S35.714 3 45.498 3c9.83-.047 17.82 7.004 17.82 15.607zm-2.363 0c0-7.333-6.9-13.303-15.4-13.303s-15.4 5.97-15.4 13.303 6.9 13.303 15.4 13.303c3.025 0 5.908-.752 8.46-2.162a1.31 1.31 0 0 1 1.182 0c1.087.658 2.363 1.034 3.83 1.08-.7-.752-1.23-1.645-1.654-2.726a1.27 1.27 0 0 1 .236-1.222c2.174-2.35 3.356-5.218 3.356-8.273zM19.17 43.192c-.567.376-.804.987-.662 1.645.142.6.662 1.08 1.323 1.175 1.182.14 3.3.235 5.436-.8C27.537 46.4 30.136 47 32.783 47c6.617 0 12.336-3.714 14.322-9.26.236-.6-.095-1.27-.7-1.504s-1.276.094-1.513.705c-1.607 4.56-6.57 7.7-12.1 7.7-2.458 0-4.868-.6-6.948-1.786a1.31 1.31 0 0 0-1.182 0c-.85.517-1.796.752-2.6.846.473-.564.804-1.222 1.087-1.974a1.27 1.27 0 0 0-.236-1.222c-1.843-1.88-2.8-4.23-2.8-6.722 0-3.573 2.032-6.9 5.483-8.98.567-.33.756-1.034.425-1.598a1.17 1.17 0 0 0-1.607-.423c-4.16 2.444-6.617 6.58-6.617 11 0 2.773.993 5.547 2.883 7.803-.425.658-.898 1.222-1.513 1.598z" fill="#000" fill-rule="nonzero"/></g></g></svg>