<svg xmlns="http://www.w3.org/2000/svg" width="38" height="32" fill-rule="evenodd" xmlns:v="https://vecta.io/nano"><circle cx="16.2" cy="16" r="16" fill="#ae9fe1" opacity=".5"/><path d="M25.292 19.4c.166.167.233.367.233.6a.96.96 0 0 1-.233.6c-.166.167-.366.233-.598.233s-.432-.1-.598-.233c-.166-.167-.233-.367-.233-.6a.96.96 0 0 1 .233-.6c.332-.3.897-.3 1.196 0zm0-8.4c-.798-.167-1.628.033-2.26.533-.63.533-.997 1.267-.997 2.1 0 .467.366.833.83.833s.83-.367.83-.833c0-.3.133-.6.4-.8.233-.2.565-.267.897-.2a1 1 0 0 1 .764.767c.1.4-.066.8-.366 1.067-.93.733-1.462 1.8-1.462 2.9 0 .467.366.833.83.833s.83-.367.83-.833c0-.6.3-1.167.83-1.567.83-.633 1.196-1.667.964-2.7-.233-1.067-1.063-1.9-2.093-2.1zm11.93 4.867c0 2.367-.864 4.7-2.46 6.6.332.633.764 1.167 1.33 1.533.4.267.598.733.498 1.233s-.465.833-.964.9a7.22 7.22 0 0 1-1.196.1 7.67 7.67 0 0 1-3.39-.767A13.73 13.73 0 0 1 24.694 27C17.783 27 12.2 22.033 12.2 15.9S17.816 4.8 24.694 4.8c6.912-.033 12.528 4.967 12.528 11.067zm-1.66 0c0-5.2-4.852-9.433-10.833-9.433s-10.833 4.233-10.833 9.433 4.85 9.433 10.832 9.433a12.16 12.16 0 0 0 5.948-1.533.91.91 0 0 1 .831 0c.764.467 1.66.733 2.692.767-.498-.533-.864-1.167-1.163-1.933-.1-.3-.033-.633.166-.867 1.53-1.667 2.36-3.7 2.36-5.867z" fill-rule="nonzero"/></svg>