<?xml version="1.0" encoding="UTF-8"?>
<svg width="15px" height="13px" viewBox="0 0 15 13" version="1.1" xmlns="http://www.w3.org/2000/svg" xmlns:xlink="http://www.w3.org/1999/xlink">
    <title>75196492-B3F8-4366-B2FB-9FAC79FB50D1</title>
    <g id="Korea" stroke="none" stroke-width="1" fill="none" fill-rule="evenodd" opacity="0.5">
        <g id="Payments-Page-Korea" transform="translate(-942.000000, -2305.000000)" fill="#000000" fill-rule="nonzero">
            <g id="call" transform="translate(404.000000, 2212.000000)">
                <g id="Group-25" transform="translate(538.000000, 91.000000)">
                    <g id="Group-3" transform="translate(0.000000, 2.000000)">
                        <path d="M7.74049641,8.54961566 C7.83872606,8.64721181 7.87801792,8.76432718 7.87801792,8.90096179 C7.87801792,9.0375964 7.81908013,9.15471178 7.74049641,9.25230792 C7.64226676,9.34990407 7.52439118,9.38894253 7.38686967,9.38894253 C7.24934816,9.38894253 7.13147258,9.33038484 7.03324293,9.25230792 C6.93501328,9.15471178 6.89572142,9.0375964 6.89572142,8.90096179 C6.89572142,8.76432718 6.95465921,8.64721181 7.03324293,8.54961566 C7.22970223,8.37394259 7.56368304,8.37394259 7.74049641,8.54961566 Z M7.74049641,3.63076981 C7.26899409,3.53317366 6.77784584,3.65028904 6.40457317,3.94307748 C6.0313005,4.25538515 5.81519527,4.6848082 5.81519527,5.17278894 C5.81519527,5.44605816 6.0313005,5.66076968 6.30634352,5.66076968 C6.58138654,5.66076968 6.79749177,5.44605816 6.79749177,5.17278894 C6.79749177,4.99711588 6.87607549,4.82144281 7.03324293,4.70432743 C7.17076444,4.58721206 7.36722374,4.5481736 7.56368304,4.58721206 C7.77978827,4.62625052 7.97624757,4.82144281 8.01553943,5.03615434 C8.07447722,5.27038509 7.97624757,5.50461585 7.7994342,5.66076968 C7.24934816,6.09019273 6.93501328,6.71480808 6.93501328,7.35894265 C6.93501328,7.63221187 7.15111851,7.84692339 7.42616153,7.84692339 C7.70120455,7.84692339 7.91730978,7.63221187 7.91730978,7.35894265 C7.91730978,7.00759652 8.09412315,6.67576962 8.40845803,6.44153887 C8.89960627,6.0706735 9.1157115,5.46557739 8.97818999,4.86048127 C8.84066848,4.23586592 8.34952024,3.74788518 7.74049641,3.63076981 Z M14.7933853,6.48057732 C14.7933853,7.86644262 14.2825911,9.23278869 13.3395864,10.3453848 C13.5360457,10.7162501 13.7914428,11.0285578 14.1254236,11.2432693 C14.3611748,11.3994232 14.4790504,11.6726924 14.4201126,11.9654808 C14.3611748,12.2582693 14.1450696,12.4534616 13.8503806,12.4925 C13.6146295,12.5315385 13.3788783,12.5510577 13.1431271,12.5510577 C12.4162277,12.5510577 11.7482661,12.3949039 11.1392423,12.1021154 C9.99977835,12.6876923 8.72279291,13 7.38686967,13 C3.30051623,13 0,10.0916348 0,6.50009607 C0,2.90855831 3.32016216,9.60740078e-05 7.38686967,9.60740078e-05 C11.4732231,-0.019326122 14.7933853,2.90855831 14.7933853,6.48057732 Z M13.8110888,6.48057732 C13.8110888,3.43557751 10.942783,0.956635356 7.4065156,0.956635356 C3.8702482,0.956635356 1.00194243,3.43557751 1.00194243,6.48057732 C1.00194243,9.52557714 3.8702482,12.0045193 7.4065156,12.0045193 C8.66385512,12.0045193 9.86225684,11.6922116 10.9231371,11.1066347 C11.0803045,11.0285578 11.2571179,11.0285578 11.4142853,11.1066347 C11.8661417,11.3799039 12.3965818,11.5360578 13.0056056,11.555577 C12.7109167,11.2432693 12.4948115,10.872404 12.3179981,10.4234617 C12.2590603,10.2477886 12.2983522,10.0525963 12.4162277,9.91596173 C13.3199405,8.94000025 13.8110888,7.74932725 13.8110888,6.48057732 Z" id="Shape"></path>
                    </g>
                </g>
            </g>
        </g>
    </g>
</svg>