<?xml version="1.0" encoding="UTF-8"?>
<svg width="16px" height="14px" viewBox="0 0 16 14" version="1.1" xmlns="http://www.w3.org/2000/svg" xmlns:xlink="http://www.w3.org/1999/xlink">
    <title>BD19C499-FD75-4E8B-A28A-2B502E778D57</title>
    <g id="Page-1" stroke="none" stroke-width="1" fill="none" fill-rule="evenodd">
        <g id="china-contact-us" transform="translate(-1122.000000, -287.000000)" fill="#6882DA" fill-rule="nonzero">
            <g id="Group-8" transform="translate(806.000000, 118.000000)">
                <g id="comment-lines-solid" transform="translate(316.000000, 169.000000)">
                    <path d="M8,0 C3.58125,0 0,2.909375 0,6.5 C0,8.05 0.66875,9.46875 1.78125,10.584375 C1.390625,12.159375 0.084375,13.5625 0.06875,13.578125 C0,13.65 -0.01875,13.75625 0.021875,13.85 C0.0625,13.94375 0.15,14 0.25,14 C2.321875,14 3.875,13.00625 4.64375,12.39375 C5.665625,12.778125 6.8,13 8,13 C12.41875,13 16,10.090625 16,6.5 C16,2.909375 12.41875,0 8,0 Z M9,8.25 C9,8.3875 8.8875,8.5 8.75,8.5 L4.25,8.5 C4.1125,8.5 4,8.3875 4,8.25 L4,7.75 C4,7.6125 4.1125,7.5 4.25,7.5 L8.75,7.5 C8.8875,7.5 9,7.6125 9,7.75 L9,8.25 Z M12,5.25 C12,5.3875 11.8875,5.5 11.75,5.5 L4.25,5.5 C4.1125,5.5 4,5.3875 4,5.25 L4,4.75 C4,4.6125 4.1125,4.5 4.25,4.5 L11.75,4.5 C11.8875,4.5 12,4.6125 12,4.75 L12,5.25 Z" id="Shape"></path>
                </g>
            </g>
        </g>
    </g>
</svg>