<svg width="66" height="66" viewBox="0 0 66 66" fill="none" xmlns="http://www.w3.org/2000/svg">
<path d="M31.4273 43.8023C30.0223 45.2074 27.7277 45.2074 26.3227 43.8023L18.0727 35.5523C16.6676 34.1473 16.6676 31.8527 18.0727 30.4477C19.4777 29.0426 21.7723 29.0426 23.1773 30.4477L28.875 36.1453L42.8227 22.1977C44.2277 20.7926 46.5223 20.7926 47.9273 22.1977C49.3324 23.6027 49.3324 25.8973 47.9273 27.3023L31.4273 43.8023ZM66 33C66 51.2273 51.2273 66 33 66C14.7727 66 0 51.2273 0 33C0 14.7727 14.7727 0 33 0C51.2273 0 66 14.7727 66 33ZM33 6.1875C18.1887 6.1875 6.1875 18.1887 6.1875 33C6.1875 47.8113 18.1887 59.8125 33 59.8125C47.8113 59.8125 59.8125 47.8113 59.8125 33C59.8125 18.1887 47.8113 6.1875 33 6.1875Z" fill="#1F9071"/>
</svg>
