<svg width="63" height="58" viewBox="0 0 63 58" fill="none" xmlns="http://www.w3.org/2000/svg">
<circle cx="29" cy="29" r="29" fill="#F7D98B"/>
<path d="M26.4721 20.2498C25.7986 19.4135 25.903 18.1952 26.7092 17.4858C27.5153 16.7764 28.7371 16.8277 29.4809 17.6021L32.7705 21.3731L40.5933 13.4901C41.1021 12.9813 41.8437 12.7826 42.5388 12.9688C43.2338 13.1551 43.7767 13.6979 43.9629 14.393C44.1491 15.088 43.9504 15.8296 43.4416 16.3384L34.1144 25.7258C33.9881 25.8177 33.8538 25.8983 33.7132 25.9665C33.6541 26.0182 33.5861 26.059 33.5127 26.0868C33.2838 26.1816 33.0382 26.2294 32.7906 26.2273C32.5204 26.2551 32.2475 26.2278 31.9882 26.147L31.7475 25.9866C31.6023 25.9187 31.4673 25.8309 31.3463 25.7258L26.4721 20.2498Z" fill="#262626"/>
<path d="M46.0292 24.9438H60.0701C61.1779 24.9438 62.076 24.0458 62.076 22.938C62.076 21.8302 61.1779 20.9321 60.0701 20.9321H46.0292C44.9214 20.9321 44.0233 21.8302 44.0233 22.938C44.0233 24.0458 44.9214 24.9438 46.0292 24.9438Z" fill="black"/>
<path d="M60.0702 32.9666H27.9766C26.8688 32.9666 25.9707 33.8646 25.9707 34.9724C25.9707 36.0802 26.8688 36.9783 27.9766 36.9783H60.0702C61.178 36.9783 62.076 36.0802 62.076 34.9724C62.076 33.8646 61.178 32.9666 60.0702 32.9666Z" fill="black"/>
<path d="M60.0702 45.0022H27.9766C26.8688 45.0022 25.9707 45.9002 25.9707 47.008C25.9707 48.1159 26.8688 49.0139 27.9766 49.0139H60.0702C61.178 49.0139 62.076 48.1159 62.076 47.008C62.076 45.9002 61.178 45.0022 60.0702 45.0022Z" fill="black"/>
</svg>
