<svg width="18" height="11" viewBox="0 0 18 11" fill="none" xmlns="http://www.w3.org/2000/svg">
<path d="M4.51953 9.8125C4.75391 10.0469 5.15234 10.0469 5.38672 9.8125L12.2773 2.92188C12.5117 2.6875 12.5117 2.28906 12.2773 2.05469L11.4336 1.21094C11.1992 0.976562 10.8242 0.976562 10.5898 1.21094L4.96484 6.83594L2.31641 4.21094C2.08203 3.97656 1.70703 3.97656 1.47266 4.21094L0.628906 5.05469C0.394531 5.28906 0.394531 5.6875 0.628906 5.92188L4.51953 9.8125ZM14.4448 4.984L15.5008 3.784L16.5568 4.984L17.3248 4.432L16.5088 3.064L17.9488 2.428L17.6608 1.54L16.1248 1.888L15.9808 0.304H15.0328L14.8768 1.876L13.3408 1.54L13.0528 2.428L14.4808 3.064L13.6888 4.432L14.4448 4.984Z" fill="#1D3DCD"/>
</svg>
