<svg width="29" height="18" viewBox="0 0 29 18" fill="none" xmlns="http://www.w3.org/2000/svg">
<path d="M7.11523 16.7188C7.4668 17.0703 8.06445 17.0703 8.41602 16.7188L18.752 6.38281C19.1035 6.03125 19.1035 5.43359 18.752 5.08203L17.4863 3.81641C17.1348 3.46484 16.5723 3.46484 16.2207 3.81641L7.7832 12.2539L3.81055 8.31641C3.45898 7.96484 2.89648 7.96484 2.54492 8.31641L1.2793 9.58203C0.927734 9.93359 0.927734 10.5312 1.2793 10.8828L7.11523 16.7188ZM25.7217 3.59668L25.3613 6.83105L28.6396 5.91699L28.9297 8.13184L25.9414 8.34277L27.9014 10.9531L25.9062 12.0166L24.5352 9.26562L23.3311 11.999L21.2568 10.9531L23.1992 8.34277L20.2285 8.11426L20.5713 5.91699L23.7793 6.83105L23.4189 3.59668H25.7217Z" fill="#6882DA"/>
</svg>
