<?xml version="1.0" encoding="UTF-8"?>
<svg width="37px" height="32px" viewBox="0 0 37 32" version="1.1" xmlns="http://www.w3.org/2000/svg" xmlns:xlink="http://www.w3.org/1999/xlink">
    <title>Group 84</title>
    <g id="Page-1" stroke="none" stroke-width="1" fill="none" fill-rule="evenodd">
        <g id="Translation-(With-AI-component)" transform="translate(-300.000000, -7730.000000)">
            <g id="Group-99" transform="translate(-101.000000, 2180.000000)">
                <g id="Group-76" transform="translate(0.000000, 1908.000000)">
                    <g id="Group-84" transform="translate(401.000000, 3642.000000)">
                        <circle id="Oval-Copy-18" fill="#D6CFF0" opacity="0.5" cx="16" cy="16" r="16"></circle>
                        <path d="M25,24.625 C28.21875,24.625 30.9609375,23.4921875 33.2265625,21.2265625 C35.4921875,18.9609375 36.625,16.21875 36.625,13 C36.625,9.78125 35.4921875,7.0390625 33.2265625,4.7734375 C30.9609375,2.5078125 28.21875,1.375 25,1.375 C21.78125,1.375 19.03125,2.515625 16.75,4.796875 C14.5,7.046875 13.375,9.78125 13.375,13 C13.375,16.21875 14.5078125,18.9609375 16.7734375,21.2265625 C19.0390625,23.4921875 21.78125,24.625 25,24.625 Z M25,23.125 C22.21875,23.125 19.8359375,22.140625 17.8515625,20.171875 C15.8671875,18.203125 14.875,15.8125 14.875,13 C14.875,10.21875 15.859375,7.8359375 17.828125,5.8515625 C19.796875,3.8671875 22.1875,2.875 25,2.875 C27.78125,2.875 30.1640625,3.859375 32.1484375,5.828125 C34.1328125,7.796875 35.125,10.1875 35.125,13 C35.125,15.78125 34.140625,18.1640625 32.171875,20.1484375 C30.203125,22.1328125 27.8125,23.125 25,23.125 Z M22.375,18.625 C22.65625,18.90625 22.921875,18.90625 23.171875,18.625 L23.171875,18.625 L31.65625,10.234375 C31.90625,9.984375 31.90625,9.71875 31.65625,9.4375 L31.65625,9.4375 L31.234375,9.0625 C30.984375,8.78125 30.71875,8.765625 30.4375,9.015625 L30.4375,9.015625 L22.796875,16.65625 L19.5625,13.375 C19.28125,13.125 19.015625,13.125 18.765625,13.375 L18.765625,13.375 L18.34375,13.75 C18.09375,14.03125 18.09375,14.296875 18.34375,14.546875 L18.34375,14.546875 L22.375,18.625 Z" id="ï˜" fill="#000000" fill-rule="nonzero"></path>
                    </g>
                </g>
            </g>
        </g>
    </g>
</svg>