<svg xmlns="http://www.w3.org/2000/svg" width="24" height="36" xmlns:v="https://vecta.io/nano"><path d="M7.212.13a.78.78 0 0 0-.45 1.338L7.845 2.55 6.762 3.62a.78.78 0 0 0 .336 1.316.78.78 0 0 0 .759-.209L8.95 3.644l1.107 1.082a.78.78 0 0 0 1.312-.35.78.78 0 0 0-.218-.756l-1.08-1.07 1.082-1.082A.78.78 0 0 0 10.52.129a.78.78 0 0 0-.462.231L8.95 1.442 7.857.36a.78.78 0 0 0-.645-.231zm-4.89.12C1.047.25 0 1.3 0 2.55s1.047 2.3 2.323 2.3 2.323-1.04 2.323-2.3S3.6.25 2.323.25zm13.27 0c-1.276 0-2.323 1.04-2.323 2.3s1.047 2.3 2.323 2.3 2.323-1.04 2.323-2.3S16.87.25 15.593.25zM2.323 1.795a.75.75 0 0 1 .766.754.75.75 0 0 1-.766.754.75.75 0 0 1-.766-.754.75.75 0 0 1 .766-.754zm13.27 0a.75.75 0 0 1 .766.754.75.75 0 0 1-.766.754.75.75 0 0 1-.766-.754.75.75 0 0 1 .766-.754zM9 6.806c-1.478 0-2.724 1.146-2.724 2.6V21.28a.78.78 0 0 0 1.171.683.78.78 0 0 0 .386-.683V9.396c0-.57.462-1.034 1.168-1.034s1.155.462 1.155 1.034v8.04a.78.78 0 0 0 .693.778 33 33 0 0 0 5.668 1.228c1.408.455 2.792 1.06 3.77 1.788s1.508 1.5 1.508 2.42v2.834a6.47 6.47 0 0 1-2.02 4.707.78.78 0 0 0-.243.559v2.64H8.805v-1.082a.78.78 0 0 0-.243-.559c-.797-.764-1.978-1.954-2.943-3.235s-1.666-2.67-1.666-3.65v-4.646c0-.285.384-1.013.864-1.338a.78.78 0 0 0 .203-1.08.78.78 0 0 0-1.078-.21c-.897.607-1.545 1.555-1.545 2.627v4.646c0 1.623.927 3.185 1.982 4.585.968 1.285 2.06 2.388 2.87 3.174v1.545a.78.78 0 0 0 .778.778H20.3a.78.78 0 0 0 .778-.778V32.03c1.392-1.46 2.262-3.4 2.262-5.546V23.65c0-1.535-.924-2.776-2.128-3.673s-2.73-1.534-4.232-2.02a30.12 30.12 0 0 0-5.278-1.192v-7.37c0-1.444-1.234-2.6-2.712-2.6z" fill="#fff"/></svg>