<svg xmlns="http://www.w3.org/2000/svg" width="32" height="48" xmlns:v="https://vecta.io/nano"><path d="M9.616.172a1.04 1.04 0 0 0-.6 1.784L10.46 3.4 9.016 4.826a1.04 1.04 0 0 0 .448 1.755 1.04 1.04 0 0 0 1.012-.279l1.46-1.443L13.4 6.3a1.04 1.04 0 0 0 1.75-.467 1.04 1.04 0 0 0-.29-1.009L13.427 3.4l1.443-1.443a1.04 1.04 0 0 0-.843-1.784 1.04 1.04 0 0 0-.616.308l-1.476 1.443L10.476.48a1.04 1.04 0 0 0-.859-.308zm-6.52.162C1.396.334 0 1.72 0 3.4s1.396 3.065 3.097 3.065S6.195 5.078 6.195 3.4 4.8.334 3.097.334zm17.692 0C19.086.334 17.69 1.72 17.69 3.4s1.396 3.065 3.097 3.065S23.885 5.08 23.885 3.4 22.5.334 20.8.334zm-17.69 2.06c.572 0 1.022.44 1.022 1.005s-.45 1.005-1.022 1.005-1.022-.44-1.022-1.005.45-1.005 1.022-1.005zm17.692 0c.572 0 1.022.44 1.022 1.005s-.45 1.005-1.022 1.005-1.022-.44-1.022-1.005.45-1.005 1.022-1.005zM12 9.074c-1.97 0-3.632 1.528-3.632 3.454V28.37a1.04 1.04 0 0 0 1.561.911 1.04 1.04 0 0 0 .515-.911V12.528c0-.762.616-1.378 1.557-1.378s1.54.617 1.54 1.378v10.72a1.04 1.04 0 0 0 .924 1.038s3.803.425 7.557 1.638c1.877.606 3.723 1.412 5.027 2.384s2 2 2 3.227v3.778c0 2.458-1.015 4.668-2.692 6.276a1.04 1.04 0 0 0-.324.746v3.52H11.74V44.4a1.04 1.04 0 0 0-.324-.746c-1.062-1.02-2.637-2.605-3.924-4.314S5.27 35.8 5.27 34.485V28.3c0-.38.512-1.35 1.15-1.784a1.04 1.04 0 0 0 .27-1.44 1.04 1.04 0 0 0-1.438-.279c-1.196.8-2.06 2.074-2.06 3.503v6.195c0 2.164 1.237 4.247 2.643 6.114 1.3 1.713 2.745 3.184 3.827 4.232v2.06a1.04 1.04 0 0 0 1.038 1.038h16.38a1.04 1.04 0 0 0 1.038-1.038v-4.184c1.856-1.947 3.016-4.534 3.016-7.395v-3.778c0-2.047-1.233-3.702-2.838-4.897s-3.64-2.045-5.643-2.692a40.16 40.16 0 0 0-7.038-1.589V12.53c0-1.926-1.645-3.454-3.616-3.454z" fill="#96abec"/></svg>