<svg width="37" height="33" viewBox="0 0 37 33" fill="none" xmlns="http://www.w3.org/2000/svg">
<circle cx="16.5" cy="16.5" r="16.5" fill="#D6CFF0"/>
<g clip-path="url(#clip0_1_16)">
<path d="M31.1155 28.8151H30.3009C31.3552 27.0505 31.5059 24.9129 30.7674 23.0378L31.903 22.1614H34.3903C34.6024 22.1614 34.7744 21.9894 34.7744 21.7773C34.7744 21.5651 34.6024 21.3933 34.3903 21.3933H32.8982L35.0858 19.7048C35.2538 19.5751 35.2848 19.3339 35.1552 19.1661C35.0257 18.9981 34.7845 18.9671 34.6165 19.0966L32.4513 20.7679L32.8181 19.4483C32.875 19.2438 32.7554 19.0322 32.5511 18.9754C32.3466 18.9183 32.1349 19.0381 32.078 19.2426L31.4363 21.5514L30.4355 22.3236C29.9351 21.3991 29.22 20.611 28.362 20.0228C29.9984 18.4466 30.4621 16.0119 29.5096 13.9386C30.1128 13.7593 30.5538 13.1995 30.5538 12.5395C30.5538 11.735 29.8988 11.08 29.0944 11.08H28.1361V8.75493C28.1361 7.7877 27.349 7 26.3812 7H23.199C22.987 7 22.815 7.17198 22.815 7.38403C22.815 7.59668 22.987 7.76807 23.199 7.76807H26.3812C26.9255 7.76807 27.368 8.21121 27.368 8.75493V11.08C26.7845 11.08 22.155 11.08 21.4859 11.08V8.75493C21.4859 8.42564 21.6498 8.11937 21.9233 7.93509C22.0995 7.81686 22.1467 7.57823 22.0283 7.40248C21.9101 7.22633 21.6714 7.17932 21.4953 7.29755C21.0087 7.62485 20.7179 8.16956 20.7179 8.75493V11.08H19.7602C18.9552 11.08 18.3008 11.735 18.3008 12.5395C18.3008 13.33 18.9388 13.9989 19.7669 13.9989C18.8759 15.9863 19.2732 18.4157 20.9416 20.0228C20.0863 20.6088 19.3694 21.3965 18.8671 22.3256L17.8638 21.5514L17.2219 19.2426C17.1652 19.0381 16.9535 18.9183 16.749 18.9754C16.5447 19.0322 16.4251 19.2438 16.4818 19.4483L16.8488 20.7679L14.6836 19.0966C14.5156 18.9671 14.2744 18.9981 14.1449 19.1661C14.0152 19.3339 14.0463 19.5751 14.2141 19.7048L16.4019 21.3933H14.9096C14.6975 21.3933 14.5255 21.5651 14.5255 21.7773C14.5255 21.9894 14.6975 22.1614 14.9096 22.1614H17.3971L18.5353 23.0399C17.8138 24.8734 17.9269 27.0146 19.0028 28.8151H18.1879C17.0343 28.8151 16.095 29.7538 16.095 30.9075C16.095 32.0613 17.0343 33 18.1879 33H30.2911C30.503 33 30.6752 32.8284 30.6752 32.616C30.6752 32.4039 30.503 32.2319 30.2911 32.2319H18.1879C17.4578 32.2319 16.8633 31.6378 16.8633 30.9075C16.8633 30.1773 17.4578 29.5832 18.1879 29.5832H19.4964C19.8996 29.5832 20.1395 29.1263 19.9046 28.7941C18.4494 26.7323 18.5143 23.9865 19.9663 22.0138C20.1597 22.1197 21.0906 22.6063 21.2949 22.6063C21.7151 22.6063 21.8291 22.0247 21.4393 21.8664C21.1176 21.7359 20.7937 21.5833 20.4743 21.4141C20.8129 21.0654 21.1991 20.7554 21.6278 20.4931C23.3643 21.3346 25.5546 21.4191 27.6537 20.4777C27.76 20.5501 28.2811 20.8458 28.8421 21.427C27.3149 22.3746 25.0853 22.8275 22.8441 22.3119C22.6373 22.2643 22.4314 22.3935 22.3837 22.6004C22.3361 22.8067 22.4651 23.0132 22.672 23.0608C23.4839 23.2472 24.2383 23.3123 25.0025 23.2942V25.9396C25.0025 26.1517 25.1745 26.3237 25.3868 26.3237C25.5988 26.3237 25.7708 26.1517 25.7708 25.9396V25.3507H26.6234V25.9394C26.6234 26.1517 26.7954 26.3235 27.0074 26.3235C27.2195 26.3235 27.3914 26.1517 27.3914 25.9394V25.3507H28.2791V25.9394C28.2791 26.1517 28.4511 26.3235 28.6632 26.3235C28.8754 26.3235 29.0474 26.1517 29.0474 25.9394C29.0474 25.8859 29.0472 25.236 29.0472 22.1997C29.1876 22.1195 29.2862 22.0566 29.3416 22.0197C30.7712 23.9673 30.8694 26.7111 29.3985 28.7947C29.1646 29.1263 29.4037 29.5832 29.8071 29.5832H31.1155C31.8457 29.5832 32.4404 30.1773 32.4404 30.9075C32.4404 31.4294 32.13 31.9046 31.6501 32.1187C31.1919 32.3236 31.4924 33.0274 31.9632 32.8203C32.7195 32.4829 33.2085 31.7321 33.2085 30.9075C33.2085 29.7538 32.2692 28.8151 31.1155 28.8151ZM19.7602 13.2308C19.3787 13.2308 19.0689 12.9204 19.0689 12.5395C19.0689 12.1585 19.3787 11.848 19.7602 11.848H29.0942C29.4753 11.848 29.7857 12.1585 29.7857 12.5395C29.7857 12.9224 29.4725 13.2308 29.0942 13.2308C28.849 13.2308 20.0208 13.2308 19.7602 13.2308ZM27.6592 19.6249C26.2594 20.3319 24.8276 20.5507 23.4027 20.2739C22.422 20.0837 21.7771 19.7104 21.6613 19.6398C19.9982 18.204 19.6233 15.8451 20.6175 13.9989H28.6804C29.6994 15.8847 29.2745 18.2175 27.6592 19.6249ZM28.2789 24.5826C27.8786 24.5826 26.1473 24.5826 25.7708 24.5826V23.2389C26.8063 23.1211 27.6604 22.8424 28.2789 22.5777V24.5826Z" fill="black"/>
<path d="M23.0883 15.4418C23.0883 15.7782 22.8158 16.0508 22.4793 16.0508C22.1431 16.0508 21.8704 15.7782 21.8704 15.4418C21.8704 15.1056 22.1431 14.8328 22.4793 14.8328C22.8158 14.8328 23.0883 15.1056 23.0883 15.4418Z" fill="black"/>
<path d="M27.4331 15.4418C27.4331 15.7782 27.1604 16.0508 26.8241 16.0508C26.4877 16.0508 26.2151 15.7782 26.2151 15.4418C26.2151 15.1056 26.4877 14.8328 26.8241 14.8328C27.1604 14.8328 27.4331 15.1056 27.4331 15.4418Z" fill="black"/>
<path d="M24.144 16.0426L21.9828 17.0678C21.4401 17.325 21.6246 18.1425 22.2248 18.1425H24.6689C25.2717 18.1425 25.766 17.6633 25.7708 17.0741C25.7767 16.3257 24.9313 15.6693 24.144 16.0426ZM24.6689 17.3744H23.1288L24.4731 16.7367C24.7464 16.6072 25.0041 16.8873 25.0025 17.068C25.0011 17.234 24.8484 17.3744 24.6689 17.3744Z" fill="black"/>
<path d="M16.1567 9.43372H16.895L16.3729 9.95581C16.1301 10.1986 16.3055 10.6116 16.6445 10.6116C16.8492 10.6116 16.8906 10.5245 17.4381 9.97704V10.7153C17.4381 10.9274 17.6101 11.0994 17.8221 11.0994C18.0344 11.0994 18.2062 10.9274 18.2062 10.7153V9.97704C18.7551 10.5259 18.7957 10.6116 18.9998 10.6116C19.339 10.6116 19.514 10.1986 19.2714 9.95581L18.7495 9.43391H19.4876C19.6999 9.43391 19.8718 9.26193 19.8718 9.04968C19.8718 8.83763 19.6999 8.66565 19.4876 8.66565H18.7495L19.2714 8.14375C19.4214 7.99359 19.4214 7.7506 19.2714 7.60043C19.1214 7.45067 18.8782 7.45067 18.7283 7.60043L18.2062 8.12253V7.38422C18.2062 7.17197 18.0344 7.00018 17.8221 7.00018C17.6101 7.00018 17.4381 7.17197 17.4381 7.38422V8.12253L16.916 7.60043C16.7661 7.45047 16.5229 7.45047 16.3729 7.60043C16.2229 7.7506 16.2229 7.99359 16.3729 8.14375L16.895 8.66565H16.1567C15.9446 8.66565 15.7726 8.83763 15.7726 9.04968C15.7726 9.26193 15.9446 9.43372 16.1567 9.43372Z" fill="black"/>
<path d="M12.0442 16.7038H12.7825L12.2604 17.2257C12.0178 17.4685 12.193 17.8815 12.532 17.8815C12.7367 17.8815 12.7781 17.7944 13.3256 17.2469V17.9852C13.3256 18.1973 13.4976 18.3693 13.7099 18.3693C13.9219 18.3693 14.0939 18.1973 14.0939 17.9852V17.2469L14.616 17.769C14.7659 17.919 15.0091 17.919 15.1591 17.769C15.3091 17.619 15.3091 17.3759 15.1591 17.2259L14.637 16.7038H15.3753C15.5874 16.7038 15.7594 16.532 15.7594 16.3198C15.7594 16.1077 15.5874 15.9357 15.3753 15.9357H14.637L15.1589 15.4136C15.3091 15.2637 15.3091 15.0205 15.1589 14.8705C15.0089 14.7206 14.7657 14.7206 14.6158 14.8705L14.0939 15.3926V14.6543C14.0939 14.442 13.9219 14.2703 13.7097 14.2703C13.4976 14.2703 13.3256 14.442 13.3256 14.6543V15.3926L12.8037 14.8705C12.6536 14.7206 12.4104 14.7206 12.2604 14.8705C12.1104 15.0207 12.1104 15.2637 12.2604 15.4136L12.7825 15.9357H12.0442C11.8321 15.9357 11.6602 16.1077 11.6602 16.3198C11.6602 16.532 11.8321 16.7038 12.0442 16.7038Z" fill="black"/>
<path d="M32.7249 14.491H33.4632L32.9411 15.0129C32.6983 15.2557 32.8736 15.6687 33.2126 15.6687C33.4173 15.6687 33.4588 15.5816 34.0063 15.0341V15.7725C34.0063 15.9845 34.1783 16.1565 34.3903 16.1565C34.6024 16.1565 34.7744 15.9845 34.7744 15.7725V15.0341L35.2964 15.5562C35.4464 15.7062 35.6896 15.7062 35.8396 15.5562C35.9895 15.4061 35.9895 15.1631 35.8396 15.0131L35.3175 14.491H36.0558C36.2678 14.491 36.4398 14.319 36.4398 14.107C36.4398 13.8947 36.2678 13.7228 36.0558 13.7228H35.3177L35.8396 13.2009C35.9895 13.0509 35.9895 12.8077 35.8396 12.6577C35.6896 12.5078 35.4464 12.5078 35.2964 12.6577L34.7744 13.1798V12.4415C34.7744 12.2293 34.6024 12.0575 34.3903 12.0575C34.1783 12.0575 34.0063 12.2293 34.0063 12.4415V13.1798L33.4842 12.6577C33.3342 12.5078 33.091 12.5078 32.9411 12.6577C32.7911 12.8077 32.7911 13.0509 32.9411 13.2009L33.463 13.723H32.7249C32.5126 13.723 32.3408 13.8947 32.3408 14.107C32.3408 14.319 32.5126 14.491 32.7249 14.491Z" fill="black"/>
<path d="M36.0558 26.0692H35.3177L35.8396 25.5471C35.9895 25.3971 35.9895 25.1539 35.8396 25.0039C35.6896 24.854 35.4464 24.854 35.2964 25.0039L34.7744 25.526V24.7877C34.7744 24.5755 34.6024 24.4037 34.3903 24.4037C34.1783 24.4037 34.0063 24.5755 34.0063 24.7877V25.526L33.4842 25.0039C33.3342 24.854 33.091 24.854 32.9411 25.0039C32.7911 25.1539 32.7911 25.3971 32.9411 25.5471L33.463 26.0692H32.7249C32.5126 26.0692 32.3408 26.2409 32.3408 26.4532C32.3408 26.6652 32.5126 26.8372 32.7249 26.8372H33.463L32.9411 27.3593C32.7911 27.5093 32.7911 27.7525 32.9411 27.9024C33.091 28.0524 33.3342 28.0524 33.4842 27.9024L34.0063 27.3803V28.1187C34.0063 28.3307 34.1783 28.5027 34.3903 28.5027C34.6024 28.5027 34.7744 28.3307 34.7744 28.1187V27.3803C35.3234 27.9292 35.3639 28.0149 35.568 28.0149C35.9072 28.0149 36.0822 27.6019 35.8396 27.3591L35.3177 26.8372H36.056C36.268 26.8372 36.44 26.6652 36.44 26.453C36.44 26.2409 36.268 26.0692 36.0558 26.0692Z" fill="black"/>
<path d="M15.3753 27.7346H14.637L15.1589 27.2127C15.3091 27.0626 15.3091 26.8196 15.1589 26.6694C15.0089 26.5196 14.7657 26.5194 14.6158 26.6694L14.0939 27.1915V26.4532C14.0939 26.2411 13.9219 26.0692 13.7097 26.0692C13.4976 26.0692 13.3256 26.2411 13.3256 26.4532V27.1915L12.8037 26.6694C12.6536 26.5194 12.4104 26.5194 12.2604 26.6694C12.1104 26.8196 12.1104 27.0628 12.2604 27.2127L12.7825 27.7346H12.0442C11.8321 27.7346 11.6602 27.9066 11.6602 28.1187C11.6602 28.3309 11.8321 28.5029 12.0442 28.5029H12.7825L12.2604 29.0248C12.1104 29.1749 12.1104 29.4179 12.2604 29.5679C12.4106 29.7181 12.6538 29.7179 12.8037 29.5679L13.3256 29.046V29.7841C13.3256 29.9964 13.4976 30.1684 13.7097 30.1684C13.9219 30.1684 14.0939 29.9964 14.0939 29.7841V29.046C14.6426 29.5947 14.6832 29.6806 14.8873 29.6806C15.2265 29.6806 15.4017 29.2676 15.1589 29.0248L14.637 28.5029H15.3753C15.5874 28.5029 15.7594 28.3309 15.7594 28.1187C15.7594 27.9066 15.5874 27.7346 15.3753 27.7346Z" fill="black"/>
</g>
<defs>
<clipPath id="clip0_1_16">
<rect width="26" height="26" fill="white" transform="translate(11 7)"/>
</clipPath>
</defs>
</svg>
