<svg xmlns="http://www.w3.org/2000/svg" xmlns:xlink="http://www.w3.org/1999/xlink" width="64" height="64" xmlns:v="https://vecta.io/nano"><defs><circle id="A" cx="16" cy="16" r="16"/><filter x="-79.4%" y="-73.1%" width="258.8%" height="258.8%" id="B"><feMorphology radius="0.4" operator="dilate" in="SourceAlpha"/><feOffset dy="2"/><feGaussianBlur stdDeviation="8"/><feComposite in2="SourceAlpha" operator="out"/><feColorMatrix values="0 0 0 0 0 0 0 0 0 0 0 0 0 0 0 0 0 0 0.1 0"/></filter></defs><g transform="translate(16 14)" fill="none" fill-rule="evenodd"><g transform="matrix(-1 0 0 1 32 0)"><use fill="#000" filter="url(#B)" xlink:href="#A"/><use stroke="#96abec" stroke-width=".8" fill="#fff" xlink:href="#A"/></g><path d="M11.4 15l5.333-5.6c.26-.273.6-.4.943-.4s.682.137.943.4a1.45 1.45 0 0 1 0 1.98L14.22 16l4.4 4.6a1.45 1.45 0 0 1 0 1.98 1.29 1.29 0 0 1-1.885 0L11.4 17a1.45 1.45 0 0 1 0-1.98z" fill="#a9b9ed" fill-rule="nonzero"/></g></svg>