<svg xmlns="http://www.w3.org/2000/svg" width="43" height="42" fill="#96abec" fill-rule="nonzero" xmlns:v="https://vecta.io/nano"><path d="M38.405 13.406L41.33 9.92a.8.8 0 0 0-.098-1.128l-2.36-1.98a.8.8 0 0 0-1.126.1l-2.723 3.246a17.13 17.13 0 0 0-7.797-3.15V4.13h3.478a.7.7 0 0 0 .706-.706V.706A.7.7 0 0 0 30.704 0h-11.65a.7.7 0 0 0-.706.706v2.717a.7.7 0 0 0 .706.706h3.478v2.866a17.19 17.19 0 0 0-7.81 3.146l-2.7-3.228a.8.8 0 0 0-1.126-.1l-2.36 1.98a.8.8 0 0 0-.098 1.128l2.914 3.474a17.24 17.24 0 0 0-2.356 3.97 1.4 1.4 0 0 0 .744 1.834 1.4 1.4 0 0 0 1.834-.744A14.43 14.43 0 0 1 24.881 9.63a14.47 14.47 0 0 1 14.45 14.45 14.47 14.47 0 0 1-14.45 14.449 14.29 14.29 0 0 1-6.606-1.594 1.4 1.4 0 0 0-1.282 2.489 17.3 17.3 0 0 0 7.89 1.905c9.5 0 17.25-7.738 17.25-17.25-.002-4.03-1.402-7.734-3.726-10.674zM27.84 24.614c4.717-5.6 4.998-7.233 4.68-7.55s-1.94-.04-7.55 4.68c-2.67 2.244-1.83 3.53-1.246 4.116s1.873 1.425 4.117-1.245zm-11.36-2.097a1.2 1.2 0 0 0-1.2-1.2H1.2a1.2 1.2 0 1 0 0 2.4h14.082a1.2 1.2 0 0 0 1.199-1.2zm-1.2 4.867H7.125a1.2 1.2 0 0 0 0 2.4h8.156a1.2 1.2 0 0 0 0-2.4zm0 6.066H3.525a1.2 1.2 0 0 0 0 2.4H15.28a1.2 1.2 0 0 0 0-2.4z"/></svg>