<svg width="53" height="53" viewBox="0 0 53 53" fill="none" xmlns="http://www.w3.org/2000/svg">
<circle opacity="0.991397" cx="26.07" cy="26.07" r="26.07" fill="#FFEDAB"/>
<g clip-path="url(#clip0_218:634)">
<path d="M45.919 26.94C45.5419 23.147 43.8474 19.5711 41.1474 16.871C38.84 14.5637 36.0157 13.081 33.044 12.4217V10.3374C34.2578 10.0354 35.16 8.93678 35.16 7.6309C35.16 6.09296 33.9088 4.8418 32.3709 4.8418H26.4645C24.9266 4.8418 23.6754 6.09296 23.6754 7.6309C23.6754 8.9367 24.5776 10.0354 25.7913 10.3374V12.4275C22.8287 13.0896 20.0138 14.5703 17.713 16.8711C17.2095 17.3746 16.7451 17.9029 16.3201 18.4518C16.2995 18.4503 16.279 18.4487 16.258 18.4487H10.4122C9.95925 18.4487 9.59191 18.816 9.59191 19.269C9.59191 19.7221 9.95925 20.0893 10.4122 20.0893H15.2039C14.6025 21.0963 14.1175 22.1538 13.7483 23.2424H4.82033C4.36734 23.2424 4 23.6096 4 24.0627C4 24.5157 4.36734 24.883 4.82033 24.883H13.2848C13.0484 25.9208 12.9127 26.977 12.8776 28.0361H9.25008C8.7971 28.0361 8.42976 28.4033 8.42976 28.8564C8.42976 29.3095 8.7971 29.6767 9.25008 29.6767H12.9038C12.973 30.7386 13.1438 31.7948 13.416 32.8298H8.10163C7.64864 32.8298 7.2813 33.1971 7.2813 33.6501C7.2813 34.1032 7.64864 34.4705 8.10163 34.4705H13.9396C14.7443 36.5993 16.0019 38.5946 17.713 40.3056C20.4156 43.0083 23.9952 44.7032 27.7921 45.0783C28.334 45.1318 28.8764 45.1583 29.4179 45.1583C32.619 45.1583 35.7794 44.2319 38.461 42.4856C38.8407 42.2384 38.9481 41.7302 38.7008 41.3505C38.4536 40.9709 37.9454 40.8635 37.5657 41.1108C31.6957 44.9332 23.8343 44.1068 18.8731 39.1455C13.0519 33.3243 13.0519 23.8526 18.8731 18.0313C24.6942 12.2102 34.1659 12.2102 39.9872 18.0313C44.9419 22.9861 45.7729 30.8408 41.963 36.7079C41.7163 37.0879 41.8243 37.596 42.2042 37.8427C42.5843 38.0894 43.0923 37.9814 43.3389 37.6014C45.3745 34.4665 46.2908 30.6803 45.919 26.94ZM25.3161 7.63099C25.3161 6.99769 25.8312 6.48253 26.4645 6.48253H32.3709C33.0042 6.48253 33.5193 6.99769 33.5193 7.63099C33.5193 8.26428 33.0042 8.77944 32.3709 8.77944H32.2237H26.6116H26.4645C25.8312 8.77944 25.3161 8.26419 25.3161 7.63099ZM27.4319 12.1455V10.4201H31.4034V12.1425C30.0846 11.9857 28.7504 11.9867 27.4319 12.1455Z" fill="black"/>
<path d="M40.5676 38.9053C40.3511 38.9053 40.1403 38.993 39.9878 39.1456C39.8344 39.2982 39.7473 39.5098 39.7473 39.7256C39.7473 39.9413 39.8344 40.153 39.9878 40.3055C40.1403 40.4589 40.3512 40.5459 40.5676 40.5459C40.7834 40.5459 40.9942 40.4589 41.1476 40.3055C41.3002 40.153 41.388 39.9413 41.388 39.7256C41.388 39.5098 41.3003 39.2982 41.1476 39.1456C40.9942 38.993 40.7833 38.9053 40.5676 38.9053Z" fill="black"/>
<path d="M29.4302 15.8628C22.4133 15.8628 16.7045 21.5714 16.7045 28.5884C16.7045 35.6054 22.4133 41.314 29.4302 41.314C36.4471 41.314 42.1558 35.6054 42.1558 28.5884C42.1558 21.5714 36.4471 15.8628 29.4302 15.8628ZM29.4302 39.6734C23.3178 39.6734 18.3452 34.7007 18.3452 28.5884C18.3452 22.4762 23.3178 17.5034 29.4302 17.5034C35.5425 17.5034 40.5151 22.4762 40.5151 28.5884C40.5151 34.7007 35.5425 39.6734 29.4302 39.6734Z" fill="black"/>
<path d="M34.6192 22.2388L30.5561 26.3018C30.2163 26.1338 29.8342 26.0389 29.4301 26.0389C29.0261 26.0389 28.6439 26.1338 28.3042 26.3018L26.4858 24.4834C26.1653 24.163 25.6461 24.163 25.3256 24.4834C25.0052 24.8037 25.0052 25.3231 25.3256 25.6435L27.144 27.4619C26.9759 27.8017 26.8811 28.1839 26.8811 28.5879C26.8811 29.9934 28.0245 31.137 29.4301 31.137C30.8358 31.137 31.9792 29.9934 31.9792 28.5879C31.9792 28.1839 31.8843 27.8017 31.7163 27.4619L35.6601 23.5181L35.7793 23.3989C36.0996 23.0786 36.0996 22.5591 35.7793 22.2388C35.4589 21.9185 34.9397 21.9185 34.6192 22.2388ZM29.4301 29.4964C28.9293 29.4964 28.5217 29.0888 28.5217 28.588C28.5217 28.0871 28.9293 27.6795 29.4301 27.6795C29.931 27.6795 30.3386 28.0871 30.3386 28.588C30.3386 29.0888 29.931 29.4964 29.4301 29.4964Z" fill="black"/>
<path d="M38.201 27.7778H37.441C36.988 27.7778 36.6207 28.1451 36.6207 28.5981C36.6207 29.0512 36.988 29.4185 37.441 29.4185H38.201C38.654 29.4185 39.0213 29.0512 39.0213 28.5981C39.0213 28.1451 38.654 27.7778 38.201 27.7778Z" fill="black"/>
<path d="M21.4193 27.7583H20.6593C20.2063 27.7583 19.839 28.1256 19.839 28.5786C19.839 29.0317 20.2063 29.3989 20.6593 29.3989H21.4193C21.8722 29.3989 22.2396 29.0317 22.2396 28.5786C22.2396 28.1256 21.8722 27.7583 21.4193 27.7583Z" fill="black"/>
<path d="M29.4402 21.3971C29.8931 21.3971 30.2605 21.0299 30.2605 20.5768V19.8169C30.2605 19.3638 29.8931 18.9966 29.4402 18.9966C28.9872 18.9966 28.6198 19.3638 28.6198 19.8169V20.5768C28.6198 21.0299 28.9872 21.3971 29.4402 21.3971Z" fill="black"/>
<path d="M29.4201 35.7788C28.9672 35.7788 28.5998 36.1461 28.5998 36.5991V37.3591C28.5998 37.8121 28.9672 38.1794 29.4201 38.1794C29.8731 38.1794 30.2404 37.8121 30.2404 37.3591V36.5991C30.2404 36.1461 29.8731 35.7788 29.4201 35.7788Z" fill="black"/>
<path d="M4.82031 32.8296C4.60457 32.8296 4.39293 32.9174 4.24035 33.0699C4.08777 33.2225 4 33.4342 4 33.6499C4 33.8665 4.08769 34.0773 4.24035 34.2299C4.39301 34.3824 4.60457 34.4702 4.82031 34.4702C5.03605 34.4702 5.2477 34.3824 5.40019 34.2299C5.55277 34.0773 5.64062 33.8656 5.64062 33.6499C5.64062 33.4342 5.55285 33.2225 5.40019 33.0699C5.2477 32.9174 5.03605 32.8296 4.82031 32.8296Z" fill="black"/>
</g>
<defs>
<clipPath id="clip0_218:634">
<rect width="42" height="42" fill="white" transform="translate(4 4)"/>
</clipPath>
</defs>
</svg>
