<svg xmlns="http://www.w3.org/2000/svg" width="47.408" height="45.51" viewBox="0 0 47.408 45.51">
  <g id="speed-icon" transform="translate(-2274.8 -10304.49)">
    <circle id="Ellipse_1" data-name="Ellipse 1" cx="20" cy="20" r="20" transform="translate(2276 10310)" fill="#9273bc" opacity="0.5"/>
    <g id="noun_fast_time_1227713" data-name="noun_fast time_1227713" transform="translate(2273 10291.59)">
      <g id="Group_379" data-name="Group 379" transform="translate(1.8 12.9)">
        <g id="Group_376" data-name="Group 376" transform="translate(0 14.138)">
          <g id="Group_375" data-name="Group 375">
            <g id="Group_374" data-name="Group 374" transform="translate(2.858)">
              <path id="Path_41" data-name="Path 41" d="M19.208,52.134H10.367a1.067,1.067,0,1,1,0-2.134h8.841a1.067,1.067,0,1,1,0,2.134Z" transform="translate(-9.3 -50)" fill="#000f54"/>
              <path id="Path_42" data-name="Path 42" d="M19.337,91.234h-8.27a1.067,1.067,0,0,1,0-2.134h8.27A1.065,1.065,0,0,1,20.4,90.167,1.042,1.042,0,0,1,19.337,91.234Z" transform="translate(-9.733 -74.199)" fill="#000f54"/>
            </g>
            <path id="Path_43" data-name="Path 43" d="M12.966,71.634H2.867a1.067,1.067,0,0,1,0-2.134h10.1a1.065,1.065,0,0,1,1.067,1.067A1.02,1.02,0,0,1,12.966,71.634Z" transform="translate(-1.8 -62.069)" fill="#000f54"/>
          </g>
        </g>
        <path id="Path_44" data-name="Path 44" d="M113,32.454a3.481,3.481,0,0,1-.572,1.867,18.465,18.465,0,0,0-5.03-4.383,3.419,3.419,0,0,1,2.248-.838A3.334,3.334,0,0,1,113,32.454Z" transform="translate(-67.157 -22.926)" fill="#000f54"/>
        <path id="Path_45" data-name="Path 45" d="M43.6,32.454a3.481,3.481,0,0,0,.572,1.867,18.465,18.465,0,0,1,5.03-4.383,3.419,3.419,0,0,0-2.248-.838A3.311,3.311,0,0,0,43.6,32.454Z" transform="translate(-27.669 -22.926)" fill="#000f54"/>
        <g id="Group_378" data-name="Group 378" transform="translate(14.597 0)">
          <g id="Group_377" data-name="Group 377" transform="translate(0)">
            <path id="Path_46" data-name="Path 46" d="M72.648,32.717a16.325,16.325,0,0,0-13.3-13.3c-1.41-.267-1.486-.534-1.372-1.982l.038-.381h2.668c.724-.038,1.067-.3,1.143-.953a12.22,12.22,0,0,0,0-2.363.846.846,0,0,0-.877-.838h-4.5c-1.562,0-3.011,0-4.421.038a1.074,1.074,0,0,0-1.067,1.105V15.53c0,1.105.457,1.524,1.562,1.524H55.27l.038.381c.152,1.41.076,1.677-1.3,1.905a1.113,1.113,0,0,0-.343.076c-.114.038-.191.038-.3.076a16.221,16.221,0,0,0-10.4,6.9,16.053,16.053,0,0,0-2.553,12.195A16.324,16.324,0,0,0,56.489,51.924,15.681,15.681,0,0,0,60,51.543,16.461,16.461,0,0,0,72.648,32.717ZM65.94,45.026a13.246,13.246,0,0,1-9.375,3.925h-.114a13.415,13.415,0,0,1,.076-26.829H56.6a13.2,13.2,0,0,1,9.451,3.963A13.491,13.491,0,0,1,69.9,35.613,13.084,13.084,0,0,1,65.94,45.026Z" transform="translate(-40.104 -12.9)" fill="#000f54"/>
          </g>
        </g>
        <path id="Path_47" data-name="Path 47" d="M80.913,59.409a2.687,2.687,0,0,1-2.134,1.029,2.531,2.531,0,0,1-1.677-.61A2.715,2.715,0,0,1,76.073,58a2.751,2.751,0,0,1,.572-2.02,2.608,2.608,0,0,1,1.029-.8l.038-5.45A1.041,1.041,0,0,1,78.741,48.7h0a1.034,1.034,0,0,1,1.029,1.067l-.038,5.373a2.926,2.926,0,0,1,.686.381,2.715,2.715,0,0,1,1.029,1.829A2.618,2.618,0,0,1,80.913,59.409Z" transform="translate(-47.758 -35.057)" fill="#000f54"/>
      </g>
    </g>
  </g>
</svg>
