<?xml version="1.0" encoding="UTF-8"?>
<svg width="54px" height="43px" viewBox="0 0 54 43" version="1.1" xmlns="http://www.w3.org/2000/svg" xmlns:xlink="http://www.w3.org/1999/xlink">
    <title>urgent icon</title>
    <g id="pricing-table-component" stroke="none" stroke-width="1" fill="none" fill-rule="evenodd">
        <g id="SES-PT--1501-4000--Desktop-view" transform="translate(-314.000000, -1026.000000)" fill-rule="nonzero">
            <g id="urgent-icon" transform="translate(314.000000, 1026.000000)">
                <ellipse id="Ellipse_1" fill-opacity="0.263904065" fill="#53338A" cx="20.9279249" cy="22.51" rx="20.7169811" ry="20"></ellipse>
                <g id="noun_fast_time_1227713" transform="translate(2.282642, 0.100000)" fill="#262626">
                    <g id="Group_379" transform="translate(0.828679, 0.900000)">
                        <g id="Group_375" transform="translate(0.000000, 14.138000)">
                            <g id="Group_374" transform="translate(2.960457, 0.000000)">
                                <path d="M10.2631925,2.134 L1.10525094,2.134 C0.494837703,2.134 0,1.65628783 0,1.067 C0,0.477712172 0.494837703,0 1.10525094,0 L10.2631925,0 C10.8736057,0 11.3684434,0.477712172 11.3684434,1.067 C11.3684434,1.65628783 10.8736057,2.134 10.2631925,2.134 Z" id="Path_41"></path>
                                <path d="M9.94829434,17.035 L1.38182264,17.035 C0.771409401,17.035 0.276571698,16.5572878 0.276571698,15.968 C0.276571698,15.3787122 0.771409401,14.901 1.38182264,14.901 L9.94829434,14.901 C10.2408758,14.9015299 10.5212558,15.0142435 10.7277536,15.2143449 C10.9342515,15.4144464 11.0499519,15.6855443 11.0494019,15.968 C11.0565322,16.2523426 10.9429521,16.5271413 10.7350143,16.7286381 C10.5270764,16.930135 10.2428551,17.0408155 9.94829434,17.035 L9.94829434,17.035 Z" id="Path_42"></path>
                            </g>
                            <path d="M11.5662906,9.565 L1.10525094,9.565 C0.494837703,9.565 0,9.08728783 0,8.498 C0,7.90871217 0.494837703,7.43099625 1.10525094,7.43099625 L11.5673264,7.43099625 C11.8606259,7.43046776 12.1420712,7.54271259 12.3494656,7.7429294 C12.55686,7.9431462 12.6731287,8.21485118 12.6725774,8.498 C12.6866422,8.78510956 12.5745746,9.06462218 12.3639459,9.26777098 C12.1533172,9.47091978 11.8636794,9.57884703 11.5662906,9.565 L11.5662906,9.565 Z" id="Path_43"></path>
                        </g>
                        <path d="M47.4864283,9.528 C47.4774797,10.19216 47.2718881,10.8399844 46.8939226,11.395 C45.4472274,9.64070344 43.6816399,8.15546469 41.6836019,7.012 C42.3294673,6.47030222 43.1566249,6.1726292 44.0121906,6.174 C44.9353073,6.16863783 45.8222241,6.5202825 46.474978,7.15044564 C47.1277319,7.78060878 47.4919827,8.63683087 47.4864283,9.528 L47.4864283,9.528 Z" id="Path_44"></path>
                        <path d="M16.5021113,9.528 C16.5110599,10.19216 16.7166515,10.8399844 17.094617,11.395 C18.5413122,9.64070344 20.3068998,8.15546469 22.3049377,7.012 C21.6590723,6.47030222 20.8319147,6.1726292 19.9763491,6.174 C19.0512693,6.16232446 18.1605391,6.51194081 17.506353,7.14348653 C16.852167,7.77503225 16.4900172,8.6349358 16.5021113,9.528 Z" id="Path_45"></path>
                        <g id="Group_377" transform="translate(15.120289, 0.000000)">
                            <path d="M19.9338792,6.517 C18.4733321,6.25 18.3946075,5.983 18.5126943,4.535 L18.5520566,4.154 L21.3157019,4.154 C22.0656566,4.116 22.4209528,3.854 22.4996774,3.201 C22.5787489,2.41518279 22.5787489,1.62381721 22.4996774,0.838 C22.4975987,0.609542311 22.3998955,0.39160845 22.2287927,0.233772779 C22.0576898,0.0759371086 21.8277353,-0.00838051675 21.5912377,2.12052598e-13 L16.929917,2.12052598e-13 C15.3119208,2.12052598e-13 13.8109755,2.12052598e-13 12.3504283,0.038 C12.0509854,0.0397635631 11.7649228,0.157989614 11.5569171,0.365948075 C11.3489114,0.573906535 11.2365285,0.854035579 11.2451774,1.143 L11.2451774,2.63 C11.2451774,3.735 11.7185604,4.154 12.8631736,4.154 L15.7096868,4.154 L15.7490491,4.535 C15.9064981,5.945 15.8277736,6.212 14.4024453,6.44 C14.2805923,6.44701511 14.1606666,6.47266795 14.0471491,6.516 C13.9290623,6.554 13.8493019,6.554 13.7363943,6.592 C9.33592879,7.41291154 5.45755561,9.89701037 2.96356415,13.492 C0.417309841,17.0475009 -0.536098894,21.4440674 0.319041509,25.687 C1.81154227,33.4283748 8.81579172,39.0377988 16.9723868,39.0245002 C18.1956689,39.0296145 19.415693,38.9018042 20.6092528,38.643 C29.4721883,36.7364585 35.2326272,28.4590326 33.7106717,19.817 C32.491158,13.0185433 26.9760542,7.69430835 19.9338792,6.517 Z M26.7621962,32.126 C24.1945516,34.6288644 20.6999768,36.0412922 17.0511113,36.051 L16.9330245,36.051 C9.30320579,35.9700566 3.16824557,29.9649869 3.18974662,22.5988087 C3.21147483,15.2326304 9.38157774,9.26121166 17.0117491,9.22196549 L17.087366,9.22196549 C20.7703216,9.21624712 24.2999451,10.6450694 26.8771755,13.185 C29.4561304,15.7288753 30.8892033,19.1535997 30.8641585,22.713 C30.8740152,26.2575326 29.3938025,29.6542586 26.7621962,32.126 Z" id="Path_46"></path>
                        </g>
                        <path d="M34.3435755,24.352 C33.8115981,25.0070049 32.9952246,25.387031 32.1330736,25.381 C31.4965244,25.3880085 30.8790783,25.1711886 30.3959547,24.771 C29.8013232,24.324134 29.4173295,23.6655844 29.330066,22.943 C29.2432007,22.2205269 29.4562335,21.4942447 29.9225717,20.923 C30.2020042,20.5735397 30.5687536,20.2982768 30.9884604,20.123 L31.0278226,14.673 C31.0339794,14.1070157 31.5074432,13.6494935 32.0937113,13.643 L32.0937113,13.643 C32.3828996,13.6442077 32.6592929,13.7582575 32.8600415,13.9592154 C33.06079,14.1601733 33.1688322,14.4309598 33.1596,14.71 L33.1202377,20.083 C33.3737476,20.1786227 33.6127605,20.3067748 33.8308302,20.464 C34.4257019,20.9111016 34.8097214,21.5700558 34.8967189,22.293 C35.0224786,23.0239768 34.8214804,23.7721649 34.3435755,24.352 L34.3435755,24.352 Z" id="Path_47"></path>
                    </g>
                </g>
            </g>
        </g>
    </g>
</svg>