<svg width="41" height="36" viewBox="0 0 41 36" fill="none" xmlns="http://www.w3.org/2000/svg">
<circle opacity="0.5" cx="18.1796" cy="17.6796" r="17.6796" fill="#9273BC"/>
<path d="M13.2715 11.5607H17.8236C18.062 11.5607 18.2552 11.3675 18.2552 11.1291C18.2552 10.8906 18.062 10.6974 17.8236 10.6974H13.2715C13.0331 10.6974 12.8398 10.8906 12.8398 11.1291C12.8398 11.3675 13.033 11.5607 13.2715 11.5607Z" fill="black" stroke="black" stroke-width="0.75"/>
<path d="M17.6674 13.6388H15.8691C15.6308 13.6388 15.4375 13.832 15.4375 14.0705C15.4375 14.3089 15.6308 14.5021 15.8691 14.5021H17.6674C17.9057 14.5021 18.099 14.3089 18.099 14.0705C18.099 13.832 17.9057 13.6388 17.6674 13.6388Z" fill="black" stroke="black" stroke-width="0.75"/>
<path d="M11.4658 16.6319H15.8691C16.1075 16.6319 16.3008 16.4387 16.3008 16.2003C16.3008 15.9618 16.1075 15.7686 15.8691 15.7686H11.4658C11.2274 15.7686 11.0342 15.9618 11.0342 16.2003C11.0342 16.4387 11.2274 16.6319 11.4658 16.6319Z" fill="black" stroke="black" stroke-width="0.75"/>
<path d="M18.2552 24.284C18.2552 24.0456 18.062 23.8524 17.8236 23.8524H13.2715C13.0331 23.8524 12.8398 24.0456 12.8398 24.284C12.8398 24.5224 13.0331 24.7156 13.2715 24.7156H17.8236C18.062 24.7156 18.2552 24.5224 18.2552 24.284Z" fill="black" stroke="black" stroke-width="0.75"/>
<path d="M17.6674 20.9112H15.8691C15.6308 20.9112 15.4375 21.1044 15.4375 21.3428C15.4375 21.5812 15.6308 21.7744 15.8691 21.7744H17.6674C17.9057 21.7744 18.099 21.5812 18.099 21.3428C18.099 21.1044 17.9057 20.9112 17.6674 20.9112Z" fill="black" stroke="black" stroke-width="0.75"/>
<path d="M16.3008 19.2129C16.3008 18.9744 16.1075 18.7812 15.8691 18.7812H11.4658C11.2274 18.7812 11.0342 18.9744 11.0342 19.2129C11.0342 19.4513 11.2274 19.6445 11.4658 19.6445H15.8691C16.1075 19.6445 16.3008 19.4513 16.3008 19.2129Z" fill="black" stroke="black" stroke-width="0.75"/>
<path d="M29.4233 12.5172C29.6618 12.5172 29.855 12.324 29.855 12.0856V11.4267C29.855 11.1883 29.6618 10.9951 29.4233 10.9951C29.1849 10.9951 28.9917 11.1883 28.9917 11.4267V12.0856C28.9917 12.324 29.1849 12.5172 29.4233 12.5172Z" fill="black" stroke="black" stroke-width="0.75"/>
<path d="M34.169 12.9608C34.0004 12.7923 33.7272 12.7923 33.5586 12.9608L33.0927 13.4267C32.9242 13.5953 32.9242 13.8686 33.0927 14.0371C33.2614 14.2057 33.5346 14.2056 33.7032 14.0371L34.169 13.5713C34.3376 13.4027 34.3376 13.1294 34.169 12.9608Z" fill="black" stroke="black" stroke-width="0.75"/>
<path d="M35.0444 17.275C34.806 17.275 34.6128 17.4682 34.6128 17.7067C34.6128 17.9451 34.806 18.1383 35.0444 18.1383H35.7032C35.9416 18.1383 36.1348 17.9451 36.1348 17.7067C36.1348 17.4682 35.9416 17.275 35.7032 17.275H35.0444Z" fill="black" stroke="black" stroke-width="0.75"/>
<path d="M33.7032 21.376C33.5346 21.2075 33.2613 21.2075 33.0927 21.376C32.9242 21.5446 32.9242 21.8179 33.0927 21.9865L33.5586 22.4523C33.7273 22.6209 34.0005 22.6208 34.169 22.4523C34.3376 22.2837 34.3376 22.0105 34.169 21.8419L33.7032 21.376Z" fill="black" stroke="black" stroke-width="0.75"/>
<path d="M28.9917 23.3276V23.9863C28.9917 24.2248 29.1849 24.418 29.4233 24.418C29.6618 24.418 29.855 24.2248 29.855 23.9863V23.3276C29.855 23.0891 29.6618 22.8959 29.4233 22.8959C29.1849 22.8959 28.9917 23.0892 28.9917 23.3276Z" fill="black" stroke="black" stroke-width="0.75"/>
<path d="M25.1436 21.376L24.6777 21.8419C24.5091 22.0105 24.5091 22.2838 24.6777 22.4523C24.8463 22.6209 25.1196 22.6208 25.2881 22.4523L25.7539 21.9865C25.9225 21.8178 25.9225 21.5446 25.7539 21.376C25.5854 21.2075 25.3121 21.2075 25.1436 21.376Z" fill="black" stroke="black" stroke-width="0.75"/>
<path d="M23.1435 17.275C22.9052 17.275 22.7119 17.4682 22.7119 17.7067C22.7119 17.9451 22.9052 18.1383 23.1435 18.1383H23.8024C24.0408 18.1383 24.234 17.9451 24.234 17.7067C24.234 17.4682 24.0408 17.275 23.8024 17.275H23.1435Z" fill="black" stroke="black" stroke-width="0.75"/>
<path d="M25.7539 13.4267L25.2881 12.9608C25.1195 12.7923 24.8462 12.7923 24.6777 12.9608C24.5091 13.1294 24.5091 13.4027 24.6777 13.5713L25.1436 14.0371C25.3122 14.2057 25.5854 14.2056 25.7539 14.0371C25.9225 13.8686 25.9225 13.5953 25.7539 13.4267Z" fill="black" stroke="black" stroke-width="0.75"/>
<path d="M31.7443 17.7067C31.7443 17.4683 31.5512 17.2751 31.3127 17.2751H29.855V14.0705C29.855 13.832 29.6618 13.6388 29.4233 13.6388C29.1849 13.6388 28.9917 13.832 28.9917 14.0705V17.7067C28.9917 17.9452 29.1849 18.1384 29.4233 18.1384H31.3127C31.5511 18.1384 31.7443 17.9452 31.7443 17.7067Z" fill="black" stroke="black" stroke-width="0.75"/>
<path d="M37.608 17.6354C37.846 17.6209 38.0271 17.4163 38.0127 17.1784C37.7381 12.649 33.9653 9.10095 29.4235 9.10095C24.6784 9.10095 20.8179 12.9615 20.8179 17.7067C20.8179 22.4518 24.6784 26.3123 29.4235 26.3123C33.6747 26.3123 37.3022 23.1976 37.9333 18.9944C37.9687 18.7586 37.8062 18.5389 37.5705 18.5035C37.3353 18.4682 37.1149 18.6304 37.0796 18.8663C36.5127 22.6424 33.2521 25.4491 29.4235 25.4491C25.1544 25.4491 21.6811 21.9759 21.6811 17.7067C21.6811 13.4376 25.1544 9.96427 29.4235 9.96427C33.5097 9.96427 36.904 13.1561 37.151 17.2308C37.1654 17.4686 37.3698 17.6492 37.608 17.6354Z" fill="black"/>
<path d="M29.4231 6.62976C27.9049 6.62976 26.4174 6.94474 25.0482 7.53377H17.4326C17.1942 7.53377 17.001 7.72696 17.001 7.9654C17.001 8.20383 17.1942 8.39703 17.4326 8.39703H23.4244C22.6142 8.91844 21.8684 9.54735 21.2109 10.2734C21.0509 10.45 21.0643 10.723 21.241 10.883C21.4178 11.0431 21.6906 11.0296 21.8507 10.8529C23.7845 8.71764 26.5446 7.49302 29.4231 7.49302C35.0549 7.49302 39.6368 12.0748 39.6368 17.7066C39.6368 23.3383 35.055 27.9202 29.4231 27.9202C23.7913 27.9202 19.2095 23.3384 19.2095 17.7066C19.2095 15.7344 19.7729 13.8203 20.8386 12.171C20.968 11.9708 20.9106 11.7037 20.7103 11.5743C20.5101 11.445 20.243 11.5023 20.1135 11.7026C18.9574 13.4917 18.3463 15.5678 18.3463 17.7066C18.3463 21.6066 20.3724 25.0419 23.4271 27.0162H17.4327C17.1943 27.0162 17.001 27.2094 17.001 27.4478C17.001 27.6862 17.1943 27.8794 17.4327 27.8794H25.0423C26.3867 28.4606 27.8679 28.7834 29.4232 28.7834C35.5309 28.7834 40.5 23.8144 40.5 17.7066C40.5 11.5988 35.5309 6.62976 29.4231 6.62976Z" fill="black" stroke="black" stroke-width="0.75"/>
</svg>
