<?xml version="1.0" encoding="UTF-8"?>
<svg width="21px" height="17px" viewBox="0 0 21 17" version="1.1" xmlns="http://www.w3.org/2000/svg" xmlns:xlink="http://www.w3.org/1999/xlink">
    <title>Group_381</title>
    <g id="Japan" stroke="none" stroke-width="1" fill="none" fill-rule="evenodd">
        <g id="Compare-view-popup-with-scroll" transform="translate(-62.000000, -176.000000)" fill="#6882DA" fill-rule="nonzero">
            <g id="Group_381" transform="translate(62.000000, 176.000000)">
                <g id="Group_375" transform="translate(0.000000, 5.907493)">
                    <g id="Group_374" transform="translate(1.194650, 0.000000)">
                        <path d="M4.14125874,0.89184938 L0.445699301,0.89184938 C0.199343612,0.89184938 -0.000367132867,0.692202096 -0.000367132867,0.44592469 C-0.000367132867,0.199647284 0.199343612,5.21561398e-15 0.445699301,5.21561398e-15 L4.14125874,5.21561398e-15 C4.38761443,5.21561398e-15 4.58732517,0.199647284 4.58732517,0.44592469 C4.58732517,0.692202096 4.38761443,0.89184938 4.14125874,0.89184938 L4.14125874,0.89184938 Z" id="Path_41"></path>
                        <path d="M4.01423077,7.1179123 L0.557307692,7.1179123 C0.310952004,7.1179123 0.111241259,6.91826501 0.111241259,6.67198761 C0.111241259,6.4257102 0.310952004,6.22606231 0.557307692,6.22606231 L4.01423077,6.22606231 C4.13249734,6.22586766 4.24597622,6.2727475 4.32960344,6.35634814 C4.41323065,6.43994878 4.46012539,6.5533916 4.45993007,6.67162059 C4.46297994,6.79076487 4.41702711,6.90594802 4.33279443,6.99029266 C4.24856175,7.0746373 4.13341777,7.12076507 4.01423077,7.1179123 L4.01423077,7.1179123 Z" id="Path_42"></path>
                    </g>
                    <path d="M4.66699301,3.99680648 L0.445699301,3.99680648 C0.199343612,3.99680648 -0.000367132867,3.7971592 -0.000367132867,3.55088179 C-0.000367132867,3.30460439 0.199343612,3.10495649 0.445699301,3.10495649 L4.66699301,3.10495649 C4.78525958,3.10476184 4.89873846,3.15164169 4.98236567,3.23524232 C5.06599288,3.31884296 5.11288763,3.43228578 5.11269231,3.55051478 C5.11839843,3.67040749 5.07330174,3.78715361 4.98847182,3.87209628 C4.90364189,3.95703896 4.78693306,4.00231343 4.66699301,3.99680648 Z" id="Path_43"></path>
                </g>
                <path d="M19.1621486,3.98065777 C19.1586668,4.25818073 19.0758645,4.52892185 18.9234965,4.76093422 C18.3395755,4.02787414 17.6269656,3.40727473 16.8205594,2.92952336 C17.0812322,2.7031148 17.4151033,2.57873518 17.7604196,2.57937415 C18.1327162,2.57762273 18.4902754,2.72468834 18.7535318,2.98786109 C19.0167882,3.25103385 19.1639006,3.60847949 19.1621486,3.98065777 L19.1621486,3.98065777 Z" id="Path_44"></path>
                <path d="M6.65905594,3.98065777 C6.662522,4.25818073 6.74532429,4.52892185 6.89769231,4.76093422 C7.48160139,4.02786278 8.19421354,3.40726141 9.00062937,2.92952336 C8.73995657,2.7031148 8.40608547,2.57873518 8.06076923,2.5793899 C7.68756611,2.57460872 7.32824927,2.72070605 7.06433314,2.98453831 C6.80041702,3.24837057 6.65427325,3.60757324 6.65905594,3.98065777 L6.65905594,3.98065777 Z" id="Path_45"></path>
                <g id="Group_377" transform="translate(6.101014, 0.000000)">
                    <path d="M13.6022727,8.28061964 C13.1101771,5.43991038 10.8847591,3.21519948 8.04314685,2.72326025 C7.45573427,2.61168732 7.42195804,2.50305052 7.46968531,1.89527169 L7.48583916,1.73598665 L8.60118881,1.73598665 C8.90370629,1.71983794 9.04688811,1.60826501 9.0791958,1.33814109 C9.11109689,1.0098225 9.11109689,0.679186084 9.0791958,0.350867493 C9.07827129,0.255336639 9.03874047,0.164239792 8.96959366,0.0982946988 C8.90044685,0.0323496055 8.8075618,-0.00283814745 8.71206294,0.000734032412 L6.83307692,0.000734032412 C6.18031469,0.000734032412 5.57454545,0.000734032412 4.98566434,0.0168827455 C4.86486313,0.0176208685 4.74946441,0.0670292631 4.66557719,0.153929255 C4.58168997,0.240829247 4.53640392,0.357876543 4.53996503,0.478589133 L4.53996503,1.10104862 C4.53996503,1.562755 4.73087413,1.73818875 5.19272727,1.73818875 L6.33965035,1.73818875 L6.3558042,1.89747378 C6.41968531,2.48469971 6.38737762,2.59847474 5.81391608,2.69389895 C5.76357694,2.69639081 5.71397833,2.70705112 5.66706294,2.72546235 C5.61933566,2.74161106 5.58776224,2.74161106 5.5393007,2.75702574 C3.76470544,3.09976891 2.20044958,4.1366377 1.19391608,5.63736892 C0.166526791,7.12305306 -0.218110505,8.96015123 0.127027972,10.7330219 C0.729300622,13.96878 3.55689491,16.313193 6.84923077,16.3066068 C7.34318121,16.3089199 7.83581903,16.2554857 8.31776224,16.147245 C11.8934321,15.3497928 14.2168361,11.8911283 13.6022727,8.28061964 Z M10.7988462,13.4239847 C9.7626884,14.4697892 8.35248627,15.0598942 6.88006993,15.0638132 L6.83307692,15.0638132 C3.73649744,15.0550972 1.23329173,12.5385555 1.24198778,9.44295996 C1.25072925,6.34736445 3.76807086,3.84495417 6.86465035,3.85364746 L6.89916084,3.85364746 C8.38535221,3.85101636 9.80971149,4.44810436 10.8495105,5.50964728 C11.889983,6.57246927 12.4682233,8.00323171 12.4582867,9.49030505 C12.4612873,10.9721697 11.8624209,12.3917738 10.7988462,13.4239847 L10.7988462,13.4239847 Z" id="Path_46"></path>
                </g>
                <path d="M13.8585315,10.1780934 C13.6439131,10.451949 13.3143913,10.6108284 12.9663986,10.6082364 C12.7094743,10.6112648 12.4602262,10.5207291 12.2651748,10.3535272 C12.0251265,10.1667396 11.8701131,9.89145353 11.8348951,9.58939943 C11.7996942,9.28754823 11.8854943,8.98404437 12.0735315,8.74526215 C12.1862911,8.59906492 12.3343457,8.48389176 12.5038112,8.41054337 L12.519965,6.1350429 C12.5227404,5.89864025 12.713767,5.7076744 12.9502448,5.7048999 L12.9502448,5.7048999 C13.0669552,5.70523581 13.1785579,5.75279267 13.2596197,5.83673276 C13.3406815,5.92067285 13.3842962,6.03384469 13.3805245,6.15045758 L13.3643706,8.39586273 C13.4665432,8.43586987 13.5628629,8.48944609 13.6507343,8.55514776 C13.8907826,8.74193536 14.045796,9.0172214 14.081014,9.3192755 C14.1314436,9.62410893 14.0506334,9.93604948 13.8585315,10.1780934 L13.8585315,10.1780934 Z" id="Path_47"></path>
            </g>
        </g>
    </g>
</svg>