<?xml version="1.0" encoding="UTF-8"?>
<svg width="40px" height="40px" viewBox="0 0 40 40" version="1.1" xmlns="http://www.w3.org/2000/svg" xmlns:xlink="http://www.w3.org/1999/xlink">
    <title>Group 11</title>
    <g id="Page-1" stroke="none" stroke-width="1" fill="none" fill-rule="evenodd">
        <g id="Artboard-full-screen" transform="translate(-776.000000, -37.000000)">
            <g id="Group-11" transform="translate(776.000000, 37.000000)">
                <circle id="Oval" stroke="#FFFFFF" stroke-width="3" cx="20" cy="20" r="18.5"></circle>
                <path d="M14.6549629,28.0129289 L20.1245963,22.5422541 L25.5947256,28.012433 C25.9111159,28.3287737 26.4244813,28.3287737 26.7413675,28.012433 L28.012433,26.7413675 C28.3287737,26.4249772 28.3287737,25.9116118 28.012433,25.5947256 L22.5417582,20.1250922 L28.0119371,14.6549629 C28.3282778,14.3385726 28.3282778,13.8252072 28.0119371,13.508321 L26.7408716,12.2372555 C26.4244813,11.9209148 25.9111159,11.9209148 25.5942297,12.2372555 L20.1245963,17.7079303 L14.654467,12.2377514 C14.3380767,11.9214107 13.8247113,11.9214107 13.5078251,12.2377514 L12.2372555,13.508321 C11.9209148,13.8246617 11.9209148,14.3380767 12.2372555,14.6549629 L17.7074344,20.1250922 L12.2372555,25.5952215 C11.9209148,25.9116118 11.9209148,26.4249772 12.2372555,26.7418634 L13.508321,28.0129289 C13.8247113,28.3292696 14.3380767,28.3292696 14.6549629,28.0129289 Z" id="ttimes" fill="#FFFFFF" fill-rule="nonzero"></path>
            </g>
        </g>
    </g>
</svg>