<?xml version="1.0" encoding="UTF-8"?>
<svg width="14px" height="14px" viewBox="0 0 14 14" version="1.1" xmlns="http://www.w3.org/2000/svg" xmlns:xlink="http://www.w3.org/1999/xlink">
    <title>ccomment-alt-lines</title>
    <g id="Final" stroke="none" stroke-width="1" fill="none" fill-rule="evenodd">
        <g id="360pc-mobile" transform="translate(-206.000000, -750.000000)" fill="#6882DA" fill-rule="nonzero">
            <g id="Group-11" transform="translate(20.000000, 736.000000)">
                <g id="Group-6" transform="translate(186.000000, 12.000000)">
                    <path d="M4.77481219,15.5886544 L8.10466818,13.0905986 L11.9437215,13.0905986 C12.8848176,13.0905986 13.6499675,12.3254487 13.6499675,11.3843526 L13.6499675,3.70624593 C13.6499675,2.76514987 12.8848176,2 11.9437215,2 L1.70624593,2 C0.765149867,2 -1.8562929e-13,2.76514987 -1.8562929e-13,3.70624593 L-1.8562929e-13,11.3843526 C-1.8562929e-13,12.3254487 0.765149867,13.0905986 1.70624593,13.0905986 L4.26561483,13.0905986 L4.26561483,15.3300463 C4.26561483,15.59131 4.56421308,15.7432778 4.77481219,15.5886544 Z M10.0241949,6.69217631 L3.62577261,6.69217631 C3.50845778,6.69217631 3.41249186,6.59621039 3.41249186,6.47889557 L3.41249186,6.05233409 C3.41249186,5.93501927 3.50845778,5.83905335 3.62577261,5.83905335 L10.0241949,5.83905335 C10.1415097,5.83905335 10.2374756,5.93501927 10.2374756,6.05233409 L10.2374756,6.47889557 C10.2374756,6.59621039 10.1415097,6.69217631 10.0241949,6.69217631 Z M7.46482595,9.25154521 L3.62577261,9.25154521 C3.50845778,9.25154521 3.41249186,9.15557929 3.41249186,9.03826447 L3.41249186,8.61170299 C3.41249186,8.49438816 3.50845778,8.39842224 3.62577261,8.39842224 L7.46482595,8.39842224 C7.58214077,8.39842224 7.67810669,8.49438816 7.67810669,8.61170299 L7.67810669,9.03826447 C7.67810669,9.15557929 7.58214077,9.25154521 7.46482595,9.25154521 Z" id="ccomment-alt-lines"></path>
                </g>
            </g>
        </g>
    </g>
</svg>