<svg width="53" height="53" viewBox="0 0 53 53" fill="none" xmlns="http://www.w3.org/2000/svg">
<circle cx="26.18" cy="26.18" r="26.18" fill="#D8CEF3"/>
<path d="M43.5781 8.42188H27.1719V6H24.8281V8.42188H8.42188V43.5781H24.8281V46H27.1719V43.5781H43.5781V8.42188ZM41.2344 41.2344H27.1719V38.8906H24.8281V41.2344H10.7656V10.7656H24.8281V13.1094H27.1719V10.7656H41.2344V41.2344Z" fill="black"/>
<path d="M24.8281 15.4531H27.1719V20.1406H24.8281V15.4531Z" fill="black"/>
<path d="M24.8281 31.8594H27.1719V36.5469H24.8281V31.8594Z" fill="black"/>
<path d="M24.8281 22.4844H27.1719V29.5156H24.8281V22.4844Z" fill="black"/>
<path d="M16.625 17.3115L15.1098 15.7964L13.4525 17.4537L16.625 20.6261L22.1411 15.1099L20.4838 13.4526L16.625 17.3115Z" fill="black"/>
<path d="M19.4542 22.6855L17.7969 24.3429L16.1395 22.6855L14.4824 24.3429L16.1396 26.0002L14.4824 27.6574L16.1395 29.3147L17.7969 27.6574L19.4542 29.3147L21.1114 27.6574L19.4542 26.0002L21.1114 24.3429L19.4542 22.6855Z" fill="black"/>
<path d="M19.4542 32.0605L17.7969 33.7179L16.1395 32.0605L14.4824 33.7179L16.1396 35.3752L14.4824 37.0324L16.1395 38.6897L17.7969 37.0324L19.4542 38.6897L21.1114 37.0324L19.4542 35.3752L21.1114 33.7179L19.4542 32.0605Z" fill="black"/>
<path d="M33.0313 26.6865L31.5162 25.1714L29.8589 26.8287L33.0313 30.0011L38.5474 24.4849L36.8901 22.8276L33.0313 26.6865Z" fill="black"/>
<path d="M38.5474 15.1099L36.8901 13.4526L33.0313 17.3115L31.5162 15.7964L29.8589 17.4537L33.0313 20.6261L38.5474 15.1099Z" fill="black"/>
<path d="M35.8604 32.0605L34.2031 33.7179L32.5458 32.0605L30.8886 33.7179L32.5459 35.3752L30.8886 37.0324L32.5458 38.6897L34.2031 37.0324L35.8604 38.6897L37.5177 37.0324L35.8604 35.3752L37.5177 33.7179L35.8604 32.0605Z" fill="black"/>
</svg>
