<svg xmlns="http://www.w3.org/2000/svg" width="33" height="27" fill-rule="evenodd" xmlns:v="https://vecta.io/nano"><circle fill="#50caae" opacity=".5" cx="11.5" cy="14.944" r="11.5"/><g fill-rule="nonzero"><path d="M23.553 10.86l2.36-2.36.233.233c.067.067.153.1.233.1s.173-.033.233-.1l.947-.94a.34.34 0 0 0 .1-.233.31.31 0 0 0-.1-.233l-6.6-6.6c-.127-.127-.347-.127-.473 0l-.94.94a.33.33 0 0 0 0 .473l.233.233-7.073 7.073-.233-.233a.33.33 0 0 0-.473 0l-.94.94a.33.33 0 0 0 0 .473l6.6 6.6c.067.067.153.1.233.1s.173-.033.233-.1l.94-.94a.33.33 0 0 0 0-.473l-.233-.233 2.36-2.36 8.72 8.72a.34.34 0 0 0 .233.1.31.31 0 0 0 .233-.1l1.887-1.887a.33.33 0 0 0 0-.473l-8.713-8.72zm-2.827-9.427l6.127 6.127-.473.473-6.127-6.127.473-.473zM17.893 16.52l-6.127-6.127.473-.473 6.127 6.127-.473.473zm3.067-4.013L18.367 15.1 13.18 9.913l7.073-7.067 5.187 5.187-2.593 2.593-1.887 1.88zm9.193 8.727l-8.487-8.487 1.413-1.413 8.487 8.487-1.413 1.413z" stroke="#000" stroke-width=".45"/><path d="M23.627 21.7v-2.667a.33.33 0 0 0-.333-.333H9.96a.33.33 0 0 0-.333.333V21.7a.33.33 0 0 0 .333.333h13.333a.33.33 0 0 0 .333-.333zm-.667-.333H10.293v-2H22.96v2z" stroke="#161515" stroke-width=".5"/></g></svg>