<?xml version="1.0" encoding="UTF-8"?>
<svg width="36px" height="28px" viewBox="0 0 36 28" version="1.1" xmlns="http://www.w3.org/2000/svg" xmlns:xlink="http://www.w3.org/1999/xlink">
    <title>Group 45</title>
    <g id="Page-1" stroke="none" stroke-width="1" fill="none" fill-rule="evenodd">
        <g id="ICON----R0W,-Web" transform="translate(-1023.000000, -709.000000)">
            <g id="Group-45" transform="translate(1023.000000, 709.000000)">
                <g id="noun_conference_3152694" transform="translate(1.000000, 2.000000)" fill-rule="nonzero">
                    <g id="Group" transform="translate(0.072000, 0.000000)">
                        <path d="M19.6056,21.0168 L13.5576,21.0168 C12.8916,21.0168 12.3048,20.5668 12.1284,19.9188 L12.1284,19.9152 C12.0816,19.7424 11.9232,19.62 11.7432,19.62 L2.5236,19.62 L2.5236,1.35 C2.5236,0.6192 3.1212,0.0216 3.852,0.0216 L29.3112,0.0216 C29.3148,0.0216 29.3184,0.0216 29.3184,0.0216 C29.6676,0.0216 29.9988,0.1584 30.2472,0.4032 C30.5028,0.6552 30.6396,0.99 30.6396,1.35 L30.6396,19.62 L21.42,19.62 C21.24,19.62 21.0816,19.7424 21.0348,19.9188 C20.862,20.5668 20.2752,21.0168 19.6056,21.0168 Z M13.1724,19.638 C13.2192,19.8144 13.3776,19.9368 13.5576,19.9368 L19.6056,19.9368 C19.7856,19.9368 19.944,19.8144 19.9908,19.6416 L19.9908,19.638 C20.1672,18.9936 20.754,18.54 21.42,18.54 L29.5632,18.54 L29.5632,1.35 C29.5632,1.26 29.5164,1.1988 29.4876,1.17 C29.4624,1.1448 29.4048,1.1016 29.3184,1.1016 C29.3184,1.1016 29.3184,1.1016 29.3148,1.1016 L29.3112,1.1016 L3.852,1.1016 C3.7152,1.1016 3.6036,1.2132 3.6036,1.35 L3.6036,18.54 L11.7432,18.54 C12.4128,18.54 12.9996,18.99 13.1724,19.638 Z" id="Shape" fill="#000000"></path>
                        <path d="M30.9348,23.2164 L2.2356,23.2164 C1.0152,23.2164 0.0252,22.2264 0.0252,21.006 L0.0252,19.6848 C0.0252,19.0548 0.54,18.54 1.17,18.54 L11.7468,18.54 C12.4128,18.54 12.9996,18.99 13.176,19.638 L13.176,19.6416 C13.2228,19.8144 13.3812,19.9368 13.5612,19.9368 L19.6128,19.9368 C19.7928,19.9368 19.9512,19.8144 19.998,19.638 C20.1708,18.99 20.7576,18.54 21.4272,18.54 L32.0004,18.54 C32.3028,18.5364 32.5872,18.6552 32.8032,18.8676 C33.0228,19.0836 33.1452,19.3752 33.1452,19.6848 L33.1452,21.006 C33.1452,22.2264 32.1552,23.2164 30.9348,23.2164 Z M1.17,19.62 C1.134,19.62 1.1052,19.6488 1.1052,19.6848 L1.1052,21.006 C1.1052,21.6288 1.6128,22.1364 2.2356,22.1364 L30.9348,22.1364 C31.5576,22.1364 32.0652,21.6288 32.0652,21.006 L32.0652,19.6848 C32.0652,19.6596 32.0508,19.6452 32.0436,19.6344 C32.0364,19.6272 32.0256,19.6164 32.0076,19.6164 L32.0004,19.6164 L21.4272,19.6164 C21.2472,19.6164 21.0888,19.7388 21.042,19.9116 L21.042,19.9152 C20.8656,20.5596 20.2788,21.0132 19.6128,21.0132 L13.5612,21.0132 C12.8916,21.0132 12.3048,20.5632 12.132,19.9152 C12.0852,19.7388 11.9268,19.6164 11.7468,19.6164 L1.17,19.6164 L1.17,19.62 Z" id="Shape" fill="#000000"></path>
                        <path d="M16.5852,10.8072 C14.5944,10.8072 12.9744,9.1872 12.9744,7.1964 C12.9744,5.2056 14.5944,3.5856 16.5852,3.5856 C18.576,3.5856 20.196,5.2056 20.196,7.1964 C20.196,9.1872 18.576,10.8072 16.5852,10.8072 Z M16.5852,4.6656 C15.1884,4.6656 14.0544,5.7996 14.0544,7.1964 C14.0544,8.5932 15.1884,9.7272 16.5852,9.7272 C17.982,9.7272 19.116,8.5932 19.116,7.1964 C19.116,5.7996 17.982,4.6656 16.5852,4.6656 Z" id="Shape" fill="#113DCD"></path>
                        <path d="M20.6676,16.3116 L12.4812,16.3116 C11.9808,16.2792 11.592,15.8616 11.592,15.3612 L11.592,13.9212 C11.592,13.4532 11.6712,12.9888 11.8224,12.5424 C12.4092,10.8576 14.0004,9.7272 15.786,9.7272 L17.3844,9.7272 C19.17,9.7272 20.7612,10.8576 21.348,12.5424 C21.5028,12.9852 21.5784,13.4496 21.5784,13.9212 L21.5784,15.3612 C21.5784,15.8688 21.1824,16.2864 20.6784,16.3116 L20.6676,16.3116 Z M12.672,15.2316 L20.4984,15.2316 L20.4984,13.9212 C20.4984,13.5684 20.4408,13.2264 20.3256,12.8952 C19.89,11.646 18.7092,10.8072 17.3844,10.8072 L15.786,10.8072 C14.4612,10.8072 13.2768,11.646 12.8448,12.8952 C12.7296,13.2264 12.672,13.572 12.672,13.9212 L12.672,15.2316 Z" id="Shape" fill="#113DCD"></path>
                    </g>
                </g>
                <rect id="Rectangle" x="0" y="0" width="35" height="28"></rect>
            </g>
        </g>
    </g>
</svg>