<svg xmlns="http://www.w3.org/2000/svg" width="39" height="33" fill-rule="evenodd" xmlns:v="https://vecta.io/nano"><ellipse fill="#c3f4ea" cx="16.435" cy="16.279" rx="16.435" ry="16.279"/><path d="M39 12h-1.2v16.8H16.2V12H15v18h24zm0-7H15v6h24V5zm-1.2 4.8H16.2V6.2h21.6v3.6zM18 7h1v1h-1zm2 0h1v1h-1zm3 0h1v1h-1zm4.5 5c-2.36 0-4.278 1.812-4.278 4.038v1.837c-.7.24-1.222.873-1.222 1.625v5.77c0 .954.823 1.73 1.833 1.73h7.333c1 0 1.833-.777 1.833-1.73V19.5c0-.75-.513-1.386-1.222-1.625v-1.837c0-2.226-1.92-4.038-4.278-4.038zm0 1.154c1.685 0 3.056 1.294 3.056 2.885v1.73h-6.1v-1.73c0-1.6 1.37-2.885 3.056-2.885zm4.278 12.115c0 .318-.274.577-.6.577h-7.333c-.337 0-.6-.258-.6-.577V19.5c0-.318.274-.577.6-.577h7.333c.337 0 .6.258.6.577v5.77zM27 20c-1.103 0-2 .84-2 1.875 0 .814.56 1.5 1.333 1.76V25h1.333v-1.365c.774-.26 1.333-.946 1.333-1.76C29 20.84 28.103 20 27 20zm0 2.5c-.367 0-.667-.28-.667-.625s.3-.625.667-.625.667.28.667.625-.3.625-.667.625z" fill-rule="nonzero"/></svg>