<svg width="60" height="50" viewBox="0 0 60 50" fill="none" xmlns="http://www.w3.org/2000/svg">
<circle cx="25" cy="25" r="25" fill="#FFEAA7"/>
<g clip-path="url(#clip0_6174_1513)">
<path d="M24.6996 33.9524C21.606 35.4171 19.759 38.335 19.759 41.7579V49.2969C19.759 49.6852 20.0739 50 20.4622 50H54.5379C54.9262 50 55.241 49.6852 55.241 49.2969V41.7578C55.241 38.3349 53.3941 35.4169 50.3004 33.9523L41.991 30.0182L41.7784 26.9111C42.4563 26.4668 43.0612 25.9203 43.5713 25.2933H44.6541C46.2292 25.2933 47.5108 24.0118 47.5108 22.4365V21.9753C48.5898 21.2547 49.295 20.0763 49.295 18.7463C49.295 17.4162 48.5898 16.2379 47.5108 15.5173V15.0107C47.5108 9.49077 43.02 5 37.5 5C31.98 5 27.4893 9.49077 27.4893 15.0107V15.513C26.3756 16.2511 25.705 17.4439 25.705 18.7464C25.705 20.935 27.6127 22.7155 29.9575 22.7155C29.9837 22.7155 30.0096 22.7137 30.0358 22.7133C30.5874 24.4609 31.7371 25.9453 33.2437 26.9257L33.0065 30.0196L24.6996 33.9524ZM41.4565 31.3211L43.8381 32.4487L42.2358 36.1591L38.6182 33.4481L41.4565 31.3211ZM36.2723 40.3187H38.7278L39.2402 48.5938H35.7599L36.2723 40.3187ZM39.7957 36.0877L38.8779 38.9124H36.1222L35.1831 36.0224L37.4458 34.3268L39.7957 36.0877ZM32.6558 36.1591L31.0719 32.4913L33.477 31.3526L36.2732 33.4481L32.6558 36.1591ZM21.1653 41.7578C21.1653 38.8923 22.7115 36.4496 25.3014 35.2233L29.8003 33.0934L31.7183 37.5352C31.8037 37.7329 31.9749 37.8806 32.1831 37.936C32.2427 37.9519 32.3034 37.9596 32.3638 37.9596C32.5142 37.9596 32.6625 37.9113 32.7855 37.8192L33.9941 36.9134L34.9013 39.7055L34.3509 48.5938H21.1653V41.7578ZM53.8348 41.7578V48.5938H40.6491L40.0988 39.7055L40.9848 36.9787L42.1063 37.8192C42.2292 37.9113 42.3775 37.9596 42.528 37.9596C42.5884 37.9596 42.6491 37.9519 42.7087 37.936C42.9168 37.8806 43.088 37.7329 43.1734 37.5352L45.1099 33.0507L49.6988 35.2233C52.2886 36.4495 53.8348 38.8923 53.8348 41.7578V41.7578ZM44.654 23.8872H44.485C44.6751 23.5121 44.8358 23.1198 44.9641 22.7133C44.9903 22.7137 45.0162 22.7155 45.0424 22.7155C45.406 22.7155 45.7588 22.6725 46.0958 22.5921C46.018 23.319 45.4013 23.8872 44.654 23.8872V23.8872ZM45.2688 21.3004C45.3057 20.9928 45.3252 20.6799 45.3252 20.3625V16.1963C46.7625 16.3245 47.8888 17.4191 47.8888 18.7464C47.8888 20.0909 46.7328 21.1961 45.2688 21.3004ZM37.5 6.40625C42.2083 6.40625 46.0447 10.2076 46.1031 14.9023C45.8455 14.8403 45.5783 14.8012 45.3044 14.7856C45.0124 10.735 41.6238 7.52844 37.5 7.52844C33.3764 7.52844 29.9878 10.7348 29.6957 14.7852C29.4259 14.8009 29.1582 14.8415 28.8969 14.904C28.9543 10.2085 32.7911 6.40625 37.5 6.40625ZM43.5937 13.3404C42.4746 12.9411 41.4246 12.5357 40.6408 11.5808C40.5077 11.4187 40.3094 11.3245 40.0997 11.3238C40.0989 11.3238 40.0981 11.3238 40.0973 11.3238C39.8885 11.3238 39.6905 11.4166 39.5569 11.577C37.7807 13.7107 35.2794 14.0222 32.6312 14.3521C32.1383 14.4135 31.6346 14.4775 31.1328 14.5533C31.5282 11.3904 34.2318 8.93469 37.5 8.93469C40.3362 8.93469 42.7471 10.7844 43.5937 13.3404V13.3404ZM27.1113 18.7464C27.1113 17.7934 27.6941 16.9242 28.6322 16.4781C28.9597 16.3224 29.3096 16.2289 29.6749 16.1969V20.3625C29.6749 20.6799 29.6945 20.9928 29.7314 21.3004C28.2673 21.1961 27.1113 20.0909 27.1113 18.7464ZM31.0811 20.3625V15.984C31.6503 15.8921 32.2349 15.8185 32.805 15.7475C35.3812 15.4266 38.038 15.0957 40.1062 13.0557C41.0712 13.9364 42.1969 14.3364 43.2913 14.7254C43.4937 14.7974 43.7004 14.8713 43.9046 14.9476C43.913 15.082 43.9188 15.2171 43.9188 15.3536V20.3625C43.9188 21.6635 43.5286 22.8747 42.8606 23.8872H38.173C37.7847 23.8872 37.4699 24.202 37.4699 24.5903C37.4699 24.9786 37.7847 25.2934 38.173 25.2934H41.6042C40.4907 26.2218 39.0596 26.7814 37.4999 26.7814C33.9606 26.7814 31.0811 23.9019 31.0811 20.3625V20.3625ZM37.5 28.1877C38.5308 28.1877 39.5154 27.9869 40.4175 27.6231L40.5946 30.2099L37.4459 32.5695L34.3966 30.2844L34.6 27.6303C35.4973 27.9896 36.4759 28.1877 37.5 28.1877ZM49.411 40.7228C49.7993 40.7228 50.1142 41.0376 50.1142 41.4259C50.1142 41.8142 49.7993 42.129 49.411 42.129H44.4892C44.1009 42.129 43.786 41.8142 43.786 41.4259C43.786 41.0376 44.1009 40.7228 44.4892 40.7228H49.411Z" fill="black" stroke="black"/>
</g>
<defs>
<clipPath id="clip0_6174_1513">
<rect width="45" height="45" fill="white" transform="translate(15 5)"/>
</clipPath>
</defs>
</svg>
