<svg width="60" height="54" xmlns="http://www.w3.org/2000/svg"><g fill="none" fill-rule="evenodd"><circle fill="#AE9FE1" opacity=".5" cx="24" cy="30" r="24"/><g fill="#000" fill-rule="nonzero"><path d="M27.09 0a.86.86 0 000 1.719c4.854 0 8.804 4.052 8.804 9.033a.86.86 0 001.719 0C37.613 4.823 32.892 0 27.089 0z"/><path d="M27.086 4.077a.86.86 0 000 1.72c2.659 0 4.822 2.223 4.822 4.955a.86.86 0 001.719 0c0-3.68-2.934-6.675-6.54-6.675z"/><path d="M27.103 7.834a.86.86 0 100 1.719c.621 0 1.126.526 1.126 1.173a.86.86 0 001.72 0c0-1.595-1.277-2.892-2.846-2.892zM55.401 6.812h-1.905a.86.86 0 000 1.719h1.905a2.883 2.883 0 012.88 2.879v11.667c0 .914-.43 1.73-1.095 2.257v-2.248a3.644 3.644 0 00-2.975-3.58l-.556-.104c.124-.38.192-.785.192-1.205v-1.975a3.899 3.899 0 00-3.895-3.895 3.899 3.899 0 00-3.894 3.895v1.975c0 .42.068.825.191 1.205l-.555.103a3.644 3.644 0 00-2.975 3.581v2.492a2.88 2.88 0 01-1.456-2.501V11.41a2.883 2.883 0 012.88-2.88h2.048a.86.86 0 000-1.718h-2.049a4.603 4.603 0 00-4.598 4.598v11.667a4.603 4.603 0 004.598 4.598h4.325v2.471a.86.86 0 001.466.61l3.1-3.081H55.4A4.603 4.603 0 0060 23.077V11.41A4.603 4.603 0 0055.4 6.812zm-7.624 9.41c0-1.2.975-2.176 2.175-2.176 1.2 0 2.176.976 2.176 2.176v1.975c0 1.2-.976 2.175-2.176 2.175-1.2 0-2.175-.976-2.175-2.175v-1.975zm7.69 9.732l-.066.002h-2.723a.86.86 0 00-.605.25l-1.887 1.874v-1.265a.86.86 0 00-.86-.859h-4.888v-2.87c0-.926.66-1.721 1.571-1.89l1.212-.227a3.881 3.881 0 002.731 1.122 3.882 3.882 0 002.732-1.122l1.212.226c.91.17 1.57.965 1.57 1.891v2.868z"/><path d="M50.036 7.064a.862.862 0 00-1.216 0 .863.863 0 000 1.215c.16.16.382.252.608.252a.866.866 0 00.608-.252.868.868 0 00.252-.607.864.864 0 00-.252-.608zM31.974 28.913a.864.864 0 00-.608-.252.866.866 0 00-.607.252.866.866 0 00-.252.607.864.864 0 00.86.86.863.863 0 00.859-.86.863.863 0 00-.252-.607z"/><path d="M50.786 36.684L44.202 30.1a2.58 2.58 0 00-3.279-.306l-4.202 2.874a.86.86 0 01-1.093-.102l-1.39-1.39a.86.86 0 00-1.215 1.216l1.39 1.39a2.58 2.58 0 003.278.305l4.202-2.874a.86.86 0 011.093.102l6.585 6.585a.86.86 0 010 1.215c-4.223 4.223-11.093 4.223-15.315 0l-13.37-13.37a10.758 10.758 0 01-3.172-7.658c0-2.892 1.126-5.612 3.171-7.657a.854.854 0 01.608-.252c.23 0 .446.09.608.252l6.584 6.584a.86.86 0 01.102 1.093l-2.873 4.203a2.58 2.58 0 00.305 3.278l2.089 2.09a.86.86 0 001.215-1.216l-2.089-2.09a.86.86 0 01-.101-1.092l2.873-4.203a2.58 2.58 0 00-.305-3.278l-6.585-6.585a2.582 2.582 0 00-3.646 0c-4.893 4.893-4.893 12.854 0 17.746l13.37 13.37A12.51 12.51 0 0041.913 44a12.51 12.51 0 008.873-3.67 2.581 2.581 0 000-3.646z"/><path d="M27.578 21.134l-5.21-5.21a.86.86 0 00-1.216 1.215l5.21 5.21a.857.857 0 001.216 0 .86.86 0 000-1.215zM47.519 41.074l-5.482-5.482a.86.86 0 00-1.216 1.216l5.482 5.482a.857.857 0 001.216 0 .86.86 0 000-1.216z"/></g></g></svg>