<svg width="18" height="19" viewBox="0 0 18 19" fill="none" xmlns="http://www.w3.org/2000/svg">
<path d="M13.5 3.97026V0.637451H9.5625C8.63051 0.637451 7.875 1.38352 7.875 2.30386V12.3023C7.875 13.2226 8.63051 13.9687 9.5625 13.9687H16.3125C17.2445 13.9687 18 13.2226 18 12.3023V5.0812H14.6566C14.0062 5.0812 13.5 4.58128 13.5 3.97026ZM14.625 0.637451V3.97026H18L14.625 0.637451ZM6.75 12.8578V5.0812H1.6875C0.755508 5.0812 0 5.82726 0 6.74761V16.746C0 17.6664 0.755508 18.4125 1.6875 18.4125H8.4375C9.36949 18.4125 10.125 17.6664 10.125 16.746V15.0796H9C7.75898 15.0796 6.75 14.0833 6.75 12.8578Z" fill="white"/>
</svg>
