<svg xmlns="http://www.w3.org/2000/svg" xmlns:xlink="http://www.w3.org/1999/xlink" width="27" height="23" xmlns:v="https://vecta.io/nano"><defs><path id="A" d="M0 0h30v30H0z"/></defs><g transform="translate(-1 -4)" fill="none" fill-rule="evenodd"><mask id="B" fill="#fff"><use xlink:href="#A"/></mask><g mask="url(#B)"><circle fill="#ffed98" cx="12.5" cy="15.5" r="11.5"/><g fill-rule="nonzero"><path d="M26.082 6c.288 0 .522.208.522.465v2.323h.522a.56.56 0 0 1 .37.136.44.44 0 0 1 .153.328v13.935c0 .257-.234.465-.522.465h-13.04c-1.152 0-2.086-.832-2.086-1.858V7.858C12 6.832 12.934 6 14.086 6h11.996zm-13.04 3.468v12.326c0 .513.467.93 1.043.93h12.517V9.716H14.086c-.38 0-.736-.1-1.043-.25zM25.56 6.93H14.086c-.576 0-1.043.416-1.043.93s.467.93 1.043.93H25.56V6.93z" fill="#000"/><path d="M22.278 11.7l2.086 1.858a.43.43 0 0 1 0 .657L19.15 18.87c-.057.05-.127.1-.204.112l-3.13.93c-.408.12-.796-.224-.66-.588l1.043-2.787a.46.46 0 0 1 .126-.182L21.54 11.7a.57.57 0 0 1 .738 0zm-.37.985l-4.76 4.24-.674 1.802 2.023-.6 4.76-4.24-1.35-1.2z" fill="#262626"/></g></g></g></svg>