<svg width="36" height="32" viewBox="0 0 36 32" fill="none" xmlns="http://www.w3.org/2000/svg">
<g id="Group 61">
<circle id="Oval Copy 18" opacity="0.5" cx="16" cy="16" r="16" fill="#D6CFF0"/>
<path id="file-alt" d="M29.5 11.625C29.5 11.4844 29.4062 11.3438 29.3125 11.25C29.2188 11.1562 29.0781 11.0625 28.9375 11.0625H21.0625C20.875 11.0625 20.7344 11.1562 20.6406 11.25C20.5469 11.3438 20.5 11.4844 20.5 11.625V12.9375C20.5 13.125 20.5469 13.2656 20.6406 13.3594C20.7344 13.4531 20.875 13.5 21.0625 13.5H28.9375C29.0781 13.5 29.2188 13.4531 29.3125 13.3594C29.4062 13.2656 29.5 13.125 29.5 12.9375V11.625ZM28.9375 15C29.0781 15 29.2188 15.0938 29.3125 15.1875C29.4062 15.2812 29.5 15.4219 29.5 15.5625V16.875C29.5 17.0625 29.4062 17.2031 29.3125 17.2969C29.2188 17.3906 29.0781 17.4375 28.9375 17.4375H21.0625C20.875 17.4375 20.7344 17.3906 20.6406 17.2969C20.5469 17.2031 20.5 17.0625 20.5 16.875V15.5625C20.5 15.4219 20.5469 15.2812 20.6406 15.1875C20.7344 15.0938 20.875 15 21.0625 15H28.9375ZM34 6.1875C34 5.57812 33.7656 5.0625 33.3438 4.59375L29.4062 0.65625C28.9375 0.234375 28.4219 0 27.8125 0H18.25C17.5938 0 17.0781 0.234375 16.6562 0.65625C16.1875 1.125 16 1.64062 16 2.25V21.75C16 22.4062 16.1875 22.9219 16.6562 23.3438C17.0781 23.8125 17.5938 24 18.25 24H31.75C32.3594 24 32.875 23.8125 33.3438 23.3438C33.7656 22.9219 34 22.4062 34 21.75V6.1875ZM28 2.4375L31.5625 6H28V2.4375ZM31.75 21.75H18.25V2.25H25.75V7.125C25.75 7.45312 25.8438 7.73438 26.0781 7.92188C26.2656 8.15625 26.5469 8.25 26.875 8.25H31.75V21.75Z" fill="black"/>
</g>
</svg>
