<?xml version="1.0" encoding="UTF-8"?>
<svg width="10px" height="10px" viewBox="0 0 10 10" version="1.1" xmlns="http://www.w3.org/2000/svg" xmlns:xlink="http://www.w3.org/1999/xlink">
    <title>cross-icon-blue</title>
    <g id="editing" stroke="none" stroke-width="1" fill="none" fill-rule="evenodd">
        <g id="cross-icon-blue" fill="#113DCD" fill-rule="nonzero">
            <path d="M6.23157895,5.0052687 L9.73684211,1.49631191 C10.0736842,1.15911486 10.0736842,0.600632244 9.73684211,0.263435195 C9.4,-0.0737618546 8.84210526,-0.0737618546 8.50526316,0.263435195 L5,3.77239199 L1.49473684,0.252897787 C1.15789474,-0.0842992624 0.6,-0.0842992624 0.263157895,0.252897787 C-0.0736842105,0.590094837 -0.0736842105,1.14857745 0.263157895,1.4857745 L3.76842105,5.0052687 L0.252631579,8.5142255 C-0.0842105263,8.85142255 -0.0842105263,9.40990516 0.252631579,9.74710221 C0.421052632,9.91570074 0.642105263,10 0.873684211,10 C1.10526316,10 1.31578947,9.91570074 1.49473684,9.74710221 L5,6.23814542 L8.50526316,9.74710221 C8.67368421,9.91570074 8.89473684,10 9.12631579,10 C9.34736842,10 9.56842105,9.91570074 9.74736842,9.74710221 C10.0842105,9.40990516 10.0842105,8.85142255 9.74736842,8.5142255 L6.23157895,5.0052687 Z" id="Path-Copy-23"></path>
        </g>
    </g>
</svg>