<svg width="9" height="10" viewBox="0 0 9 10" fill="none" xmlns="http://www.w3.org/2000/svg">
<path d="M5.6875 4.75L8.61328 7.70312C8.69531 7.78516 8.75 7.89453 8.75 8.00391C8.75 8.14062 8.69531 8.25 8.61328 8.30469L7.92969 8.98828C7.84766 9.09766 7.73828 9.125 7.62891 9.125C7.49219 9.125 7.38281 9.09766 7.32812 8.98828L4.375 6.0625L1.42188 8.98828C1.33984 9.09766 1.23047 9.125 1.12109 9.125C0.984375 9.125 0.875 9.09766 0.820312 8.98828L0.136719 8.30469C0.0273438 8.25 0 8.14062 0 8.00391C0 7.89453 0.0273438 7.78516 0.136719 7.70312L3.0625 4.75L0.136719 1.79688C0.0273438 1.74219 0 1.63281 0 1.49609C0 1.38672 0.0273438 1.27734 0.136719 1.19531L0.820312 0.511719C0.875 0.429688 0.984375 0.375 1.12109 0.375C1.23047 0.375 1.33984 0.429688 1.42188 0.511719L4.375 3.4375L7.32812 0.511719C7.38281 0.429688 7.49219 0.375 7.62891 0.375C7.73828 0.375 7.84766 0.429688 7.92969 0.511719L8.61328 1.19531C8.69531 1.27734 8.75 1.38672 8.75 1.49609C8.75 1.63281 8.69531 1.74219 8.61328 1.79688L5.6875 4.75Z" fill="#262626" fill-opacity="0.7"/>
</svg>
