<svg width="24" height="19" viewBox="0 0 24 19" fill="none" xmlns="http://www.w3.org/2000/svg">
<path opacity="0.6" d="M19.6065 16.7122V17.8642C19.6065 18.1823 19.3486 18.4402 19.0305 18.4402H4.05452C3.7364 18.4402 3.47852 18.1823 3.47852 17.8642V16.7122C3.47852 16.3941 3.7364 16.1362 4.05452 16.1362H19.0305C19.3486 16.1362 19.6065 16.3941 19.6065 16.7122Z" fill="#E8B75B"/>
<path d="M23.0624 6.3442C23.0624 7.29855 22.2887 8.0722 21.3344 8.0722C21.2414 8.06993 21.1487 8.0603 21.0572 8.0434L18.4544 14.9842H4.63038L2.02759 8.0434C1.93609 8.0603 1.8434 8.06993 1.75038 8.0722C0.976684 8.07633 0.293093 7.56935 0.0724412 6.82776C-0.148211 6.08618 0.147026 5.28796 0.797129 4.86844C1.44723 4.44892 2.2962 4.50878 2.881 5.01537C3.46581 5.52197 3.64611 6.35372 3.32359 7.057L5.92638 8.6194C6.19203 8.77812 6.51036 8.82329 6.80968 8.74473C7.10899 8.66618 7.36411 8.47051 7.51758 8.2018L10.4516 3.0682C9.88449 2.60664 9.66929 1.8381 9.91422 1.14916C10.1592 0.460211 10.8112 0 11.5424 0C12.2736 0 12.9256 0.460211 13.1706 1.14916C13.4155 1.8381 13.2003 2.60664 12.6332 3.0682L15.5672 8.2018C15.7207 8.47051 15.9758 8.66618 16.2751 8.74473C16.5744 8.82329 16.8927 8.77812 17.1584 8.6194L19.7648 7.057C19.6607 6.83376 19.6067 6.5905 19.6064 6.3442C19.6064 5.38985 20.38 4.6162 21.3344 4.6162C22.2887 4.6162 23.0624 5.38985 23.0624 6.3442Z" fill="#E8B75B"/>
</svg>
