<svg xmlns="http://www.w3.org/2000/svg" width="49" height="32" fill="none" fill-rule="evenodd" xmlns:v="https://vecta.io/nano"><g fill-rule="nonzero"><path d="M27.236 16.136l8.26-9.757a.82.82 0 0 1 .651-.328.82.82 0 0 1 .651.328l6.584 9.757m-40.364 0L9.602 6.38a.82.82 0 0 1 .651-.328.82.82 0 0 1 .651.328l8.26 9.753" fill="#f2bc0f"/><path d="M44.06 7.38l-8.398 6.7L24.34.3c-.157-.2-.4-.3-.634-.3s-.477.1-.634.3L11.746 14.07l-8.398-6.7a.82.82 0 0 0-.904-.08c-.3.157-.46.473-.432.803l1.834 21.403a.83.83 0 0 0 .822.749h38.07a.83.83 0 0 0 .822-.749L45.396 8.1c.03-.332-.137-.65-.428-.8a.82.82 0 0 0-.908.079z" fill="#f8dc25"/><path d="M43.1 17.38c-4.2 7.916-10.395 10.2-17.038 11.285l-14.647 1.588H42.82c.43 0 .8-.322.833-.745l1.43-16.4-1.983 4.27z" opacity=".5" fill="#f2bc0f"/><g fill="#fff"><path d="M2.185 7.238c-.23-.205-.543-.236-.8-.08s-.407.47-.382.8l1.624 21.3c-.466-7.082-.335-14.198.392-21.252l-.833-.756z" opacity=".4"/><path d="M34.905 12.706l.65-1.443a.28.28 0 0 1 .516 0l.65 1.443 1.444.65a.28.28 0 0 1 0 .516l-1.444.65-.65 1.443a.28.28 0 0 1-.516 0l-.65-1.443-1.444-.65a.28.28 0 0 1 0-.516l1.444-.65z"/></g><path fill="#f85565" d="M19.164 14.695v6.944l4.54 2.564 4.515-2.56.026-6.948-4.54-2.594z"/><path fill="#fff" opacity=".15" d="M20.173 15.828v4.588l3.027 1.77 3.027-1.705v-4.653L23.2 14.12z"/><path fill="#393c54" opacity=".2" d="M28.245 21.46l-1.815-1.3-3.23 1.76v2.274z"/><path fill="#fff" opacity=".3" d="M23.2 12.102v2.3l-3.212 1.724-1.834-1.32z"/></g><path stroke="#f2bc0f" stroke-width="4" stroke-linecap="round" d="M2.3 29.6H46.1"/></svg>