<svg xmlns="http://www.w3.org/2000/svg" width="18" height="15" fill="none" xmlns:v="https://vecta.io/nano"><path d="M14.438 13.438a.44.44 0 0 1 .301.137.44.44 0 0 1 .137.301v.438c0 .137-.055.246-.137.328s-.191.109-.301.109H3.063c-.137 0-.246-.027-.328-.109s-.109-.191-.109-.328v-.437c0-.109.027-.219.109-.301s.191-.137.328-.137h11.375zm1.75-9.187c.355 0 .656.137.93.383.246.273.383.574.383.93 0 .383-.137.684-.383.93-.273.273-.574.383-.93.383l-.219-.027L14 12.125H3.5L1.531 6.848l-.219.027c-.383 0-.684-.109-.93-.383C.109 6.246 0 5.945 0 5.563c0-.355.109-.656.383-.93.246-.246.547-.383.93-.383.355 0 .656.137.93.383.246.273.383.574.383.93 0 .191-.055.383-.109.547l1.969 1.176c.137.109.273.137.438.137s.301-.027.438-.109.246-.191.328-.328l2.242-3.91c-.328-.273-.492-.602-.492-1.012 0-.355.109-.656.383-.93.246-.246.547-.383.93-.383.355 0 .656.137.93.383.246.273.383.574.383.93 0 .41-.164.738-.492 1.012l2.242 3.91c.055.137.164.246.301.328s.273.109.438.109.301-.027.465-.137l1.969-1.176c-.082-.164-.109-.355-.109-.547a1.24 1.24 0 0 1 .383-.93c.246-.246.547-.383.93-.383zm-3.09 6.563l.984-2.625-.383.219a2.13 2.13 0 0 1-1.121.328c-.41 0-.793-.082-1.121-.301-.328-.191-.602-.465-.793-.82L8.75 4.277 6.836 7.613c-.219.355-.492.629-.82.82-.328.219-.711.301-1.094.301-.41 0-.793-.109-1.121-.328l-.383-.219.984 2.625h8.695z" fill="#ffc300"/></svg>