<svg xmlns="http://www.w3.org/2000/svg" width="112" height="73" xmlns:v="https://vecta.io/nano"><path d="M35.636.464C15.985.464 0 16.55 0 36.323a2.57 2.57 0 0 0 1.262 2.25 2.53 2.53 0 0 0 2.566 0c.793-.466 1.275-1.325 1.262-2.25 0-17.006 13.646-30.737 30.545-30.737 5.984 0 11.56 1.744 16.267 4.723-6.865 6.54-11.176 15.772-11.176 26.014 0 10.248 4.305 19.513 11.176 26.054-4.703 2.972-10.3 4.683-16.267 4.683-13.587 0-25.05-8.912-29.034-21.212A2.56 2.56 0 0 0 4.7 44.135c-.893-.188-1.818.117-2.426.8a2.58 2.58 0 0 0-.524 2.514c4.654 14.368 18.088 24.734 33.886 24.734 7.563 0 14.6-2.385 20.364-6.444 5.775 4.06 12.8 6.444 20.364 6.444 19.65 0 35.636-16.085 35.636-35.86S96.015.464 76.364.464C68.8.464 61.775 2.9 56 6.947 50.225 2.9 43.2.464 35.636.464zm40.727 5.123c16.9 0 30.545 13.73 30.545 30.737S93.264 67.06 76.364 67.06c-5.976 0-11.564-1.7-16.267-4.683 6.87-6.54 11.176-15.807 11.176-26.054S66.96 16.85 60.097 10.31c4.707-2.98 10.283-4.723 16.267-4.723zM56 13.43c2.766 2.487 5.043 5.456 6.76 8.805H49.24c1.718-3.35 3.995-6.318 6.76-8.805zm-8.87 13.93h17.74c.62 2.05 1 4.194 1.193 6.404H45.938c.182-2.2.573-4.353 1.193-6.404zm-1.193 11.526h20.125c-.18 2.2-.576 4.352-1.193 6.404H47.13c-.618-2.052-1.014-4.193-1.193-6.404zM49.2 50.4h13.6c-1.72 3.368-4.022 6.346-6.8 8.845-2.78-2.5-5.08-5.477-6.8-8.845z" fill="#f7b500"/></svg>