<svg width="52" height="40" viewBox="0 0 52 40" fill="none" xmlns="http://www.w3.org/2000/svg">
<ellipse cx="20.7208" cy="20" rx="20.717" ry="20" fill="white" fill-opacity="0.3"/>
<path fill-rule="evenodd" clip-rule="evenodd" d="M32 0C30.7715 0 29.8814 0.602623 29.1266 1.11369L29.0278 1.18055C28.2518 1.70429 27.5566 2.15024 27.2361 2.23611C26.9157 2.32197 26.1006 2.27388 25.1667 2.20833L25.0765 2.20195C24.161 2.13691 23.0752 2.05977 22 2.68055C20.9363 3.29465 20.4647 4.26613 20.0664 5.0864L20.0139 5.19443C19.6037 6.036 19.2346 6.76539 19 6.99998C18.7654 7.23457 18.0221 7.6037 17.1806 8.01387L17.0908 8.05756C16.2676 8.4577 15.2992 8.92846 14.6806 9.99997C14.0701 11.0574 14.1471 12.125 14.2125 13.0308L14.2222 13.1666C14.2878 14.1005 14.322 14.9156 14.2361 15.2361C14.1502 15.5565 13.7043 16.2517 13.1805 17.0277L13.1136 17.1267C12.6026 17.8815 12 18.7715 12 20C12 21.2285 12.6026 22.1185 13.1137 22.8733L13.1806 22.9722C13.7043 23.7482 14.1502 24.4434 14.2361 24.7638C14.322 25.0843 14.2878 25.8994 14.2222 26.8333L14.2125 26.9691C14.1471 27.875 14.0701 28.9425 14.6806 29.9999C15.2992 31.0714 16.2675 31.5421 17.0907 31.9423L17.1806 31.986C18.0222 32.3962 18.7654 32.7654 19 32.9999C19.2346 33.2345 19.6037 33.9639 20.0139 34.8055L20.0664 34.9135C20.4647 35.7338 20.9364 36.7052 22 37.3193C23.0574 37.9298 24.125 37.8528 25.0308 37.7874L25.1667 37.7777C26.1006 37.7121 26.9157 37.678 27.2361 37.7639C27.5566 37.8498 28.2518 38.2957 29.0278 38.8195L29.1268 38.8864C29.8816 39.3974 30.7716 40 32 40C33.2285 40 34.1185 39.3974 34.8733 38.8863L34.9722 38.8194C35.7482 38.2957 36.4434 37.8497 36.7639 37.7639C37.0843 37.678 37.8994 37.7122 38.8333 37.7777L38.9691 37.7874C39.8749 37.8528 40.9426 37.9299 42 37.3193C43.0637 36.7052 43.5353 35.7337 43.9336 34.9134L43.9861 34.8054C44.3963 33.9639 44.7654 33.2345 45 32.9999C45.2346 32.7653 45.9779 32.3962 46.8194 31.986L46.9093 31.9423C47.7324 31.5422 48.7008 31.0714 49.3194 29.9999C49.9402 28.9246 49.8631 27.8388 49.798 26.9233L49.7917 26.8332C49.7261 25.8993 49.678 25.0843 49.7639 24.7638C49.8498 24.4434 50.2957 23.7481 50.8194 22.9721L50.8862 22.8734C51.3973 22.1186 52 21.2285 52 20C52 18.7714 51.3974 17.8814 50.8863 17.1266L50.8194 17.0277C50.2957 16.2517 49.8498 15.5565 49.7639 15.2361C49.678 14.9156 49.7261 14.1005 49.7917 13.1666L49.798 13.0766C49.8631 12.1611 49.9402 11.0752 49.3194 9.99997C48.7008 8.92847 47.7324 8.45771 46.9093 8.05757L46.8194 8.01387C45.9779 7.6037 45.2346 7.23457 45 6.99998C44.7654 6.76539 44.3963 6.036 43.9861 5.19443L43.9336 5.0864C43.5353 4.26613 43.0636 3.29465 42 2.68055C40.9248 2.05977 39.839 2.13691 38.9235 2.20195L38.8333 2.20833C37.8994 2.27389 37.0843 2.32196 36.7639 2.23611C36.4434 2.15024 35.7482 1.70429 34.9722 1.18055L34.8734 1.1137C34.1186 0.602631 33.2286 0 32 0ZM32 2.66663C32.1959 2.66663 32.7674 2.91318 33.4722 3.38885C33.5963 3.47259 33.7228 3.56199 33.8532 3.65407C34.4633 4.08504 35.1568 4.57486 36.0694 4.8194C36.9754 5.06215 37.8017 4.9848 38.5367 4.916L38.5368 4.916C38.7004 4.90069 38.8594 4.8858 39.0139 4.87495C39.8621 4.81541 40.497 4.88811 40.6666 4.98606C40.8363 5.08401 41.2108 5.59672 41.5833 6.36106C41.6493 6.49654 41.7145 6.63794 41.7815 6.78342L41.7817 6.78378L41.7817 6.78397L41.7818 6.78406L41.7818 6.78414L41.7819 6.78423C42.0928 7.45926 42.4442 8.22197 43.1111 8.88883C43.7779 9.55564 44.5405 9.907 45.2155 10.218C45.3614 10.2851 45.5031 10.3504 45.6389 10.4166C46.4032 10.7891 46.9159 11.1636 47.0139 11.3333C47.1118 11.5029 47.1845 12.1378 47.125 12.986C47.115 13.1282 47.102 13.2744 47.0886 13.4244C47.0222 14.169 46.9474 15.0085 47.1944 15.9305C47.4426 16.8567 47.9337 17.5571 48.366 18.1738C48.4507 18.2946 48.5331 18.4122 48.6111 18.5277C49.0868 19.2325 49.3333 19.804 49.3333 19.9999C49.3333 20.1958 49.0868 20.7812 48.6111 21.486C48.5293 21.6072 48.4425 21.7303 48.3534 21.8568L48.3525 21.858L48.3525 21.8581C47.9235 22.4668 47.44 23.1528 47.1944 24.0693C46.947 24.9928 47.0224 25.8431 47.0889 26.5919V26.5919C47.1022 26.7413 47.1151 26.8866 47.125 27.0277C47.1845 27.8759 47.1119 28.4969 47.0139 28.6666C46.9159 28.8362 46.4032 29.2107 45.6389 29.5832C45.5133 29.6444 45.3827 29.7052 45.2485 29.7677C44.5654 30.0857 43.7887 30.4472 43.1111 31.1249C42.4442 31.7917 42.0929 32.5545 41.7819 33.2295C41.7147 33.3752 41.6495 33.5169 41.5833 33.6526C41.2108 34.417 40.8363 34.9158 40.6666 35.0138C40.497 35.1117 39.8621 35.1844 39.0139 35.1249C38.8716 35.1149 38.7253 35.1019 38.5752 35.0885C37.8306 35.0221 36.9912 34.9473 36.0694 35.1943C35.1432 35.4425 34.4428 35.9335 33.8261 36.3659C33.7053 36.4506 33.5877 36.5331 33.4722 36.611C32.7674 37.0867 32.1959 37.3332 32 37.3332C31.8041 37.3332 31.2186 37.0867 30.5139 36.611C30.3923 36.5289 30.2688 36.4419 30.1419 36.3525L30.1418 36.3524C29.5331 35.9234 28.8471 35.4399 27.9305 35.1943C27.0072 34.9469 26.1569 35.0224 25.4082 35.0888L25.4081 35.0888C25.2587 35.1021 25.1133 35.115 24.9722 35.1249C24.124 35.1844 23.5029 35.1115 23.3333 35.0138C23.1636 34.9158 22.7892 34.417 22.4166 33.6526C22.3556 33.5274 22.2949 33.3972 22.2326 33.2633L22.2323 33.2626L22.2322 33.2623C21.9142 32.5793 21.5527 31.8026 20.875 31.1249C20.1973 30.4472 19.4206 30.0857 18.7375 29.7677L18.7374 29.7676L18.7371 29.7675C18.603 29.7051 18.4726 29.6444 18.3472 29.5832C17.5828 29.2107 17.084 28.8362 16.9861 28.6666C16.8881 28.4969 16.8154 27.8759 16.875 27.0277C16.8849 26.8866 16.8978 26.7413 16.911 26.5919L16.911 26.5919L16.911 26.5919L16.911 26.5919L16.911 26.5919L16.911 26.5919C16.9775 25.8431 17.0529 24.9927 16.8055 24.0693C16.5599 23.1528 16.0765 22.4669 15.6475 21.8582C15.558 21.7312 15.4709 21.6076 15.3888 21.486C14.9132 20.7812 14.6666 20.1958 14.6666 19.9999C14.6666 19.804 14.9132 19.2325 15.3888 18.5277C15.4667 18.4123 15.5491 18.2948 15.6338 18.174L15.6339 18.1738L15.634 18.1737L15.634 18.1737C16.0663 17.557 16.5574 16.8566 16.8055 15.9305C17.0525 15.0086 16.9777 14.1691 16.9113 13.4244L16.9113 13.4244L16.9113 13.4244C16.898 13.2744 16.8849 13.1283 16.875 12.986C16.8154 12.1378 16.8881 11.5029 16.9861 11.3333C17.084 11.1636 17.5828 10.7891 18.3472 10.4166C18.4829 10.3505 18.6246 10.2852 18.7703 10.218L18.7705 10.218C19.4455 9.90701 20.2081 9.55565 20.875 8.88883C21.5527 8.21112 21.9142 7.43441 22.2322 6.75135L22.2322 6.75131C22.2947 6.61713 22.3555 6.48656 22.4166 6.36106C22.7892 5.59672 23.1636 5.08401 23.3333 4.98606C23.5029 4.88812 24.124 4.81541 24.9722 4.87495C25.1255 4.88572 25.2839 4.90048 25.4471 4.91568C26.1863 4.98456 27.0231 5.06253 27.9305 4.8194C28.8343 4.57724 29.5138 4.09455 30.1162 3.66667L30.1163 3.6666C30.2522 3.5701 30.3841 3.47638 30.5139 3.38885C31.2186 2.91318 31.8041 2.66663 32 2.66663ZM21.7778 14.6667C21.7778 11.9824 23.9825 9.77783 26.6667 9.77783C29.351 9.77783 31.5556 11.9824 31.5556 14.6667C31.5556 17.351 29.351 19.5556 26.6667 19.5556C23.9824 19.5556 21.7778 17.351 21.7778 14.6667ZM38.9582 11.5415C38.6561 11.5814 38.3767 11.7235 38.1666 11.9443L23.9444 26.1665C23.5725 26.496 23.4147 27.0048 23.5348 27.4869C23.6549 27.9689 24.033 28.3442 24.5159 28.4608C24.9989 28.5773 25.5065 28.4157 25.8332 28.0415L40.0555 13.8193C40.4657 13.4193 40.5745 12.802 40.3259 12.2859C40.0772 11.7697 39.5267 11.4701 38.9582 11.5415ZM28.8889 14.6667C28.8889 13.4236 27.9098 12.4445 26.6667 12.4445C25.4236 12.4445 24.4445 13.4236 24.4445 14.6667C24.4445 15.9097 25.4236 16.8889 26.6667 16.8889C27.9097 16.8889 28.8889 15.9097 28.8889 14.6667ZM37.3334 20.4443C34.6491 20.4443 32.4445 22.649 32.4445 25.3332C32.4445 28.0175 34.6491 30.2221 37.3334 30.2221C40.0176 30.2221 42.2223 28.0175 42.2223 25.3332C42.2223 22.649 40.0176 20.4443 37.3334 20.4443ZM39.5556 25.3333C39.5556 24.0903 38.5764 23.1111 37.3333 23.1111C36.0903 23.1111 35.1111 24.0903 35.1111 25.3333C35.1111 26.5764 36.0903 27.5555 37.3333 27.5555C38.5764 27.5555 39.5556 26.5764 39.5556 25.3333Z" fill="#262626"/>
</svg>
