<svg xmlns="http://www.w3.org/2000/svg" width="38" height="32" fill-rule="evenodd" xmlns:v="https://vecta.io/nano"><circle fill="#ffdc68" opacity=".5" cx="16" cy="16" r="16"/><path d="M25.6 3.297c-.77 0-1.318.394-1.783.708s-.883.582-1.075.633-.68.023-1.242-.017-1.234-.1-1.9.283-.946 1.003-1.192 1.508-.468.943-.608 1.083-.587.362-1.092.608-1.115.525-1.5 1.192-.314 1.34-.275 1.9.06 1.05.008 1.242-.32.6-.633 1.075-.708 1.014-.708 1.783.394 1.318.708 1.783.582.883.633 1.075.03.68-.008 1.242-.1 1.234.275 1.9.995.946 1.5 1.192.95.468 1.092.608.362.578.608 1.083.525 1.124 1.192 1.508 1.34.314 1.9.275 1.05-.06 1.242-.008.6.32 1.075.633 1.014.708 1.783.708 1.318-.394 1.783-.708.883-.582 1.075-.633.68-.03 1.242.008 1.234.1 1.9-.275.946-1.003 1.192-1.508.468-.943.608-1.083.587-.362 1.092-.608 1.115-.525 1.5-1.192.323-1.34.283-1.9-.068-1.05-.017-1.242.32-.6.633-1.075.708-1.014.708-1.783-.394-1.318-.708-1.783-.582-.883-.633-1.075-.023-.68.017-1.242.1-1.234-.283-1.9-.995-.946-1.5-1.192-.95-.468-1.092-.608-.362-.578-.608-1.083S32.266 5.3 31.6 4.905s-1.34-.323-1.9-.283-1.05.068-1.242.017-.6-.32-1.075-.633-1.014-.708-1.783-.708h0zm0 1.6c.118 0 .46.148.883.433s.894.68 1.558.858 1.258.07 1.767.033.9.008.992.067.326.366.55.825.43 1.03.917 1.517 1.058.693 1.517.917.766.448.825.55.102.483.067.992-.136 1.102.042 1.767.565 1.135.85 1.558.433.766.433.883-.148.47-.433.892-.672.885-.85 1.55-.077 1.266-.042 1.775-.008.882-.067.983-.366.326-.825.55-1.03.438-1.517.925-.693 1.058-.917 1.517-.448.758-.55.817-.483.102-.992.067-1.102-.136-1.767.042-1.135.565-1.558.85-.766.433-.883.433-.47-.148-.892-.433-.885-.672-1.55-.85-1.266-.077-1.775-.042-.882-.008-.983-.067-.326-.358-.55-.817-.438-1.03-.925-1.517-1.058-.7-1.517-.925-.758-.448-.817-.55-.102-.474-.067-.983.136-1.1-.042-1.775-.565-1.127-.85-1.55-.433-.774-.433-.892.148-.46.433-.883.672-.894.85-1.558.077-1.258.042-1.767.008-.9.067-.992.358-.326.817-.55 1.03-.43 1.517-.917.7-1.058.925-1.517.448-.766.55-.825.474-.102.983-.067 1.1.145 1.775-.033 1.127-.573 1.55-.858.774-.433.892-.433h0zm-3.2 4.267c-1.6 0-2.933 1.323-2.933 2.933S20.8 15.03 22.4 15.03s2.933-1.323 2.933-2.933A2.95 2.95 0 0 0 22.4 9.163zm7.375 1.058a.8.8 0 0 0-.475.242l-8.533 8.533a.8.8 0 1 0 1.133 1.125l8.533-8.533a.8.8 0 0 0-.658-1.367h0zm-7.375.542a1.32 1.32 0 0 1 1.333 1.333A1.32 1.32 0 0 1 22.4 13.43a1.32 1.32 0 0 1-1.333-1.333 1.32 1.32 0 0 1 1.333-1.333zm6.4 4.8c-1.6 0-2.933 1.323-2.933 2.933S27.2 21.43 28.8 21.43s2.933-1.323 2.933-2.933-1.323-2.933-2.933-2.933h0zm0 1.6a1.32 1.32 0 0 1 1.333 1.333 1.333 1.333 0 1 1-2.667 0 1.32 1.32 0 0 1 1.333-1.333h0z" fill-rule="nonzero"/></svg>