<svg width="26" height="26" viewBox="0 0 26 26" fill="none" xmlns="http://www.w3.org/2000/svg">
<path id="Shape" fill-rule="evenodd" clip-rule="evenodd" d="M13 0C12.2015 0 11.6229 0.391705 11.1323 0.723898L11.0681 0.767359C10.5637 1.10779 10.1118 1.39766 9.90347 1.45347C9.69518 1.50928 9.16537 1.47802 8.55833 1.43541L8.49973 1.43127C7.90466 1.38899 7.1989 1.33885 6.5 1.74236C5.80863 2.14152 5.50204 2.77298 5.24317 3.30616L5.20903 3.37638C4.94242 3.9234 4.70248 4.3975 4.55 4.54999C4.39752 4.70247 3.91438 4.9424 3.36736 5.20901L3.30899 5.23741C2.77394 5.49751 2.14448 5.8035 1.74236 6.49998C1.34555 7.18729 1.39563 7.88123 1.43813 8.47L1.44444 8.55831C1.48706 9.16535 1.50928 9.69515 1.45346 9.90345C1.39765 10.1117 1.10778 10.5636 0.767347 11.068L0.723843 11.1323C0.391674 11.623 0 12.2015 0 13C0 13.7985 0.391706 14.377 0.723896 14.8677L0.767361 14.9319C1.10779 15.4363 1.39766 15.8882 1.45347 16.0965C1.50929 16.3048 1.48707 16.8346 1.44446 17.4416L1.43814 17.5299C1.39565 18.1187 1.34556 18.8127 1.74238 19.5C2.14447 20.1964 2.7739 20.5024 3.30892 20.7625L3.36738 20.7909C3.9144 21.0575 4.39753 21.2975 4.55001 21.45C4.7025 21.6024 4.94243 22.0765 5.20904 22.6236L5.24318 22.6938C5.50205 23.227 5.80864 23.8584 6.50001 24.2576C7.18732 24.6544 7.88125 24.6043 8.47002 24.5618L8.55835 24.5555C9.16539 24.5129 9.69519 24.4907 9.90349 24.5465C10.1118 24.6024 10.5637 24.8922 11.0681 25.2327L11.1324 25.2762C11.623 25.6083 12.2015 26 13 26C13.7985 26 14.377 25.6083 14.8676 25.2761L14.9319 25.2326C15.4364 24.8922 15.8882 24.6023 16.0965 24.5465C16.3048 24.4907 16.8346 24.5129 17.4417 24.5555L17.5299 24.5618C18.1187 24.6043 18.8127 24.6544 19.5 24.2576C20.1914 23.8584 20.498 23.2269 20.7569 22.6937L20.791 22.6235C21.0576 22.0765 21.2975 21.6024 21.45 21.4499C21.6025 21.2974 22.0856 21.0575 22.6326 20.7909L22.691 20.7625C23.2261 20.5024 23.8555 20.1964 24.2576 19.4999C24.6612 18.801 24.611 18.0952 24.5687 17.5001L24.5646 17.4416C24.522 16.8346 24.4907 16.3048 24.5465 16.0965C24.6023 15.8882 24.8922 15.4363 25.2326 14.9319L25.2761 14.8677C25.6083 14.3771 26 13.7985 26 13C26 12.2014 25.6083 11.6229 25.2761 11.1323L25.2326 11.068C24.8922 10.5636 24.6023 10.1117 24.5465 9.90345C24.4907 9.69515 24.5219 9.16535 24.5646 8.55831L24.5687 8.49978C24.611 7.90469 24.6612 7.19891 24.2576 6.49998C23.8555 5.80351 23.2261 5.49751 22.691 5.23742L22.6326 5.20901C22.0856 4.9424 21.6025 4.70247 21.45 4.54999C21.2975 4.3975 21.0576 3.9234 20.791 3.37638L20.7568 3.30615C20.498 2.77298 20.1914 2.14152 19.5 1.74236C18.8011 1.33885 18.0953 1.38899 17.5003 1.43127L17.4417 1.43541C16.8346 1.47803 16.3048 1.50927 16.0965 1.45347C15.8882 1.39766 15.4364 1.10779 14.9319 0.767359L14.8677 0.723905C14.3771 0.391711 13.7986 0 13 0ZM13 1.73333C13.1274 1.73333 13.4988 1.89359 13.9569 2.20277C14.0376 2.2572 14.1199 2.31531 14.2046 2.37516L14.2046 2.37517C14.6012 2.65529 15.0519 2.97368 15.6451 3.13263C16.234 3.29042 16.7711 3.24014 17.2489 3.19542C17.3552 3.18547 17.4586 3.17579 17.559 3.16874C18.1104 3.13004 18.5231 3.17729 18.6333 3.24096C18.7436 3.30463 18.987 3.63789 19.2292 4.13471C19.2722 4.22293 19.3146 4.315 19.3582 4.40974L19.3582 4.40977C19.5604 4.84854 19.7888 5.3443 20.2222 5.77776C20.6556 6.21119 21.1514 6.43957 21.5901 6.6417C21.6849 6.68536 21.777 6.7278 21.8653 6.77082C22.3621 7.01296 22.6954 7.25638 22.759 7.36665C22.8227 7.47692 22.87 7.88962 22.8313 8.44095C22.8248 8.53338 22.8163 8.62837 22.8076 8.72587C22.7645 9.20991 22.7158 9.75557 22.8764 10.3548C23.0377 10.9569 23.3569 11.4121 23.6379 11.813C23.693 11.8915 23.7466 11.968 23.7972 12.043C24.1064 12.5011 24.2666 12.8726 24.2667 13C24.2667 13.1273 24.1064 13.5078 23.7972 13.9659C23.7439 14.045 23.6873 14.1253 23.6291 14.2078C23.3503 14.6035 23.036 15.0493 22.8764 15.6451C22.7156 16.2453 22.7646 16.7981 22.8078 17.2848L22.8078 17.2848L22.8078 17.2849C22.8164 17.382 22.8248 17.4764 22.8313 17.568C22.87 18.1193 22.8227 18.523 22.759 18.6333C22.6954 18.7436 22.3621 18.987 21.8653 19.2291C21.7837 19.2689 21.6989 19.3084 21.6117 19.349L21.6115 19.349C21.1676 19.5557 20.6627 19.7907 20.2222 20.2312C19.7888 20.6647 19.5604 21.1604 19.3582 21.5992C19.3146 21.6939 19.2722 21.786 19.2292 21.8742C18.987 22.3711 18.7436 22.6953 18.6333 22.759C18.5231 22.8226 18.1104 22.8699 17.559 22.8312C17.4665 22.8247 17.3715 22.8162 17.2739 22.8075C16.7899 22.7644 16.2443 22.7158 15.6451 22.8763C15.0431 23.0377 14.5878 23.3568 14.187 23.6379L14.1869 23.6379C14.1084 23.693 14.032 23.7465 13.9569 23.7972C13.4988 24.1064 13.1274 24.2666 13 24.2666C12.8727 24.2666 12.4921 24.1064 12.034 23.7972C11.955 23.7438 11.8747 23.6873 11.7923 23.6291L11.7922 23.6291C11.3965 23.3502 10.9506 23.036 10.3549 22.8763C9.75471 22.7155 9.20204 22.7646 8.71537 22.8077C8.61822 22.8164 8.52369 22.8247 8.43194 22.8312C7.88061 22.8699 7.47694 22.8225 7.36667 22.759C7.25639 22.6953 7.01297 22.3711 6.77083 21.8742C6.73107 21.7927 6.69155 21.7078 6.65094 21.6205C6.44427 21.1766 6.20925 20.6717 5.76875 20.2312C5.32825 19.7907 4.82341 19.5557 4.37943 19.349L4.37932 19.349C4.29211 19.3084 4.20726 19.2689 4.12569 19.2291C3.62888 18.987 3.30464 18.7436 3.24097 18.6333C3.17731 18.523 3.13004 18.1193 3.16875 17.568C3.17519 17.4763 3.18357 17.3819 3.19219 17.2848L3.19219 17.2847C3.23539 16.798 3.28444 16.2453 3.12361 15.6451C2.96399 15.0494 2.64976 14.6035 2.37091 14.2078L2.37088 14.2078L2.37084 14.2077L2.37081 14.2077L2.37077 14.2076L2.37063 14.2074C2.31257 14.1251 2.25605 14.0449 2.20278 13.9659C1.89359 13.5078 1.73333 13.1273 1.73333 13C1.73333 12.8726 1.89359 12.5011 2.20278 12.043C2.25337 11.9681 2.3069 11.8917 2.36189 11.8133L2.36193 11.8132L2.36201 11.8131L2.36212 11.8129L2.36213 11.8129C2.64314 11.4121 2.96231 10.9568 3.12361 10.3548C3.28418 9.75558 3.23554 9.20994 3.1924 8.72591C3.18371 8.6284 3.17524 8.53339 3.16875 8.44095C3.13004 7.88962 3.1773 7.47692 3.24097 7.36665C3.30464 7.25638 3.62888 7.01296 4.12569 6.77082C4.21394 6.72781 4.30604 6.68538 4.4008 6.64172L4.40081 6.64171L4.40082 6.64171L4.40083 6.64171C4.83958 6.43958 5.33532 6.21119 5.76875 5.77776C6.20926 5.33725 6.44427 4.83239 6.65095 4.3884C6.69156 4.30117 6.73107 4.21629 6.77083 4.13471C7.01297 3.63789 7.25639 3.30463 7.36667 3.24096C7.47694 3.1773 7.88061 3.13004 8.43194 3.16874C8.53162 3.17574 8.63457 3.18533 8.74061 3.19521C9.22112 3.23999 9.76506 3.29067 10.3549 3.13263C10.9423 2.97523 11.384 2.66148 11.7756 2.38336C11.8639 2.32061 11.9497 2.25968 12.034 2.20277C12.4921 1.89359 12.8727 1.73333 13 1.73333ZM6.35556 9.53331C6.35556 7.78853 7.78857 6.35554 9.53333 6.35554C11.2781 6.35554 12.7111 7.78853 12.7111 9.53331C12.7111 11.2781 11.2781 12.7111 9.53333 12.7111C7.78856 12.7111 6.35556 11.2781 6.35556 9.53331ZM17.5229 7.50206C17.3265 7.52796 17.1449 7.62036 17.0083 7.76387L7.76389 17.0083C7.52221 17.2225 7.41962 17.5532 7.49768 17.8665C7.57574 18.1799 7.82152 18.4238 8.13542 18.4996C8.44932 18.5753 8.7793 18.4703 8.99167 18.227L18.2361 8.98262C18.5027 8.72263 18.5735 8.3214 18.4119 7.9859C18.2503 7.6504 17.8924 7.45563 17.5229 7.50206ZM10.9778 9.53331C10.9778 8.7253 10.3413 8.08887 9.53333 8.08887C8.72533 8.08887 8.08889 8.7253 8.08889 9.53331C8.08889 10.3413 8.72535 10.9777 9.53333 10.9777C10.3413 10.9777 10.9778 10.3413 10.9778 9.53331ZM16.4667 13.2889C14.7219 13.2889 13.2889 14.7219 13.2889 16.4666C13.2889 18.2114 14.7219 19.6444 16.4667 19.6444C18.2114 19.6444 19.6444 18.2114 19.6444 16.4666C19.6444 14.7219 18.2114 13.2889 16.4667 13.2889ZM17.9111 16.4666C17.9111 15.6587 17.2747 15.0222 16.4667 15.0222C15.6587 15.0222 15.0222 15.6587 15.0222 16.4666C15.0222 17.2747 15.6587 17.9111 16.4667 17.9111C17.2747 17.9111 17.9111 17.2747 17.9111 16.4666Z" fill="black"/>
</svg>
