<svg width="35" height="45" fill="none" xmlns="http://www.w3.org/2000/svg"><path d="M32.386 7.888 24.724.226A.77.77 0 0 0 24.18 0H3.03a.77.77 0 0 0-.77.77v37.917a.77.77 0 0 0 .77.77h3.867a11.175 11.175 0 1 1 21.077 0h3.866a.77.77 0 0 0 .771-.77V8.433a.77.77 0 0 0-.226-.545z" fill="#F1F1F1"/><path d="M17.825 26.35a9.324 9.324 0 1 0 9.325 9.325 9.335 9.335 0 0 0-9.325-9.324zm-2.677 6.15 2.238-2.237a.621.621 0 0 1 .88 0l2.238 2.238a.624.624 0 0 1 .008.886.622.622 0 0 1-.887-.008l-1.178-1.176v5.462a.622.622 0 0 1-1.244 0v-5.462l-1.176 1.176a.623.623 0 0 1-1.019-.677.623.623 0 0 1 .14-.201zm7.215 6.905a.621.621 0 0 1-.621.622h-7.833a.622.622 0 0 1-.622-.622v-1.74a.622.622 0 0 1 1.243 0v1.118h6.59v-1.118a.622.622 0 1 1 1.243 0v1.74z" fill="#00EBA9"/><path d="M2.26 8.128.178 10.216h2.08V8.128zM32.586 8.128l2.081 2.088h-2.08V8.128z" fill="#CCC"/><path d="M32.587 8.24a.761.761 0 0 0-.2-.352L24.723.226A.77.77 0 0 0 24.18 0v7.315a.925.925 0 0 0 .925.925h7.483z" fill="#CCC"/><path d="M32.587 8.24h-7.482a.925.925 0 0 1-.925-.924v.786c0 .51.318 1.156.954 1.156h7.476v-.825a.505.505 0 0 0-.023-.192z" fill="#E8E8E8"/><path d="M34.08 23.297H.77a.77.77 0 0 1-.77-.77V10.708a.77.77 0 0 1 .77-.77h33.31a.77.77 0 0 1 .77.77v11.817a.77.77 0 0 1-.77.77v.001z" fill="#fff"/><path d="M2.26 23.297h30.352v1.002H2.26v-1.002z" fill="#E0E0E0"/><path d="M6.904 19.604a.654.654 0 0 1-.17-.486v-4.125a.592.592 0 0 1 .656-.655h1.558c.602 0 1.12.11 1.554.328.42.204.77.53 1.002.937.23.406.346.889.346 1.45a2.99 2.99 0 0 1-.342 1.463 2.265 2.265 0 0 1-.995.937c-.435.216-.955.324-1.562.324H7.39a.66.66 0 0 1-.486-.173zm1.943-.971c.53 0 .927-.13 1.192-.39.264-.26.396-.657.396-1.19 0-.536-.132-.931-.396-1.188-.265-.257-.662-.386-1.192-.386h-.693v3.154h.693zM13.833 19.5a2.337 2.337 0 0 1-.945-.971 3.456 3.456 0 0 1 0-2.953c.211-.41.54-.747.945-.968a3.25 3.25 0 0 1 2.891 0c.404.221.732.559.94.97a3.473 3.473 0 0 1-.004 2.953c-.212.41-.54.747-.944.97a3.193 3.193 0 0 1-2.883 0V19.5zm2.409-1.18c.23-.29.346-.712.346-1.268 0-.555-.116-.977-.35-1.264-.233-.289-.553-.432-.96-.432-.406 0-.727.143-.964.428-.23.285-.347.708-.347 1.268s.116.985.347 1.273c.232.287.553.43.964.431.412 0 .733-.144.964-.435zM19.978 19.508a2.328 2.328 0 0 1-.949-.971 3.419 3.419 0 0 1 0-2.954c.213-.41.544-.749.949-.971a3.15 3.15 0 0 1 3.15.177.61.61 0 0 1 .189.2.586.586 0 0 1 .057.278.627.627 0 0 1-.135.405.41.41 0 0 1-.328.166.599.599 0 0 1-.208-.035 1.236 1.236 0 0 1-.216-.112 2.162 2.162 0 0 0-.508-.23 1.773 1.773 0 0 0-.494-.07c-.457 0-.798.137-1.021.412-.224.275-.336.693-.336 1.253 0 .565.112.985.335 1.26.224.276.565.414 1.022.413.153 0 .304-.027.447-.077.145-.048.33-.125.555-.231.108-.057.188-.096.24-.116a.506.506 0 0 1 .184-.03.408.408 0 0 1 .328.165.626.626 0 0 1 .135.405.588.588 0 0 1-.057.273.579.579 0 0 1-.19.205 3.16 3.16 0 0 1-3.149.184zM28.57 19.172a.617.617 0 0 1-.204.463.641.641 0 0 1-.462.197.604.604 0 0 1-.47-.231l-1.326-1.588-1.346 1.583a.598.598 0 0 1-.714.178.638.638 0 0 1-.21-.148.628.628 0 0 1-.205-.462.634.634 0 0 1 .162-.416l1.48-1.712-1.442-1.673a.64.64 0 0 1-.17-.417.617.617 0 0 1 .205-.458.656.656 0 0 1 .467-.197.606.606 0 0 1 .47.231l1.303 1.542 1.296-1.542a.562.562 0 0 1 .455-.231.652.652 0 0 1 .466.197.618.618 0 0 1 .042.875l-1.442 1.673 1.473 1.712c.109.114.17.266.173.424z" fill="#29ABE1"/></svg>