<?xml version="1.0" encoding="UTF-8"?>
<svg width="64px" height="53px" viewBox="0 0 64 53" version="1.1" xmlns="http://www.w3.org/2000/svg" xmlns:xlink="http://www.w3.org/1999/xlink">
    <title>Group 27</title>
    <g id="Explorations" stroke="none" stroke-width="1" fill="none" fill-rule="evenodd">
        <g id="Topfold-pes-changes-" transform="translate(-570.000000, -2563.000000)">
            <g id="Group-27" transform="translate(570.000000, 2563.000000)">
                <circle id="Oval-Copy-2" fill="#C2F4EA" cx="26.5" cy="26.5" r="26.5"></circle>
                <g id="Group-30" transform="translate(29.000000, 5.192301)">
                    <path d="M26.2499374,40.0076866 C28.320245,40.0076866 29.9999285,38.3280031 29.9999285,36.2576955 L29.9999285,10.3124754 C29.9999285,9.32027502 29.6015224,8.35935507 28.8983991,7.65623175 L22.3436967,1.10152936 C21.6405734,0.398406033 20.6874354,0 19.695235,0 L3.74999106,0 C1.6796835,0.00778196387 0,1.68746546 0,3.75777302 L0,36.2576955 C0,38.3280031 1.6796835,40.0076866 3.74999106,40.0076866 L26.2499374,40.0076866 Z M26.2499374,37.5076926 L3.74999106,37.5076926 C3.06250796,37.5076926 2.49999404,36.9451786 2.49999404,36.2576955 L2.49999404,3.75777302 C2.49999404,3.07028992 3.06250796,2.507776 3.74999106,2.507776 L17.4999583,2.507776 L17.4999583,10.6327566 C17.4999583,11.6718014 18.335909,12.5077522 19.3749538,12.5077522 L27.4999344,12.5077522 L27.4999344,36.2576955 C27.4999344,36.9451786 26.9374205,37.5076926 26.2499374,37.5076926 Z M27.460872,10.0077581 L19.9999523,10.0077581 L19.9999523,2.54683841 C20.2186865,2.60154104 20.4139986,2.71087 20.5781065,2.87497789 L27.1327326,9.42960398 C27.2968404,9.59371187 27.4061694,9.7890239 27.460872,10.0077581 Z M19.5624486,18.0077402 C20.0780418,18.0077402 20.4999464,17.5858298 20.4999464,17.0702365 L20.4999464,16.445238 C20.4999464,15.9296448 20.0780418,15.5077402 19.5624486,15.5077402 L6.43747988,15.5077402 C5.92188663,15.5077402 5.49998212,15.9296448 5.49998212,16.445238 L5.49998212,17.0702365 C5.49998212,17.5858298 5.92188663,18.0077402 6.43747988,18.0077402 L19.5624486,18.0077402 Z M19.5624486,23.0077283 C20.0780418,23.0077283 20.4999464,22.5858178 20.4999464,22.0702246 L20.4999464,21.4452261 C20.4999464,20.9296328 20.0780418,20.5077283 19.5624486,20.5077283 L6.43747988,20.5077283 C5.92188663,20.5077283 5.49998212,20.9296328 5.49998212,21.4452261 L5.49998212,22.0702246 C5.49998212,22.5858178 5.92188663,23.0077283 6.43747988,23.0077283 L19.5624486,23.0077283 Z M19.5624486,28.0077164 C20.0780418,28.0077164 20.4999464,27.5858059 20.4999464,27.0702127 L20.4999464,26.4452142 C20.4999464,25.9296209 20.0780418,25.5077164 19.5624486,25.5077164 L6.43747988,25.5077164 C5.92188663,25.5077164 5.49998212,25.9296209 5.49998212,26.4452142 L5.49998212,27.0702127 C5.49998212,27.5858059 5.92188663,28.0077164 6.43747988,28.0077164 L19.5624486,28.0077164 Z" id="ffile-alt" fill="#000000" fill-rule="nonzero"></path>
                    <g id="Group-9" transform="translate(20.000000, 27.007699)">
                        <circle id="Oval" fill="#000000" cx="7.225" cy="7.225" r="7.225"></circle>
                        <path d="M6.88801349,10.0831571 L11.7755246,5.49524474 C11.9414918,5.33943649 11.9414918,5.08683779 11.7755246,4.93104476 L11.1744956,4.36684478 C11.0085285,4.21105174 10.7394175,4.21105174 10.5734504,4.36684478 L6.58749899,8.10844958 L4.7265496,6.36158003 C4.56058246,6.20577177 4.29147152,6.20577177 4.12550437,6.36158003 L3.52447536,6.92578001 C3.35850821,7.08158826 3.35850821,7.33418696 3.52447536,7.48997999 L6.28698448,10.0831419 C6.45293541,10.2389502 6.72203014,10.2389502 6.88801349,10.0831571 Z" id="ccheck" fill="#FFFFFF" fill-rule="nonzero"></path>
                    </g>
                </g>
            </g>
        </g>
    </g>
</svg>