<?xml version="1.0" encoding="UTF-8"?>
<svg width="63px" height="53px" viewBox="0 0 63 53" version="1.1" xmlns="http://www.w3.org/2000/svg" xmlns:xlink="http://www.w3.org/1999/xlink">
    <title>Group 37</title>
    <g id="Explorations" stroke="none" stroke-width="1" fill="none" fill-rule="evenodd">
        <g id="Topfold-pes-changes-" transform="translate(-190.000000, -2563.000000)">
            <g id="Group-37" transform="translate(190.000000, 2563.000000)">
                <circle id="Oval-Copy-18" fill="#FFEDAB" opacity="0.991396949" cx="26.5" cy="26.5" r="26.5"></circle>
                <path d="M59.2499374,46.0076866 C61.320245,46.0076866 62.9999285,44.3280031 62.9999285,42.2576955 L62.9999285,16.3124754 C62.9999285,15.320275 62.6015224,14.3593551 61.8983991,13.6562317 L55.3436967,7.10152936 C54.6405734,6.39840603 53.6874354,6 52.695235,6 L36.7499911,6 C34.6796835,6.00778196 33,7.68746546 33,9.75777302 L33,42.2576955 C33,44.3280031 34.6796835,46.0076866 36.7499911,46.0076866 L59.2499374,46.0076866 Z M59.2499374,43.5076926 L36.7499911,43.5076926 C36.062508,43.5076926 35.499994,42.9451786 35.499994,42.2576955 L35.499994,9.75777302 C35.499994,9.07028992 36.062508,8.507776 36.7499911,8.507776 L50.4999583,8.507776 L50.4999583,16.6327566 C50.4999583,17.6718014 51.335909,18.5077522 52.3749538,18.5077522 L60.4999344,18.5077522 L60.4999344,42.2576955 C60.4999344,42.9451786 59.9374205,43.5076926 59.2499374,43.5076926 Z M60.460872,16.0077581 L52.9999523,16.0077581 L52.9999523,8.54683841 C53.2186865,8.60154104 53.4139986,8.71087 53.5781065,8.87497789 L60.1327326,15.429604 C60.2968404,15.5937119 60.4061694,15.7890239 60.460872,16.0077581 Z M54.5624486,26.0077402 C55.0780418,26.0077402 55.4999464,25.5858298 55.4999464,25.0702365 L55.4999464,24.445238 C55.4999464,23.9296448 55.0780418,23.5077402 54.5624486,23.5077402 L41.4374799,23.5077402 C40.9218866,23.5077402 40.4999821,23.9296448 40.4999821,24.445238 L40.4999821,25.0702365 C40.4999821,25.5858298 40.9218866,26.0077402 41.4374799,26.0077402 L54.5624486,26.0077402 Z M54.5624486,31.0077283 C55.0780418,31.0077283 55.4999464,30.5858178 55.4999464,30.0702246 L55.4999464,29.4452261 C55.4999464,28.9296328 55.0780418,28.5077283 54.5624486,28.5077283 L41.4374799,28.5077283 C40.9218866,28.5077283 40.4999821,28.9296328 40.4999821,29.4452261 L40.4999821,30.0702246 C40.4999821,30.5858178 40.9218866,31.0077283 41.4374799,31.0077283 L54.5624486,31.0077283 Z M54.5624486,36.0077164 C55.0780418,36.0077164 55.4999464,35.5858059 55.4999464,35.0702127 L55.4999464,34.4452142 C55.4999464,33.9296209 55.0780418,33.5077164 54.5624486,33.5077164 L41.4374799,33.5077164 C40.9218866,33.5077164 40.4999821,33.9296209 40.4999821,34.4452142 L40.4999821,35.0702127 C40.4999821,35.5858059 40.9218866,36.0077164 41.4374799,36.0077164 L54.5624486,36.0077164 Z" id="ffile-alt" fill="#000000" fill-rule="nonzero"></path>
            </g>
        </g>
    </g>
</svg>