<?xml version="1.0" encoding="UTF-8"?>
<svg width="80px" height="64px" viewBox="0 0 80 64" version="1.1" xmlns="http://www.w3.org/2000/svg" xmlns:xlink="http://www.w3.org/1999/xlink">
    <title>C9CC02A9-3AE2-4AC2-92E6-071841DE21E6</title>
    <g id="SES" stroke="none" stroke-width="1" fill="none" fill-rule="evenodd">
        <g id="SES-new---06-10-2021" transform="translate(-1100.000000, -2726.000000)">
            <g id="Group-37" transform="translate(1100.000000, 2726.000000)">
                <circle id="Oval-Copy-18" fill="#C2F4EA" opacity="0.991396949" cx="32" cy="32" r="32"></circle>
                <path d="M74.6666667,55.8730159 C77.1904762,55.8730159 79.2380952,53.8257951 79.2380952,51.3024765 L79.2380952,19.6800944 C79.2380952,18.4707873 78.7524182,17.2996051 77.8952753,16.442629 L69.9047619,8.45366986 C69.047619,7.59669372 67.8856957,7.11111111 66.6761533,7.11111111 L47.2380952,7.11111111 C44.7142857,7.12059587 42.6666667,9.16781663 42.6666667,11.6911352 L42.6666667,51.3024765 C42.6666667,53.8257951 44.7142857,55.8730159 47.2380952,55.8730159 L74.6666667,55.8730159 Z M74.6666667,52.8259896 L47.2380952,52.8259896 C46.4000186,52.8259896 45.7142857,52.1403901 45.7142857,51.3024765 L45.7142857,11.6911352 C45.7142857,10.8532216 46.4000186,10.1676221 47.2380952,10.1676221 L64,10.1676221 L64,20.0704574 C64,21.3368591 65.0190662,22.3557271 66.2857143,22.3557271 L76.1904762,22.3557271 L76.1904762,51.3024765 C76.1904762,52.1403901 75.5047433,52.8259896 74.6666667,52.8259896 Z M76.1428571,19.3087009 L67.047619,19.3087009 L67.047619,10.2152319 C67.3142671,10.2819042 67.5523624,10.4151558 67.7524182,10.6151727 L75.7428385,18.6040389 C75.9428943,18.8040557 76.0761719,19.0421047 76.1428571,19.3087009 Z M68.952381,31.4968059 C69.5809152,31.4968059 70.0952381,30.982583 70.0952381,30.354171 L70.0952381,29.5924145 C70.0952381,28.9640025 69.5809152,28.4497796 68.952381,28.4497796 L52.952381,28.4497796 C52.3238467,28.4497796 51.8095238,28.9640025 51.8095238,29.5924145 L51.8095238,30.354171 C51.8095238,30.982583 52.3238467,31.4968059 52.952381,31.4968059 L68.952381,31.4968059 Z M68.952381,37.5908584 C69.5809152,37.5908584 70.0952381,37.0766355 70.0952381,36.4482235 L70.0952381,35.686467 C70.0952381,35.058055 69.5809152,34.5438321 68.952381,34.5438321 L52.952381,34.5438321 C52.3238467,34.5438321 51.8095238,35.058055 51.8095238,35.686467 L51.8095238,36.4482235 C51.8095238,37.0766355 52.3238467,37.5908584 52.952381,37.5908584 L68.952381,37.5908584 Z M68.952381,43.6849109 C69.5809152,43.6849109 70.0952381,43.170688 70.0952381,42.542276 L70.0952381,41.7805195 C70.0952381,41.1521075 69.5809152,40.6378846 68.952381,40.6378846 L52.952381,40.6378846 C52.3238467,40.6378846 51.8095238,41.1521075 51.8095238,41.7805195 L51.8095238,42.542276 C51.8095238,43.170688 52.3238467,43.6849109 52.952381,43.6849109 L68.952381,43.6849109 Z" id="ffile-alt" fill="#000000" fill-rule="nonzero"></path>
            </g>
        </g>
    </g>
</svg>