<?xml version="1.0" encoding="UTF-8"?>
<svg width="79px" height="64px" viewBox="0 0 79 64" version="1.1" xmlns="http://www.w3.org/2000/svg" xmlns:xlink="http://www.w3.org/1999/xlink">
    <title>38282242-61DE-43B3-BE76-382C40533075</title>
    <g id="SES" stroke="none" stroke-width="1" fill="none" fill-rule="evenodd">
        <g id="SES-new---06-10-2021" transform="translate(-581.000000, -2727.000000)">
            <g id="Group-27" transform="translate(581.000000, 2727.000000)">
                <circle id="Oval-Copy-2" fill="#EFD0CE" cx="32" cy="32" r="32"></circle>
                <g id="Group-30" transform="translate(35.018868, 6.269949)">
                    <path d="M31.6980376,48.3111687 C34.1980317,48.3111687 36.2263287,46.2828717 36.2263287,43.7828776 L36.2263287,12.4528005 C36.2263287,11.2546717 35.7452346,10.0943156 34.8961801,9.24526098 L26.9810677,1.33014866 C26.1320132,0.481094077 24.9810541,0 23.7829253,0 L4.52829109,0 C2.02829705,0.00939708844 0,2.03769414 0,4.53768818 L0,43.7828776 C0,46.2828717 2.02829705,48.3111687 4.52829109,48.3111687 L31.6980376,48.3111687 Z M31.6980376,45.292308 L4.52829109,45.292308 C3.69812282,45.292308 3.01886073,44.6130459 3.01886073,43.7828776 L3.01886073,4.53768818 C3.01886073,3.7075199 3.69812282,3.02825782 4.52829109,3.02825782 L21.1320251,3.02825782 L21.1320251,12.8395552 C21.1320251,14.0942507 22.1414751,15.1037007 23.3961706,15.1037007 L33.207468,15.1037007 L33.207468,43.7828776 C33.207468,44.6130459 32.5282059,45.292308 31.6980376,45.292308 Z M33.1602983,12.08484 L24.1508858,12.08484 L24.1508858,3.07542751 C24.4150177,3.14148352 24.6508662,3.2735034 24.8490342,3.47167141 L32.7640544,11.3866916 C32.9622224,11.5848596 33.0942423,11.8207081 33.1602983,12.08484 Z M23.6225794,21.7451886 C24.2451826,21.7451886 24.7546522,21.235719 24.7546522,20.6131158 L24.7546522,19.8584006 C24.7546522,19.2357974 24.2451826,18.7263278 23.6225794,18.7263278 L7.77356061,18.7263278 C7.15095744,18.7263278 6.64148784,19.2357974 6.64148784,19.8584006 L6.64148784,20.6131158 C6.64148784,21.235719 7.15095744,21.7451886 7.77356061,21.7451886 L23.6225794,21.7451886 Z M23.6225794,27.78291 C24.2451826,27.78291 24.7546522,27.2734404 24.7546522,26.6508372 L24.7546522,25.8961221 C24.7546522,25.2735189 24.2451826,24.7640493 23.6225794,24.7640493 L7.77356061,24.7640493 C7.15095744,24.7640493 6.64148784,25.2735189 6.64148784,25.8961221 L6.64148784,26.6508372 C6.64148784,27.2734404 7.15095744,27.78291 7.77356061,27.78291 L23.6225794,27.78291 Z M23.6225794,33.8206315 C24.2451826,33.8206315 24.7546522,33.3111619 24.7546522,32.6885587 L24.7546522,31.9338435 C24.7546522,31.3112403 24.2451826,30.8017707 23.6225794,30.8017707 L7.77356061,30.8017707 C7.15095744,30.8017707 6.64148784,31.3112403 6.64148784,31.9338435 L6.64148784,32.6885587 C6.64148784,33.3111619 7.15095744,33.8206315 7.77356061,33.8206315 L23.6225794,33.8206315 Z" id="ffile-alt" fill="#000000" fill-rule="nonzero"></path>
                    <g id="Group-9" transform="translate(24.150943, 32.613070)">
                        <circle id="Oval" fill="#000000" cx="8.7245283" cy="8.7245283" r="8.7245283"></circle>
                        <path d="M8.3176012,12.1758878 L14.2195015,6.63576723 C14.4199146,6.44762142 14.4199146,6.14259658 14.2195015,5.95446914 L13.4937306,5.27317105 C13.2933174,5.08504361 12.9683533,5.08504361 12.7679401,5.27317105 L7.95471576,9.79133534 L5.7075316,7.68190796 C5.50711844,7.49376214 5.18215429,7.49376214 4.98174113,7.68190796 L4.25597025,8.36320605 C4.05555709,8.55135187 4.05555709,8.8563767 4.25597025,9.04450414 L7.59183031,12.1758695 C7.79222389,12.3640153 8.11716847,12.3640153 8.3176012,12.1758878 Z" id="ccheck" fill="#FFFFFF" fill-rule="nonzero"></path>
                    </g>
                </g>
            </g>
        </g>
    </g>
</svg>