<svg xmlns="http://www.w3.org/2000/svg" width="10" height="16" fill="none" xmlns:v="https://vecta.io/nano"><path d="M7.211 7.965A3.1 3.1 0 0 1 8.998 9.4a3.04 3.04 0 0 1 .352 2.256c-.176.703-.557 1.289-1.143 1.699-.586.439-1.26.645-1.963.645h-.088v1.406c0 .146-.059.264-.146.352a.44.44 0 0 1-.322.117H4.75c-.146 0-.264-.029-.352-.117s-.117-.205-.117-.352V14h-.088c-.937 0-1.787-.264-2.52-.85-.117-.088-.205-.205-.205-.352 0-.117.029-.264.146-.381l.674-.645a.36.36 0 0 1 .293-.146c.117 0 .205.029.322.088.381.293.82.41 1.289.41h2.168c.352 0 .674-.117.908-.41s.322-.615.264-.967c-.029-.234-.117-.439-.293-.615s-.381-.293-.615-.381l-3.398-.967c-.791-.234-1.406-.703-1.816-1.406s-.527-1.465-.322-2.285c.176-.703.557-1.26 1.143-1.699a3.37 3.37 0 0 1 1.992-.645h.059V1.344a.44.44 0 0 1 .117-.322c.088-.088.205-.146.352-.146h.938a.47.47 0 0 1 .322.146.47.47 0 0 1 .146.322V2.75h.088c.938 0 1.758.293 2.52.85.117.117.176.234.176.352 0 .146-.029.264-.117.352l-.674.674c-.088.117-.176.146-.293.146a.59.59 0 0 1-.322-.088c-.41-.264-.82-.41-1.289-.41H4.076c-.381 0-.674.146-.908.439s-.322.586-.264.938c0 .234.088.439.264.615a1.31 1.31 0 0 0 .645.381l3.398.967z" fill="#ffc300"/></svg>