<svg xmlns="http://www.w3.org/2000/svg" width="48" height="32" fill="#6882da" xmlns:v="https://vecta.io/nano"><circle cx="30" cy="14" r="2"/><circle cx="10" cy="2" r="2"/><circle cx="2" cy="2" r="2"/><circle cx="38" cy="14" r="2"/><circle cx="46" cy="14" r="2"/><circle cx="18" cy="2" r="2"/><circle cx="30" cy="22" r="2"/><circle cx="10" cy="10" r="2"/><circle cx="2" cy="10" r="2"/><circle cx="30" cy="30" r="2"/><circle cx="10" cy="18" r="2"/><circle cx="2" cy="18" r="2"/><circle cx="10" cy="26" r="2"/><circle cx="2" cy="26" r="2"/><circle cx="38" cy="22" r="2"/><circle cx="46" cy="22" r="2"/><circle cx="18" cy="10" r="2"/><circle cx="38" cy="30" r="2"/><circle cx="46" cy="30" r="2"/><circle cx="18" cy="18" r="2"/><circle cx="18" cy="26" r="2"/></svg>