<?xml version="1.0" encoding="UTF-8"?>
<svg width="20px" height="19px" viewBox="0 0 20 19" version="1.1" xmlns="http://www.w3.org/2000/svg" xmlns:xlink="http://www.w3.org/1999/xlink">
    <title>70081338-ADC5-477B-B4FE-23441CCA2D83</title>
    <g id="Final-Designs" stroke="none" stroke-width="1" fill="none" fill-rule="evenodd">
        <g id="Japan-HomePage---new-changes" transform="translate(-537.000000, -3638.000000)" fill="#113DCD" fill-rule="nonzero">
            <g id="Group-51" transform="translate(0.000000, 3452.000000)">
                <g id="Group-55" transform="translate(165.000000, 144.000000)">
                    <g id="Double-arrow" transform="translate(372.000000, 42.000000)">
                        <path d="M10.6863585,18.2691872 C10.8537688,18.2691872 11.0118782,18.1930659 11.1606877,18.0408224 L11.1606877,18.0408224 L19.3637931,9.59132329 L19.3637931,9.6484145 C19.4754,9.49617098 19.5312034,9.32489735 19.5312034,9.13459361 C19.5312034,8.94428986 19.4754,8.77301623 19.3637931,8.62077272 L19.3637931,8.62077272 L11.1606877,0.17127363 C11.0118782,0.05709121 10.8537688,0 10.6863585,0 C10.5189481,0 10.3608387,0.05709121 10.2120292,0.17127363 L10.2120292,0.17127363 L9.09596046,1.31309783 C8.98435358,1.46534135 8.92855014,1.63661498 8.92855014,1.82691872 C8.92855014,2.01722246 8.98435358,2.16946598 9.09596046,2.2836484 L9.09596046,2.2836484 L15.7365696,9.13459361 L9.09596046,15.9855388 C8.98435358,16.0997212 8.92855014,16.2519647 8.92855014,16.4422685 C8.92855014,16.6325722 8.98435358,16.8038459 9.09596046,16.9560894 L9.09596046,16.9560894 L10.2120292,18.0979136 C10.3608387,18.212096 10.5189481,18.2691872 10.6863585,18.2691872 Z M1.75780831,18.2691872 C1.92521862,18.2691872 2.08332808,18.212096 2.23213754,18.0979136 L2.23213754,18.0979136 L10.435243,9.59132329 C10.5468499,9.47714087 10.6026533,9.32489735 10.6026533,9.13459361 C10.6026533,8.94428986 10.5468499,8.77301623 10.435243,8.62077272 L10.435243,8.62077272 L2.23213754,0.17127363 C2.08332808,0.05709121 1.92521862,0 1.75780831,0 C1.59039799,0 1.43228854,0.05709121 1.28347908,0.17127363 L1.28347908,0.17127363 L0.167410315,1.31309783 C0.0558034384,1.46534135 0,1.63661498 0,1.82691872 C0,2.01722246 0.0558034384,2.16946598 0.167410315,2.2836484 L0.167410315,2.2836484 L6.80801948,9.13459361 L0.167410315,15.9855388 C0.0558034384,16.0997212 0,16.2519647 0,16.4422685 C0,16.6325722 0.0558034384,16.8038459 0.167410315,16.9560894 L0.167410315,16.9560894 L1.28347908,18.0408224 C1.43228854,18.1930659 1.59039799,18.2691872 1.75780831,18.2691872 Z"></path>
                    </g>
                </g>
            </g>
        </g>
    </g>
</svg>