<svg width="20" height="19" xmlns="http://www.w3.org/2000/svg"><path d="M10.686 18.27c.168 0 .326-.077.475-.23l8.203-8.449v.057a.848.848 0 00.167-.513.848.848 0 00-.167-.514L11.16.17A.766.766 0 0010.686 0a.766.766 0 00-.474.171L9.096 1.313a.848.848 0 00-.167.514c0 .19.055.342.167.457l6.64 6.85-6.64 6.852a.625.625 0 00-.167.456c0 .19.055.362.167.514l1.116 1.142a.766.766 0 00.474.171zm-8.928 0a.766.766 0 00.474-.172l8.203-8.507a.625.625 0 00.168-.456.848.848 0 00-.168-.514L2.232.17A.766.766 0 001.758 0a.766.766 0 00-.475.171L.167 1.313A.848.848 0 000 1.827c0 .19.056.342.167.457l6.641 6.85-6.64 6.852a.625.625 0 00-.168.456c0 .19.056.362.167.514l1.116 1.085c.15.152.307.228.475.228z" fill="#113DCD" fill-rule="nonzero"/></svg>