<?xml version="1.0" encoding="UTF-8"?>
<svg width="20px" height="19px" viewBox="0 0 20 19" version="1.1" xmlns="http://www.w3.org/2000/svg" xmlns:xlink="http://www.w3.org/1999/xlink">
    <title>Shape</title>
    <g id="Explorations" stroke="none" stroke-width="1" fill="none" fill-rule="evenodd" fill-opacity="0.7">
        <g id="Pricing--Tab-" transform="translate(-256.000000, -201.000000)" fill="#262626" fill-rule="nonzero">
            <path d="M266.942857,220 C267.114286,220 267.27619,219.920834 267.428571,219.7625 L267.428571,219.7625 L275.828571,210.975 L275.828571,211.034375 C275.942857,210.876041 276,210.697916 276,210.5 C276,210.302084 275.942857,210.123959 275.828571,209.965625 L275.828571,209.965625 L267.428571,201.178125 C267.27619,201.059375 267.114286,201 266.942857,201 C266.771429,201 266.609524,201.059375 266.457143,201.178125 L266.457143,201.178125 L265.314286,202.365625 C265.2,202.523959 265.142857,202.702084 265.142857,202.9 C265.142857,203.097916 265.2,203.25625 265.314286,203.375 L265.314286,203.375 L272.114286,210.5 L265.314286,217.625 C265.2,217.74375 265.142857,217.902084 265.142857,218.1 C265.142857,218.297916 265.2,218.476041 265.314286,218.634375 L265.314286,218.634375 L266.457143,219.821875 C266.609524,219.940625 266.771429,220 266.942857,220 Z M257.8,220 C257.971429,220 258.133333,219.940625 258.285714,219.821875 L258.285714,219.821875 L266.685714,210.975 C266.8,210.85625 266.857143,210.697916 266.857143,210.5 C266.857143,210.302084 266.8,210.123959 266.685714,209.965625 L266.685714,209.965625 L258.285714,201.178125 C258.133333,201.059375 257.971429,201 257.8,201 C257.628571,201 257.466667,201.059375 257.314286,201.178125 L257.314286,201.178125 L256.171429,202.365625 C256.057143,202.523959 256,202.702084 256,202.9 C256,203.097916 256.057143,203.25625 256.171429,203.375 L256.171429,203.375 L262.971429,210.5 L256.171429,217.625 C256.057143,217.74375 256,217.902084 256,218.1 C256,218.297916 256.057143,218.476041 256.171429,218.634375 L256.171429,218.634375 L257.314286,219.7625 C257.466667,219.920834 257.628571,220 257.8,220 Z" id="Shape" transform="translate(266.000000, 210.500000) scale(-1, 1) translate(-266.000000, -210.500000) "></path>
        </g>
    </g>
</svg>