<svg xmlns="http://www.w3.org/2000/svg" xmlns:xlink="http://www.w3.org/1999/xlink" width="29" height="23" xmlns:v="https://vecta.io/nano"><defs><path id="A" d="M0 0h30v30H0z"/><path id="B" d="M21.284 12h-6.408c-.22 0-.396-.16-.396-.36s.177-.36.396-.36h6.408c.22 0 .396.16.396.36s-.177.36-.396.36z"/></defs><g transform="translate(-1 -4)" fill="none" fill-rule="evenodd"><mask id="C" fill="#fff"><use xlink:href="#A"/></mask><g mask="url(#C)"><circle fill="#c2f4ea" cx="12.5" cy="15.5" r="11.5"/><g fill="#000" fill-rule="nonzero"><path d="M23.84 10.1c0-.78-.62-1.4-1.385-1.4h-9.5c-.753 0-1.364.622-1.364 1.4v12.3c0 .767.6 1.4 1.364 1.4h9.512c.753 0 1.364-.622 1.364-1.4V10.1zm-1.026 1.306v10.557c0 .442-.352.8-.786.8h-8.615c-.434 0-.786-.358-.786-.8V10.526c0-.442.352-.8.786-.8H22c.428 0 .777.348.786.784l.018.887z"/><use xlink:href="#B"/><use xlink:href="#B" y="2.255"/><use xlink:href="#B" y="4.5"/><use xlink:href="#B" y="6.765"/><use xlink:href="#B" y="9.02"/><path d="M25.335 5.8h-9.5c-.753 0-1.364.622-1.364 1.4v.563h1.026v-.106c0-.442.352-.8.786-.8H24.9c.428 0 .777.348.786.784l.018.887v10.557c0 .442-.352.8-.786.8h-.36v1.045h.808c.753 0 1.364-.622 1.364-1.4V7.2c0-.78-.62-1.4-1.385-1.4z"/></g><circle fill="#fff" cx="24.92" cy="18.22" r="3.6"/><g fill="#000" fill-rule="nonzero"><path d="M24.92 13.945a4.28 4.28 0 0 0-4.275 4.275 4.28 4.28 0 0 0 4.275 4.275 4.28 4.28 0 0 0 4.275-4.275 4.25 4.25 0 0 0-.764-2.437c-.773-1.1-2.058-1.838-3.5-1.838zm0 7.776c-1.935 0-3.5-1.575-3.5-3.5s1.566-3.5 3.5-3.5a3.501 3.501 0 1 1 0 7.002zm1.395-4.94l-1.818 2.06-1-1c-.153-.153-.396-.153-.55 0s-.153.396 0 .54l1.278 1.278a.39.39 0 0 0 .27.117c.117 0 .216-.054.288-.126l2.08-2.367c.144-.162.126-.405-.036-.54-.144-.144-.387-.126-.522.027z"/></g></g></g></svg>