<?xml version="1.0" encoding="UTF-8"?>
<svg width="14px" height="13px" viewBox="0 0 14 13" version="1.1" xmlns="http://www.w3.org/2000/svg" xmlns:xlink="http://www.w3.org/1999/xlink">
    <title>1EBEA7AB-FA3A-4056-A1E2-041E286959E0</title>
    <defs>
        <filter id="filter-1">
            <feColorMatrix in="SourceGraphic" type="matrix" values="0 0 0 0 1.000000 0 0 0 0 1.000000 0 0 0 0 1.000000 0 0 0 1.000000 0"></feColorMatrix>
        </filter>
    </defs>
    <g id="Final-Designs" stroke="none" stroke-width="1" fill="none" fill-rule="evenodd">
        <g id="Japan-HomePage---new-changes" transform="translate(-445.000000, -5126.000000)">
            <g id="EFL-Banner" transform="translate(0.000000, 4880.000000)">
                <g id="Group-57-Copy" transform="translate(219.000000, 60.000000)">
                    <g id="Group-23" transform="translate(80.000000, 172.000000)">
                        <g id="Double-arrow" transform="translate(19.000000, 10.000000)" filter="url(#filter-1)">
                            <g transform="translate(127.000000, 4.000000)">
                                <path d="M7.48045092,12.4999702 C7.59763814,12.4999702 7.70831476,12.4478872 7.81248137,12.3437206 L7.81248137,12.3437206 L13.5546552,6.56248435 L13.5546552,6.60154676 C13.63278,6.49738014 13.6718424,6.38019292 13.6718424,6.2499851 C13.6718424,6.11977727 13.63278,6.00259005 13.5546552,5.89842344 L13.5546552,5.89842344 L7.81248137,0.117187221 C7.70831476,0.0390624069 7.59763814,0 7.48045092,0 C7.36326369,0 7.25258707,0.0390624069 7.14842046,0.117187221 L7.14842046,0.117187221 L6.36717232,0.898435358 C6.28904751,1.00260197 6.2499851,1.1197892 6.2499851,1.24999702 C6.2499851,1.38020484 6.28904751,1.48437146 6.36717232,1.56249627 L6.36717232,1.56249627 L11.0155987,6.2499851 L6.36717232,10.9374739 C6.28904751,11.0155987 6.2499851,11.1197654 6.2499851,11.2499732 C6.2499851,11.380181 6.28904751,11.4973682 6.36717232,11.6015348 L6.36717232,11.6015348 L7.14842046,12.382783 C7.25258707,12.4609078 7.36326369,12.4999702 7.48045092,12.4999702 Z M1.23046582,12.4999702 C1.34765304,12.4999702 1.45832966,12.4609078 1.56249627,12.382783 L1.56249627,12.382783 L7.30467008,6.56248435 C7.3827949,6.48435954 7.4218573,6.38019292 7.4218573,6.2499851 C7.4218573,6.11977727 7.3827949,6.00259005 7.30467008,5.89842344 L7.30467008,5.89842344 L1.56249627,0.117187221 C1.45832966,0.0390624069 1.34765304,0 1.23046582,0 C1.1132786,0 1.00260197,0.0390624069 0.898435358,0.117187221 L0.898435358,0.117187221 L0.117187221,0.898435358 C0.0390624069,1.00260197 0,1.1197892 0,1.24999702 C0,1.38020484 0.0390624069,1.48437146 0.117187221,1.56249627 L0.117187221,1.56249627 L4.76561364,6.2499851 L0.117187221,10.9374739 C0.0390624069,11.0155987 0,11.1197654 0,11.2499732 C0,11.380181 0.0390624069,11.4973682 0.117187221,11.6015348 L0.117187221,11.6015348 L0.898435358,12.3437206 C1.00260197,12.4478872 1.1132786,12.4999702 1.23046582,12.4999702 Z" fill="#113DCD" fill-rule="nonzero"></path>
                            </g>
                        </g>
                    </g>
                </g>
            </g>
        </g>
    </g>
</svg>