<svg width="13" height="14" fill="none" xmlns="http://www.w3.org/2000/svg"><path d="M5.484.625c-.355 0-.609.28-.609.61V5.5H2.641c-.457 0-.686.559-.356.889l3.86 3.859a.507.507 0 0 0 .685 0l3.86-3.86c.33-.33.101-.888-.356-.888H8.125V1.234c0-.33-.28-.609-.61-.609h-2.03zM13 10.172c0-.33-.28-.61-.61-.61H8.659l-1.244 1.245a1.274 1.274 0 0 1-1.853 0L4.316 9.562H.61c-.355 0-.609.28-.609.61v2.844c0 .355.254.609.61.609h11.78c.33 0 .61-.254.61-.61v-2.843zm-3.148 2.234a.51.51 0 0 1-.508.508.51.51 0 0 1-.508-.508.51.51 0 0 1 .508-.508.51.51 0 0 1 .508.508zm1.625 0a.51.51 0 0 1-.508.508.51.51 0 0 1-.508-.508.51.51 0 0 1 .508-.508.51.51 0 0 1 .508.508z" fill="#1842C5"/></svg>