<svg xmlns="http://www.w3.org/2000/svg" width="29" height="23" fill-rule="evenodd" xmlns:v="https://vecta.io/nano"><circle fill="#f5cfcd" cx="11.5" cy="11.5" r="11.5"/><path d="M13.023 3c-1.096 0-1.995.843-2.023 1.883v13.183c0 1.063.9 1.932 2.023 1.932h8.902c1.114 0 2.023-.868 2.023-1.932v-.537c.217-.064.43-.145.626-.247h.006l2.725 2.6a.42.42 0 0 0 .395.104c.142-.036.252-.142.288-.278s-.007-.28-.114-.376l-2.63-2.5c.693-.6 1.132-1.466 1.132-2.426 0-1.472-1.026-2.718-2.428-3.133V6.477c0-.06-.015-.12-.044-.175-.468-.9-.515-1.764 0-2.746a.37.37 0 0 0-.02-.372.41.41 0 0 0-.34-.183h-10.52zm0 .773h9.945a3.62 3.62 0 0 0-.177.773h-5.52a.24.24 0 0 0-.038 0 .4.4 0 0 0-.34.21.37.37 0 0 0 .019.386.41.41 0 0 0 .36.177h5.52c.03.262.083.52.17.773h-9.938c-.68 0-1.214-.5-1.214-1.16v-.036c.02-.63.548-1.123 1.214-1.123h0zM11.8 6.477a2.07 2.07 0 0 0 1.214.386H23.14v4.26l-.202-.012c-1.895 0-3.44 1.475-3.44 3.284s1.545 3.284 3.44 3.284c.07 0 .134-.008.202-.012v.398c0 .65-.534 1.16-1.214 1.16h-8.902c-.68 0-1.214-.5-1.214-1.16V6.477zm11.127 5.408c1.457 0 2.63 1.12 2.63 2.5s-1.173 2.5-2.63 2.5-2.63-1.12-2.63-2.5 1.173-2.5 2.63-2.5z" fill-rule="nonzero" stroke="#000" stroke-width=".3"/></svg>