<svg width="48" height="48" viewBox="0 0 48 48" fill="none" xmlns="http://www.w3.org/2000/svg">
<path d="M9.73785 14.32H29.0979V16.08H9.73785V14.32ZM9.73785 19.6H29.0979V21.36H9.73785V19.6ZM9.73785 24.88H24.6979V26.64H9.73785V24.88ZM9.73785 30.16H20.2979V31.92H9.73785V30.16ZM9.73785 35.44H20.2979V37.2H9.73785V35.44Z" fill="#96ABEC"/>
<path d="M36.1378 18.3557V9.55569L29.4621 2.88H2.69781V45.12H36.1378V29.6443L45.3021 20.48L39.6578 14.8357L36.1378 18.3557ZM35.2578 21.7243L38.4135 24.88L27.8535 35.44H24.6978V32.2843L35.2578 21.7243V21.7243ZM29.9778 5.88433L33.1335 9.04001H29.9778V5.88433V5.88433ZM34.3778 43.36H4.45781V4.64H28.2178V10.8H34.3778V20.1157L22.9378 31.5557V37.2H28.5821L34.3778 31.4043V43.36ZM39.6578 23.6357L36.5021 20.48L39.6578 17.3243L42.8135 20.48L39.6578 23.6357Z" fill="#96ABEC"/>
</svg>
