<svg xmlns="http://www.w3.org/2000/svg" width="43" height="44" fill="#96abec" fill-rule="nonzero" xmlns:v="https://vecta.io/nano"><path d="M32.5 44h-28C2.02 43.995.005 41.98 0 39.502V13.498C.005 11.02 2.02 9.005 4.5 9h8.864c.83 0 1.503.673 1.503 1.503s-.673 1.503-1.503 1.503H4.5a1.5 1.5 0 0 0-1.493 1.492V39.5A1.5 1.5 0 0 0 4.5 40.994h28.006a1.49 1.49 0 0 0 1.488-1.492v-8.856c0-.83.673-1.503 1.503-1.503S37 29.816 37 30.646v8.86A4.49 4.49 0 0 1 32.51 44zm10-37.098L36.124.482C35.813.176 35.4 0 34.964 0a1.64 1.64 0 0 0-1.154.482L12.063 22.264a1.59 1.59 0 0 0-.413.703l-2.586 8.948c-.164.567-.006 1.18.407 1.598.3.317.73.487 1.166.487a1.61 1.61 0 0 0 .43-.062l9.015-2.482a1.58 1.58 0 0 0 .719-.425L42.53 9.203a1.63 1.63 0 0 0-.011-2.301zM13 30.022l1.166-4.04 2.937 2.907L13 30.022zm6.632-2.442l-4.154-4.125 15.47-15.493 4.125 4.1L19.64 27.58zm17.36-17.453l-4.12-4.1 2.082-2.085L39.06 8.06 37 10.128z"/></svg>