<svg xmlns="http://www.w3.org/2000/svg" width="28" height="23" fill="none" fill-rule="evenodd" xmlns:v="https://vecta.io/nano"><circle fill="#ffedab" cx="11.5" cy="11.5" r="11.5"/><g fill-rule="nonzero"><path d="M25.15 17.4H14.854c-.9-.002-1.652-.74-1.654-1.645v-9.5c.002-.907.743-1.643 1.654-1.645h3.258a.55.55 0 1 1 0 1.1h-3.258a.55.55 0 0 0-.549.546v9.5a.55.55 0 0 0 .549.546h10.294a.55.55 0 0 0 .547-.546v-3.24a.55.55 0 1 1 1.105 0v3.24c.002.905-.74 1.643-1.65 1.643z" fill="#262626"/><path d="M27.442 4.474L25.335 2.36c-.103-.1-.24-.16-.382-.16a.54.54 0 0 0-.38.159L17.4 9.534c-.065.065-.112.144-.136.23l-.852 2.947a.54.54 0 0 0 .134.526c.103.105.24.16.384.16a.53.53 0 0 0 .142-.021l2.97-.818a.52.52 0 0 0 .237-.14l7.158-7.2c.207-.207.207-.547-.004-.758zM17.72 12.1l.384-1.33.967.958-1.35.373zm2.185-.805l-1.368-1.36 5.096-5.103 1.36 1.348-5.087 5.115zm5.72-5.75l-1.357-1.348.686-.687 1.35 1.353-.68.68z" fill="#000"/></g></svg>