<svg xmlns="http://www.w3.org/2000/svg" width="27" height="29" fill="#fff" fill-rule="nonzero" xmlns:v="https://vecta.io/nano"><path d="M20.465 28.027H3.204a2.78 2.78 0 0 1-2.773-2.773V9.225a2.78 2.78 0 0 1 2.773-2.773h5.462c.5 0 .926.415.926.926s-.415.926-.926.926H3.204c-.505 0-.917.412-.92.92v16.03c0 .505.412.917.92.92h17.258a.92.92 0 0 0 .917-.92v-5.46c0-.5.415-.926.926-.926s.926.415.926.926v5.462a2.77 2.77 0 0 1-2.766 2.77zM26.723 5.15l-3.9-3.904c-.2-.186-.44-.293-.705-.293a1 1 0 0 0-.702.293L8.2 14.494c-.12.12-.206.265-.25.427l-1.573 5.44c-.1.345-.003.717.248.972a.99.99 0 0 0 .709.296.98.98 0 0 0 .262-.038l5.482-1.5a.96.96 0 0 0 .437-.258L26.73 6.55a.99.99 0 0 0-.007-1.399zM8.776 19.212l.7-2.457 1.786 1.768-2.495.7zm4.033-1.485l-2.526-2.5 9.4-9.422 2.5 2.488-9.392 9.442zM23.37 7.112l-2.505-2.488 1.266-1.268 2.492 2.498-1.253 1.258z"/></svg>