<?xml version="1.0" encoding="UTF-8"?>
<svg width="26px" height="27px" viewBox="0 0 26 27" version="1.1" xmlns="http://www.w3.org/2000/svg" xmlns:xlink="http://www.w3.org/1999/xlink">
    <title>7B14C1DC-67C8-4056-800C-EBBD220C9C94</title>
    <g id="Page-1" stroke="none" stroke-width="1" fill="none" fill-rule="evenodd">
        <g id="Inline-offer-components" transform="translate(-30.000000, -863.000000)" fill="#FFFFFF" fill-rule="nonzero">
            <g id="Group-15" transform="translate(30.000000, 847.000000)">
                <g id="Group-5" transform="translate(0.000000, 16.000000)">
                    <g transform="translate(0.781358, 0.114800)">
                        <path d="M20.1800406,25.7488 L2.79306279,25.7488 C1.25396206,25.7455671 0.00324021205,24.4976596 3.07476855e-13,22.9620222 L3.07476855e-13,6.85237775 C0.00324021205,5.31674036 1.25396206,4.06883292 2.79306279,4.0656 L8.29494284,4.0656 C8.81013656,4.0656 9.22812391,4.48264679 9.22812391,4.9966812 C9.22812391,5.51071561 8.81013656,5.9277624 8.29494284,5.9277624 L2.79306279,5.9277624 C2.28434949,5.9277624 1.86960235,6.34157626 1.86636214,6.85237775 L1.86636214,22.9620222 C1.86636214,23.4695908 2.28110928,23.8834047 2.79306279,23.8866376 L20.1768004,23.8866376 C20.6855137,23.8866376 21.1002609,23.4728237 21.1002609,22.9620222 L21.1002609,17.4757556 C21.1002609,16.9617212 21.5182482,16.5446744 22.0334419,16.5446744 C22.5486356,16.5446744 22.9666293,16.9617212 22.9666293,17.4757556 L22.9666293,22.9652552 C22.9698632,24.4976596 21.7191414,25.7488 20.1800406,25.7488 Z" id="Path"></path>
                        <path d="M24.0500272,3.8514784 L20.492853,0.268781333 C20.3197162,0.0980261333 20.0899164,-1.72306613e-13 19.8475249,-1.72306613e-13 C19.6082813,-1.72306613e-13 19.3753336,0.0980261333 19.2053448,0.268781333 L7.10780462,12.4240219 C6.99762666,12.5346965 6.91892812,12.6675061 6.87800487,12.8161264 L5.43939549,17.8091349 C5.34810518,18.1253483 5.43624755,18.4668587 5.6660473,18.7008565 C5.83918409,18.877936 6.07213178,18.9728 6.3145233,18.9728 C6.39322184,18.9728 6.47506833,18.9601515 6.55376687,18.9380165 L11.5684381,17.5530021 C11.7195393,17.5118944 11.8580487,17.4296789 11.9682267,17.3158421 L24.056323,5.13530453 C24.4057446,4.78430773 24.4057446,4.20879947 24.0500272,3.8514784 Z M7.6335109,16.7529824 L8.2819869,14.4983813 L9.91576867,16.1205557 L7.6335109,16.7529824 Z M11.3228986,15.3901029 L9.01230938,13.0880699 L17.6187821,4.44279733 L19.9136317,6.7258576 L11.3228986,15.3901029 Z M20.9807839,5.65073227 L18.6890823,3.367672 L19.8475249,2.20400693 L22.1266347,4.4965536 L20.9807839,5.65073227 Z" id="Shape"></path>
                    </g>
                </g>
            </g>
        </g>
    </g>
</svg>