<svg width="48" height="48" viewBox="0 0 48 48" fill="none" xmlns="http://www.w3.org/2000/svg">
<path d="M45.75 4.5H36.8475L34.2975 1.74C34.2279 1.66424 34.1432 1.60378 34.049 1.56247C33.9547 1.52115 33.8529 1.49988 33.75 1.5H11.25C11.0511 1.5 10.8603 1.57902 10.7197 1.71967C10.579 1.86032 10.5 2.05109 10.5 2.25V12.96L2.01 15.7875C1.86189 15.8392 1.73338 15.9354 1.64208 16.0629C1.55077 16.1905 1.50115 16.3431 1.5 16.5V28.005C1.50514 29.4283 1.87622 30.8264 2.57759 32.065C3.27896 33.3036 4.28704 34.3409 5.505 35.0775L10.5 38.0775V42.75C10.5 42.9489 10.579 43.1397 10.7197 43.2803C10.8603 43.421 11.0511 43.5 11.25 43.5H18V45.75C18 45.9489 18.079 46.1397 18.2197 46.2803C18.3603 46.421 18.5511 46.5 18.75 46.5H45.75C45.9489 46.5 46.1397 46.421 46.2803 46.2803C46.421 46.1397 46.5 45.9489 46.5 45.75V5.25C46.5 5.05109 46.421 4.86032 46.2803 4.71967C46.1397 4.57902 45.9489 4.5 45.75 4.5V4.5ZM34.5 4.17L41.04 11.25H34.5V4.17ZM6.2775 33.795C5.27998 33.1926 4.45443 32.3434 3.88038 31.3293C3.30633 30.3152 3.00313 29.1703 3 28.005V17.04L13.5 13.5375L24 17.04V28.005C23.9969 29.1703 23.6937 30.3152 23.1196 31.3293C22.5456 32.3434 21.72 33.1926 20.7225 33.795L13.5 38.1225L6.2775 33.795ZM12 42V38.9775L13.1175 39.645C13.2333 39.7136 13.3654 39.7499 13.5 39.7499C13.6346 39.7499 13.7667 39.7136 13.8825 39.645L21.495 35.0775C22.713 34.3409 23.721 33.3036 24.4224 32.065C25.1238 30.8264 25.4949 29.4283 25.5 28.005V16.5C25.4989 16.3431 25.4492 16.1905 25.3579 16.0629C25.2666 15.9354 25.1381 15.8392 24.99 15.7875L13.74 12.0375C13.5843 11.9849 13.4157 11.9849 13.26 12.0375L12 12.4575V3H33V12C33 12.1989 33.079 12.3897 33.2197 12.5303C33.3603 12.671 33.5511 12.75 33.75 12.75H42V42H12ZM45 45H19.5V43.5H42.75C42.9489 43.5 43.1397 43.421 43.2803 43.2803C43.421 43.1397 43.5 42.9489 43.5 42.75V12C43.5011 11.8102 43.4285 11.6274 43.2975 11.49L38.235 6H45V45Z" fill="#96ABEC"/>
<path d="M15 5.25H19.5V6.75H15V5.25Z" fill="#96ABEC"/>
<path d="M21.75 5.25H30.75V6.75H21.75V5.25Z" fill="#96ABEC"/>
<path d="M15 9H30.75V10.5H15V9Z" fill="#96ABEC"/>
<path d="M13.8862 36.144L19.95 32.505C20.7257 32.0371 21.3679 31.3772 21.8145 30.5891C22.2612 29.8009 22.4972 28.9109 22.5 28.005V18.75C22.5 18.5854 22.4459 18.4254 22.346 18.2946C22.2462 18.1638 22.106 18.0695 21.9473 18.0263L13.6973 15.7763C13.5681 15.741 13.4319 15.741 13.3027 15.7763L5.05275 18.0263C4.89397 18.0695 4.75384 18.1638 4.65395 18.2946C4.55406 18.4254 4.49997 18.5854 4.5 18.75V28.0035C4.50276 28.9094 4.73884 29.7994 5.18548 30.5876C5.63212 31.3757 6.27425 32.0356 7.05 32.5035L13.1152 36.1425C13.2319 36.2126 13.3654 36.2496 13.5015 36.2496C13.6376 36.2496 13.7711 36.2126 13.8878 36.1425L13.8862 36.144ZM7.821 31.2188C7.26684 30.8844 6.80818 30.4129 6.48922 29.8497C6.17026 29.2866 6.00177 28.6507 6 28.0035V19.323L13.5 17.2778L21 19.323V28.0035C20.9983 28.6507 20.8298 29.2866 20.5109 29.8498C20.1919 30.413 19.7332 30.8844 19.179 31.2188L13.5 34.6267L7.821 31.2188Z" fill="#96ABEC"/>
<path d="M27 15H40.5V16.5H27V15Z" fill="#96ABEC"/>
<path d="M27 18.75H40.5V20.25H27V18.75Z" fill="#96ABEC"/>
<path d="M27 22.5H40.5V24H27V22.5Z" fill="#96ABEC"/>
<path d="M27 26.25H28.5V27.75H27V26.25Z" fill="#96ABEC"/>
<path d="M30 26.25H31.5V27.75H30V26.25Z" fill="#96ABEC"/>
<path d="M33 26.25H40.5V27.75H33V26.25Z" fill="#96ABEC"/>
</svg>
