<?xml version="1.0" encoding="UTF-8"?>
<svg width="50px" height="28px" viewBox="0 0 50 28" version="1.1" xmlns="http://www.w3.org/2000/svg" xmlns:xlink="http://www.w3.org/1999/xlink">
    <title>Group 57</title>
    <g id="Page-1" stroke="none" stroke-width="1" fill="none" fill-rule="evenodd">
        <g id="Compare-table-web-" transform="translate(-229.000000, -459.000000)">
            <g id="Group-56" transform="translate(229.000000, 458.000000)">
                <g id="Group-57" transform="translate(0.000000, 1.000000)">
                    <g id="Group-5" fill-rule="nonzero">
                        <circle id="Oval" fill="#1876F2" cx="13.8" cy="13.8" r="12.65"></circle>
                        <path d="M13.8,27.6 C6.17847045,27.6 0,21.4215295 0,13.8 C0,6.17847045 6.17847045,0 13.8,0 C21.4215295,0 27.6,6.17847045 27.6,13.8 C27.6,17.4599876 26.1460756,20.9700716 23.5580736,23.5580736 C20.9700716,26.1460756 17.4599876,27.6 13.8,27.6 Z M13.8,2.76 C7.70277636,2.76 2.76,7.70277636 2.76,13.8 C2.76,19.8972236 7.70277636,24.84 13.8,24.84 C19.8972236,24.84 24.84,19.8972236 24.84,13.8 C24.84,10.87201 23.6768605,8.06394275 21.6064589,5.99354114 C19.5360572,3.92313952 16.72799,2.76 13.8,2.76 Z" id="Shape" fill="#1876F2"></path>
                        <path d="M12.8902624,7.5754985 C13.0152565,7.17364413 13.3859303,6.9 13.8052815,6.9 C14.2246328,6.9 14.5953066,7.17364413 14.7203007,7.5754985 L15.692299,10.724969 C15.8196249,11.1233365 16.1872354,11.3946949 16.6039665,11.3979328 L19.7478784,11.3979328 C20.1727236,11.4233254 20.5363692,11.7127981 20.6578381,12.1222877 C20.7793069,12.5317773 20.6326508,12.9738088 20.2908568,13.2283943 L17.7636611,15.1530708 C17.4264761,15.4158308 17.2897196,15.8626996 17.4217858,16.2701907 L18.3937841,19.3927426 C18.5384818,19.7949615 18.4054426,20.2449004 18.0655825,20.5027216 C17.7257223,20.7605428 17.2582399,20.7661654 16.9123246,20.5165922 L14.371722,18.5851861 C14.0344887,18.3372084 13.5760743,18.3372084 13.2388411,18.5851861 L10.6982385,20.5165922 C10.3523232,20.7661654 9.88484081,20.7605428 9.54498061,20.5027216 C9.20512042,20.2449004 9.07208123,19.7949615 9.21677894,19.3927426 L10.1820739,16.2836499 C10.3173338,15.8700891 10.1807593,15.4157498 9.84019858,15.1463411 L7.29289254,13.2149351 C6.96157998,12.9576136 6.8223765,12.5220043 6.94274329,12.1192135 C7.06311007,11.7164227 7.41817717,11.4296741 7.83587093,11.3979328 L11.0065966,11.3979328 C11.4233277,11.3946949 11.7909382,11.1233365 11.918264,10.724969 L12.8902624,7.5754985 Z" id="Path" fill="#FEC107"></path>
                    </g>
                    <g id="Group-11" transform="translate(22.000000, 0.000000)">
                        <rect id="Rectangle" fill="#113DCD" x="0" y="0" width="27.6" height="27.6" rx="13.8"></rect>
                        <g id="Group-10" transform="translate(6.900000, 8.050000)">
                            <circle id="Oval" fill="#FF0066" cx="12.65" cy="9.2" r="2.3"></circle>
                            <path d="M5.6718,10.9296 C7.659,10.9296 9.1701,10.1844 10.1844,8.7147 L8.0316,7.4727 C7.5141,8.1558 6.7275,8.5077 5.7132,8.5077 C4.1193,8.5077 3.1464,7.866 2.7945,6.5619 L10.5984,6.5619 C10.6605,6.1686 10.7019,5.8167 10.7019,5.4648 C10.7019,3.9123 10.2051,2.6289 9.2115,1.5732 C8.2386,0.5175 6.9759,5.22959454e-13 5.4648,5.22959454e-13 C3.8709,5.22959454e-13 2.5461,0.5175 1.5318,1.5732 C0.5175,2.6082 3.26849658e-14,3.9123 3.26849658e-14,5.4648 C3.26849658e-14,7.038 0.5175,8.3421 1.5525,9.3771 C2.5875,10.4121 3.9537,10.9296 5.6718,10.9296 Z M8.0316,4.4919 L2.7531,4.4919 C3.0636,3.1671 4.0365,2.4012 5.4648,2.4012 C6.6861,2.4012 7.7211,3.0843 8.0316,4.4919 Z" id="e" fill="#FFFFFF" fill-rule="nonzero"></path>
                        </g>
                    </g>
                </g>
            </g>
        </g>
    </g>
</svg>