<svg id="certificate_icon" data-name="certificate icon" xmlns="http://www.w3.org/2000/svg" width="64" height="57.6" viewBox="0 0 64 57.6">
  <circle id="Oval" cx="28.8" cy="28.8" r="28.8" transform="translate(0 0)" fill="#50caae" opacity="0.5"/>
  <path id="Combined_Shape" data-name="Combined Shape" d="M39.967,46.954l-2.62-2.028-2.621,2.028a1.224,1.224,0,0,1-1.959-.985v-7.85a1.212,1.212,0,1,1,2.425,0v5.345l1.4-1.083a1.219,1.219,0,0,1,1.494,0l1.4,1.083V38.188a1.224,1.224,0,1,1,2.449,0v7.781a1.23,1.23,0,0,1-.677,1.1,1.218,1.218,0,0,1-1.283-.116ZM5.251,44.188A5.273,5.273,0,0,1,0,38.907V35.845a1.227,1.227,0,0,1,1.225-1.23H5.878V5.359A5.273,5.273,0,0,1,11.1.074L42.558,0A5.459,5.459,0,0,1,48,5.468V8.342a1.228,1.228,0,0,1-1.2,1.231H42.877a1.231,1.231,0,0,1,0-2.462h2.674V5.468a2.98,2.98,0,1,0-5.961,0v6.674a1.224,1.224,0,1,1-2.449,0V5.473a5.429,5.429,0,0,1,.9-3L11.128,2.54a2.818,2.818,0,0,0-2.8,2.82V34.615h20.8a1.23,1.23,0,0,1,0,2.461H2.449v1.832a2.813,2.813,0,0,0,2.8,2.82H29.123a1.231,1.231,0,0,1,0,2.462Zm27.595-9.81a4.006,4.006,0,0,1-2.17-2.751,1.563,1.563,0,0,0-.925-1.087,3.986,3.986,0,0,1-2.336-2.776,3.88,3.88,0,0,1,.886-3.446A1.433,1.433,0,0,0,28.619,23a3.881,3.881,0,0,1,.7-3.406,4.1,4.1,0,0,1,3.239-1.577l.131,0h.056a1.71,1.71,0,0,0,1.326-.626,4.185,4.185,0,0,1,6.51,0,1.665,1.665,0,0,0,1.305.627l.076,0,.128,0a4.108,4.108,0,0,1,3.243,1.577A3.879,3.879,0,0,1,46.04,23a1.44,1.44,0,0,0,.319,1.3,3.868,3.868,0,0,1,.887,3.445,3.974,3.974,0,0,1-2.341,2.8,1.564,1.564,0,0,0-.926,1.087,4,4,0,0,1-2.17,2.751,4.183,4.183,0,0,1-3.7,0,1.783,1.783,0,0,0-1.558,0,4.175,4.175,0,0,1-3.7,0Zm6.328-2.185a1.752,1.752,0,0,0,1.558,0,1.543,1.543,0,0,0,.848-1.053A4.025,4.025,0,0,1,43.93,28.3a1.546,1.546,0,0,0,.921-1.074,1.408,1.408,0,0,0-.333-1.26,3.891,3.891,0,0,1-.848-3.577,1.408,1.408,0,0,0-.265-1.25,1.665,1.665,0,0,0-1.318-.642l-.073,0h-.1a4.182,4.182,0,0,1-3.256-1.552,1.744,1.744,0,0,0-2.679,0A4.185,4.185,0,0,1,32.719,20.5h-.164a1.671,1.671,0,0,0-1.316.636,1.414,1.414,0,0,0-.259,1.225,3.894,3.894,0,0,1-.848,3.578,1.4,1.4,0,0,0-.333,1.284A1.546,1.546,0,0,0,30.72,28.3a4.023,4.023,0,0,1,2.351,2.84,1.531,1.531,0,0,0,.848,1.053,1.752,1.752,0,0,0,1.558,0,4.235,4.235,0,0,1,3.7,0ZM14.037,29.285a1.231,1.231,0,0,1,0-2.462h7.91a1.231,1.231,0,0,1,0,2.462Zm-.029-6.206a1.231,1.231,0,0,1,0-2.462h8.879a1.231,1.231,0,0,1,0,2.462Zm.019-6.212a1.23,1.23,0,0,1,0-2.461H26.762a1.23,1.23,0,0,1,0,2.461Zm-.019-6.206a1.23,1.23,0,0,1,0-2.461H31.415a1.23,1.23,0,0,1,0,2.461Z" transform="translate(16 5.6)"/>
</svg>
