<?xml version="1.0" encoding="UTF-8"?>
<svg width="63px" height="53px" viewBox="0 0 63 53" version="1.1" xmlns="http://www.w3.org/2000/svg" xmlns:xlink="http://www.w3.org/1999/xlink">
    <title>400AECB3-EC79-475C-B963-323512A2D69B</title>
    <g id="SES" stroke="none" stroke-width="1" fill="none" fill-rule="evenodd">
        <g id="SES-new---06-10-2021" transform="translate(-950.000000, -2021.000000)">
            <g id="Group-10" transform="translate(950.000000, 2021.000000)">
                <circle id="Oval-Copy-18" fill="#F5CFCD" cx="26.5" cy="26.5" r="26.5"></circle>
                <path d="M59.2506765,45.9999881 C61.3202211,45.9999881 62.9999046,44.3203046 62.9999046,42.25076 L62.9999046,16.3101938 C62.9999046,15.3188326 62.6014986,14.3579126 61.8983753,13.6547893 L55.3451988,7.1016128 C54.6420754,6.39848948 53.6897767,6.00008345 52.6975763,6.00008345 L36.7499672,6.00008345 C34.6796597,6.00786541 33.0007391,7.68754891 33.0007391,9.75709353 L33.0007391,18.9453803 C32.5343553,18.9453803 32.0679715,18.8140788 31.1155965,18.5523912 C30.9827691,18.5164568 30.8530697,18.5008166 30.7281005,18.5008166 C30.2937601,18.5008166 29.9132831,18.6961286 29.6609033,18.9531623 C28.2585476,20.3797031 28.3273646,20.3414799 26.4030833,20.8672202 C25.8797081,21.0086689 25.4679507,21.4304971 25.3265783,21.9664608 C24.8210558,23.8937938 24.8508104,23.8539685 23.4499806,25.2727273 C23.0632475,25.6664794 22.9109652,26.2476853 23.0531005,26.790668 C23.565642,28.6953418 23.5625139,28.6961048 23.0531005,30.6000156 C22.9109652,31.1429984 23.0624846,31.7250435 23.4499806,32.1195585 C24.8562273,33.5375544 24.8234209,33.509402 25.3265783,35.42346 C25.4671877,35.9609495 25.8797081,36.3820148 26.4030833,36.5249893 C26.543769,36.5625258 26.631278,36.5874739 26.7515169,36.6195173 L26.7515169,44.7499911 C26.7515169,45.1835685 26.9757443,45.5851789 27.3445484,45.8132972 C27.7085459,46.0405764 28.1718779,46.0601076 28.5601369,45.8679236 L33.0007391,43.6476225 L37.4413413,45.8679236 C37.6171221,45.9554325 37.8101454,45.9999881 38.0007272,45.9999881 L59.2506765,45.9999881 Z M57.2506549,24.5000834 C57.6631304,24.5000834 58.0006549,24.078173 58.0006549,23.5625797 L58.0006549,22.9375812 C58.0006549,22.421988 57.6631304,22.0000834 57.2506549,22.0000834 L46.7506549,22.0000834 C46.3381793,22.0000834 46.0006549,22.421988 46.0006549,22.9375812 L46.0006549,23.5625797 C46.0006549,24.078173 46.3381793,24.5000834 46.7506549,24.5000834 L57.2506549,24.5000834 Z M57.2506549,29.5000834 C57.6631304,29.5000834 58.0006549,29.078173 58.0006549,28.5625797 L58.0006549,27.9375812 C58.0006549,27.421988 57.6631304,27.0000834 57.2506549,27.0000834 L46.7506549,27.0000834 C46.3381793,27.0000834 46.0006549,27.421988 46.0006549,27.9375812 L46.0006549,28.5625797 C46.0006549,29.078173 46.3381793,29.5000834 46.7506549,29.5000834 L57.2506549,29.5000834 Z M57.2506211,34.5000834 C57.6630955,34.5000834 58.0006189,34.078173 58.0006189,33.5625797 L58.0006189,32.9375812 C58.0006189,32.421988 57.6630955,32.0000834 57.2506211,32.0000834 L46.7506526,32.0000834 C46.3381783,32.0000834 46.0006549,32.421988 46.0006549,32.9375812 L46.0006549,33.5625797 C46.0006549,34.078173 46.3381783,34.5000834 46.7506526,34.5000834 L57.2506211,34.5000834 Z M59.2506765,43.500757 L39.2507242,43.500757 L39.2507242,36.6172285 C39.3710395,36.585948 39.4577855,36.5617629 39.5976319,36.5242264 C40.1210834,36.3820148 40.5327646,35.9601866 40.673374,35.4242229 C41.1788965,33.4961269 41.1491419,33.5367152 42.5507346,32.1179564 C42.9374677,31.7242042 43.0898264,31.1422354 42.9468519,30.5992527 C42.4366755,28.6984699 42.4350733,28.6977069 42.9468519,26.7899051 C43.0898264,26.2469224 42.9374677,25.6648773 42.5507346,25.2703622 C41.144488,23.8523663 41.1772943,23.8805187 40.673374,21.9664608 C40.5327646,21.4297342 40.1210834,21.0078296 39.5991578,20.8656944 C37.7062332,20.3523899 37.7327835,20.3789402 36.3398119,18.9500343 C36.1100914,18.7180249 35.8101043,18.5969467 35.5007331,18.546898 L35.5007331,9.75709353 C35.5007331,9.06961043 36.0632471,8.50007749 36.7507302,8.50007749 L50.5030625,8.50007749 L50.5030625,16.6305513 C50.5030625,17.669596 51.3390132,18.5000536 52.378058,18.5000536 L60.5014365,18.5000536 L60.5014365,42.25076 L60.5006735,42.25076 C60.5006735,42.9382431 59.9381596,43.500757 59.2506765,43.500757 Z M60.4616111,16.0055528 L53.0022936,16.0055528 L53.0022936,8.54615892 C53.2210278,8.60086155 53.4163398,8.7102668 53.5803714,8.8742984 L60.1334716,15.4273986 C60.2975795,15.5914302 60.4069085,15.7867422 60.4616111,16.0055528 Z M30.5117314,35.7664004 C29.4819944,34.8382868 28.7491928,34.567978 27.6031079,34.2562417 C27.1367241,32.546117 26.8437561,32.0242676 25.6000152,30.740625 C26.0453419,28.998457 26.0453419,28.3789516 25.6007781,26.6476935 C26.823462,25.3820563 27.1288659,24.8523487 27.6031079,23.127423 C29.2882846,22.6484507 29.7953329,22.3523546 31.0312156,21.1203629 C31.7968235,21.3250591 32.3452994,21.4446114 33.0007391,21.4446114 C33.6476339,21.4446114 34.1921425,21.3281872 34.9687367,21.1196 C36.1843253,22.3312976 36.7257821,22.64929 38.3952422,23.1258208 C38.8624652,24.8406757 39.1538311,25.3625251 40.3991742,26.6469306 C39.9484307,28.4008479 39.9491936,28.990675 40.3991742,30.740625 C39.1788555,32.0038972 38.8718494,32.5343677 38.3983703,34.2531136 C37.2554134,34.5593568 36.5233747,34.8281397 35.488221,35.7656375 C34.711703,35.4117107 33.8648423,35.227385 32.9999762,35.227385 C32.1351101,35.227385 31.2890122,35.4117107 30.5117314,35.7664004 Z M36.7507302,42.7273671 L33.560125,41.1320645 C33.2085633,40.9562837 32.7937541,40.9562837 32.4421925,41.1320645 L29.251511,42.7273671 L29.251511,38.0234751 C29.2608951,38.032783 29.2663883,38.0367502 29.2757724,38.0461344 C29.5687404,38.3445193 29.9538714,38.4984801 30.3413674,38.4984801 C30.6148042,38.4984801 30.8898432,38.4218811 31.1351277,38.2663945 C31.7015326,37.9078138 32.3507925,37.7289049 32.9999762,37.7289049 C33.6491598,37.7289049 34.2984197,37.9078138 34.8648246,38.2648686 C35.1117112,38.4226441 35.386674,38.500006 35.6593479,38.500006 C36.0468439,38.500006 36.4304489,38.3445193 36.7241799,38.0476602 C36.734327,38.0375132 36.7405831,38.0336222 36.7507302,38.0226359 L36.7507302,42.7273671 Z" id="ffile-certificate" fill="#000000" fill-rule="nonzero"></path>
                <circle id="Oval" fill-opacity="0.8" fill="#000000" cx="33" cy="29" r="4"></circle>
            </g>
        </g>
    </g>
</svg>