<?xml version="1.0" encoding="UTF-8"?>
<svg width="89px" height="72px" viewBox="0 0 89 72" version="1.1" xmlns="http://www.w3.org/2000/svg" xmlns:xlink="http://www.w3.org/1999/xlink">
    <title>Group 43</title>
    <g id="SES" stroke="none" stroke-width="1" fill="none" fill-rule="evenodd">
        <g transform="translate(-276.000000, -6285.000000)" id="Group-34">
            <g transform="translate(235.000000, 6237.000000)">
                <g id="Group-43" transform="translate(41.000000, 48.000000)">
                    <circle id="Oval-Copy-2" fill-opacity="0.5" fill="#A86C66" fill-rule="nonzero" cx="36" cy="36" r="36"></circle>
                    <g id="Group-5" transform="translate(30.000000, 7.000000)">
                        <rect id="Rectangle" x="0" y="0" width="58.24" height="58.24"></rect>
                        <g id="Group-6" transform="translate(5.000000, 5.000000)" fill="#000000" fill-rule="nonzero">
                            <path d="M36.2083962,48.9298036 L5.0115025,48.9298036 C2.2499437,48.9239898 0.005813808,46.6798599 0,43.9183011 L0,14.9480958 C0.005813808,12.186537 2.2499437,9.94240714 5.0115025,9.93659333 L14.8833485,9.93659333 C15.807744,9.93659333 16.5577252,10.6865746 16.5577252,11.61097 C16.5577252,12.5353655 15.807744,13.2853467 14.8833485,13.2853467 L5.0115025,13.2853467 C4.09873464,13.2853467 3.35456722,14.0295142 3.34875341,14.9480958 L3.34875341,43.9183011 C3.34875341,44.8310689 4.09292083,45.5752364 5.0115025,45.5810502 L36.2025824,45.5810502 C37.1153503,45.5810502 37.8595177,44.8368828 37.8595177,43.9183011 L37.8595177,34.0522689 C37.8595177,33.1278734 38.6094989,32.3778922 39.5338944,32.3778922 C40.4582899,32.3778922 41.2082824,33.1278734 41.2082824,34.0522689 L41.2082824,43.9241149 C41.2140849,46.6798599 38.969955,48.9298036 36.2083962,48.9298036 Z" id="Path"></path>
                            <path d="M47.5193008,7.58624533 L40.4908501,0.529417778 C40.1487574,0.193081778 39.694707,0 39.2157772,0 C38.7430672,0 38.282797,0.193081778 37.9469242,0.529417778 L14.0439719,24.4715582 C13.8262765,24.6895538 13.6707798,24.9511484 13.5899216,25.2438853 L10.7474419,35.0785991 C10.5670658,35.7014436 10.7412221,36.3741156 11.1952724,36.8350204 C11.5373652,37.1838133 11.9976354,37.3706667 12.4765652,37.3706667 C12.6320619,37.3706667 12.7937785,37.3457529 12.9492752,37.3021538 L22.8575247,34.5740951 C23.1560784,34.4931253 23.4297525,34.3311858 23.6474479,34.1069618 L47.5317406,10.1149938 C48.2221459,9.42363644 48.2221459,8.29005956 47.5193008,7.58624533 Z M15.0826899,32.9982987 L16.3639826,28.5574178 L19.5920941,31.7526098 L15.0826899,32.9982987 Z M22.372375,30.3138391 L17.806992,25.7795316 L34.8121107,8.75096444 L39.3463944,13.2479013 L22.372375,30.3138391 Z M41.4549296,11.1302302 L36.9268658,6.63329333 L39.2157772,4.34122578 L43.7189615,8.856848 L41.4549296,11.1302302 Z" id="Shape"></path>
                        </g>
                    </g>
                </g>
            </g>
        </g>
    </g>
</svg>