<?xml version="1.0" encoding="UTF-8"?>
<svg width="64px" height="53px" viewBox="0 0 64 53" version="1.1" xmlns="http://www.w3.org/2000/svg" xmlns:xlink="http://www.w3.org/1999/xlink">
    <title>Group 26</title>
    <g id="Explorations" stroke="none" stroke-width="1" fill="none" fill-rule="evenodd">
        <g id="Topfold-pes-changes-" transform="translate(-570.000000, -2302.000000)">
            <g id="Group-26" transform="translate(570.000000, 2302.000000)">
                <g id="Group-24">
                    <circle id="Oval-Copy-2" fill="#FFEDAB" opacity="0.991396949" cx="26.5" cy="26.5" r="26.5"></circle>
                    <path d="M55.2499374,45.1999881 C57.320245,45.1999881 58.9999285,43.5203046 58.9999285,41.449997 L58.9999285,15.5047769 C58.9999285,14.5125765 58.6015224,13.5516566 57.8983991,12.8485332 L51.3436967,6.29383084 C50.6405734,5.59070752 49.6874354,5.19230148 48.695235,5.19230148 L32.7499911,5.19230148 C30.6796835,5.20008345 29,6.87976694 29,8.95007451 L29,41.449997 C29,43.5203046 30.6796835,45.1999881 32.7499911,45.1999881 L55.2499374,45.1999881 Z M55.2499374,42.699994 L32.7499911,42.699994 C32.062508,42.699994 31.499994,42.1374801 31.499994,41.449997 L31.499994,8.95007451 C31.499994,8.2625914 32.062508,7.70007749 32.7499911,7.70007749 L46.4999583,7.70007749 L46.4999583,15.8250581 C46.4999583,16.8641029 47.335909,17.7000536 48.3749538,17.7000536 L56.4999344,17.7000536 L56.4999344,41.449997 C56.4999344,42.1374801 55.9374205,42.699994 55.2499374,42.699994 Z M56.460872,15.2000596 L48.9999523,15.2000596 L48.9999523,7.73913989 C49.2186865,7.79384252 49.4139986,7.90317148 49.5781065,8.06727937 L56.1327326,14.6219055 C56.2968404,14.7860134 56.4061694,14.9813254 56.460872,15.2000596 Z M42.9374821,20.2000417 C43.2468388,20.2000417 43.4999821,19.7781313 43.4999821,19.262538 L43.4999821,18.6375395 C43.4999821,18.1219462 43.2468388,17.7000417 42.9374821,17.7000417 L35.0624821,17.7000417 C34.7531254,17.7000417 34.4999821,18.1219462 34.4999821,18.6375395 L34.4999821,19.262538 C34.4999821,19.7781313 34.7531254,20.2000417 35.0624821,20.2000417 L42.9374821,20.2000417 Z M55,48.1923015 C59.9705627,48.1923015 64,44.1628642 64,39.1923015 C64,34.2217387 59.9705627,30.1923015 55,30.1923015 C50.0294373,30.1923015 46,34.2217387 46,39.1923015 C46,44.1628642 50.0294373,48.1923015 55,48.1923015 Z M45.7499821,25.2000358 C46.1624577,25.2000358 46.4999821,24.7781253 46.4999821,24.262532 L46.4999821,23.6375335 C46.4999821,23.1219403 46.1624577,22.7000358 45.7499821,22.7000358 L35.2499821,22.7000358 C34.8375065,22.7000358 34.4999821,23.1219403 34.4999821,23.6375335 L34.4999821,24.262532 C34.4999821,24.7781253 34.8375065,25.2000358 35.2499821,25.2000358 L45.7499821,25.2000358 Z M48.5624486,30.2000298 C49.0780418,30.2000298 49.4999464,29.7781193 49.4999464,29.2625261 L49.4999464,28.6375276 C49.4999464,28.1219343 49.0780418,27.7000298 48.5624486,27.7000298 L35.4374799,27.7000298 C34.9218866,27.7000298 34.4999821,28.1219343 34.4999821,28.6375276 L34.4999821,29.2625261 C34.4999821,29.7781193 34.9218866,30.2000298 35.4374799,30.2000298 L48.5624486,30.2000298 Z" id="ffile-alt" fill="#000000" fill-rule="nonzero"></path>
                </g>
                <path d="M55.5,38.6 C56.9203164,38.6 58.0714286,37.3913322 58.0714286,35.9 C58.0714286,34.4086678 56.9203164,33.2 55.5,33.2 C54.0796836,33.2 52.9285714,34.4086678 52.9285714,35.9 C52.9285714,37.3913322 54.0796836,38.6 55.5,38.6 Z M59.0357143,44 C59.5680804,44 60,43.5464844 60,42.9875 L60,42.1100082 C60,40.5448479 58.7906211,39.275 57.2999922,39.275 L56.9645168,39.275 C56.5185307,39.4901604 56.0223214,39.6125 55.5,39.6125 C54.9776786,39.6125 54.48349,39.4901604 54.0354832,39.275 L53.7000078,39.275 C52.2093789,39.275 51,40.5448479 51,42.1100082 L51,42.9875 C51,43.5464844 51.4319196,44 51.9642857,44 L59.0357143,44 Z" id="uuser" fill="#FFFFFF" fill-rule="nonzero"></path>
            </g>
        </g>
    </g>
</svg>