<svg xmlns="http://www.w3.org/2000/svg" width="40" height="38" fill-rule="evenodd" xmlns:v="https://vecta.io/nano"><ellipse fill="#d8cef3" cx="16.827" cy="16.667" rx="16.827" ry="16.667"/><path d="M24.855 13.993l-.416 2.657c0 .086 0 .257.166.343.083 0 .083.086.166.086h.166l2.247-1.2 2.247 1.2a.25.25 0 0 0 .333 0c.083-.086.166-.17.166-.343l-.416-2.657 1.83-1.886c.083-.17.083-.343.083-.43s-.166-.17-.25-.257l-2.58-.343-1.165-2.4a.32.32 0 0 0-.583 0l-1.165 2.4-2.58.343c-.083 0-.25.086-.25.257 0 .086 0 .257.083.343l1.914 1.886zM14.97 34.248l4.938-2.488 1.938 5.066c.046.18.23.27.415.317.185 0 .37-.136.415-.27L27.153 25.6l4.477 11.26c.046.18.23.27.415.27a.44.44 0 0 0 .415-.317l1.94-5.063 4.938 2.488c.185.1.37.045.508-.045s.185-.317.138-.498l-5.353-13.57c1.846-1.855 2.954-4.342 2.954-7.1 0-5.6-4.66-10.177-10.384-10.177S16.815 7.425 16.815 13.034c0 2.714 1.108 5.202 2.907 7.056l-5.4 13.57c-.092.18 0 .362.138.498s.37.18.508.1zm7.292 1.176l-1.615-4.297 3.323-8.413c.692.226 1.43.362 2.215.452l.462 1.176-4.384 11.082zm9.784 0L27.2 23.2c1.108 0 2.123-.18 3.138-.498l3.323 8.413-1.615 4.297zm2.492-4.614l-3.323-8.413c.97-.407 1.892-.95 2.677-1.628l4.8 12.122-4.154-2.08zM27.2 3.807c5.215 0 9.46 4.16 9.46 9.273s-4.246 9.273-9.46 9.273-9.46-4.16-9.46-9.273 4.246-9.273 9.46-9.273zM20.46 20.77c.785.678 1.708 1.22 2.677 1.628L19.77 30.8l-4.154 2.08 4.844-12.1z" fill-rule="nonzero"/></svg>