<svg xmlns="http://www.w3.org/2000/svg" width="28" height="23" fill="none" fill-rule="evenodd" xmlns:v="https://vecta.io/nano"><circle fill="#ae9fe1" opacity=".5" cx="11.5" cy="11.5" r="11.5"/><g fill-rule="nonzero"><path d="M23.107 17.285H11.743c-1.006-.002-1.823-.758-1.826-1.7v-9.76c.002-.93.82-1.687 1.826-1.7h3.596c.337 0 .6.253.6.564s-.273.564-.6.564h-3.596c-.333 0-.604.25-.606.56v9.76c0 .308.27.558.606.56h11.362c.333 0 .604-.25.604-.56V12.27c0-.3.273-.564.6-.564s.6.253.6.564v3.33c.002.93-.815 1.687-1.82 1.687z" fill="#262626"/><path d="M27.228 3.355L24.667.977a.69.69 0 0 0-.464-.178c-.172 0-.34.065-.462.178l-8.707 8.067a.58.58 0 0 0-.165.26l-1.035 3.314a.58.58 0 0 0 .163.592.68.68 0 0 0 .467.18.67.67 0 0 0 .172-.023l3.6-.92c.1-.027.208-.082.288-.157l8.7-8.084a.57.57 0 0 0-.005-.852zM15.4 11.917l.467-1.496 1.176 1.077-1.643.42zm2.656-.905l-1.663-1.528L22.6 3.748l1.652 1.515-6.183 5.75zm6.95-6.464l-1.65-1.515.834-.772 1.64 1.52-.825.766z" fill="#000"/></g></svg>