<svg xmlns="http://www.w3.org/2000/svg" width="22" height="22" fill-rule="nonzero" xmlns:v="https://vecta.io/nano"><path d="M16.112 21.718H2.627c-1.194-.003-2.164-.983-2.166-2.2V6.866a2.2 2.2 0 0 1 2.166-2.2h4.267a.73.73 0 0 1 .724.732.73.73 0 0 1-.724.732H2.627c-.395 0-.716.325-.72.727V19.52c0 .4.322.724.72.727H16.1c.395 0 .716-.325.716-.727v-4.312a.73.73 0 0 1 .724-.732.73.73 0 0 1 .724.732v4.315c.003 1.204-.968 2.188-2.16 2.188z" fill="#113dcd"/><path d="M21 3.65L17.963.564a.78.78 0 0 0-.551-.231c-.204 0-.403.084-.548.23L6.53 11.03c-.094.095-.16.2-.196.338l-1.23 4.298a.79.79 0 0 0 .194.768.77.77 0 0 0 .554.234.72.72 0 0 0 .204-.03l4.283-1.192a.75.75 0 0 0 .341-.204L21.006 4.754a.79.79 0 0 0-.005-1.105zM6.98 14.755l.554-1.94L8.93 14.2l-1.95.544zm3.15-1.173L8.158 11.6l7.35-7.443 1.96 1.965-7.337 7.46zm8.248-8.384L16.42 3.233l1-1.002 1.946 1.974-.98.994z" fill="#262626"/></svg>