<svg xmlns="http://www.w3.org/2000/svg" width="16" height="12"  xmlns:v="https://vecta.io/nano"><path d="M15.697 3.963c.122-.097.303-.006.303.147V10.5a1.5 1.5 0 0 1-1.5 1.5h-13A1.5 1.5 0 0 1 0 10.5V4.113c0-.156.178-.244.303-.147l4.816 3.55C5.778 7.997 6.891 9.009 8 9.003c1.116.009 2.25-1.025 2.884-1.488l4.813-3.553zM8 8c.725.012 1.769-.912 2.294-1.294l5.419-4.022A.75.75 0 0 0 16 2.094V1.5A1.5 1.5 0 0 0 14.5 0h-13A1.5 1.5 0 0 0 0 1.5v.594c0 .231.106.447.288.591l5.419 4.022C6.231 7.088 7.275 8.012 8 8z" fill="#6882da"/></svg>