<?xml version="1.0" encoding="UTF-8"?>
<svg width="16px" height="12px" viewBox="0 0 16 12" version="1.1" xmlns="http://www.w3.org/2000/svg" xmlns:xlink="http://www.w3.org/1999/xlink">
    <title>7B7CD825-E7A7-46F0-80DC-AD464EFE8DDB</title>
    <g id="Korea" stroke="none" stroke-width="1" fill="none" fill-rule="evenodd" opacity="0.400000006">
        <g id="Payments-Page-Korea" transform="translate(-766.000000, -2306.000000)" fill="#000000" fill-rule="nonzero">
            <g id="call" transform="translate(404.000000, 2212.000000)">
                <g id="Group-20" transform="translate(362.000000, 91.000000)">
                    <g id="Group-4" transform="translate(0.000000, 3.000000)">
                        <g id="Group" transform="translate(0.274530, 0.275000)">
                            <path d="M1.53516475,0 C0.693541503,0 0,0.678860089 0,1.50267857 L0,8.51517857 C0,9.33899705 0.693541503,10.0178571 1.53516475,10.0178571 L12.7930404,10.0178571 C13.6346636,10.0178571 14.3282059,9.33899705 14.3282059,8.51517857 L14.3282059,1.50267857 C14.3282059,0.678860089 13.6346636,0 12.7930404,0 L1.53516475,0 Z M1.62045169,1.00178571 L12.702423,1.00178571 L7.51058065,5.69244696 C7.26735425,5.91220536 7.04963547,5.91207179 6.80696344,5.69244696 L1.62045169,1.00178571 Z M1.02344314,1.82094589 L6.10867665,6.428125 C6.6955567,6.95928848 7.62192786,6.95847036 8.20886744,6.428125 L13.304762,1.82094589 L13.304762,8.51517857 C13.304762,8.80133866 13.0853782,9.01607143 12.7930404,9.01607143 L1.53516475,9.01607143 C1.24282672,9.01607143 1.02344314,8.80133866 1.02344314,8.51517857 L1.02344314,1.82094589 Z" id="Shape"></path>
                        </g>
                    </g>
                </g>
            </g>
        </g>
    </g>
</svg>