<svg xmlns="http://www.w3.org/2000/svg" width="34" height="32" xmlns:v="https://vecta.io/nano"><path d="M33.207 6.24l-6.22-5.94C26.784.108 26.5 0 26.222 0s-.562.108-.765.302l-8.938 8.53L8.092.79a1.12 1.12 0 0 0-1.529 0L.824 6.265c-.203.194-.317.455-.317.73s.114.537.317.73l8.428 8.046L.317 24.3a1 1 0 0 0 0 1.46l6.22 5.938c.21.2.488.302.765.302s.554-.1.765-.302l8.937-8.53 5.984 5.714a1.1 1.1 0 0 0 .455.259l8.182 2.332c.103.03.205.043.31.043.283 0 .56-.106.765-.302a1 1 0 0 0 .271-1.025l-2.443-7.81a1.02 1.02 0 0 0-.271-.435L24.27 16.23l8.937-8.53a1 1 0 0 0 0-1.46zM7.328 2.978l2.206 2.106-4.2 4.02-2.207-2.107 4.21-4.018zm-.026 26.53L2.61 25.03l1.382-1.32 3.295 3.146 1.147-1.095-3.295-3.146 2.137-2.04 2.05 1.955 1.147-1.095-2.05-1.955 2.36-2.252 4.692 4.478-8.173 7.8zm-.83-19.31l4.2-4.02 17.472 16.676-4.21 4.02L6.47 10.197zM30.326 28.95l-4.822-1.375 3.383-3.228 1.44 4.603zM22.74 14.77l-4.69-4.48 2.36-2.25 2.05 1.956 1.147-1.095-2.05-1.956 2.137-2.04L26.99 8.05l1.147-1.095L24.84 3.81l1.383-1.32 4.69 4.48-8.173 7.8z" fill="#fff"/></svg>