<svg xmlns="http://www.w3.org/2000/svg" width="18" height="17" xmlns:v="https://vecta.io/nano"><path d="M17.094 3.572L14.032.65c-.1-.096-.235-.15-.376-.15s-.277.053-.376.15l-4.4 4.198L4.733.888a.55.55 0 0 0-.753 0L1.156 3.583c-.1.096-.156.224-.156.36s.056.264.156.36l4.148 3.96L.906 12.46a.49.49 0 0 0 0 .718l3.06 2.922a.54.54 0 0 0 .376.15.54.54 0 0 0 .376-.15l4.4-4.198 2.945 2.812a.54.54 0 0 0 .224.128L16.315 16a.56.56 0 0 0 .152.021c.14 0 .275-.052.376-.15.138-.132.2-.326.134-.505l-1.202-3.845a.5.5 0 0 0-.134-.214l-2.946-2.812 4.4-4.198a.49.49 0 0 0 0-.718zM4.357 1.966l1.086 1.036L3.37 4.98 2.284 3.943l2.073-1.977zm-.013 13.058l-2.3-2.204.68-.65 1.622 1.55.565-.54-1.622-1.55 1.052-1.003 1 .962.565-.54-1-.962 1.16-1.1 2.3 2.204-4.023 3.84zm-.4-9.505l2.073-1.98 8.6 8.208-2.073 1.98-8.6-8.2zm11.74 9.23l-2.373-.677 1.665-1.6.708 2.265zm-3.73-6.98l-2.3-2.204 1.16-1.108 1 .963.565-.54-1-.963L12.4 2.914l1.622 1.548.565-.54-1.622-1.548.68-.65 2.3 2.204-4.023 3.84z"/></svg>