<svg xmlns="http://www.w3.org/2000/svg" width="42" height="40" xmlns:v="https://vecta.io/nano"><path d="M40.785 8.175L33.3 1.03a1.33 1.33 0 0 0-.92-.364c-.346 0-.677.13-.92.364L20.7 11.293 10.57 1.616c-.5-.486-1.33-.486-1.84 0L1.825 8.204a1.21 1.21 0 0 0 0 1.756l10.14 9.68-10.75 10.262a1.2 1.2 0 0 0 0 1.756L8.7 38.803a1.33 1.33 0 0 0 .92.364 1.33 1.33 0 0 0 .92-.364L21.3 28.54l7.2 6.874c.152.145.34.252.548.312l9.844 2.806a1.36 1.36 0 0 0 .372.052c.34 0 .673-.128.92-.364.338-.323.463-.797.327-1.233l-2.94-9.398a1.21 1.21 0 0 0-.327-.523l-7.2-6.873 10.74-10.26a1.2 1.2 0 0 0 0-1.756zM9.65 4.25l2.654 2.534L7.24 11.62 4.584 9.084 9.65 4.25zm-.03 31.92l-5.646-5.4 1.663-1.587L9.6 32.98l1.38-1.318-3.964-3.785 2.57-2.453 2.465 2.352 1.38-1.318-2.465-2.352 2.838-2.7 5.645 5.388-9.833 9.385zm-1-23.234L13.684 8.1l21.02 20.063L29.64 33 8.62 12.935zm28.7 22.56l-5.8-1.654 4.07-3.884 1.732 5.538zm-9.126-17.058l-5.644-5.4 2.838-2.707 2.465 2.353 1.38-1.318-2.465-2.353 2.57-2.455 3.966 3.784 1.38-1.318-3.966-3.783 1.664-1.588 5.644 5.4-9.833 9.385z" fill="#96abec"/></svg>