<svg xmlns="http://www.w3.org/2000/svg" width="43" height="37" fill="none" fill-rule="evenodd" xmlns:v="https://vecta.io/nano"><ellipse cx="18.528" cy="18.495" rx="17.565" ry="17.822" fill="#ffdc68" opacity=".5"/><g fill-rule="nonzero"><path d="M36.096.317a.87.87 0 0 1 .538.185l.087.078 5.084 5.16c.317.32.343.824.08 1.176l-.08.092-7.305 7.4 4.892 4.963a.9.9 0 0 1 .184.273l.038.104 1.997 6.786c.093.315.008.657-.222.9a.88.88 0 0 1-.625.263.86.86 0 0 1-.169-.017l-.084-.02-6.688-2.026a.89.89 0 0 1-.29-.152l-.082-.073-4.892-4.964-7.305 7.4c-.172.175-.4.263-.625.263a.86.86 0 0 1-.534-.183l-.1-.08-5.084-5.16c-.317-.32-.343-.824-.08-1.176l.08-.092 7.304-7.4-6.9-7a.9.9 0 0 1-.077-1.179l.077-.1L20.015 1c.317-.32.813-.348 1.16-.08l.1.08 6.9 7L35.47.58c.165-.17.4-.263.625-.263zm-12.62 14.97l-1.928 1.957 1.675 1.7-.938.952-1.675-1.7-1.747 1.77 2.693 2.734-.938.952-2.693-2.734-1.13 1.146 3.834 3.9 6.68-6.777-3.835-3.9zm14.797 6.183l-2.765 2.804 3.94 1.195-1.176-4zM23.394 5.685l-3.44 3.5 14.28 14.5 3.442-3.493-14.28-14.488zM36.097 2.48l-1.13 1.147L37.66 6.36l-.938.952L34.03 4.58l-1.747 1.773 1.675 1.7-.938.952-1.675-1.7-1.928 1.955 3.834 3.9 6.68-6.777-3.834-3.9zm-15.444.423l-3.442 3.5 1.804 1.83 3.44-3.5-1.803-1.83z" fill="#000"/><path d="M20.184 1.16c.346-.35.904-.35 1.25 0h0L39.55 19.54c.103.105.18.235.222.378h0l1.997 6.786c.093.315.008.657-.222.9a.88.88 0 0 1-.625.263c-.085 0-.17-.013-.253-.038h0l-6.688-2.026a.88.88 0 0 1-.372-.225h0L15.493 7.185a.9.9 0 0 1 0-1.268h0zM38.43 21.626l-2.765 2.804 3.94 1.195-1.176-4zM23.55 5.842l-3.44 3.5 14.28 14.5 3.442-3.493L23.55 5.842zm-2.74-2.78l-3.442 3.5 1.804 1.83 3.44-3.5-1.803-1.83z" fill="#262626"/></g></svg>