<svg width="40" height="40" viewBox="0 0 40 40" fill="none" xmlns="http://www.w3.org/2000/svg">
<circle opacity="0.5" cx="20" cy="20" r="16" fill="#CFA6A1"/>
<path d="M22.4671 18.2428H17.9883C17.6898 18.2428 17.4478 18.0008 17.4478 17.7023C17.4478 17.4037 17.6898 17.1617 17.9883 17.1617H22.4671C22.7656 17.1617 23.0076 17.4037 23.0076 17.7023C23.0076 18.0008 22.7656 18.2428 22.4671 18.2428Z" fill="black"/>
<path d="M22.313 25.7914H18.1236C17.8251 25.7914 17.5831 25.5494 17.5831 25.2509C17.5831 24.9524 17.8251 24.7104 18.1236 24.7104H22.313C22.4561 24.7107 22.5933 24.7678 22.6942 24.8691C22.7952 24.9705 22.8518 25.1078 22.8515 25.2509C22.855 25.395 22.7995 25.5342 22.6978 25.6362C22.5961 25.7383 22.4571 25.7944 22.313 25.7914V25.7914Z" fill="black"/>
<path d="M21.6565 22.0072H16.5405C16.242 22.0072 16 21.7652 16 21.4667C16 21.1681 16.242 20.9261 16.5405 20.9261H21.657C21.8005 20.9259 21.9381 20.9827 22.0395 21.0842C22.141 21.1856 22.1978 21.3232 22.1976 21.4667C22.2044 21.6121 22.1496 21.7537 22.0466 21.8566C21.9436 21.9595 21.802 22.0142 21.6565 22.0072V22.0072Z" fill="black"/>
<path d="M39.2234 14.8264C39.219 15.1629 39.1185 15.491 38.9336 15.7722C38.2261 14.8835 37.3626 14.1311 36.3855 13.5518C36.7014 13.2774 37.1059 13.1266 37.5243 13.1273C37.9758 13.1246 38.4095 13.3027 38.7287 13.622C39.048 13.9412 39.2261 14.375 39.2234 14.8264V14.8264Z" fill="black"/>
<path d="M24.0704 14.8264C24.0748 15.1629 24.1753 15.4911 24.3602 15.7722C25.0677 14.8835 25.9311 14.1311 26.9083 13.5519C26.5924 13.2774 26.1879 13.1266 25.7695 13.1273C25.3171 13.1214 24.8815 13.2985 24.5615 13.6185C24.2416 13.9384 24.0645 14.374 24.0704 14.8264Z" fill="black"/>
<path fill-rule="evenodd" clip-rule="evenodd" d="M33.1433 13.3011C36.5873 13.8975 39.2845 16.5947 39.8809 20.0387C40.6252 24.4166 37.8081 28.6098 33.4736 29.5756C32.8899 29.7067 32.2933 29.7715 31.695 29.7686C27.706 29.7756 24.2806 26.934 23.5507 23.0123C23.1325 20.8629 23.5987 18.6357 24.844 16.8345C26.0637 15.0133 27.9604 13.7549 30.1125 13.3391C30.1405 13.3293 30.1644 13.3245 30.1887 13.3196C30.2122 13.3149 30.236 13.3101 30.2644 13.3006C30.3199 13.2786 30.3786 13.2656 30.4382 13.2621C31.1353 13.1466 31.1738 13.0113 31.0967 12.297L31.0775 12.104H29.6854C29.1256 12.104 28.8941 11.8918 28.8941 11.332V10.5787C28.8899 10.4323 28.9449 10.2904 29.0466 10.1851C29.1483 10.0797 29.2882 10.0198 29.4346 10.0189C30.1489 9.99968 30.883 9.99968 31.6743 9.99968H33.9539C34.0695 9.99543 34.182 10.0381 34.2657 10.1181C34.3494 10.1981 34.3971 10.3085 34.3982 10.4242C34.4368 10.8223 34.4368 11.2232 34.3982 11.6213C34.3597 11.9521 34.1859 12.0848 33.8191 12.104H32.4676L32.4483 12.297C32.3906 13.0306 32.4291 13.1658 33.1433 13.3011ZM31.7335 28.2625C33.518 28.2576 35.227 27.5421 36.4827 26.2742C37.7697 25.022 38.4936 23.3013 38.4888 21.5057C38.501 19.7026 37.8002 17.9677 36.5389 16.679C35.2785 15.3923 33.5524 14.6685 31.7512 14.6714H31.7142C27.9827 14.6913 24.9652 17.7163 24.9546 21.4479C24.944 25.1795 27.9444 28.2215 31.6757 28.2625H31.7335Z" fill="black"/>
<path d="M32.7958 22.336C32.5357 22.6678 32.1364 22.8604 31.7148 22.8573C31.4035 22.8608 31.1015 22.751 30.8652 22.5483C30.5744 22.3219 30.3866 21.9883 30.344 21.6222C30.3015 21.2563 30.4057 20.8883 30.6337 20.5989C30.7704 20.4219 30.9497 20.2825 31.155 20.1937L31.1742 17.4328C31.1773 17.1461 31.4088 16.9143 31.6955 16.911V16.911C31.8369 16.9116 31.9721 16.9694 32.0703 17.0712C32.1685 17.173 32.2213 17.3102 32.2168 17.4515L32.1975 20.1734C32.3215 20.2219 32.4384 20.2868 32.5451 20.3664C32.836 20.5929 33.0238 20.9267 33.0663 21.293C33.1278 21.6633 33.0295 22.0423 32.7958 22.336V22.336Z" fill="black"/>
</svg>
