<svg xmlns="http://www.w3.org/2000/svg" width="42" height="37" fill-rule="evenodd" xmlns:v="https://vecta.io/nano"><ellipse fill="#50caae" opacity=".5" cx="17.612" cy="18.495" rx="17.565" ry="17.822"/><path d="M36.365 4.237c.458 0 .83.376.83.84h0v4.206c0 .372-.26.716-.615.813h0l-4.006 1.088a.83.83 0 0 1-1.015-.595c-.118-.448.144-.9.587-1.03h0l2.524-.686c-2.343-1.902-5.23-2.937-8.274-2.937-7.318 0-13.27 6.037-13.27 13.458s5.954 13.458 13.27 13.458 13.27-6.037 13.27-13.458c0-.465.37-.84.83-.84s.83.376.83.84c0 8.348-6.698 15.14-14.93 15.14s-14.93-6.792-14.93-15.14 6.698-15.14 14.93-15.14a14.68 14.68 0 0 1 9.141 3.173h0v-2.35c0-.465.37-.84.83-.84zm-9.97 8.33c6.927 0 9.763 6.218 9.88 6.483a.85.85 0 0 1 0 .69c-.117.265-2.954 6.483-9.88 6.483s-9.763-6.218-9.88-6.483a.85.85 0 0 1 0-.69c.117-.265 2.954-6.483 9.88-6.483zm0 1.682c-5.04 0-7.542 3.93-8.195 5.146.652 1.213 3.152 5.145 8.195 5.145s7.542-3.93 8.195-5.146c-.653-1.216-3.154-5.146-8.195-5.146zm0 1.78c1.83 0 3.318 1.5 3.318 3.364s-1.488 3.364-3.318 3.364-3.318-1.5-3.318-3.364 1.488-3.364 3.318-3.364zm0 1.682c-.915 0-1.66.755-1.66 1.682s.744 1.682 1.66 1.682 1.66-.755 1.66-1.682-.744-1.682-1.66-1.682z" fill-rule="nonzero"/></svg>