<svg width="40" height="40" viewBox="0 0 40 40" fill="none" xmlns="http://www.w3.org/2000/svg">
<path d="M39.138 2.33609C39.1281 1.94492 39.0689 1.5125 38.7059 1.27109C38.2908 0.995469 37.8123 1.18187 37.3495 1.36266C36.2381 1.79625 35.1132 2.07805 33.8094 2.24961C33.4886 2.2918 33.2627 2.58609 33.3049 2.90695C33.3471 3.22773 33.6414 3.45383 33.9623 3.41141C35.3621 3.22734 36.5738 2.9232 37.7756 2.45438C37.8185 2.43766 37.8911 2.4093 37.967 2.38156C37.9901 3.35234 37.7344 4.10375 37.1854 4.67828C36.2995 5.60531 34.6023 6.09875 32.1406 6.14477C31.817 6.15086 31.5596 6.41805 31.5657 6.74164C31.5717 7.06148 31.8328 7.31656 32.1513 7.31656C32.1551 7.31656 32.1588 7.31656 32.1626 7.31648C33.5414 7.2907 34.7041 7.13453 35.6646 6.84492C35.6811 7.63945 35.4853 8.2725 35.0703 8.76562C34.7906 9.09812 34.4031 9.37344 33.9111 9.59133C33.9065 9.59344 33.9017 9.59531 33.8972 9.59758C33.0427 9.97258 31.8744 10.1755 30.4022 10.2024C30.0786 10.2084 29.8212 10.4755 29.8271 10.7991C29.833 11.119 30.0942 11.3742 30.4128 11.3742C30.4164 11.3742 30.4201 11.3742 30.4238 11.3741C31.6749 11.3513 32.7334 11.2104 33.6105 10.9491C33.5689 11.5106 33.3692 12.0255 33.0118 12.486C32.2299 13.4934 30.8245 14.0657 29.7257 14.2051C29.5927 13.959 29.4426 13.717 29.2758 13.4812C28.5245 12.4163 27.3688 11.5059 26.1834 11.0454C24.8878 10.5445 23.8113 10.6423 23.2292 11.3142C22.6885 11.941 22.7129 12.9909 22.9465 13.8702C22.4559 13.792 21.9572 13.7022 21.4537 13.6021V9.04195C23.2736 8.72156 24.8454 7.73133 25.9202 6.215L25.944 6.18148C27.4234 4.12742 29.0816 3.84141 31.2627 3.66164C31.5852 3.63508 31.825 3.35203 31.7985 3.02953C31.7718 2.70703 31.4897 2.46656 31.1663 2.49375C28.8336 2.68602 26.7589 3.04469 24.9931 5.49656L24.964 5.53734C24.1114 6.74031 22.8813 7.545 21.4536 7.84805V6.26C22.3752 5.64781 22.9843 4.60047 22.9843 3.41305C22.9842 1.53109 21.4531 0 19.5712 0C17.6881 0 16.156 1.53109 16.156 3.41305C16.156 4.6 16.765 5.64703 17.6866 6.2593V7.84812C16.2645 7.54539 15.0354 6.74203 14.179 5.54102L14.1475 5.49703C12.2192 2.81898 9.97634 2.64703 7.3793 2.44789C5.74298 2.32242 3.88829 2.18016 1.79297 1.36273C1.32977 1.18195 0.850786 0.995 0.434927 1.27133C0.0712547 1.51305 0.0121141 1.94516 0.00219219 2.33516C-0.032261 3.62344 0.339536 4.68414 1.10751 5.48781C1.44305 5.83898 1.84993 6.1382 2.32977 6.38727C2.21516 7.66352 2.49782 8.71672 3.17493 9.52109C3.48946 9.89469 3.88243 10.2107 4.35688 10.4703C4.29805 11.4819 4.59118 12.427 5.21579 13.2255C6.1836 14.4631 7.72587 15.1032 8.93766 15.3201C8.62805 16.2873 8.57923 17.2649 8.82055 18.1271C9.20477 19.4999 10.2502 20.5648 11.9275 21.2918L14.9723 22.6133C14.0345 23.1111 13.2455 23.6534 12.6191 24.233C12.3816 24.4528 12.3671 24.8236 12.587 25.0611C12.7025 25.1859 12.8595 25.2491 13.0172 25.2491C13.1595 25.2491 13.3023 25.1975 13.415 25.0932C14.146 24.4167 15.1435 23.789 16.3821 23.2252L18.098 23.9698L16.7913 24.5373C14.7767 25.4106 13.8288 26.3408 13.8932 27.3809C13.9561 28.3962 14.9984 29.229 16.9074 29.7889L18.0956 30.1379C18.0981 30.1387 18.1009 30.1395 18.1034 30.1402L23.961 31.8606C25.8621 32.418 27.0234 33.5597 27.1469 34.9928C27.243 36.1089 26.6642 37.1754 25.7065 37.6466C24.7513 38.1166 24.1345 38.1098 23.9698 38.0481C23.9752 37.9676 24.0244 37.7209 24.3711 37.2384C25.1286 36.1879 25.3684 35.3009 25.104 34.527C24.8524 33.7904 24.1601 33.2497 23.0463 32.9199L15.9275 30.8089C15.7831 30.766 15.4635 30.6592 15.4417 30.6531C13.1511 29.8621 11.9223 28.5827 12.1337 27.1766C12.1817 26.8565 11.9613 26.5581 11.6413 26.51C11.3198 26.4624 11.0229 26.6824 10.9748 27.0023C10.7249 28.6652 11.7188 30.1513 13.6905 31.1776C12.0081 31.9839 10.9613 33.316 10.8255 34.8922C10.6881 36.4858 11.5282 38.0153 12.916 38.698C13.5559 39.0129 14.2971 39.2506 14.933 39.2506C15.4006 39.2505 15.8116 39.122 16.0834 38.8009C16.3921 38.4362 16.5797 37.7504 15.7193 36.5529C15.2075 35.8432 15.0144 35.2891 15.1452 34.9063C15.2969 34.4621 15.9268 34.1919 16.4288 34.0434L17.6866 33.6705V38.1153C17.6866 39.1545 18.532 39.9998 19.5711 39.9998C20.609 39.9998 21.4534 39.1545 21.4534 38.1153V33.6698L22.7134 34.0434C23.2145 34.1917 23.8435 34.4617 23.995 34.9056C24.1259 35.2887 23.9326 35.8429 23.4201 36.5537C22.5603 37.7504 22.7479 38.4363 23.0567 38.801C23.3284 39.1221 23.7392 39.2507 24.207 39.2507C24.8429 39.2507 25.584 39.013 26.2239 38.6981C27.6117 38.0155 28.4519 36.486 28.3145 34.8923C28.1784 33.3124 27.127 31.9777 25.4377 31.172C27.1086 30.283 28.0711 29.0309 28.129 27.613C28.2032 25.7963 26.8002 24.0089 24.2329 22.5858L27.2145 21.2919C28.891 20.5648 29.9357 19.5002 30.3198 18.1276C30.5613 17.2643 30.512 16.2855 30.2017 15.3173C31.423 15.0928 32.9756 14.4439 33.9374 13.2047C34.5527 12.412 34.8411 11.4743 34.7831 10.4709C35.2585 10.2109 35.652 9.89437 35.967 9.52008C36.6437 8.71562 36.9258 7.66273 36.8106 6.38719C37.2903 6.1382 37.6971 5.83898 38.0326 5.48789C38.8006 4.68422 39.1724 3.62352 39.138 2.33609ZM16.0962 32.9199C14.9811 33.2498 14.2881 33.7907 14.0363 34.5276C13.772 35.3015 14.0116 36.1883 14.7684 37.2376C15.1156 37.7209 15.1647 37.9677 15.1703 38.0482C15.0056 38.1098 14.3888 38.1166 13.4335 37.6466C12.4759 37.1755 11.897 36.109 11.9932 34.9929C12.1167 33.5598 13.278 32.4181 15.1818 31.8598L15.2738 31.8324C15.3791 31.8666 17.5103 32.5005 17.5103 32.5005L16.0962 32.9199ZM20.2816 38.1155C20.2816 38.5084 19.9629 38.8281 19.5712 38.8281C19.1782 38.8281 18.8585 38.5084 18.8585 38.1155V33.3232L19.5714 33.1119L20.2816 33.3225V38.1155ZM23.5139 15.1401C23.8154 15.5571 24.3132 16.0194 25.1233 16.2927C25.9477 16.5708 26.1743 16.8448 26.179 16.951C26.19 17.2027 25.5838 17.8295 24.2017 18.4352L21.4534 19.6399V14.7977C22.153 14.9328 22.8424 15.0469 23.5139 15.1401ZM19.5712 1.17188C20.8069 1.17188 21.8123 2.17727 21.8123 3.41305C21.8123 4.65 20.807 5.65641 19.5712 5.65641C18.3342 5.65641 17.3279 4.65 17.3279 3.41305C17.3279 2.17727 18.3342 1.17188 19.5712 1.17188ZM19.5712 6.8282C19.8148 6.8282 20.0523 6.80203 20.2816 6.75328V8.53164V8.53391V14.0775V14.0814V20.1537L19.5698 20.4657L18.8585 20.1539V14.0805C18.8585 14.0793 18.8585 14.0781 18.8585 14.077V8.53391C18.8585 8.53312 18.8585 8.53242 18.8585 8.53164V6.75289C19.0885 6.80187 19.3268 6.8282 19.5712 6.8282ZM15.6262 15.1399C16.3052 15.0458 16.9949 14.9321 17.6866 14.7983V19.6402L14.9386 18.4354C13.5574 17.8295 12.9516 17.2024 12.9627 16.9507C12.9674 16.8447 13.1938 16.5707 14.0163 16.2929C14.8259 16.0206 15.3238 15.5584 15.6262 15.1399ZM6.13899 12.5037C5.77477 12.038 5.57157 11.5171 5.52985 10.949C6.40696 11.2105 7.46555 11.3513 8.71673 11.3743C8.7204 11.3744 8.72407 11.3744 8.72774 11.3744C9.04634 11.3744 9.30751 11.119 9.31337 10.7992C9.31923 10.4756 9.0618 10.2085 8.73829 10.2026C6.40798 10.1599 4.8379 9.6768 4.07172 8.76656C3.65657 8.27328 3.46032 7.64008 3.47633 6.84516C4.43672 7.13469 5.5993 7.2907 6.97782 7.31656C6.98157 7.31664 6.98532 7.31664 6.98907 7.31664C7.30758 7.31664 7.56868 7.06141 7.57469 6.74172C7.58071 6.41812 7.32329 6.15094 6.99985 6.14484C4.53813 6.09883 2.84086 5.60547 1.95501 4.67836C1.40602 4.10383 1.15032 3.35234 1.17352 2.38086C1.25016 2.40875 1.32391 2.43758 1.36719 2.45445C3.62477 3.33531 5.5718 3.48461 7.28962 3.61633C9.78415 3.80758 11.5864 3.94578 13.1982 6.18422L13.2249 6.22141C14.3037 7.7343 15.8738 8.72227 17.6866 9.04211V13.6027C17.1873 13.7023 16.6888 13.7919 16.1941 13.8705C16.4276 12.992 16.4522 11.9416 15.9113 11.3147C15.331 10.6416 14.2548 10.5436 12.9586 11.0458C11.7727 11.5055 10.6161 12.4161 9.86454 13.4815C9.69751 13.7175 9.54727 13.9599 9.41415 14.2063C8.32665 14.0765 6.92798 13.5126 6.13899 12.5037ZM20.2816 24.9177V29.141L19.5707 29.3499L18.8585 29.1408V24.9174L19.5695 24.6087L20.2816 24.9177ZM21.8826 25.6126C23.5338 26.3284 24.0989 26.9581 24.0772 27.3086C24.0546 27.6727 23.3734 28.2333 21.9024 28.6648L21.4534 28.7966V25.4263L21.8826 25.6126ZM15.0629 27.3086C15.0413 26.958 15.6063 26.3284 17.2578 25.6125L17.6866 25.4263V28.7966L17.2376 28.6647C15.7666 28.2332 15.0855 27.6727 15.0629 27.3086ZM26.9581 27.5653C26.9078 28.7954 25.7738 29.896 23.8376 30.6019L21.6508 29.9601L22.2325 29.7891C24.1417 29.2291 25.1839 28.3964 25.2469 27.381C25.3113 26.3409 24.3633 25.4107 22.349 24.5375L12.3939 20.2167C11.0562 19.6369 10.2336 18.8276 9.94915 17.8113C9.64509 16.7248 9.97126 15.359 10.8216 14.1577C10.8219 14.1574 10.822 14.1571 10.8223 14.1569C11.446 13.2726 12.403 12.518 13.3822 12.1384C14.1291 11.849 14.8041 11.8248 15.0239 12.0799C15.3063 12.4073 15.1848 13.5554 14.7927 14.2713C14.6304 14.565 14.2991 14.9613 13.6421 15.1823C12.4468 15.5858 11.8243 16.1635 11.792 16.8991C11.7409 18.063 13.219 18.9605 14.468 19.5084L22.3798 22.9771C25.3114 24.2618 27.023 25.977 26.9581 27.5653ZM29.1913 17.8119C28.907 18.828 28.0851 19.637 26.7482 20.2169L22.8554 21.9062C22.8537 21.9055 22.852 21.9047 22.8502 21.9039L21.0291 21.1055L24.672 19.5085C25.9217 18.9609 27.4007 18.0638 27.3496 16.8996C27.3174 16.1637 26.6943 15.5859 25.4977 15.1823C24.8407 14.9606 24.5095 14.5646 24.3486 14.2736C23.9555 13.5554 23.8338 12.4073 24.1155 12.0809C24.3399 11.8219 25.001 11.845 25.7597 12.1383C26.7379 12.5182 27.6943 13.2729 28.3185 14.1577C29.169 15.3592 29.4952 16.7252 29.1913 17.8119Z" fill="#53338A"/>
</svg>
