<svg width="40" height="30" viewBox="0 0 40 30" fill="none" xmlns="http://www.w3.org/2000/svg">
<circle cx="18" cy="15" r="15" fill="#D8CEF3"/>
<path fill-rule="evenodd" clip-rule="evenodd" d="M35.3014 3.91309C36.5974 3.95398 37.6152 5.03704 37.5756 6.33303H37.5771V27.6016C37.6082 28.8836 36.6029 29.9525 35.3214 30H19.6032C18.3231 29.9616 17.3148 28.8957 17.3475 27.6154V6.31155C17.3163 5.02948 18.3216 3.96058 19.6032 3.91309H35.3014ZM35.8877 26.8145V8.58888L35.8831 8.59042L35.8524 7.05589C35.8603 6.32656 35.2832 5.72495 34.5542 5.70244H20.3445C19.6052 5.72664 19.0247 6.34416 19.0463 7.08351V26.8145C19.0239 27.5541 19.6048 28.1722 20.3445 28.1955H34.5895C35.3287 28.1713 35.9092 27.5538 35.8877 26.8145Z" fill="black"/>
<path d="M33.2683 9.8215H21.3142C20.9197 9.83099 20.5903 9.55703 20.5762 9.20769C20.5957 8.86055 20.9218 8.58932 21.3142 8.59388H33.2683C33.6628 8.58439 33.9922 8.85835 34.0064 9.20769C33.9868 9.55483 33.6607 9.82606 33.2683 9.8215Z" fill="black"/>
<path d="M33.2683 13.6418H21.3142C20.9197 13.6513 20.5903 13.3773 20.5762 13.028C20.5957 12.6809 20.9218 12.4096 21.3142 12.4142H33.2683C33.6628 12.4047 33.9922 12.6787 34.0064 13.028C33.9868 13.3751 33.6607 13.6464 33.2683 13.6418Z" fill="black"/>
<path d="M21.3142 17.4631C20.9197 17.4726 20.5903 17.1986 20.5762 16.8493C20.5957 16.5022 20.9218 16.2309 21.3142 16.2355H30.1993C30.5938 16.226 30.9232 16.5 30.9373 16.8493C30.9178 17.1964 30.5916 17.4677 30.1993 17.4631H21.3142Z" fill="black"/>
<path d="M21.3142 21.2844C20.9197 21.2939 20.5903 21.0199 20.5762 20.6706C20.5957 20.3234 20.9218 20.0522 21.3142 20.0568H30.1993C30.5938 20.0473 30.9232 20.3212 30.9373 20.6706C30.9178 21.0177 30.5916 21.289 30.1993 21.2844H21.3142Z" fill="black"/>
<path d="M21.3142 25.0901C20.9197 25.0995 20.5903 24.8256 20.5762 24.4762C20.5957 24.1291 20.9218 23.8579 21.3142 23.8624H24.0612C24.4557 23.8529 24.7851 24.1269 24.7992 24.4762C24.7797 24.8234 24.4535 25.0946 24.0612 25.0901H21.3142Z" fill="black"/>
</svg>
