<svg width="30" height="30" viewBox="0 0 30 30" fill="none" xmlns="http://www.w3.org/2000/svg">
<circle cx="15" cy="15" r="15" fill="#BE3C2F"/>
<path d="M17.9046 23.519H7.54582C6.69352 23.519 6 22.8178 6 21.9557V7.53077C6 6.66887 6.69352 5.96747 7.54582 5.96747H15.5043C15.5855 5.96747 15.664 5.99818 15.7237 6.05363L19.3472 9.41084C19.4131 9.47179 19.4504 9.55748 19.4504 9.64726V13.827C19.4504 14.0053 19.306 14.1496 19.1278 14.1496C18.9498 14.1496 18.8052 14.0053 18.8052 13.827V9.78823L15.3778 6.61264H7.54582C7.04934 6.61264 6.64517 7.02437 6.64517 7.53077V21.9557C6.64517 22.462 7.04934 22.8742 7.54582 22.8742H17.9043C18.4011 22.8742 18.8049 22.4623 18.8049 21.9557V20.0673C18.8049 19.889 18.9495 19.7447 19.1275 19.7447C19.3057 19.7447 19.4501 19.889 19.4501 20.0673V21.9557C19.4504 22.8178 18.7569 23.519 17.9046 23.519Z" fill="white"/>
<path d="M19.1236 9.96984H16.2577C15.6645 9.96984 15.1819 9.48203 15.1819 8.88301V6.29005C15.1819 6.11175 15.3265 5.96747 15.5045 5.96747C15.6826 5.96747 15.8271 6.11175 15.8271 6.29005V8.88301C15.8271 9.12653 16.0203 9.32468 16.2577 9.32468H19.1236C19.3016 9.32468 19.4462 9.4688 19.4462 9.64726C19.4462 9.82556 19.3016 9.96984 19.1236 9.96984Z" fill="white"/>
<path d="M13.8604 16.5964H15.9162V17.2415H13.8604V16.5964Z" fill="white"/>
<path d="M13.8604 18.7773H16.9175V19.4225H13.8604V18.7773Z" fill="white"/>
<path d="M8.19922 20.8035H17.251V21.4487H8.19922V20.8035Z" fill="white"/>
<path d="M13.8584 14.5701H16.5837V15.2153H13.8584V14.5701Z" fill="white"/>
<path d="M12.3664 19.4224H8.19929C8.0213 19.4224 7.87671 19.2783 7.87671 19.0998V14.6033C7.87671 14.425 8.0213 14.2808 8.19929 14.2808H12.3664C12.5446 14.2808 12.689 14.425 12.689 14.6033V19.0998C12.689 19.2783 12.5449 19.4224 12.3664 19.4224ZM8.52188 18.7773H12.0438V14.9259H8.52188V18.7773Z" fill="white"/>
<path d="M18.9846 20.397C17.1063 20.397 15.5781 18.8493 15.5781 16.947C15.5781 15.0447 17.1063 13.497 18.9846 13.497C20.8631 13.497 22.3911 15.0447 22.3911 16.947C22.3911 18.8493 20.8631 20.397 18.9846 20.397ZM18.9846 14.1422C17.4621 14.1422 16.2233 15.4002 16.2233 16.947C16.2233 18.4938 17.4621 19.7518 18.9846 19.7518C20.5073 19.7518 21.746 18.4938 21.746 16.947C21.746 15.4002 20.5073 14.1422 18.9846 14.1422Z" fill="white"/>
<path d="M22.5533 20.8512C22.4702 20.8512 22.3868 20.8189 22.3237 20.7551L20.9558 19.3679C20.8308 19.2408 20.8324 19.037 20.9591 18.9118C21.0859 18.7864 21.2901 18.7883 21.4153 18.9151L22.783 20.3021C22.9082 20.4292 22.9066 20.6332 22.7798 20.7583C22.7168 20.8202 22.6349 20.8512 22.5533 20.8512Z" fill="white"/>
<path d="M25.0882 24.0322C24.844 24.0322 24.6134 23.9345 24.4375 23.7567L22.3141 21.6029C22.1446 21.4379 22.0491 21.2138 22.046 20.9706C22.0424 20.7206 22.1391 20.477 22.3111 20.3021C22.4837 20.1273 22.7127 20.0309 22.9559 20.0309C23.1976 20.0309 23.4337 20.13 23.6036 20.3021L25.7299 22.4586C25.8986 22.6205 25.9966 22.847 25.9999 23.0906C26.0033 23.3399 25.9072 23.5768 25.7302 23.7567C25.5692 23.929 25.3434 24.029 25.1005 24.0322C25.0964 24.0322 25.0924 24.0322 25.0882 24.0322ZM22.9559 20.6761C22.907 20.6761 22.835 20.6899 22.7707 20.7551C22.7189 20.8073 22.6901 20.8829 22.6912 20.9615C22.6915 21.0029 22.702 21.0809 22.7644 21.1409C22.7666 21.1431 22.7685 21.1451 22.7707 21.1473L24.8973 23.3041C24.9515 23.359 25.0189 23.3838 25.0921 23.3876C25.158 23.3867 25.2195 23.3593 25.2651 23.3106C25.3263 23.2484 25.3563 23.1755 25.3553 23.1C25.3544 23.0302 25.3267 22.9658 25.2772 22.9184L23.1446 20.7561C23.0941 20.7041 23.0273 20.6761 22.9559 20.6761Z" fill="white"/>
<path d="M12.1262 10.0336C12.2306 9.95203 12.2838 9.83594 12.2838 9.6882C12.2838 9.61401 12.2728 9.5488 12.2512 9.49493C12.2297 9.44012 12.1974 9.39176 12.1558 9.35081H12.1555C12.1151 9.31143 12.0658 9.27756 12.0093 9.25016C11.9573 9.22464 11.8981 9.19944 11.8274 9.17266C11.7919 9.16038 11.7593 9.14651 11.73 9.13297C11.7029 9.12005 11.679 9.10588 11.6584 9.09044C11.6423 9.07815 11.6297 9.06461 11.6215 9.0498C11.6144 9.0372 11.6109 9.02177 11.6109 9.00145C11.6109 8.9701 11.6206 8.94915 11.6426 8.93309C11.6947 8.89339 11.8193 8.89686 11.9164 8.92112C11.9652 8.9334 12.0102 8.95104 12.0499 8.97404L12.1133 9.00979L12.2361 8.68359L12.1903 8.65681C12.1474 8.63114 12.089 8.60751 12.0167 8.58656C11.9441 8.5653 11.8606 8.55427 11.768 8.55427C11.6045 8.55427 11.4715 8.59585 11.3739 8.6776C11.2723 8.76234 11.2209 8.87985 11.2209 9.02618C11.2209 9.09627 11.2335 9.15849 11.2583 9.21046C11.2825 9.2604 11.3148 9.30466 11.3548 9.34136C11.3928 9.37617 11.4377 9.40594 11.4887 9.43019C11.5383 9.45335 11.587 9.47367 11.6338 9.49005C11.6787 9.50564 11.7199 9.52139 11.7565 9.53793C11.7904 9.55305 11.8181 9.56943 11.84 9.58597C11.8587 9.59983 11.8732 9.6159 11.8828 9.63244C11.8913 9.64693 11.8954 9.66567 11.8954 9.68788C11.8954 9.72458 11.8842 9.74947 11.8584 9.76884C11.8381 9.78428 11.7935 9.80302 11.6977 9.80302C11.6183 9.80302 11.55 9.79373 11.4949 9.77562C11.4352 9.75561 11.3909 9.7375 11.3592 9.71954L11.2951 9.68363L11.1942 9.96825C11.1505 9.84366 11.1083 9.72521 11.0686 9.61889C11.0203 9.4891 10.9735 9.36719 10.93 9.2563C10.8842 9.13943 10.839 9.02948 10.7961 8.92946C10.7525 8.82787 10.7067 8.72501 10.6589 8.62232L10.6419 8.58656H10.3225L10.3058 8.62263C10.2578 8.72564 10.2119 8.8285 10.1686 8.92946C10.1245 9.03263 10.0796 9.14273 10.035 9.2563C9.98999 9.37081 9.94384 9.49273 9.89737 9.61889C9.85642 9.73041 9.81279 9.85374 9.76806 9.98275L9.67292 9.69072L9.60771 9.72458L9.60739 9.7249C9.57967 9.73955 9.53903 9.75561 9.48674 9.77231C9.43807 9.78853 9.37097 9.79657 9.28796 9.79657C9.22212 9.79657 9.16636 9.78586 9.12226 9.76491C9.078 9.74396 9.0413 9.71498 9.01342 9.67812C8.98381 9.63953 8.9616 9.59275 8.94742 9.53919C8.93214 9.48233 8.92442 9.41917 8.92442 9.35081C8.92442 9.27426 8.93419 9.20653 8.95309 9.14951C8.97152 9.09469 8.99704 9.04886 9.02901 9.01373C9.0602 8.97908 9.098 8.95309 9.14116 8.93561C9.23803 8.89497 9.36341 8.903 9.46091 8.93309C9.51541 8.94978 9.55668 8.96727 9.58314 8.98396L9.64929 9.02555L9.76743 8.69146L9.72096 8.66532C9.71151 8.66012 9.69481 8.65114 9.6715 8.63854C9.64646 8.62499 9.6148 8.61239 9.5751 8.59979C9.53903 8.58814 9.49666 8.5779 9.44579 8.56813C9.3957 8.55884 9.33931 8.55396 9.27835 8.55396C9.17581 8.55396 9.07863 8.57207 8.98932 8.60751C8.89859 8.64263 8.81826 8.69587 8.75085 8.76502C8.68343 8.83433 8.62988 8.91907 8.59192 9.01688C8.5538 9.11501 8.53442 9.22779 8.53442 9.35301C8.53442 9.47729 8.55128 9.58944 8.58373 9.68662C8.61696 9.78491 8.6661 9.86981 8.72927 9.93943C8.79259 10.0089 8.87118 10.0628 8.96286 10.0985C9.05217 10.1336 9.15439 10.1518 9.26575 10.1518C9.32025 10.1518 9.37349 10.1484 9.42421 10.142C9.47351 10.1352 9.51872 10.1269 9.55825 10.1163C9.59968 10.105 9.63386 10.0939 9.66189 10.0825C9.69418 10.0698 9.71954 10.0569 9.73923 10.0434L9.749 10.0366L9.71923 10.121H10.1147L10.13 10.0785C10.1483 10.0246 10.1673 9.97046 10.187 9.91565C10.2015 9.87406 10.216 9.83264 10.2302 9.79011H10.7264C10.7409 9.83264 10.7558 9.87438 10.7709 9.91565C10.7906 9.9692 10.81 10.0234 10.8283 10.0779L10.8429 10.121H11.2493L11.2197 10.0369V10.0366L11.2252 10.0398C11.2438 10.0508 11.2677 10.0624 11.2961 10.0746C11.3244 10.0869 11.3577 10.0985 11.3983 10.1105C11.4393 10.1225 11.4845 10.1324 11.5325 10.1401C11.5839 10.1478 11.6399 10.1518 11.699 10.1518C11.8825 10.1521 12.0268 10.1121 12.1262 10.0336ZM10.6167 9.45618H10.3394C10.3709 9.36876 10.4019 9.2856 10.4315 9.20747C10.448 9.16431 10.4632 9.12494 10.478 9.08824C10.4925 9.12462 10.5077 9.164 10.5238 9.20558C10.5539 9.28465 10.5851 9.36845 10.6167 9.45618Z" fill="white"/>
<path d="M13.445 9.77692H12.7582V9.49213H13.3269V9.15175H12.7582V8.93139H13.397V8.58691H12.3804V10.1214H13.445V9.77692Z" fill="white"/>
<path d="M8.85843 12.1285C8.8181 12.0891 8.7688 12.055 8.71162 12.0276C8.65587 12.0005 8.59648 11.9749 8.53049 11.9505C8.49489 11.9379 8.46228 11.9247 8.43267 11.9105C8.40463 11.8973 8.38069 11.8831 8.36132 11.8678C8.34525 11.8559 8.33265 11.8423 8.32462 11.8281C8.31721 11.8149 8.31391 11.7992 8.31391 11.7792C8.31391 11.7478 8.32367 11.7269 8.34557 11.7108C8.39818 11.6717 8.51946 11.6746 8.61979 11.6988C8.66752 11.7108 8.71273 11.7289 8.75336 11.7518L8.81653 11.7875L8.93939 11.4615L8.89371 11.4347C8.85071 11.4089 8.79196 11.3852 8.72013 11.3643C8.64815 11.343 8.56467 11.3325 8.47142 11.3325C8.30776 11.3325 8.17498 11.3737 8.07685 11.4553C7.97526 11.5405 7.92391 11.6579 7.92391 11.804C7.92391 11.8746 7.93651 11.9365 7.9614 11.9882C7.98518 12.038 8.01778 12.0821 8.05779 12.1192C8.09654 12.1547 8.14175 12.1846 8.19136 12.2079C8.23688 12.2295 8.28555 12.2498 8.33722 12.2682C8.38195 12.2834 8.42306 12.2994 8.45945 12.3156C8.49237 12.3305 8.5204 12.347 8.54293 12.3637C8.56167 12.3775 8.57616 12.3936 8.58593 12.4102C8.59428 12.425 8.59853 12.4434 8.59853 12.4659C8.59853 12.5028 8.58719 12.5275 8.56167 12.5466C8.54167 12.5622 8.49725 12.5804 8.40164 12.5804C8.32241 12.5804 8.25389 12.5711 8.19877 12.553C8.14175 12.5343 8.09623 12.5157 8.06394 12.4976L7.99951 12.4604L7.88232 12.7905L7.92785 12.8173C7.94659 12.8282 7.97037 12.8398 7.99873 12.8521C8.02724 12.8639 8.06047 12.8759 8.10111 12.8882C8.14033 12.8999 8.18553 12.9095 8.23499 12.9172C8.28429 12.9254 8.34037 12.9292 8.40164 12.9292C8.58656 12.9292 8.73037 12.8898 8.82976 12.8115C8.93435 12.7294 8.98711 12.6133 8.98711 12.4659C8.98711 12.3911 8.97624 12.3262 8.95467 12.2723C8.93261 12.2178 8.90048 12.1692 8.85843 12.1285Z" fill="white"/>
<path d="M8.9436 11.7131H9.36999V12.899H9.74975V11.7131H10.1761V11.364H8.9436V11.7131Z" fill="white"/>
<path d="M11.0739 12.2828C11.0739 12.3392 11.0678 12.3877 11.0558 12.4272C11.0446 12.4631 11.029 12.4924 11.0094 12.514C10.9908 12.5346 10.9675 12.5502 10.9404 12.5602C10.883 12.5814 10.801 12.5814 10.7446 12.5602C10.7187 12.5506 10.6959 12.5351 10.6768 12.514C10.6572 12.4924 10.6417 12.4634 10.6304 12.4272C10.6181 12.388 10.6123 12.3392 10.6123 12.2828V11.364H10.2327V12.307C10.2327 12.3945 10.2446 12.476 10.2678 12.5499C10.292 12.6263 10.33 12.6931 10.3801 12.7495C10.431 12.807 10.4959 12.8519 10.5726 12.8827C10.6479 12.9135 10.7381 12.9289 10.84 12.9289C10.9419 12.9289 11.0327 12.9135 11.1091 12.8827C11.1872 12.8519 11.253 12.807 11.3042 12.7495C11.3546 12.6928 11.3926 12.6257 11.4175 12.5502C11.4417 12.4767 11.4535 12.3945 11.4535 12.307V11.364H11.0739V12.2828Z" fill="white"/>
<path d="M12.7158 11.5366C12.641 11.472 12.5498 11.424 12.4452 11.3941C12.3442 11.3646 12.231 11.3498 12.1097 11.3498C12.0543 11.3498 11.99 11.3517 11.9139 11.3563C11.8378 11.3608 11.7655 11.3707 11.6997 11.3863L11.6504 11.3972V12.8654L11.6994 12.8772C11.7652 12.8925 11.8364 12.9027 11.9114 12.9082C11.9823 12.9128 12.0478 12.9153 12.1059 12.9153C12.2288 12.9153 12.3433 12.8999 12.4452 12.8692C12.5501 12.8376 12.6413 12.7882 12.7164 12.7224C12.7924 12.656 12.8517 12.5724 12.8927 12.4733C12.933 12.376 12.9536 12.2602 12.9536 12.1307C12.9536 11.9983 12.933 11.8814 12.8927 11.7841C12.8506 11.6843 12.7914 11.6015 12.7158 11.5366ZM12.5636 12.1304C12.5636 12.2695 12.5274 12.3782 12.4562 12.4527C12.3855 12.5266 12.2729 12.5644 12.122 12.5644C12.0832 12.5644 12.052 12.5641 12.0284 12.5634V11.7004C12.0549 11.6995 12.0875 11.6988 12.1259 11.6988C12.2784 11.6988 12.3904 11.7354 12.4591 11.8072C12.5284 11.8795 12.5636 11.9885 12.5636 12.1304Z" fill="white"/>
<path d="M13.853 11.364L13.8362 11.4018C13.7907 11.5044 13.7392 11.6089 13.6826 11.7115C13.6432 11.7828 13.6023 11.8547 13.5607 11.9273C13.5198 11.857 13.4791 11.785 13.4401 11.7121C13.3856 11.6105 13.3342 11.5059 13.2881 11.4018L13.2714 11.364H12.8303L12.8792 11.4576C12.9519 11.5976 13.0313 11.7425 13.1146 11.8882C13.1917 12.0234 13.2766 12.1637 13.3662 12.3056V12.899H13.7439V12.3018C13.8326 12.1628 13.9168 12.0234 13.995 11.8873C14.0759 11.7457 14.1545 11.6009 14.2295 11.4579L14.2779 11.3643H13.853V11.364Z" fill="white"/>
</svg>
