<svg xmlns="http://www.w3.org/2000/svg" xmlns:xlink="http://www.w3.org/1999/xlink" width="29" height="23" xmlns:v="https://vecta.io/nano"><defs><path id="A" d="M0 0h30v30H0z"/><path id="B" d="M21.43 10.85h-6.9c-.236 0-.426-.18-.426-.405s.2-.405.426-.405h6.9c.236 0 .426.18.426.405s-.2.405-.426.405z"/></defs><g transform="translate(-1 -4)" fill="none" fill-rule="evenodd"><mask id="C" fill="#fff"><use xlink:href="#A"/></mask><g mask="url(#C)"><circle fill="#ffeda3" cx="12.5" cy="15.5" r="11.5"/><g fill="#000" fill-rule="nonzero"><path d="M24.182 8.577C24.182 7.7 23.514 7 22.7 7H12.47c-.8 0-1.47.7-1.47 1.563v13.883C11 23.3 11.658 24 12.47 24h10.243c.8 0 1.47-.7 1.47-1.563V8.577zm-1.105 1.47v11.877c0 .497-.38.9-.846.9h-9.278c-.467 0-.846-.403-.846-.9V9.066c0-.497.38-.9.846-.9h9.26c.46 0 .837.392.846.882l.02.998z"/><use xlink:href="#B"/><use xlink:href="#B" y="2.49"/><use xlink:href="#B" y="4.98"/><use xlink:href="#B" y="7.47"/><use xlink:href="#B" y="9.95"/></g><circle fill="#fff" cx="24.92" cy="18.22" r="3.6"/><g fill="#000" fill-rule="nonzero"><path d="M24.92 13.945a4.28 4.28 0 0 0-4.275 4.275 4.28 4.28 0 0 0 4.275 4.275 4.28 4.28 0 0 0 4.275-4.275 4.25 4.25 0 0 0-.764-2.437c-.773-1.1-2.058-1.838-3.5-1.838zm0 7.776c-1.935 0-3.5-1.575-3.5-3.5s1.566-3.5 3.5-3.5a3.501 3.501 0 1 1 0 7.002zm1.395-4.94l-1.818 2.06-1-1c-.153-.153-.396-.153-.55 0s-.153.396 0 .54l1.278 1.278a.39.39 0 0 0 .27.117c.117 0 .216-.054.288-.126l2.08-2.367c.144-.162.126-.405-.036-.54-.144-.144-.387-.126-.522.027z"/></g></g></g></svg>