<svg xmlns="http://www.w3.org/2000/svg" width="48" height="48" viewBox="0 0 48 48">
  <g id="upload-icon" transform="translate(-527 -161)">
    <rect id="Rectangle_46" data-name="Rectangle 46" width="48" height="48" transform="translate(527 161)" fill="none"/>
    <path id="Union_1" data-name="Union 1" d="M-15554.894-284.681h-12.745a5.346,5.346,0,0,1-5.362-5.374v-30.532a5.38,5.38,0,0,1,5.362-5.413h16.149a1,1,0,0,1,.727.309l10.186,10.7a1.038,1.038,0,0,1,.293.688v9.087a13.8,13.8,0,0,1,10.951,13.464A13.781,13.781,0,0,1-15543.106-278,13.764,13.764,0,0,1-15554.894-284.681Zm.039-7.066a11.77,11.77,0,0,0,11.756,11.756,11.768,11.768,0,0,0,11.757-11.756A11.759,11.759,0,0,0-15543.1-303.5,11.762,11.762,0,0,0-15554.854-291.747ZM-15571-320.587v30.532a3.351,3.351,0,0,0,3.361,3.373v.008h11.757a13.258,13.258,0,0,1-.981-5.081,13.469,13.469,0,0,1,.379-3.22h-8.434a1.007,1.007,0,0,1-1-1,1,1,0,0,1,1-1h9.087a15.7,15.7,0,0,1,1.758-3.1h-10.845a1,1,0,0,1-1-1,1,1,0,0,1,1-1h12.705a13.977,13.977,0,0,1,9.126-3.439c.259,0,.5.027.8.039v-7.813h-5.8a4.41,4.41,0,0,1-4.4-4.412V-324h-15.148A3.377,3.377,0,0,0-15571-320.587Zm20.511,2.88a2.416,2.416,0,0,0,2.4,2.411h4.432l-6.832-7.2Zm6.4,32.724v-10.924l-4.143,4.432a1.02,1.02,0,0,1-1.431.047,1,1,0,0,1-.051-1.411l5.862-6.292a1.011,1.011,0,0,1,.73-.32,1.012,1.012,0,0,1,.731.32l5.874,6.292a1,1,0,0,1-.051,1.411,1.015,1.015,0,0,1-.68.27,1.01,1.01,0,0,1-.731-.317l-4.111-4.432v10.924a1,1,0,0,1-1,1A1,1,0,0,1-15544.087-284.982Zm-20.827-20.108a1.006,1.006,0,0,1-1-1,1.006,1.006,0,0,1,1-1h10.13a1,1,0,0,1,1,1,1,1,0,0,1-1,1Z" transform="translate(16102 487)" fill="#96abec"/>
  </g>
</svg>
