<svg xmlns="http://www.w3.org/2000/svg" width="47" height="48" xmlns:v="https://vecta.io/nano"><path d="M17.806 12.876c-.78 0-1.395-.615-1.395-1.4s.614-1.4 1.395-1.4h12.67c.78 0 1.395.615 1.395 1.4s-.614 1.4-1.395 1.4h-12.67zm-11.834 7.2c0 .783.614 1.4 1.395 1.4H30.42c.78 0 1.395-.615 1.395-1.4s-.614-1.4-1.395-1.4H7.368a1.42 1.42 0 0 0-1.395 1.399zm18.923 10.732c.558-1.007 1.228-1.958 2-2.797H7.368c-.78 0-1.395.615-1.395 1.4h0c0 .783.614 1.4 1.395 1.4h17.527zM7.257 40.13h16.857c-.335-.895-.614-1.846-.726-2.797H7.257c-.78 0-1.395.615-1.395 1.4s.614 1.4 1.395 1.4zM32.152 0h-19.37c-.335 0-.67.056-1.005.168s-.614.336-.837.56l-10.16 9.8c-.28.224-.447.56-.614.895-.112.28-.167.67-.167 1.007v29.65A5.89 5.89 0 0 0 5.917 48h22.55c-1.005-.783-1.954-1.734-2.68-2.797H5.917c-1.73 0-3.126-1.4-3.126-3.133v-28.8h4.97c3.238 0 5.917-2.685 5.917-5.93V2.8H32.21c1.73 0 3.126 1.4 3.126 3.133V24.06c.447-.056.893-.056 1.34-.056l1.45.056V5.93C38.07 2.685 35.445 0 32.152 0zm-5.917 37.427c0-5.762 4.633-10.406 10.382-10.406S47 31.664 47 37.427s-4.633 10.406-10.382 10.406-10.382-4.7-10.382-10.406zm4.912-1.5l1.954 1.958 2.12-2.126v8.168h2.8v-8.224l2.12 2.126 1.954-1.958-5.526-5.538-5.414 5.594z" fill="#96abec"/></svg>