<svg xmlns="http://www.w3.org/2000/svg" xmlns:xlink="http://www.w3.org/1999/xlink" width="28" height="23" xmlns:v="https://vecta.io/nano"><g fill-rule="evenodd"><circle fill="#c2f4ea" cx="11.5" cy="11.5" r="11.5"/><g fill-rule="nonzero"><path d="M24.6 4.767c0-.865-.7-1.567-1.538-1.567H12.516C11.68 3.2 11 3.9 11 4.744v13.712c0 .853.68 1.544 1.516 1.544h10.568a1.53 1.53 0 0 0 1.516-1.544V4.767zm-1.14 1.45v11.73c0 .5-.4.9-.873.9h-9.573c-.482 0-.873-.398-.873-.9V5.25c0-.5.4-.9.873-.9h9.553a.88.88 0 0 1 .873.871l.02.986z"/><use xlink:href="#A"/><use xlink:href="#A" y="2.45"/><use xlink:href="#A" y="4.9"/><use xlink:href="#A" y="7.35"/><use xlink:href="#A" y="9.8"/><path d="M26.262 0H15.716C14.88 0 14.2.7 14.2 1.544v.625h1.14v-.12c0-.5.4-.9.873-.9h9.553a.88.88 0 0 1 .873.871l.02.986v11.73c0 .5-.4.9-.873.9h-.4V16.8h.897a1.53 1.53 0 0 0 1.516-1.544V1.567C27.8.702 27.1 0 26.262 0z"/></g></g><defs><path id="A" d="M21.76 7h-7.12c-.243 0-.44-.18-.44-.4s.197-.4.44-.4h7.12c.243 0 .44.18.44.4s-.197.4-.44.4z"/></defs></svg>