<svg xmlns="http://www.w3.org/2000/svg" width="38" height="30" fill="none" xmlns:v="https://vecta.io/nano"><path fill-rule="evenodd" d="M35.58 0H1.401C.623 0 0 .522 0 1.175v27.638c0 .457.311.881.817 1.077s1.09.13 1.518-.196l3.348-2.447 3.348 2.447c.545.392 1.323.392 1.868 0l3.348-2.447 3.348 2.447c.545.392 1.324.392 1.869 0l3.348-2.447 3.348 2.447c.545.392 1.324.392 1.869 0l3.348-2.447 3.348 2.447a1.56 1.56 0 0 0 .934.294c.195 0 .389-.033.584-.098.506-.196.817-.62.817-1.077V1.175C36.981.522 36.358 0 35.58 0z" fill="#6882da"/><path d="M16.481 8.442H6.457v1.624h10.023V8.442zm-1.878 10.391c-.466 0-.551-.085-.551-.621v-4.32h3.727v-1.638H5.187v1.638h3.191c-.169 2.343-.565 4.249-3.501 5.351.381.325.847.946 1.045 1.369 3.374-1.369 4.024-3.784 4.278-6.72h2.118v4.32c0 1.652.409 2.188 2.005 2.188h1.694c1.44 0 1.864-.734 2.033-3.261-.466-.113-1.186-.409-1.553-.706-.071 2.033-.155 2.4-.621 2.4h-1.271z" fill="#fff"/><path d="M23.824 8.823h7.5m-7.5 5.295h7.5m-7.5 5.294h7.5" stroke="#fff" stroke-width="1.765" stroke-linecap="round"/></svg>