<svg width="30" height="30" viewBox="0 0 30 30" fill="none" xmlns="http://www.w3.org/2000/svg">
<circle cx="15" cy="15" r="15" fill="#6882DA"/>
<path d="M9.68401 23.412C9.76017 23.6621 9.91452 23.8811 10.1244 24.037C10.3343 24.1929 10.5886 24.2773 10.85 24.278C10.9685 24.2781 11.0863 24.2612 11.2 24.228L19.124 21.842L20.55 21.656C20.7086 21.6355 20.8616 21.584 21.0002 21.5043C21.1388 21.4247 21.2604 21.3184 21.3579 21.1917C21.4554 21.0651 21.527 20.9204 21.5685 20.766C21.6101 20.6116 21.6208 20.4505 21.6 20.292L20.848 14.552L23.216 10.92L23.8 10.038L24.08 9.59999C24.2765 9.29923 24.3455 8.93273 24.2718 8.5811C24.1981 8.22947 23.9878 7.92151 23.687 7.72499C23.3863 7.52846 23.0197 7.45946 22.6681 7.53316C22.3165 7.60687 22.0085 7.81723 21.812 8.11799L21.524 8.55999L20.948 9.43999L20.302 10.428L19.82 6.75799C19.7993 6.5996 19.7476 6.44684 19.6678 6.30844C19.5881 6.17004 19.4818 6.04872 19.3551 5.95139C19.2285 5.85407 19.0839 5.78266 18.9296 5.74124C18.7753 5.69982 18.6144 5.6892 18.456 5.70999L10.04 6.81599C9.73384 6.85553 9.4543 7.0104 9.25843 7.24901C9.06256 7.48763 8.96513 7.79199 8.98601 8.09999L6.56601 8.82799C6.25738 8.92093 5.99827 9.13261 5.84564 9.41651C5.693 9.7004 5.65933 10.0333 5.75201 10.342L9.68401 23.412ZM21.862 9.13799L22.494 9.54999L23.124 9.96199L22.876 10.342L21.614 9.51799L21.862 9.13799ZM22.314 8.44399C22.4235 8.27637 22.5952 8.15913 22.7912 8.11806C22.9871 8.07699 23.1914 8.11545 23.359 8.22499C23.5266 8.33452 23.6439 8.50616 23.6849 8.70213C23.726 8.89811 23.6875 9.10237 23.578 9.26999L23.454 9.45999L22.2 8.63399L22.314 8.44399ZM21.286 10.02L21.918 10.432L22.548 10.844L18.698 16.74L18.066 16.328L17.436 15.916L21.286 10.02ZM16.686 18.082L16.806 17.698C17.0071 17.75 17.1856 17.8666 17.314 18.03L17.01 18.294C16.9772 18.3238 16.9355 18.3419 16.8913 18.3454C16.8471 18.3489 16.8031 18.3376 16.766 18.3133C16.7289 18.2891 16.7009 18.2532 16.6865 18.2113C16.672 18.1695 16.6718 18.124 16.686 18.082ZM17.766 17.636C17.5646 17.3876 17.2904 17.2085 16.982 17.124L17.182 16.47L18.28 17.188L17.766 17.636ZM9.70801 7.64599C9.7575 7.58165 9.81919 7.5277 9.88953 7.48721C9.95988 7.44671 10.0375 7.42047 10.118 7.40999L18.534 6.30599C18.5613 6.30401 18.5887 6.30401 18.616 6.30599C18.7635 6.30899 18.9051 6.36467 19.0152 6.46298C19.1252 6.56129 19.1965 6.69573 19.216 6.84199L19.8 11.2L18.268 13.542L15.256 13.942C15.1764 13.947 15.1021 13.9835 15.0494 14.0433C14.9967 14.1031 14.97 14.1814 14.975 14.261C14.98 14.3406 15.0165 14.4149 15.0763 14.4676C15.1361 14.5203 15.2144 14.547 15.294 14.542H15.334L17.836 14.2L16.77 15.834C16.7697 15.8407 16.7697 15.8473 16.77 15.854C16.7624 15.8665 16.7563 15.88 16.752 15.894L16.566 16.494L12.302 17.068C12.2626 17.0706 12.2241 17.081 12.1887 17.0985C12.1533 17.116 12.1217 17.1403 12.0957 17.17C12.0697 17.1997 12.0498 17.2343 12.0372 17.2717C12.0245 17.3091 12.0194 17.3486 12.022 17.388C12.0246 17.4274 12.035 17.4659 12.0525 17.5013C12.07 17.5367 12.0943 17.5683 12.124 17.5943C12.1537 17.6203 12.1883 17.6402 12.2257 17.6528C12.2631 17.6655 12.3026 17.6706 12.342 17.668H12.38L16.354 17.148L16.118 17.912C16.0666 18.0779 16.0706 18.2561 16.1294 18.4195C16.1883 18.583 16.2987 18.7228 16.444 18.818C16.574 18.9037 16.7263 18.9496 16.882 18.95C17.0751 18.9487 17.2612 18.8777 17.406 18.75L18.982 17.386L18.998 17.368C19.0102 17.3567 19.021 17.3439 19.03 17.33L20.334 15.33L21 20.37C21.0108 20.4503 21.0055 20.5319 20.9846 20.6102C20.9636 20.6884 20.9274 20.7618 20.878 20.826C20.8302 20.8896 20.7702 20.943 20.7015 20.9832C20.6328 21.0233 20.5569 21.0495 20.478 21.06L12.054 22.166C11.9738 22.1764 11.8923 22.1709 11.8142 22.1497C11.7361 22.1286 11.6629 22.0923 11.5988 22.0429C11.5347 21.9935 11.481 21.932 11.4407 21.8618C11.4004 21.7916 11.3744 21.7142 11.364 21.634L9.58601 8.10199C9.56474 7.93983 9.60861 7.77586 9.70801 7.64599ZM6.74001 9.39999L9.06001 8.70199L10.768 21.712C10.8066 22.0035 10.9494 22.2712 11.17 22.4656C11.3905 22.6601 11.674 22.7682 11.968 22.77C12.0216 22.77 12.075 22.766 12.128 22.758L15.424 22.326L11.024 23.65C10.8683 23.6967 10.7005 23.6797 10.5573 23.6029C10.4141 23.526 10.3072 23.3955 10.26 23.24L6.32601 10.17C6.30261 10.0922 6.29476 10.0107 6.3029 9.92988C6.31104 9.8491 6.33502 9.77072 6.37347 9.69921C6.41192 9.6277 6.46408 9.56447 6.52697 9.51313C6.58986 9.46179 6.66225 9.42334 6.74001 9.39999ZM12.788 9.07999C12.7778 9.00124 12.7992 8.92165 12.8476 8.85867C12.8959 8.79569 12.9673 8.75445 13.046 8.74399L17.846 8.11199C17.8854 8.10687 17.9254 8.10956 17.9638 8.1199C18.0021 8.13025 18.0381 8.14804 18.0696 8.17228C18.101 8.19652 18.1274 8.22671 18.1473 8.26115C18.1671 8.29559 18.1799 8.33359 18.185 8.37299C18.1901 8.41239 18.1874 8.45241 18.1771 8.49076C18.1668 8.52912 18.149 8.56506 18.1247 8.59654C18.1005 8.62802 18.0703 8.65442 18.0358 8.67423C18.0014 8.69404 17.9634 8.70687 17.924 8.71199L13.124 9.34199H13.086C13.0131 9.34167 12.9427 9.31496 12.8879 9.2668C12.8332 9.21864 12.7977 9.15228 12.788 9.07999ZM11.336 12.012C11.331 11.9725 11.3339 11.9325 11.3445 11.8942C11.355 11.8559 11.3731 11.82 11.3977 11.7888C11.4223 11.7575 11.4528 11.7314 11.4875 11.7121C11.5223 11.6927 11.5605 11.6804 11.6 11.676L18.2 10.8C18.2796 10.7896 18.36 10.8113 18.4236 10.8603C18.4871 10.9092 18.5287 10.9814 18.539 11.061C18.5494 11.1406 18.5277 11.221 18.4787 11.2845C18.4298 11.3481 18.3576 11.3896 18.278 11.4L11.672 12.272H11.634C11.5614 12.2717 11.4913 12.2453 11.4365 12.1976C11.3818 12.1498 11.3461 12.0839 11.336 12.012ZM13.578 14.46C13.5836 14.4993 13.5814 14.5393 13.5715 14.5777C13.5615 14.6162 13.544 14.6523 13.52 14.6839C13.496 14.7155 13.466 14.7421 13.4317 14.762C13.3973 14.7819 13.3594 14.7948 13.32 14.8L12.026 14.97H11.988C11.9084 14.9753 11.83 14.9488 11.77 14.8963C11.71 14.8438 11.6733 14.7696 11.668 14.69C11.6627 14.6104 11.6892 14.532 11.7417 14.472C11.7942 14.412 11.8684 14.3753 11.948 14.37L13.242 14.2C13.2812 14.1949 13.3209 14.1977 13.359 14.208C13.3971 14.2184 13.4328 14.2361 13.464 14.2603C13.4952 14.2844 13.5213 14.3145 13.5409 14.3488C13.5605 14.383 13.5731 14.4208 13.578 14.46ZM12.4 20.1C12.3898 20.0212 12.4112 19.9417 12.4596 19.8787C12.5079 19.8157 12.5793 19.7744 12.658 19.764L14.96 19.462C14.9994 19.4567 15.0395 19.4593 15.0779 19.4695C15.1163 19.4797 15.1523 19.4974 15.1839 19.5216C15.2154 19.5457 15.2419 19.5758 15.2619 19.6102C15.2818 19.6446 15.2948 19.6826 15.3 19.722C15.3053 19.7614 15.3027 19.8014 15.2925 19.8398C15.2823 19.8782 15.2646 19.9143 15.2404 19.9458C15.2163 19.9774 15.1862 20.0039 15.1518 20.0238C15.1174 20.0438 15.0794 20.0567 15.04 20.062L12.734 20.358H12.696C12.6239 20.3577 12.5543 20.3315 12.4999 20.2841C12.4456 20.2368 12.4101 20.1714 12.4 20.1Z" fill="white"/>
</svg>
