<svg width="30" height="30" viewBox="0 0 30 30" fill="none" xmlns="http://www.w3.org/2000/svg">
<circle cx="15" cy="15" r="15" fill="#1F9071"/>
<g clip-path="url(#clip0_2269_1003)">
<path d="M20.081 16.5332H14.1784C14.0166 16.5332 13.8854 16.6644 13.8854 16.8262C13.8854 16.988 14.0166 17.1191 14.1784 17.1191H20.081C20.2428 17.1191 20.3739 16.988 20.3739 16.8262C20.3739 16.6644 20.2428 16.5332 20.081 16.5332ZM20.081 20.9473H14.1784C14.0166 20.9473 13.8854 21.0784 13.8854 21.2402C13.8854 21.402 14.0166 21.5332 14.1784 21.5332H20.081C20.2428 21.5332 20.3739 21.402 20.3739 21.2402C20.3739 21.0784 20.2428 20.9473 20.081 20.9473ZM20.081 19.7754H14.1784C14.0166 19.7754 13.8854 19.9066 13.8854 20.0684C13.8854 20.2302 14.0166 20.3613 14.1784 20.3613H20.081C20.2428 20.3613 20.3739 20.2302 20.3739 20.0684C20.3739 19.9066 20.2428 19.7754 20.081 19.7754ZM20.081 15.3613H14.1784C14.0166 15.3613 13.8854 15.4925 13.8854 15.6543C13.8854 15.8161 14.0166 15.9473 14.1784 15.9473H20.081C20.2428 15.9473 20.3739 15.8161 20.3739 15.6543C20.3739 15.4925 20.2428 15.3613 20.081 15.3613ZM22.0454 16.4146C22.2073 16.4146 22.3384 16.2835 22.3384 16.1217V10.1067C22.3372 10.0473 22.3177 9.9616 22.2526 9.89957L17.4389 5.08582C17.3901 5.04203 17.3285 5 17.2317 5H9.12643C8.3187 5 7.66159 5.65711 7.66159 6.46484V23.5352C7.66159 24.3429 8.3187 25 9.12643 25H20.8736C21.6813 25 22.3384 24.3429 22.3384 23.5352V17.4889C22.3384 17.3271 22.2073 17.1959 22.0455 17.1959C21.8836 17.1959 21.7525 17.3271 21.7525 17.4889V23.5352C21.7525 24.0198 21.3582 24.4141 20.8736 24.4141H9.12643C8.64182 24.4141 8.24753 24.0198 8.24753 23.5352V6.46484C8.24753 5.9802 8.64182 5.58594 9.12643 5.58594H16.9387V6.75781H10.1551C9.77815 6.75781 9.47147 7.06449 9.47147 7.44141V8.86719C9.47147 9.2441 9.77815 9.55078 10.1551 9.55078H15.9229C16.0847 9.55078 16.2158 9.41961 16.2158 9.25781C16.2158 9.09602 16.0847 8.96484 15.9229 8.96484H10.1551C10.1012 8.96484 10.0574 8.92102 10.0574 8.86719V7.44141C10.0574 7.38758 10.1012 7.34375 10.1551 7.34375H16.9387V8.93484C16.9387 9.74258 17.5958 10.3997 18.4035 10.3997H21.7525V16.1217C21.7525 16.2835 21.8836 16.4146 22.0454 16.4146ZM18.4035 9.81375C17.9189 9.81375 17.5246 9.41949 17.5246 8.93484V6.00023L21.3382 9.81371H18.4035V9.81375ZM12.1471 19.7754H10.0378C9.72546 19.7754 9.47136 20.0295 9.47136 20.3418V22.4512C9.47136 22.7635 9.72546 23.0176 10.0378 23.0176H12.1471C12.4594 23.0176 12.7135 22.7635 12.7135 22.4512V20.3418C12.7135 20.0295 12.4594 19.7754 12.1471 19.7754ZM12.1276 22.4316H10.0573V20.3613H12.1276V22.4316ZM12.7135 11.5137C12.7135 11.2014 12.4594 10.9473 12.1471 10.9473H10.0378C9.72546 10.9473 9.47136 11.2014 9.47136 11.5137V13.623C9.47136 13.9354 9.72546 14.1895 10.0378 14.1895H12.1471C12.4594 14.1895 12.7135 13.9354 12.7135 13.623V11.5137ZM12.1276 13.6035H10.0573V11.5332H12.1276V13.6035ZM20.081 10.9473H14.1784C14.0166 10.9473 13.8854 11.0784 13.8854 11.2402C13.8854 11.402 14.0166 11.5332 14.1784 11.5332H20.081C20.2428 11.5332 20.3739 11.402 20.3739 11.2402C20.3739 11.0784 20.2428 10.9473 20.081 10.9473ZM20.081 12.1191H14.1784C14.0166 12.1191 13.8854 12.2503 13.8854 12.4121C13.8854 12.5739 14.0166 12.7051 14.1784 12.7051H20.081C20.2428 12.7051 20.3739 12.5739 20.3739 12.4121C20.3739 12.2503 20.2428 12.1191 20.081 12.1191ZM12.7135 15.9277C12.7135 15.6154 12.4594 15.3613 12.1471 15.3613H10.0378C9.72546 15.3613 9.47136 15.6154 9.47136 15.9277V18.0371C9.47136 18.3494 9.72546 18.6035 10.0378 18.6035H12.1471C12.4594 18.6035 12.7135 18.3494 12.7135 18.0371V15.9277ZM12.1276 18.0176H10.0573V15.9473H12.1276V18.0176Z" fill="white"/>
</g>
<defs>
<clipPath id="clip0_2269_1003">
<rect width="20" height="20" fill="white" transform="translate(5 5)"/>
</clipPath>
</defs>
</svg>
