<svg xmlns="http://www.w3.org/2000/svg" width="35" height="36" xmlns:v="https://vecta.io/nano"><path d="M13.26 9.657c-.582 0-1.04-.462-1.04-1.05s.457-1.05 1.04-1.05h9.436c.582 0 1.04.462 1.04 1.05s-.457 1.05-1.04 1.05H13.26zM4.448 15.05c0 .587.457 1.05 1.04 1.05h17.167c.582 0 1.04-.462 1.04-1.05S23.236 14 22.654 14H5.487a1.06 1.06 0 0 0-1.039 1.049zm14.09 8.05c.416-.755.914-1.47 1.496-2.098H5.487c-.582 0-1.04.462-1.04 1.05h0c0 .587.457 1.05 1.04 1.05H18.54zm-13.135 7h12.553c-.25-.67-.457-1.385-.54-2.098H5.404c-.582 0-1.04.462-1.04 1.05s.457 1.05 1.04 1.05zM23.943 0H9.52c-.25 0-.5.042-.748.126s-.457.252-.624.42L.582 7.888c-.208.168-.333.42-.457.67-.083.2-.125.503-.125.755v22.238C0 34.028 1.954 36 4.406 36H21.2c-.748-.587-1.455-1.3-1.995-2.098H4.406c-1.29 0-2.328-1.05-2.328-2.35V9.944h3.7c2.41 0 4.406-2.014 4.406-4.448v-3.4h13.8c1.29 0 2.328 1.05 2.328 2.35v13.594c.333-.042.665-.042.998-.042l1.08.042V4.448C28.35 2.014 26.395 0 23.943 0zm-4.406 28.07c0-4.322 3.45-7.804 7.732-7.804S35 23.748 35 28.07s-3.45 7.804-7.732 7.804-7.732-3.524-7.732-7.804zm3.658-1.133l1.455 1.47 1.58-1.594v6.126h2.078V26.77l1.58 1.594 1.455-1.47-4.115-4.154-4.032 4.196z" fill="#fff"/></svg>