<svg width="53" height="53" viewBox="0 0 53 53" fill="none" xmlns="http://www.w3.org/2000/svg">
<circle opacity="0.5" cx="26.5" cy="26.5" r="26.5" fill="#F5CFCD"/>
<path d="M40.1927 12.0361H36.9879V8.83134C36.988 7.82405 36.1638 7 35.157 7H11.8072C10.8 7 9.97594 7.82405 9.97594 8.83134V38.1325C9.97594 39.1397 10.8 39.9638 11.8073 39.9638H15.0121V43.1687C15.0121 44.1759 15.8358 45 16.8435 45H32.4093C33.416 45 34.8408 44.435 35.5738 43.7451L40.6896 38.9297C41.4235 38.2397 42.0233 36.8506 42.0233 35.8434L42.0241 13.8676C42.0241 12.8602 41.1999 12.0361 40.1927 12.0361ZM15.012 13.8675V38.5903H11.8072C11.5591 38.5903 11.3494 38.3807 11.3494 38.1326V8.83134C11.3494 8.58323 11.5591 8.37356 11.8072 8.37356H35.1571C35.4047 8.37356 35.6148 8.58323 35.6148 8.83134V12.0362H16.8433C15.8356 12.0362 15.012 12.8602 15.012 13.8675ZM39.7482 37.9296L34.6324 42.7447C34.5276 42.8432 34.3911 42.9398 34.2405 43.0317V38.8192C34.2405 38.5047 34.3673 38.2217 34.5765 38.0111C34.7876 37.8019 35.0705 37.6747 35.3851 37.6747H39.9657C39.8947 37.7712 39.8219 37.86 39.7482 37.9296ZM40.6496 35.8433C40.6496 35.9792 40.6248 36.1367 40.5873 36.3011H35.385C33.9955 36.3038 32.8697 37.4296 32.8669 38.8191V43.5709C32.7035 43.604 32.546 43.6263 32.4091 43.6263H16.8433V43.6264C16.5947 43.6264 16.3855 43.4167 16.3855 43.1686V13.8674C16.3855 13.6193 16.5948 13.4097 16.8433 13.4097H40.1926C40.4408 13.4097 40.6504 13.6193 40.6504 13.8674L40.6496 35.8433Z" fill="black"/>
<path d="M35.157 18.4458H21.8799C21.5004 18.4458 21.1932 18.753 21.1932 19.1325C21.1932 19.5121 21.5005 19.8193 21.8799 19.8193H35.157C35.5361 19.8193 35.8437 19.5121 35.8437 19.1325C35.8437 18.753 35.5361 18.4458 35.157 18.4458Z" fill="black"/>
<path d="M35.157 27.6025H21.8799C21.5004 27.6025 21.1932 27.9097 21.1932 28.2893C21.1932 28.6688 21.5005 28.976 21.8799 28.976H35.157C35.5361 28.976 35.8437 28.6688 35.8437 28.2893C35.8437 27.9097 35.5361 27.6025 35.157 27.6025Z" fill="black"/>
<path d="M29.2052 32.1807H21.88C21.5005 32.1807 21.1933 32.4879 21.1933 32.8674C21.1933 33.247 21.5005 33.5542 21.88 33.5542H29.2052C29.5844 33.5542 29.8915 33.247 29.8915 32.8674C29.8915 32.4879 29.5844 32.1807 29.2052 32.1807Z" fill="black"/>
<path d="M35.157 23.0244H21.8799C21.5004 23.0244 21.1932 23.3316 21.1932 23.7112C21.1932 24.0907 21.5005 24.3979 21.8799 24.3979H35.157C35.5361 24.3979 35.8437 24.0907 35.8437 23.7112C35.8437 23.3316 35.5361 23.0244 35.157 23.0244Z" fill="black"/>
</svg>
