<svg width="14" height="18" viewBox="0 0 14 18" fill="none" xmlns="http://www.w3.org/2000/svg">
<path d="M7.875 4.78125V0H0.84375C0.351562 0 0 0.386719 0 0.84375V17.1562C0 17.6484 0.351562 18 0.84375 18H12.6562C13.1133 18 13.5 17.6484 13.5 17.1562V5.625H8.71875C8.22656 5.625 7.875 5.27344 7.875 4.78125ZM10.1602 12.4102H7.875V15.2227C7.875 15.5039 7.59375 15.7852 7.3125 15.7852H6.1875C5.87109 15.7852 5.625 15.5039 5.625 15.2227V12.4102H3.30469C2.8125 12.4102 2.56641 11.7773 2.91797 11.4258L6.29297 8.05078C6.53906 7.83984 6.92578 7.83984 7.17188 8.05078L10.5469 11.4258C10.8984 11.7773 10.6523 12.4102 10.1602 12.4102ZM13.2539 3.69141L9.80859 0.246094C9.63281 0.105469 9.42188 0 9.21094 0H9V4.5H13.5V4.28906C13.5 4.07812 13.3945 3.86719 13.2539 3.69141Z" fill="black"/>
</svg>
