<svg width="14" height="19" viewBox="0 0 14 19" fill="none" xmlns="http://www.w3.org/2000/svg">
<path d="M10.375 8.96875C10.375 8.75781 10.1641 8.54688 9.95312 8.54688H4.04688C3.80078 8.54688 3.625 8.75781 3.625 8.96875V9.95312C3.625 10.1992 3.80078 10.375 4.04688 10.375H9.95312C10.1641 10.375 10.375 10.1992 10.375 9.95312V8.96875ZM9.95312 11.5H4.04688C3.80078 11.5 3.625 11.7109 3.625 11.9219V12.9062C3.625 13.1523 3.80078 13.3281 4.04688 13.3281H9.95312C10.1641 13.3281 10.375 13.1523 10.375 12.9062V11.9219C10.375 11.7109 10.1641 11.5 9.95312 11.5ZM13.75 4.89062C13.75 4.46875 13.5391 4.01172 13.2227 3.69531L10.3047 0.777344C9.98828 0.460938 9.53125 0.25 9.10938 0.25H1.9375C0.988281 0.25 0.25 1.02344 0.25 1.9375V16.5625C0.25 17.5117 0.988281 18.25 1.9375 18.25H12.0625C12.9766 18.25 13.75 17.5117 13.75 16.5625V4.89062ZM9.25 2.07812L11.9219 4.75H9.25V2.07812ZM12.0625 16.5625H1.9375V1.9375H7.5625V5.59375C7.5625 6.08594 7.91406 6.4375 8.40625 6.4375H12.0625V16.5625Z" fill="#CB9B27"/>
</svg>
