<svg xmlns="http://www.w3.org/2000/svg" width="48" height="48" viewBox="0 0 48 48">
  <g id="split-icon" transform="translate(-527 -161)">
    <rect id="Rectangle_46" data-name="Rectangle 46" width="48" height="48" transform="translate(527 161)" fill="none"/>
    <g id="Union_7" data-name="Union 7" transform="translate(16569 590.002)" fill="#96abec">
      <path d="M -16028.1904296875 -383.3290405273438 C -16028.6875 -383.3290405273438 -16029.1357421875 -383.6416931152344 -16029.306640625 -384.1070861816406 L -16034.3427734375 -398.1246948242188 C -16034.4111328125 -398.3130798339844 -16034.400390625 -398.5162963867188 -16034.314453125 -398.6969299316406 C -16034.2294921875 -398.8753662109375 -16034.0810546875 -399.0093078613281 -16033.8955078125 -399.0740966796875 C -16033.814453125 -399.1032104492188 -16033.7294921875 -399.1181640625 -16033.6435546875 -399.1181640625 C -16033.3310546875 -399.1181640625 -16033.0498046875 -398.9208984375 -16032.943359375 -398.6273193359375 L -16028.0087890625 -384.9015502929688 L -16021.70703125 -387.1702575683594 L -16014.6689453125 -389.6989135742188 L -16018.9345703125 -388.9662170410156 L -16025.8388671875 -387.78271484375 C -16025.90625 -387.773681640625 -16025.9716796875 -387.7691955566406 -16026.0322265625 -387.7691955566406 C -16026.6123046875 -387.7691955566406 -16027.1064453125 -388.1815185546875 -16027.2060546875 -388.7495727539062 L -16029.75390625 -403.6203918457031 L -16031.953125 -416.4151611328125 C -16034.0771484375 -415.700439453125 -16036.328125 -414.9386291503906 -16038.5283203125 -414.1519775390625 L -16033.93359375 -401.3765563964844 C -16033.8642578125 -401.1933288574219 -16033.8720703125 -400.9927368164062 -16033.955078125 -400.8129272460938 C -16034.0400390625 -400.6301879882812 -16034.1904296875 -400.4918823242188 -16034.3798828125 -400.4234008789062 C -16034.4580078125 -400.3930358886719 -16034.54296875 -400.377197265625 -16034.630859375 -400.377197265625 C -16034.9423828125 -400.377197265625 -16035.224609375 -400.574951171875 -16035.3330078125 -400.8692626953125 L -16040.0302734375 -413.9369812011719 C -16040.25 -414.5465698242188 -16039.9306640625 -415.2250671386719 -16039.318359375 -415.4494934082031 C -16036.89453125 -416.321044921875 -16034.3017578125 -417.1934204101562 -16032.2041015625 -417.8988037109375 L -16032.564453125 -419.9881286621094 C -16032.6748046875 -420.6279602050781 -16032.2431640625 -421.2413635253906 -16031.6015625 -421.3555297851562 L -16024.3486328125 -422.5973815917969 L -16024.3486328125 -425.8985290527344 C -16024.3486328125 -426.5618591308594 -16023.8095703125 -427.1015319824219 -16023.146484375 -427.1015319824219 L -16002.337890625 -427.1015319824219 C -16001.919921875 -427.1015319824219 -16001.69140625 -426.8819274902344 -16001.4892578125 -426.6881713867188 C -16001.27734375 -426.4860534667969 -15996.318359375 -421.7552490234375 -15996.2939453125 -421.7307739257812 C -15996.1494140625 -421.5976257324219 -15995.90234375 -421.37060546875 -15995.90234375 -420.9350280761719 L -15995.90234375 -392.8327026367188 C -15995.90234375 -392.1693725585938 -15996.439453125 -391.6296997070312 -15997.1005859375 -391.6296997070312 L -16003.408203125 -391.6296997070312 L -16006.25 -391.1415100097656 L -16021.2001953125 -385.766357421875 L -16027.7900390625 -383.3993225097656 C -16027.9169921875 -383.352783203125 -16028.0517578125 -383.3290405273438 -16028.1904296875 -383.3290405273438 Z M -16031.0458984375 -419.9395446777344 L -16028.2890625 -403.8715515136719 L -16025.7890625 -389.3010559082031 L -16019.189453125 -390.4353942871094 L -16012.2216796875 -391.6296997070312 L -16023.146484375 -391.6296997070312 C -16023.8095703125 -391.6296997070312 -16024.3486328125 -392.1693725585938 -16024.3486328125 -392.8327026367188 L -16024.3486328125 -405.5816040039062 C -16024.3486328125 -405.9918823242188 -16024.015625 -406.32568359375 -16023.60546875 -406.32568359375 C -16023.1953125 -406.32568359375 -16022.861328125 -405.9918823242188 -16022.861328125 -405.5816040039062 L -16022.861328125 -393.1178894042969 L -15997.3896484375 -393.1178894042969 L -15997.3896484375 -420.1184692382812 L -16001.3681640625 -420.1184692382812 L -16001.4609375 -420.1184692382812 C -16001.9296875 -420.1184692382812 -16002.5244140625 -420.1744079589844 -16002.9599609375 -420.6107482910156 C -16003.2626953125 -420.9085083007812 -16003.416015625 -421.3144226074219 -16003.416015625 -421.8166198730469 L -16003.423828125 -425.6093139648438 L -16022.861328125 -425.6093139648438 L -16022.861328125 -408.5725708007812 C -16022.861328125 -408.1600646972656 -16023.1953125 -407.824462890625 -16023.60546875 -407.824462890625 C -16024.015625 -407.824462890625 -16024.3486328125 -408.1600646972656 -16024.3486328125 -408.5725708007812 L -16024.3486328125 -421.0861511230469 L -16031.0458984375 -419.9395446777344 Z M -16001.908203125 -421.6611328125 C -16001.8828125 -421.6427307128906 -16001.78515625 -421.6066284179688 -16001.4169921875 -421.6066284179688 L -16001.39453125 -421.6066284179688 L -16001.3759765625 -421.6066589355469 L -16001.2958984375 -421.6066589355469 L -15998.3212890625 -421.6066589355469 L -16001.935546875 -425.0564880371094 L -16001.9287109375 -421.8168334960938 C -16001.9287109375 -421.7194519042969 -16001.9130859375 -421.674072265625 -16001.908203125 -421.6611328125 Z M -16000.7802734375 -397.9296875 L -16019.208984375 -397.9296875 C -16019.619140625 -397.9296875 -16019.953125 -398.2652893066406 -16019.953125 -398.6777954101562 C -16019.953125 -399.0880737304688 -16019.619140625 -399.421875 -16019.208984375 -399.421875 L -16000.7802734375 -399.421875 C -16000.3701171875 -399.421875 -16000.0361328125 -399.0880737304688 -16000.0361328125 -398.6777954101562 C -16000.0361328125 -398.2652893066406 -16000.3701171875 -397.9296875 -16000.7802734375 -397.9296875 Z M -16000.7802734375 -402.5107421875 L -16019.208984375 -402.5107421875 C -16019.619140625 -402.5107421875 -16019.953125 -402.8445434570312 -16019.953125 -403.2548217773438 C -16019.953125 -403.6651306152344 -16019.619140625 -403.9989318847656 -16019.208984375 -403.9989318847656 L -16000.7802734375 -403.9989318847656 C -16000.3701171875 -403.9989318847656 -16000.0361328125 -403.6651306152344 -16000.0361328125 -403.2548217773438 C -16000.0361328125 -402.8445434570312 -16000.3701171875 -402.5107421875 -16000.7802734375 -402.5107421875 Z M -16000.7802734375 -407.0877990722656 L -16019.208984375 -407.0877990722656 C -16019.619140625 -407.0877990722656 -16019.953125 -407.4234008789062 -16019.953125 -407.8359069824219 C -16019.953125 -408.2461853027344 -16019.619140625 -408.5799865722656 -16019.208984375 -408.5799865722656 L -16000.7802734375 -408.5799865722656 C -16000.3701171875 -408.5799865722656 -16000.0361328125 -408.2461853027344 -16000.0361328125 -407.8359069824219 C -16000.0361328125 -407.4234008789062 -16000.3701171875 -407.0877990722656 -16000.7802734375 -407.0877990722656 Z M -16000.7802734375 -411.6688537597656 L -16019.208984375 -411.6688537597656 C -16019.619140625 -411.6688537597656 -16019.953125 -412.0026550292969 -16019.953125 -412.4129638671875 C -16019.953125 -412.8232421875 -16019.619140625 -413.1570434570312 -16019.208984375 -413.1570434570312 L -16000.7802734375 -413.1570434570312 C -16000.3701171875 -413.1570434570312 -16000.0361328125 -412.8232421875 -16000.0361328125 -412.4129638671875 C -16000.0361328125 -412.0026550292969 -16000.3701171875 -411.6688537597656 -16000.7802734375 -411.6688537597656 Z M -16000.7802734375 -416.2459106445312 L -16019.208984375 -416.2459106445312 C -16019.619140625 -416.2459106445312 -16019.953125 -416.5815124511719 -16019.953125 -416.9940185546875 C -16019.953125 -417.404296875 -16019.619140625 -417.7380981445312 -16019.208984375 -417.7380981445312 L -16000.7802734375 -417.7380981445312 C -16000.3701171875 -417.7380981445312 -16000.0361328125 -417.404296875 -16000.0361328125 -416.9940185546875 C -16000.0361328125 -416.5815124511719 -16000.3701171875 -416.2459106445312 -16000.7802734375 -416.2459106445312 Z" stroke="none"/>
      <path d="M -16028.1904296875 -383.4290466308594 C -16028.0693359375 -383.4290466308594 -16027.9443359375 -383.4491577148438 -16027.82421875 -383.4934387207031 L -16021.234375 -385.8604736328125 L -16006.275390625 -391.2385864257812 L -16003.4169921875 -391.7297058105469 L -15997.1005859375 -391.7297058105469 C -15996.4970703125 -391.7297058105469 -15996.001953125 -392.224853515625 -15996.001953125 -392.8327026367188 L -15996.001953125 -420.9350280761719 C -15996.001953125 -421.3214721679688 -15996.2109375 -421.5187377929688 -15996.3642578125 -421.6596374511719 C -15996.388671875 -421.6837768554688 -16001.5576171875 -426.6150817871094 -16001.5576171875 -426.6150817871094 C -16001.7548828125 -426.8042602539062 -16001.9599609375 -427.0015258789062 -16002.337890625 -427.0015258789062 L -16023.146484375 -427.0015258789062 C -16023.75390625 -427.0015258789062 -16024.2490234375 -426.5063781738281 -16024.2490234375 -425.8985290527344 L -16024.2490234375 -422.5130310058594 L -16031.583984375 -421.257080078125 C -16032.171875 -421.1524047851562 -16032.56640625 -420.5888366699219 -16032.4658203125 -420.005126953125 L -16032.0908203125 -417.8313293457031 C -16034.4736328125 -417.0302429199219 -16036.921875 -416.2050170898438 -16039.2841796875 -415.3556213378906 C -16039.84375 -415.1503295898438 -16040.1376953125 -414.5303955078125 -16039.9365234375 -413.9708251953125 L -16035.2392578125 -400.9039306640625 C -16035.142578125 -400.6422729492188 -16034.896484375 -400.4772033691406 -16034.630859375 -400.4772033691406 C -16034.55859375 -400.4772033691406 -16034.486328125 -400.4892883300781 -16034.4140625 -400.5174560546875 C -16034.080078125 -400.6382446289062 -16033.90234375 -401.0085754394531 -16034.02734375 -401.3427124023438 L -16038.65625 -414.2123718261719 C -16036.4306640625 -415.0094299316406 -16034.1240234375 -415.7903747558594 -16031.8740234375 -416.5471801757812 L -16029.6552734375 -403.6372680664062 L -16027.107421875 -388.7669067382812 C -16027.0146484375 -388.2395629882812 -16026.5556640625 -387.8692016601562 -16026.0322265625 -387.8692016601562 C -16025.9765625 -387.8692016601562 -16025.916015625 -387.8732299804688 -16025.85546875 -387.8812866210938 L -16018.951171875 -389.0647888183594 L -16013.5615234375 -389.9906616210938 L -16021.6728515625 -387.076171875 L -16028.0693359375 -384.7735595703125 L -16033.037109375 -398.59326171875 C -16033.1318359375 -398.8551940917969 -16033.3798828125 -399.0181579589844 -16033.6435546875 -399.0181579589844 C -16033.716796875 -399.0181579589844 -16033.7900390625 -399.0057983398438 -16033.8623046875 -398.9797058105469 C -16034.1962890625 -398.8629760742188 -16034.369140625 -398.4926147460938 -16034.2490234375 -398.1585083007812 L -16029.212890625 -384.1415405273438 C -16029.0517578125 -383.7027587890625 -16028.6328125 -383.4290466308594 -16028.1904296875 -383.4290466308594 M -16024.2490234375 -421.2047424316406 L -16024.2490234375 -408.5725708007812 C -16024.2490234375 -408.2142944335938 -16023.958984375 -407.9244689941406 -16023.60546875 -407.9244689941406 C -16023.2509765625 -407.9244689941406 -16022.9609375 -408.2142944335938 -16022.9609375 -408.5725708007812 L -16022.9609375 -425.7093200683594 L -16003.32421875 -425.7093200683594 L -16003.31640625 -421.8166198730469 C -16003.31640625 -421.3456420898438 -16003.17578125 -420.9631958007812 -16002.8896484375 -420.6814270019531 C -16002.455078125 -420.2466430664062 -16001.8388671875 -420.2184753417969 -16001.4609375 -420.2184753417969 C -16001.4248046875 -420.2184753417969 -16001.396484375 -420.2184753417969 -16001.3681640625 -420.2184753417969 L -15997.2900390625 -420.2184753417969 L -15997.2900390625 -393.0178833007812 L -16022.9609375 -393.0178833007812 L -16022.9609375 -405.5816040039062 C -16022.9609375 -405.9358520507812 -16023.2509765625 -406.2256774902344 -16023.60546875 -406.2256774902344 C -16023.958984375 -406.2256774902344 -16024.2490234375 -405.9358520507812 -16024.2490234375 -405.5816040039062 L -16024.2490234375 -392.8327026367188 C -16024.2490234375 -392.224853515625 -16023.75390625 -391.7297058105469 -16023.146484375 -391.7297058105469 L -16011.0458984375 -391.7297058105469 L -16019.1728515625 -390.3368530273438 L -16025.87109375 -389.185546875 L -16028.3876953125 -403.8546447753906 L -16031.1611328125 -420.021240234375 L -16024.2490234375 -421.2047424316406 M -16002.0361328125 -425.2906494140625 L -15998.0712890625 -421.5066528320312 L -16001.2958984375 -421.5066528320312 L -16001.3759765625 -421.5066528320312 C -16001.388671875 -421.5066528320312 -16001.40234375 -421.5066223144531 -16001.4169921875 -421.5066223144531 C -16001.5859375 -421.5066223144531 -16001.8994140625 -421.5100402832031 -16001.984375 -421.59521484375 C -16002.00390625 -421.6153564453125 -16002.0283203125 -421.6878051757812 -16002.0283203125 -421.8166198730469 L -16002.0361328125 -425.2906494140625 M -16000.7802734375 -398.0296936035156 C -16000.42578125 -398.0296936035156 -16000.1357421875 -398.3195190429688 -16000.1357421875 -398.6777954101562 C -16000.1357421875 -399.0320434570312 -16000.42578125 -399.3218688964844 -16000.7802734375 -399.3218688964844 L -16019.208984375 -399.3218688964844 C -16019.5634765625 -399.3218688964844 -16019.853515625 -399.0320434570312 -16019.853515625 -398.6777954101562 C -16019.853515625 -398.3195190429688 -16019.5634765625 -398.0296936035156 -16019.208984375 -398.0296936035156 L -16000.7802734375 -398.0296936035156 M -16000.7802734375 -402.6107482910156 C -16000.42578125 -402.6107482910156 -16000.1357421875 -402.9006042480469 -16000.1357421875 -403.2548217773438 C -16000.1357421875 -403.6130981445312 -16000.42578125 -403.89892578125 -16000.7802734375 -403.89892578125 L -16019.208984375 -403.89892578125 C -16019.5634765625 -403.89892578125 -16019.853515625 -403.6130981445312 -16019.853515625 -403.2548217773438 C -16019.853515625 -402.9006042480469 -16019.5634765625 -402.6107482910156 -16019.208984375 -402.6107482910156 L -16000.7802734375 -402.6107482910156 M -16000.7802734375 -407.1878051757812 C -16000.42578125 -407.1878051757812 -16000.1357421875 -407.4776306152344 -16000.1357421875 -407.8359069824219 C -16000.1357421875 -408.1901550292969 -16000.42578125 -408.47998046875 -16000.7802734375 -408.47998046875 L -16019.208984375 -408.47998046875 C -16019.5634765625 -408.47998046875 -16019.853515625 -408.1901550292969 -16019.853515625 -407.8359069824219 C -16019.853515625 -407.4776306152344 -16019.5634765625 -407.1878051757812 -16019.208984375 -407.1878051757812 L -16000.7802734375 -407.1878051757812 M -16000.7802734375 -411.7688598632812 C -16000.42578125 -411.7688598632812 -16000.1357421875 -412.0587158203125 -16000.1357421875 -412.4129638671875 C -16000.1357421875 -412.7672119140625 -16000.42578125 -413.0570373535156 -16000.7802734375 -413.0570373535156 L -16019.208984375 -413.0570373535156 C -16019.5634765625 -413.0570373535156 -16019.853515625 -412.7672119140625 -16019.853515625 -412.4129638671875 C -16019.853515625 -412.0587158203125 -16019.5634765625 -411.7688598632812 -16019.208984375 -411.7688598632812 L -16000.7802734375 -411.7688598632812 M -16000.7802734375 -416.3459167480469 C -16000.42578125 -416.3459167480469 -16000.1357421875 -416.6357421875 -16000.1357421875 -416.9940185546875 C -16000.1357421875 -417.3482666015625 -16000.42578125 -417.6380920410156 -16000.7802734375 -417.6380920410156 L -16019.208984375 -417.6380920410156 C -16019.5634765625 -417.6380920410156 -16019.853515625 -417.3482666015625 -16019.853515625 -416.9940185546875 C -16019.853515625 -416.6357421875 -16019.5634765625 -416.3459167480469 -16019.208984375 -416.3459167480469 L -16000.7802734375 -416.3459167480469 M -16028.1904296875 -383.2290344238281 C -16028.728515625 -383.2290344238281 -16029.2158203125 -383.5680541992188 -16029.400390625 -384.0726013183594 L -16034.4375 -398.0908813476562 C -16034.513671875 -398.3045349121094 -16034.5029296875 -398.5350646972656 -16034.4052734375 -398.7399597167969 C -16034.30859375 -398.942626953125 -16034.138671875 -399.0948181152344 -16033.9287109375 -399.1684875488281 C -16033.837890625 -399.2012023925781 -16033.7412109375 -399.2181701660156 -16033.6435546875 -399.2181701660156 C -16033.2890625 -399.2181701660156 -16032.9697265625 -398.9944152832031 -16032.8486328125 -398.6614074707031 L -16027.94921875 -385.0295104980469 L -16021.740234375 -387.2643432617188 L -16015.77734375 -389.4071655273438 L -16018.9169921875 -388.86767578125 L -16025.8212890625 -387.6841735839844 L -16025.8251953125 -387.6835327148438 L -16025.8291015625 -387.6830139160156 C -16025.8974609375 -387.6739807128906 -16025.9677734375 -387.669189453125 -16026.0322265625 -387.669189453125 C -16026.6611328125 -387.669189453125 -16027.1962890625 -388.1162719726562 -16027.3046875 -388.7322692871094 L -16029.8525390625 -403.6034851074219 L -16032.03125 -416.2831726074219 C -16034.0927734375 -415.5896301269531 -16036.26953125 -414.8522644042969 -16038.400390625 -414.0915222167969 L -16033.8388671875 -401.410400390625 C -16033.76171875 -401.2031555175781 -16033.7705078125 -400.9752197265625 -16033.865234375 -400.77099609375 C -16033.9609375 -400.5638122558594 -16034.1318359375 -400.406982421875 -16034.345703125 -400.3293762207031 C -16034.43359375 -400.2953186035156 -16034.5302734375 -400.2771911621094 -16034.630859375 -400.2771911621094 C -16034.9833984375 -400.2771911621094 -16035.3037109375 -400.501220703125 -16035.4267578125 -400.8346252441406 L -16040.125 -413.9031677246094 C -16040.3623046875 -414.5642700195312 -16040.0166015625 -415.3000793457031 -16039.353515625 -415.5433959960938 C -16036.958984375 -416.4042053222656 -16034.4013671875 -417.265625 -16032.3173828125 -417.9662780761719 L -16032.6630859375 -419.9711303710938 C -16032.7822265625 -420.6650085449219 -16032.314453125 -421.3302001953125 -16031.619140625 -421.4539794921875 L -16024.44921875 -422.6817016601562 L -16024.44921875 -425.8985290527344 C -16024.44921875 -426.6170043945312 -16023.8642578125 -427.2015075683594 -16023.146484375 -427.2015075683594 L -16002.337890625 -427.2015075683594 C -16001.8798828125 -427.2015075683594 -16001.625 -426.9569091796875 -16001.419921875 -426.7603454589844 C -16000.5693359375 -425.9489440917969 -15996.3818359375 -421.9531860351562 -15996.2275390625 -421.8059387207031 C -15996.068359375 -421.6590576171875 -15995.8017578125 -421.4134826660156 -15995.8017578125 -420.9350280761719 L -15995.8017578125 -392.8327026367188 C -15995.8017578125 -392.1142272949219 -15996.384765625 -391.5296936035156 -15997.1005859375 -391.5296936035156 L -16003.400390625 -391.5296936035156 L -16006.224609375 -391.04443359375 L -16021.1669921875 -385.6722717285156 L -16027.7568359375 -383.3052062988281 C -16027.8935546875 -383.2548522949219 -16028.0400390625 -383.2290344238281 -16028.1904296875 -383.2290344238281 Z M -16030.9306640625 -419.8578796386719 L -16028.1904296875 -403.8884582519531 L -16025.7080078125 -389.4165649414062 L -16019.20703125 -390.5339660644531 L -16013.396484375 -391.5296936035156 L -16023.146484375 -391.5296936035156 C -16023.8642578125 -391.5296936035156 -16024.44921875 -392.1142272949219 -16024.44921875 -392.8327026367188 L -16024.44921875 -405.5816040039062 C -16024.44921875 -406.0470275878906 -16024.0703125 -406.4256896972656 -16023.60546875 -406.4256896972656 C -16023.1396484375 -406.4256896972656 -16022.7607421875 -406.0470275878906 -16022.7607421875 -405.5816040039062 L -16022.7607421875 -393.2178955078125 L -15997.490234375 -393.2178955078125 L -15997.490234375 -420.0184631347656 L -16001.3681640625 -420.0184631347656 L -16001.4609375 -420.0184631347656 C -16001.94921875 -420.0184631347656 -16002.5693359375 -420.0777587890625 -16003.03125 -420.5400390625 C -16003.3525390625 -420.8567504882812 -16003.5166015625 -421.2866516113281 -16003.5166015625 -421.8166198730469 L -16003.5234375 -425.5093078613281 L -16022.7607421875 -425.5093078613281 L -16022.7607421875 -408.5725708007812 C -16022.7607421875 -408.1049194335938 -16023.1396484375 -407.7244567871094 -16023.60546875 -407.7244567871094 C -16024.0703125 -407.7244567871094 -16024.44921875 -408.1049194335938 -16024.44921875 -408.5725708007812 L -16024.44921875 -420.9675903320312 L -16030.9306640625 -419.8578796386719 Z M -16001.8232421875 -421.7356262207031 C -16001.7734375 -421.7224426269531 -16001.662109375 -421.7066345214844 -16001.4169921875 -421.7066345214844 L -16001.39453125 -421.7066345214844 L -16001.3759765625 -421.7066650390625 L -16001.2958984375 -421.7066650390625 L -15998.5703125 -421.7066650390625 L -16001.8349609375 -424.8222961425781 L -16001.828125 -421.8170776367188 C -16001.828125 -421.7811584472656 -16001.826171875 -421.7544555664062 -16001.8232421875 -421.7356262207031 Z M -16000.7802734375 -397.8296813964844 L -16019.208984375 -397.8296813964844 C -16019.6748046875 -397.8296813964844 -16020.0537109375 -398.2101440429688 -16020.0537109375 -398.6777954101562 C -16020.0537109375 -399.1432189941406 -16019.6748046875 -399.5218811035156 -16019.208984375 -399.5218811035156 L -16000.7802734375 -399.5218811035156 C -16000.314453125 -399.5218811035156 -15999.935546875 -399.1432189941406 -15999.935546875 -398.6777954101562 C -15999.935546875 -398.2101440429688 -16000.314453125 -397.8296813964844 -16000.7802734375 -397.8296813964844 Z M -16000.7802734375 -402.4107360839844 L -16019.208984375 -402.4107360839844 C -16019.6748046875 -402.4107360839844 -16020.0537109375 -402.7893981933594 -16020.0537109375 -403.2548217773438 C -16020.0537109375 -403.7202758789062 -16019.6748046875 -404.0989074707031 -16019.208984375 -404.0989074707031 L -16000.7802734375 -404.0989074707031 C -16000.314453125 -404.0989074707031 -15999.935546875 -403.7202758789062 -15999.935546875 -403.2548217773438 C -15999.935546875 -402.7893981933594 -16000.314453125 -402.4107360839844 -16000.7802734375 -402.4107360839844 Z M -16000.7802734375 -406.98779296875 L -16019.208984375 -406.98779296875 C -16019.6748046875 -406.98779296875 -16020.0537109375 -407.3682556152344 -16020.0537109375 -407.8359069824219 C -16020.0537109375 -408.3013305664062 -16019.6748046875 -408.6799926757812 -16019.208984375 -408.6799926757812 L -16000.7802734375 -408.6799926757812 C -16000.314453125 -408.6799926757812 -15999.935546875 -408.3013305664062 -15999.935546875 -407.8359069824219 C -15999.935546875 -407.3682556152344 -16000.314453125 -406.98779296875 -16000.7802734375 -406.98779296875 Z M -16000.7802734375 -411.56884765625 L -16019.208984375 -411.56884765625 C -16019.6748046875 -411.56884765625 -16020.0537109375 -411.947509765625 -16020.0537109375 -412.4129638671875 C -16020.0537109375 -412.8783874511719 -16019.6748046875 -413.2570495605469 -16019.208984375 -413.2570495605469 L -16000.7802734375 -413.2570495605469 C -16000.314453125 -413.2570495605469 -15999.935546875 -412.8783874511719 -15999.935546875 -412.4129638671875 C -15999.935546875 -411.947509765625 -16000.314453125 -411.56884765625 -16000.7802734375 -411.56884765625 Z M -16000.7802734375 -416.1459350585938 L -16019.208984375 -416.1459350585938 C -16019.6748046875 -416.1459350585938 -16020.0537109375 -416.5263671875 -16020.0537109375 -416.9940185546875 C -16020.0537109375 -417.4594421386719 -16019.6748046875 -417.8381042480469 -16019.208984375 -417.8381042480469 L -16000.7802734375 -417.8381042480469 C -16000.314453125 -417.8381042480469 -15999.935546875 -417.4594421386719 -15999.935546875 -416.9940185546875 C -15999.935546875 -416.5263671875 -16000.314453125 -416.1459350585938 -16000.7802734375 -416.1459350585938 Z" stroke="none" fill="#96abec"/>
    </g>
  </g>
</svg>
