<svg xmlns="http://www.w3.org/2000/svg" width="42" height="34" fill="none" xmlns:v="https://vecta.io/nano"><path fill-rule="evenodd" d="M40.324 0H1.588C.706 0 0 .592 0 1.331v31.323c0 .518.353.999.926 1.22s1.235.148 1.721-.222l3.794-2.774 3.794 2.774a1.85 1.85 0 0 0 2.118 0l3.794-2.774 3.794 2.774a1.85 1.85 0 0 0 2.118 0l3.794-2.774 3.794 2.774a1.85 1.85 0 0 0 2.118 0l3.794-2.774 3.794 2.774a1.77 1.77 0 0 0 1.059.333 2.07 2.07 0 0 0 .662-.111c.574-.222.926-.703.926-1.22V1.331C41.912.592 41.206 0 40.324 0z" fill="#fff"/><path d="M18.68 9.568H7.32v1.84h11.36v-1.84zm-2.128 11.776c-.528 0-.624-.096-.624-.704v-4.896h4.224v-1.856H5.88v1.856h3.616c-.192 2.656-.64 4.816-3.968 6.064a5.49 5.49 0 0 1 1.184 1.552c3.824-1.552 4.56-4.288 4.848-7.616h2.4v4.896c0 1.872.464 2.48 2.272 2.48h1.92c1.632 0 2.112-.832 2.304-3.696-.528-.128-1.344-.464-1.76-.8-.08 2.304-.176 2.72-.704 2.72h-1.44z" fill="#6882da"/><path d="M27 10h8.5M27 16h8.5M27 22h8.5" stroke="#6882da" stroke-width="2" stroke-linecap="round"/></svg>