<?xml version="1.0" encoding="UTF-8"?>
<svg width="64px" height="53px" viewBox="0 0 64 53" version="1.1" xmlns="http://www.w3.org/2000/svg" xmlns:xlink="http://www.w3.org/1999/xlink">
    <title>75BF1B3B-611B-45ED-B4D4-7DEE07B08950</title>
    <g id="SES" stroke="none" stroke-width="1" fill="none" fill-rule="evenodd">
        <g id="SES-new---06-10-2021" transform="translate(-574.000000, -2281.000000)">
            <g id="Group-23" transform="translate(574.000000, 2281.000000)">
                <g id="Group-33">
                    <circle id="Oval-Copy-19" fill="#D8CEF3" cx="26.5" cy="26.5" r="26.5"></circle>
                    <g id="Group-32" transform="translate(34.000000, 6.000000)" fill="#000000" fill-rule="nonzero">
                        <path d="M26.2499374,40.0076866 C28.320245,40.0076866 29.9999285,38.3280031 29.9999285,36.2576955 L29.9999285,10.3124754 C29.9999285,9.32027502 29.6015224,8.35935507 28.8983991,7.65623175 L22.3436967,1.10152936 C21.6405734,0.398406033 20.6874354,0 19.695235,0 L3.74999106,0 C1.6796835,0.00778196387 0,1.68746546 0,3.75777302 L0,36.2576955 C0,38.3280031 1.6796835,40.0076866 3.74999106,40.0076866 L26.2499374,40.0076866 Z M26.2499374,37.5076926 L3.74999106,37.5076926 C3.06250796,37.5076926 2.49999404,36.9451786 2.49999404,36.2576955 L2.49999404,3.75777302 C2.49999404,3.07028992 3.06250796,2.507776 3.74999106,2.507776 L17.4999583,2.507776 L17.4999583,10.6327566 C17.4999583,11.6718014 18.335909,12.5077522 19.3749538,12.5077522 L27.4999344,12.5077522 L27.4999344,36.2576955 C27.4999344,36.9451786 26.9374205,37.5076926 26.2499374,37.5076926 Z M27.460872,10.0077581 L19.9999523,10.0077581 L19.9999523,2.54683841 C20.2186865,2.60154104 20.4139986,2.71087 20.5781065,2.87497789 L27.1327326,9.42960398 C27.2968404,9.59371187 27.4061694,9.7890239 27.460872,10.0077581 Z" id="ffile-alt-copy"></path>
                    </g>
                </g>
                <path d="M46.28,27.4 C48.16,27.4 49.54,25.96 49.54,24.2 C49.54,22.4 48.14,21 46.28,21 C44.4,21 43,22.42 43,24.2 C43,25.96 44.4,27.4 46.28,27.4 Z M46.26,25.64 C45.42,25.64 44.84,25 44.84,24.2 C44.84,23.38 45.42,22.74 46.26,22.74 C47.12,22.74 47.7,23.38 47.7,24.2 C47.7,24.98 47.12,25.64 46.26,25.64 Z M45.26,33.84 L54.48,23.56 L53.4,22.94 L44.18,33.2 L45.26,33.84 Z M52.68,35.5 C54.54,35.5 55.94,34.06 55.94,32.3 C55.94,30.52 54.54,29.1 52.68,29.1 C50.8,29.1 49.4,30.52 49.4,32.3 C49.4,34.06 50.8,35.5 52.68,35.5 Z M52.66,33.74 C51.82,33.74 51.24,33.1 51.24,32.3 C51.24,31.48 51.82,30.84 52.66,30.84 C53.52,30.84 54.1,31.48 54.1,32.3 C54.1,33.08 53.52,33.74 52.66,33.74 Z" id="%" fill="#262626" fill-rule="nonzero"></path>
            </g>
        </g>
    </g>
</svg>