<?xml version="1.0" encoding="UTF-8"?>
<svg width="45px" height="37px" viewBox="0 0 45 37" version="1.1" xmlns="http://www.w3.org/2000/svg" xmlns:xlink="http://www.w3.org/1999/xlink">
    <title>EFFBA957-3FCD-42AD-8ACB-A927DEEE1A95</title>
    <g id="Final" stroke="none" stroke-width="1" fill="none" fill-rule="evenodd">
        <g id="what-makes-us-number-1-component" transform="translate(-739.000000, -172.000000)">
            <g id="Group-8" transform="translate(739.047040, 172.000000)">
                <g id="Group-4" fill="#50CAAE" opacity="0.5">
                    <g id="Group-47" transform="translate(0.000000, 0.673267)">
                        <ellipse id="Oval" cx="17.5650437" cy="17.8217822" rx="17.5650437" ry="17.8217822"></ellipse>
                    </g>
                </g>
                <g id="Group-61" transform="translate(16.952960, 4.000000)">
                    <g id="search" fill="#000000" fill-rule="nonzero">
                        <path d="M10.0816,0.9376 L14.4512,0.9376 C14.5551135,0.937960597 14.6586712,0.949765099 14.76,0.9728 L14.76,7.0024 C14.76,8.19533506 15.7270649,9.1624 16.92,9.1624 L22.9368,9.1624 C22.9593788,9.26297782 22.9709137,9.36571937 22.9712,9.4688 L22.9712,11.64 C22.9712,11.8989111 23.1810889,12.1088 23.44,12.1088 C23.6989111,12.1088 23.9088072,11.8989111 23.9088072,11.64 L23.9088072,9.472 C23.9103404,8.85103268 23.663815,8.25516695 23.224,7.8168 L16.1112,0.688 C15.6722404,0.24575039 15.0743099,-0.00206659744 14.4512,-1.28223675e-05 L10.0808,-1.28223675e-05 C9.82188891,-1.28223675e-05 9.612,0.209888909 9.612,0.4688 C9.612,0.727711091 9.82188891,0.9376 10.0808,0.9376 L10.0816,0.9376 Z M22.3096,8.228 L16.92,8.228 C16.2444993,8.22623528 15.6979565,7.67790288 15.6983997,7.0024 L15.6983997,1.6 L22.3096,8.228 Z" id="Path_171" stroke="#000000" stroke-width="0.3"></path>
                        <path d="M1.252,9.4936 C1.37633349,9.4936 1.4955746,9.44420871 1.58349166,9.35629166 C1.67140871,9.2683746 1.7208,9.14913349 1.7208,9.0248 L1.7208,2.9688 C1.72212249,1.84754747 2.63074747,0.938922493 3.752,0.9376 L7.8944,0.9376 C8.15331109,0.9376 8.3632,0.727711091 8.3632,0.4688 C8.3632,0.209888909 8.15331109,-2.08189022e-16 7.8944,-2.08189022e-16 L3.752,-2.08189022e-16 C2.11310813,0.00176367317 0.784963673,1.32990813 0.7832,2.9688 L0.7832,9.0248 C0.7832,9.28371109 0.993088909,9.4936 1.252,9.4936 Z" id="Path_172" stroke="#000000" stroke-width="0.3"></path>
                        <path d="M4.84,9.844 L12.5712,9.844 C12.7386861,9.844 12.8934497,9.75464726 12.9771928,9.60960002 C13.0609358,9.46455279 13.0609358,9.28584721 12.9771928,9.14079998 C12.8934497,8.99575274 12.7386861,8.9064 12.5712,8.9064 L4.84,8.9064 C4.67251387,8.9064 4.5177503,8.99575274 4.43400722,9.14079998 C4.35026415,9.28584721 4.35026415,9.46455279 4.43400722,9.60960002 C4.5177503,9.75464726 4.67251387,9.844 4.84,9.844 Z" id="Path_173"></path>
                        <path d="M4.84,20.1568 C4.58108891,20.1568 4.3712,20.3666889 4.3712,20.6256 C4.3712,20.8845111 4.58108891,21.0944 4.84,21.0944 L12.5712,21.0944 C12.8301111,21.0944 13.04,20.8845111 13.04,20.6256 C13.04,20.3666889 12.8301111,20.1568 12.5712,20.1568 L4.84,20.1568 Z" id="Path_174"></path>
                        <path d="M19.184,13.1256 C19.184,12.8666889 18.9741111,12.6568 18.7152,12.6568 L4.7152,12.6568 C4.45628891,12.6568 4.2464,12.8666889 4.2464,13.1256 C4.2464,13.3845111 4.45628891,13.5944 4.7152,13.5944 L18.7152,13.5944 C18.9741111,13.5944 19.184,13.3845111 19.184,13.1256 Z" id="Path_175"></path>
                        <path d="M16.0592,16.8752 C16.0592,16.7508665 16.0098087,16.6316254 15.9218917,16.5437083 C15.8339746,16.4557913 15.7147335,16.4064 15.5904,16.4064 L4.7152,16.4064 C4.45628891,16.4064 4.2464,16.6162889 4.2464,16.8752 C4.2464,17.1341111 4.45628891,17.344 4.7152,17.344 L15.5904,17.344 C15.7147335,17.344 15.8339746,17.2946087 15.9218917,17.2066917 C16.0098087,17.1187746 16.0592,16.9995335 16.0592,16.8752 Z" id="Path_176"></path>
                        <path d="M25.372,26.3464 C26.7642819,23.8064964 26.1490207,20.6350437 23.908,18.8 L23.908,13.828 C23.908,13.5690889 23.6981111,13.3592 23.4392,13.3592 C23.1802889,13.3592 22.9704,13.5690889 22.9704,13.828 L22.9704,18.1656 C20.6691183,16.9102183 17.8200484,17.2881099 15.9256,19.1 C15.7407782,19.2793815 15.7352835,19.5742724 15.9132943,19.7604146 C16.0913052,19.9465569 16.3861475,19.9542305 16.5736,19.7776 C18.4583918,17.9811452 21.3975153,17.9043092 23.373596,19.5998312 C25.3496767,21.2953532 25.7203007,24.2120275 24.2310766,26.3478883 C22.7418526,28.4837491 19.8769197,29.1444388 17.6027293,27.876469 C15.3285388,26.6084992 14.3844186,23.8240804 15.4184,21.4344 C15.5139443,21.1985207 15.4038465,20.9294937 15.1703463,20.8282741 C14.9368461,20.7270544 14.6652357,20.8306154 14.5584,21.0616 C13.5178048,23.4707695 14.156594,26.2763937 16.1376,27.9976 L3.752,27.9976 C2.63074747,27.9962775 1.72212249,27.0876525 1.7208,25.9664 L1.7208,11.212 C1.7208,10.9530889 1.51091109,10.7432 1.252,10.7432 C0.993088909,10.7432 0.7832,10.9530889 0.7832,11.212 L0.7832,25.9696 C0.784963673,27.6084919 2.11310813,28.9366363 3.752,28.9384 L17.592,28.9384 C19.2889697,29.7125762 21.249053,29.6558393 22.8984,28.7848 L25.372,26.3464 Z" id="Path_177" stroke="#000000" stroke-width="0.3"></path>
                        <path d="M20.0976,27.4792 C21.7138311,27.4792 23.1709177,26.5056059 23.7894226,25.012403 C24.4079275,23.5192001 24.0660467,21.8004493 22.9231987,20.6576013 C21.7803507,19.5147533 20.0615999,19.1728725 18.568397,19.7913774 C17.0751941,20.4098823 16.1016,21.8669689 16.1016,23.4832 C16.1038049,25.6892159 17.8915841,27.4769951 20.0976,27.4792 Z M17.212,22.4672 C17.7387487,20.9667792 19.326727,20.1196429 20.8662831,20.5177553 C22.4058393,20.9158677 23.3840974,22.4266046 23.1174676,23.9942893 C22.8508377,25.561974 21.428143,26.6643599 19.8435379,26.5311188 C18.2589327,26.3978778 17.0403003,25.0733967 17.0391999,23.4832 C17.0390972,23.1374733 17.0975227,22.7942237 17.212,22.468 L17.212,22.4672 Z" id="Path_178"></path>
                    </g>
                    <circle id="Oval" stroke="#000000" fill="#FFFFFF" cx="20" cy="24" r="6.5"></circle>
                    <path d="M18.1587172,26.7590661 C18.3091313,26.9169193 18.5303284,27 18.7515256,27 C18.9727227,27 19.1939198,26.9086113 19.3443339,26.7590661 L23.7859724,22.2727101 C24.0868005,21.9653116 24.0691048,21.4834438 23.741733,21.2009695 C23.4143612,20.9184953 22.9011839,20.9351114 22.6003558,21.2425099 L18.7515256,25.130685 L17.3996442,23.7360668 C17.0988161,23.4286684 16.5856388,23.4120522 16.258267,23.6945265 C15.9308952,23.9770008 15.9131995,24.4588686 16.2140276,24.7662671 L18.1587172,26.7590661 Z" id="Path-Copy-4" fill="#262626" fill-rule="nonzero"></path>
                </g>
            </g>
        </g>
    </g>
</svg>