<svg width="60" height="53" viewBox="0 0 60 53" fill="none" xmlns="http://www.w3.org/2000/svg">
<circle opacity="0.5" cx="26.5" cy="26.5" r="26.5" fill="#F5CFCD"/>
<path fill-rule="evenodd" clip-rule="evenodd" d="M56.1426 9.9375C58.0834 9.96895 59.6369 11.5574 59.6251 13.4984V39.5016C59.6375 41.4428 58.0836 43.0316 56.1426 43.0625H24.9189C22.9779 43.0316 21.424 41.4428 21.4364 39.5016V33.7952H16.461C16.1936 33.7951 15.9377 33.6863 15.7521 33.4938C15.6577 33.3988 15.5827 33.2863 15.5313 33.1625C15.4819 33.0371 15.4572 32.9032 15.4584 32.7684V27.4827C15.4584 27.348 15.4842 27.2145 15.5346 27.0896C15.586 26.9659 15.661 26.8534 15.7555 26.7584C15.85 26.6633 15.9626 26.5882 16.0867 26.5375C16.2079 26.4861 16.3382 26.4595 16.4699 26.4591H21.4353V20.7904C21.4175 18.8457 22.9744 17.2523 24.9189 17.225H27.9355V10.9732C27.9354 10.8385 27.9613 10.705 28.0117 10.5801C28.0631 10.4564 28.1381 10.3439 28.2325 10.2489C28.4197 10.0593 28.6719 9.94793 28.9381 9.9375H56.1415H56.1426ZM56.1424 19.2821H24.9188C24.5221 19.2838 24.1427 19.4445 23.8654 19.7282C23.5881 20.0119 23.4362 20.3949 23.4436 20.7915V26.457H28.4123C28.544 26.4576 28.6742 26.4843 28.7955 26.5354C28.9194 26.5863 29.032 26.6614 29.1267 26.7562C29.2212 26.8512 29.2962 26.9637 29.3476 27.0874C29.398 27.2124 29.4238 27.3458 29.4238 27.4805V32.7662C29.4238 32.9009 29.398 33.0343 29.3476 33.1592C29.2962 33.283 29.2212 33.3955 29.1267 33.4905C29.0322 33.5855 28.9196 33.6606 28.7955 33.7113C28.6743 33.7628 28.544 33.7894 28.4123 33.7897H23.4436V39.4961C23.435 40.3203 24.0956 40.9958 24.9199 41.0055H56.1424C56.9666 40.9958 57.6272 40.3203 57.6187 39.4961V20.7904C57.6231 20.3944 57.47 20.013 57.1931 19.7299C56.9163 19.4468 56.5383 19.2853 56.1424 19.281V19.2821ZM55.2195 29.4779C55.0984 29.426 54.9681 29.399 54.8363 29.3984L54.8474 29.4028C54.713 29.403 54.58 29.4304 54.4565 29.4834C54.3318 29.537 54.2191 29.6151 54.1252 29.7131C54.0296 29.8114 53.9545 29.9277 53.9044 30.0554C53.8555 30.1836 53.8323 30.3202 53.8359 30.4573C53.8435 31.1462 53.8543 31.7849 53.8643 32.3713V32.3714V32.3714V32.3715C53.9023 34.6149 53.9273 36.0941 53.7068 36.7025C53.5665 37.0823 53.5014 37.1651 53.0752 37.3032C52.2531 37.4779 51.4069 37.5089 50.5742 37.3948C50.4418 37.3817 50.3081 37.3956 50.1812 37.4357C50.0531 37.47 49.9345 37.5331 49.8344 37.6201C49.7314 37.7072 49.6469 37.8143 49.586 37.9347C49.4618 38.1793 49.4388 38.4629 49.522 38.7242C49.5627 38.8532 49.6283 38.9728 49.7152 39.0764C49.8015 39.1791 49.9074 39.2635 50.0266 39.3249C50.1448 39.3869 50.2744 39.4245 50.4075 39.4353C51.5003 39.5902 52.6129 39.5275 53.6814 39.2509C54.5631 38.9569 55.2637 38.2787 55.586 37.4069C56.0367 36.1687 55.9816 34.7293 55.9064 32.7641C55.8793 32.0569 55.8497 31.2816 55.84 30.4231C55.8404 30.2885 55.8149 30.155 55.7649 30.03C55.7136 29.9063 55.6385 29.7938 55.5441 29.6988C55.4514 29.6046 55.3411 29.5296 55.2195 29.4779ZM27.4097 28.5151H27.4031V28.5096L27.4097 28.5151ZM27.4031 28.5151V31.7481H17.4656V28.5151H27.4031ZM29.9429 11.989H56.1425C56.5385 11.9934 56.9164 12.1549 57.1933 12.438C57.4701 12.721 57.6232 13.1025 57.6188 13.4984V17.5651C57.1588 17.3414 56.654 17.2251 56.1425 17.225H29.9429V11.989Z" fill="black"/>
</svg>
