<svg width="60" height="54" xmlns="http://www.w3.org/2000/svg"><g fill="none" fill-rule="evenodd"><circle fill="#FFDC68" opacity=".5" cx="24" cy="30" r="24"/><g fill="#000" fill-rule="nonzero"><path d="M48.788 11.39a29.214 29.214 0 01-.575-.198V8.327c.509.11.812.352.838.373a.643.643 0 00.838-.974c-.037-.032-.66-.56-1.676-.703v-.215a.643.643 0 10-1.285 0v.262c-.097.02-.195.043-.295.071a2.57 2.57 0 00-1.835 2.03c-.158.869.143 1.703.786 2.178.34.251.764.482 1.344.725v3.644c-.522-.033-.877-.15-1.463-.511a.643.643 0 10-.674 1.094c.833.514 1.401.665 2.137.704v.286a.643.643 0 101.285 0v-.336c1.438-.274 2.345-1.418 2.525-2.547.217-1.367-.548-2.552-1.95-3.018zm-1.86-.73a4.058 4.058 0 01-.58-.346c-.294-.216-.34-.613-.285-.912.068-.376.332-.83.865-1.006v2.265zm2.54 3.547a1.813 1.813 0 01-1.255 1.423v-3.078c.056.02.111.038.169.057.797.266 1.203.863 1.086 1.598z"/><path d="M38.98 20.948a12.217 12.217 0 008.59 3.524h.052c6.762-.028 12.213-5.524 12.185-12.287C59.778 5.523 54.387 0 47.572 0h-.053a12.263 12.263 0 00-9.59 4.704 6.032 6.032 0 00-3.23-.911l-5.612.024c-1.27.005-2.4.815-2.814 2.015a.214.214 0 01-.203.14 3.006 3.006 0 00-2.995 3.02l.02 4.59a1.928 1.928 0 00-.69 1.49l.006 1.432c.002.516.205 1.001.572 1.365.34.337.782.533 1.256.558.217 2.016 1.195 3.891 3.097 5.243l.011 2.703a.51.51 0 01-.442.506c-1.881.253-5.319.802-7.202 1.65a6.251 6.251 0 00-3.681 5.721l.005 1.168c.001.355.289.64.642.64h.003a.643.643 0 00.64-.645l-.005-1.168a4.965 4.965 0 012.923-4.543c1.043-.47 2.684-.849 4.165-1.123-.087.616.141 1.228.627 1.642l2.9 2.468a1.826 1.826 0 001.67.37l.606.843-1.155 8.812h-6.676l-.014-3.517a.643.643 0 00-.643-.64h-.003a.643.643 0 00-.64.645l.015 3.512H19.42a2.087 2.087 0 01-2.087-2.078l-.01-2.206a.643.643 0 00-.642-.64h-.003a.643.643 0 00-.64.645l.01 2.206A3.371 3.371 0 0019.419 44h25.319c1.829-.008 3.367-1.608 3.36-3.494l-.028-6.39a6.251 6.251 0 00-3.729-5.69c-1.89-.833-5.333-1.353-7.216-1.59a.51.51 0 01-.446-.502l-.012-2.704c.95-.687 1.73-1.508 2.313-2.682zm8.544-19.662h.048c5.965 0 10.923 4.807 10.95 10.904a10.945 10.945 0 01-10.905 10.997h-.047a10.937 10.937 0 01-8.085-3.567c.112-.408.193-.829.235-1.258.141-.009.278-.034.412-.072a9.625 9.625 0 007.439 3.538h.04a9.597 9.597 0 009.425-8.034.643.643 0 10-1.269-.207 8.31 8.31 0 01-8.162 6.955h-.034a8.336 8.336 0 01-6.39-3.001 1.92 1.92 0 00.35-1.118l-.005-1.432a1.928 1.928 0 00-.703-1.483l-.015-3.657a6.092 6.092 0 00-.327-1.945 8.33 8.33 0 017.054-3.976h.036a8.284 8.284 0 018.178 6.846.643.643 0 001.265-.224 9.563 9.563 0 00-9.484-7.907 9.62 9.62 0 00-7.698 3.926 6.132 6.132 0 00-.824-1.014l-.066-.062a10.976 10.976 0 018.582-4.21zM26.075 7.257A1.5 1.5 0 0027.49 6.25a1.705 1.705 0 011.603-1.148l5.612-.023h.02c1.274 0 2.473.493 3.379 1.39a4.79 4.79 0 011.42 3.388l.014 3.415c-.43.081-.993.266-1.47.68a2.722 2.722 0 01-.416-.019l-.012-2.81a2.684 2.684 0 00-2.68-2.67H34.922a3.932 3.932 0 00-1.182.188 5.996 5.996 0 01-3.606.015 3.959 3.959 0 00-1.184-.177h-.024a2.68 2.68 0 00-2.67 2.692l.011 2.506c-.61-.255-1.352-.35-1.89-.383l-.017-4.308a1.721 1.721 0 011.714-1.729zm3.353 24.479a.543.543 0 01-.673-.026l-2.9-2.468a.536.536 0 01-.17-.564.538.538 0 01.435-.388c.269-.04.515-.076.728-.106l4.031 2.498-1.45 1.054zm-.804-7.312a8.003 8.003 0 003.377.752h.014a8.003 8.003 0 003.37-.781l.009 1.944c.001.435.161.836.425 1.149l-3.791 2.393-3.812-2.361c.262-.315.418-.718.416-1.152l-.008-1.944zm3.41 7.008l1.342.957-.49.694-1.69.007-.495-.69 1.333-.968zM30.34 42.714l1.092-8.34 1.23-.005 1.164 8.345H30.34zm9.31-14.2c1.482.262 3.127.628 4.174 1.088a4.964 4.964 0 012.96 4.519l.028 6.39c.005 1.146-.92 2.199-2.076 2.204h-1.654l-.015-3.605a.643.643 0 00-.643-.64h-.003a.643.643 0 00-.64.645l.016 3.6h-6.673l-1.232-8.828.598-.848a1.826 1.826 0 001.667-.385l2.879-2.492a1.807 1.807 0 00.613-1.647zm-2.457-.373c.213.028.46.06.73.1a.537.537 0 01.437.383.537.537 0 01-.166.566l-2.878 2.492a.543.543 0 01-.673.032l-1.46-1.042 4.01-2.531zm-5.19-4.25c-3.305-.027-6.426-2.437-6.52-6.122a.643.643 0 00-.643-.626h-.003l-.489.002h-.003a.645.645 0 01-.649-.647l-.006-1.431c0-.199.089-.381.238-.504.74.012 1.82.158 2.141.472a.875.875 0 001.488-.628l-.013-3.242a1.394 1.394 0 011.39-1.4h.023c.274 0 .538.038.797.119a7.286 7.286 0 004.379-.019c.258-.082.526-.125.796-.126h.03c.767 0 1.392.622 1.395 1.39l.014 3.24c0 .146.052.506.517.698.224.093 1.498.375 1.962-.086.358-.356.894-.452 1.16-.478.145.121.233.3.233.494l.006 1.432a.645.645 0 01-.647.652l-.488.002a.643.643 0 00-.64.631c-.063 3.676-3.155 6.122-6.468 6.177z"/></g></g></svg>