<?xml version="1.0" encoding="UTF-8"?>
<svg width="29px" height="29px" viewBox="0 0 29 29" version="1.1" xmlns="http://www.w3.org/2000/svg" xmlns:xlink="http://www.w3.org/1999/xlink">
    <title>26FA1F95-E306-4764-AB20-487595639531</title>
    <g id="WIP" stroke="none" stroke-width="1" fill="none" fill-rule="evenodd">
        <g id="1-eng" transform="translate(-115.000000, -483.000000)">
            <g id="Group-29" transform="translate(60.000000, 66.000000)">
                <g id="Group-28" transform="translate(42.000000, 28.000000)">
                    <g id="Group-17" transform="translate(1.000000, 371.000000)">
                        <g id="Group-2" transform="translate(12.000000, 18.000000)">
                            <rect id="Rectangle" stroke="#A45C0A" fill="#FFFFFF" x="0.5" y="0.5" width="28" height="28" rx="4"></rect>
                            <g id="quickreply-24px" opacity="0.200000003" transform="translate(7.000000, 9.000000)" fill="#CF8129" fill-rule="nonzero">
                                <g id="Group">
                                    <path d="M8.52727273,7.27272727 L6,7.27272727 L8.54545455,1.27272727 C8.8,0.672727273 8.36363636,0 7.70909091,0 L0.909090909,0 C0.4,0 0,0.4 0,0.909090909 L0,10 C0,10.5090909 0.4,10.9090909 0.909090909,10.9090909 L3.63636364,10.9090909 L3.63636364,18.0727273 C3.63636364,18.5454545 4.29090909,18.7090909 4.49090909,18.2727273 L9.32727273,8.58181818 C9.63636364,7.98181818 9.2,7.27272727 8.52727273,7.27272727 Z" id="Path"></path>
                                </g>
                            </g>
                            <g id="quickreply-24px" transform="translate(12.000000, 6.000000)" fill="#CF8129" fill-rule="nonzero">
                                <g id="Group">
                                    <path d="M8.52727273,7.27272727 L6,7.27272727 L8.54545455,1.27272727 C8.8,0.672727273 8.36363636,0 7.70909091,0 L0.909090909,0 C0.4,0 0,0.4 0,0.909090909 L0,10 C0,10.5090909 0.4,10.9090909 0.909090909,10.9090909 L3.63636364,10.9090909 L3.63636364,18.0727273 C3.63636364,18.5454545 4.29090909,18.7090909 4.49090909,18.2727273 L9.32727273,8.58181818 C9.63636364,7.98181818 9.2,7.27272727 8.52727273,7.27272727 Z" id="Path"></path>
                                </g>
                            </g>
                        </g>
                    </g>
                </g>
            </g>
        </g>
    </g>
</svg>