<svg xmlns="http://www.w3.org/2000/svg" xmlns:xlink="http://www.w3.org/1999/xlink" width="28" height="23" xmlns:v="https://vecta.io/nano"><defs><path id="A" d="M0 0h30v30H0z"/></defs><g transform="translate(-1 -4)" fill="none" fill-rule="evenodd"><mask id="B" fill="#fff"><use xlink:href="#A"/></mask><g mask="url(#B)"><circle fill="#c2f4ea" cx="12.5" cy="15.5" r="11.5"/><g fill="#000" fill-rule="nonzero" stroke="#000"><path d="M11.396 24c-.22 0-.396-.15-.396-.333V8.333c0-.184.177-.333.396-.333s.396.15.396.333v15.333c0 .184-.177.333-.396.333zm10.846-8.5h-6.73a1.98 1.98 0 0 1-1.979-1.979v-3.167a1.98 1.98 0 0 1 1.979-1.979h6.73a1.98 1.98 0 0 1 1.979 1.979v3.167a1.98 1.98 0 0 1-1.979 1.979zm-6.73-6.333a1.19 1.19 0 0 0-1.187 1.188v3.167a1.19 1.19 0 0 0 1.188 1.188h6.73a1.19 1.19 0 0 0 1.188-1.187v-3.167a1.19 1.19 0 0 0-1.187-1.187h-6.73zM26.83 23.813h-11.6c-.94 0-1.705-.888-1.705-1.98v-3.167c0-1.1.765-1.98 1.705-1.98h11.6c.94 0 1.705.888 1.705 1.98v3.167c0 1.1-.765 1.98-1.705 1.98zm-11.6-6.333c-.564 0-1.023.533-1.023 1.188v3.167c0 .655.46 1.188 1.023 1.188h11.6c.564 0 1.023-.533 1.023-1.187V18.67c0-.655-.46-1.188-1.023-1.188h-11.6z" stroke-width=".4"/></g></g></g></svg>