<svg xmlns="http://www.w3.org/2000/svg" width="39" height="32" fill="none" fill-rule="evenodd" xmlns:v="https://vecta.io/nano"><circle cx="16" cy="16" r="16" fill="#ffdc68" opacity=".5"/><g fill-rule="nonzero"><path d="M19.225 8.298a.9.9 0 0 1 1.35-1.188l1.476 1.692 3.5-3.537c.228-.228.56-.317.873-.234s.555.327.64.64a.9.9 0 0 1-.234.873l-4.185 4.212a1.19 1.19 0 0 1-.18.108.28.28 0 0 1-.1.054.83.83 0 0 1-.324.063.9.9 0 0 1-.36-.036l-.108-.072c-.065-.03-.126-.07-.18-.117h0L19.206 8.3z" fill="#262626"/><path d="M28 10.404h6.3a.9.9 0 1 0 0-1.8H28a.9.9 0 1 0 0 1.8zm6.3 3.6H19.9a.9.9 0 1 0 0 1.8h14.4a.9.9 0 1 0 0-1.8zm0 5.4H19.9a.9.9 0 1 0 0 1.8h14.4a.9.9 0 1 0 0-1.8z" fill="#000"/></g></svg>