<svg width="40" height="40" viewBox="0 0 40 40" fill="none" xmlns="http://www.w3.org/2000/svg">
<circle cx="20" cy="20" r="16" fill="#F5CFCD"/>
<path d="M38.2833 17.3622C37.852 17.0426 37.4844 16.645 37.1995 16.19C37.0671 15.6421 37.0398 15.0741 37.1193 14.516C37.183 13.4705 37.2557 12.2855 36.4847 11.516C35.7137 10.7465 34.531 10.817 33.4847 10.8822C32.9264 10.9615 32.3581 10.934 31.81 10.8012C31.355 10.5164 30.9574 10.1488 30.6378 9.7175C29.9335 8.91275 29.1355 8 28 8C26.8645 8 26.0665 8.91275 25.3622 9.71675C25.0426 10.148 24.645 10.5156 24.19 10.8005C23.6419 10.9333 23.0735 10.9605 22.5153 10.8808C21.472 10.8163 20.2862 10.7442 19.5152 11.5152C18.7442 12.2862 18.817 13.4698 18.8815 14.5153C18.9611 15.0736 18.9336 15.642 18.8005 16.19C18.5156 16.645 18.148 17.0426 17.7168 17.3622C16.9128 18.0665 16 18.8645 16 20C16 21.1355 16.9128 21.9335 17.7168 22.6378C18.148 22.9574 18.5156 23.355 18.8005 23.81C18.933 24.3581 18.9602 24.9265 18.8808 25.4847C18.817 26.5295 18.7442 27.7145 19.5152 28.4847C20.2862 29.255 21.4653 29.1838 22.5153 29.1185C23.0736 29.0389 23.642 29.0664 24.19 29.1995C24.645 29.4844 25.0426 29.852 25.3622 30.2833C26.0665 31.0873 26.8645 32 28 32C29.1355 32 29.9335 31.0873 30.6378 30.2833C30.9574 29.852 31.355 29.4844 31.81 29.1995C32.3578 29.0666 32.926 29.0394 33.484 29.1193C34.528 29.1838 35.7138 29.2565 36.484 28.4847C37.2543 27.713 37.1822 26.5302 37.1177 25.4847C37.0381 24.9264 37.0656 24.358 37.1987 23.81C37.4836 23.355 37.8512 22.9574 38.2825 22.6378C39.0872 21.9335 40 21.1355 40 20C40 18.8645 39.0873 18.0665 38.2833 17.3622ZM37.2955 21.509C36.6788 21.966 36.1723 22.5554 35.8135 23.234C35.5766 23.9906 35.5111 24.7904 35.6215 25.5755C35.6665 26.3038 35.7175 27.1302 35.4243 27.4227C35.131 27.7152 34.3045 27.6642 33.5762 27.6207C32.7915 27.5105 31.992 27.5758 31.2355 27.812C30.5569 28.1708 29.9675 28.6773 29.5105 29.294C28.99 29.888 28.4545 30.5 28 30.5C27.5455 30.5 27.01 29.888 26.491 29.2955C26.034 28.6788 25.4446 28.1723 24.766 27.8135C24.3137 27.6446 23.8325 27.5664 23.35 27.5833C23.0425 27.5833 22.7305 27.6028 22.4215 27.6215C21.691 27.6665 20.866 27.7175 20.5742 27.4243C20.2825 27.131 20.3313 26.3052 20.3763 25.5762C20.4869 24.7915 20.4216 23.9919 20.185 23.2355C19.8262 22.5569 19.3197 21.9675 18.703 21.5105C18.112 20.99 17.5 20.4545 17.5 20C17.5 19.5455 18.112 19.01 18.7045 18.491C19.3212 18.034 19.8277 17.4446 20.1865 16.766C20.4234 16.0094 20.4889 15.2096 20.3785 14.4245C20.3335 13.6947 20.2825 12.8682 20.575 12.575C20.8675 12.2817 21.694 12.3335 22.423 12.377C23.2077 12.4888 24.0076 12.4235 24.7638 12.1857C25.4423 11.8269 26.0318 11.3205 26.4887 10.7038C27.01 10.112 27.5455 9.5 28 9.5C28.4545 9.5 28.99 10.112 29.509 10.7045C29.966 11.3212 30.5554 11.8277 31.234 12.1865C31.9906 12.4234 32.7904 12.489 33.5755 12.3785C34.3045 12.3327 35.1302 12.2817 35.4227 12.5757C35.7152 12.8697 35.6657 13.6947 35.6207 14.4237C35.5101 15.2085 35.5754 16.0081 35.812 16.7645C36.1708 17.4431 36.6773 18.0325 37.294 18.4895C37.888 19.01 38.5 19.5455 38.5 20C38.5 20.4545 37.888 20.99 37.2955 21.509Z" fill="black"/>
<path d="M22.9247 21.539L22.2452 21.8562L21.925 21.176L22.6052 20.8595C22.7855 20.7753 22.925 20.623 22.9931 20.436C23.0611 20.249 23.052 20.0427 22.9679 19.8624C22.8837 19.682 22.7314 19.5425 22.5444 19.4745C22.3574 19.4065 22.151 19.4156 21.9707 19.4997L20.611 20.1342C20.4308 20.2184 20.2914 20.3707 20.2235 20.5576C20.1555 20.7445 20.1646 20.9508 20.2487 21.131L21.2005 23.1717L22.1507 25.2087C22.2302 25.371 22.3646 25.4998 22.53 25.5723C22.6955 25.6448 22.8813 25.6563 23.0545 25.6047C23.1561 25.5728 23.2498 25.5195 23.3293 25.4485C23.4087 25.3775 23.4721 25.2904 23.5153 25.1929C23.5584 25.0955 23.5803 24.99 23.5795 24.8834C23.5787 24.7769 23.5551 24.6717 23.5105 24.575L22.876 23.2152L23.5562 22.898C23.7334 22.8119 23.8696 22.6597 23.9354 22.4741C24.0012 22.2885 23.9914 22.0845 23.9081 21.9061C23.8248 21.7276 23.6747 21.5891 23.4901 21.5204C23.3056 21.4518 23.1014 21.4584 22.9217 21.539H22.9247ZM28.6607 21.7152L27.3145 20.9C27.5667 20.5672 27.7003 20.1595 27.6938 19.7419C27.6873 19.3244 27.5412 18.921 27.2787 18.5962C27.0162 18.2714 26.6525 18.0439 26.2456 17.9499C25.8387 17.8559 25.4121 17.9009 25.0337 18.0777L24.013 18.5525C23.9236 18.5941 23.8433 18.6529 23.7767 18.7256C23.71 18.7982 23.6584 18.8833 23.6247 18.976C23.5909 19.0686 23.5758 19.167 23.5802 19.2655C23.5845 19.364 23.6082 19.4607 23.65 19.55L25.552 23.6277C25.6328 23.7932 25.7706 23.9239 25.9401 23.9958C26.1096 24.0677 26.2993 24.076 26.4745 24.0192C26.5734 23.9844 26.664 23.9294 26.7406 23.8576C26.8171 23.7859 26.8779 23.699 26.919 23.6025C26.9601 23.506 26.9807 23.402 26.9795 23.2971C26.9782 23.1922 26.9551 23.0887 26.9117 22.9932L26.5322 22.175L27.8815 23C27.9984 23.0715 28.1329 23.1094 28.27 23.1095C28.4322 23.1059 28.5889 23.0503 28.7171 22.9508C28.8453 22.8514 28.9382 22.7134 28.9819 22.5571C29.0257 22.4009 29.0181 22.2347 28.9603 22.0832C28.9025 21.9316 28.7974 21.8026 28.6607 21.7152V21.7152ZM25.9532 19.4217C26.0225 19.4473 26.0827 19.4927 26.1263 19.5523C26.1698 19.612 26.1948 19.6831 26.1981 19.7569C26.2014 19.8307 26.1828 19.9037 26.1447 19.967C26.1066 20.0303 26.0507 20.0809 25.984 20.1125L25.6435 20.2715L25.327 19.592L25.6682 19.433C25.7126 19.4123 25.7607 19.4006 25.8096 19.3987C25.8585 19.3968 25.9074 19.4046 25.9532 19.4217ZM31.3532 20.0915L30.673 20.4087L30.3557 19.7285L31.036 19.412C31.2166 19.3276 31.3563 19.175 31.4244 18.9877C31.4925 18.8003 31.4833 18.5936 31.399 18.413C31.3146 18.2324 31.162 18.0927 30.9747 18.0246C30.7873 17.9565 30.5806 17.9656 30.4 18.05L29.7205 18.3672L29.404 17.687L30.0835 17.3705C30.2586 17.2833 30.3927 17.1312 30.4572 16.9465C30.5217 16.7619 30.5116 16.5594 30.4289 16.3821C30.3462 16.2049 30.1976 16.0669 30.0147 15.9977C29.8318 15.9284 29.629 15.9334 29.4497 16.0115L28.09 16.6445C27.9098 16.7286 27.7704 16.8809 27.7025 17.0678C27.6345 17.2548 27.6436 17.461 27.7277 17.6412L29.6305 21.725C29.7146 21.9052 29.8669 22.0446 30.0538 22.1125C30.2408 22.1804 30.447 22.1713 30.6272 22.0872L31.987 21.4535C32.1676 21.3694 32.3074 21.2171 32.3757 21.03C32.444 20.8428 32.4351 20.6362 32.3511 20.4556C32.2671 20.275 32.1147 20.1352 31.9276 20.0669C31.7404 19.9986 31.5338 20.0074 31.3532 20.0915V20.0915ZM34.75 18.5067L34.0705 18.824L33.7532 18.1437L34.4335 17.8272C34.5228 17.7856 34.603 17.7267 34.6695 17.6541C34.736 17.5814 34.7876 17.4964 34.8213 17.4038C34.855 17.3112 34.8701 17.2129 34.8658 17.1144C34.8614 17.016 34.8378 16.9194 34.7961 16.8301C34.7544 16.7408 34.6956 16.6606 34.6229 16.5941C34.5503 16.5275 34.4652 16.4759 34.3726 16.4423C34.2801 16.4086 34.1817 16.3935 34.0833 16.3978C33.9849 16.4021 33.8883 16.4258 33.799 16.4675L33.1195 16.7847L32.8022 16.1045L33.4825 15.788C33.6628 15.7038 33.8023 15.5515 33.8703 15.3645C33.9383 15.1775 33.9292 14.9712 33.8451 14.7909C33.761 14.6105 33.6086 14.471 33.4216 14.403C33.2346 14.335 33.0283 14.3441 32.848 14.4282L31.4882 15.062C31.308 15.1461 31.1686 15.2984 31.1007 15.4853C31.0328 15.6723 31.0419 15.8785 31.126 16.0587L32.0785 18.1017L33.028 20.138C33.1121 20.3182 33.2644 20.4576 33.4513 20.5255C33.6383 20.5934 33.8445 20.5843 34.0247 20.5002L35.3845 19.8657C35.5616 19.7797 35.6978 19.6274 35.7636 19.4419C35.8295 19.2563 35.8197 19.0522 35.7364 18.8738C35.6531 18.6954 35.5029 18.5569 35.3184 18.4882C35.1338 18.4195 34.9297 18.4262 34.75 18.5067Z" fill="black"/>
</svg>
