<?xml version="1.0" encoding="UTF-8"?>
<svg width="33px" height="30px" viewBox="0 0 33 30" version="1.1" xmlns="http://www.w3.org/2000/svg" xmlns:xlink="http://www.w3.org/1999/xlink">
    <title>1BD852F3-14FE-4F0E-B4C2-1A3040C84E58</title>
    <g id="Page-1" stroke="none" stroke-width="1" fill="none" fill-rule="evenodd">
        <g id="Inline-offer-components" transform="translate(-390.000000, -378.000000)" fill="#FFFFFF" fill-rule="nonzero">
            <g id="Group" transform="translate(390.000000, 378.000000)">
                <path d="M25.087872,11.0112 L22.314624,11.0112 C22.583424,10.835328 22.803456,10.653312 22.946688,10.468224 C23.937408,9.187968 23.702784,7.347072 22.422528,6.356352 C21.888768,5.943168 21.257088,5.743104 20.630784,5.743104 C19.75488,5.743104 18.888192,6.134016 18.310656,6.880512 C18.015744,7.26144 17.814144,7.947264 17.67552,8.721792 C17.536896,7.947264 17.335296,7.261056 17.040384,6.880512 C16.462848,6.134016 15.59616,5.743104 14.720256,5.743104 C14.093568,5.743104 13.462272,5.943168 12.928512,6.356352 C11.648256,7.347072 11.413632,9.187968 12.404352,10.468224 C12.547584,10.653312 12.767616,10.835328 13.036416,11.0112 L10.43136,11.0112 C8.843904,11.0112 7.552512,12.302592 7.552512,13.890432 L7.552512,26.452608 C7.552512,28.03968 8.843904,29.331456 10.43136,29.331456 L25.087104,29.331456 C26.67456,29.331456 27.9659523,28.040064 27.9659523,26.452608 L27.9659523,13.890432 C27.96672,12.302976 26.675328,11.0112 25.087872,11.0112 Z M19.552512,7.841664 C19.812096,7.506048 20.205312,7.313664 20.630784,7.313664 C20.841984,7.313664 21.157248,7.3632 21.461376,7.598592 C21.748992,7.820928 21.932544,8.141952 21.97824,8.502528 C22.02432,8.863104 21.927168,9.21984 21.708672,9.50208 C21.441792,9.810048 20.337024,10.310784 19.012992,10.760832 C19.116288,9.368064 19.323264,8.174976 19.552512,7.841664 Z M13.3728,8.502528 C13.41888,8.141952 13.602432,7.820928 13.889664,7.598592 C14.193792,7.3632 14.50944,7.313664 14.72064,7.313664 C15.146112,7.313664 15.538944,7.506048 15.794688,7.836288 C16.025856,8.171904 16.233216,9.366912 16.33728,10.7616 C15.014784,10.31232 13.911552,9.812736 13.646592,9.507456 C13.424256,9.21984 13.327104,8.863104 13.3728,8.502528 Z M9.12384,13.890432 C9.12384,13.168896 9.710592,12.58176 10.432128,12.58176 L25.087872,12.58176 C25.809408,12.58176 26.396544,13.168896 26.396544,13.890432 L26.396544,15.896448 L9.12384,15.896448 L9.12384,13.890432 Z M9.12384,26.452224 L9.12384,17.466624 L16.975104,17.466624 L16.975104,27.7605122 L10.432128,27.7605122 C9.710592,27.760896 9.12384,27.17376 9.12384,26.452224 Z M26.396544,26.452224 C26.396544,27.17376 25.809408,27.760512 25.087872,27.760512 L18.54528,27.760512 L18.54528,17.466624 L26.396544,17.466624 L26.396544,26.452224 Z" id="Shape"></path>
                <path d="M32.4915,6.012 L31.5183,5.7648 C31.1247,5.6652 30.7215,5.262 30.6207,4.8684 L30.3747,3.8952 C30.2763,3.5016 30.1119,3.5016 30.0123,3.8952 L29.7651,4.8696 C29.6655,5.2632 29.2611,5.6676 28.8687,5.766 L27.8943,6.0132 C27.5019,6.1128 27.5019,6.276 27.8943,6.3756 L28.8687,6.6228 C29.2611,6.7224 29.6655,7.1256 29.7651,7.5192 L30.0123,8.4924 C30.1119,8.886 30.2763,8.886 30.3747,8.4924 L30.6207,7.5192 C30.7215,7.1256 31.1247,6.7224 31.5183,6.6228 L32.4915,6.3756 C32.8851,6.2748 32.8851,6.1128 32.4915,6.012 Z" id="Path"></path>
                <path d="M4.8915,15.612 L3.9183,15.3648 C3.5247,15.2652 3.1215,14.862 3.0207,14.4684 L2.7747,13.4952 C2.6763,13.1016 2.5119,13.1016 2.4123,13.4952 L2.1651,14.4696 C2.0655,14.8632 1.6611,15.2676 1.2687,15.366 L0.2943,15.6132 C-0.0981,15.7128 -0.0981,15.876 0.2943,15.9756 L1.2687,16.2228 C1.6611,16.3224 2.0655,16.7256 2.1651,17.1192 L2.4123,18.0924 C2.5119,18.486 2.6763,18.486 2.7747,18.0924 L3.0207,17.1192 C3.1215,16.7256 3.5247,16.3224 3.9183,16.2228 L4.8915,15.9756 C5.2851,15.8748 5.2851,15.7128 4.8915,15.612 Z" id="Path-Copy"></path>
                <path d="M26.1951067,1.67383761 L25.5196252,1.50229008 C25.2464341,1.43317141 24.9665799,1.15336572 24.8966163,0.880222068 L24.7258719,0.204857738 C24.6575742,-0.0682859126 24.5434669,-0.0682859126 24.4743363,0.204857738 L24.302759,0.881054823 C24.2336283,1.15419847 23.9529412,1.43483692 23.680583,1.50312283 L23.0042686,1.67467037 C22.7319105,1.74378904 22.7319105,1.85704372 23.0042686,1.92616239 L23.680583,2.09770992 C23.9529412,2.16682859 24.2336283,2.44663428 24.302759,2.71977793 L24.4743363,3.39514226 C24.5434669,3.66828591 24.6575742,3.66828591 24.7258719,3.39514226 L24.8966163,2.71977793 C24.9665799,2.44663428 25.2464341,2.16682859 25.5196252,2.09770992 L26.1951067,1.92616239 C26.4682978,1.85621096 26.4682978,1.74378904 26.1951067,1.67383761 Z" id="Path-Copy-2"></path>
                <path d="M8.19510672,7.67383761 L7.5196252,7.50229008 C7.24643415,7.43317141 6.96657991,7.15336572 6.89661635,6.88022207 L6.72587194,6.20485774 C6.65757418,5.93171409 6.54346694,5.93171409 6.47433628,6.20485774 L6.30275898,6.88105482 C6.23362832,7.15419847 5.95294118,7.43483692 5.68058303,7.50312283 L5.00426861,7.67467037 C4.73191046,7.74378904 4.73191046,7.85704372 5.00426861,7.92616239 L5.68058303,8.09770992 C5.95294118,8.16682859 6.23362832,8.44663428 6.30275898,8.71977793 L6.47433628,9.39514226 C6.54346694,9.66828591 6.65757418,9.66828591 6.72587194,9.39514226 L6.89661635,8.71977793 C6.96657991,8.44663428 7.24643415,8.16682859 7.5196252,8.09770992 L8.19510672,7.92616239 C8.46829776,7.85621096 8.46829776,7.74378904 8.19510672,7.67383761 Z" id="Path-Copy-3"></path>
            </g>
        </g>
    </g>
</svg>