<svg width="43" height="32" viewBox="0 0 43 32" fill="none" xmlns="http://www.w3.org/2000/svg">
<g id="Group 84">
<circle id="Oval Copy 18" opacity="0.5" cx="16" cy="16" r="16" fill="#D6CFF0"/>
<path id="user-friends" d="M35.5 13C34.2344 13 33.1562 12.5781 32.3125 11.6875C31.4219 10.8438 31 9.76562 31 8.5C31 7.28125 31.4219 6.20312 32.3125 5.3125C33.1562 4.46875 34.2344 4 35.5 4C36.7188 4 37.7969 4.46875 38.6875 5.3125C39.5312 6.20312 40 7.28125 40 8.5C40 9.76562 39.5312 10.8438 38.6875 11.6875C37.7969 12.5781 36.7188 13 35.5 13ZM35.5 6.25C34.8438 6.25 34.3281 6.48438 33.9062 6.90625C33.4375 7.375 33.25 7.89062 33.25 8.5C33.25 9.15625 33.4375 9.67188 33.9062 10.0938C34.3281 10.5625 34.8438 10.75 35.5 10.75C36.1094 10.75 36.625 10.5625 37.0938 10.0938C37.5156 9.67188 37.75 9.15625 37.75 8.5C37.75 7.89062 37.5156 7.375 37.0938 6.90625C36.625 6.48438 36.1094 6.25 35.5 6.25ZM25.75 13.9375C26.5938 13.9375 27.4375 14.125 28.1875 14.5C28.9375 14.875 29.5938 15.4375 30.0625 16.1406C30.6719 17.0781 31 18.0625 31 19.1406V21.25C31 21.9062 30.7656 22.4219 30.3438 22.8438C29.875 23.3125 29.3594 23.5 28.75 23.5H15.25C14.5938 23.5 14.0781 23.3125 13.6562 22.8438C13.1875 22.4219 13 21.9062 13 21.25V19.1406C13 18.0625 13.2812 17.0781 13.8906 16.1406C14.3594 15.4375 15.0156 14.875 15.7656 14.5C16.5156 14.125 17.3594 13.9375 18.25 13.9375C18.8125 13.9375 19.3281 14.0312 19.8906 14.1719C20.5469 14.4062 21.25 14.5 21.9531 14.5C22.6562 14.5 23.3594 14.4062 24.1094 14.1719C24.625 14.0312 25.1875 13.9375 25.75 13.9375ZM28.75 21.25V19.1406C28.75 18.4844 28.5625 17.9219 28.1875 17.3594C27.8125 16.7969 27.2969 16.4219 26.6875 16.1875C26.1719 16 25.6562 16 25.1875 16.1875C24.1562 16.5625 23.0781 16.75 22 16.75C20.875 16.75 19.8438 16.5625 18.8125 16.1875C18.2969 16 17.7812 16 17.3125 16.1875C16.7031 16.4219 16.1875 16.7969 15.8125 17.3594C15.4375 17.9219 15.25 18.4844 15.25 19.1406V21.25H28.75ZM22 13C21.0625 13 20.1719 12.7656 19.375 12.2969C18.5312 11.8281 17.9219 11.2188 17.4531 10.375C16.9844 9.57812 16.75 8.6875 16.75 7.75C16.75 6.8125 16.9844 5.96875 17.4531 5.125C17.9219 4.32812 18.5312 3.67188 19.375 3.20312C20.1719 2.73438 21.0625 2.5 22 2.5C22.9375 2.5 23.7812 2.73438 24.625 3.20312C25.4219 3.67188 26.0781 4.32812 26.5469 5.125C27.0156 5.96875 27.25 6.8125 27.25 7.75C27.25 8.6875 27.0156 9.57812 26.5469 10.375C26.0781 11.2188 25.4219 11.8281 24.625 12.2969C23.7812 12.7656 22.9375 13 22 13ZM22 4.75C21.1562 4.75 20.4531 5.07812 19.8906 5.64062C19.2812 6.25 19 6.95312 19 7.75C19 8.59375 19.2812 9.29688 19.8906 9.85938C20.4531 10.4688 21.1562 10.75 22 10.75C22.7969 10.75 23.5 10.4688 24.1094 9.85938C24.6719 9.29688 25 8.59375 25 7.75C25 6.95312 24.6719 6.25 24.1094 5.64062C23.5 5.07812 22.7969 4.75 22 4.75ZM42.25 15.8594C42.7188 16.6094 43 17.4531 43 18.3906V20.125C43 20.6875 42.8125 21.1094 42.4375 21.4844C42.0625 21.8594 41.6406 22 41.125 22H32.4062C32.4531 21.7656 32.5 21.5312 32.5 21.25V19.75H40.75V18.3438C40.75 17.9219 40.6094 17.5 40.375 17.125C40.1875 16.8438 39.9062 16.6562 39.625 16.5156C39.3438 16.375 39.0156 16.2812 38.6406 16.2812C38.4062 16.2812 38.0781 16.3281 37.6562 16.4219C36.9062 16.6562 36.1562 16.75 35.5 16.75C34.7969 16.75 34.0938 16.6562 33.3438 16.4219C32.875 16.3281 32.5938 16.2812 32.4062 16.2812C32.2188 16.2812 32.0312 16.3281 31.8906 16.3281C31.7031 15.9531 31.5156 15.625 31.3281 15.3438C31.1406 15.0625 30.8594 14.7344 30.5781 14.4062C31.1406 14.1719 31.75 14.0312 32.3594 14.0312C32.7812 14.0312 33.2969 14.125 33.8594 14.2656C34.4219 14.4531 34.9375 14.5 35.5 14.5C36.0156 14.5 36.5781 14.4531 37.1406 14.2656C37.7031 14.125 38.1719 14.0312 38.6406 14.0312C39.3438 14.0312 40 14.2188 40.6562 14.5C41.3125 14.8281 41.8281 15.2969 42.25 15.8594Z" fill="black"/>
</g>
</svg>
