<?xml version="1.0" encoding="UTF-8"?>
<svg width="16px" height="14px" viewBox="0 0 16 14" version="1.1" xmlns="http://www.w3.org/2000/svg" xmlns:xlink="http://www.w3.org/1999/xlink">
    <title>Path</title>
    <g id="Page-1" stroke="none" stroke-width="1" fill="none" fill-rule="evenodd">
        <g id="China-homepage" transform="translate(-726.000000, -1014.000000)" fill="#CB9B27" fill-rule="nonzero">
            <g id="Group-2" transform="translate(-30.000000, 0.000000)">
                <g id="2.We-are-editage-" transform="translate(0.000000, 751.000000)">
                    <g id="Group-14" transform="translate(228.000000, 252.000000)">
                        <g id="Group-45" transform="translate(417.000000, 0.000000)">
                            <g id="Group-42" transform="translate(53.000000, 2.000000)">
                                <g id="Group-44" transform="translate(0.724198, 0.536860)">
                                    <path d="M72.3532292,14.0176991 C72.2340087,13.7787611 71.9955678,13.659292 71.7571268,13.659292 L67.2267483,13.659292 L65.7961024,9.35840708 C65.6768819,8.88053097 64.8423385,8.88053097 64.6038976,9.35840708 L63.1732517,13.659292 L58.6428732,13.659292 C58.4044322,13.659292 58.1659913,13.7787611 58.0467708,14.0176991 C57.9275503,14.2566372 58.0467708,14.4955752 58.2852117,14.7345133 L61.9810468,17.3628319 L60.550401,21.6637168 C60.4311805,21.9026549 60.550401,22.1415929 60.788842,22.380531 C61.027283,22.5 61.2657239,22.5 61.5041649,22.380531 L65.2,19.7522124 L68.8958351,22.380531 C69.0150556,22.5 69.1342761,22.5 69.2534966,22.5 C69.372717,22.5 69.4919375,22.5 69.611158,22.380531 C69.849599,22.2610619 69.9688195,22.0221239 69.849599,21.6637168 L68.4189532,17.3628319 L72.1147883,14.7345133 C72.3532292,14.4955752 72.4724497,14.2566372 72.3532292,14.0176991 Z" id="Path"></path>
                                </g>
                            </g>
                        </g>
                    </g>
                </g>
            </g>
        </g>
    </g>
</svg>