<svg xmlns="http://www.w3.org/2000/svg" width="31.453" height="40" viewBox="0 0 31.453 40"><defs><style>.a{fill:#ffe07d;}.b{fill:#ffd064;}.c{fill:#e8ae4d;}.d{fill:#e5a32e;}</style></defs><g transform="translate(-54.702 -4)"><g transform="translate(54.701 4)"><g transform="translate(2.63 20.278)"><path class="a" d="M93.758,274.868l5.574-13.456-4.476-1.854-6.422,15.5a.836.836,0,0,0,1.017,1.119l3.641-1.117a.8.8,0,0,1,.319-.033Z" transform="translate(-88.368 -259.558)"/><path class="b" d="M158.607,282.027l-5.682,13.717a.835.835,0,0,1,.665.44l1.785,3.365a.836.836,0,0,0,1.511-.072l6.422-15.5Z" transform="translate(-147.882 -280.272)"/><path class="a" d="M231.011,281.364l-4.825,2,6.422,15.5a.836.836,0,0,0,1.511.072l1.785-3.365a.834.834,0,0,1,.216-.261l.437-.552Z" transform="translate(-215.419 -279.66)"/><path class="b" d="M291.746,275.061l-6.422-15.5-4.684,1.94,5.68,13.712a.835.835,0,0,1,.767-.147l3.641,1.117A.836.836,0,0,0,291.746,275.061Z" transform="translate(-265.619 -259.557)"/></g><g transform="translate(0 0)"><path class="c" d="M72.04.562a2.6,2.6,0,0,0,2.382.445A2.594,2.594,0,0,1,77.43,2.172a2.6,2.6,0,0,0,2.06,1.276,2.6,2.6,0,0,1,2.383,2.173,2.6,2.6,0,0,0,1.46,1.934,2.6,2.6,0,0,1,1.438,2.887,2.594,2.594,0,0,0,.663,2.331,2.6,2.6,0,0,1,.3,3.211,2.594,2.594,0,0,0-.224,2.413,2.6,2.6,0,0,1-.883,3.1,2.6,2.6,0,0,0-1.08,2.169A2.6,2.6,0,0,1,81.6,26.242a2.6,2.6,0,0,0-1.791,1.633,2.594,2.594,0,0,1-2.742,1.7,2.6,2.6,0,0,0-2.26.875,2.6,2.6,0,0,1-3.17.593,2.6,2.6,0,0,0-2.423,0,2.594,2.594,0,0,1-3.17-.593,2.6,2.6,0,0,0-2.26-.875,2.6,2.6,0,0,1-2.742-1.7,2.594,2.594,0,0,0-1.791-1.633,2.594,2.594,0,0,1-1.944-2.574A2.6,2.6,0,0,0,56.23,21.5a2.594,2.594,0,0,1-.883-3.1,2.594,2.594,0,0,0-.224-2.413,2.6,2.6,0,0,1,.3-3.211,2.6,2.6,0,0,0,.663-2.331,2.594,2.594,0,0,1,1.438-2.887,2.6,2.6,0,0,0,1.46-1.934,2.6,2.6,0,0,1,2.383-2.173,2.594,2.594,0,0,0,2.06-1.276,2.6,2.6,0,0,1,3.007-1.165A2.594,2.594,0,0,0,68.815.562a2.6,2.6,0,0,1,3.225,0Z" transform="translate(-54.701 0)"/><g transform="translate(4.28 4.224)"><path class="a" d="M128.014,66.106a12.04,12.04,0,0,0-8.156-11.4,11.447,11.447,0,0,0,0,22.792A12.04,12.04,0,0,0,128.014,66.106Z" transform="translate(-109.489 -54.66)"/><path class="b" d="M225.919,54.07a11.482,11.482,0,0,0-2.549.285,11.449,11.449,0,0,1,0,22.322,11.447,11.447,0,1,0,2.549-22.607Z" transform="translate(-214.473 -54.07)"/><path class="c" d="M162.171,109.624l3.951,2.659a.551.551,0,0,0,.477.074q.209-.285.4-.582a.6.6,0,0,0-.021-.116l-1.308-4.579a.565.565,0,0,1,.195-.6l3.017-2.362a12.01,12.01,0,0,0-.258-1.606l-4.1-.147a.565.565,0,0,1-.51-.371l-1.633-4.474a.565.565,0,0,0-1.061,0l-1.633,4.473a.565.565,0,0,1-.51.371l-4.759.171a.565.565,0,0,0-.328,1.009l3.75,2.935a.565.565,0,0,1,.195.6l-1.308,4.579a.565.565,0,0,0,.858.624l3.951-2.659A.565.565,0,0,1,162.171,109.624Z" transform="translate(-150.41 -93.785)"/><g transform="translate(15.482 8.701)"><path class="d" d="M307.888,273.695a.565.565,0,0,0,.858-.624l-.237-.83a11.468,11.468,0,0,1-.851,1.3Z" transform="translate(-307.658 -263.897)"/><path class="d" d="M334.422,165.49l-1.417-.051a11.44,11.44,0,0,1,.317,2.177l1.427-1.117A.565.565,0,0,0,334.422,165.49Z" transform="translate(-331.025 -165.439)"/></g></g></g></g></g></svg> 
