<?xml version="1.0" encoding="UTF-8"?>
<svg width="30px" height="30px" viewBox="0 0 30 30" version="1.1" xmlns="http://www.w3.org/2000/svg" xmlns:xlink="http://www.w3.org/1999/xlink">
    <title>Group 30</title>
    <g id="Page-1" stroke="none" stroke-width="1" fill="none" fill-rule="evenodd">
        <g id="Group-30" fill="#EABD20">
            <g id="noun_Celebration_2724312" fill-rule="nonzero">
                <path d="M19.6692,8.1952 L16.0532,13.3312 C15.9172,13.5252 15.7012,13.6292 15.4812,13.6292 C15.3412,13.6292 15.2012,13.5872 15.0792,13.5012 C14.7632,13.2792 14.6872,12.8412 14.9092,12.5252 L15.1132,12.2352 C14.9872,12.1232 14.8612,12.0112 14.7332,11.9032 C14.5212,11.7172 14.3072,11.5392 14.0952,11.3672 L14.1672,11.2772 C14.3872,10.8952 14.5632,10.4852 14.6972,10.0572 C14.7892,10.1292 14.8832,10.2052 14.9772,10.2812 C15.1652,10.4332 15.3552,10.5912 15.5432,10.7532 C15.6712,10.8612 15.7972,10.9712 15.9232,11.0832 L18.5232,7.3892 C18.7472,7.0732 19.1832,6.9972 19.4992,7.2192 C19.8152,7.4432 19.8912,7.8792 19.6692,8.1952 Z" id="Path"></path>
                <path d="M25.8812,18.9772 C25.7612,19.0572 25.6272,19.0952 25.4932,19.0952 C25.2672,19.0952 25.0452,18.9852 24.9112,18.7832 C24.2812,17.8392 23.3692,17.3032 22.2012,17.1872 C21.7872,17.1452 21.3872,17.1632 21.0252,17.2112 C20.5292,17.2792 20.1012,17.4092 19.7912,17.5352 C19.5312,17.6432 19.3532,17.7472 19.2872,17.8132 C19.0152,18.0852 18.5712,18.0852 18.2992,17.8132 C18.0252,17.5392 18.0252,17.0952 18.2992,16.8232 C18.4572,16.6652 18.6872,16.5092 18.9692,16.3672 C18.8212,16.1732 18.6652,15.9752 18.5032,15.7752 L18.5012,15.7752 C17.9032,15.0372 17.2332,14.2932 16.5052,13.5592 L16.9712,12.8972 L17.3232,12.3972 L17.3972,12.4712 C18.1972,13.2712 18.9332,14.0852 19.5892,14.8912 C19.8692,15.2372 20.1292,15.5752 20.3672,15.9032 C20.9812,15.7772 21.6632,15.7252 22.3392,15.7932 C23.9232,15.9512 25.2152,16.7152 26.0752,18.0072 C26.2892,18.3292 26.2032,18.7632 25.8812,18.9772 Z" id="Path"></path>
                <path d="M25.7536,6.4942 L19.7838,11.6526 C19.4912,11.9054 19.459,12.3476 19.7118,12.64 C19.8502,12.8004 20.0454,12.8824 20.2418,12.8824 C20.404,12.8824 20.5668,12.8264 20.699,12.712 L26.6688,7.5536 C26.9614,7.3008 26.9936,6.8588 26.7408,6.5662 C26.488,6.2738 26.0458,6.2414 25.7536,6.4942 Z" id="Path"></path>
                <path d="M29.9506,11.884 C29.8918,11.703 29.7352,11.5712 29.5468,11.5438 L27.9912,11.3176 L27.2954,9.908 C27.211,9.7372 27.0372,9.6292 26.847,9.6292 C26.6566,9.6292 26.483,9.7374 26.3986,9.908 L25.703,11.3176 L24.1474,11.5438 C23.9592,11.5712 23.8024,11.703 23.7436,11.884 C23.6848,12.065 23.7338,12.2636 23.8702,12.3966 L24.9958,13.4938 L24.7302,15.0432 C24.698,15.2308 24.7752,15.4204 24.929,15.5322 C25.0828,15.644 25.2874,15.659 25.4556,15.5702 L26.847,14.8386 L28.2386,15.5702 C28.3116,15.6086 28.3916,15.6276 28.4712,15.6276 C28.5748,15.6276 28.678,15.5954 28.7652,15.532 C28.9192,15.42 28.9962,15.2306 28.964,15.043 L28.6984,13.4936 L29.824,12.3964 C29.9604,12.2636 30.0094,12.065 29.9506,11.884 Z M27.812,12.9612 C27.6942,13.076 27.6404,13.2414 27.6682,13.4038 L27.807,14.2138 L27.0794,13.8314 C27.0066,13.7932 26.9266,13.774 26.8468,13.774 C26.767,13.774 26.687,13.7932 26.6142,13.8314 L25.8868,14.2138 L26.0256,13.4038 C26.0536,13.2414 25.9996,13.076 25.8818,12.9612 L25.2934,12.3876 L26.1066,12.2694 C26.2694,12.2458 26.4104,12.1434 26.4832,11.996 L26.8466,11.259 L27.2102,11.996 C27.283,12.1436 27.4238,12.2458 27.5868,12.2694 L28.4,12.3876 L27.812,12.9612 Z" id="Shape"></path>
                <path d="M4.6728,4.0196 L4.407,5.5692 C4.3748,5.7568 4.452,5.9464 4.606,6.0582 C4.7598,6.17 4.9638,6.1848 5.1326,6.0962 L6.524,5.3646 L7.9154,6.0962 C7.9886,6.1346 8.0684,6.15365237 8.148,6.15365237 C8.2518,6.15365237 8.355,6.1214 8.442,6.058 C8.596,5.9462 8.6732,5.7566 8.641,5.569 L8.3752,4.0196 L9.501,2.9224 C9.6372,2.7896 9.6864,2.5908 9.6274,2.4098 C9.5686,2.2288 9.4122,2.0968 9.2238,2.0694 L7.6682,1.8434 L6.9724,0.4338 C6.8882,0.263 6.7144,0.155 6.524,0.155 C6.3336,0.155 6.1598,0.263 6.0756,0.4338 L5.3798,1.8434 L3.8242,2.0694 C3.6358,2.0968 3.4794,2.2286 3.4206,2.4098 C3.3618,2.5908 3.4108,2.7894 3.547,2.9224 L4.6728,4.0196 Z M5.7838,2.7954 C5.9466,2.7716 6.0876,2.6694 6.1602,2.5218 L6.5238,1.7848 L6.8874,2.5218 C6.9602,2.6694 7.101,2.7716 7.2638,2.7954 L8.077,2.9136 L7.4886,3.4872 C7.3708,3.602 7.317,3.7676 7.3448,3.9298 L7.4836,4.7396 L6.7564,4.3572 C6.6106,4.2806 6.4366,4.2806 6.291,4.3572 L5.5636,4.7396 L5.7024,3.9296 C5.7302,3.7674 5.6766,3.602 5.5586,3.4872 L4.9702,2.9136 L5.7838,2.7954 Z" id="Shape"></path>
                <path d="M21.4972,17.6712 C20.9112,17.7012 20.4012,17.8392 20.0612,17.9692 C20.4612,18.6532 20.6272,19.0952 20.6952,19.3512 C20.732,19.4908 20.7442,19.5846 20.7468,19.6468 L20.734,19.6524 C20.6716,19.6496 20.5784,19.6388 20.4452,19.6032 C20.1712,19.5292 19.6892,19.3472 18.9352,18.8912 C18.2992,18.5052 17.6032,18.0072 16.8672,17.4092 C16.0972,16.7852 15.3192,16.0812 14.5552,15.3152 C13.7892,14.5492 13.0852,13.7712 12.4612,13.0032 C11.8632,12.2672 11.3632,11.5712 10.9792,10.9352 C10.5232,10.1812 10.3412,9.6992 10.2672,9.4252 C10.2314,9.2914 10.2208,9.198 10.218,9.1356 L10.2232,9.1236 C10.2836,9.1262 10.3792,9.1382 10.5172,9.1752 C10.7912,9.2472 11.2752,9.4292 12.0292,9.8872 C12.0692,9.9112 12.1112,9.9372 12.1532,9.9652 C12.291,10.049 12.4308,10.1388 12.5724,10.2368 C12.476,10.4174 12.3682,10.5906 12.2466,10.7524 C12.0142,11.0614 12.0764,11.5002 12.3854,11.7326 C12.5114,11.8274 12.6592,11.873 12.8056,11.873 C13.0182,11.873 13.228,11.7766 13.3656,11.5938 C13.6342,11.2366 13.8564,10.8432 14.0318,10.4246 C14.0396,10.4058 14.0462,10.3866 14.054,10.3678 C14.09,10.2794 14.1246,10.1904 14.1562,10.1 C14.1696,10.062 14.181,10.0232 14.1936,9.985 C14.217,9.9136 14.2402,9.8422 14.261,9.7698 C14.2648,9.7568 14.2694,9.7444 14.273,9.7314 C14.5682,8.6688 14.5882,7.4938 14.3022,6.348 C13.9002,4.7372 12.9634,3.4498 11.796,2.9044 C11.446,2.7406 11.029,2.892 10.8656,3.2422 C10.702,3.5924 10.8532,4.009 11.2034,4.1726 C11.9806,4.5358 12.6476,5.499 12.9438,6.6866 C13.1272,7.4216 13.1544,8.1678 13.036,8.8638 C13.0356,8.8636 13.0352,8.8632 13.0348,8.863 C12.9388,8.803 12.8448,8.745 12.7528,8.689 C12.0348,8.253 11.4028,7.961 10.8768,7.821 C10.1408,7.627 9.5748,7.721 9.1948,8.101 C9.011,8.2848 8.8958,8.512 8.8454,8.7794 L0.0834,28.865 C-0.0318,29.1288 0.0264,29.4362 0.23,29.6398 C0.364,29.774 0.5432,29.8448 0.7252,29.8448 C0.8196,29.8448 0.9148,29.8256 1.0048,29.7864 L21.0826,21.0274 C21.354,20.9778 21.5838,20.8602 21.769,20.675 C22.149,20.295 22.243,19.729 22.049,18.993 C21.9472,18.6072 21.7612,18.1652 21.4972,17.6712 Z M9.7812,11.6612 C10.1992,12.3512 10.7352,13.0992 11.3732,13.8852 C12.0292,14.6912 12.7652,15.5052 13.5652,16.3052 C14.3632,17.1052 15.1792,17.8412 15.9852,18.4972 C16.7712,19.1352 17.5192,19.6712 18.2092,20.0872 C18.4412,20.228 18.663,20.3522 18.8764,20.4628 L16.8186,21.3606 C13.4122,21.4678 10.1034,20.388 8.2514,18.5346 C7.5662,17.8488 7.1506,17.1114 7.0442,16.4104 L9.4072,10.9938 C9.5174,11.2068 9.641,11.4288 9.7812,11.6612 Z M8.7144,24.8958 C6.9196,24.8444 5.5438,24.4074 4.8038,23.6446 C4.5376,23.3702 4.365,23.0594 4.2876,22.729 L6.4524,17.7668 C6.709,18.2744 7.0756,18.7722 7.5442,19.241 C8.902,20.5998 11.382,21.9506 14.6898,22.289 L8.7144,24.8958 Z M3.7586,23.942 C3.8556,24.08 3.9628,24.2142 4.0862,24.3414 C4.5744,24.8446 5.4236,25.4076 6.8704,25.7006 L2.0798,27.7906 L3.7586,23.942 Z" id="Shape"></path>
                <path d="M24.2996,4.884 C25.4036,4.884 26.3018,3.9858 26.3018,2.8818 C26.3018,1.7778 25.4036,0.8796 24.2996,0.8796 C23.1956,0.8796 22.2974,1.7778 22.2974,2.8818 C22.2974,3.9858 23.1956,4.884 24.2996,4.884 Z M24.2996,1.8796 C24.8522,1.8796 25.3018,2.3292 25.3018,2.8818 C25.3018,3.4344 24.8522,3.884 24.2996,3.884 C23.747,3.884 23.2974,3.4344 23.2974,2.8818 C23.2974,2.3292 23.747,1.8796 24.2996,1.8796 Z" id="Shape"></path>
                <path d="M17.2762,5.946 C18.259,5.946 19.0584,5.1466 19.0584,4.1638 C19.0584,3.181 18.259,2.3816 17.2762,2.3816 C16.2934,2.3816 15.494,3.181 15.494,4.1638 C15.494,5.1466 16.2936,5.946 17.2762,5.946 Z M17.2762,3.3818 C17.7074,3.3818 18.0584,3.7326 18.0584,4.164 C18.0584,4.5954 17.7076,4.9462 17.2762,4.9462 C16.8448,4.9462 16.494,4.5954 16.494,4.164 C16.494,3.7326 16.845,3.3818 17.2762,3.3818 Z" id="Shape"></path>
                <path d="M25.8018,21.3704 C24.819,21.3704 24.0196,22.1698 24.0196,23.1524 C24.0196,24.1352 24.819,24.9346 25.8018,24.9346 C26.7844,24.9346 27.5838,24.1352 27.5838,23.1524 C27.5838,22.1698 26.7844,21.3704 25.8018,21.3704 Z M25.8018,23.9346 C25.3706,23.9346 25.0196,23.5836 25.0196,23.1524 C25.0196,22.7212 25.3706,22.3704 25.8018,22.3704 C26.233,22.3704 26.5838,22.7212 26.5838,23.1524 C26.5838,23.5836 26.233,23.9346 25.8018,23.9346 Z" id="Shape"></path>
            </g>
            <path d="M10.3019785,10 L2,28.6416681 L20.4264717,20.2397347 C17.6274181,18.2844088 15.5947181,16.6663656 14.3283717,15.3856051 C13.0620254,14.1048446 11.7198943,12.3096429 10.3019785,10 Z" id="Path-3" stroke="#F2BD00"></path>
        </g>
    </g>
</svg>