<?xml version="1.0" encoding="UTF-8"?>
<svg width="32px" height="24px" viewBox="0 0 32 24" version="1.1" xmlns="http://www.w3.org/2000/svg" xmlns:xlink="http://www.w3.org/1999/xlink">
    <title>5</title>
    <g id="Page-1" stroke="none" stroke-width="1" fill="none" fill-rule="evenodd">
        <g id="Artboard" transform="translate(-69.000000, -901.000000)">
            <g id="5" transform="translate(69.000000, 901.000000)">
                <circle id="Oval-Copy-18" fill="#EFD0CE" cx="11.5" cy="12.5" r="11.5"></circle>
                <g id="Group-39" transform="translate(8.000000, 0.000000)">
                    <rect id="Rectangle-Copy-12" x="0" y="0" width="24" height="24"></rect>
                    <g id="Group-12" transform="translate(2.000000, 2.000000)">
                        <rect id="Rectangle-Copy-34" x="0" y="0" width="20" height="20"></rect>
                        <polygon id="Path" fill="#000000" fill-rule="nonzero" points="5.62181667 3.46031667 4.33591667 3.46031667 4.33591667 0.833333333 5.62181667 0.833333333"></polygon>
                        <polygon id="Path" fill="#000000" fill-rule="nonzero" points="14.3781833 3.46031667 15.6640833 3.46031667 15.6640833 0.833333333 14.3781833 0.833333333"></polygon>
                        <polygon id="Path" fill="#000000" fill-rule="nonzero" points="4.33591667 19.1666667 5.62181667 19.1666667 5.62181667 16.5396833 4.33591667 16.5396833"></polygon>
                        <polygon id="Path" fill="#000000" fill-rule="nonzero" points="14.3781833 19.1666667 15.6640833 19.1666667 15.6640833 16.5396833 14.3781833 16.5396833"></polygon>
                        <path d="M15.6640833,4.33591667 L15.6640833,15.6639 L4.33591667,15.6639 L4.33591667,4.33591667 L15.6640833,4.33591667 Z M14.3781833,5.62181667 L5.62181667,5.62181667 L5.62181667,14.3783667 L14.3781833,14.3783667 L14.3781833,5.62181667 Z" id="Combined-Shape" fill="#262626" fill-rule="nonzero"></path>
                        <polygon id="Path" fill="#000000" fill-rule="nonzero" points="16.5398667 4.33591667 16.5398667 5.62163333 19.1666667 5.62163333 19.1666667 4.33591667 16.5398667 4.33591667"></polygon>
                        <polygon id="Path" fill="#000000" fill-rule="nonzero" points="16.5398667 15.6640833 19.1666667 15.6640833 19.1666667 14.3783667 16.5398667 14.3783667"></polygon>
                        <polygon id="Path" fill="#000000" fill-rule="nonzero" points="0.833333333 5.62181667 3.46031667 5.62181667 3.46031667 4.3361 0.833333333 4.3361"></polygon>
                        <polygon id="Path" fill="#000000" fill-rule="nonzero" points="0.833333333 15.6640833 3.46031667 15.6640833 3.46031667 14.3783667 0.833333333 14.3783667"></polygon>
                    </g>
                </g>
            </g>
        </g>
    </g>
</svg>