<?xml version="1.0" encoding="UTF-8"?>
<svg width="78px" height="64px" viewBox="0 0 78 64" version="1.1" xmlns="http://www.w3.org/2000/svg" xmlns:xlink="http://www.w3.org/1999/xlink">
    <title>Group 34</title>
    <g id="Explorations" stroke="none" stroke-width="1" fill="none" fill-rule="evenodd">
        <g id="Topfold-pes-changes-" transform="translate(-842.000000, -2963.000000)">
            <g id="Group-34" transform="translate(842.000000, 2963.000000)">
                <circle id="Oval-Copy-18" fill="#FFEDAB" opacity="0.991396949" cx="31.8" cy="31.8" r="31.8"></circle>
                <path d="M76.375,49.2 C77.1622986,49.2 77.8,48.5511108 77.8,47.75 L77.8,46.3 C77.8,45.4988892 77.1622986,44.85 76.375,44.85 L36.475,44.85 L36.475,15.85 C36.475,15.0488892 35.8372986,14.4 35.05,14.4 L33.625,14.4 C32.8377014,14.4 32.2,15.0488892 32.2,15.85 L32.2,46.3 C32.2,47.9013367 33.4762726,49.2 35.05,49.2 L76.375,49.2 Z M58.8582153,36.7508331 L68.6746597,26.7612854 L71.3011337,29.4347229 C72.6477692,30.804895 74.95,29.8343048 74.95,27.8967529 L74.95,18.75 C74.95,17.9488892 74.3122986,17.3 73.525,17.3 L64.5359497,17.3 C62.6318039,17.3 61.677948,19.6426208 63.0244965,21.0128815 L65.6518402,23.685434 L57.85,31.6241486 L50.3072586,23.9491669 C49.750618,23.3827606 48.8484253,23.3827606 48.2917847,23.9491669 L41.6708923,30.6862152 C41.1142517,31.2526215 41.1142517,32.1706421 41.6708923,32.7370483 L42.6782379,33.7620667 C43.2348785,34.3284729 44.1370712,34.3284729 44.6937119,33.7620667 L49.3,29.0758514 L56.8427414,36.7508331 C57.399382,37.3172394 58.3015747,37.3172394 58.8582153,36.7508331 Z" id="cchart-line" fill="#262626" fill-rule="nonzero"></path>
            </g>
        </g>
    </g>
</svg>