<svg xmlns="http://www.w3.org/2000/svg" width="22" height="26" fill-rule="evenodd" fill="#a4c4a3" xmlns:v="https://vecta.io/nano"><path d="M17.337.5c.755 0 1.415.66 1.415 1.415v18.962c0 .755-.66 1.415-1.415 1.415H1.582v.472c0 .755.66 1.32 1.415 1.32h16.038c.755 0 1.415-.566 1.415-1.32V2.858c.755.094 1.32.377 1.32 1.132v20.094c0 .755-.755 1.415-1.604 1.415h-18.3C.922 25.5.26 24.84.26 24.085v-2.72a1.35 1.35 0 0 1-.094-.488V1.915C.167 1.16.827.5 1.582.5h15.755zM14.6 3.613H4.224v3.585H14.6V3.613z"/></svg>