<svg xmlns="http://www.w3.org/2000/svg" width="16" height="15" xmlns:v="https://vecta.io/nano"><path d="M15.153 5.918c-.12-.24-.358-.358-.596-.358h-4.53l-1.43-4.3c-.12-.478-.954-.478-1.192 0l-1.43 4.3h-4.53c-.238 0-.477.12-.596.358s0 .478.238.717L4.78 9.263l-1.43 4.3c-.12.24 0 .478.238.717a.76.76 0 0 0 .715 0L8 11.652l3.696 2.628c.12.12.238.12.358.12s.238 0 .358-.12c.238-.12.358-.358.238-.717l-1.43-4.3 3.696-2.628c.238-.24.358-.478.238-.717zm-4.888 2.628a.58.58 0 0 0-.238.717l.954 2.987-2.504-1.792c-.12-.12-.238-.12-.358-.12V3.4l.954 2.987c.12.24.358.358.596.358h3.1l-2.504 1.792z" fill="#fff"/></svg>