<svg width="40" height="40" viewBox="0 0 40 40" fill="none" xmlns="http://www.w3.org/2000/svg">
<g clip-path="url(#clip0_44:57)">
<circle opacity="0.5" cx="20" cy="20" r="16" fill="#FFDC68"/>
<path d="M36.9686 21.0937C36.9686 21.0321 36.9378 20.9705 36.907 20.9397C36.907 20.9397 36.907 20.9397 36.907 20.9088L33.8569 15.3941C33.7337 15.2092 33.5489 15.086 33.3024 15.086H20.8557C20.8248 15.086 20.7632 15.086 20.7324 15.086H20.7016H20.6708C20.64 15.086 20.64 15.1168 20.6092 15.1168C20.6092 15.1168 20.5784 15.1168 20.5784 15.1476C20.5476 15.1784 20.486 15.2092 20.4551 15.24C20.4243 15.2709 20.3935 15.3017 20.3627 15.3325C20.3627 15.3325 20.3627 15.3325 20.3627 15.3633L17.3127 20.9088C17.3127 20.9088 17.3127 20.9088 17.3127 20.9397C17.2818 21.0013 17.251 21.0321 17.251 21.0937C17.251 21.1245 17.251 21.1553 17.251 21.1861C17.251 21.2169 17.251 21.2169 17.251 21.2477V21.2786C17.251 21.3402 17.2818 21.4018 17.2818 21.4326C17.2818 21.4326 17.2818 21.4326 17.2818 21.4634C17.3127 21.525 17.3435 21.5558 17.3743 21.5866C17.3743 21.5866 17.3743 21.5866 17.3743 21.6175L26.6785 31.7843C26.7093 31.8151 26.7401 31.8459 26.7709 31.8768C26.7709 31.8768 26.8017 31.8768 26.8017 31.9076C26.8326 31.9384 26.8634 31.9384 26.925 31.9692H26.9558C27.0174 31.9692 27.0482 32 27.1098 32C27.1406 32 27.2023 32 27.2331 32H27.2639C27.2947 32 27.2947 32 27.3255 31.9692C27.3563 31.9692 27.3563 31.9384 27.3871 31.9384C27.4179 31.9384 27.4179 31.9076 27.4487 31.9076L27.4795 31.8768C27.5103 31.8459 27.5103 31.8459 27.5412 31.8151L36.8454 21.6483C36.8454 21.6483 36.8454 21.6483 36.8454 21.6175C36.8762 21.5866 36.907 21.525 36.9378 21.4942C36.9378 21.4942 36.9378 21.4942 36.9378 21.4634C36.9686 21.4018 36.9686 21.371 36.9686 21.3094V21.2786C36.9686 21.2477 36.9686 21.2477 36.9686 21.2169C36.9994 21.1861 36.9994 21.1553 36.9686 21.0937ZM32.4397 16.3183L30.7453 20.5391L28.0957 16.3183H32.4397ZM29.3589 20.6316H24.7684L27.0482 16.9653L29.3589 20.6316ZM26.0315 16.3183L23.4128 20.5083L21.7491 16.3183H26.0315ZM20.7632 17.1502L22.1496 20.6316H18.8531L20.7632 17.1502ZM19.192 21.8639H22.6426L25.2921 28.5186L19.192 21.8639ZM27.079 29.7201L23.9673 21.9255L23.9981 21.8639H30.1291L30.1599 21.9255L27.079 29.7201ZM28.8967 28.5186L31.5463 21.8639H34.9661L28.8967 28.5186ZM32.0392 20.6316L33.4256 17.181L35.3358 20.6316H32.0392Z" fill="black"/>
<path d="M27.079 13.484C27.4179 13.484 27.6952 13.2067 27.6952 12.8678V8.61617C27.6952 8.27728 27.4179 8 27.079 8C26.7401 8 26.4628 8.27728 26.4628 8.61617V12.8678C26.4628 13.2067 26.7401 13.484 27.079 13.484Z" fill="black"/>
<path d="M39.9571 11.1425C39.7106 10.896 39.3409 10.896 39.0944 11.1117L35.952 14.1001C35.7055 14.3466 35.7055 14.7163 35.9211 14.9628C36.0444 15.086 36.1984 15.1476 36.3525 15.1476C36.5065 15.1476 36.6606 15.086 36.7838 14.9628L39.9263 11.9743C40.1728 11.7895 40.1728 11.389 39.9571 11.1425Z" fill="black"/>
<path d="M17.7748 15.1785C17.9288 15.1785 18.0829 15.1168 18.2061 14.9936C18.4526 14.7471 18.4218 14.3466 18.1753 14.131L15.0328 11.1425C14.7863 10.8961 14.3858 10.9269 14.1702 11.1733C13.9237 11.4198 13.9545 11.8203 14.201 12.036L17.3435 15.0244C17.4667 15.1477 17.6207 15.1785 17.7748 15.1785Z" fill="black"/>
</g>
<defs>
<clipPath id="clip0_44:57">
<rect width="40" height="40" fill="white"/>
</clipPath>
</defs>
</svg>
