<svg xmlns="http://www.w3.org/2000/svg" width="34" height="26" fill-rule="evenodd" xmlns:v="https://vecta.io/nano"><circle fill="#cfa6a1" opacity=".5" cx="11.5" cy="14.085" r="11.5"/><path d="M34 19.338c.001.1-.043.217-.12.295a.41.41 0 0 1-.293.121h-8.74c-.228 0-.413-.186-.413-.416V5.796a3.46 3.46 0 0 0-2.435-1.058c-2.133 0-3.824 2.03-4.88 5.865-2.336 8.5-5.723 9.15-6.707 9.15-.228 0-.413-.186-.413-.416s.185-.416.413-.416c1.723 0 4.18-2.244 5.9-8.542 1.472-5.34 3.9-6.475 5.677-6.475a4.1 4.1 0 0 1 2.435.805V.416c0-.23.185-.416.413-.416s.413.186.413.416v5.036a9.95 9.95 0 0 1 1.896 3.31c0 .02 0 .038.02.056a15.4 15.4 0 0 1 .245.706c0 .032.02.064.03.097a18.91 18.91 0 0 1 .227.76c1.73 6.297 4.2 8.542 5.9 8.542a.41.41 0 0 1 .293.121c.078.078.12.184.12.295zm-11.1.5c-.05-.054-.12-.085-.195-.085s-.144.03-.195.085c-.107.1-.107.285 0 .395l1.067 1.12h-12.5l1.067-1.12c.107-.1.107-.285 0-.395-.05-.054-.12-.085-.195-.085s-.144.03-.195.085l-1.7 1.782 1.7 1.782c.05.055.122.086.197.086.115.007.22-.06.264-.167a.27.27 0 0 0-.075-.305L11.067 21.9h12.507l-1.067 1.12a.27.27 0 0 0 .2.47.26.26 0 0 0 .197-.086l1.7-1.782L22.9 19.84z" fill-rule="nonzero"/></svg>