<svg xmlns="http://www.w3.org/2000/svg" width="31" height="32" fill-rule="evenodd" xmlns:v="https://vecta.io/nano"><circle cx="15.503" cy="15.527" r="15.503" fill="#6882da"/><path d="M19.338 13.82c.375-.375.375-.994 0-1.387-.375-.375-.994-.375-1.387 0l-2.494 2.494 1.387 1.387 2.494-2.494zm5.287-1.4c-.375-.375-.994-.375-1.387 0l-6.056 6.056-3.13-3.113c-.375-.375-.994-.375-1.388 0s-.375.994 0 1.387l.488.488-1.256 1.256-3.13-3.13c-.375-.375-.994-.375-1.387 0s-.375.994 0 1.387l3.806 3.806c.188.188.45.28.694.28a1 1 0 0 0 .694-.28l1.95-1.95 1.95 1.95c.188.188.45.28.694.28a1 1 0 0 0 .694-.28l6.75-6.75c.394-.394.394-1.012.02-1.387z" fill="#fff" fill-rule="nonzero"/></svg>