<svg xmlns="http://www.w3.org/2000/svg" width="24" height="30" xmlns:v="https://vecta.io/nano"><path d="M11.842 16.667c1.998 0 3.618 1.33 3.618 3.922 0 2.96-.36 9.41-3.618 9.41s-3.618-6.45-3.618-9.412c0-2.593 1.62-3.922 3.618-3.922zm0-16.667c6.53 0 11.842 5.383 11.842 12a12.04 12.04 0 0 1-5.967 10.413 36.95 36.95 0 0 0 .046-1.824 8.03 8.03 0 0 0-.024-.575 10.03 10.03 0 0 0 3.97-8.013c0-5.514-4.427-10-9.868-10S1.974 6.486 1.974 12c0 3.276 1.562 6.188 3.97 8.013-.013.2-.024.38-.024.575 0 .54.014 1.163.046 1.824C2.406 20.34 0 16.45 0 12 0 5.383 5.312 0 11.842 0zm0 4.333c4.172 0 7.566 3.44 7.566 7.667a7.69 7.69 0 0 1-2.314 5.511 5.51 5.51 0 0 0-1.2-1.627A5.68 5.68 0 0 0 17.434 12c0-3.125-2.5-5.667-5.592-5.667S6.25 8.875 6.25 12a5.68 5.68 0 0 0 1.531 3.883 5.88 5.88 0 0 0-1.2 1.627A7.69 7.69 0 0 1 4.276 12c0-4.227 3.394-7.667 7.566-7.667zm0 5c1.453 0 2.632 1.194 2.632 2.667s-1.178 2.667-2.632 2.667S9.2 13.473 9.2 12s1.178-2.667 2.632-2.667z" fill="#6882da"/></svg>