<?xml version="1.0" encoding="UTF-8"?>
<svg width="16px" height="16px" viewBox="0 0 16 16" version="1.1" xmlns="http://www.w3.org/2000/svg" xmlns:xlink="http://www.w3.org/1999/xlink">
    <title>Combined Shape</title>
    <g id="Final" stroke="none" stroke-width="1" fill="none" fill-rule="evenodd">
        <g id="editing-overview-page-final" transform="translate(-458.000000, -1384.000000)" fill="#262626" fill-rule="nonzero">
            <g id="Group-54" transform="translate(158.000000, 1111.000000)">
                <g id="Group-53" transform="translate(13.882254, 251.000000)">
                    <g id="Group-20" transform="translate(48.117746, 13.000000)">
                        <path d="M245.826087,9 C250.148174,9 253.652174,12.504 253.652174,16.826087 C253.652174,21.1481739 250.148174,24.6521739 245.826087,24.6521739 C241.504,24.6521739 238,21.1481739 238,16.826087 C238,12.504 241.504,9 245.826087,9 Z M247.512653,10.5670631 C245.277743,9.97502302 242.897006,10.6274653 241.276174,12.2761739 C239.627465,13.897006 238.975023,16.2777428 239.567063,18.5126533 C240.159103,20.7475638 241.90461,22.4930708 244.139521,23.0851108 C246.374431,23.6771509 248.755168,23.0247086 250.376,21.376 C252.024709,19.755168 252.677151,17.3744311 252.085111,15.1395206 C251.493071,12.9046101 249.747564,11.1591031 247.512653,10.5670631 Z M245.826087,15.7172174 C246.325544,15.7172174 246.730435,16.1221077 246.730435,16.6215652 L246.730435,20.2041739 C246.730435,20.7036314 246.325544,21.1085217 245.826087,21.1085217 C245.326629,21.1085217 244.921739,20.7036314 244.921739,20.2041739 L244.921739,16.6215652 C244.921739,16.1221077 245.326629,15.7172174 245.826087,15.7172174 Z M245.826087,12.5565217 C246.426396,12.5565217 246.913043,13.0431688 246.913043,13.6434783 C246.913043,14.2437878 246.426396,14.7304348 245.826087,14.7304348 C245.225777,14.7304348 244.73913,14.2437878 244.73913,13.6434783 C244.73913,13.0431688 245.225777,12.5565217 245.826087,12.5565217 Z" id="Combined-Shape"></path>
                    </g>
                </g>
            </g>
        </g>
    </g>
</svg>