<?xml version="1.0" encoding="UTF-8"?>
<svg width="47px" height="37px" viewBox="0 0 47 37" version="1.1" xmlns="http://www.w3.org/2000/svg" xmlns:xlink="http://www.w3.org/1999/xlink">
    <title>29928F92-542A-43BE-9782-8C0424E9EA46@2x</title>
    <defs>
        <polygon id="path-1" points="5.5e-05 0.00011 33.55 0.00011 33.55 33.55 5.5e-05 33.55"></polygon>
        <polygon id="path-3" points="0.25926876 0.163406525 21.2552157 0.163406525 21.2552157 28.6 0.25926876 28.6"></polygon>
    </defs>
    <g id="Final" stroke="none" stroke-width="1" fill="none" fill-rule="evenodd">
        <g id="what-makes-us-number-1-component" transform="translate(-999.000000, -172.000000)">
            <g id="Group-5" transform="translate(999.009686, 172.673267)">
                <g id="Group-24" fill="#96ABEC" opacity="0.5">
                    <g id="Group-47" transform="translate(0.000000, 0.000000)">
                        <ellipse id="Oval" cx="17.5650437" cy="17.8217822" rx="17.5650437" ry="17.8217822"></ellipse>
                    </g>
                </g>
                <g id="Group-35" transform="translate(11.990314, 0.326733)">
                    <g id="Group-3">
                        <mask id="mask-2" fill="white">
                            <use xlink:href="#path-1"></use>
                        </mask>
                        <g id="Clip-2"></g>
                    </g>
                    <g id="Group-6" transform="translate(6.050000, 4.950000)">
                        <mask id="mask-4" fill="white">
                            <use xlink:href="#path-3"></use>
                        </mask>
                        <g id="Clip-5"></g>
                        <path d="M8.68373,26.519075 C9.30688,27.334725 10.07358,27.699375 11.02398,27.602025 C11.76373,27.526125 12.36818,27.183475 12.82248,26.499275 C11.47333,26.499275 10.18908,26.499275 8.90483,26.499825 C8.85368,26.499825 8.80253,26.508625 8.68373,26.519075 L8.68373,26.519075 Z M10.29963,28.600275 C9.68473,28.447925 9.05993,28.286775 8.59573,27.835225 C8.24153,27.490925 7.96598,27.066875 7.64753,26.685175 C7.55733,26.577375 7.45613,26.448125 7.33348,26.403575 C6.39573,26.063675 5.85783,25.321175 5.85343,24.316325 C5.85013,23.390125 5.84463,22.463375 5.85508,21.537175 C5.86553,20.546075 5.47283,19.768925 4.67093,19.191425 C2.98243,17.975375 1.75978,16.397975 0.98153,14.467475 C-0.56122,10.641675 0.42328,6.039275 3.40208,3.196875 C3.66443,2.946625 3.93943,2.922975 4.15173,3.131425 C4.36403,3.339875 4.34313,3.641825 4.07693,3.906375 C2.71953,5.255525 1.77903,6.852175 1.44188,8.735925 C0.75603,12.568875 1.94128,15.750625 4.98498,18.183275 C5.88863,18.905975 6.61243,19.683675 6.79778,20.894775 L7.16298,20.894775 C8.37243,20.894775 9.58243,20.894775 10.79188,20.894775 C10.86833,20.894775 10.94478,20.892025 11.02123,20.895875 C11.35673,20.913475 11.55528,21.098275 11.55418,21.389225 C11.55363,21.684575 11.35838,21.868825 11.01683,21.869925 C9.91628,21.874875 8.81573,21.872125 7.71463,21.872125 C7.43358,21.872125 7.15253,21.872125 6.84728,21.872125 C6.84728,22.791725 6.81483,23.683275 6.85938,24.570975 C6.88633,25.107225 7.38188,25.510925 7.94453,25.514775 C9.81893,25.526875 11.69388,25.527975 13.56828,25.514225 C14.18373,25.509825 14.66003,25.040675 14.67378,24.442275 C14.69303,23.604075 14.67873,22.764775 14.67873,21.872125 C14.36853,21.872125 14.06823,21.872125 13.76848,21.872125 C13.56113,21.872125 13.35378,21.873775 13.14698,21.871575 C12.76583,21.867175 12.54088,21.681275 12.54638,21.379875 C12.55188,21.082875 12.78178,20.898075 13.16293,20.895875 C13.67278,20.892575 14.18318,20.894775 14.71558,20.894775 C14.90148,19.651775 15.63683,18.824025 16.60263,18.132125 C17.05033,17.811475 17.46173,17.419325 17.82088,17.000225 C20.24748,14.168825 20.95533,10.936475 19.69088,7.432425 C18.43248,3.944875 15.85078,1.877975 12.18173,1.259775 C9.88878,0.873675 7.74543,1.366475 5.76323,2.573725 C5.72583,2.596275 5.69008,2.621025 5.65158,2.641925 C5.36173,2.801425 5.08508,2.749175 4.93713,2.508275 C4.78533,2.261325 4.85408,1.994575 5.14008,1.810325 C6.02448,1.241075 6.97488,0.814275 7.99073,0.538725 C13.90048,-1.066725 19.94223,2.634775 21.04938,8.656175 C21.80948,12.786125 20.44988,16.227475 17.21203,18.913675 C17.02778,19.067125 16.82648,19.199675 16.64278,19.353125 C16.01358,19.878375 15.67478,20.551025 15.66543,21.372725 C15.65443,22.331375 15.66323,23.290575 15.66158,24.249775 C15.65938,25.327775 15.15393,26.043875 14.14963,26.411275 C14.05833,26.444825 13.95163,26.514125 13.91093,26.596075 C13.36753,27.687825 12.50293,28.343425 11.30118,28.555725 C11.27093,28.560675 11.24398,28.584875 11.21538,28.600275 L10.29963,28.600275 Z" id="Fill-4" stroke="#000000" stroke-width="0.3" fill="#000000" mask="url(#mask-4)"></path>
                    </g>
                    <path d="M10.615605,15.74749 L10.615605,16.88874 C10.995105,16.94704 11.367455,17.01359 11.743105,17.05814 C12.032405,17.09224 12.172655,17.25284 12.266705,17.51684 C12.408605,17.91449 12.573055,18.30609 12.754555,18.68724 C12.876105,18.94299 12.873355,19.15969 12.697905,19.38409 C12.470205,19.67449 12.254055,19.97314 12.058805,20.23439 C12.334905,20.52479 12.594505,20.79704 12.864005,21.08029 C13.155505,20.86194 13.455255,20.64579 13.746205,20.41809 C13.972255,20.24099 14.186205,20.24539 14.441405,20.37079 C14.811005,20.55174 15.190505,20.72114 15.582105,20.84434 C15.900555,20.94499 16.046855,21.13144 16.083155,21.44659 C16.122755,21.79089 16.177755,22.13299 16.227255,22.48609 L17.387755,22.48609 C17.439455,22.11484 17.491705,21.76064 17.537355,21.40534 C17.574755,21.11604 17.719405,20.94719 18.009255,20.85314 C18.399755,20.72554 18.784205,20.56659 19.150505,20.38124 C19.431555,20.23934 19.657605,20.24594 19.901255,20.44229 C20.179555,20.66669 20.472705,20.87239 20.729005,21.06379 C21.020505,20.78824 21.293305,20.52974 21.577105,20.26134 C21.356555,19.96709 21.139305,19.66789 20.912155,19.37694 C20.746605,19.16409 20.732855,18.95894 20.848905,18.71089 C21.037555,18.30884 21.209705,17.89744 21.360955,17.47999 C21.455005,17.22204 21.606255,17.09169 21.877955,17.05979 C22.252505,17.01634 22.624305,16.94814 22.998855,16.88984 L22.998855,15.74749 C22.619355,15.68974 22.246455,15.62264 21.870805,15.57974 C21.579855,15.54619 21.440155,15.38559 21.346655,15.12159 C21.209155,14.73384 21.056805,14.34829 20.873655,13.98034 C20.735605,13.70094 20.737805,13.47324 20.935255,13.22849 C21.164605,12.94414 21.373605,12.64384 21.554005,12.40129 C21.267455,12.10264 21.012255,11.83754 20.746605,11.56034 C20.459505,11.77539 20.159755,11.99209 19.868805,12.21979 C19.642755,12.39634 19.426605,12.39194 19.172505,12.26819 C18.802355,12.08834 18.424505,11.91289 18.032905,11.79189 C17.710605,11.69289 17.568155,11.50754 17.531305,11.19239 C17.491155,10.84864 17.436155,10.50599 17.385555,10.14959 L16.226705,10.14959 C16.175005,10.51919 16.122755,10.87339 16.077105,11.22869 C16.040255,11.51689 15.897805,11.68904 15.609055,11.78584 C15.209205,11.92004 14.818705,12.08779 14.437555,12.27039 C14.181805,12.39304 13.966755,12.39359 13.741805,12.21759 C13.451405,11.98989 13.152205,11.77374 12.886555,11.57464 C12.595605,11.84909 12.321705,12.10649 12.036255,12.37599 C12.256805,12.66969 12.475155,12.96779 12.701205,13.25929 C12.865105,13.47159 12.880505,13.67949 12.765555,13.92644 C12.578005,14.32904 12.406405,14.74044 12.252955,15.15734 C12.163855,15.39824 12.028005,15.54069 11.768955,15.57479 C11.392755,15.62429 11.018755,15.68644 10.615605,15.74749 M20.854405,22.27324 C20.720205,22.21714 20.614055,22.18799 20.524955,22.13244 C20.387455,22.04554 20.260955,21.93994 20.130055,21.84259 C19.423305,21.31459 19.421105,21.30964 18.624705,21.70839 C18.541655,21.75019 18.473455,21.88109 18.454755,21.98119 C18.392605,22.31284 18.358505,22.64944 18.309555,22.98329 C18.257305,23.33364 18.096705,23.47939 17.742505,23.48214 C17.1215463,23.48654 16.500605,23.48654 15.879655,23.48214 C15.510055,23.47939 15.356605,23.33529 15.302705,22.95909 C15.255955,22.63569 15.230105,22.30789 15.156955,21.99054 C15.129455,21.87064 15.013405,21.74909 14.906155,21.67264 C14.358355,21.28269 13.873255,21.39929 13.437105,21.87614 C13.357355,21.96304 13.249005,22.02409 13.150555,22.09284 C12.839255,22.31064 12.647855,22.29689 12.372305,22.02519 C11.944955,21.60444 11.520905,21.18094 11.099605,20.75469 C10.818005,20.46924 10.805355,20.27619 11.042955,19.95169 C11.236005,19.68769 11.428505,19.42314 11.634205,19.16959 C11.742555,19.03649 11.795905,18.91659 11.679855,18.76699 C11.673255,18.75819 11.666105,18.74829 11.664455,18.73784 C11.562705,18.01349 11.047905,17.86884 10.434105,17.85509 C10.315305,17.85289 10.197055,17.82484 10.078805,17.80669 C9.768055,17.75829 9.627805,17.56084 9.625605,17.26219 C9.620655,16.63024 9.619555,15.99774 9.626155,15.36579 C9.629455,15.06604 9.777955,14.87519 10.088705,14.83064 C10.455005,14.77784 10.822955,14.73219 11.185405,14.65959 C11.278355,14.64089 11.353705,14.53309 11.436205,14.46544 C11.443355,14.45939 11.440055,14.44289 11.445555,14.43464 C11.831105,13.87144 11.712305,13.38249 11.234355,12.93864 C11.148005,12.85834 11.088605,12.74889 11.016555,12.65319 C10.823505,12.39744 10.829555,12.15269 11.060005,11.92224 C11.507155,11.47564 11.955405,11.03014 12.401455,10.58244 C12.631355,10.35254 12.873355,10.33769 13.131305,10.53239 C13.235805,10.61104 13.359005,10.67264 13.443155,10.76889 C13.891955,11.28314 14.396305,11.31944 14.944105,10.95094 C15.037055,10.88824 15.134955,10.77769 15.155855,10.67374 C15.224605,10.33329 15.255405,9.98459 15.307105,9.64029 C15.357155,9.30699 15.519955,9.15849 15.852705,9.15574 C16.484655,9.14969 17.116605,9.15024 17.748555,9.15519 C18.086255,9.15794 18.250705,9.30314 18.306805,9.62819 C18.328805,9.75689 18.368955,9.88834 18.360705,10.01539 C18.317805,10.67539 18.613155,11.05324 19.257205,11.20779 C19.426055,11.24849 19.531655,11.25564 19.664205,11.15004 C19.937005,10.93279 20.220255,10.72929 20.499655,10.52139 C20.749355,10.33549 20.986405,10.35859 21.203655,10.57364 C21.653005,11.01859 22.102355,11.46299 22.544555,11.91454 C22.792605,12.16754 22.799755,12.37049 22.583605,12.66914 C22.379005,12.95184 22.155155,13.22079 21.964305,13.51174 C21.908205,13.59699 21.909855,13.74164 21.928555,13.85219 C22.047355,14.54189 22.498355,14.79874 23.160005,14.77894 C23.277705,14.77509 23.396505,14.81359 23.514755,14.82899 C23.824955,14.86859 23.982805,15.05504 23.987205,15.35589 C23.996005,15.99884 23.995455,16.64179 23.987205,17.28474 C23.982805,17.58669 23.819455,17.76764 23.512555,17.81219 C23.146805,17.86499 22.780505,17.91779 22.415855,17.98159 C22.342155,17.99424 22.241505,18.03824 22.213455,18.09654 C22.090805,18.35064 21.979705,18.61189 21.889505,18.87919 C21.865855,18.94794 21.913705,19.06179 21.962105,19.13109 C22.156805,19.40719 22.366905,19.67174 22.566005,19.94399 C22.806355,20.27234 22.797555,20.46814 22.520355,20.74919 C22.091905,21.18369 21.661805,21.61709 21.222355,22.04059 C21.118955,22.14014 20.975955,22.19844 20.854405,22.27324" id="Fill-7" stroke="#000000" stroke-width="0.2" fill="#000000"></path>
                    <path d="M3.56488,15.703655 C3.10783,15.703655 2.65078,15.707505 2.19428,15.702555 C1.85878,15.698155 1.64758,15.515005 1.63768,15.235055 C1.62723,14.940805 1.84228,14.729055 2.19208,14.726305 C3.10563,14.718605 4.01973,14.719155 4.93328,14.726305 C5.28143,14.729055 5.49923,14.940805 5.48988,15.232855 C5.48163,15.512805 5.26988,15.698155 4.93548,15.702005 C4.47898,15.708055 4.02193,15.703655 3.56488,15.703655" id="Fill-9" fill="#000000"></path>
                    <path d="M30.047875,15.703655 C29.590825,15.703655 29.133775,15.708055 28.677275,15.702005 C28.340675,15.698155 28.132225,15.514455 28.123975,15.232305 C28.115725,14.938055 28.330775,14.729055 28.680575,14.726305 C29.594675,14.719155 30.508775,14.718605 31.422325,14.726305 C31.769375,14.729055 31.987175,14.944105 31.976175,15.236155 C31.965725,15.513905 31.752875,15.698155 31.418475,15.702555 C30.961975,15.707505 30.504925,15.703655 30.047875,15.703655" id="Fill-11" fill="#000000"></path>
                    <path d="M17.296125,1.994465 C17.296125,2.439965 17.301625,2.885465 17.294475,3.330415 C17.288425,3.695065 17.108575,3.908465 16.819825,3.917265 C16.520075,3.926065 16.320425,3.702215 16.318225,3.324915 C16.312725,2.433915 16.312725,1.543465 16.318225,0.652465 C16.320425,0.289465 16.503575,0.076065 16.792875,0.067815 C17.094825,0.059015 17.288975,0.279565 17.294475,0.658515 C17.301625,1.103465 17.296125,1.548965 17.296125,1.994465" id="Fill-13" fill="#000000"></path>
                    <path d="M27.74145,4.836315 C27.6287,5.012865 27.56875,5.154765 27.4681,5.257615 C26.83615,5.901115 26.19705,6.538565 25.5552,7.172165 C25.29835,7.425715 25.0173,7.436715 24.80665,7.221665 C24.6026,7.013765 24.6092,6.742615 24.849,6.500065 C25.498,5.842265 26.1558,5.193265 26.8081,4.538765 C26.98135,4.364965 27.19475,4.298415 27.3977,4.424365 C27.5363,4.510165 27.6199,4.684515 27.74145,4.836315" id="Fill-15" fill="#000000"></path>
                    <path d="M9.001575,6.912345 C8.894325,7.044895 8.808525,7.216495 8.669925,7.306695 C8.464225,7.440895 8.251375,7.364445 8.080875,7.194495 C7.564975,6.680795 7.049625,6.165995 6.534825,5.650645 C6.381375,5.497195 6.220775,5.349245 6.077225,5.186995 C5.889675,4.974695 5.897375,4.695845 6.078875,4.511045 C6.260375,4.326795 6.554625,4.303695 6.753725,4.497845 C7.446175,5.173245 8.128725,5.858545 8.807425,6.547145 C8.886075,6.626895 8.918525,6.751745 9.001575,6.912345" id="Fill-17" fill="#000000"></path>
                    <path d="M22.06875,3.179165 C21.8515,3.686265 21.69035,4.136165 21.4676,4.553065 C21.35595,4.763165 21.07435,4.802765 20.8934,4.655365 C20.7592,4.545915 20.62005,4.296215 20.6558,4.151565 C20.7559,3.744565 20.92915,3.352415 21.10515,2.969065 C21.2091,2.741915 21.45055,2.668215 21.6612,2.769415 C21.82125,2.845865 21.9285,3.032315 22.06875,3.179165" id="Fill-19" fill="#000000"></path>
                    <path d="M13.068605,4.297205 C12.907455,4.451755 12.795805,4.625005 12.639055,4.692655 C12.423455,4.785055 12.189155,4.707505 12.086305,4.480355 C11.916355,4.105805 11.766755,3.720805 11.636955,3.330305 C11.565455,3.115805 11.639705,2.880955 11.859155,2.816055 C12.030205,2.765455 12.353605,2.775355 12.410255,2.873255 C12.661605,3.308855 12.840905,3.785705 13.068605,4.297205" id="Fill-21" fill="#000000"></path>
                    <path d="M27.751295,11.472395 C27.605545,11.328295 27.423495,11.217745 27.348145,11.056595 C27.248045,10.843195 27.328345,10.607795 27.556045,10.503845 C27.920145,10.337745 28.296345,10.192545 28.676395,10.067695 C28.907945,9.991245 29.109245,10.090245 29.223645,10.310245 C29.338045,10.531345 29.307795,10.779395 29.099345,10.889395 C28.690145,11.104995 28.250145,11.261195 27.751295,11.472395" id="Fill-23" fill="#000000"></path>
                    <path d="M5.862505,11.47091 C5.363105,11.26026 4.918705,11.10901 4.518305,10.88076 C4.405005,10.81641 4.358255,10.51391 4.391805,10.34231 C4.438005,10.10416 4.673955,9.99086 4.904955,10.06346 C5.307005,10.18996 5.702455,10.34616 6.084705,10.52326 C6.297555,10.62226 6.361905,10.86041 6.265655,11.05786 C6.187005,11.21791 6.007155,11.32901 5.862505,11.47091" id="Fill-25" fill="#000000"></path>
                    <path d="M16.81482,14.1266343 C15.59987,14.12389 14.59997,15.12104 14.60767,16.32774 C14.61537,17.52949 15.59767,18.50739 16.79942,18.5101436 C18.01712,18.51234 19.01372,17.51904 19.00547,16.31014 C18.99777,15.10839 18.01547,14.12939 16.81482,14.1266343 M16.78622,19.490826 C15.05152,19.48309 13.63032,18.05749 13.6270124,16.32279 C13.62317,14.56499 15.07682,13.13004 16.84397,13.14599 C18.57702,13.16139 19.99932,14.60349 19.98612,16.33159 C19.97347,18.08719 18.54347,19.49904 16.78622,19.490826" id="Fill-31" fill="#000000"></path>
                </g>
            </g>
        </g>
    </g>
</svg>