<svg xmlns="http://www.w3.org/2000/svg" width="36" height="26" fill-rule="evenodd" xmlns:v="https://vecta.io/nano"><circle fill="#cfa6a1" opacity=".5" cx="11.5" cy="14.085" r="11.5"/><g fill-rule="nonzero"><path d="M27.5 24h-13c-1.38-.002-2.498-1.12-2.5-2.5v-17a.5.5 0 0 1 .146-.354l4-4A.5.5 0 0 1 16.5 0h11c1.38.002 2.498 1.12 2.5 2.5V7h-1V2.5A1.5 1.5 0 0 0 27.5 1H16.707L13 4.707V21.5a1.5 1.5 0 0 0 1.5 1.5h13a1.5 1.5 0 0 0 1.5-1.5V19h1v2.5c-.002 1.38-1.12 2.498-2.5 2.5h0z"/><path d="M15.5 5h-1V4h1a.5.5 0 0 0 .5-.5v-3h1v3A1.5 1.5 0 0 1 15.5 5h0zM28 4.5h-1v-1a.5.5 0 0 0-.5-.5h-1V2h1A1.5 1.5 0 0 1 28 3.5v1zM23.5 2h1v1h-1zm2.505 17.008c-2.717 0-5.095-1.826-5.798-4.45s.444-5.394 2.797-6.753 5.325-.968 7.247.954h0a6 6 0 0 1-4.246 10.25h0zm0-11.005a5 5 0 1 0 3.539 1.464h0a4.99 4.99 0 0 0-3.54-1.464h0zM34.5 23a1.49 1.49 0 0 1-1.06-.438L30.6 19.73a.5.5 0 0 1 0-.707l1.415-1.416a.5.5 0 0 1 .707 0l2.832 2.832a1.5 1.5 0 0 1 0 2.121h0a1.5 1.5 0 0 1-1.062.44h0zm.354-1.146l.355.35-.354-.354a.5.5 0 0 0 0-.707l-2.48-2.478-.7.7 2.478 2.48a.5.5 0 0 0 .708 0l.002.001z"/><path d="M33.083 21.5l1.416-1.416.707.707-1.416 1.416zm-3.538-4.248l.707-.707 1.77 1.77-.707.707zM30 13h-1c-.002-1.656-1.344-2.998-3-3V9c2.208.002 3.998 1.792 4 4zm-4 2a2 2 0 1 1 0-4 2 2 0 1 1 0 4zm0-3a1 1 0 1 0 0 2 1 1 0 1 0 0-2z"/><path d="M23.147 10.854l.707-.707 1.5 1.5-.707.707zm-4-4l.707-.707 1.5 1.5-.707.707z"/><path d="M19 7.5a1.5 1.5 0 1 1 1.061-.439A1.5 1.5 0 0 1 19 7.5h0zm0-2a.5.5 0 1 0 0 1 .5.5 0 1 0 0-1zM19 21a1.5 1.5 0 1 1 0-3 1.5 1.5 0 1 1 0 3h0zm0-2a.5.5 0 1 0 0 1 .5.5 0 1 0 0-1z"/><path d="M23.146 15.146l1.5-1.5.707.707-1.5 1.5zm-4 3.5l1.5-1.5.707.707-1.5 1.5z"/></g></svg>