<svg width="44" height="32" xmlns="http://www.w3.org/2000/svg"><g fill-rule="nonzero" fill="none"><path d="M.726 2.224v27.597c0 .802.65 1.453 1.453 1.453h39.217c.802 0 1.452-.65 1.452-1.453V9.486h-7.262c-.802 0-1.453-.65-1.453-1.452V.772H2.18c-.802 0-1.453.65-1.453 1.452z" fill="#D8DFF5"/><path d="M35.586 9.486h7.262L34.133.772v7.262c0 .802.65 1.452 1.453 1.452z" fill="#ABBCF2"/><g fill="#6882DA"><path d="M34.18.055c-.017 0-.03-.01-.047-.01H2.18A2.179 2.179 0 000 2.225V29.82C0 31.025.975 32 2.179 32h39.217a2.179 2.179 0 002.178-2.179V9.486a.727.727 0 00-.212-.513L34.647.258a.726.726 0 00-.213-.145c-.022-.01-.045-.016-.068-.024a.672.672 0 00-.187-.034zm7.216 30.493H2.179a.726.726 0 01-.727-.727V2.224c0-.4.326-.726.727-.726h31.228v6.536c0 1.203.976 2.179 2.179 2.179h6.536V29.82a.726.726 0 01-.726.727zm-.3-21.788h-5.51a.726.726 0 01-.726-.726v-5.51l6.235 6.236z"/><path d="M16.454 9.748h10.769a.726.726 0 000-1.453H16.454a.726.726 0 000 1.453zM16.49 15.51h21.408a.726.726 0 000-1.453H16.49a.726.726 0 000 1.452zM38.287 26.984a.726.726 0 000-1.452H5.436a.726.726 0 100 1.452h32.85zM38.258 21.277a.726.726 0 000-1.453H5.408a.726.726 0 100 1.453h32.85zM6.386 12.118H8.01v-1.04H6.386c-.684 0-1.027-.226-1.027-.68 0-.442.343-.664 1.027-.664h.918L5.143 6.345a5.419 5.419 0 01-.34-.578.894.894 0 01-.08-.382c0-.25.076-.452.227-.604a.799.799 0 01.59-.227c.245 0 .444.075.596.224.152.15.329.39.53.722l2.335 3.657 2.088-3.448.245-.422c.087-.147.171-.272.253-.376a.991.991 0 01.309-.257.892.892 0 01.436-.1c.241 0 .438.073.589.22a.72.72 0 01.228.538c0 .169-.03.323-.092.462-.06.14-.155.316-.285.528L10.69 9.734h.919c.678 0 1.018.222 1.018.665 0 .453-.34.679-1.018.679H9.977v1.04h1.632c.678 0 1.018.226 1.018.679 0 .443-.34.665-1.018.665H9.977v.577c0 .978-.326 1.466-.977 1.466-.66 0-.99-.489-.99-1.466v-.577H6.385c-.684 0-1.026-.223-1.026-.665 0-.452.342-.679 1.027-.679z"/></g></g></svg>