<?xml version="1.0" encoding="UTF-8"?>
<svg width="28px" height="23px" viewBox="0 0 28 23" version="1.1" xmlns="http://www.w3.org/2000/svg" xmlns:xlink="http://www.w3.org/1999/xlink">
    <!-- Generator: Sketch 63.1 (92452) - https://sketch.com -->
    <title>Group 6</title>
    <desc>Created with Sketch.</desc>
    <g id="Page-1" stroke="none" stroke-width="1" fill="none" fill-rule="evenodd">
        <g id="Artboard" transform="translate(-322.000000, -553.000000)">
            <g id="Group-6" transform="translate(322.000000, 552.000000)">
                <circle id="Oval-Copy-20" fill="#FFEDA2" cx="11.5" cy="12.5" r="11.5"></circle>
                <g id="Group-3" transform="translate(8.000000, 0.000000)">
                    <g id="noun_local_3266028" transform="translate(4.000000, 1.000000)" fill="#000000" fill-rule="nonzero">
                        <path d="M7.99828043,0 C3.58391658,0 0,3.67611063 0,8.20056632 C0,10.5829477 1.9754141,13.4879997 3.90434829,15.8801494 C5.83326838,18.2722991 7.75992704,20.1134947 7.75992704,20.1134947 C7.8950861,20.2428702 8.10491071,20.2428702 8.24006977,20.1134947 C8.24006977,20.1134947 10.1667282,18.2722991 12.0956488,15.8801494 C14.0245827,13.4879997 16,10.5829477 16,8.20056632 C16,3.67611471 12.4126622,0 7.99828043,0 Z M7.99828043,0.720929341 C12.0325127,0.720929341 15.2966136,4.06573239 15.2966136,8.20056632 C15.2966136,10.1478277 13.4484493,13.0690812 11.5529989,15.4197095 C9.7771504,17.6220108 8.21561302,19.1134971 7.99828043,19.3235687 C7.77998056,19.1125352 6.22223443,17.6212642 4.44700099,15.4197095 C2.551548,13.0690812 0.703387356,10.1478277 0.703387356,8.20056632 C0.703387356,4.06573239 3.9640658,0.720929341 7.99828043,0.720929341 Z M8.01133353,3.54973168 C7.93203748,3.54749962 7.85433363,3.57280648 7.79083922,3.62154301 L3.88374433,6.57495456 C3.77951955,6.65024018 3.7232004,6.77743571 3.73654275,6.90740605 C3.74988511,7.03737638 3.83079999,7.14977246 3.94803031,7.20117613 C4.06526063,7.25257981 4.20045199,7.23494297 4.30138054,7.15507865 L4.88592876,6.71294784 L4.88592876,6.86501729 L4.88592876,10.2922446 C4.88518716,10.4913176 5.04202177,10.6533239 5.23625073,10.6541187 L7.19391834,10.6541187 L8.80607847,10.6541187 L10.7637491,10.6541187 C10.9579769,10.6533221 11.1148095,10.4913163 11.1140679,10.2922446 L11.1140679,6.86501729 L11.1140679,6.71365083 L11.6979321,7.15507865 C11.7990324,7.23182535 11.9324161,7.24741593 12.0477798,7.19597065 C12.1631435,7.14452537 12.2429359,7.03387099 12.2570646,6.9057391 C12.2711933,6.77760721 12.2175088,6.6514915 12.1162573,6.57495456 L8.20915945,3.62154301 C8.1518833,3.57752998 8.08286772,3.55247737 8.01133167,3.54973168 L8.01133353,3.54973168 Z M7.99828043,4.3586643 L10.4099956,6.18140368 L10.4099956,6.23420973 L10.4099956,6.86502274 L10.4099956,9.93319481 L9.15639699,9.93319481 L9.15639699,8.00414169 C9.15600177,7.80589451 8.99950077,7.64517518 8.80607847,7.6443807 L7.19391834,7.6443807 C7.00049604,7.64517518 6.84399504,7.80589451 6.84359982,8.00414169 L6.84359982,9.93319481 L5.58931598,9.93319481 L5.58931598,6.86501729 L5.58931598,6.23420428 L5.58931598,6.18139823 L7.99828043,4.3586643 Z M7.54698705,8.36601575 L8.45300976,8.36601575 L8.45300976,9.93318936 L7.54698705,9.93318936 L7.54698705,8.36601575 Z" id="Shape"></path>
                    </g>
                    <rect id="Rectangle" x="0" y="0" width="24" height="24"></rect>
                </g>
            </g>
        </g>
    </g>
</svg>