<svg xmlns="http://www.w3.org/2000/svg" width="17" height="17" fill-rule="nonzero" xmlns:v="https://vecta.io/nano"><path d="M.225 3.298a.9.9 0 0 1 1.35-1.188L3.05 3.802 6.56.265c.228-.228.56-.317.873-.234s.555.327.64.64a.9.9 0 0 1-.234.873l-4.185 4.21a1.19 1.19 0 0 1-.18.108.28.28 0 0 1-.1.054.83.83 0 0 1-.324.063.9.9 0 0 1-.36-.036l-.108-.072c-.065-.03-.126-.07-.18-.117h0L.225 3.298z" fill="#262626"/><path d="M9 5.404h6.3a.9.9 0 1 0 0-1.8H9a.9.9 0 1 0 0 1.8zm6.3 3.6H.9a.9.9 0 0 0-.9.9.9.9 0 0 0 .9.9h14.4a.9.9 0 1 0 0-1.8zm0 5.4H.9a.9.9 0 0 0-.9.9.9.9 0 0 0 .9.9h14.4a.9.9 0 1 0 0-1.8z"/></svg>