<svg width="38" height="32" viewBox="0 0 38 32" fill="none" xmlns="http://www.w3.org/2000/svg">
<g id="Group 62">
<circle id="Oval Copy 18" opacity="0.5" cx="16" cy="16" r="16" fill="#D6CFF0"/>
<path id="&#239;&#138;&#187;" d="M35.75 2.5C36.3594 2.5 36.875 2.73438 37.3438 3.15625C37.7656 3.625 38 4.14062 38 4.75V21.25C38 21.9062 37.7656 22.4219 37.3438 22.8438C36.875 23.3125 36.3594 23.5 35.75 23.5H13.25C12.5938 23.5 12.0781 23.3125 11.6562 22.8438C11.1875 22.4219 11 21.9062 11 21.25V4.75C11 4.14062 11.1875 3.625 11.6562 3.15625C12.0781 2.73438 12.5938 2.5 13.25 2.5H35.75ZM35.75 21.25V4.75H13.25V21.25H35.75ZM20.75 13C19.9062 13 19.2031 12.7188 18.6406 12.1094C18.0312 11.5469 17.75 10.8438 17.75 10C17.75 9.20312 18.0312 8.5 18.6406 7.89062C19.2031 7.32812 19.9062 7 20.75 7C21.5469 7 22.25 7.32812 22.8594 7.89062C23.4219 8.5 23.75 9.20312 23.75 10C23.75 10.8438 23.4219 11.5469 22.8594 12.1094C22.25 12.7188 21.5469 13 20.75 13ZM16.5312 19C16.25 19 15.9688 18.9531 15.7812 18.7656C15.5938 18.5781 15.5 18.3906 15.5 18.1094V17.2188C15.5 16.4688 15.7812 15.8594 16.3906 15.2969C17 14.7812 17.75 14.5 18.6406 14.5C18.7812 14.5 18.9688 14.5469 19.25 14.6406C19.7188 14.8281 20.2344 14.875 20.75 14.875C21.2188 14.875 21.7344 14.8281 22.25 14.6406C22.5312 14.5469 22.7188 14.5 22.8594 14.5C23.7031 14.5 24.4531 14.7812 25.0625 15.2969C25.6719 15.8594 26 16.4688 26 17.2188V18.1094C26 18.3906 25.8594 18.5781 25.6719 18.7656C25.4844 18.9531 25.25 19 24.9688 19H16.5312ZM27.875 16C27.7812 16 27.6875 16 27.5938 15.9062C27.5 15.8125 27.5 15.7188 27.5 15.625V14.875C27.5 14.7812 27.5 14.7344 27.5938 14.6406C27.6875 14.5469 27.7812 14.5 27.875 14.5H33.125C33.2188 14.5 33.2656 14.5469 33.3594 14.6406C33.4531 14.7344 33.5 14.7812 33.5 14.875V15.625C33.5 15.7188 33.4531 15.8125 33.3594 15.9062C33.2656 16 33.2188 16 33.125 16H27.875ZM27.875 13C27.7812 13 27.6875 13 27.5938 12.9062C27.5 12.8125 27.5 12.7188 27.5 12.625V11.875C27.5 11.7812 27.5 11.7344 27.5938 11.6406C27.6875 11.5469 27.7812 11.5 27.875 11.5H33.125C33.2188 11.5 33.2656 11.5469 33.3594 11.6406C33.4531 11.7344 33.5 11.7812 33.5 11.875V12.625C33.5 12.7188 33.4531 12.8125 33.3594 12.9062C33.2656 13 33.2188 13 33.125 13H27.875ZM27.875 10C27.7812 10 27.6875 10 27.5938 9.90625C27.5 9.8125 27.5 9.71875 27.5 9.625V8.875C27.5 8.78125 27.5 8.73438 27.5938 8.64062C27.6875 8.54688 27.7812 8.5 27.875 8.5H33.125C33.2188 8.5 33.2656 8.54688 33.3594 8.64062C33.4531 8.73438 33.5 8.78125 33.5 8.875V9.625C33.5 9.71875 33.4531 9.8125 33.3594 9.90625C33.2656 10 33.2188 10 33.125 10H27.875Z" fill="black"/>
</g>
</svg>
