<svg width="37" height="32" viewBox="0 0 37 32" fill="none" xmlns="http://www.w3.org/2000/svg">
<g id="Group 84" clip-path="url(#clip0)">
<circle id="Oval Copy 18" opacity="0.5" cx="16" cy="16" r="16" fill="#D6CFF0"/>
<path id="comment-alt-lines" d="M14.1719 15.3281C14.1719 19.0781 16.4219 21.5625 19.9375 21.5625C21.5781 21.5625 23.2656 20.9531 24.2969 19.9688L23.6406 18.5625C22.4219 19.5 21.2969 19.9219 20.125 19.9219C17.6406 19.9219 16.1875 18.2344 16.1875 15.3281C16.1875 12.375 17.6406 10.6406 20.125 10.6406C21.2969 10.6406 22.4219 11.0625 23.6406 12.0469L24.2969 10.5938C23.3125 9.60938 21.6719 9 20.0312 9C16.4688 9 14.1719 11.5781 14.1719 15.3281ZM26.6406 15.2812C26.6406 19.0781 28.8906 21.5625 32.3125 21.5625C35.7812 21.5625 38.0312 19.0781 38.0312 15.2812C38.0312 11.4844 35.7812 9 32.3125 9C28.8906 9 26.6406 11.4844 26.6406 15.2812ZM36.0625 15.2812C36.0625 18.3281 34.75 19.9219 32.3125 19.9219C29.9219 19.9219 28.6094 18.3281 28.6094 15.2812C28.6094 12.3281 29.9688 10.6406 32.3125 10.6406C34.6562 10.6406 36.0625 12.3281 36.0625 15.2812ZM58.4688 13.7812C58.4688 10.5938 57.1094 9 54.4844 9C52.6562 9 51.1562 9.9375 50.4531 11.3438C49.8438 9.75 48.6719 9 46.75 9C44.9688 9 43.6094 9.89062 42.9062 11.4375L42.7188 9.28125H40.8906C40.9844 10.3125 41.0781 11.4375 41.0781 12.7031V21.375H43V14.4844C43 12.0938 44.2656 10.6406 46.3281 10.6406C48.0625 10.6406 48.8125 11.6719 48.8125 13.875V21.375H50.7812V14.4844C50.7812 12.0938 52 10.6406 54.0156 10.6406C55.7969 10.6406 56.5469 11.625 56.5469 13.875V21.375H58.4688V13.7812ZM79.4219 13.7812C79.4219 10.5938 78.0625 9 75.4375 9C73.6094 9 72.1094 9.9375 71.4062 11.3438C70.7969 9.75 69.625 9 67.7031 9C65.9219 9 64.5625 9.89062 63.8594 11.4375L63.6719 9.28125H61.8438C61.9375 10.3125 62.0312 11.4375 62.0312 12.7031V21.375H63.9531V14.4844C63.9531 12.0938 65.2188 10.6406 67.2812 10.6406C69.0156 10.6406 69.7656 11.6719 69.7656 13.875V21.375H71.7344V14.4844C71.7344 12.0938 72.9531 10.6406 74.9688 10.6406C76.75 10.6406 77.5 11.625 77.5 13.875V21.375H79.4219V13.7812ZM93.0625 14.9062C93.0625 11.25 91.1406 9 87.9531 9C84.625 9 82.2812 11.5781 82.2812 15.2812C82.2812 19.1719 84.5312 21.5625 88.3281 21.5625C90.0156 21.5625 91.7969 20.9062 92.875 19.9219L92.2188 18.5156C91.0469 19.4531 89.7344 19.9219 88.3281 19.9219C85.6562 19.9219 84.25 18.3281 84.25 15.2812H93.0625V14.9062ZM84.2969 14.0156C84.6719 11.8125 85.9375 10.5469 87.9531 10.5469C89.9688 10.5469 91.1406 11.7188 91.3281 14.0156H84.2969ZM106.469 13.7812C106.469 10.5938 105.016 9 102.109 9C100.234 9 98.6875 9.89062 97.9375 11.4844L97.75 9.28125H95.9219C96.0156 10.3125 96.1094 11.4375 96.1094 12.7031V21.375H98.0312V14.4844C98.0312 12.1406 99.5312 10.6406 101.734 10.6406C103.656 10.6406 104.547 11.6719 104.547 13.875V21.375H106.469V13.7812ZM116.078 9.28125H112.609V5.53125L110.688 6.1875V9.28125H108.344V10.8281H110.688V17.7188C110.688 20.2031 112.047 21.5625 114.344 21.5625C114.953 21.5625 115.516 21.4688 116.031 21.2812V19.6406C115.609 19.7812 115.188 19.875 114.719 19.875C113.406 19.875 112.609 19.2188 112.609 17.4375V10.8281H116.078V9.28125ZM124.797 14.1094H118V15.75H124.797V14.1094ZM137.125 11.3906C136.375 9.89062 134.922 9 133.047 9C129.859 9 127.703 11.5781 127.703 15.3281C127.703 19.0781 129.812 21.5625 133.047 21.5625C134.922 21.5625 136.422 20.7188 137.125 19.1719V21.375H139.047V9.28125H137.125V11.3906ZM137.125 15.2812C137.125 18.2344 135.812 19.9219 133.422 19.9219C131.031 19.9219 129.672 18.2812 129.672 15.3281C129.672 12.375 131.031 10.6406 133.422 10.6406C135.812 10.6406 137.125 12.2812 137.125 15.2812ZM144.016 3.70312H142.094V21.375H144.016V3.70312ZM153.812 9.28125H150.344V5.53125L148.422 6.1875V9.28125H146.078V10.8281H148.422V17.7188C148.422 20.2031 149.781 21.5625 152.078 21.5625C152.688 21.5625 153.25 21.4688 153.766 21.2812V19.6406C153.344 19.7812 152.922 19.875 152.453 19.875C151.141 19.875 150.344 19.2188 150.344 17.4375V10.8281H153.812V9.28125ZM162.531 14.1094H155.734V15.75H162.531V14.1094ZM177.016 12.6094C177.016 12.5156 176.922 12.4219 176.828 12.4688H176.312C176.219 12.4688 176.172 12.5156 176.172 12.6094V14.5781L174.625 12.5156C174.625 12.4688 174.578 12.4688 174.531 12.4688H173.969C173.875 12.4688 173.828 12.5156 173.828 12.6094V15.9375C173.828 16.0312 173.875 16.0781 173.969 16.0781H174.531C174.578 16.0781 174.672 16.0312 174.672 15.9375V13.9688L176.172 16.0312C176.219 16.0312 176.266 16.0781 176.312 16.0781H176.828C176.922 16.0781 177.016 16.0312 177.016 15.9375V12.6094ZM173.172 12.4219H172.609C172.516 12.4219 172.469 12.5156 172.469 12.6094V15.9375C172.469 16.0312 172.516 16.0781 172.609 16.0781H173.172C173.219 16.0781 173.312 16.0312 173.312 15.9375V12.6094C173.312 12.5156 173.219 12.4219 173.172 12.4219ZM171.859 15.2344H170.406V12.6094C170.406 12.5156 170.359 12.4219 170.266 12.4219H169.703C169.656 12.4219 169.562 12.5156 169.562 12.6094V15.9375C169.562 15.9844 169.609 15.9844 169.609 16.0312C169.656 16.0312 169.656 16.0781 169.703 16.0781H171.859C171.953 16.0781 172 15.9844 172 15.9375V15.375C172 15.3281 171.953 15.2344 171.859 15.2344ZM179.828 12.4219H177.672C177.578 12.4219 177.531 12.5156 177.531 12.6094V15.9375C177.531 15.9844 177.578 16.0781 177.672 16.0781H179.828C179.875 16.0781 179.969 16.0312 179.969 15.9375V15.375C179.969 15.3281 179.875 15.2344 179.828 15.2344H178.375V14.6719H179.828C179.875 14.6719 179.969 14.625 179.969 14.5312V13.9688C179.969 13.9219 179.875 13.8281 179.828 13.8281H178.375V13.2656H179.828C179.875 13.2656 179.969 13.2188 179.969 13.125V12.6094C179.969 12.5156 179.875 12.4219 179.828 12.4219ZM185.266 8.34375C185.266 6.23438 183.531 4.54688 181.469 4.5H168.062C165.953 4.5 164.266 6.23438 164.266 8.29688V21.7031C164.219 23.8125 165.953 25.5 168.062 25.5H181.422C183.531 25.5469 185.219 23.8125 185.266 21.7031V8.34375ZM182.359 14.1094C182.359 15.4688 181.844 16.6875 180.719 17.9062C179.125 19.7812 175.516 22.0312 174.719 22.3594C173.875 22.6875 174.016 22.125 174.062 21.9375C174.25 20.7188 174.344 20.3906 173.453 20.2031C169.797 19.7344 167.078 17.1562 167.078 14.1094C167.078 10.6875 170.5 7.875 174.719 7.875C178.938 7.875 182.359 10.6875 182.359 14.1094ZM186.391 19.9688C187.562 21 189.156 21.5625 191.219 21.5625C194.125 21.5625 195.953 20.2031 195.953 18.0938C195.953 16.4062 194.875 15.375 192.625 14.8125L190.609 14.2969C189.297 14.0156 188.734 13.4531 188.734 12.4688C188.734 11.2969 189.719 10.5938 191.453 10.5938C192.719 10.5938 193.938 11.0625 195.062 12L195.719 10.5938C194.688 9.5625 193.141 9 191.453 9C188.641 9 186.812 10.5 186.812 12.6094C186.812 14.2031 187.938 15.375 189.953 15.8438L192.016 16.3125C193.469 16.6875 194.078 17.2031 194.078 18.1406C194.078 19.3125 193.094 19.9688 191.312 19.9688C189.625 19.9688 188.359 19.5938 187.047 18.5625L186.391 19.9688Z" fill="black"/>
</g>
<defs>
<clipPath id="clip0">
<rect width="37" height="32" fill="white"/>
</clipPath>
</defs>
</svg>
