<?xml version="1.0" encoding="UTF-8"?>
<svg width="80px" height="72px" viewBox="0 0 80 72" version="1.1" xmlns="http://www.w3.org/2000/svg" xmlns:xlink="http://www.w3.org/1999/xlink">
    <title>2F56AD07-ECEC-42EF-865D-9B06FBB98FD0</title>
    <g id="Page-1" stroke="none" stroke-width="1" fill="none" fill-rule="evenodd">
        <g id="Translation-(With-AI-component)" transform="translate(-776.000000, -2372.000000)">
            <g id="Group-99" transform="translate(-101.000000, 2180.000000)">
                <g id="Group-75" transform="translate(101.000000, 0.000000)">
                    <g id="Group-74" transform="translate(100.000000, 0.000000)">
                        <g id="Group-42">
                            <g id="Group-109" transform="translate(0.000000, 157.000000)">
                                <g id="Group-113" transform="translate(676.000000, 35.000000)">
                                    <circle id="Oval" fill="#F5DE90" cx="36" cy="36" r="36"></circle>
                                    <g id="noun_books_137038" transform="translate(11.000000, 12.000000)" fill="#000000" fill-rule="nonzero">
                                        <path d="M68.5145484,25.2530584 L66.7861662,24.1560299 L66.7861662,19.167369 L68.1307853,18.9361114 C68.5608896,18.862398 68.8997597,18.5292425 68.9808568,18.0999705 C69.0619539,17.6706985 68.8679001,17.2363678 68.49355,17.0108916 L40.4491557,0.150041597 C40.2341036,0.0199591747 39.979227,-0.0270150333 39.7323152,0.0149004138 L12.8696217,4.63499444 C12.5821614,4.68413669 12.3374219,4.85035312 12.1810203,5.08233344 C12.1795722,5.08450148 12.178124,5.0873922 12.1766758,5.08956024 C12.1433681,5.14014785 12.1136808,5.19434886 12.089062,5.25071791 C12.0861657,5.25722203 12.0832694,5.26300347 12.080373,5.26950759 C12.0550302,5.33021272 12.0340318,5.39380857 12.0202743,5.45957246 C12.0072408,5.52316832 12.0028963,5.58676417 12.0021722,5.65036002 C12.0021722,5.65686414 12,5.66336826 12,5.66987238 L12,13.560094 C12,13.6128496 12.0079649,13.6641599 12.0152057,13.7147475 C11.9456939,14.118003 12.1173012,14.5422163 12.4851345,14.7756419 L39.3659301,31.837397 C39.5360892,31.9429083 39.7308671,32 39.9285413,32 C39.9879159,32 40.0472906,31.9956639 40.1066653,31.9848237 L68.1307853,27.167438 C68.555821,27.0922793 68.893967,26.7649052 68.9794086,26.3414146 C69.0648502,25.9164787 68.8794854,25.484316 68.5145484,25.2530584 Z M14.0947673,7.56763038 L38.8634176,23.2866458 L38.8634176,29.0384569 L14.0947673,13.3187188 L14.0947673,7.56763038 Z M40.9574608,26.9188361 L64.692123,22.8833902 L64.692123,23.4889962 L40.9574608,27.5215513 L40.9574608,26.9188361 Z M64.6928471,22.4598997 L40.9581849,26.4939001 L40.9581849,25.8897396 L64.6928471,21.8550164 L64.6928471,22.4598997 Z M40.9574608,27.9457645 L64.692123,23.9132094 L64.692123,24.51737 L40.9574608,28.5499251 L40.9574608,27.9457645 Z M64.6928471,21.4315259 L40.9574608,25.4648036 L40.9574608,24.8606431 L64.692123,20.8266426 L64.692123,21.4315259 L64.6928471,21.4315259 Z M40.9574608,28.9763064 L64.692123,24.9423059 L64.692123,25.6353562 L40.9574608,29.7156081 L40.9574608,28.9763064 Z M64.6928471,20.4031521 L40.9581849,24.4371525 L40.9581849,23.6089611 L64.6928471,19.5279864 L64.6928471,20.4031521 Z M39.703352,2.14030266 L65.0027539,17.3519966 L40.1493861,21.6252041 L15.8977298,6.23500824 L39.703352,2.14030266 Z" id="Shape"></path>
                                        <path d="M66.5147933,45.2000971 L64.7864036,44.0942205 L64.7864036,39.0645945 L66.1303044,38.8314716 C66.5604106,38.7571637 66.9000062,38.4220495 66.9811037,37.9878582 C67.0614771,37.5565809 66.8681465,37.118747 66.4923467,36.8921807 L52.849147,28.6206897 L53.1445735,31.2600777 L63.0029836,37.2360369 L38.148784,41.542982 L33.4921967,38.5633803 L32.2322897,38.7651773 L30.451766,39.1148616 L36.8620859,43.2156387 L36.8620859,49.0152987 L12.0940523,33.1680427 L12.0940523,30.2394366 L10.6574687,29.3586693 L10,28 L10,33.4113647 C10,33.4638174 10.008689,33.5155415 10.0152058,33.5665372 C9.94641775,33.9737737 10.1180258,34.4006799 10.4851366,34.6367169 L37.3660487,51.8346285 C37.5347603,51.9424478 37.7309872,52 37.9279382,52 C37.9873131,52 38.0466881,51.9941719 38.106063,51.9847013 L66.1303044,47.1270034 C66.5560661,47.0526955 66.8942136,46.7226809 66.9796555,46.2957746 C67.0643734,45.8688684 66.8797319,45.43322 66.5147933,45.2000971 Z M62.6916273,45.5854784 L38.9575863,49.6986401 L38.9575863,48.9519184 L62.6916273,44.8853813 L62.6916273,45.5854784 Z M62.6916273,44.458475 L38.9575863,48.5235551 L38.9575863,47.9152501 L62.6916273,43.848713 L62.6916273,44.458475 Z M62.6916273,43.4203497 L38.9575863,47.4868868 L38.9575863,46.8793103 L62.6916273,42.8113162 L62.6916273,43.4203497 Z M62.6916273,42.3844099 L38.9568622,46.4509471 L38.9568622,45.8419136 L62.6909032,41.7753764 L62.6909032,42.3844099 L62.6916273,42.3844099 Z M62.6916273,41.3484701 L38.9575863,45.4135503 L38.9575863,44.8045168 L62.6916273,40.7379796 L62.6916273,41.3484701 Z M62.6916273,40.3110733 L38.9575863,44.3761535 L38.9575863,43.5420107 L62.6916273,39.428849 L62.6916273,40.3110733 Z" id="Shape"></path>
                                        <path d="M56.5140784,34.1506983 L54.7857106,33.0367879 L54.7857106,29.5299513 L52.6909607,29.789717 L52.6909607,30.2696231 L28.956496,34.3642345 L28.956496,33.7522442 L49.9590246,30.1279994 L41.1484761,31.2169606 L28.956496,33.320769 L28.956496,32.4805665 L40.0638113,30.5411296 L37.3680789,28.8570555 L28.1484279,30.4662818 L3.89769743,14.8392486 L13.5517936,13.1537069 L13.5517936,11 L0.869614454,13.2138786 C0.582880629,13.2637771 0.338143173,13.4325514 0.181018829,13.6681017 C0.179570678,13.6703031 0.178122528,13.6732383 0.176674377,13.6754397 C0.143366913,13.7268058 0.113679825,13.7818409 0.0890612639,13.8390774 C0.0861649626,13.8456816 0.082544586,13.8522858 0.0803723601,13.85889 C0.055029724,13.9205293 0.0340315398,13.98437 0.0202741088,14.051146 C0.00796482848,14.1157205 0.00289630126,14.180295 0.00217222595,14.2448695 C0.00217222595,14.2514737 0,14.2580779 0,14.2646821 L0,22.2763251 C0,22.3298926 0.00868890379,22.3819925 0.0152055816,22.4326248 C-0.0543056487,22.8428198 0.118024276,23.2728273 0.485130462,23.5091114 L27.3657025,40.8334271 C27.5351361,40.9420297 27.7306364,41 27.9275849,41 C27.9876832,41 28.0470574,40.9941296 28.1064315,40.9845902 L56.1303185,36.0916029 C56.5560748,36.0167551 56.8942179,35.6843431 56.9796588,35.2528679 C57.0643756,34.8228604 56.8797364,34.3855148 56.5140784,34.1506983 Z M26.8631942,37.9943497 L2.09474989,22.0312355 L2.09474989,16.1916444 L26.8631942,32.1525573 L26.8631942,37.9943497 Z M52.6916848,34.5388792 L28.95722,38.6826554 L28.95722,37.930509 L52.6916848,33.83443 L52.6916848,34.5388792 Z M52.6916848,33.4036886 L28.95722,37.4983 L28.95722,36.8848421 L52.6916848,32.7887631 L52.6916848,33.4036886 Z M52.6916848,32.3587555 L28.95722,36.4533669 L28.95722,35.839909 L52.6916848,31.74383 L52.6916848,32.3587555 Z M52.6916848,31.3145562 L28.95722,35.4091676 L28.95722,34.7957097 L52.6916848,30.6996307 L52.6916848,31.3145562 Z" id="Shape"></path>
                                    </g>
                                </g>
                            </g>
                        </g>
                    </g>
                </g>
            </g>
        </g>
    </g>
</svg>