<?xml version="1.0" encoding="UTF-8"?>
<svg width="78px" height="64px" viewBox="0 0 78 64" version="1.1" xmlns="http://www.w3.org/2000/svg" xmlns:xlink="http://www.w3.org/1999/xlink">
    <title>Group 15 Copy</title>
    <g id="Explorations" stroke="none" stroke-width="1" fill="none" fill-rule="evenodd">
        <g id="Topfold-pes-changes-" transform="translate(-281.000000, -2963.000000)">
            <g id="Group-15-Copy" transform="translate(281.000000, 2963.000000)">
                <circle id="Oval-Copy-18" fill="#D8CEF3" cx="31.855824" cy="31.855824" r="31.855824"></circle>
                <path d="M73.0624218,57.2499851 C75.6503062,57.2499851 77.7499106,55.1503807 77.7499106,52.5624963 L77.7499106,20.1309711 C77.7499106,18.8907206 77.2519031,17.6895707 76.3729989,16.8106665 L68.1796209,8.61728855 C67.3007168,7.73838439 66.1092943,7.24037685 64.8690438,7.24037685 L44.9374888,7.24037685 C42.3496044,7.25010431 40.25,9.34970868 40.25,11.9375931 L40.25,52.5624963 C40.25,55.1503807 42.3496044,57.2499851 44.9374888,57.2499851 L73.0624218,57.2499851 Z M73.0624218,54.1249925 L44.9374888,54.1249925 C44.0781349,54.1249925 43.3749925,53.4218502 43.3749925,52.5624963 L43.3749925,11.9375931 C43.3749925,11.0782393 44.0781349,10.3750969 44.9374888,10.3750969 L62.1249478,10.3750969 L62.1249478,20.5313226 C62.1249478,21.8301286 63.1698863,22.8750671 64.4686923,22.8750671 L74.624918,22.8750671 L74.624918,52.5624963 C74.624918,53.4218502 73.9217756,54.1249925 73.0624218,54.1249925 Z M74.57609,19.7500745 L65.2499404,19.7500745 L65.2499404,10.4239249 C65.5233582,10.4923032 65.7674982,10.6289644 65.9726331,10.8340992 L74.1659157,19.0273818 C74.3710505,19.2325167 74.5077117,19.4766567 74.57609,19.7500745 Z M66.3437069,33.1093986 L67.9452083,31.5078971 C68.521417,30.9316885 68.521417,30.0039563 67.9452083,29.4375705 L66.4999183,27.9922805 C65.9335325,27.4160719 65.0058004,27.4160719 64.4295917,27.9922805 L62.8280902,29.593782 C62.6523285,29.7695437 62.6523285,30.0430569 62.8280902,30.2188186 L65.7186702,33.1093986 C65.894432,33.2851603 66.1679451,33.2851603 66.3437069,33.1093986 Z M50.6308156,46.3027837 L53.5703189,45.8827866 L64.546798,34.9063074 C64.7225598,34.7305457 64.7225598,34.4570325 64.546798,34.2812708 L61.656218,31.3906908 C61.4804563,31.2149291 61.2069431,31.2149291 61.0311814,31.3906908 L50.0547023,42.3671699 L49.6347051,45.3066733 C49.5565994,45.8926094 50.0547023,46.3808895 50.6308156,46.3027837 Z" id="ffile-edit" fill="#262626" fill-rule="nonzero"></path>
            </g>
        </g>
    </g>
</svg>