<?xml version="1.0" encoding="UTF-8"?>
<svg width="78px" height="64px" viewBox="0 0 78 64" version="1.1" xmlns="http://www.w3.org/2000/svg" xmlns:xlink="http://www.w3.org/1999/xlink">
    <title>Group 4</title>
    <g id="Explorations" stroke="none" stroke-width="1" fill="none" fill-rule="evenodd">
        <g id="Topfold-pes-changes-" transform="translate(-1105.000000, -2963.000000)">
            <g id="Group-4" transform="translate(1105.000000, 2963.000000)">
                <circle id="Oval-Copy-18" fill="#C2F4EA" cx="31.8" cy="31.8" r="31.8"></circle>
                <g id="Group-3" transform="translate(41.600000, 8.400000)" fill="#262626" fill-rule="nonzero">
                    <path d="M31.4999249,47.9999857 C33.984294,47.9999857 35.9999142,45.9843655 35.9999142,43.4999964 L35.9999142,12.3657323 C35.9999142,11.1750918 35.5218269,10.0219879 34.6780789,9.17823987 L26.8124361,1.31259701 C25.9686881,0.468849018 24.8249225,-0.00923822084 23.634282,-0.00923822084 L4.49998927,-0.00923822084 C2.01562019,0.000100135803 0,2.01572033 0,4.50008941 L0,43.4999964 C0,45.9843655 2.01562019,47.9999857 4.49998927,47.9999857 L31.4999249,47.9999857 Z M31.4999249,44.9999928 L4.49999285,44.9999928 C3.67500955,44.9999928 2.99999285,44.3249761 2.99999285,43.4999964 L2.99999285,4.50009298 C2.99999285,3.67510968 3.67500955,3.00009298 4.49999285,3.00009298 L20.9999499,3.00009298 L20.9999499,12.7500697 C20.9999499,13.9969235 22.0030909,15.0000644 23.2499446,15.0000644 L32.9999213,15.0000644 L32.9999213,43.4999964 C32.9999213,44.3249761 32.3249046,44.9999928 31.4999249,44.9999928 Z M32.9530464,12.0000715 L23.9999428,12.0000715 L23.9999428,3.04696787 C24.2624238,3.11261103 24.4967983,3.24380578 24.6937277,3.44073524 L32.5592791,11.3062866 C32.7562085,11.503216 32.8874033,11.7375905 32.9530464,12.0000715 Z" id="ffile"></path>
                    <path d="M15.2503864,24.362999 L15.2503864,22.6885128 L20.023028,22.6885128 L20.023028,24.362999 L22.2036315,24.362999 L22.2036315,22.6885128 L26.749984,22.6885128 L26.749984,20.7748144 L22.2036315,20.7748144 L22.2036315,19.2 L20.023028,19.2 L20.023028,20.7748144 L15.2503864,20.7748144 L15.2503864,19.2 L13.0697829,19.2 L13.0697829,20.7748144 L8.52343039,20.7748144 L8.52343039,22.6885128 L13.0697829,22.6885128 L13.0697829,24.362999 L15.2503864,24.362999 Z M25.8653996,37.85856 L27.05856,35.9847303 C23.4173636,35.027881 21.0310428,33.7720164 19.9201693,32.1972021 L26.8528427,32.1972021 L26.8528427,30.2635692 L24.4870936,30.2635692 L24.4870936,25.41952 L18.727009,25.41952 L18.727009,23.7649682 L16.5464055,23.7649682 L16.5464055,25.41952 L10.7451773,25.41952 L10.7451773,30.2635692 L8.42057173,30.2635692 L8.42057173,32.1972021 L15.2298147,32.1972021 C15.0858126,32.4364144 14.9212387,32.6556923 14.7360931,32.8949046 C13.6457914,34.1308349 11.5269031,35.1873559 8.4,36.024599 L9.57258867,37.8386256 C12.6994918,37.0013826 14.9623822,35.8252554 16.3612599,34.2903097 C16.8755532,33.6723446 17.3075595,32.9746421 17.6778507,32.1972021 L17.7189941,32.1972021 C18.8092959,34.5494564 21.5247644,36.4232862 25.8653996,37.85856 Z M16.0938274,30.2635692 L12.8434939,30.2635692 L12.8434939,27.3531528 L16.5464055,27.3531528 L16.5464055,27.6521682 C16.4846903,28.5691487 16.3406882,29.4462605 16.0938274,30.2635692 Z M22.3887771,30.2635692 L18.3567178,30.2635692 C18.5418634,29.4661949 18.6652938,28.6090174 18.727009,27.6521682 L18.727009,27.3531528 L22.3887771,27.3531528 L22.3887771,30.2635692 Z" id="英"></path>
                </g>
            </g>
        </g>
    </g>
</svg>