<svg xmlns="http://www.w3.org/2000/svg" width="78" height="78" xmlns:v="https://vecta.io/nano"><path d="M41.972.13a1.62 1.62 0 0 1 1.622 1.622V7.43h5.677a1.62 1.62 0 0 1 1.622 1.622v6.488a1.62 1.62 0 0 1-1.622 1.622h-5.677v5.677a1.62 1.62 0 0 1-1.622 1.622h-1.264v20.127a11.01 11.01 0 0 1 7.1-2.586h2.016c.903 0 1.635.732 1.635 1.635v2.016c0 5.995-4.794 10.9-10.75 11.056v2.924a1.53 1.53 0 0 1-.142.645c-.125.756-.783 1.336-1.576 1.34-3.525.01-6.393 2.887-6.392 6.412 0 1.7.67 3.322 1.88 4.534a6.37 6.37 0 0 0 9.067 0 6.37 6.37 0 0 0 1.879-4.534V68a1.59 1.59 0 0 1 1.597-1.61h.006a1.61 1.61 0 0 1 1.596 1.452l.007.145v.04a9.53 9.53 0 0 1-.757 3.743c-.484 1.146-1.177 2.175-2.06 3.06a9.54 9.54 0 0 1-3.06 2.06 9.53 9.53 0 0 1-3.355.749l-.388.008a9.56 9.56 0 0 1-3.745-.757 9.59 9.59 0 0 1-3.057-2.06 9.57 9.57 0 0 1-2.06-3.06c-.502-1.185-.757-2.445-.757-3.743a9.54 9.54 0 0 1 .753-3.737 9.56 9.56 0 0 1 2.054-3.054 9.58 9.58 0 0 1 3.048-2.063c.668-.284 1.358-.5 2.066-.615l-.001-2.245a1.63 1.63 0 0 1-.565-1.236V53.06a11.06 11.06 0 0 1 .565-3.493V42h-.255c-6.1 0-11.06-4.962-11.06-11.06v-2.016c0-.903.732-1.635 1.635-1.635h2.016c2.973 0 5.676 1.18 7.666 3.095l-.001-5.925h-1.83a1.62 1.62 0 0 1-1.622-1.622V17.16h-5.677a1.62 1.62 0 0 1-1.622-1.622V9.05a1.62 1.62 0 0 1 1.622-1.622h5.677V1.752A1.62 1.62 0 0 1 35.484.13h6.488zm15.145 54.884c3.12 0 5.658 2.538 5.658 5.658s-2.538 5.658-5.658 5.658-5.658-2.538-5.658-5.658 2.538-5.658 5.658-5.658zm-12.46 5.723a1.59 1.59 0 0 1 1.13.465l.002.002a1.59 1.59 0 0 1 .473 1.13c.002.428-.165.83-.467 1.135a1.59 1.59 0 0 1-.977.467l-.16.008c-.426-.002-.827-.165-1.13-.465l-.002-.002c-.304-.3-.473-.704-.473-1.132s.164-.83.465-1.135a1.59 1.59 0 0 1 1.137-.473zm12.46-2.5a2.43 2.43 0 0 0-2.425 2.425 2.43 2.43 0 0 0 2.425 2.425 2.43 2.43 0 0 0 2.425-2.425 2.43 2.43 0 0 0-2.425-2.425zm-45.83-20.773a1.62 1.62 0 0 1 1.418.84l3.202 5.855 5.855 3.202c.518.283.84.827.84 1.418s-.323 1.135-.84 1.418L15.907 53.4l-3.202 5.855c-.283.518-.827.84-1.418.84s-1.135-.322-1.418-.84L6.666 53.4.8 50.208c-.518-.283-.84-.827-.84-1.418s.323-1.135.84-1.418l5.855-3.202 3.202-5.855c.283-.518.827-.84 1.418-.84zm0 4.986l-2 3.677c-.148.27-.37.494-.643.643L4.956 48.8l3.677 2c.27.148.494.37.643.643l2 3.677 2-3.677c.148-.27.37-.494.643-.643l3.677-2-3.677-2c-.27-.148-.494-.37-.643-.643l-2-3.677zm36.903 2.8h-.38c-3.153 0-5.875 1.883-7.1 4.584v3.583a7.8 7.8 0 0 0 7.48-7.785v-.38zm17.98-25.902a1.62 1.62 0 0 1 1.418.84l3.202 5.855 5.855 3.202c.518.283.84.827.84 1.418s-.322 1.135-.84 1.418L70.8 35.304l-3.202 5.855a1.61 1.61 0 0 1-1.418.84c-.59 0-1.135-.322-1.418-.84l-3.202-5.855-5.855-3.202a1.62 1.62 0 0 1-.84-1.418c0-.6.322-1.135.84-1.418l5.855-3.202 3.202-5.855c.283-.518.827-.84 1.418-.84zm-36.522 11.2h-.38v.38a7.8 7.8 0 0 0 7.79 7.79h.255l.001-1.774c-.66-3.634-3.846-6.398-7.667-6.398zm36.522-6.205l-2 3.677c-.148.27-.37.494-.643.643l-3.677 2 3.677 2c.27.148.494.37.643.643l2 3.677 2-3.677c.148-.27.37-.494.643-.643l3.677-2-3.677-2c-.27-.148-.494-.37-.643-.643l-2-3.677zm-50.923-11.2c3.12 0 5.658 2.538 5.658 5.658s-2.538 5.658-5.658 5.658S9.59 21.92 9.59 18.8s2.538-5.658 5.658-5.658zm0 3.233a2.43 2.43 0 0 0-2.425 2.425 2.43 2.43 0 0 0 2.425 2.425 2.43 2.43 0 0 0 2.425-2.425 2.43 2.43 0 0 0-2.425-2.425zM40.35 3.374h-3.244V9.05a1.62 1.62 0 0 1-1.622 1.622h-5.677v3.244h5.677a1.62 1.62 0 0 1 1.622 1.622v5.677l1.188-.001a1.77 1.77 0 0 1 .717-.15 1.77 1.77 0 0 1 .717.15l.622.001V15.54a1.62 1.62 0 0 1 1.622-1.622h5.677v-3.244h-5.677a1.62 1.62 0 0 1-1.622-1.622V3.374z" fill="#1f9071" style="mix-blend-mode:multiply" opacity=".5"/></svg>