<?xml version="1.0" encoding="UTF-8"?>
<svg width="40px" height="40px" viewBox="0 0 40 40" version="1.1" xmlns="http://www.w3.org/2000/svg" xmlns:xlink="http://www.w3.org/1999/xlink">
    <title>Group 14</title>
    <defs>
        <polygon id="path-1" points="0 0 39.3845908 0 39.3845908 39.3846154 0 39.3846154"></polygon>
    </defs>
    <g id="Final" stroke="none" stroke-width="1" fill="none" fill-rule="evenodd">
        <g id="360pc-mobile" transform="translate(-300.000000, -736.000000)">
            <g id="Group-11" transform="translate(20.000000, 736.000000)">
                <g id="Group-14" transform="translate(280.000000, 0.000000)">
                    <g id="Group-3">
                        <mask id="mask-2" fill="white">
                            <use xlink:href="#path-1"></use>
                        </mask>
                        <g id="Clip-2"></g>
                        <path d="M30.5058215,39.3846154 L8.87874462,39.3846154 C3.97523692,39.3846154 -2.46153846e-05,35.4094769 -2.46153846e-05,30.5058462 L-2.46153846e-05,8.87889231 C-2.46153846e-05,3.97526154 3.97523692,0 8.87874462,0 L30.5058215,0 C35.4094523,0 39.3845908,3.97526154 39.3845908,8.87889231 L39.3845908,30.5058462 C39.3845908,35.4094769 35.4094523,39.3846154 30.5058215,39.3846154" id="Fill-1" fill="#06C755" mask="url(#mask-2)"></path>
                    </g>
                    <path d="M32.8191754,17.8368615 C32.8191754,11.9612923 26.9288369,7.18098462 19.6882215,7.18098462 C12.4484677,7.18098462 6.55739077,11.9612923 6.55739077,17.8368615 C6.55739077,23.1044308 11.2288985,27.5158769 17.5390523,28.3498462 C17.9664985,28.4422769 18.5486523,28.6318154 18.6958523,28.9973538 C18.8282831,29.3292923 18.7824985,29.8494154 18.7383138,30.1846769 C18.7383138,30.1846769 18.5843446,31.1112 18.5508677,31.3087385 C18.4936369,31.6405538 18.2869908,32.6070769 19.6882215,32.0166769 C21.0898215,31.4261538 27.2501908,27.5638769 30.0051446,24.3931692 L30.0045292,24.3931692 C31.9074215,22.3061538 32.8191754,20.1883692 32.8191754,17.8368615" id="Fill-4" fill="#FFFFFF"></path>
                    <path d="M28.4508431,21.2296123 L24.7666585,21.2296123 L24.7617354,21.2296123 C24.6232738,21.2296123 24.5110277,21.1173662 24.5110277,20.9789046 L24.5110277,20.9748431 L24.5110277,20.9744738 L24.5110277,15.2541046 L24.5110277,15.2537354 L24.5110277,15.24832 C24.5110277,15.1098585 24.6232738,14.9976123 24.7617354,14.9976123 L24.7666585,14.9976123 L28.4508431,14.9976123 C28.5888123,14.9976123 28.7015508,15.1103508 28.7015508,15.24832 L28.7015508,16.17952 C28.7015508,16.3179815 28.5893046,16.4302277 28.4508431,16.4302277 L25.9437662,16.4302277 L25.9437662,17.3972431 L28.4508431,17.3972431 C28.5888123,17.3972431 28.7015508,17.5101046 28.7015508,17.6479508 L28.7015508,18.5791508 C28.7015508,18.7177354 28.5893046,18.8299815 28.4508431,18.8299815 L25.9437662,18.8299815 L25.9437662,19.7969969 L28.4508431,19.7969969 C28.5888123,19.7969969 28.7015508,19.9098585 28.7015508,20.0477046 L28.7015508,20.9789046 C28.7015508,21.1173662 28.5893046,21.2296123 28.4508431,21.2296123" id="Fill-6" fill="#06C755"></path>
                    <path d="M14.8048246,21.2296123 C14.9432862,21.2296123 15.0555323,21.1173662 15.0555323,20.9789046 L15.0555323,20.0477046 C15.0555323,19.9098585 14.9426708,19.7969969 14.8048246,19.7969969 L12.2976246,19.7969969 L12.2976246,15.24832 C12.2976246,15.1103508 12.1848862,14.9976123 12.0469169,14.9976123 L11.1157169,14.9976123 C10.9772554,14.9976123 10.8650092,15.1098585 10.8650092,15.24832 L10.8650092,20.9744738 L10.8650092,20.9748431 L10.8650092,20.9789046 C10.8650092,21.1173662 10.9772554,21.2296123 11.1157169,21.2296123 L11.12064,21.2296123 L14.8048246,21.2296123 Z" id="Fill-8" fill="#06C755"></path>
                    <path d="M17.0256615,14.9975508 L16.0944615,14.9975508 C15.956,14.9975508 15.8437538,15.1097969 15.8437538,15.2482585 L15.8437538,20.9789662 C15.8437538,21.1173046 15.956,21.2295508 16.0944615,21.2295508 L17.0256615,21.2295508 C17.1641231,21.2295508 17.2763692,21.1173046 17.2763692,20.9789662 L17.2763692,15.2482585 C17.2763692,15.1097969 17.1641231,14.9975508 17.0256615,14.9975508" id="Fill-10" fill="#06C755"></path>
                    <path d="M23.3651815,14.9975508 L22.4339815,14.9975508 C22.29552,14.9975508 22.1832738,15.1097969 22.1832738,15.2482585 L22.1832738,18.6519508 L19.5613662,15.1111508 C19.5552123,15.1020431 19.54832,15.0934277 19.5411815,15.0851815 C19.5406892,15.0845662 19.5400738,15.0840738 19.5395815,15.0833354 C19.5346585,15.07792 19.5297354,15.0727508 19.5244431,15.0677046 C19.5228431,15.0663508 19.5212431,15.0648738 19.5197662,15.06352 C19.5153354,15.0594585 19.5107815,15.0556431 19.5061046,15.0519508 C19.5038892,15.0502277 19.5016738,15.0486277 19.4993354,15.0469046 C19.4950277,15.0438277 19.4905969,15.0407508 19.4860431,15.0377969 C19.4835815,15.0361969 19.4809969,15.0345969 19.4784123,15.03312 C19.4738585,15.0304123 19.4693046,15.0278277 19.4645046,15.0254892 C19.46192,15.0241354 19.4592123,15.0229046 19.4566277,15.0216738 C19.4518277,15.0194585 19.4469046,15.0172431 19.4419815,15.0152738 C19.4392738,15.0142892 19.4364431,15.0133046 19.4337354,15.01232 C19.4286892,15.0105969 19.4236431,15.0088738 19.4185969,15.00752 C19.4156431,15.0066585 19.4125662,15.00592 19.4096123,15.0051815 C19.4046892,15.0039508 19.3997662,15.0028431 19.39472,15.0019815 C19.3912738,15.0012431 19.3877046,15.0007508 19.3841354,15.0002585 C19.3795815,14.9996431 19.3751508,14.9990277 19.3705969,14.9986585 C19.3660431,14.9982892 19.3616123,14.9981662 19.3571815,14.9980431 C19.3543508,14.99792 19.35152,14.9975508 19.3485662,14.9975508 L18.4225354,14.9975508 C18.2840738,14.9975508 18.1718277,15.1097969 18.1718277,15.2482585 L18.1718277,20.9789662 C18.1718277,21.1173046 18.2840738,21.2295508 18.4225354,21.2295508 L19.3537354,21.2295508 C19.4921969,21.2295508 19.6044431,21.1173046 19.6044431,20.9789662 L19.6044431,17.5762585 L22.2296738,21.1216123 C22.2477662,21.1472123 22.2697969,21.1680123 22.2942892,21.1847508 C22.2952738,21.1853662 22.2962585,21.1861046 22.2972431,21.18672 C22.3022892,21.1901662 22.3075815,21.1932431 22.3129969,21.19632 C22.3153354,21.1976738 22.3177969,21.1990277 22.3202585,21.2002585 C22.3241969,21.2023508 22.3282585,21.20432 22.3324431,21.2061662 C22.3365046,21.2080123 22.3405662,21.2097354 22.3447508,21.2114585 C22.3473354,21.2124431 22.3500431,21.2134277 22.3526277,21.2144123 C22.3582892,21.2163815 22.3640738,21.2182277 22.3699815,21.2199508 C22.3710892,21.2201969 22.37232,21.2205662 22.3735508,21.2208123 C22.3944738,21.2263508 22.4163815,21.2295508 22.4390277,21.2295508 L23.3651815,21.2295508 C23.5036431,21.2295508 23.6158892,21.1173046 23.6158892,20.9789662 L23.6158892,15.2482585 C23.6158892,15.1097969 23.5036431,14.9975508 23.3651815,14.9975508" id="Fill-12" fill="#06C755"></path>
                </g>
            </g>
        </g>
    </g>
</svg>