<svg width="28" height="28" viewBox="0 0 28 28" fill="none" xmlns="http://www.w3.org/2000/svg">
<path d="M28 12.0217C28 5.75713 21.7199 0.660563 13.9999 0.660563C6.28094 0.660563 0 5.75713 0 12.0217C0 17.6379 4.98063 22.3412 11.7084 23.2307C12.1644 23.3289 12.7849 23.5313 12.9419 23.9209C13.0831 24.2749 13.0342 24.8294 12.987 25.1869C12.987 25.1869 12.8227 26.1748 12.7873 26.3852C12.7264 26.7392 12.5061 27.7695 13.9999 27.1399C15.4942 26.5103 22.0626 22.3925 24.9998 19.0117H24.9992C27.0282 16.7868 28 14.5289 28 12.0217Z" fill="#00B900"/>
<path d="M11.1555 8.9945H10.1735C10.0229 8.9945 9.90051 9.11662 9.90051 9.26664V15.367C9.90051 15.5173 10.0229 15.6391 10.1735 15.6391H11.1555C11.306 15.6391 11.4281 15.5173 11.4281 15.367V9.26664C11.4281 9.11662 11.306 8.9945 11.1555 8.9945Z" fill="white"/>
<path d="M17.9146 8.9945H16.9326C16.782 8.9945 16.6599 9.11662 16.6599 9.26664V12.8909L13.8644 9.11554C13.858 9.10588 13.8507 9.09676 13.8432 9.0879L13.8413 9.08629C13.836 9.08012 13.8306 9.07475 13.825 9.06938C13.8234 9.06777 13.8218 9.06643 13.8199 9.06482C13.8153 9.06053 13.8105 9.0565 13.8054 9.05274C13.8032 9.0506 13.8008 9.04899 13.7984 9.04711C13.7936 9.04389 13.789 9.0404 13.7842 9.03745C13.7815 9.03557 13.7788 9.03396 13.7759 9.03262C13.771 9.02966 13.7662 9.02671 13.7614 9.0243C13.7584 9.02295 13.7557 9.02134 13.7528 9.02027C13.7477 9.01785 13.7426 9.01544 13.7372 9.01356C13.734 9.01249 13.7313 9.01141 13.7284 9.01034C13.723 9.00846 13.7176 9.00658 13.712 9.00524C13.709 9.00417 13.7058 9.00363 13.7026 9.00256C13.6972 9.00148 13.6921 9.00014 13.687 8.99907C13.6833 8.99853 13.6792 8.99799 13.6755 8.99773C13.6707 8.99665 13.6658 8.99638 13.661 8.99585C13.6564 8.99531 13.6519 8.99531 13.647 8.99504C13.6435 8.99504 13.6409 8.9945 13.6374 8.9945H12.6556C12.5051 8.9945 12.3827 9.11662 12.3827 9.26664V15.367C12.3827 15.5173 12.5051 15.6391 12.6556 15.6391H13.6374C13.7882 15.6391 13.9103 15.5173 13.9103 15.367V11.7438L16.7093 15.524C16.7286 15.5513 16.7525 15.5736 16.7785 15.5913C16.7793 15.5919 16.7804 15.5927 16.7812 15.5935C16.7868 15.597 16.7925 15.6005 16.7981 15.6037C16.8008 15.6053 16.8032 15.6064 16.8059 15.6077C16.8099 15.6101 16.8145 15.6123 16.8188 15.6141C16.8233 15.616 16.8274 15.6179 16.8322 15.6198C16.8349 15.6208 16.8376 15.6219 16.8402 15.6227C16.8467 15.6251 16.8526 15.627 16.8588 15.6289C16.8601 15.6289 16.8614 15.6294 16.8628 15.6297C16.8851 15.6356 16.9084 15.6391 16.9326 15.6391H17.9146C18.0654 15.6391 18.1873 15.5173 18.1873 15.367V9.26664C18.1873 9.11662 18.0654 8.9945 17.9146 8.9945Z" fill="white"/>
<path d="M8.78826 14.1115H6.12001V9.26697C6.12001 9.11641 5.9979 8.9943 5.8476 8.9943H4.86533C4.71477 8.9943 4.59265 9.11641 4.59265 9.26697V15.3662V15.3668C4.59265 15.44 4.62191 15.5063 4.66887 15.5552C4.66995 15.5565 4.67102 15.5578 4.67263 15.5592C4.67397 15.5605 4.67531 15.5616 4.67666 15.5629C4.72577 15.6102 4.79179 15.6392 4.86506 15.6392H4.86533H8.78826C8.93883 15.6392 9.0604 15.5168 9.0604 15.3662V14.3842C9.0604 14.2336 8.93883 14.1115 8.78826 14.1115Z" fill="white"/>
<path d="M23.3377 10.5219C23.4883 10.5219 23.6098 10.4001 23.6098 10.2492V9.26724C23.6098 9.11668 23.4883 8.9943 23.3377 8.9943H19.4148H19.4142C19.3407 8.9943 19.2744 9.02382 19.2253 9.07132C19.2242 9.0724 19.2229 9.0732 19.2221 9.07428C19.2205 9.07589 19.2191 9.0775 19.2178 9.07911C19.1711 9.12795 19.1421 9.19397 19.1421 9.26697V9.26724V15.3665V15.3668C19.1421 15.44 19.1713 15.5063 19.2183 15.5552C19.2194 15.5565 19.2207 15.5581 19.2221 15.5592C19.2231 15.5605 19.2248 15.5619 19.2261 15.5629C19.2749 15.6099 19.3412 15.6392 19.4142 15.6392H19.4148H23.3377C23.4883 15.6392 23.6098 15.5168 23.6098 15.3665V14.3842C23.6098 14.2339 23.4883 14.1115 23.3377 14.1115H20.6697V13.0804H23.3377C23.4883 13.0804 23.6098 12.9583 23.6098 12.8077V11.8257C23.6098 11.6752 23.4883 11.5528 23.3377 11.5528H20.6697V10.5219H23.3377Z" fill="white"/>
</svg>
