<?xml version="1.0" encoding="UTF-8"?>
<svg width="33px" height="31px" viewBox="0 0 33 31" version="1.1" xmlns="http://www.w3.org/2000/svg" xmlns:xlink="http://www.w3.org/1999/xlink">
    <title>1724EE8F-8245-4DEA-A61E-75F4EB46C29A</title>
    <g id="Japan" stroke="none" stroke-width="1" fill="none" fill-rule="evenodd">
        <g id="360pc-mobile-translucent" transform="translate(-38.000000, -660.000000)">
            <g id="Group-11" transform="translate(17.000000, 650.000000)">
                <g id="Group-14" transform="translate(21.000000, 10.000000)">
                    <path d="M32.3292969,13.063344 C32.3292969,5.98061236 25.2287616,0.218168727 16.5005289,0.218168727 C7.77333469,0.218168727 0.671909236,5.98061236 0.671909236,13.063344 C0.671909236,19.4131593 6.30319942,24.7309571 13.9098031,25.7362691 C14.42507,25.8476902 15.12683,26.0761702 15.3042729,26.5168102 C15.4639121,26.9169469 15.4087209,27.5439316 15.3554583,27.9480742 C15.3554583,27.9480742 15.1698554,29.0649556 15.1295005,29.3030793 C15.0605114,29.7030676 14.8114089,30.8681673 16.5005289,30.1564669 C18.190094,29.4446182 25.6161391,24.7888189 28.9371107,20.9666749 L28.9363689,20.9666749 C31.2302191,18.4508727 32.3292969,15.8979796 32.3292969,13.063344" id="Fill-4" fill="#FFFFFF"></path>
                    <path d="M27.0634708,17.1531508 L22.6223537,17.1531508 L22.6164192,17.1531508 C22.4495101,17.1531508 22.3142025,17.0178432 22.3142025,16.8509341 L22.3142025,16.8460381 L22.3142025,16.845593 L22.3142025,9.94994793 L22.3142025,9.94950284 L22.3142025,9.94297484 C22.3142025,9.77606575 22.4495101,9.64075811 22.6164192,9.64075811 L22.6223537,9.64075811 L27.0634708,9.64075811 C27.2297865,9.64075811 27.3656876,9.7766592 27.3656876,9.94297484 L27.3656876,11.0654941 C27.3656876,11.2324032 27.2303799,11.3677108 27.0634708,11.3677108 L24.0413036,11.3677108 L24.0413036,12.5334039 L27.0634708,12.5334039 C27.2297865,12.5334039 27.3656876,12.6694534 27.3656876,12.8356207 L27.3656876,13.9581399 C27.3656876,14.1251974 27.2303799,14.260505 27.0634708,14.260505 L24.0413036,14.260505 L24.0413036,15.4261981 L27.0634708,15.4261981 C27.2297865,15.4261981 27.3656876,15.5622476 27.3656876,15.7284148 L27.3656876,16.8509341 C27.3656876,17.0178432 27.2303799,17.1531508 27.0634708,17.1531508" id="Fill-6" fill="#06C755"></path>
                    <path d="M10.6138159,17.1531508 C10.7807249,17.1531508 10.9160326,17.0178432 10.9160326,16.8509341 L10.9160326,15.7284148 C10.9160326,15.5622476 10.7799831,15.4261981 10.6138159,15.4261981 L7.59150022,15.4261981 L7.59150022,9.94297484 C7.59150022,9.7766592 7.45559913,9.64075811 7.28928349,9.64075811 L6.16676422,9.64075811 C5.99985513,9.64075811 5.86454749,9.77606575 5.86454749,9.94297484 L5.86454749,16.845593 L5.86454749,16.8460381 L5.86454749,16.8509341 C5.86454749,17.0178432 5.99985513,17.1531508 6.16676422,17.1531508 L6.17269876,17.1531508 L10.6138159,17.1531508 Z" id="Fill-8" fill="#06C755"></path>
                    <path d="M13.2909338,9.64068393 L12.1684145,9.64068393 C12.0015055,9.64068393 11.8661978,9.77599156 11.8661978,9.94290065 L11.8661978,16.8510083 C11.8661978,17.017769 12.0015055,17.1530767 12.1684145,17.1530767 L13.2909338,17.1530767 C13.4578429,17.1530767 13.5931505,17.017769 13.5931505,16.8510083 L13.5931505,9.94290065 C13.5931505,9.77599156 13.4578429,9.64068393 13.2909338,9.64068393" id="Fill-10" fill="#06C755"></path>
                    <path d="M20.932937,9.64068393 L19.8104177,9.64068393 C19.6435087,9.64068393 19.508201,9.77599156 19.508201,9.94290065 L19.508201,14.045897 L16.3476105,9.77762356 C16.3401923,9.76664465 16.3318839,9.7562592 16.3232788,9.74631884 C16.3226854,9.74557702 16.3219436,9.74498356 16.3213501,9.74409338 C16.3154156,9.73756538 16.309481,9.73133411 16.3031014,9.7252512 C16.3011727,9.7236192 16.2992439,9.72183884 16.2974636,9.72020684 C16.2921225,9.71531084 16.286633,9.71071156 16.2809952,9.70626065 C16.2783247,9.70418356 16.2756541,9.70225484 16.2728352,9.70017775 C16.2676425,9.69646865 16.2623014,9.69275956 16.2568119,9.68919884 C16.2538447,9.68727011 16.250729,9.68534138 16.2476134,9.68356102 C16.2421239,9.68029702 16.2366345,9.67718138 16.2308483,9.67436247 C16.2277327,9.67273047 16.2244687,9.67124684 16.221353,9.6697632 C16.2155668,9.66709265 16.2096323,9.66442211 16.2036977,9.66204829 C16.2004337,9.66086138 16.1970214,9.65967447 16.1937574,9.65848756 C16.1876745,9.65641047 16.1815916,9.65433338 16.1755087,9.65270138 C16.1719479,9.65166284 16.1682388,9.65077265 16.1646781,9.64988247 C16.1587436,9.64839884 16.152809,9.64706356 16.1467261,9.64602502 C16.1425719,9.64513484 16.1382694,9.64454138 16.1339668,9.64394793 C16.1284774,9.64320611 16.1231363,9.64246429 16.1176468,9.6420192 C16.1121574,9.64157411 16.1068163,9.64142575 16.1014752,9.64127738 C16.0980628,9.64112902 16.0946505,9.64068393 16.0910897,9.64068393 L14.9748017,9.64068393 C14.8078927,9.64068393 14.672585,9.77599156 14.672585,9.94290065 L14.672585,16.8510083 C14.672585,17.017769 14.8078927,17.1530767 14.9748017,17.1530767 L16.097321,17.1530767 C16.2642301,17.1530767 16.3995377,17.017769 16.3995377,16.8510083 L16.3995377,12.7491988 L19.5641341,17.0229617 C19.5859436,17.0538214 19.6125007,17.0788948 19.642025,17.0990723 C19.6432119,17.0998141 19.6443988,17.1007043 19.6455857,17.1014461 C19.6516687,17.1056003 19.6580483,17.1093094 19.6645763,17.1130185 C19.6673952,17.1146505 19.6703625,17.1162825 19.6733297,17.1177661 C19.6780774,17.1202883 19.6829734,17.1226621 19.6880177,17.1248876 C19.6929137,17.127113 19.6978097,17.1291901 19.7028541,17.1312672 C19.7059697,17.1324541 19.7092337,17.133641 19.7123494,17.1348279 C19.7191741,17.1372017 19.7261472,17.1394272 19.7332687,17.1415043 C19.7346039,17.141801 19.7360876,17.1422461 19.7375712,17.1425428 C19.762793,17.1492192 19.7892017,17.1530767 19.8165007,17.1530767 L20.932937,17.1530767 C21.0998461,17.1530767 21.2351537,17.017769 21.2351537,16.8510083 L21.2351537,9.94290065 C21.2351537,9.77599156 21.0998461,9.64068393 20.932937,9.64068393" id="Fill-12" fill="#06C755"></path>
                </g>
            </g>
        </g>
    </g>
</svg>