<svg xmlns="http://www.w3.org/2000/svg" width="16" height="16" xmlns:v="https://vecta.io/nano"><path d="M4.948 13.196H2.804V6.103h2.144v7.093zm.33-9.237A1.32 1.32 0 0 0 3.959 2.64a1.32 1.32 0 0 0-1.32 1.319 1.32 1.32 0 0 0 1.32 1.32 1.32 1.32 0 0 0 1.319-1.32zm7.918 5.314c0-1.914-.398-3.334-2.596-3.334-1.056 0-1.766.537-2.055 1.096h-.002v-.97h-2.1v7.132h2.1v-3.54c0-.927.232-1.826 1.362-1.826 1.115 0 1.15 1.06 1.15 1.885v3.482h2.14V9.272zM16 14.125V1.875A1.88 1.88 0 0 0 14.125 0H1.875A1.88 1.88 0 0 0 0 1.875v12.25A1.88 1.88 0 0 0 1.875 16h12.25A1.88 1.88 0 0 0 16 14.125zM14.22 1.32c.345 0 .626.28.626.626V14.22c0 .345-.28.626-.626.626H1.946c-.345 0-.626-.28-.626-.626V1.946c0-.345.28-.626.626-.626H14.22z" fill="#fff"/></svg>