<svg xmlns="http://www.w3.org/2000/svg" width="40" height="37" fill-rule="evenodd" xmlns:v="https://vecta.io/nano"><ellipse cx="17.565" cy="18.495" rx="17.565" ry="17.822" fill="#ae9fe1" opacity=".5"/><path d="M15.533 1.243c-1.773 0-3.227 1.448-3.272 3.238v22.663c0 1.828 1.47 3.32 3.272 3.32H29.93c1.8 0 3.272-1.492 3.272-3.32v-.924c.35-.1.694-.25 1.012-.425h.01l4.407 4.472a.65.65 0 0 0 .638.179.66.66 0 0 0 .466-.478.67.67 0 0 0-.184-.646l-4.25-4.315c1.12-1.034 1.83-2.52 1.83-4.172 0-2.53-1.66-4.672-3.927-5.386V7.22a.67.67 0 0 0-.072-.301c-.757-1.548-.833-3.033 0-4.722.098-.205.086-.447-.032-.64s-.326-.312-.55-.314H15.533zm0 1.328h16.085c-.144.443-.238.9-.286 1.328h-8.927a.6.6 0 0 0-.06 0c-.234.01-.444.148-.55.36s-.096.464.03.664a.65.65 0 0 0 .582.305h8.927a6.35 6.35 0 0 0 .276 1.328H15.533c-1.1 0-1.963-.877-1.963-1.992v-.062a1.96 1.96 0 0 1 1.963-1.93h0zM13.57 7.22a3.21 3.21 0 0 0 1.963.664h16.36V15.2h-.327c-3.064 0-5.563 2.535-5.563 5.645s2.498 5.645 5.563 5.645c.1 0 .217-.014.327-.02v.685c0 1.115-.864 1.992-1.963 1.992H15.533c-1.1 0-1.963-.877-1.963-1.992V7.22zm17.997 9.298c2.357 0 4.254 1.925 4.254 4.317s-1.897 4.317-4.254 4.317-4.254-1.925-4.254-4.317 1.897-4.317 4.254-4.317z" fill-rule="nonzero"/></svg>