<svg width="13" height="14" viewBox="0 0 13 14" fill="none" xmlns="http://www.w3.org/2000/svg">
<path d="M10.9375 6.125H10.2812V4.15625C10.2812 1.88672 8.39453 0 6.125 0C3.82812 0 1.96875 1.88672 1.96875 4.15625V6.125H1.3125C0.574219 6.125 0 6.72656 0 7.4375V12.6875C0 13.4258 0.574219 14 1.3125 14H10.9375C11.6484 14 12.25 13.4258 12.25 12.6875V7.4375C12.25 6.72656 11.6484 6.125 10.9375 6.125ZM8.09375 6.125H4.15625V4.15625C4.15625 3.08984 5.03125 2.1875 6.125 2.1875C7.19141 2.1875 8.09375 3.08984 8.09375 4.15625V6.125Z" fill="white"/>
</svg>
