<?xml version="1.0" encoding="UTF-8"?>
<svg width="20px" height="20px" viewBox="0 0 20 20" version="1.1" xmlns="http://www.w3.org/2000/svg" xmlns:xlink="http://www.w3.org/1999/xlink">
    <title>Artboard</title>
    <g id="Artboard" stroke="none" stroke-width="1" fill="none" fill-rule="evenodd" opacity="0.5">
        <g id="lock_black_24dp" transform="translate(2.000000, 0.000000)" fill="#262626" fill-rule="nonzero">
            <path d="M13.3333333,6.66666667 L12.3809524,6.66666667 L12.3809524,4.76190476 C12.3809524,2.13333333 10.247619,0 7.61904762,0 C4.99047619,0 2.85714286,2.13333333 2.85714286,4.76190476 L2.85714286,6.66666667 L1.9047619,6.66666667 C0.857142857,6.66666667 0,7.52380952 0,8.57142857 L0,18.0952381 C0,19.1428571 0.857142857,20 1.9047619,20 L13.3333333,20 C14.3809524,20 15.2380952,19.1428571 15.2380952,18.0952381 L15.2380952,8.57142857 C15.2380952,7.52380952 14.3809524,6.66666667 13.3333333,6.66666667 Z M7.61904762,15.2380952 C6.57142857,15.2380952 5.71428571,14.3809524 5.71428571,13.3333333 C5.71428571,12.2857143 6.57142857,11.4285714 7.61904762,11.4285714 C8.66666667,11.4285714 9.52380952,12.2857143 9.52380952,13.3333333 C9.52380952,14.3809524 8.66666667,15.2380952 7.61904762,15.2380952 Z M10.5714286,6.66666667 L4.66666667,6.66666667 L4.66666667,4.76190476 C4.66666667,3.13333333 5.99047619,1.80952381 7.61904762,1.80952381 C9.24761905,1.80952381 10.5714286,3.13333333 10.5714286,4.76190476 L10.5714286,6.66666667 Z" id="Shape"></path>
        </g>
    </g>
</svg>