<svg xmlns="http://www.w3.org/2000/svg" width="20" height="28" fill="none" fill-rule="evenodd" xmlns:v="https://vecta.io/nano"><path d="M2.17 1h15.2a1.17 1.17 0 0 1 1.171 1.167V26.7c0 .644-.36.787-.8.32l-7.163-7.565a1.09 1.09 0 0 0-1.602 0L1.8 27c-.442.467-.8.322-.8-.32V2.167A1.17 1.17 0 0 1 2.171 1h0z" stroke="#113dcd" stroke-width="1.333"/><path d="M9.765 13.134L7.142 15c-.486.344-.74.156-.57-.42l.924-3.114L4.95 9.5c-.47-.364-.374-.67.218-.682l3.195-.067 1.05-3.072c.194-.57.5-.57.704 0l1.05 3.072 3.195.067c.6.012.7.317.218.682l-2.546 1.966.924 3.114c.17.576-.084.765-.57.42l-2.623-1.857z" fill="#113dcd"/></svg>