<svg xmlns="http://www.w3.org/2000/svg" width="34" height="25" fill-rule="evenodd" xmlns:v="https://vecta.io/nano"><circle cx="11.5" cy="12.964" r="11.5" fill="#ffdc68" opacity=".5"/><path d="M33.854 4.968l-2.5-2.512a.5.5 0 0 0-.707 0l-.68.68C25.294-1.156 18-1.044 13.487 3.48A11.83 11.83 0 0 0 10 11.9a11.82 11.82 0 0 0 3.141 8.056l-.68.68a.5.5 0 0 0 0 .707l2.5 2.512a.5.5 0 0 0 .707 0l18.175-18.18a.5.5 0 0 0 .001-.707zM11 11.9a10.83 10.83 0 0 1 3.193-7.71C18.325.054 24.976-.06 29.248 3.843l-2.043 2.043a8.03 8.03 0 0 0-10.974.34 7.97 7.97 0 0 0-2.348 5.67 7.96 7.96 0 0 0 2.007 5.305l-2.043 2.043C12 17.234 11 14.644 11 11.9zm5.6 4.596c-1.1-1.276-1.716-2.9-1.716-4.596 0-1.875.73-3.638 2.055-4.964 2.617-2.618 6.803-2.73 9.557-.34l-9.897 9.9zm-1.273 6.298l-1.804-1.805L31 3.517l1.804 1.804-.45.45-.638-.638a.5.5 0 1 0-.707.707l.638.638-.88.88-.638-.638a.5.5 0 1 0-.707.707l.638.638-.88.88-1.2-1.2a.5.5 0 1 0-.707.708l1.2 1.2-.88.88-.638-.638a.5.5 0 1 0-.707.707l.638.638-.88.88-.638-.638a.5.5 0 1 0-.707.707l.638.638-.88.88-1.2-1.2a.5.5 0 1 0-.707.707l1.2 1.2-.88.88-.638-.638a.5.5 0 1 0-.707.707l.638.638-.88.88-.638-.638a.5.5 0 1 0-.707.707l.638.638-.88.88-1.2-1.2a.5.5 0 1 0-.707.707l1.2 1.2-.88.88-.638-.638a.5.5 0 1 0-.707.707l.638.638-.88.88-.638-.638a.5.5 0 1 0-.707.707l.638.638-.45.45z" fill-rule="nonzero"/></svg>