<svg xmlns="http://www.w3.org/2000/svg" width="76" height="76" xmlns:v="https://vecta.io/nano"><path d="M55.552 0a1.59 1.59 0 0 1 1.586 1.592v9.553a1.59 1.59 0 0 1-1.586 1.592H47.62v18.67l12.6 21.955c6.434 11.65 6.434 12.814 6.434 13.5a9.59 9.59 0 0 1-1.87 5.673l9.63.001c.874 0 1.583.774 1.583 1.728S75.3 76 74.417 76H1.583C.7 76 0 75.226 0 74.272s.7-1.728 1.583-1.728H11.4a9.57 9.57 0 0 1-1.858-5.673v-.068c.007-.664.2-2.156 5.888-13.4C19.997 44.4 25.867 33.532 27 31.438v-18.7h-7.93a1.59 1.59 0 0 1-1.586-1.592V1.592A1.59 1.59 0 0 1 19.069 0h36.483zm2.346 55.726h-40.07c-4.46 8.86-5.04 10.8-5.104 11.2a6.37 6.37 0 0 0 3.457 5.628l42.434-.002a1.56 1.56 0 0 1 .6-.432 1.32 1.32 0 0 1 .277-.083h.002l.002-.002a1.59 1.59 0 0 1 .274-.026 1.48 1.48 0 0 1 .79.232c1.773-1.144 2.904-3.138 2.923-5.303-.082-.42-.746-2.396-5.584-11.203zm-19.795 4.776c2.624 0 4.76 2.143 4.76 4.776s-2.135 4.776-4.76 4.776-4.76-2.143-4.76-4.776 2.135-4.776 4.76-4.776zm0 3.184a1.59 1.59 0 1 0 0 3.184 1.59 1.59 0 1 0 0-3.184zm6.345-50.95H30.172v19.106c0 .266-.066.528-.193.762L19.446 52.54h36.686L44.67 32.657c-.146-.246-.223-.527-.223-.814V12.737zM38.103 38.21c2.624 0 4.76 2.143 4.76 4.776s-2.135 4.776-4.76 4.776-4.76-2.143-4.76-4.776 2.135-4.776 4.76-4.776zm0 3.184a1.59 1.59 0 1 0 0 3.184 1.59 1.59 0 1 0 0-3.184zm27.76-12.737c.58 0 1.114.318 1.392.828l1.74 3.193 3.18 1.746A1.59 1.59 0 0 1 73 35.822c0 .582-.316 1.118-.825 1.397l-3.18 1.746-1.74 3.193c-.278.5-.812.828-1.392.828s-1.114-.317-1.392-.828l-1.74-3.193-3.18-1.746a1.59 1.59 0 0 1-.825-1.397c0-.582.316-1.118.825-1.397l3.18-1.746 1.74-3.193c.278-.5.812-.828 1.392-.828zm0 4.9l-.57 1.048a1.59 1.59 0 0 1-.631.633l-1.044.573 1.044.573a1.59 1.59 0 0 1 .631.633l.57 1.048.57-1.048a1.59 1.59 0 0 1 .631-.633l1.044-.573-1.044-.573a1.59 1.59 0 0 1-.631-.633l-.57-1.048zM11.138 15.126c.58 0 1.114.318 1.392.828l1.74 3.193 3.18 1.746a1.59 1.59 0 0 1 .825 1.397c0 .582-.316 1.118-.825 1.397l-3.18 1.746-1.74 3.193c-.278.5-.812.828-1.392.828s-1.114-.318-1.392-.828l-1.74-3.193-3.18-1.746c-.5-.28-.826-.815-.826-1.387s.316-1.118.825-1.397l3.18-1.746 1.74-3.193c.278-.5.812-.828 1.392-.828zm0 4.9l-.57 1.048a1.59 1.59 0 0 1-.631.633l-1.044.573 1.044.573a1.59 1.59 0 0 1 .631.633l.57 1.048.57-1.048a1.59 1.59 0 0 1 .631-.633l1.044-.573-1.044-.573a1.59 1.59 0 0 1-.631-.633l-.57-1.048zm42.828-16.85h-33.3v6.37h33.3v-6.37z" fill="#53338a"/></svg>