<svg width="40" height="32" viewBox="0 0 40 32" fill="none" xmlns="http://www.w3.org/2000/svg">
<g id="Group 63">
<circle id="Oval Copy 18" opacity="0.5" cx="16" cy="16" r="16" fill="#D6CFF0"/>
<path id="&#239;&#148;&#156;" d="M20.6406 16.0312C21.5312 16.0312 22.3281 16.2656 23.0781 16.7344C23.6875 17.1094 24.1562 17.6719 24.4844 18.3281C24.8125 18.9844 25 19.6875 25 20.3906V22.125C25 22.6875 24.8125 23.1094 24.4375 23.4844C24.0625 23.8594 23.6406 24 23.125 24H11.875C11.3125 24 10.8906 23.8594 10.5156 23.4844C10.1406 23.1094 10 22.6875 10 22.125V20.3906C10 19.8281 10.0938 19.2188 10.375 18.6094C10.6562 17.8594 11.125 17.2969 11.7344 16.8281C12.4375 16.3125 13.3281 16.0312 14.3594 16.0312C14.7812 16.0312 15.2969 16.125 15.8594 16.2656C16.4219 16.4531 16.9375 16.5 17.5 16.5C18.0156 16.5 18.5781 16.4531 19.1406 16.2656C19.7031 16.125 20.1719 16.0312 20.6406 16.0312ZM22.75 21.75V20.3906C22.75 19.9219 22.6094 19.4531 22.3281 19.0781C21.9531 18.5625 21.3906 18.2812 20.6406 18.2812C20.4062 18.2812 20.0781 18.375 19.6562 18.4688C18.9062 18.6562 18.1562 18.75 17.5 18.75C16.7969 18.75 16.0938 18.6562 15.3438 18.4688C14.875 18.375 14.5469 18.2812 14.3594 18.2812C13.6094 18.2812 13.0469 18.5625 12.6719 19.0781C12.3906 19.4531 12.25 19.9219 12.25 20.3906V21.75H22.75ZM17.5 15C16.2344 15 15.1562 14.5781 14.3125 13.6875C13.4219 12.8438 13 11.7656 13 10.5C13 9.28125 13.4219 8.20312 14.3125 7.3125C15.1562 6.46875 16.2344 6 17.5 6C18.7188 6 19.7969 6.46875 20.6875 7.3125C21.5312 8.20312 22 9.28125 22 10.5C22 11.7656 21.5312 12.8438 20.6875 13.6875C19.7969 14.5781 18.7188 15 17.5 15ZM17.5 8.25C16.8438 8.25 16.3281 8.48438 15.9062 8.90625C15.4375 9.375 15.25 9.89062 15.25 10.5C15.25 11.1562 15.4375 11.6719 15.9062 12.0938C16.3281 12.5625 16.8438 12.75 17.5 12.75C18.1094 12.75 18.625 12.5625 19.0938 12.0938C19.5156 11.6719 19.75 11.1562 19.75 10.5C19.75 9.89062 19.5156 9.375 19.0938 8.90625C18.625 8.48438 18.1094 8.25 17.5 8.25ZM37.75 0C38.3594 0 38.875 0.234375 39.3438 0.703125C39.7656 1.17188 40 1.6875 40 2.34375V17.1562C40 17.8125 39.7656 18.375 39.3438 18.8438C38.875 19.3125 38.3594 19.5 37.75 19.5H26.5V15C26.5 14.625 26.6406 14.25 26.9219 13.9688C27.2031 13.6875 27.5781 13.5 28 13.5H34C34.375 13.5 34.75 13.6875 35.0312 13.9688C35.3125 14.25 35.5 14.625 35.5 15V17.25H37.75V2.25H19.75V4.96875C19.375 4.82812 19 4.6875 18.5312 4.59375C18.1094 4.54688 17.7812 4.5 17.5 4.5V2.34375C17.5 1.6875 17.6875 1.17188 18.1562 0.703125C18.5781 0.234375 19.0938 0 19.75 0H37.75ZM33.25 17.25V15.75H28.75V17.25H33.25Z" fill="black"/>
</g>
</svg>
