<?xml version="1.0" encoding="UTF-8"?>
<svg width="55px" height="58px" viewBox="0 0 55 58" version="1.1" xmlns="http://www.w3.org/2000/svg" xmlns:xlink="http://www.w3.org/1999/xlink">
    <title>Group 46 Copy 3</title>
    <g id="Japan" stroke="none" stroke-width="1" fill="none" fill-rule="evenodd">
        <g id="MRE-PAGE--Desktop-view-2-CTA" transform="translate(-529.000000, -803.000000)">
            <g id="Group-27" transform="translate(-1.000000, 554.000000)">
                <g id="Group-46-Copy-3" transform="translate(530.000000, 249.000000)">
                    <rect id="Rectangle-Copy-10" x="0" y="0" width="54.8" height="54.8"></rect>
                    <g id="Group-25" transform="translate(1.740000, 0.370000)">
                        <g id="Group-23" transform="translate(22.000000, 27.000000)" fill-rule="nonzero">
                            <g id="Group-4-Copy" transform="translate(0.920000, 0.030000)">
                                <circle id="Oval" stroke="#0D37D5" stroke-width="0.959" cx="13.7" cy="13.7" r="13.7"></circle>
                                <circle id="Oval" cx="13.7" cy="13.7" r="12.8569231"></circle>
                                <path d="M6.26710555,19.1944149 C7.3288734,19.1944149 8.19913519,18.8744301 8.87789089,18.2344604 C9.5566466,17.5944908 9.89602446,16.7702874 9.89602446,15.7618503 C9.89602446,14.5303936 9.43059196,13.6407387 8.499727,13.0928859 C9.31423385,12.5207918 9.72148727,11.7208297 9.72148727,10.6929997 C9.72148727,9.78152771 9.41119896,9.03732057 8.7906223,8.46037821 C8.17004566,7.87858762 7.36765945,7.58769231 6.38346367,7.58769231 C5.4089644,7.58769231 4.6502125,7.83374125 4.10720793,8.32583914 C3.56420336,8.81793702 3.20543248,9.59244577 3.03089531,10.6493654 L4.71808806,10.6493654 C4.83929444,10.0966643 5.02352812,9.70395564 5.27078914,9.4712394 C5.52774665,9.24337141 5.89136579,9.12943741 6.36164653,9.12943741 C6.86586505,9.12943741 7.2755426,9.28215745 7.59067918,9.58759751 C7.91066401,9.88818934 8.07065642,10.2784739 8.07065642,10.7584511 C8.07065642,11.3790278 7.85006082,11.8299155 7.40886962,12.1111143 C7.16160861,12.2711067 6.67920722,12.3511029 5.96166548,12.3511029 L5.96166548,13.7983071 C6.62102817,13.7983071 7.1082778,13.8904238 7.42341438,14.0746576 C7.96157069,14.3946423 8.23064885,14.9327987 8.23064885,15.6891266 C8.23064885,16.2612206 8.05126342,16.7339254 7.69249253,17.1072411 C7.33372166,17.4708602 6.88040981,17.6526697 6.33255699,17.6526697 C5.78955243,17.6526697 5.34957329,17.5084342 5.01261955,17.2199631 C4.67566583,16.9314919 4.46355467,16.515754 4.37628608,15.9727494 L2.74,15.9727494 C2.81272382,16.7096842 2.98483688,17.2866266 3.25633916,17.7035765 C3.91085359,18.6974687 4.9144424,19.1944149 6.26710555,19.1944149 Z" id="Path-Copy-2" fill="#113DCD"></path>
                                <path d="M9.95179483,14.2306206 L10.3303346,17.4857486 C9.91839655,16.8996472 9.71242752,16.24046 9.71242752,15.508187 C9.71242752,15.0939564 9.79221662,14.668101 9.95179483,14.2306206 Z M14.7376439,7.35584615 L15.9812212,8.28671112 L13.2977121,11.9374472 C13.4431598,11.9180542 13.5667903,11.9035094 13.6686036,11.8938129 C13.770417,11.8841164 13.8504133,11.8792681 13.9085922,11.8792681 C14.0056088,11.8792681 14.1012246,11.8832229 14.1954398,11.8911325 L11.3632584,12.5955999 L10.8774275,12.5948462 L14.7376439,7.35584615 Z" id="Combined-Shape" fill="#113DCD"></path>
                                <path d="M23.8833485,8.00923077 L23.8833485,9.59461017 L20.4216944,9.59461017 L19.8689933,11.4563401 C19.9514137,11.4466436 20.0301978,11.4393712 20.1053458,11.434523 C20.1804937,11.4296747 20.2495813,11.4272506 20.3126086,11.4272506 C21.1578581,11.4272506 21.8852184,11.6484749 22.4946893,12.0909236 L17.9636525,12.5955999 L17.8994077,12.5002308 L19.2435684,8.00923077 L23.8833485,8.00923077 Z" id="Combined-Shape" fill="#113DCD"></path>
                                <path d="M20.2854918,19.3841274 C19.2021829,19.3841274 18.2211825,18.950949 17.5021209,18.2500271 C17.8206557,17.832086 18.0506684,17.4184987 18.2313408,16.8735791 C18.6928173,17.5128256 19.4387259,17.9329434 20.2854918,17.9329434 C21.6858843,17.9329434 22.8250638,16.793764 22.8250638,15.3933714 C22.8250638,13.9929789 21.6858843,12.8537994 20.2854918,12.8537994 C19.4387259,12.8537994 18.6928173,13.2739171 18.2306152,13.9131636 C17.3112901,15.1858521 18.209573,15.9919848 17.0203278,17.6833398 C16.2882054,18.7252899 15.0888019,19.3841274 13.7551637,19.3841274 C11.5508152,19.3841274 9.76440774,17.5977199 9.76440774,15.3933714 C9.76440774,13.1890229 11.5508152,11.4026154 13.7551637,11.4026154 C14.8384726,11.4026154 15.819473,11.8357938 16.5385346,12.5367157 C16.2199998,12.9546567 15.9899871,13.3682441 15.8100403,13.9131636 C15.3478382,13.2739171 14.6019296,12.8537994 13.7551637,12.8537994 C12.3547712,12.8537994 11.2155917,13.9929789 11.2155917,15.3933714 C11.2155917,16.793764 12.3547712,17.9329434 13.7551637,17.9329434 C15.1816776,17.9329434 16.2947357,16.7444237 16.2947357,15.3933714 C16.2947357,13.178139 18.0985575,11.4026154 20.2854918,11.4026154 C22.4898403,11.4026154 24.2762478,13.1890229 24.2762478,15.3933714 C24.2762478,17.5977199 22.4898403,19.3841274 20.2854918,19.3841274 Z" id="Path" fill="#113DCD"></path>
                                <polygon id="Path-7" fill="#113DCD" points="17.4938462 17.1769501 17.4938462 20.6128482 18.5258423 20.6128482 18.5258423 17.8001831 20.6297939 16.5783479 20.0347289 15.5969231"></polygon>
                            </g>
                        </g>
                        <g id="Group-46-Copy-2" transform="translate(0.260000, 0.630000)">
                            <path d="M0,0 L0,48.99106 L16.7324818,48.99106 L16.7324818,38.4240102 C16.6830544,36.9160954 17.2867007,35.4973496 18.299635,34.7407407 C15.6437956,32.8275862 16.1777372,26.3282248 19.9777372,26.3282248 L31.7660584,26.3282248 C35.0390511,26.3282248 35.9266423,31.1021711 34.3941606,33.6768838 C38.5547445,34.1060026 38.4091241,42.6168582 34.0613139,42.6168582 L29.3459854,42.6168582 L29.3459854,49 L38,49 L38,0 L0,0 Z" id="Path"></path>
                            <g id="Group-23" fill="#000000" fill-opacity="0.7" fill-rule="nonzero">
                                <g id="Group-43">
                                    <path d="M35.82,9.67 L27.82,1.67 C26.9660146,0.815223488 25.8082724,0.33343016 24.6,0.33 L5.29,0.33 C4.07363411,0.332594321 2.90871822,0.821054179 2.05426789,1.68677199 C1.19981755,2.55248981 0.726659858,3.7237045 0.739725381,4.94 L0.739725381,44.39 C0.739725381,46.9028956 2.77710439,48.94 5.29,48.94 L22.13,48.94 L22.13,45.94 L5.29,45.94 C4.45279682,45.9345457 3.77545427,45.2572032 3.77,44.42 L3.77,4.94 C3.78634002,4.11226596 4.46210471,3.44983873 5.29,3.45 L21.98,3.45 L21.98,13.31 C21.9773266,13.9155092 22.2166817,14.4969907 22.6448455,14.9251545 C23.0730093,15.3533183 23.6544908,15.5926734 24.26,15.59 L34.12,15.59 L34.12,24.45 L37.1200824,24.45 L37.1200824,12.89 C37.1272168,11.6874277 36.6601251,10.5304777 35.82,9.67 Z M25.01,12.52 L25.01,3.45 C25.2777704,3.51290703 25.5232717,3.6477599 25.72,3.84 L33.72,11.84 C33.9163919,12.0311647 34.055011,12.273748 34.12,12.54 L25.01,12.52 Z" id="Shape"></path>
                                    <rect id="Rectangle" x="9.84" y="21.62" width="18.21" height="3.03" rx="1.14"></rect>
                                    <path d="M19.56,30.73 C19.91,30.73 20.2,30.22 20.2,29.59 L20.2,28.84 C20.2,28.21 19.91,27.7 19.56,27.7 L10.56,27.7 C10.2,27.7 9.91,28.21 9.91,28.84 L9.91,29.59 C9.91,30.22 10.2,30.73 10.56,30.73 L19.56,30.73 Z" id="Path"></path>
                                    <path d="M19.56,36.8 C19.91,36.8 20.2,36.29 20.2,35.66 L20.2,34.91 C20.2,34.28 19.91,33.77 19.56,33.77 L10.56,33.77 C10.2,33.77 9.91,34.28 9.91,34.91 L9.91,35.66 C9.91,36.29 10.2,36.8 10.56,36.8 L19.56,36.8 Z" id="Path-2"></path>
                                </g>
                            </g>
                        </g>
                    </g>
                </g>
            </g>
        </g>
    </g>
</svg>