<?xml version="1.0" encoding="UTF-8"?>
<svg width="49px" height="51px" viewBox="0 0 49 51" version="1.1" xmlns="http://www.w3.org/2000/svg" xmlns:xlink="http://www.w3.org/1999/xlink">
    <title>Group 32 Copy</title>
    <g id="Japan" stroke="none" stroke-width="1" fill="none" fill-rule="evenodd">
        <g id="MRE-PAGE--Desktop-view-2-CTA" transform="translate(-531.000000, -1065.000000)" fill-rule="nonzero">
            <g id="Group-27" transform="translate(-1.000000, 554.000000)">
                <g id="Group-32-Copy" transform="translate(532.000000, 511.000000)">
                    <g id="Group-26">
                        <path d="M35.0805382,9.34 L27.0805382,1.34 C26.2265528,0.485223488 25.0688106,0.00343015982 23.8605382,0 L4.55053819,0 C3.3341723,0.00259432101 2.16925641,0.491054179 1.31480608,1.35677199 C0.460355742,2.22248981 -0.0128019506,3.3937045 0.000263572212,4.61 L0.000263572212,44.06 C0.000263572212,46.5728956 2.03764258,48.61 4.55053819,48.61 L21.3905382,48.61 L21.3905382,45.61 L4.55053819,45.61 C3.71333501,45.6045457 3.03599246,44.9272032 3.03053819,44.09 L3.03053819,4.61 C3.04687821,3.78226596 3.7226429,3.11983873 4.55053819,3.12 L21.2405382,3.12 L21.2405382,12.98 C21.2378648,13.5855092 21.4772198,14.1669907 21.9053837,14.5951545 C22.3335475,15.0233183 22.915029,15.2626734 23.5205382,15.26 L33.3805382,15.26 L33.3805382,24.12 L36.3806206,24.12 L36.3806206,12.56 C36.3877549,11.3574277 35.9206633,10.2004777 35.0805382,9.34 Z M24.2705382,12.19 L24.2705382,3.12 C24.5383086,3.18290703 24.7838099,3.3177599 24.9805382,3.51 L32.9805382,11.51 C33.1769301,11.7011647 33.3155491,11.943748 33.3805382,12.21 L24.2705382,12.19 Z" id="Shape" fill-opacity="0.7" fill="#000000"></path>
                        <g id="Group-41" transform="translate(21.260538, 23.670000)" fill="#113DCD">
                            <g id="Group-42" transform="translate(0.888000, 0.992000)">
                                <g id="Group-40" transform="translate(0.368000, 0.368000)">
                                    <g id="当日-copy" transform="translate(4.104000, 5.104000)" font-family="NotoSansJP-Black, Noto Sans JP" font-size="8.208" font-weight="700">
                                        <text id="当日">
                                            <tspan x="0.22041216" y="10.052375">当日</tspan>
                                        </text>
                                    </g>
                                    <g id="Group">
                                        <path d="M1.13469756,12.5344118 C1.13959084,12.5349555 1.14475597,12.5349555 1.14964925,12.5349555 C1.52017938,12.5349555 1.82383467,12.2386402 1.83253384,11.8670227 C1.94072973,6.91909973 5.54272845,2.62361431 10.3971353,1.65365722 C14.8459435,0.764711124 19.3926174,2.85849181 21.6639154,6.69563988 L18.9772323,5.76156686 C18.6202945,5.63733188 18.2318223,5.82626691 18.108131,6.1826609 C17.9838961,6.53905488 18.1722874,6.92807075 18.5286815,7.05176202 L22.8342252,8.5485624 C22.9070808,8.5741162 22.9829267,8.5863494 23.0582288,8.5863494 C23.1792016,8.5863494 23.2993588,8.55454307 23.4059236,8.49120227 C23.5785477,8.38925891 23.6978894,8.21609112 23.7313268,8.01818508 L24.5028342,3.50087091 C24.5659031,3.12925338 24.3163458,2.77612158 23.9441846,2.71305262 C23.5720233,2.64889627 23.2194353,2.89954101 23.1563662,3.27115854 L22.723039,5.80696563 C20.1236193,1.60146222 15.0715782,-0.673641723 10.1296359,0.313985549 C4.65269495,1.40872131 0.588824847,6.25415717 0.466423716,11.8368474 C0.458337347,12.2139019 0.757099354,12.5265282 1.13469756,12.5344118 Z" id="Path"></path>
                                        <path d="M0.77884727,21.130276 C0.819080916,21.1376159 0.859586412,21.140878 0.89927636,21.140878 C1.22359217,21.140878 1.51202392,20.9087191 1.57101514,20.5781507 L2.02445921,18.0311979 C4.16472607,21.8047333 8.23348945,24.1361099 12.5268001,24.1361099 C13.2950452,24.1361099 14.0714458,24.0613514 14.8437688,23.9066694 C20.3204379,22.8124773 24.3845799,17.9662259 24.5080684,12.3838075 C24.5161548,12.006753 24.2173928,11.6941267 23.8403382,11.6862431 C23.8349012,11.6862431 23.8297362,11.6856994 23.8248429,11.6856994 C23.4543127,11.6856994 23.1506574,11.9820148 23.1419583,12.354176 C23.0332187,17.3020989 19.4306762,21.5970406 14.5759976,22.5669978 C9.99425517,23.4817695 5.30866649,21.2360252 3.11267059,17.177864 L5.76754754,18.1230827 C6.12448522,18.2500363 6.51350108,18.0635478 6.63991085,17.7085131 C6.76632061,17.3534784 6.58091962,16.9625595 6.22588488,16.8361497 L1.93067131,15.3072713 C1.74119259,15.2403963 1.53241259,15.2588821 1.3587011,15.3602818 C1.18444592,15.4611378 1.06456053,15.6332181 1.02894831,15.8305805 L0.226178335,20.3378363 C0.159847188,20.7097256 0.407229742,21.0642167 0.77884727,21.130276 Z" id="Path"></path>
                                    </g>
                                </g>
                            </g>
                        </g>
                    </g>
                    <rect id="Rectangle" fill-opacity="0.7" fill="#000000" x="9.10053819" y="21.29" width="18.21" height="3.03" rx="1.14"></rect>
                    <path d="M18.8205382,30.4 C19.1705382,30.4 19.4605382,29.89 19.4605382,29.26 L19.4605382,28.51 C19.4605382,27.88 19.1705382,27.37 18.8205382,27.37 L9.82053819,27.37 C9.46053819,27.37 9.17053819,27.88 9.17053819,28.51 L9.17053819,29.26 C9.17053819,29.89 9.46053819,30.4 9.82053819,30.4 L18.8205382,30.4 Z" id="Path" fill-opacity="0.7" fill="#000000"></path>
                    <path d="M18.8205382,36.47 C19.1705382,36.47 19.4605382,35.96 19.4605382,35.33 L19.4605382,34.58 C19.4605382,33.95 19.1705382,33.44 18.8205382,33.44 L9.82053819,33.44 C9.46053819,33.44 9.17053819,33.95 9.17053819,34.58 L9.17053819,35.33 C9.17053819,35.96 9.46053819,36.47 9.82053819,36.47 L18.8205382,36.47 Z" id="Path-2" fill-opacity="0.7" fill="#000000"></path>
                </g>
            </g>
        </g>
    </g>
</svg>