<?xml version="1.0" encoding="UTF-8"?>
<svg width="46px" height="49px" viewBox="0 0 46 49" version="1.1" xmlns="http://www.w3.org/2000/svg" xmlns:xlink="http://www.w3.org/1999/xlink">
    <title>Group 44 Copy 2</title>
    <defs>
        <path d="M14.597384,27.386432 C16.301408,27.386432 17.734952,26.088128 17.734952,24.03248 C17.734952,21.895688 16.54484,20.894912 14.867864,20.894912 C14.218712,20.894912 13.353176,21.300632 12.812216,21.976832 C12.89336,19.461368 13.84004,18.595832 14.98958,18.595832 C15.571112,18.595832 16.179692,18.920408 16.531316,19.326128 L17.586188,18.136016 C16.977608,17.513912 16.098548,17 14.867864,17 C12.852788,17 11,18.595832 11,22.328456 C11,25.85822 12.6905,27.386432 14.597384,27.386432 Z M14.556812,25.885268 C13.718324,25.885268 13.042124,25.18202 12.852788,23.35628 C13.312604,22.598936 13.948232,22.301408 14.489192,22.301408 C15.354728,22.301408 15.922736,22.855892 15.922736,24.03248 C15.922736,25.263164 15.300632,25.885268 14.556812,25.885268 Z M22.279016,27.386432 C24.334664,27.386432 25.660016,25.58774 25.660016,22.27436 C25.660016,18.988028 24.334664,17.256956 22.279016,17.256956 C20.223368,17.256956 18.884492,18.974504 18.884492,22.27436 C18.884492,25.58774 20.223368,27.386432 22.279016,27.386432 Z M22.279016,25.831172 C21.41348,25.831172 20.764328,24.992684 20.764328,22.27436 C20.764328,19.56956 21.41348,18.812216 22.279016,18.812216 C23.144552,18.812216 23.78018,19.56956 23.78018,22.27436 C23.78018,24.992684 23.144552,25.831172 22.279016,25.831172 Z" id="path-1"></path>
        <path d="M14.9166667,34 L14.9166667,33.2235495 L13.3939394,33.2235495 L13.3939394,32.8566553 L14.5,32.8566553 L14.5,32.1825939 L13.3939394,32.1825939 L13.3939394,31.8242321 L14.6060606,31.8242321 L14.6060606,31.1757679 L15,31.1757679 L15,29.7167235 L13.4090909,29.7167235 L13.4090909,29 L12.5454545,29 L12.5454545,29.7167235 L11,29.7167235 L11,31.1757679 L11.3712121,31.1757679 L11.3712121,31.8242321 L12.5681818,31.8242321 L12.5681818,32.1825939 L11.4469697,32.1825939 L11.4469697,32.8566553 L12.5681818,32.8566553 L12.5681818,33.2235495 L11.0227273,33.2235495 L11.0227273,34 L14.9166667,34 Z M16.2846715,37 C16.8832117,37 17.3357664,36.9649507 17.620438,36.7897043 C17.9124088,36.6319825 18,36.3340635 18,35.7557503 L18,29 L17.1605839,29 L17.1605839,35.746988 C17.1605839,35.8871851 17.1094891,35.939759 16.9854015,35.939759 L16.9270974,35.9400235 L16.9270974,35.9400235 L16.7591241,35.9410572 C16.5612328,35.9417062 16.2822384,35.939759 16,35.9222344 C16.1240876,36.2201533 16.2481752,36.7020811 16.2846715,37 Z M15.9584636,35 L15.9584636,30 L15.0415364,30 L15.0415364,35 L15.9584636,35 Z M11.9776358,30.8002328 L11,30.8002328 L11,30.1997672 L14,30.1997672 L14,30.8002328 L13.0223642,30.8002328 L13.0223642,30.3620552 L11.9776358,30.3620552 L11.9776358,30.8002328 Z M11.7661098,37 L11.7661098,36.5700326 L13.1909308,36.5700326 L13.1909308,36.9120521 L14,36.9120521 L14,34 L11,34 L11,37 L11.7661098,37 Z M14,35.844862 L12,35.844862 L12,35.155138 L14,35.155138 L14,35.844862 Z M25.9828068,37 L25.9828068,29 L25.0171932,29 L25.0171932,37 L25.9828068,37 Z M21.5172414,35.9740338 C21.887931,35.9426898 22.1293103,35.8721659 22.3706897,35.6370861 C22.6724138,35.3314824 22.8275862,34.571391 22.9655172,32.8396366 C22.9913793,32.7142607 23,32.4556729 23,32.4556729 L20.2844828,32.4556729 C20.3362069,32.1892492 20.387931,31.9071534 20.4310345,31.6328937 L22.9310345,31.6328937 L22.9310345,29 L19.3189655,29 L19.3189655,29.8697952 L21.9137931,29.8697952 L21.9137931,30.7630984 L19.5258621,30.7630984 C19.4137931,31.6642376 19.1982759,32.7847846 19,33.521368 L20.0344828,33.6702519 C20.0603448,33.5605479 20.0862069,33.4430081 20.112069,33.3176322 L21.862069,33.3176322 C21.7672414,34.3441473 21.6551724,34.8378148 21.4741379,34.9710267 C21.362069,35.0493866 21.2586207,35.0650586 21.0862069,35.0650586 C20.8534483,35.0650586 20.3017241,35.0572226 19.7844828,35.0102067 C19.9827586,35.2844664 20.137931,35.6919381 20.1637931,35.9897058 C20.6896552,36.0053778 21.2155172,36.0053778 21.5172414,35.9740338 Z" id="path-2"></path>
    </defs>
    <g id="Japan" stroke="none" stroke-width="1" fill="none" fill-rule="evenodd">
        <g id="MRE-PAGE--Desktop-view-2-CTA" transform="translate(-531.000000, -1327.000000)" fill-rule="nonzero">
            <g id="Group-27" transform="translate(-1.000000, 554.000000)">
                <g id="Group-32" transform="translate(532.000000, 773.000000)">
                    <g id="60">
                        <use fill="#000000" xlink:href="#path-1"></use>
                        <use fill="#113DCD" xlink:href="#path-1"></use>
                    </g>
                    <g id="割引">
                        <use fill="#000000" xlink:href="#path-2"></use>
                        <use fill="#113DCD" xlink:href="#path-2"></use>
                    </g>
                    <path d="M44.4463876,27.133115 L42.8428421,25.5295625 C42.308897,24.9951875 41.608655,24.728 40.9084131,24.728 C40.2081711,24.728 39.5079293,24.9951875 38.9735566,25.529135 L23.9093778,40.59338 L23.3664551,45.476285 C23.2980554,46.0910301 23.7824108,46.616 24.3839007,46.616 C24.421948,46.616 24.4599953,46.6138625 24.4988977,46.6095875 L29.3783612,46.0705099 L44.4468151,31.00199 C45.5151328,29.9336675 45.5151328,28.2014375 44.4463876,27.133115 Z M28.7503665,44.7640699 L24.7733515,45.2048225 L25.2162395,41.221805 L36.4974874,29.9405075 L40.0358895,33.478925 L28.7503665,44.7640699 Z M43.4793869,30.034985 L41.0028903,32.5114925 L37.4644882,28.973075 L39.9409848,26.4965675 C40.1991938,26.2383575 40.5429023,26.096 40.9084131,26.096 C41.273924,26.096 41.6172049,26.2383575 41.8758413,26.4965675 L43.4793869,28.10012 C44.012477,28.63364 44.012477,29.501465 43.4793869,30.034985 Z" id="Shape-Copy-2" stroke="#262626" stroke-width="0.5" fill="#000000"></path>
                    <path d="M35.82,9.67 L27.82,1.67 C26.9660146,0.815223488 25.8082724,0.33343016 24.6,0.33 L5.29,0.33 C4.07363411,0.332594321 2.90871822,0.821054179 2.05426789,1.68677199 C1.19981755,2.55248981 0.726659858,3.7237045 0.739725381,4.94 L0.739725381,44.39 C0.739725381,46.9028956 2.77710439,48.94 5.29,48.94 L22.13,48.94 L22.13,45.94 L5.29,45.94 C4.45279682,45.9345457 3.77545427,45.2572032 3.77,44.42 L3.77,4.94 C3.78634002,4.11226596 4.46210471,3.44983873 5.29,3.45 L21.98,3.45 L21.98,13.31 C21.9773266,13.9155092 22.2166817,14.4969907 22.6448455,14.9251545 C23.0730093,15.3533183 23.6544908,15.5926734 24.26,15.59 L34.12,15.59 L34.12,24.45 L37.1200824,24.45 L37.1200824,12.89 C37.1272168,11.6874277 36.6601251,10.5304777 35.82,9.67 Z M25.01,12.52 L25.01,3.45 C25.2777704,3.51290703 25.5232717,3.6477599 25.72,3.84 L33.72,11.84 C33.9163919,12.0311647 34.055011,12.273748 34.12,12.54 L25.01,12.52 Z" id="Shape-Copy-3" fill-opacity="0.7" fill="#000000"></path>
                </g>
            </g>
        </g>
    </g>
</svg>