<?xml version="1.0" encoding="UTF-8"?>
<svg width="30px" height="31px" viewBox="0 0 30 31" version="1.1" xmlns="http://www.w3.org/2000/svg" xmlns:xlink="http://www.w3.org/1999/xlink">
    <title>A35EBA9F-9C07-4DF5-9056-2118644E989C</title>
    <g id="Page-1" stroke="none" stroke-width="1" fill="none" fill-rule="evenodd">
        <g id="Inline-offer-components" transform="translate(-754.000000, -861.000000)">
            <g id="Group-15" transform="translate(30.000000, 847.000000)">
                <g id="Group-2" transform="translate(724.000000, 14.000000)">
                    <g id="noun_translate_2822450" transform="translate(0.006374, 0.001236)" fill-rule="nonzero">
                        <g id="Group" transform="translate(0.000000, 0.000000)">
                            <path d="M14.2296,2.16442315 C14.2296,0.968579359 13.319922,1.22568622e-13 12.1968,1.22568622e-13 L2.0328,1.22568622e-13 C0.909678,1.22568622e-13 1.1439738e-12,0.968579359 1.1439738e-12,2.16442315 L1.1439738e-12,12.9865389 C1.1439738e-12,14.1823827 0.909678,15.150962 2.0328,15.150962 L12.1968,15.150962 C13.319922,15.150962 14.2296,14.1823827 14.2296,12.9865389 L14.2296,2.16442315 Z M9.848916,11.3199331 C9.787932,11.3523994 9.721866,11.3632215 9.6558,11.3632215 C9.457602,11.3632215 9.269568,11.2387672 9.188256,11.0277359 L8.25825,8.65769259 L5.97135,8.65769259 L5.041344,11.0277359 C4.934622,11.3091109 4.634784,11.4389763 4.380684,11.3199331 C4.121502,11.2063008 3.994452,10.8870484 4.106256,10.6164955 L5.082,8.12199786 L5.082,8.1165868 L5.239542,7.72699064 L6.647256,4.1232261 C6.723486,3.9176059 6.91152,3.78774051 7.1148,3.78774051 C7.31808,3.78774051 7.506114,3.9176059 7.582344,4.1232261 L10.123344,10.6164955 C10.235148,10.8870484 10.108098,11.2063008 9.848916,11.3199331 Z" id="Shape" fill="#F5F3F1"></path>
                            <polygon id="Path" fill="#FFFFFF" points="6.393156 7.57548102 7.836444 7.57548102 7.1148 5.73572134"></polygon>
                            <path d="M26.4264,15.150962 L16.2624,15.150962 C15.139278,15.150962 14.2296,16.1195414 14.2296,17.3153852 L14.2296,28.1375009 C14.2296,29.3333447 15.139278,30.3019241 16.2624,30.3019241 L26.4264,30.3019241 C27.549522,30.3019241 28.4592,29.3333447 28.4592,28.1375009 L28.4592,17.3153852 C28.4592,16.1195414 27.549522,15.150962 26.4264,15.150962 Z M27.4428,28.1375009 C27.4428,28.7327173 26.98542,29.2197125 26.4264,29.2197125 L16.2624,29.2197125 C15.70338,29.2197125 15.246,28.7327173 15.246,28.1375009 L15.246,17.3153852 C15.246,16.7201688 15.70338,16.2331736 16.2624,16.2331736 L26.4264,16.2331736 C26.98542,16.2331736 27.4428,16.7201688 27.4428,17.3153852 L27.4428,28.1375009 Z" id="Shape" fill="#FFFFFF"></path>
                            <path d="M23.8854,21.1031257 C24.1662821,21.1031257 24.3936,20.8610891 24.3936,20.5620199 C24.3936,20.2629507 24.1662821,20.0209141 23.8854,20.0209141 L21.8526,20.0209141 L21.8526,19.4798083 C21.8526,19.1807392 21.6252821,18.9387025 21.3444,18.9387025 C21.0635179,18.9387025 20.8362,19.1807392 20.8362,19.4798083 L20.8362,20.0209141 L18.8034,20.0209141 C18.5225179,20.0209141 18.2952,20.2629507 18.2952,20.5620199 C18.2952,20.8610891 18.5225179,21.1031257 18.8034,21.1031257 L19.3063655,21.1031257 C19.3436674,21.857373 19.572205,23.183948 20.5911968,24.4118794 C20.0912296,24.8070489 19.4580632,25.1705097 18.6425547,25.4600013 C18.3765628,25.5540455 18.2326406,25.8605278 18.3214739,26.1442836 C18.3924695,26.371007 18.590515,26.5141836 18.8034,26.5141836 C18.8565069,26.5141836 18.9105794,26.5052012 18.9641945,26.4861543 C19.9675846,26.1300526 20.7421322,25.6704914 21.3444,25.1654774 C21.9466678,25.6704914 22.7212154,26.1300526 23.7246055,26.4861543 C23.7782206,26.5052012 23.8322931,26.5141836 23.8854,26.5141836 C24.098285,26.5141836 24.2963305,26.371007 24.3672752,26.1442836 C24.4561086,25.8605278 24.3121864,25.5540455 24.0461945,25.4600013 C23.2293646,25.1700768 22.5960458,24.8076982 22.095418,24.4144767 C23.1162393,23.1858419 23.3450818,21.8579142 23.3824345,21.1031257 L23.8854,21.1031257 Z M21.3407918,23.6912347 C20.519998,22.7095064 20.3419247,21.6825418 20.3150409,21.1031257 L22.3706591,21.1031257 C22.3401671,21.6801068 22.1596544,22.7086948 21.3407918,23.6912347 Z" id="Shape" fill="#FFFFFF"></path>
                            <path d="M15.8387137,8.39779948 C15.8667663,8.4454709 15.8980714,8.4884347 15.93827,8.52463468 C15.9460963,8.53172316 15.9493996,8.54276172 15.9576833,8.54936321 L17.9904833,10.1726806 C18.0818068,10.2456216 18.188478,10.28101 18.2946918,10.28101 C18.4495403,10.28101 18.6018987,10.2064997 18.7016584,10.0643512 C18.8703808,9.8255071 18.8247444,9.48623377 18.5999167,9.30712776 L17.7869492,8.65769259 L19.3116,8.65769259 C19.456996,8.65769259 22.869,8.706825 22.869,12.9865389 C22.869,13.2856081 23.0963179,13.5276447 23.3772,13.5276447 C23.6580821,13.5276447 23.8854,13.2856081 23.8854,12.9865389 C23.8854,7.63732941 19.3572364,7.57548102 19.3116,7.57548102 L17.7869492,7.57548102 L18.5999167,6.92604585 C18.8247444,6.74688573 18.8703808,6.40766651 18.7016584,6.16882241 C18.5333933,5.92889611 18.2142946,5.88084591 17.9904833,6.06049303 L15.9576833,7.6838104 C15.9493996,7.69041189 15.9460963,7.70145044 15.93827,7.70853893 C15.8980714,7.74473891 15.8667155,7.78775682 15.8386628,7.83548235 C15.8276857,7.8541505 15.8134561,7.86924735 15.8047151,7.88916004 C15.7740706,7.95880036 15.7542,8.03455517 15.7542,8.1165868 C15.7542,8.19861844 15.7740706,8.27437325 15.8047151,8.34401357 C15.8134561,8.36398037 15.8277365,8.37907722 15.8387137,8.39779948 Z" id="Path" fill="#FFFFFF"></path>
                            <path d="M12.6206388,21.904341 C12.5925862,21.8565614 12.5611286,21.8135435 12.52093,21.7773435 C12.5131037,21.770255 12.5098004,21.7592165 12.5015675,21.752615 L10.4687675,20.1292976 C10.2444481,19.9506786 9.92631486,19.9982418 9.75759246,20.237627 C9.58887006,20.4764711 9.63450642,20.8157444 9.8593341,20.9948504 L10.6722508,21.6442315 L9.1476,21.6442315 C9.00220398,21.6442315 5.5902,21.5950991 5.5902,17.3153852 C5.5902,17.016316 5.36288214,16.7742794 5.082,16.7742794 C4.80111786,16.7742794 4.5738,17.016316 4.5738,17.3153852 C4.5738,22.6645947 9.10196364,22.7264431 9.1476,22.7264431 L10.6722508,22.7264431 L9.85928328,23.3758782 C9.6344556,23.5550383 9.58881924,23.8942576 9.75754164,24.1331017 C9.8573013,24.2752501 10.0096597,24.3497604 10.1645082,24.3497604 C10.270722,24.3497604 10.3773932,24.3143721 10.4687167,24.241431 L12.5015167,22.6181137 C12.5098512,22.6115122 12.5131037,22.6004736 12.52093,22.5933851 C12.5611286,22.5571852 12.5925353,22.5141672 12.6205372,22.4664417 C12.6314635,22.4477736 12.6457439,22.4327308 12.6544849,22.4128181 C12.6851294,22.3431778 12.705,22.267423 12.705,22.1853373 C12.705,22.1032515 12.6851294,22.0274426 12.6544849,21.9578023 C12.6457947,21.9379437 12.6315651,21.9229551 12.6206388,21.904341 Z" id="Path" fill="#FFFFFF"></path>
                        </g>
                    </g>
                    <path d="M11.8065302,0.00214485427 L2.94330388,0.00214485427 C1.59134098,-0.0171237649 0.75385858,0.269884528 0.430856683,0.863169732 C0.316545735,1.07313442 0.0716820508,1.38189721 0.0110834728,1.69883594 C0.000968212652,1.75174012 0.0101541909,1.80732124 0.0110834728,1.86414701 C0.0124278196,1.94635407 0.00914687728,2.03136044 0.0110834728,2.11626354 C0.0154988716,2.30984089 0.00814984875,2.50687648 0.0110834728,2.7102857 C0.0193971985,3.286736 0.0110834728,3.89187425 0.0110834728,4.48457744 C0.0110834728,7.43150719 0.0110834728,9.87877363 0.0110834728,11.8263768 C0.0627097083,11.5642079 0.202634112,11.1805042 0.430856683,10.6752657 C0.672771847,10.1397145 1.0361442,9.01345964 2.12137668,6.75179169 C2.82024553,5.29532101 6.33356676,2.27438381 7.36030808,1.69883594 C8.27790702,1.18446869 9.75998106,0.61890499 11.8065302,0.00214485427 Z" id="Path-4" fill="#FFFFFF"></path>
                </g>
            </g>
        </g>
    </g>
</svg>