<?xml version="1.0" encoding="UTF-8"?>
<svg width="34px" height="44px" viewBox="0 0 34 44" version="1.1" xmlns="http://www.w3.org/2000/svg" xmlns:xlink="http://www.w3.org/1999/xlink">
    <title>C3B5E2C5-0B10-41B1-819A-AE725B8C9527</title>
    <g id="Page-1" stroke="none" stroke-width="1" fill="none" fill-rule="evenodd">
        <g id="Inline-offer-components" transform="translate(-744.000000, -1379.000000)">
            <g id="Group-119" transform="translate(0.000000, 1340.000000)">
                <g id="Group-3" transform="translate(744.000000, 39.000000)">
                    <g id="Group" transform="translate(0.000000, 0.000000)">
                        <g id="Group-2">
                            <g id="noun_translate_2822450" transform="translate(0.007316, 0.001418)" fill-rule="nonzero">
                                <g id="Group">
                                    <path d="M16.3333333,2.48441592 C16.3333333,1.11177612 15.2891667,-6.21724894e-14 14,-6.21724894e-14 L2.33333333,-6.21724894e-14 C1.04416667,-6.21724894e-14 -6.09290396e-13,1.11177612 -6.09290396e-13,2.48441592 L-6.09290396e-13,14.9064955 C-6.09290396e-13,16.2791353 1.04416667,17.3909114 2.33333333,17.3909114 L14,17.3909114 C15.2891667,17.3909114 16.3333333,16.2791353 16.3333333,14.9064955 L16.3333333,2.48441592 Z M11.305,12.9934953 C11.235,13.0307615 11.1591667,13.0431836 11.0833333,13.0431836 C10.8558333,13.0431836 10.64,12.9003297 10.5466667,12.6580991 L9.47916667,9.93766367 L6.85416667,9.93766367 L5.78666667,12.6580991 C5.66416667,12.9810732 5.32,13.1301381 5.02833333,12.9934953 C4.73083333,12.8630634 4.585,12.4966121 4.71333333,12.1860601 L5.83333333,9.32277073 L5.83333333,9.31655969 L6.01416667,8.86936483 L7.63,4.73281232 C7.7175,4.49679281 7.93333333,4.34772786 8.16666667,4.34772786 C8.4,4.34772786 8.61583333,4.49679281 8.70333333,4.73281232 L11.62,12.1860601 C11.7483333,12.4966121 11.6025,12.8630634 11.305,12.9934953 Z" id="Shape" fill="#30D0AE"></path>
                                    <polygon id="Path" fill="#12967A" points="7.33833333 8.69545571 8.995 8.69545571 8.16666667 6.58370218"></polygon>
                                    <path d="M30.3333333,17.3909114 L18.6666667,17.3909114 C17.3775,17.3909114 16.3333333,18.5026875 16.3333333,19.8753273 L16.3333333,32.2974069 C16.3333333,33.6700467 17.3775,34.7818228 18.6666667,34.7818228 L30.3333333,34.7818228 C31.6225,34.7818228 32.6666667,33.6700467 32.6666667,32.2974069 L32.6666667,19.8753273 C32.6666667,18.5026875 31.6225,17.3909114 30.3333333,17.3909114 Z M31.5,32.2974069 C31.5,32.9806213 30.975,33.5396149 30.3333333,33.5396149 L18.6666667,33.5396149 C18.025,33.5396149 17.5,32.9806213 17.5,32.2974069 L17.5,19.8753273 C17.5,19.192113 18.025,18.6331194 18.6666667,18.6331194 L30.3333333,18.6331194 C30.975,18.6331194 31.5,19.192113 31.5,19.8753273 L31.5,32.2974069 Z" id="Shape" fill="#30D0AE"></path>
                                    <path d="M27.4166667,24.2230552 C27.739075,24.2230552 28,23.9452354 28,23.6019512 C28,23.2586671 27.739075,22.9808472 27.4166667,22.9808472 L25.0833333,22.9808472 L25.0833333,22.3597433 C25.0833333,22.0164591 24.8224083,21.7386393 24.5,21.7386393 C24.1775917,21.7386393 23.9166667,22.0164591 23.9166667,22.3597433 L23.9166667,22.9808472 L21.5833333,22.9808472 C21.260925,22.9808472 21,23.2586671 21,23.6019512 C21,23.9452354 21.260925,24.2230552 21.5833333,24.2230552 L22.1606583,24.2230552 C22.203475,25.088812 22.4658,26.6115106 23.6354417,28.0209818 C23.0615583,28.474574 22.3347833,28.8917696 21.3987083,29.2240602 C21.0933917,29.3320081 20.9281917,29.6838014 21.0301583,30.0095083 C21.11165,30.2697509 21.338975,30.434095 21.5833333,30.434095 C21.6442917,30.434095 21.7063583,30.4237847 21.7679,30.4019218 C22.9196333,29.9931733 23.8086917,29.4656697 24.5,28.8859933 C25.1913083,29.4656697 26.0803667,29.9931733 27.2321,30.4019218 C27.2936417,30.4237847 27.3557083,30.434095 27.4166667,30.434095 C27.661025,30.434095 27.88835,30.2697509 27.9697833,30.0095083 C28.07175,29.6838014 27.90655,29.3320081 27.6012333,29.2240602 C26.6636417,28.8912727 25.9366917,28.4753194 25.36205,28.0239631 C26.5337917,26.6136844 26.7964667,25.0894331 26.8393417,24.2230552 L27.4166667,24.2230552 Z M24.4958583,27.1937955 C23.5537167,26.0669266 23.3493167,24.8881333 23.3184583,24.2230552 L25.6779833,24.2230552 C25.6429833,24.8853384 25.4357833,26.0659949 24.4958583,27.1937955 Z" id="Shape" fill="#30D0AE"></path>
                                    <path d="M18.1803417,9.63934743 C18.2125417,9.69406669 18.248475,9.74338235 18.2946167,9.7849342 C18.3036,9.79307066 18.3073917,9.80574119 18.3169,9.81331865 L20.6502333,11.6766306 C20.7550583,11.7603554 20.8775,11.8009756 20.9994167,11.8009756 C21.1771583,11.8009756 21.3520417,11.7154496 21.46655,11.5522856 C21.6602167,11.2781303 21.6078333,10.8886981 21.3497667,10.6831127 L20.4166083,9.93766367 L22.1666667,9.93766367 C22.3335583,9.93766367 26.25,9.99405991 26.25,14.9064955 C26.25,15.2497797 26.510925,15.5275995 26.8333333,15.5275995 C27.1557417,15.5275995 27.4166667,15.2497797 27.4166667,14.9064955 C27.4166667,8.7664479 22.21905,8.69545571 22.1666667,8.69545571 L20.4166083,8.69545571 L21.3497667,7.95000672 C21.6078333,7.74435919 21.6602167,7.3549891 21.46655,7.08083381 C21.2734083,6.8054363 20.9071333,6.75028227 20.6502333,6.95648879 L18.3169,8.81980073 C18.3073917,8.8273782 18.3036,8.84004872 18.2946167,8.84818518 C18.248475,8.88973704 18.2124833,8.9391148 18.1802833,8.99389617 C18.1676833,9.01532426 18.15135,9.03265306 18.1413167,9.05550969 C18.1061417,9.13544577 18.0833333,9.22240033 18.0833333,9.31655969 C18.0833333,9.41071906 18.1061417,9.49767361 18.1413167,9.57760969 C18.15135,9.60052843 18.1677417,9.61785723 18.1803417,9.63934743 Z" id="Path" fill="#30D0AE"></path>
                                    <path d="M14.4865,25.1427239 C14.4543,25.0878804 14.4181917,25.0385026 14.37205,24.9969508 C14.3630667,24.9888143 14.359275,24.9761438 14.349825,24.9685663 L12.0164917,23.1052544 C11.7590083,22.9002279 11.3938417,22.954823 11.200175,23.2295994 C11.0065083,23.5037547 11.0588917,23.8931869 11.3169583,24.0987723 L12.2500583,24.8441592 L10.5,24.8441592 C10.3331083,24.8441592 6.41666667,24.7877629 6.41666667,19.8753273 C6.41666667,19.5320432 6.15574167,19.2542234 5.83333333,19.2542234 C5.510925,19.2542234 5.25,19.5320432 5.25,19.8753273 C5.25,26.015375 10.4476167,26.0863671 10.5,26.0863671 L12.2500583,26.0863671 L11.3169,26.8318161 C11.0588333,27.0374637 11.00645,27.4268337 11.2001167,27.700989 C11.314625,27.8641531 11.4895083,27.9496791 11.66725,27.9496791 C11.7891667,27.9496791 11.9116083,27.9090589 12.0164333,27.8253341 L14.3497667,25.9620221 C14.3593333,25.9544447 14.3630667,25.9417741 14.37205,25.9336377 C14.4181917,25.8920858 14.4542417,25.842708 14.4863833,25.7879267 C14.498925,25.7664986 14.5153167,25.7492319 14.52535,25.7263753 C14.560525,25.6464392 14.5833333,25.5594846 14.5833333,25.4652632 C14.5833333,25.3710417 14.560525,25.284025 14.52535,25.2040889 C14.515375,25.1812944 14.4990417,25.1640898 14.4865,25.1427239 Z" id="Path" fill="#30D0AE"></path>
                                </g>
                            </g>
                            <path d="M13.5520319,0.00246195394 L3.37844798,0.00246195394 C1.8266081,-0.0196553775 0.865310583,0.309784811 0.494555421,0.99078252 C0.363344507,1.23178883 0.0822796727,1.58619974 0.0127220762,1.94999534 C0.0011113552,2.01072098 0.0116554073,2.07451933 0.0127220762,2.13974633 C0.014265174,2.23410706 0.0104991704,2.33168095 0.0127220762,2.42913629 C0.0177902566,2.65133252 0.00935473916,2.87749826 0.0127220762,3.11097991 C0.0222649202,3.77265381 0.0127220762,4.46725694 0.0127220762,5.1475866 C0.0127220762,8.5301965 0.0127220762,11.3392718 0.0127220762,13.5748126 C0.0719808406,13.2738842 0.232591956,12.833453 0.494555421,12.2535189 C0.772235821,11.6387908 1.18932989,10.3460281 2.43500537,7.74999046 C3.23719643,6.07819216 7.26993429,2.61063339 8.44847116,1.94999534 C9.50172982,1.35958297 11.2029167,0.710405177 13.5520319,0.00246195394 Z" id="Path-4" fill="#1ABE98"></path>
                        </g>
                        <path d="M31.4715447,5.09002286 L31.4715447,5.09002286 C31.3022555,3.78443416 30.5015024,2.76131217 29.4796748,2.54501143 L29.4796748,2.54501143 C30.5015024,2.32871068 31.3022555,1.3055887 31.4715447,0 L31.4715447,0 C31.6408339,1.3055887 32.4415871,2.32871068 33.4634146,2.54501143 L33.4634146,2.54501143 C32.4415871,2.76131217 31.6408339,3.78436208 31.4715447,5.09002286 Z" id="Path" fill="#30D0AE" fill-rule="nonzero"></path>
                    </g>
                    <path d="M1.96,43.12 L1.96,43.12 C1.79341943,41.8631521 1.00547833,40.8782257 0,40.67 L0,40.67 C1.00547833,40.4617743 1.79341943,39.4768479 1.96,38.22 L1.96,38.22 C2.12658057,39.4768479 2.91452167,40.4617743 3.92,40.67 L3.92,40.67 C2.91452167,40.8782257 2.12658057,41.8630827 1.96,43.12 Z" id="Path" fill="#30D0AE" fill-rule="nonzero"></path>
                </g>
            </g>
        </g>
    </g>
</svg>