<svg width="40" height="40" viewBox="0 0 40 40" fill="none" xmlns="http://www.w3.org/2000/svg">
<circle opacity="0.5" cx="20" cy="20" r="16" fill="#50CAAE"/>
<path d="M37.75 18.5H29.5V10.25C29.5 9.0095 28.4905 8 27.25 8H18.25C17.0095 8 16 9.0095 16 10.25V19.25C16 20.4905 17.0095 21.5 18.25 21.5H27.25C28.2265 21.5 29.0515 20.8715 29.362 20H37.75C38.1625 20 38.5 20.336 38.5 20.75V29.75C38.5 30.164 38.1625 30.5 37.75 30.5H28.75C28.3375 30.5 28 30.164 28 29.75V23.75C28 23.336 27.664 23 27.25 23C26.836 23 26.5 23.336 26.5 23.75V29.75C26.5 30.9905 27.5095 32 28.75 32H37.75C38.9905 32 40 30.9905 40 29.75V20.75C40 19.5095 38.9905 18.5 37.75 18.5ZM27.25 20H18.25C17.8375 20 17.5 19.664 17.5 19.25V10.25C17.5 9.836 17.8375 9.5 18.25 9.5H27.25C27.6625 9.5 28 9.836 28 10.25V19.25C28 19.664 27.6625 20 27.25 20Z" fill="black"/>
<path d="M30.9205 28.586L31.4635 27.5H35.0365L35.5795 28.586C35.7115 28.8485 35.9755 29 36.25 29C36.3625 29 36.4765 28.9745 36.586 28.9205C36.9565 28.7345 37.1065 28.2845 36.922 27.914L33.922 21.914C33.667 21.4055 32.8345 21.4055 32.5795 21.914L29.5795 27.914C29.395 28.2845 29.545 28.7345 29.9155 28.9205C30.286 29.1065 30.736 28.9565 30.9205 28.586ZM33.25 23.927L34.2865 26H32.2135L33.25 23.927ZM25.75 14C26.164 14 26.5 13.664 26.5 13.25C26.5 12.836 26.164 12.5 25.75 12.5H23.5V11.75C23.5 11.336 23.164 11 22.75 11C22.336 11 22 11.336 22 11.75V12.5H19.75C19.336 12.5 19 12.836 19 13.25C19 13.664 19.336 14 19.75 14H20.566C20.698 14.918 21.067 15.758 21.6205 16.457C21.259 16.658 20.86 16.805 20.4295 16.8755L19.627 17.0105C19.219 17.078 18.9415 17.465 19.0105 17.8745C19.072 18.2405 19.39 18.5 19.7485 18.5C19.789 18.5 19.8325 18.497 19.873 18.4895L20.6755 18.356C21.448 18.227 22.1425 17.9195 22.75 17.5025C23.3575 17.9195 24.052 18.2285 24.8245 18.356L25.627 18.4895C25.6675 18.497 25.711 18.5 25.7515 18.5C26.11 18.5 26.428 18.2405 26.4895 17.8745C26.5585 17.4665 26.281 17.0795 25.873 17.0105L25.0705 16.8755C24.64 16.805 24.241 16.658 23.8795 16.4555C24.4315 15.758 24.8005 14.918 24.9325 14H25.75ZM22.75 15.4625C22.4275 15.035 22.195 14.54 22.0825 14H23.416C23.305 14.54 23.0725 15.035 22.75 15.4625Z" fill="black"/>
</svg>
