<svg xmlns="http://www.w3.org/2000/svg" width="38" height="45" fill="#96abec" fill-rule="nonzero" stroke="#96abec" stroke-width=".3" xmlns:v="https://vecta.io/nano"><path d="M12.536 38.127c-6.415-2.563-10.56-8.682-10.56-15.6 0-9.053 7.207-16.45 16.184-16.766l-2.427 2.7c-.256.286-.23.725.054.98a.69.69 0 0 0 .981-.054l3.478-3.884c.25-.278.233-.703-.035-.963l-3.478-3.366c-.276-.267-.716-.26-.982.016s-.26.715.016.982l2.263 2.2C8.348 4.768.587 12.76.587 22.537c0 7.48 4.488 14.105 11.433 16.88a.7.7 0 0 0 .258.05c.275 0 .537-.165.645-.437.142-.356-.03-.76-.387-.903zm24.394-15.6c0-7.405-4.427-14.006-11.278-16.817-.355-.144-.76.024-.906.38s.024.76.38.906a16.73 16.73 0 0 1 10.416 15.532c0 9.177-7.406 16.653-16.555 16.776L21.1 36.86c.25-.3.218-.73-.073-.98s-.73-.22-.98.073L16.94 39.56c-.248.288-.218.722.066.973l3.8 3.366a.69.69 0 0 0 .461.175c.192 0 .383-.08.52-.234.254-.287.227-.726-.06-.98l-2.444-2.164c9.777-.28 17.647-8.314 17.647-18.158zm-20.473 8.146l13.2-12.505a.69.69 0 0 0 .216-.463c.006-.095.124-2.355-1.4-4-.975-1.047-2.37-1.588-4.148-1.608a.66.66 0 0 0-.486.2l-13.2 12.505c-.1.095-.17.217-.2.35l-1.42 6.283c-.052.232.018.476.187.644.132.132.3.204.5.204a.71.71 0 0 0 .153-.017l6.283-1.42a.7.7 0 0 0 .142-.053c.008-.004.017-.005.025-.01.057-.03.1-.066.156-.1zm8.127-17.17c1.244.062 2.206.448 2.863 1.15.864.92 1.014 2.18 1.036 2.714l-12.065 11.43c-.7-2.178-2.56-3.32-3.927-3.836l12.093-11.457zM11.64 26.153c1.037.314 3.1 1.215 3.564 3.487l-4.587 1.036 1.023-4.524z"/></svg>