<svg xmlns="http://www.w3.org/2000/svg" width="31" height="37" fill="#fff" fill-rule="nonzero" stroke="#fff" stroke-width=".4" xmlns:v="https://vecta.io/nano"><path d="M10.257 31.376a13.67 13.67 0 0 1-8.64-12.755c0-7.407 5.896-13.46 13.24-13.718L12.873 7.12a.57.57 0 0 0 .044.803c.108.097.244.145.38.145a.57.57 0 0 0 .424-.19L16.565 4.7a.57.57 0 0 0-.028-.788L13.7 1.16a.57.57 0 0 0-.804.013.57.57 0 0 0 .013.804L14.75 3.77C6.83 4.083.48 10.623.48 18.62a14.8 14.8 0 0 0 9.355 13.811.57.57 0 0 0 .739-.317.57.57 0 0 0-.317-.739zM30.215 18.62a14.82 14.82 0 0 0-9.227-13.759.57.57 0 0 0-.742.31.57.57 0 0 0 .31.742c5.177 2.124 8.522 7.112 8.522 12.708 0 7.5-6.06 13.626-13.545 13.726l1.728-2.008a.57.57 0 0 0-.06-.802c-.237-.205-.597-.18-.802.06l-2.54 2.95a.57.57 0 0 0 .054.796l3.1 2.754c.108.096.243.143.377.143a.57.57 0 0 0 .377-.994l-2-1.77c8-.228 14.438-6.802 14.438-14.856zm-16.75 6.666l10.8-10.232a.57.57 0 0 0 .177-.38c.005-.078.1-1.926-1.146-3.266-.798-.857-1.94-1.3-3.394-1.316a.56.56 0 0 0-.397.156L8.704 20.48a.57.57 0 0 0-.164.288L7.378 25.9a.57.57 0 0 0 .555.694.58.58 0 0 0 .125-.014l5.14-1.162a.57.57 0 0 0 .117-.044c.007-.003.014-.004.02-.008a.56.56 0 0 0 .128-.091zm6.65-14.048c1.018.05 1.805.366 2.343.94.707.753.83 1.783.848 2.22l-9.872 9.352c-.563-1.782-2.094-2.717-3.213-3.14l9.895-9.374zM9.522 21.58c.85.257 2.536.994 2.916 2.853l-3.753.848.837-3.7z"/></svg>