<svg xmlns="http://www.w3.org/2000/svg" width="50" height="48" fill-rule="nonzero" fill="none" xmlns:v="https://vecta.io/nano"><path d="M47.703 24.002l2.194-5.493c.24-.606.053-1.293-.475-1.704l-4.756-3.702-.962-5.8c-.106-.642-.63-1.143-1.3-1.245l-6.053-.924-3.853-4.57A1.61 1.61 0 0 0 30.725.1L25 2.208 19.28.102a1.6 1.6 0 0 0-1.772.456l-3.856 4.57-6.053.924c-.666.102-1.2.606-1.297 1.245l-.962 5.8L.58 16.81c-.525.408-.716 1.095-.475 1.7L2.3 24.002.105 29.495c-.244.606-.05 1.293.475 1.7l4.76 3.7.962 5.8c.106.642.628 1.146 1.297 1.248l6.053.924 3.856 4.566c.428.5 1.144.7 1.775.456L25 45.795l5.722 2.106a1.63 1.63 0 0 0 .56.1c.46 0 .912-.195 1.216-.558l3.853-4.566 6.053-.924c.67-.102 1.194-.606 1.3-1.248l.962-5.8 4.756-3.7a1.46 1.46 0 0 0 .475-1.701L47.703 24z" fill="#ffdc64"/><path d="M44.98 24l1.93-4.806c.212-.53.047-1.13-.418-1.5l-4.185-3.24-.847-5.084c-.093-.562-.555-1-1.144-1.1l-5.327-.808-3.4-3.998a1.42 1.42 0 0 0-1.559-.399L25 4.932 19.965 3.1c-.558-.205-1.182-.042-1.56.4l-3.393 3.998-5.327.808c-.586.1-1.048.53-1.14 1.1l-.847 5.084L3.5 17.72c-.462.357-.63.958-.418 1.488L5.022 24l-1.93 4.806c-.214.53-.044 1.13.418 1.488l4.188 3.236.847 5.084c.093.562.553 1.003 1.14 1.092l5.327.808 3.393 3.995a1.41 1.41 0 0 0 1.562.399L25 43.07l5.035 1.843a1.44 1.44 0 0 0 .492.087c.404 0 .803-.17 1.07-.488l3.4-3.995 5.327-.808c.588-.1 1.05-.53 1.144-1.092l.847-5.084 4.185-3.236c.465-.36.63-.958.418-1.488L44.98 24z" stroke-opacity=".337" stroke="#232323" stroke-width=".88"/></svg>