<svg width="40" height="41" xmlns="http://www.w3.org/2000/svg"><g fill="#B04ED2" fill-rule="nonzero"><path d="M37.439 6.219c-.207-1.595-1.188-2.845-2.439-3.11 1.251-.264 2.232-1.514 2.439-3.109.207 1.595 1.188 2.845 2.439 3.11-1.251.264-2.232 1.513-2.439 3.109zM2.439 26.219c-.207-1.595-1.188-2.845-2.439-3.11 1.251-.264 2.232-1.514 2.439-3.109.207 1.595 1.188 2.845 2.439 3.11-1.251.264-2.232 1.513-2.439 3.109zM32.439 40.219c-.207-1.595-1.188-2.845-2.439-3.11 1.251-.264 2.232-1.514 2.439-3.109.207 1.595 1.188 2.845 2.439 3.11-1.251.264-2.232 1.513-2.439 3.109zM23.5 5c-.866 0-1.482.443-2.006.797-.524.353-.993.654-1.21.712-.216.058-.766.026-1.396-.018-.63-.045-1.388-.114-2.138.318-.75.433-1.064 1.13-1.34 1.697-.277.568-.527 1.06-.685 1.219-.158.158-.66.407-1.228.684-.568.277-1.255.591-1.688 1.341-.432.75-.353 1.507-.309 2.137.044.63.067 1.181.01 1.397-.059.217-.36.686-.713 1.21-.354.524-.797 1.14-.797 2.006 0 .866.443 1.482.797 2.006.353.524.654.993.712 1.21.058.216.035.766-.009 1.396-.044.63-.123 1.388.31 2.138.432.75 1.119 1.064 1.687 1.34.568.277 1.07.527 1.228.685.158.158.408.65.684 1.219.277.568.591 1.264 1.341 1.697.75.432 1.507.353 2.138.309.63-.044 1.18-.067 1.396-.01.217.059.686.36 1.21.713.524.354 1.14.797 2.006.797.866 0 1.482-.443 2.006-.797.524-.353.993-.654 1.21-.712.216-.058.766-.035 1.397.009.63.044 1.387.123 2.137-.31.75-.432 1.064-1.128 1.34-1.696.277-.568.527-1.06.685-1.22.158-.157.66-.407 1.228-.683.568-.277 1.255-.591 1.688-1.341.432-.75.363-1.507.318-2.138-.044-.63-.076-1.18-.018-1.396.058-.217.359-.686.712-1.21.354-.524.797-1.14.797-2.006 0-.866-.443-1.482-.797-2.006-.353-.524-.654-.993-.712-1.21-.058-.216-.026-.766.018-1.397.045-.63.114-1.387-.318-2.137-.433-.75-1.12-1.064-1.688-1.34-.568-.278-1.07-.527-1.228-.685-.158-.158-.408-.65-.684-1.219-.277-.568-.591-1.264-1.341-1.697-.75-.432-1.507-.363-2.137-.318-.63.044-1.181.076-1.397.018-.217-.058-.686-.359-1.21-.712C24.982 5.443 24.366 5 23.5 5zm0 1.8c.132 0 .518.166.994.487.475.322 1.005.766 1.753.966.748.2 1.415.078 1.987.038.573-.04 1.001.008 1.116.075.115.066.367.412.619.928.251.516.484 1.159 1.031 1.706.547.547 1.19.78 1.706 1.031.516.252.862.504.928.619.066.114.116.543.075 1.116-.04.572-.153 1.24.047 1.987.2.748.635 1.277.957 1.753.32.476.487.862.487.994s-.166.527-.487 1.003c-.322.476-.756.996-.957 1.744-.2.747-.087 1.424-.047 1.997.04.572-.008.991-.075 1.106-.066.114-.412.367-.928.619-.516.251-1.159.493-1.706 1.04-.547.548-.78 1.19-1.031 1.707-.252.515-.504.852-.619.918-.115.066-.543.116-1.116.075-.572-.04-1.24-.153-1.987.047-.748.2-1.278.635-1.753.956-.476.322-.862.488-.994.488s-.527-.166-1.003-.488c-.476-.32-.996-.755-1.744-.956-.748-.2-1.424-.087-1.997-.047-.572.04-.991-.009-1.106-.075-.115-.066-.367-.403-.619-.918-.251-.516-.493-1.16-1.04-1.707-.548-.547-1.19-.789-1.707-1.04-.516-.252-.852-.505-.918-.619-.066-.115-.116-.534-.075-1.106.04-.573.153-1.25-.047-1.997-.2-.748-.635-1.268-.956-1.744-.322-.476-.488-.87-.488-1.003 0-.132.166-.518.488-.994.32-.476.755-1.005.956-1.753.2-.748.087-1.415.047-1.987-.04-.573.009-1.002.075-1.116.066-.115.402-.367.918-.619.516-.251 1.16-.484 1.707-1.031.547-.547.789-1.19 1.04-1.706.252-.516.504-.862.619-.928.115-.066.534-.116 1.106-.075.573.04 1.25.162 1.997-.038.748-.2 1.268-.644 1.744-.966.476-.32.87-.487 1.003-.487zm-3.6 4.8a3.314 3.314 0 00-3.3 3.3c0 1.812 1.488 3.3 3.3 3.3 1.812 0 3.3-1.488 3.3-3.3 0-1.812-1.488-3.3-3.3-3.3zm8.297 1.19a.9.9 0 00-.534.272l-9.6 9.6a.9.9 0 101.275 1.266l9.6-9.6a.9.9 0 00-.741-1.537zm-8.297.61c.84 0 1.5.66 1.5 1.5 0 .839-.66 1.5-1.5 1.5s-1.5-.661-1.5-1.5c0-.84.66-1.5 1.5-1.5zm7.2 5.4a3.314 3.314 0 00-3.3 3.3c0 1.812 1.488 3.3 3.3 3.3 1.812 0 3.3-1.488 3.3-3.3 0-1.812-1.488-3.3-3.3-3.3zm0 1.8c.84 0 1.5.66 1.5 1.5s-.66 1.5-1.5 1.5-1.5-.66-1.5-1.5.66-1.5 1.5-1.5z"/></g></svg>