<svg width="20" height="20" viewBox="0 0 20 20" fill="none" xmlns="http://www.w3.org/2000/svg">
<path d="M18.2654 10.2591C18.1849 10.0944 18.1849 9.90558 18.2654 9.74098L19.0113 8.21502C19.4266 7.36538 19.0976 6.3527 18.2622 5.90946L16.7618 5.11337C16.5999 5.02751 16.489 4.8747 16.4573 4.69428L16.1638 3.02129C16.0004 2.08981 15.1388 1.46388 14.2026 1.59634L12.5209 1.83423C12.3393 1.85986 12.1599 1.8015 12.0282 1.67412L10.8075 0.493193C10.1277 -0.164378 9.0629 -0.164417 8.38322 0.493193L7.16246 1.67423C7.03074 1.80165 6.85125 1.8599 6.66977 1.83435L4.98803 1.59646C4.05152 1.46392 3.1902 2.08993 3.0268 3.02141L2.73337 4.69432C2.70169 4.87478 2.59071 5.02755 2.42888 5.11345L0.928505 5.90954C0.0931243 6.35273 -0.235935 7.3655 0.179373 8.21513L0.925263 9.74105C1.00573 9.9057 1.00573 10.0945 0.925263 10.2591L0.179334 11.7851C-0.235974 12.6347 0.0930851 13.6474 0.928466 14.0906L2.42884 14.8867C2.59071 14.9726 2.70169 15.1254 2.73337 15.3058L3.0268 16.9788C3.17555 17.8267 3.90265 18.4214 4.7383 18.4213C4.82061 18.4213 4.90412 18.4156 4.98807 18.4037L6.66981 18.1658C6.85117 18.1401 7.03078 18.1985 7.1625 18.3259L8.38322 19.5068C8.72314 19.8357 9.15915 20 9.59532 20C10.0314 20 10.4677 19.8356 10.8074 19.5068L12.0282 18.3259C12.1599 18.1985 12.3394 18.1403 12.5209 18.1658L14.2026 18.4037C15.1392 18.5362 16.0004 17.9102 16.1638 16.9787L16.4573 15.3058C16.489 15.1254 16.6 14.9726 16.7618 14.8867L18.2622 14.0906C19.0976 13.6474 19.4266 12.6347 19.0113 11.785L18.2654 10.2591ZM7.28828 4.80924C8.45436 4.80924 9.40306 5.75794 9.40306 6.92402C9.40306 8.0901 8.45436 9.0388 7.28828 9.0388C6.1222 9.0388 5.1735 8.0901 5.1735 6.92402C5.1735 5.75794 6.1222 4.80924 7.28828 4.80924ZM6.19673 14.2142C6.08411 14.3268 5.93649 14.3831 5.78892 14.3831C5.64134 14.3831 5.49369 14.3269 5.38111 14.2142C5.15588 13.989 5.15588 13.6238 5.38111 13.3986L12.9939 5.78579C13.2191 5.56056 13.5843 5.56056 13.8095 5.78579C14.0348 6.01102 14.0348 6.37621 13.8095 6.60144L6.19673 14.2142ZM11.9023 15.1908C10.7362 15.1908 9.7875 14.2421 9.7875 13.0761C9.7875 11.91 10.7362 10.9613 11.9023 10.9613C13.0684 10.9613 14.0171 11.91 14.0171 13.0761C14.0171 14.2421 13.0684 15.1908 11.9023 15.1908Z" fill="url(#paint0_linear_352_1880)"/>
<defs>
<linearGradient id="paint0_linear_352_1880" x1="9.59532" y1="0" x2="9.59532" y2="20" gradientUnits="userSpaceOnUse">
<stop offset="0.166667" stop-color="#1F9071"/>
<stop offset="1" stop-color="#50CAAE"/>
</linearGradient>
</defs>
</svg>
