<svg xmlns="http://www.w3.org/2000/svg" width="25" height="25" xmlns:v="https://vecta.io/nano"><path d="M12.093.097c-.776 0-1.328.397-1.797.714s-.9.586-1.083.638-.687.023-1.25-.017-1.243-.102-1.915.286-.953 1-1.2 1.52-.47.95-.613 1.092-.6.365-1.1.613-1.124.53-1.512 1.2-.317 1.35-.277 1.915.06 1.058.008 1.25-.322.614-.638 1.083S0 11.415 0 12.2s.397 1.328.714 1.797.586.9.638 1.083.03.687-.008 1.25-.1 1.243.277 1.915 1.003.953 1.512 1.2.958.47 1.1.613.365.583.613 1.092.53 1.132 1.2 1.52 1.35.317 1.915.277 1.058-.06 1.25-.008.614.322 1.083.638 1.022.714 1.797.714 1.328-.397 1.797-.714.9-.586 1.083-.638.687-.03 1.25.008 1.243.1 1.915-.277.953-1 1.2-1.52.47-.95.613-1.092.6-.365 1.1-.613 1.124-.53 1.512-1.2.325-1.35.286-1.915-.07-1.058-.017-1.25.322-.614.638-1.083.714-1.022.714-1.797-.397-1.328-.714-1.797-.586-.9-.638-1.083-.023-.687.017-1.25.102-1.243-.286-1.915-1.003-.953-1.512-1.2-.958-.47-1.1-.613-.365-.583-.613-1.092-.53-1.132-1.2-1.52-1.35-.325-1.915-.286-1.058.07-1.25.017-.61-.333-1.07-.65-1.03-.713-1.807-.713h0zm0 1.612c.118 0 .464.15.9.437s.9.686 1.57.865 1.268.07 1.78.034.897.008 1 .067.33.37.554.83.433 1.038.924 1.528 1.066.7 1.528.924.772.452.83.554.103.486.067 1-.137 1.1.042 1.78.57 1.144.857 1.57.437.772.437.9-.15.472-.437.9-.677.892-.857 1.562-.078 1.276-.042 1.8-.008.888-.067 1-.37.33-.83.554-1.038.442-1.528.932-.7 1.066-.924 1.528-.452.764-.554.823-.486.103-1 .067-1.1-.137-1.78.042-1.144.57-1.57.857-.772.437-.9.437-.472-.15-.9-.437-.892-.677-1.562-.857-1.276-.078-1.8-.042-.888-.008-1-.067-.33-.36-.554-.823-.442-1.038-.932-1.528-1.066-.707-1.528-.932-.764-.452-.823-.554-.103-.478-.067-1 .137-1.12-.042-1.8-.57-1.136-.857-1.562-.437-.78-.437-.9.15-.464.437-.9.677-.9.857-1.57.078-1.267.042-1.78.008-.897.067-1 .36-.33.823-.554 1.038-.433 1.528-.924.707-1.066.932-1.528.452-.772.554-.83.478-.103 1-.067 1.12.146 1.8-.034 1.136-.577 1.562-.865.78-.437.9-.437h0zm-3.225 4.3a2.97 2.97 0 0 0-2.956 2.956 2.97 2.97 0 0 0 2.956 2.956 2.97 2.97 0 0 0 2.956-2.956 2.97 2.97 0 0 0-2.956-2.956zM16.3 7.076c-.183.024-.352.1-.48.244l-8.6 8.6a.81.81 0 0 0 .345 1.388.8.8 0 0 0 .797-.254l8.6-8.6c.248-.242.314-.615.164-.927s-.483-.493-.827-.45h0zm-7.432.546a1.33 1.33 0 0 1 1.344 1.344 1.33 1.33 0 0 1-1.344 1.344 1.33 1.33 0 0 1-1.344-1.344 1.33 1.33 0 0 1 1.344-1.344zm6.45 4.837a2.97 2.97 0 0 0-2.956 2.956 2.97 2.97 0 0 0 2.956 2.956 2.97 2.97 0 0 0 2.956-2.956 2.97 2.97 0 0 0-2.956-2.956h0zm0 1.612a1.33 1.33 0 0 1 1.344 1.344 1.33 1.33 0 0 1-1.344 1.344 1.33 1.33 0 0 1-1.344-1.344 1.33 1.33 0 0 1 1.344-1.344h0z" fill="#fff"/></svg>