<svg xmlns="http://www.w3.org/2000/svg" width="40" height="35" fill="none" fill-rule="evenodd" xmlns:v="https://vecta.io/nano"><ellipse fill="#ffdc68" opacity=".5" cx="17.237" cy="17.073" rx="17.237" ry="17.073"/><path d="M15.427 5.854a.63.63 0 0 0-.63.629v.63h-2.52a2.53 2.53 0 0 0-2.52 2.515V28.5a2.53 2.53 0 0 0 2.52 2.515H26.5a5.05 5.05 0 0 0 9.338 0h1.632c1.382-.08 2.52-1.133 2.52-2.515V9.626a2.53 2.53 0 0 0-2.52-2.515h-2.52v-.63a.63.63 0 1 0-1.26 0v.63h-5.04v-.63a.63.63 0 1 0-1.26 0v.63h-5.04v-.63a.63.63 0 1 0-1.26 0v.63h-5.04v-.63a.63.63 0 0 0-.63-.629zm-3.15 2.515h2.52V9a.63.63 0 1 0 1.26 0v-.63h5.04V9a.63.63 0 1 0 1.26 0v-.63h5.04V9a.63.63 0 1 0 1.26 0v-.63h5.04V9a.63.63 0 1 0 1.26 0v-.63h2.52a1.25 1.25 0 0 1 1.26 1.257v18.862a1.25 1.25 0 0 1-1.26 1.257h-1.303c.026-.206.043-.416.043-.63 0-2.77-2.264-5.03-5.04-5.03s-5.04 2.26-5.04 5.03c0 .213.017.422.043.63H12.276a1.25 1.25 0 0 1-1.26-1.257V9.626a1.25 1.25 0 0 1 1.26-1.257zM31.18 25.345c2.095 0 3.78 1.68 3.78 3.772s-1.685 3.772-3.78 3.772-3.78-1.68-3.78-3.772 1.685-3.772 3.78-3.772zm0 1.257a.63.63 0 0 0-.63.629v1.886a.63.63 0 0 0 .63.629h1.9a.63.63 0 0 0 .63-.629.63.63 0 0 0-.63-.629h-1.26V27.23a.63.63 0 0 0-.63-.629z" fill="#000"/><path stroke="#000" stroke-width="1.5" stroke-linecap="round" d="M19.133 18.13l3.836 5.16 7.954-8.576"/></svg>