<svg width="60" height="54" xmlns="http://www.w3.org/2000/svg"><g fill="none" fill-rule="evenodd"><circle fill="#A1DED3" cx="24" cy="30" r="24"/><g fill="#000" fill-rule="nonzero"><path d="M49 36.667H27v-.917h-1.833v5.5a2.75 2.75 0 002.75 2.75h20.166a2.75 2.75 0 002.75-2.75v-11H49v6.417zm-.917 5.5H27.917A.917.917 0 0127 41.25V38.5h22v2.75c0 .506-.41.917-.917.917zM27 7.333h22v.917h1.833v-5.5A2.75 2.75 0 0048.083 0H27.917a2.75 2.75 0 00-2.75 2.75v9.167H27V7.333zm.917-5.5h20.166c.507 0 .917.41.917.917V5.5H27V2.75c0-.506.41-.917.917-.917z"/><path d="M35.25 2.75h5.5v1.833h-5.5zM47.167 33V14.667a.917.917 0 00-.917-.917H16.917a.917.917 0 00-.917.917V33c0 .506.41.917.917.917H46.25c.506 0 .917-.41.917-.917zm-7.266-.917H23.266a6.426 6.426 0 00-5.433-5.432v-5.635a6.426 6.426 0 005.433-5.433h16.635a6.426 6.426 0 005.432 5.433v5.635a6.427 6.427 0 00-5.432 5.432zm5.432-12.926a4.594 4.594 0 01-3.573-3.574h3.573v3.574zm-23.926-3.574a4.594 4.594 0 01-3.574 3.574v-3.574h3.574zM17.833 28.51a4.594 4.594 0 013.574 3.573h-3.574V28.51zm23.927 3.573a4.594 4.594 0 013.573-3.573v3.573H41.76z"/><path d="M59.083 10.083H38a.917.917 0 00-.917.917v.917h21.084V22H49v1.833h9.167v2.75H49v1.834h10.083c.507 0 .917-.41.917-.917V11a.917.917 0 00-.917-.917z"/><path d="M49 14.667h3.667V16.5H49zM54.5 14.667h1.833V16.5H54.5zM31.583 18.333a5.5 5.5 0 100 11 5.5 5.5 0 000-11zm0 9.167a3.667 3.667 0 110-7.333 3.667 3.667 0 010 7.333z"/></g></g></svg>