<?xml version="1.0" encoding="UTF-8"?>
<svg width="16px" height="16px" viewBox="0 0 16 16" version="1.1" xmlns="http://www.w3.org/2000/svg" xmlns:xlink="http://www.w3.org/1999/xlink">
    <title>50E0751F-E724-4302-9F86-8A7F6D272FF2</title>
    <g id="WIP" stroke="none" stroke-width="1" fill="none" fill-rule="evenodd">
        <g id="1-eng" transform="translate(-348.000000, -96.000000)">
            <g id="Group-29" transform="translate(60.000000, 66.000000)">
                <g id="Group-28" transform="translate(42.000000, 28.000000)">
                    <g id="launch-24px" transform="translate(246.000000, 2.000000)">
                        <polygon id="Path" points="0 0 16 0 16 16 0 16"></polygon>
                        <path d="M12.6666667,12.6666667 L3.33333333,12.6666667 L3.33333333,3.33333333 L8,3.33333333 L8,2 L3.33333333,2 C2.59333333,2 2,2.6 2,3.33333333 L2,12.6666667 C2,13.4 2.59333333,14 3.33333333,14 L12.6666667,14 C13.4,14 14,13.4 14,12.6666667 L14,8 L12.6666667,8 L12.6666667,12.6666667 Z M9.33333333,2 L9.33333333,3.33333333 L11.7266667,3.33333333 L5.17333333,9.88666667 L6.11333333,10.8266667 L12.6666667,4.27333333 L12.6666667,6.66666667 L14,6.66666667 L14,2 L9.33333333,2 Z" id="Shape" fill="#000000" fill-rule="nonzero"></path>
                    </g>
                </g>
            </g>
        </g>
    </g>
</svg>