<svg width="33" height="32" xmlns="http://www.w3.org/2000/svg"><g fill="none" fill-rule="evenodd"><circle fill="#FFDC68" opacity=".5" cx="16" cy="16" r="16"/><g fill="#000"><path d="M26.672 29.594a4.927 4.927 0 01-4.922-4.922 4.927 4.927 0 014.922-4.922 4.927 4.927 0 014.922 4.922 4.927 4.927 0 01-4.922 4.922zM10.406 26.78V14.078h19.782v5.335a6.292 6.292 0 00-3.516-1.07 6.328 6.328 0 00-5.31 2.889c-.062-.032-.281.411-.656 1.33a6.274 6.274 0 00-.323 1.407v1.406c.054.487.164.958.323 1.406h-10.3zm2.86-16.922v.704a.703.703 0 101.406 0v-.704h2.812v.704a.703.703 0 101.407 0v-.704h2.812v.704a.703.703 0 101.406 0v-.704h2.813v.704a.703.703 0 101.406 0v-.704h2.86v2.813H10.405V9.859h2.86zm18.328-.703a.703.703 0 00-.703-.703h-3.563v-.75a.703.703 0 10-1.406 0v.75h-2.813v-.75a.703.703 0 10-1.406 0v.75h-2.812v-.75a.703.703 0 10-1.407 0v.75h-2.812v-.75a.703.703 0 10-1.406 0v.75H9.703A.703.703 0 009 9.156v18.328c0 .389.315.703.703.703h11.71A6.327 6.327 0 0026.672 31 6.335 6.335 0 0033 24.672a6.299 6.299 0 00-1.406-3.973V9.156z"/><path d="M28.789 21.12L27 22.89l-1.789-1.769a.42.42 0 00-.589 0 .408.408 0 000 .583l1.789 1.768h-1.078a.414.414 0 00-.417.411c0 .228.187.412.417.412h1.25v.824h-1.25a.415.415 0 00-.417.412c0 .227.187.411.417.411h1.25v1.647c0 .228.187.412.417.412.23 0 .417-.184.417-.412v-1.647h1.25c.23 0 .417-.184.417-.411a.414.414 0 00-.417-.412h-1.25v-.824h1.25c.23 0 .417-.184.417-.412a.414.414 0 00-.417-.411H27.59l1.79-1.767a.409.409 0 000-.583.42.42 0 00-.59 0z"/></g></g></svg>