<svg width="115" height="32" xmlns="http://www.w3.org/2000/svg"><g fill="none" fill-rule="evenodd"><g fill-rule="nonzero"><g transform="translate(87.678 4.678)"><circle fill="#D8DFF5" cx="11.301" cy="11.301" r="11.29"/><circle cx="1.57" cy="1.57" r="1.525" transform="translate(9.731 9.731)" fill="#FFC256"/></g><g fill="#6882DA"><path d="M111.549 6.113h.987a.624.624 0 000-1.247h-2.37a.624.624 0 00-.624.623v2.37a.624.624 0 001.248 0v-.686a14.684 14.684 0 012.921 8.806c0 8.123-6.609 14.732-14.732 14.732s-14.731-6.609-14.731-14.732S90.856 1.248 98.979 1.248c.601 0 1.206.036 1.798.108a.624.624 0 00.15-1.238A16.206 16.206 0 0098.98 0 15.875 15.875 0 0087.68 4.68 15.875 15.875 0 0083 15.98c0 4.268 1.662 8.28 4.68 11.298a15.875 15.875 0 0011.3 4.68c4.268 0 8.28-1.662 11.298-4.68a15.875 15.875 0 004.68-11.299c0-3.601-1.203-7.06-3.41-9.866z"/><path d="M89.766 9.42a.624.624 0 00-.86.193 11.96 11.96 0 00-1.776 7.617c.284 2.701 1.5 5.25 3.425 7.174a11.877 11.877 0 008.424 3.484c3.051 0 6.102-1.161 8.425-3.484 4.645-4.645 4.645-12.204 0-16.85a11.942 11.942 0 00-7.163-3.422 11.96 11.96 0 00-7.607 1.76.624.624 0 00.665 1.056c4.238-2.67 9.675-2.059 13.223 1.489 4.159 4.159 4.159 10.926 0 15.085-4.16 4.159-10.926 4.159-15.085 0-3.499-3.499-4.12-9.068-1.477-13.241a.624.624 0 00-.194-.861z"/><path d="M107.089 16.613h.769a.624.624 0 000-1.247h-.77a.624.624 0 000 1.247zM89.477 15.97c0 .344.28.623.624.623h.77a.624.624 0 000-1.248h-.77a.624.624 0 00-.624.624zM99.613 7.87V7.1a.624.624 0 00-1.247 0v.77a.624.624 0 001.247 0zM98.345 24.089v.769a.624.624 0 001.248 0v-.77a.624.624 0 00-1.248 0zM95.853 11.97a.624.624 0 00-.883.883l2.114 2.114a2.151 2.151 0 001.895 3.162 2.151 2.151 0 001.895-3.162l4.266-4.266a.624.624 0 00-.883-.882l-4.265 4.265a2.135 2.135 0 00-2.025 0l-2.114-2.114zm4.028 4.01a.902.902 0 01-1.803 0 .902.902 0 011.803 0zM91.437 8.437a.626.626 0 00.183-.441.627.627 0 00-.624-.624.629.629 0 00-.442.182.627.627 0 00.441 1.065.628.628 0 00.442-.182zM103.3 1.864a.626.626 0 00.625-.624.628.628 0 00-.625-.624.628.628 0 00-.624.624.627.627 0 00.624.624z"/></g></g><g fill-rule="nonzero"><path d="M4.088 2.759h40.586a3.364 3.364 0 013.364 3.363v19.756a3.364 3.364 0 01-3.364 3.364H4.088a3.364 3.364 0 01-3.364-3.364V6.122A3.364 3.364 0 014.088 2.76z" fill="#D8DFF5"/><path d="M5.855 20.463a3.648 3.648 0 013.222 5.358h30.608a3.648 3.648 0 014.933-4.933v-9.776a3.648 3.648 0 01-4.933-4.933H9.077a3.648 3.648 0 01-4.933 4.933v9.776a3.633 3.633 0 011.71-.425z" fill="#FFF"/><path d="M44.674 29.966H4.088A4.092 4.092 0 010 25.878V6.122a4.092 4.092 0 014.088-4.088h40.586a4.092 4.092 0 014.088 4.088v19.756a4.092 4.092 0 01-4.088 4.088zM4.088 3.483a2.642 2.642 0 00-2.64 2.64v19.755a2.642 2.642 0 002.64 2.64h40.586a2.643 2.643 0 002.64-2.64V6.122a2.642 2.642 0 00-2.64-2.64H4.088z" fill="#6181E1"/><path d="M39.685 26.545H9.077a.724.724 0 01-.64-1.064c.227-.425.342-.886.342-1.37a2.927 2.927 0 00-4.295-2.583.724.724 0 01-1.064-.64v-9.776a.724.724 0 011.064-.64A2.927 2.927 0 008.438 6.52a.724.724 0 01.64-1.064h30.607a.724.724 0 01.639 1.064 2.927 2.927 0 003.953 3.954.724.724 0 011.065.639v9.776a.724.724 0 01-1.065.64 2.927 2.927 0 00-3.953 3.953.724.724 0 01-.64 1.064zm-29.57-1.448h28.533a4.377 4.377 0 015.246-5.246V12.15a4.377 4.377 0 01-5.246-5.246H10.114a4.377 4.377 0 01-5.246 5.246v7.702a4.377 4.377 0 015.246 5.246z" fill="#6181E1"/><path d="M24.381 23.394c-4.077 0-7.394-3.317-7.394-7.394 0-.817.133-1.62.394-2.387a.724.724 0 011.371.467 5.952 5.952 0 005.629 7.865A5.952 5.952 0 0030.327 16a5.952 5.952 0 00-5.946-5.945c-1.674 0-3.28.712-4.406 1.953a.724.724 0 11-1.073-.973 7.41 7.41 0 015.48-2.429c4.076 0 7.393 3.317 7.393 7.394s-3.317 7.394-7.394 7.394zM40 15.299h-5.472a.724.724 0 010-1.448H40a.724.724 0 010 1.448zM37.948 18.15h-3.42a.724.724 0 010-1.449h3.42a.724.724 0 010 1.448zM14.234 15.299H8.762a.724.724 0 010-1.448h5.472a.724.724 0 110 1.448zM14.234 18.15h-3.42a.724.724 0 010-1.449h3.42a.724.724 0 010 1.448zM5.855 24.79c-.653 0-.968-.832-.481-1.265a.731.731 0 01.882-.061.73.73 0 01.307.75.732.732 0 01-.708.577zM5.855 8.659c-.631 0-.959-.79-.512-1.237a.731.731 0 01.853-.126.73.73 0 01.375.744.733.733 0 01-.716.619zM42.736 24.79c-.656 0-.975-.848-.47-1.275a.732.732 0 01.857-.06.73.73 0 01.318.774.732.732 0 01-.705.562zM42.736 8.659c-.643 0-.966-.822-.492-1.257a.732.732 0 01.849-.098.729.729 0 01.359.737.732.732 0 01-.716.618z" fill="#6181E1"/></g><path stroke="#6B87EE" stroke-linecap="square" stroke-dasharray="2,4" d="M53 12h26M53 20h26"/></g></svg>