<?xml version="1.0" encoding="UTF-8"?>
<svg width="112px" height="32px" viewBox="0 0 112 32" version="1.1" xmlns="http://www.w3.org/2000/svg" xmlns:xlink="http://www.w3.org/1999/xlink">
    <title>3A54992B-5482-45EE-8AB9-95CAC861DE7D</title>
    <g id="Page-1" stroke="none" stroke-width="1" fill="none" fill-rule="evenodd">
        <g id="Japan-Payment" transform="translate(-136.000000, -403.000000)">
            <g id="order" transform="translate(136.000000, 403.000000)">
                <g fill="#6882DA" fill-rule="nonzero">
                    <polygon id="Path" points="7 26 11 26 11 28 7 28"></polygon>
                    <polygon id="Path" points="16 13.2857056 14.6667365 12 7.99997905 18.4285887 5.33332635 15.8571169 4 17.1428225 7.99997905 21"></polygon>
                    <path d="M31,7.52941176 L18.9795918,7.52941176 L18.9795918,3.33860392 C18.9795918,1.49772549 17.4695122,0 15.6133082,0 L3.36628367,0 C1.51014286,0 0,1.49772549 0,3.33860392 L0,7.52941176 L0,24.4705882 L0,28.6613961 C0,30.5022745 1.51014286,32 3.36628367,32 L15.6133082,32 C17.4695122,32 18.9795918,30.5022745 18.9795918,28.6613961 L18.9795918,24.4705882 L31,24.4705882 L31,7.52941176 Z M12.938198,1.88235294 L11.7994224,3.76470588 L7.18010612,3.76470588 L6.04133061,1.88235294 L12.938198,1.88235294 Z M1.89795918,3.33860392 C1.89795918,2.5356549 2.55667755,1.88235294 3.36628367,1.88235294 L3.82799388,1.88235294 L6.1055449,5.64705882 L12.8739837,5.64705882 L15.1515347,1.88235294 L15.6132449,1.88235294 C16.4229776,1.88235294 17.0816327,2.5356549 17.0816327,3.33860392 L17.0816327,7.52941176 L1.89795918,7.52941176 L1.89795918,3.33860392 Z M17.0816327,28.6613961 C17.0816327,29.4643451 16.4229776,30.1176471 15.6133082,30.1176471 L3.36628367,30.1176471 C2.55667755,30.1176471 1.89795918,29.4643451 1.89795918,28.6613961 L1.89795918,24.4705882 L17.0816327,24.4705882 L17.0816327,28.6613961 Z M29.1020408,22.5882353 L1.89795918,22.5882353 L1.89795918,9.41176471 L29.1020408,9.41176471 L29.1020408,22.5882353 Z" id="Shape"></path>
                    <polygon id="Path" points="19 11 23 11 23 13 19 13"></polygon>
                    <polygon id="Path" points="19 15 25 15 25 17 19 17"></polygon>
                    <polygon id="Path" points="18 19 27 19 27 21 18 21"></polygon>
                </g>
                <g id="business-and-finance" transform="translate(83.000000, 3.000000)" fill="#6882DA" fill-rule="nonzero">
                    <path d="M9.13934426,12 L3.86065574,12 C3.38534426,12 3,12.4477333 3,13 C3,13.5522667 3.38534426,14 3.86065574,14 L9.13934426,14 C9.61465574,14 10,13.5522667 10,13 C10,12.4477333 9.61465574,12 9.13934426,12 Z" id="Path"></path>
                    <path d="M9.13934426,15 L3.86065574,15 C3.38534426,15 3,15.4477333 3,16 C3,16.5522667 3.38534426,17 3.86065574,17 L9.13934426,17 C9.61465574,17 10,16.5522667 10,16 C10,15.4477333 9.61465574,15 9.13934426,15 Z" id="Path"></path>
                    <path d="M25.6015625,11.816775 C25.6015625,11.5155562 25.6015625,3.02236875 25.6015625,2.53125 C25.6015625,1.13551875 24.4581582,0 23.0527344,0 L2.54882812,0 C1.1434043,0 0,1.13551875 0,2.53125 C0,3.13509375 0,17.062875 0,17.71875 C0,19.1144813 1.1434043,20.25 2.54882812,20.25 L12.1786406,20.25 C12.9679844,24.0966 16.400916,27 20.5039062,27 C25.1886523,27 29,23.2149375 29,18.5625 C29,15.8079375 27.6638477,13.3576875 25.6015625,11.816775 Z M1.69921875,2.53125 C1.69921875,2.06600625 2.08035352,1.6875 2.54882812,1.6875 L23.0527344,1.6875 C23.521209,1.6875 23.9023438,2.06600625 23.9023438,2.53125 L23.9023438,3.375 L1.69921875,3.375 L1.69921875,2.53125 Z M1.69921875,5.0625 L23.9023438,5.0625 L23.9023438,6.75 L1.69921875,6.75 L1.69921875,5.0625 Z M12.0078125,18.5625 L2.54882812,18.5625 C2.08035352,18.5625 1.69921875,18.1839937 1.69921875,17.71875 L1.69921875,8.4375 L23.9023438,8.4375 L23.9023438,10.8302625 C22.8610625,10.3771125 21.7116543,10.125 20.5039062,10.125 C15.8191602,10.125 12.0078125,13.9100625 12.0078125,18.5625 Z M20.5039062,25.3125 C16.7561094,25.3125 13.7070312,22.28445 13.7070312,18.5625 C13.7070312,14.84055 16.7561094,11.8125 20.5039062,11.8125 C24.2517031,11.8125 27.3007812,14.84055 27.3007812,18.5625 C27.3007812,22.28445 24.2517031,25.3125 20.5039062,25.3125 Z" id="Shape"></path>
                    <path d="M23.76568,16.2510491 C23.4533067,15.9163074 22.9467467,15.9163074 22.6343733,16.2511062 L19.2000267,19.9306931 L17.36568,17.9653858 C17.0533067,17.6306442 16.5467467,17.6306442 16.23432,17.9653858 C15.9218933,18.3001275 15.9218933,18.8428113 16.23432,19.1775529 L18.63432,21.7489723 C18.7905333,21.9163432 18.99528,22 19.2000267,22 C19.4047733,22 19.60952,21.9163432 19.76568,21.7489152 L23.76568,17.4632162 C24.0781067,17.1284745 24.0781067,16.5857908 23.76568,16.2510491 Z" id="Path"></path>
                </g>
                <line x1="35.5" y1="14.5" x2="82.5" y2="14.5" id="Line-3" stroke="#6B87EE" stroke-linecap="square" stroke-dasharray="3,5"></line>
            </g>
        </g>
    </g>
</svg>