<svg width="35" height="32" viewBox="0 0 35 32" fill="none" xmlns="http://www.w3.org/2000/svg">
<g id="Group 59">
<circle id="Oval Copy 18" opacity="0.5" cx="16" cy="16" r="16" fill="#D6CFF0"/>
<path id="&#239;&#128;&#182;" d="M27.5 5.25C27.5 5.10938 27.4062 4.96875 27.3125 4.875C27.2188 4.78125 27.0781 4.6875 26.9375 4.6875H14.5625C14.375 4.6875 14.2344 4.78125 14.1406 4.875C14.0469 4.96875 14 5.10938 14 5.25V6.75C14 6.9375 14.0469 7.07812 14.1406 7.17188C14.2344 7.26562 14.375 7.3125 14.5625 7.3125H26.9375C27.0781 7.3125 27.2188 7.26562 27.3125 7.17188C27.4062 7.07812 27.5 6.9375 27.5 6.75V5.25ZM14.5625 13.3125C14.375 13.3125 14.2344 13.2656 14.1406 13.1719C14.0469 13.0781 14 12.9375 14 12.75V11.25C14 11.1094 14.0469 10.9688 14.1406 10.875C14.2344 10.7812 14.375 10.6875 14.5625 10.6875H34.4375C34.5781 10.6875 34.7188 10.7812 34.8125 10.875C34.9062 10.9688 35 11.1094 35 11.25V12.75C35 12.9375 34.9062 13.0781 34.8125 13.1719C34.7188 13.2656 34.5781 13.3125 34.4375 13.3125H14.5625ZM14.5625 25.3125C14.375 25.3125 14.2344 25.2656 14.1406 25.1719C14.0469 25.0781 14 24.9375 14 24.75V23.25C14 23.1094 14.0469 22.9688 14.1406 22.875C14.2344 22.7812 14.375 22.6875 14.5625 22.6875H34.4375C34.5781 22.6875 34.7188 22.7812 34.8125 22.875C34.9062 22.9688 35 23.1094 35 23.25V24.75C35 24.9375 34.9062 25.0781 34.8125 25.1719C34.7188 25.2656 34.5781 25.3125 34.4375 25.3125H14.5625ZM26.9375 16.6875C27.0781 16.6875 27.2188 16.7812 27.3125 16.875C27.4062 16.9688 27.5 17.1094 27.5 17.25V18.75C27.5 18.9375 27.4062 19.0781 27.3125 19.1719C27.2188 19.2656 27.0781 19.3125 26.9375 19.3125H14.5625C14.375 19.3125 14.2344 19.2656 14.1406 19.1719C14.0469 19.0781 14 18.9375 14 18.75V17.25C14 17.1094 14.0469 16.9688 14.1406 16.875C14.2344 16.7812 14.375 16.6875 14.5625 16.6875H26.9375Z" fill="black"/>
</g>
</svg>
