<?xml version="1.0" encoding="UTF-8"?>
<svg width="29px" height="23px" viewBox="0 0 29 23" version="1.1" xmlns="http://www.w3.org/2000/svg" xmlns:xlink="http://www.w3.org/1999/xlink">
    <!-- Generator: Sketch 63.1 (92452) - https://sketch.com -->
    <title>Group 3 Copy</title>
    <desc>Created with Sketch.</desc>
    <g id="Page-1" stroke="none" stroke-width="1" fill="none" fill-rule="evenodd">
        <g id="Artboard" transform="translate(-322.000000, -335.000000)">
            <g id="Group-3-Copy" transform="translate(322.000000, 335.000000)">
                <circle id="Oval" fill="#C2F4EA" cx="11.5" cy="11.5" r="11.5"></circle>
                <g id="Group-41" transform="translate(8.000000, 0.000000)">
                    <rect id="rapid-technical-review" x="0" y="0" width="24" height="24"></rect>
                    <path d="M21,4.5214606 C21,4.41364922 20.9572002,4.30983826 20.8798005,4.23243009 L19.766605,3.11911257 C19.6058057,2.96029581 19.3494067,2.96029581 19.1906074,3.11911257 L18.53741,3.77038132 L18.3420108,3.57496069 C18.2280113,3.45894844 18.0714119,3.39594179 17.9106126,3.39594179 C17.7478132,3.39594179 17.5930139,3.45894844 17.4792143,3.57496069 L15.0472242,6.00721743 L7.43325525,6.00721743 L7.43325525,3.82318689 C7.43325525,3.48535123 7.16065636,3.21252243 6.82265773,3.21252243 C6.48485911,3.21252243 6.21206022,3.48535123 6.21206022,3.82318689 L6.21206022,6.00721743 L4.02846911,6.00721743 C3.69067049,6.00721743 3.4178716,6.28004623 3.4178716,6.61788189 C3.4178716,6.95571755 3.69047049,7.22854635 4.02846911,7.22854635 L6.21226022,7.22854635 L6.21226022,14.8431501 L5.14186458,15.9158633 L5.10106475,15.9544674 C5.04206499,16.0134736 4.99526518,16.0826809 4.9646653,16.1558887 L3.05967306,20.1249076 C2.94767351,20.3589323 2.99647332,20.6377618 3.17967257,20.8209811 C3.2956721,20.9389936 3.45227146,21 3.61107081,21 C3.70067045,21 3.79007008,20.9795978 3.87566974,20.9409938 L7.87885343,19.019591 C7.94005318,18.9889877 7.99685295,18.9503837 8.04585275,18.8995783 L9.15904822,17.7862608 L16.7686172,17.7862608 L16.7686172,19.9702913 C16.7686172,20.308127 17.0434161,20.5809558 17.3792147,20.5809558 C17.7170134,20.5809558 17.9898123,20.308127 17.9898123,19.9702913 L17.9898123,17.7862608 L20.1736034,17.7862608 C20.511402,17.7862608 20.7842009,17.513432 20.7842009,17.1755963 C20.7842009,16.8377607 20.511602,16.5649319 20.1736034,16.5649319 L17.9900123,16.5649319 L17.9900123,8.95452853 L20.4240023,6.52027158 C20.6622014,6.28204644 20.6622014,5.89540563 20.4240023,5.65718048 L20.2286031,5.46175985 L20.8798005,4.8084909 C20.9572002,4.73308294 21,4.62927198 21,4.5214606 Z M7.43325525,7.22854635 L13.8258292,7.22854635 L7.43325525,13.6218212 L7.43325525,7.22854635 Z M4.91366551,19.0867981 L5.80306189,17.2326023 L6.76985795,18.1973042 L4.91366551,19.0867981 Z M10.3802432,16.5649319 L16.7688172,10.1758575 L16.7688172,16.5651319 L10.3802432,16.5651319 L10.3802432,16.5649319 Z M16.9478165,8.27065635 L8.51805083,16.7033465 C8.50385089,16.717548 8.48945095,16.7297493 8.475251,16.7441508 L7.47185509,17.7496569 L6.25286005,16.5305282 L15.7308215,7.04952745 L17.9106126,4.86949734 L19.1298076,6.08862602 L16.9478165,8.27065635 Z M19.7116052,4.82469261 L19.1742074,4.28523566 L19.4774062,3.98200366 L20.016804,4.5214606 L19.7116052,4.82469261 Z" id="Shape" fill="#000000" fill-rule="nonzero"></path>
                </g>
            </g>
        </g>
    </g>
</svg>