<?xml version="1.0" encoding="UTF-8"?>
<svg width="40px" height="41px" viewBox="0 0 40 41" version="1.1" xmlns="http://www.w3.org/2000/svg" xmlns:xlink="http://www.w3.org/1999/xlink">
    <title>BC75BD90-67D5-40DE-AAEA-D0F2FC67217A</title>
    <g id="Page-1" stroke="none" stroke-width="1" fill="none" fill-rule="evenodd">
        <g id="Inline-offer-components" transform="translate(-36.000000, -1381.000000)" fill="#B04ED2" fill-rule="nonzero">
            <g id="Group-119" transform="translate(0.000000, 1340.000000)">
                <g id="Group-16" transform="translate(36.000000, 41.000000)">
                    <path d="M37.4390244,6.21862348 L37.4390244,6.21862348 C37.2317315,4.6235492 36.2512174,3.37357242 35,3.10931174 L35,3.10931174 C36.2512174,2.84505106 37.2317315,1.59507428 37.4390244,8.8817842e-16 L37.4390244,8.8817842e-16 C37.6463173,1.59507428 38.6268313,2.84505106 39.8780488,3.10931174 L39.8780488,3.10931174 C38.6268313,3.37357242 37.6463173,4.62346114 37.4390244,6.21862348 Z" id="Path"></path>
                    <path d="M2.43902439,26.2186235 L2.43902439,26.2186235 C2.23173149,24.6235492 1.25121744,23.3735724 -4.00568467e-13,23.1093117 L-4.00568467e-13,23.1093117 C1.25121744,22.8450511 2.23173149,21.5950743 2.43902439,20 L2.43902439,20 C2.64631729,21.5950743 3.62683134,22.8450511 4.87804878,23.1093117 L4.87804878,23.1093117 C3.62683134,23.3735724 2.64631729,24.6234611 2.43902439,26.2186235 Z" id="Path"></path>
                    <path d="M32.4390244,40.2186235 L32.4390244,40.2186235 C32.2317315,38.6235492 31.2512174,37.3735724 30,37.1093117 L30,37.1093117 C31.2512174,36.8450511 32.2317315,35.5950743 32.4390244,34 L32.4390244,34 C32.6463173,35.5950743 33.6268313,36.8450511 34.8780488,37.1093117 L34.8780488,37.1093117 C33.6268313,37.3735724 32.6463173,38.6234611 32.4390244,40.2186235 Z" id="Path"></path>
                    <path d="M23.5,5 C22.6342641,5 22.0175541,5.44335087 21.4937511,5.79687296 C20.9699481,6.15039506 20.5006818,6.45141129 20.2843749,6.50937114 C20.0680689,6.56732799 19.5178872,6.53487108 18.8875,6.49062119 C18.257113,6.4463653 17.499757,6.37650148 16.75,6.80937038 C16.000243,7.24224227 15.6862393,7.93818349 15.409375,8.50624104 C15.1325083,9.07430159 14.883349,9.56663933 14.725,9.72498793 C14.566654,9.88333352 14.0649371,10.1324949 13.4968751,10.4093612 C12.9288161,10.6862245 12.2422481,11.0002277 11.8093751,11.7499828 C11.3765053,12.4997378 11.4557413,13.2570919 11.5,13.8874773 C11.5442561,14.5178627 11.5673261,15.0680433 11.50936,15.2843487 C11.451403,15.5006542 11.150383,15.969919 10.79686,16.4937206 C10.443355,17.0175223 10,17.6342217 10,18.4999745 C10,19.3657123 10.443355,19.9824207 10.796875,20.5062194 C11.150398,21.030018 11.451418,21.4992768 11.509375,21.7155763 C11.5673353,21.9319057 11.544265,22.4820743 11.500015,23.1124627 C11.455756,23.7428511 11.37652,24.5001992 11.80939,25.2499573 C12.242263,25.9997153 12.9288312,26.3136945 13.4968899,26.5905638 C14.0649519,26.8674331 14.5666689,27.1166125 14.7250149,27.2749521 C14.8833639,27.4332917 15.1325232,27.9256204 15.4093899,28.493699 C15.6862542,29.0617475 16.0002579,29.7576857 16.7500148,30.1905546 C17.4997718,30.6234235 18.2571278,30.5441937 18.8875148,30.4999438 C19.5179021,30.4556939 20.0680841,30.432624 20.2843898,30.4906439 C20.5006967,30.5486037 20.9699627,30.8496229 21.4937659,31.203142 C22.0175539,31.5566311 22.6342639,32 23.5,32 C24.3657586,32 24.9824599,31.5566311 25.5062509,31.203112 C26.0300625,30.8495929 26.4993048,30.5485737 26.7156258,30.4906139 C26.9319228,30.432654 27.4821135,30.4557239 28.1125002,30.4999138 C28.7428908,30.5441937 29.5002498,30.6234235 30.2500001,30.1905546 C30.9997514,29.7576857 31.3137584,29.0617475 31.5906251,28.493669 C31.8674894,27.9256204 32.1166421,27.4332917 32.2750001,27.2749221 C32.4333551,27.1165825 32.9350694,26.8674331 33.5031251,26.5905638 C34.0711784,26.3136945 34.7577553,25.9996853 35.190625,25.2499273 C35.6234956,24.5001692 35.55364,23.7428211 35.509375,23.1124327 C35.4651136,22.4820443 35.432671,21.9318757 35.490625,21.7155763 C35.548588,21.4992768 35.8496206,21.029988 36.203125,20.5061894 C36.5566483,19.9824207 37,19.3657123 37,18.4999745 C37,17.6342217 36.5566483,17.0175223 36.203125,16.4937206 C35.8496206,15.969919 35.548588,15.5006542 35.490625,15.2843487 C35.4326626,15.0680433 35.465095,14.5178627 35.509375,13.8874773 C35.55364,13.2570919 35.6234956,12.4997378 35.190625,11.7499828 C34.7577553,11.0002277 34.0711784,10.6862245 33.5031251,10.4093612 C32.9350694,10.1324949 32.4333551,9.88333352 32.2750001,9.72498793 C32.1166421,9.56663933 31.8674894,9.07430159 31.5906251,8.50624104 C31.3137584,7.93818349 30.9997514,7.24224227 30.2500001,6.80937038 C29.5002498,6.37650148 28.7428908,6.4463653 28.1125002,6.49062119 C27.4821132,6.53487708 26.9319225,6.56732199 26.7156255,6.50937114 C26.4993045,6.45141129 26.0300622,6.15039506 25.5062506,5.79687296 C24.9824596,5.44335087 24.3657583,5 23.5,5 L23.5,5 Z M23.500001,6.7999954 C23.63225,6.7999954 24.0180107,6.96641697 24.493751,7.28749415 C24.969488,7.60857133 25.4992067,8.0527832 26.246876,8.25311669 C26.994524,8.45345017 27.661847,8.33081349 28.2343756,8.29061659 C28.8069289,8.25042269 29.2354906,8.29949657 29.3500006,8.3656164 C29.4645106,8.43173023 29.7172876,8.77781235 29.9687506,9.29373903 C30.2201959,9.80966271 30.4526839,10.4526571 31.0000006,10.9999847 C31.5473176,11.5473093 32.1903286,11.7797757 32.7062505,12.031232 C33.2221695,12.2826854 33.5682498,12.5354707 33.6343755,12.6499805 C33.7004985,12.7644932 33.7495785,13.1930691 33.7093755,13.7656026 C33.6691728,14.3381331 33.5559198,15.0054364 33.7562505,15.7530975 C33.9565998,16.5007556 34.3914135,17.0304853 34.7125005,17.506218 C35.0335875,17.9819358 35.2000005,18.3677348 35.2000005,18.4999745 C35.2000005,18.6321842 35.0335875,19.0273432 34.7125005,19.5030819 C34.3914135,19.9788207 33.9565998,20.4991694 33.7562505,21.2468275 C33.5559198,21.9944856 33.6691728,22.6711638 33.7093755,23.2437124 C33.7495785,23.8162309 33.7005255,24.2354498 33.6343755,24.3499596 C33.5682498,24.4644693 33.2221695,24.7172486 32.7062505,24.968708 C32.1903286,25.2201673 31.5473176,25.4619967 31.0000006,26.0093153 C30.4526839,26.5566639 30.2201959,27.1996523 29.9687506,27.7155609 C29.7172876,28.2314996 29.4645106,28.5682188 29.3500006,28.6343086 C29.2354906,28.7004284 28.8069289,28.7495083 28.2343756,28.7093084 C27.661847,28.6691385 26.994524,28.5558588 26.246876,28.7561983 C25.4992067,28.9565378 24.969488,29.3913567 24.493751,29.7124458 C24.0180107,30.033535 23.63225,30.1999446 23.500001,30.1999446 C23.3677731,30.1999446 22.9726038,30.033535 22.4968761,29.7124458 C22.0211421,29.3913567 21.5007891,28.9565378 20.7531261,28.7561983 C20.0054649,28.5558588 19.3287822,28.6691385 18.75625,28.7093084 C18.183715,28.7495083 17.764513,28.7003084 17.65,28.6343086 C17.535487,28.5682188 17.282704,28.2314996 17.03125,27.7155609 C16.779793,27.1996523 16.537951,26.5566639 15.990625,26.0093153 C15.443296,25.4619967 14.8003003,25.2201673 14.2843751,24.968708 C13.7684474,24.7172486 13.4317394,24.4644693 13.3656251,24.3499596 C13.2995111,24.2354498 13.2504314,23.8162309 13.2906251,23.2437124 C13.3308221,22.6711638 13.4440841,21.9944856 13.2437501,21.2468275 C13.0434164,20.4991694 12.6085784,19.9788207 12.2875001,19.5030819 C11.9664221,19.0273432 11.8000001,18.6321842 11.8000001,18.4999745 C11.8000001,18.3677348 11.9664221,17.9819358 12.2875001,17.506218 C12.6085784,17.0304853 13.0434164,16.5007556 13.2437501,15.7530975 C13.4440841,15.0054364 13.3308221,14.3381331 13.2906251,13.7656026 C13.2504314,13.1930691 13.2995051,12.7644932 13.3656251,12.6499805 C13.4317394,12.5354707 13.7684474,12.2826854 14.2843751,12.031232 C14.8003003,11.7797757 15.443296,11.5473093 15.990625,10.9999847 C16.537951,10.4526571 16.779793,9.80966271 17.03125,9.29373903 C17.282704,8.77781235 17.535487,8.43173023 17.65,8.3656164 C17.764513,8.29950257 18.183715,8.25042269 18.75625,8.29061659 C19.3287819,8.33081349 20.0054649,8.45345017 20.7531261,8.25311669 C21.5007891,8.0527832 22.0211421,7.60857133 22.4968761,7.28749415 C22.9726038,6.96641697 23.3677731,6.7999954 23.500001,6.7999954 L23.500001,6.7999954 Z M19.9000002,11.5999831 C18.0881323,11.5999831 16.6000003,13.0880903 16.6000003,14.8999747 C16.6000003,16.7118411 18.0881173,18.1999753 19.9000002,18.1999753 C21.7118841,18.1999753 23.2000011,16.7118411 23.2000011,14.8999747 C23.2000011,13.0880903 21.7118688,11.5999831 19.9000002,11.5999831 Z M28.1968756,12.7906051 C27.9929149,12.8174982 27.8043215,12.913449 27.662501,13.0624794 L18.0625003,22.6624639 C17.811527,22.8848574 17.7049896,23.228328 17.7860539,23.553712 C17.8671182,23.8790961 18.1223424,24.13244 18.4483176,24.2110967 C18.7742928,24.2897534 19.1169674,24.1806803 19.3375002,23.9280706 L28.9375006,14.3281012 C29.2143805,14.0581193 29.2878586,13.6414507 29.1200292,13.2930462 C28.9521998,12.9446417 28.5805779,12.7423805 28.1968756,12.7906051 L28.1968756,12.7906051 Z M19.9000003,13.3999785 C20.7390771,13.3999785 21.4000003,14.0608858 21.4000003,14.8999785 C21.4000003,15.7390216 20.7390621,16.3999785 19.9000003,16.3999785 C19.0609392,16.3999785 18.4000003,15.7390216 18.4000003,14.8999785 C18.4000003,14.0608858 19.0609242,13.3999785 19.9000003,13.3999785 Z M27.100001,18.7999737 C25.288118,18.7999737 23.800001,20.2880899 23.800001,22.0999653 C23.800001,23.9118407 25.288133,25.3999569 27.100001,25.3999569 C28.9118686,25.3999569 30.4000006,23.9118407 30.4000006,22.0999653 C30.4000006,20.2880899 28.9118839,18.7999737 27.100001,18.7999737 L27.100001,18.7999737 Z M27.100001,20.5999691 C27.939062,20.5999691 28.600001,21.2609274 28.600001,22.0999691 C28.600001,22.9390632 27.9390767,23.5999691 27.100001,23.5999691 C26.260925,23.5999691 25.600001,22.9390632 25.600001,22.0999691 C25.600001,21.2609274 26.26094,20.5999691 27.100001,20.5999691 L27.100001,20.5999691 Z" id="Shape"></path>
                </g>
            </g>
        </g>
    </g>
</svg>