<?xml version="1.0" encoding="UTF-8"?>
<svg width="18px" height="17px" viewBox="0 0 18 17" version="1.1" xmlns="http://www.w3.org/2000/svg" xmlns:xlink="http://www.w3.org/1999/xlink">
    <title>EDA255DA-D24A-4AA8-897C-141F9F88A9DF</title>
    <defs>
        <linearGradient x1="100%" y1="15.7629327%" x2="0%" y2="82.3036844%" id="linearGradient-1">
            <stop stop-color="#42C3AA" offset="0%"></stop>
            <stop stop-color="#1F9071" offset="100%"></stop>
        </linearGradient>
    </defs>
    <g id="Final-Designs" stroke="none" stroke-width="1" fill="none" fill-rule="evenodd">
        <g id="Japan-HomePage---new-changes" transform="translate(-736.000000, -2371.000000)" fill-rule="nonzero">
            <g id="Group-59" transform="translate(0.000000, 931.000000)">
                <g id="Group" transform="translate(728.882254, 1437.000000)">
                    <g id="Group-Copy-3" transform="translate(8.000000, 3.000000)">
                        <path d="M16.6637363,7.9021978 L15.8043956,6.37032967 C15.5989011,5.9967033 15.3186813,5.34285714 15.2065934,4.93186813 L14.7208791,3.25054945 C14.6087912,2.83956044 14.1604396,2.39120879 13.7494505,2.27912088 L12.0681319,1.79340659 C11.6571429,1.68131868 11.0032967,1.4010989 10.6296703,1.1956044 L9.0978022,0.336263736 C8.72417582,0.130769231 8.10769231,0.130769231 7.73406593,0.336263736 L6.2021978,1.1956044 C5.82857143,1.4010989 5.17472527,1.68131868 4.76373626,1.79340659 L3.08241758,2.27912088 C2.67142857,2.39120879 2.22307692,2.83956044 2.11098901,3.25054945 L1.62527473,4.93186813 C1.51318681,5.34285714 1.23296703,5.9967033 1.02747253,6.37032967 L0.168131868,7.9021978 C-0.0373626374,8.27582418 -0.0373626374,8.89230769 0.168131868,9.26593407 L1.02747253,10.7978022 C1.23296703,11.1714286 1.51318681,11.8252747 1.62527473,12.2362637 L2.11098901,13.9175824 C2.22307692,14.3285714 2.67142857,14.7769231 3.08241758,14.889011 L4.76373626,15.3747253 C5.17472527,15.4868132 5.82857143,15.767033 6.2021978,15.9725275 L7.73406593,16.8318681 C8.10769231,17.0373626 8.72417582,17.0373626 9.0978022,16.8318681 L10.6296703,15.9725275 C11.0032967,15.767033 11.6571429,15.4868132 12.0681319,15.3747253 L13.7494505,14.889011 C14.1604396,14.7769231 14.6087912,14.3285714 14.7208791,13.9175824 L15.2065934,12.2362637 C15.3186813,11.8252747 15.5989011,11.1714286 15.8043956,10.7978022 L16.6637363,9.26593407 C16.8692308,8.91098901 16.8692308,8.27582418 16.6637363,7.9021978 Z" id="Path" fill="url(#linearGradient-1)"></path>
                        <path d="M6,4 C7.10588235,4 8,4.89411765 8,6 C8,7.10588235 7.10588235,8 6,8 C4.89411765,8 4,7.10588235 4,6 C4,4.89411765 4.89411765,4 6,4 Z M6,4.94117647 C5.41522791,4.94117647 4.94117647,5.41522791 4.94117647,6 C4.94117647,6.58477209 5.41522791,7.05882353 6,7.05882353 C6.58477209,7.05882353 7.05882353,6.58477209 7.05882353,6 C7.05882353,5.41522791 6.58477209,4.94117647 6,4.94117647 Z" id="Combined-Shape" fill="#FFFFFF"></path>
                        <path d="M5.83892604,12.8104175 C5.7451437,12.9289066 5.60447018,13 5.46379667,13 C5.37001433,13 5.27623199,12.9763022 5.18244964,12.9052087 C4.97143938,12.739324 4.94799379,12.4549502 5.0886673,12.2416699 L11.161074,4.18441246 C11.3251931,3.97113212 11.6065401,3.9474343 11.8175504,4.0896212 C12.0285606,4.25550591 12.0520062,4.5398797 11.9113327,4.75316004 L5.83892604,12.8104175 Z" id="Path" fill="#FFFFFF"></path>
                        <path d="M11,9 C12.1058824,9 13,9.89411765 13,11 C13,12.1058824 12.1058824,13 11,13 C9.89411765,13 9,12.1058824 9,11 C9,9.89411765 9.89411765,9 11,9 Z M11,9.94117647 C10.4152279,9.94117647 9.94117647,10.4152279 9.94117647,11 C9.94117647,11.5847721 10.4152279,12.0588235 11,12.0588235 C11.5847721,12.0588235 12.0588235,11.5847721 12.0588235,11 C12.0588235,10.4152279 11.5847721,9.94117647 11,9.94117647 Z" id="Combined-Shape" fill="#FFFFFF"></path>
                    </g>
                </g>
            </g>
        </g>
    </g>
</svg>