<svg width="60" height="53" viewBox="0 0 60 53" fill="none" xmlns="http://www.w3.org/2000/svg">
<circle opacity="0.991397" cx="26.07" cy="26.07" r="26.07" fill="#D6CFF0"/>
<path fill-rule="evenodd" clip-rule="evenodd" d="M39.3466 29.3033C41.0677 27.3349 42 24.9175 42 22.4656C42 16.1458 35.9402 10.9656 28.4821 11.0002C21.0598 11.0002 15 16.1458 15 22.5001C15 28.8544 21.0239 34 28.4821 34C30.9203 34 33.251 33.4475 35.3307 32.4114C36.4422 32.9294 37.6614 33.2057 38.9881 33.2057C39.4183 33.2057 39.8486 33.1712 40.2789 33.1021C40.8167 33.033 41.2112 32.6877 41.3187 32.1697C41.4263 31.6517 41.2112 31.1682 40.7809 30.8919C40.1713 30.512 39.7052 29.9595 39.3466 29.3033ZM40.2072 22.4656C40.2072 17.0782 34.9721 12.6924 28.5179 12.6924C22.0637 12.6924 16.8287 17.0782 16.8287 22.4656C16.8287 27.8529 22.0637 32.2388 28.5179 32.2388C30.8128 32.2388 33 31.6862 34.9363 30.6502C35.2231 30.512 35.5458 30.512 35.8327 30.6502C36.6574 31.1337 37.6255 31.4099 38.7371 31.4445C38.1992 30.8919 37.8048 30.2358 37.4821 29.4415C37.3745 29.1307 37.4462 28.7853 37.6614 28.5436C39.3108 26.8169 40.2072 24.7103 40.2072 22.4656Z" fill="black"/>
<path d="M19.7882 21.5083H37.5451C37.9807 21.5083 38.3333 21.8294 38.3333 22.225C38.3333 22.6206 37.9802 22.9417 37.5451 22.9417H19.7882C19.3526 22.9417 19 22.6206 19 22.225C19 21.8294 19.3531 21.5083 19.7882 21.5083Z" fill="black"/>
<path d="M19.7882 24H37.5451C37.9807 24 38.3333 24.3211 38.3333 24.7167C38.3333 25.1123 37.9802 25.4333 37.5451 25.4333H19.7882C19.3526 25.4333 19 25.1123 19 24.7167C19 24.3211 19.3531 24 19.7882 24Z" fill="black"/>
<path d="M19.7882 19H32.5451C32.9807 19 33.3333 19.3211 33.3333 19.7167C33.3333 20.1123 32.9801 20.4333 32.5451 20.4333H19.7882C19.3526 20.4333 19 20.1123 19 19.7167C19 19.3211 19.3531 19 19.7882 19Z" fill="black"/>
<mask id="path-6-outside-1_39_1677" maskUnits="userSpaceOnUse" x="38.4917" y="24" width="22" height="25" fill="black">
<rect fill="white" x="38.4917" y="24" width="22" height="25"/>
<path fill-rule="evenodd" clip-rule="evenodd" d="M55.1935 30.7849C55.1935 33.9821 52.6058 36.5698 49.4086 36.5698C46.2115 36.5698 43.6238 33.9821 43.6238 30.7849C43.6238 27.5877 46.2115 25 49.4086 25C52.6058 25 55.1935 27.5877 55.1935 30.7849ZM49.4086 26.6528C51.6864 26.6528 53.5407 28.5071 53.5407 30.7849C53.5407 33.0627 51.6864 34.9169 49.4086 34.9169C47.1308 34.9169 45.2766 33.0627 45.2766 30.7849C45.2766 28.5071 47.1308 26.6528 49.4086 26.6528ZM51.6337 37.8965C52.1828 37.7471 52.7134 37.6028 53.5459 37.6028C55.4208 37.6028 57.2441 38.4395 58.3132 40.0252C58.9537 40.9756 59.3256 42.1171 59.3256 43.3463V45.6603C59.3256 47.029 58.2151 48.1395 56.8463 48.1395H41.9709C40.6022 48.1395 39.4917 47.029 39.4917 45.6603V43.3463C39.4917 42.1171 39.8636 40.9756 40.5041 40.0252C41.5732 38.4395 43.3965 37.6028 45.2714 37.6028C46.1039 37.6028 46.6345 37.7471 47.1836 37.8965C47.7724 38.0566 48.3824 38.2226 49.4086 38.2226C50.4349 38.2226 51.0449 38.0566 51.6337 37.8965ZM57.6728 45.6603C57.6728 46.1148 57.3009 46.4867 56.8463 46.4867H41.9709C41.5164 46.4867 41.1445 46.1148 41.1445 45.6603V43.3463C41.1445 42.4889 41.3976 41.6574 41.8728 40.9497C42.5856 39.8909 43.8562 39.2556 45.2663 39.2556C45.8945 39.2556 46.3436 39.3777 46.8431 39.5136C47.4688 39.6837 48.1736 39.8754 49.4086 39.8754C50.6447 39.8754 51.3496 39.6834 51.9749 39.5132C52.473 39.3775 52.9206 39.2556 53.5459 39.2556C54.9559 39.2556 56.2265 39.8909 56.9393 40.9497C57.4145 41.6574 57.6676 42.4889 57.6676 43.3463V45.6603H57.6728Z"/>
</mask>
<path fill-rule="evenodd" clip-rule="evenodd" d="M55.1935 30.7849C55.1935 33.9821 52.6058 36.5698 49.4086 36.5698C46.2115 36.5698 43.6238 33.9821 43.6238 30.7849C43.6238 27.5877 46.2115 25 49.4086 25C52.6058 25 55.1935 27.5877 55.1935 30.7849ZM49.4086 26.6528C51.6864 26.6528 53.5407 28.5071 53.5407 30.7849C53.5407 33.0627 51.6864 34.9169 49.4086 34.9169C47.1308 34.9169 45.2766 33.0627 45.2766 30.7849C45.2766 28.5071 47.1308 26.6528 49.4086 26.6528ZM51.6337 37.8965C52.1828 37.7471 52.7134 37.6028 53.5459 37.6028C55.4208 37.6028 57.2441 38.4395 58.3132 40.0252C58.9537 40.9756 59.3256 42.1171 59.3256 43.3463V45.6603C59.3256 47.029 58.2151 48.1395 56.8463 48.1395H41.9709C40.6022 48.1395 39.4917 47.029 39.4917 45.6603V43.3463C39.4917 42.1171 39.8636 40.9756 40.5041 40.0252C41.5732 38.4395 43.3965 37.6028 45.2714 37.6028C46.1039 37.6028 46.6345 37.7471 47.1836 37.8965C47.7724 38.0566 48.3824 38.2226 49.4086 38.2226C50.4349 38.2226 51.0449 38.0566 51.6337 37.8965ZM57.6728 45.6603C57.6728 46.1148 57.3009 46.4867 56.8463 46.4867H41.9709C41.5164 46.4867 41.1445 46.1148 41.1445 45.6603V43.3463C41.1445 42.4889 41.3976 41.6574 41.8728 40.9497C42.5856 39.8909 43.8562 39.2556 45.2663 39.2556C45.8945 39.2556 46.3436 39.3777 46.8431 39.5136C47.4688 39.6837 48.1736 39.8754 49.4086 39.8754C50.6447 39.8754 51.3496 39.6834 51.9749 39.5132C52.473 39.3775 52.9206 39.2556 53.5459 39.2556C54.9559 39.2556 56.2265 39.8909 56.9393 40.9497C57.4145 41.6574 57.6676 42.4889 57.6676 43.3463V45.6603H57.6728Z" fill="black"/>
<path d="M51.6337 37.8965L51.7124 38.186L51.6337 37.8965ZM58.3132 40.0252L58.562 39.8575L58.562 39.8575L58.3132 40.0252ZM40.5041 40.0252L40.2553 39.8575L40.2553 39.8575L40.5041 40.0252ZM47.1836 37.8965L47.1048 38.186L47.1836 37.8965ZM57.6728 45.6603H57.9728V45.3603H57.6728V45.6603ZM41.8728 40.9497L41.6239 40.7822L41.6237 40.7825L41.8728 40.9497ZM46.8431 39.5136L46.7643 39.8031H46.7643L46.8431 39.5136ZM51.9749 39.5132L51.896 39.2237H51.896L51.9749 39.5132ZM56.9393 40.9497L57.1884 40.7825L57.1882 40.7822L56.9393 40.9497ZM57.6676 45.6603H57.3676V45.9603H57.6676V45.6603ZM49.4086 36.8698C52.7715 36.8698 55.4935 34.1477 55.4935 30.7849H54.8935C54.8935 33.8164 52.4401 36.2698 49.4086 36.2698V36.8698ZM43.3238 30.7849C43.3238 34.1477 46.0458 36.8698 49.4086 36.8698V36.2698C46.3771 36.2698 43.9238 33.8164 43.9238 30.7849H43.3238ZM49.4086 24.7C46.0458 24.7 43.3238 27.422 43.3238 30.7849H43.9238C43.9238 27.7534 46.3771 25.3 49.4086 25.3V24.7ZM55.4935 30.7849C55.4935 27.422 52.7715 24.7 49.4086 24.7V25.3C52.4401 25.3 54.8935 27.7534 54.8935 30.7849H55.4935ZM53.8407 30.7849C53.8407 28.3414 51.8521 26.3528 49.4086 26.3528V26.9528C51.5208 26.9528 53.2407 28.6728 53.2407 30.7849H53.8407ZM49.4086 35.2169C51.8521 35.2169 53.8407 33.2284 53.8407 30.7849H53.2407C53.2407 32.897 51.5208 34.6169 49.4086 34.6169V35.2169ZM44.9766 30.7849C44.9766 33.2284 46.9652 35.2169 49.4086 35.2169V34.6169C47.2965 34.6169 45.5766 32.897 45.5766 30.7849H44.9766ZM49.4086 26.3528C46.9652 26.3528 44.9766 28.3414 44.9766 30.7849H45.5766C45.5766 28.6728 47.2965 26.9528 49.4086 26.9528V26.3528ZM53.5459 37.3028C52.6718 37.3028 52.1094 37.4562 51.5549 37.607L51.7124 38.186C52.2561 38.0381 52.755 37.9028 53.5459 37.9028V37.3028ZM58.562 39.8575C57.4298 38.1783 55.5068 37.3028 53.5459 37.3028V37.9028C55.3348 37.9028 57.0584 38.7007 58.0645 40.1929L58.562 39.8575ZM59.6256 43.3463C59.6256 42.0555 59.2349 40.856 58.562 39.8575L58.0644 40.1929C58.6725 41.0952 59.0256 42.1786 59.0256 43.3463H59.6256ZM59.6256 45.6603V43.3463H59.0256V45.6603H59.6256ZM56.8463 48.4395C58.3808 48.4395 59.6256 47.1947 59.6256 45.6603H59.0256C59.0256 46.8634 58.0494 47.8395 56.8463 47.8395V48.4395ZM41.9709 48.4395H56.8463V47.8395H41.9709V48.4395ZM39.1917 45.6603C39.1917 47.1947 40.4365 48.4395 41.9709 48.4395V47.8395C40.7679 47.8395 39.7917 46.8634 39.7917 45.6603H39.1917ZM39.1917 43.3463V45.6603H39.7917V43.3463H39.1917ZM40.2553 39.8575C39.5824 40.856 39.1917 42.0555 39.1917 43.3463H39.7917C39.7917 42.1786 40.1447 41.0952 40.7528 40.1929L40.2553 39.8575ZM45.2714 37.3028C43.3105 37.3028 41.3875 38.1783 40.2553 39.8575L40.7528 40.1929C41.7589 38.7007 43.4825 37.9028 45.2714 37.9028V37.3028ZM47.2623 37.607C46.7079 37.4562 46.1455 37.3028 45.2714 37.3028V37.9028C46.0623 37.9028 46.5611 38.0381 47.1048 38.186L47.2623 37.607ZM49.4086 37.9226C48.4224 37.9226 47.8429 37.7649 47.2623 37.607L47.1048 38.186C47.7018 38.3484 48.3423 38.5226 49.4086 38.5226V37.9226ZM51.5549 37.607C50.9744 37.7649 50.3949 37.9226 49.4086 37.9226V38.5226C50.475 38.5226 51.1154 38.3484 51.7124 38.186L51.5549 37.607ZM56.8463 46.7867C57.4666 46.7867 57.9728 46.2805 57.9728 45.6603H57.3728C57.3728 45.9491 57.1352 46.1867 56.8463 46.1867V46.7867ZM41.9709 46.7867H56.8463V46.1867H41.9709V46.7867ZM40.8445 45.6603C40.8445 46.2805 41.3507 46.7867 41.9709 46.7867V46.1867C41.6821 46.1867 41.4445 45.9491 41.4445 45.6603H40.8445ZM40.8445 43.3463V45.6603H41.4445V43.3463H40.8445ZM41.6237 40.7825C41.1152 41.5398 40.8445 42.4296 40.8445 43.3463H41.4445C41.4445 42.5483 41.68 41.775 42.1219 41.117L41.6237 40.7825ZM45.2663 38.9556C43.7684 38.9556 42.3989 39.631 41.6239 40.7822L42.1217 41.1173C42.7723 40.1508 43.944 39.5556 45.2663 39.5556V38.9556ZM46.9218 39.2241C46.4212 39.088 45.9381 38.9556 45.2663 38.9556V39.5556C45.8508 39.5556 46.2659 39.6675 46.7643 39.8031L46.9218 39.2241ZM49.4086 39.5754C48.2124 39.5754 47.5372 39.3915 46.9218 39.2241L46.7643 39.8031C47.4003 39.976 48.1347 40.1754 49.4086 40.1754V39.5754ZM51.896 39.2237C51.2812 39.3912 50.6058 39.5754 49.4086 39.5754V40.1754C50.6836 40.1754 51.4181 39.9757 52.0537 39.8026L51.896 39.2237ZM53.5459 38.9556C52.8768 38.9556 52.3952 39.0877 51.896 39.2237L52.0537 39.8026C52.5508 39.6672 52.9643 39.5556 53.5459 39.5556V38.9556ZM57.1882 40.7822C56.4132 39.631 55.0437 38.9556 53.5459 38.9556V39.5556C54.8681 39.5556 56.0398 40.1508 56.6905 41.1173L57.1882 40.7822ZM57.9676 43.3463C57.9676 42.4296 57.6969 41.5398 57.1884 40.7825L56.6903 41.117C57.1321 41.775 57.3676 42.5483 57.3676 43.3463H57.9676ZM57.9676 45.6603V43.3463H57.3676V45.6603H57.9676ZM57.6728 45.3603H57.6676V45.9603H57.6728V45.3603Z" fill="black" mask="url(#path-6-outside-1_39_1677)"/>
</svg>
