<svg width="61" height="53" viewBox="0 0 61 53" fill="none" xmlns="http://www.w3.org/2000/svg">
<path d="M25.7778 53C39.8713 53 51.2963 41.1355 51.2963 26.5C51.2963 11.8645 39.8713 0 25.7778 0C11.6843 0 0.259277 11.8645 0.259277 26.5C0.259277 41.1355 11.6843 53 25.7778 53Z" fill="#F5CFCD"/>
<path d="M57.3155 46C59.3084 46 60.9259 44.3203 60.9259 42.2507V16.3102C60.9259 15.3188 60.5422 14.3579 59.8651 13.6548L53.5547 7.10159C52.8776 6.39847 51.9606 6.00006 51.0051 6.00006H35.6482C33.6545 6.00784 32.0378 7.68753 32.0378 9.75707V18.9454C31.5887 18.9454 31.1396 18.8141 30.2225 18.5524C30.0946 18.5164 29.9697 18.5008 29.8493 18.5008C29.4311 18.5008 29.0647 18.6961 28.8217 18.9531C27.4712 20.3797 27.5375 20.3415 25.6845 20.8672C25.1805 21.0086 24.784 21.4305 24.6479 21.9664C24.1611 23.8938 24.1897 23.8539 22.8408 25.2727C22.4684 25.6665 22.3217 26.2477 22.4586 26.7906C22.9521 28.6953 22.9491 28.6961 22.4586 30.6C22.3217 31.143 22.4676 31.725 22.8408 32.1195C24.1949 33.5375 24.1633 33.5094 24.6479 35.4234C24.7833 35.9609 25.1805 36.382 25.6845 36.525C25.82 36.5625 25.9042 36.5875 26.02 36.6195V44.75C26.02 45.1835 26.2359 45.5852 26.5911 45.8133C26.9416 46.0406 27.3878 46.0601 27.7617 45.8679L32.0378 43.6476L36.3139 45.8679C36.4832 45.9554 36.6691 46 36.8526 46H57.3155ZM55.3896 24.5001C55.7868 24.5001 56.1118 24.0781 56.1118 23.5626V22.9376C56.1118 22.422 55.7868 22.0001 55.3896 22.0001H45.2785C44.8813 22.0001 44.5562 22.422 44.5562 22.9376V23.5626C44.5562 24.0781 44.8813 24.5001 45.2785 24.5001H55.3896ZM55.3896 29.5001C55.7868 29.5001 56.1118 29.0781 56.1118 28.5626V27.9376C56.1118 27.422 55.7868 27.0001 55.3896 27.0001H45.2785C44.8813 27.0001 44.5562 27.422 44.5562 27.9376V28.5626C44.5562 29.0781 44.8813 29.5001 45.2785 29.5001H55.3896ZM55.3895 34.5001C55.7867 34.5001 56.1117 34.0781 56.1117 33.5626V32.9376C56.1117 32.422 55.7867 32.0001 55.3895 32.0001H45.2785C44.8813 32.0001 44.5562 32.422 44.5562 32.9376V33.5626C44.5562 34.0781 44.8813 34.5001 45.2785 34.5001H55.3895ZM57.3155 43.5007H38.0563V36.6172C38.1722 36.5859 38.2557 36.5617 38.3904 36.5242C38.8944 36.382 39.2909 35.9602 39.4263 35.4242C39.9131 33.4961 39.8844 33.5367 41.2341 32.1179C41.6065 31.7242 41.7532 31.1422 41.6155 30.5992C41.1243 28.6984 41.1227 28.6977 41.6155 26.7899C41.7532 26.2469 41.6065 25.6649 41.2341 25.2703C39.8799 23.8523 39.9115 23.8805 39.4263 21.9664C39.2909 21.4297 38.8944 21.0078 38.3918 20.8657C36.569 20.3524 36.5946 20.3789 35.2532 18.95C35.032 18.718 34.7431 18.5969 34.4452 18.5469V9.75707C34.4452 9.06959 34.9869 8.50005 35.6489 8.50005H48.8919V16.6305C48.8919 17.6696 49.6969 18.5 50.6974 18.5H58.5199V42.2507H58.5192C58.5192 42.9382 57.9775 43.5007 57.3155 43.5007ZM58.4816 16.0055H51.2985V8.54614C51.5092 8.60084 51.6973 8.71024 51.8552 8.87428L58.1656 15.4274C58.3236 15.5914 58.4289 15.7867 58.4816 16.0055ZM29.641 35.7664C28.6494 34.8383 27.9437 34.568 26.8401 34.2562C26.391 32.5461 26.1088 32.0242 24.9112 30.7406C25.34 28.9984 25.34 28.3789 24.9119 26.6477C26.0893 25.382 26.3834 24.8523 26.8401 23.1274C28.4628 22.6484 28.9511 22.3523 30.1412 21.1203C30.8785 21.325 31.4066 21.4446 32.0378 21.4446C32.6607 21.4446 33.1851 21.3282 33.9329 21.1196C35.1035 22.3313 35.6249 22.6493 37.2325 23.1258C37.6824 24.8407 37.963 25.3625 39.1622 26.6469C38.7282 28.4008 38.7289 28.9907 39.1622 30.7406C37.9871 32.0039 37.6915 32.5343 37.2355 34.2531C36.1349 34.5593 35.43 34.8281 34.4331 35.7656C33.6854 35.4117 32.8699 35.2274 32.0371 35.2274C31.2042 35.2274 30.3895 35.4117 29.641 35.7664ZM35.6489 42.7273L32.5765 41.132C32.2379 40.9563 31.8385 40.9563 31.4999 41.132L28.4274 42.7273V38.0235C28.4365 38.0328 28.4418 38.0367 28.4508 38.0461C28.7329 38.3445 29.1038 38.4985 29.4769 38.4985C29.7402 38.4985 30.0051 38.4219 30.2413 38.2664C30.7867 37.9078 31.4119 37.7289 32.0371 37.7289C32.6622 37.7289 33.2874 37.9078 33.8328 38.2648C34.0706 38.4226 34.3354 38.5 34.5979 38.5C34.9711 38.5 35.3405 38.3445 35.6233 38.0476C35.6331 38.0375 35.6391 38.0336 35.6489 38.0226V42.7273Z" fill="black"/>
<path d="M32.037 33C34.1644 33 35.8889 31.2091 35.8889 29C35.8889 26.7909 34.1644 25 32.037 25C29.9097 25 28.1852 26.7909 28.1852 29C28.1852 31.2091 29.9097 33 32.037 33Z" fill="black" fill-opacity="0.8"/>
</svg>
