<svg width="51" height="53" viewBox="0 0 51 53" fill="none" xmlns="http://www.w3.org/2000/svg">
<ellipse opacity="0.991397" cx="25.3637" cy="26.07" rx="25.1044" ry="26.07" fill="#DBE3FF"/>
<path d="M24.8678 32.2917H29.4485C29.868 32.2917 30.2075 32.6128 30.2075 33.0084C30.2075 33.4045 29.8674 33.725 29.4485 33.725H24.8678C24.4483 33.725 24.1088 33.4039 24.1088 33.0084C24.1088 32.6128 24.4488 32.2917 24.8678 32.2917Z" fill="black"/>
<path d="M24.8678 29.4251H29.4485C29.868 29.4251 30.2075 29.7462 30.2075 30.1417C30.2075 30.5378 29.8674 30.8584 29.4485 30.8584H24.8678C24.4483 30.8584 24.1088 30.5373 24.1088 30.1417C24.1088 29.7456 24.4488 29.4251 24.8678 29.4251Z" fill="black"/>
<path d="M24.8679 25.125H37.1522C37.5717 25.125 37.9113 25.4461 37.9113 25.8417C37.9113 26.2373 37.5712 26.5583 37.1522 26.5583H24.8679C24.4483 26.5583 24.1088 26.2373 24.1088 25.8417C24.1088 25.4461 24.4489 25.125 24.8679 25.125Z" fill="black"/>
<path d="M24.8679 22.6167H37.1522C37.5717 22.6167 37.9113 22.9378 37.9113 23.3334C37.9113 23.729 37.5712 24.05 37.1522 24.05H24.8679C24.4483 24.05 24.1088 23.729 24.1088 23.3334C24.1088 22.9378 24.4489 22.6167 24.8679 22.6167Z" fill="black"/>
<path d="M24.8679 19.75H37.1522C37.5717 19.75 37.9113 20.0711 37.9113 20.4667C37.9113 20.8623 37.5712 21.1833 37.1522 21.1833H24.8679C24.4483 21.1833 24.1088 20.8623 24.1088 20.4667C24.1088 20.0711 24.4489 19.75 24.8679 19.75Z" fill="black"/>
<path d="M17.1013 48.4167H18.6491H35.2961C36.7404 48.4167 37.9113 47.1781 37.9113 45.6504V44.5306H35.9437V44.7417C35.9437 45.6218 35.269 46.3354 34.437 46.3354H19.6323H17.9549C17.1349 46.3354 16.4656 45.6418 16.4488 44.7744L16.4147 43.0081V21.9916C16.4147 21.1116 17.0893 20.398 17.9213 20.398H18.6106V18.3167H17.0622C15.618 18.3167 14.4471 19.5552 14.4471 21.0829V44.0487V45.6091C14.4471 47.1598 15.6353 48.4167 17.1013 48.4167Z" fill="black"/>
<path fill-rule="evenodd" clip-rule="evenodd" d="M41.4646 23.3333H43.4321V15.3495C43.4321 13.8218 42.2612 12.5833 40.817 12.5833H22.5831C21.1388 12.5833 19.9679 13.8218 19.9679 15.3495V38.3153V39.8757C19.9679 41.4264 21.1562 42.6833 22.6221 42.6833H24.17H36.5308V40.6026H25.1533H23.4758C22.6558 40.6026 21.9866 39.909 21.9698 39.0416L21.9356 37.2753V16.2588C21.9356 15.3788 22.6103 14.6652 23.4422 14.6652H39.958C40.7899 14.6652 41.4646 15.3788 41.4646 16.2588V23.3333Z" fill="black"/>
<path fill-rule="evenodd" clip-rule="evenodd" d="M31.0741 33.4267C31.0741 29.8858 33.8519 27 37.2604 27C40.6688 27 43.4467 29.8858 43.4467 33.4267C43.4467 34.9385 42.939 36.3367 42.0934 37.436L42.7951 38.165L43.2677 37.6815C43.377 37.566 43.521 37.4925 43.6758 37.4732C43.8851 37.4489 44.0936 37.5257 44.2414 37.6815L49.2034 42.8362C49.3328 42.9702 49.4055 43.1522 49.4055 43.3421C49.4055 43.5319 49.3328 43.7139 49.2034 43.8479L47.2916 45.8265C47.1626 45.9609 46.9874 46.0365 46.8047 46.0365C46.622 46.0365 46.4468 45.9609 46.3179 45.8265L42.9097 42.2858L42.8996 42.279L42.8882 42.2709C42.8205 42.2203 42.7623 42.1573 42.7163 42.085L42.702 42.0627L41.3559 40.6717C41.2265 40.5377 41.1538 40.3557 41.1538 40.1659C41.1538 39.9761 41.2265 39.7941 41.3559 39.6601L41.8285 39.1766L41.1197 38.4402C40.0599 39.3236 38.7202 39.8535 37.2604 39.8535C33.8519 39.8535 31.0741 36.9676 31.0741 33.4267ZM42.0718 33.4267C42.0718 30.6576 39.9257 28.4282 37.2603 28.4282C34.5948 28.4282 32.4487 30.6576 32.4487 33.4267C32.4487 36.1958 34.5948 38.4253 37.2603 38.4253C39.9257 38.4253 42.0718 36.1958 42.0718 33.4267ZM43.7545 39.1915L44.2342 39.6898L43.2963 40.6643L42.8165 40.1659L43.7545 39.1915ZM47.7425 43.342L45.2007 40.7014L44.2627 41.6758L46.8046 44.3165L47.7425 43.342Z" fill="black"/>
</svg>
