<svg width="58" height="53" viewBox="0 0 58 53" fill="none" xmlns="http://www.w3.org/2000/svg">
<ellipse opacity="0.991397" cx="25.3635" cy="26.07" rx="25.1044" ry="26.07" fill="#FFEDAC"/>
<path fill-rule="evenodd" clip-rule="evenodd" d="M40.4694 31.0781C42.4951 28.5962 43.5924 25.5481 43.5924 22.4566C43.5924 14.4882 36.4603 7.95667 27.6824 8.00022C18.9466 8.00022 11.8146 14.4882 11.8146 22.5001C11.8146 30.5121 18.9044 37 27.6824 37C30.5521 37 33.2952 36.3033 35.7429 34.997C37.0511 35.6502 38.486 35.9985 40.0474 35.9985C40.5538 35.9985 41.0603 35.955 41.5667 35.8679C42.1997 35.7808 42.6639 35.3454 42.7905 34.6922C42.9171 34.0391 42.6639 33.4295 42.1575 33.0811C41.4401 32.6021 40.8915 31.9054 40.4694 31.0781ZM41.4823 22.4566C41.4823 15.6638 35.3208 10.1338 27.7246 10.1338C20.1283 10.1338 13.9669 15.6638 13.9669 22.4566C13.9669 29.2493 20.1283 34.7793 27.7246 34.7793C30.4255 34.7793 32.9998 34.0826 35.2786 32.7763C35.6163 32.6021 35.9961 32.6021 36.3337 32.7763C37.3043 33.3859 38.4438 33.7343 39.752 33.7778C39.119 33.0811 38.6548 32.2538 38.275 31.2523C38.1484 30.8604 38.2328 30.425 38.486 30.1202C40.4272 27.943 41.4823 25.2869 41.4823 22.4566Z" fill="black"/>
<path d="M26.702 14.72L21.4442 29H23.8516L25.1035 25.42H30.862L32.1138 29H34.5213L29.2635 14.72H26.702ZM25.7775 23.5L27.9538 17.24H28.0309L30.1879 23.5H25.7775Z" fill="black"/>
<mask id="path-4-outside-1_39_1565" maskUnits="userSpaceOnUse" x="40.6664" y="28.093" width="18" height="21" fill="black">
<rect fill="white" x="40.6664" y="28.093" width="18" height="21"/>
<path fill-rule="evenodd" clip-rule="evenodd" d="M54.1122 33.8546C54.1122 36.4863 52.0611 38.6163 49.5269 38.6163C46.9927 38.6163 44.9416 36.4863 44.9416 33.8546C44.9416 31.223 46.9927 29.093 49.5269 29.093C52.0611 29.093 54.1122 31.223 54.1122 33.8546ZM49.5269 30.4535C51.3324 30.4535 52.8021 31.9798 52.8021 33.8546C52.8021 35.7295 51.3324 37.2558 49.5269 37.2558C47.7215 37.2558 46.2517 35.7295 46.2517 33.8546C46.2517 31.9798 47.7215 30.4535 49.5269 30.4535ZM51.2905 39.7083C51.7258 39.5854 52.1463 39.4666 52.8062 39.4666C54.2923 39.4666 55.7375 40.1553 56.5849 41.4605C57.0926 42.2428 57.3874 43.1823 57.3874 44.1942V46.0988C57.3874 47.2255 56.5072 48.1395 55.4223 48.1395H43.6316C42.5467 48.1395 41.6664 47.2255 41.6664 46.0988V44.1942C41.6664 43.1823 41.9612 42.2428 42.4689 41.4605C43.3163 40.1553 44.7615 39.4666 46.2476 39.4666C46.9075 39.4666 47.328 39.5854 47.7633 39.7083C48.2299 39.8401 48.7135 39.9767 49.5269 39.9767C50.3404 39.9767 50.8239 39.8401 51.2905 39.7083ZM56.0773 46.0988C56.0773 46.473 55.7825 46.7791 55.4223 46.7791H43.6316C43.2713 46.7791 42.9765 46.473 42.9765 46.0988V44.1942C42.9765 43.4884 43.1771 42.804 43.5538 42.2215C44.1187 41.35 45.1259 40.827 46.2435 40.827C46.7415 40.827 47.0974 40.9276 47.4933 41.0394C47.9893 41.1794 48.5479 41.3372 49.5269 41.3372C50.5067 41.3372 51.0654 41.1792 51.561 41.039C51.9558 40.9274 52.3106 40.827 52.8062 40.827C53.9239 40.827 54.931 41.35 55.4959 42.2215C55.8726 42.804 56.0732 43.4884 56.0732 44.1942V46.0988H56.0773Z"/>
</mask>
<path fill-rule="evenodd" clip-rule="evenodd" d="M54.1122 33.8546C54.1122 36.4863 52.0611 38.6163 49.5269 38.6163C46.9927 38.6163 44.9416 36.4863 44.9416 33.8546C44.9416 31.223 46.9927 29.093 49.5269 29.093C52.0611 29.093 54.1122 31.223 54.1122 33.8546ZM49.5269 30.4535C51.3324 30.4535 52.8021 31.9798 52.8021 33.8546C52.8021 35.7295 51.3324 37.2558 49.5269 37.2558C47.7215 37.2558 46.2517 35.7295 46.2517 33.8546C46.2517 31.9798 47.7215 30.4535 49.5269 30.4535ZM51.2905 39.7083C51.7258 39.5854 52.1463 39.4666 52.8062 39.4666C54.2923 39.4666 55.7375 40.1553 56.5849 41.4605C57.0926 42.2428 57.3874 43.1823 57.3874 44.1942V46.0988C57.3874 47.2255 56.5072 48.1395 55.4223 48.1395H43.6316C42.5467 48.1395 41.6664 47.2255 41.6664 46.0988V44.1942C41.6664 43.1823 41.9612 42.2428 42.4689 41.4605C43.3163 40.1553 44.7615 39.4666 46.2476 39.4666C46.9075 39.4666 47.328 39.5854 47.7633 39.7083C48.2299 39.8401 48.7135 39.9767 49.5269 39.9767C50.3404 39.9767 50.8239 39.8401 51.2905 39.7083ZM56.0773 46.0988C56.0773 46.473 55.7825 46.7791 55.4223 46.7791H43.6316C43.2713 46.7791 42.9765 46.473 42.9765 46.0988V44.1942C42.9765 43.4884 43.1771 42.804 43.5538 42.2215C44.1187 41.35 45.1259 40.827 46.2435 40.827C46.7415 40.827 47.0974 40.9276 47.4933 41.0394C47.9893 41.1794 48.5479 41.3372 49.5269 41.3372C50.5067 41.3372 51.0654 41.1792 51.561 41.039C51.9558 40.9274 52.3106 40.827 52.8062 40.827C53.9239 40.827 54.931 41.35 55.4959 42.2215C55.8726 42.804 56.0732 43.4884 56.0732 44.1942V46.0988H56.0773Z" fill="black"/>
<path d="M51.2905 39.7083L51.3721 39.997L51.2905 39.7083ZM56.5849 41.4605L56.8366 41.2972L56.8366 41.2971L56.5849 41.4605ZM42.4689 41.4605L42.2173 41.2971L42.2172 41.2972L42.4689 41.4605ZM47.7633 39.7083L47.6817 39.997L47.7633 39.7083ZM56.0773 46.0988H56.3773V45.7988H56.0773V46.0988ZM43.5538 42.2215L43.302 42.0583L43.3019 42.0586L43.5538 42.2215ZM47.4933 41.0394L47.4118 41.3281L47.4118 41.3281L47.4933 41.0394ZM51.561 41.039L51.4793 40.7503H51.4793L51.561 41.039ZM55.4959 42.2215L55.7479 42.0586L55.7477 42.0583L55.4959 42.2215ZM56.0732 46.0988H55.7732V46.3988H56.0732V46.0988ZM49.5269 38.9163C52.2373 38.9163 54.4122 36.6412 54.4122 33.8546H53.8122C53.8122 36.3314 51.8848 38.3163 49.5269 38.3163V38.9163ZM44.6416 33.8546C44.6416 36.6412 46.8165 38.9163 49.5269 38.9163V38.3163C47.169 38.3163 45.2416 36.3314 45.2416 33.8546H44.6416ZM49.5269 28.793C46.8165 28.793 44.6416 31.0681 44.6416 33.8546H45.2416C45.2416 31.3779 47.169 29.393 49.5269 29.393V28.793ZM54.4122 33.8546C54.4122 31.0681 52.2373 28.793 49.5269 28.793V29.393C51.8848 29.393 53.8122 31.3779 53.8122 33.8546H54.4122ZM53.1021 33.8546C53.1021 31.8248 51.5086 30.1535 49.5269 30.1535V30.7535C51.1561 30.7535 52.5021 32.1347 52.5021 33.8546H53.1021ZM49.5269 37.5558C51.5086 37.5558 53.1021 35.8844 53.1021 33.8546H52.5021C52.5021 35.5746 51.1561 36.9558 49.5269 36.9558V37.5558ZM45.9517 33.8546C45.9517 35.8844 47.5452 37.5558 49.5269 37.5558V36.9558C47.8977 36.9558 46.5517 35.5746 46.5517 33.8546H45.9517ZM49.5269 30.1535C47.5452 30.1535 45.9517 31.8248 45.9517 33.8546H46.5517C46.5517 32.1347 47.8977 30.7535 49.5269 30.7535V30.1535ZM52.8062 39.1666C52.1032 39.1666 51.6497 39.2951 51.209 39.4196L51.3721 39.997C51.8019 39.8756 52.1895 39.7666 52.8062 39.7666V39.1666ZM56.8366 41.2971C55.9282 39.8981 54.3832 39.1666 52.8062 39.1666V39.7666C54.2014 39.7666 55.5468 40.4125 56.3333 41.6239L56.8366 41.2971ZM57.6874 44.1942C57.6874 43.1234 57.3753 42.1272 56.8366 41.2972L56.3333 41.6238C56.81 42.3583 57.0874 43.2413 57.0874 44.1942H57.6874ZM57.6874 46.0988V44.1942H57.0874V46.0988H57.6874ZM55.4223 48.4395C56.6834 48.4395 57.6874 47.3804 57.6874 46.0988H57.0874C57.0874 47.0706 56.3309 47.8395 55.4223 47.8395V48.4395ZM43.6316 48.4395H55.4223V47.8395H43.6316V48.4395ZM41.3664 46.0988C41.3664 47.3804 42.3704 48.4395 43.6316 48.4395V47.8395C42.7229 47.8395 41.9664 47.0706 41.9664 46.0988H41.3664ZM41.3664 44.1942V46.0988H41.9664V44.1942H41.3664ZM42.2172 41.2972C41.6786 42.1272 41.3664 43.1234 41.3664 44.1942H41.9664C41.9664 43.2413 42.2439 42.3583 42.7205 41.6238L42.2172 41.2972ZM46.2476 39.1666C44.6706 39.1666 43.1256 39.8981 42.2173 41.2971L42.7205 41.6239C43.507 40.4125 44.8524 39.7666 46.2476 39.7666V39.1666ZM47.8448 39.4196C47.4041 39.2951 46.9507 39.1666 46.2476 39.1666V39.7666C46.8643 39.7666 47.252 39.8756 47.6817 39.997L47.8448 39.4196ZM49.5269 39.6767C48.755 39.6767 48.3031 39.5491 47.8448 39.4196L47.6817 39.997C48.1568 40.1312 48.6719 40.2767 49.5269 40.2767V39.6767ZM51.209 39.4196C50.7507 39.5491 50.2988 39.6767 49.5269 39.6767V40.2767C50.3819 40.2767 50.897 40.1312 51.3721 39.997L51.209 39.4196ZM55.4223 47.0791C55.9588 47.0791 56.3773 46.6279 56.3773 46.0988H55.7773C55.7773 46.318 55.6063 46.4791 55.4223 46.4791V47.0791ZM43.6316 47.0791H55.4223V46.4791H43.6316V47.0791ZM42.6765 46.0988C42.6765 46.6279 43.095 47.0791 43.6316 47.0791V46.4791C43.4475 46.4791 43.2765 46.318 43.2765 46.0988H42.6765ZM42.6765 44.1942V46.0988H43.2765V44.1942H42.6765ZM43.3019 42.0586C42.8933 42.6904 42.6765 43.4316 42.6765 44.1942H43.2765C43.2765 43.5453 43.4609 42.9175 43.8057 42.3844L43.3019 42.0586ZM46.2435 40.527C45.0332 40.527 43.927 41.0942 43.302 42.0583L43.8055 42.3847C44.3105 41.6057 45.2186 41.127 46.2435 41.127V40.527ZM47.5749 40.7507C47.178 40.6386 46.7868 40.527 46.2435 40.527V41.127C46.6962 41.127 47.0169 41.2166 47.4118 41.3281L47.5749 40.7507ZM49.5269 41.0372C48.5883 41.0372 48.0603 40.8877 47.5749 40.7507L47.4118 41.3281C47.9183 41.4711 48.5076 41.6372 49.5269 41.6372V41.0372ZM51.4793 40.7503C50.9944 40.8875 50.4663 41.0372 49.5269 41.0372V41.6372C50.547 41.6372 51.1365 41.4709 51.6426 41.3277L51.4793 40.7503ZM52.8062 40.527C52.2652 40.527 51.8752 40.6384 51.4793 40.7503L51.6426 41.3277C52.0365 41.2163 52.356 41.127 52.8062 41.127V40.527ZM55.7477 42.0583C55.1227 41.0942 54.0166 40.527 52.8062 40.527V41.127C53.8312 41.127 54.7393 41.6057 55.2442 42.3847L55.7477 42.0583ZM56.3732 44.1942C56.3732 43.4316 56.1564 42.6904 55.7479 42.0586L55.244 42.3844C55.5888 42.9175 55.7732 43.5453 55.7732 44.1942H56.3732ZM56.3732 46.0988V44.1942H55.7732V46.0988H56.3732ZM56.0773 45.7988H56.0732V46.3988H56.0773V45.7988Z" fill="black" mask="url(#path-4-outside-1_39_1565)"/>
</svg>
