<svg width="26" height="24" viewBox="0 0 26 24" fill="none" xmlns="http://www.w3.org/2000/svg">
<circle opacity="0.991397" cx="12" cy="12" r="12" fill="#AAE5D7"/>
<path fill-rule="evenodd" clip-rule="evenodd" d="M25.8932 6.09549C25.962 6.1643 26 6.25658 26 6.35241C26 6.44824 25.962 6.54052 25.8932 6.60755L25.3143 7.18823L25.488 7.36194C25.6997 7.57369 25.6997 7.91737 25.488 8.12913L23.3245 10.2929V17.0577H25.2654C25.5659 17.0577 25.8082 17.3002 25.8082 17.6005C25.8082 17.9008 25.5657 18.1433 25.2654 18.1433H23.3243V20.0847C23.3243 20.385 23.0818 20.6275 22.7815 20.6275C22.483 20.6275 22.2388 20.385 22.2388 20.0847V18.1433H15.4747L14.4852 19.133C14.4416 19.1781 14.3912 19.2124 14.3368 19.2396L10.7784 20.9475C10.7023 20.9819 10.6228 21 10.5432 21C10.402 21 10.2628 20.9458 10.1597 20.8409C9.99687 20.678 9.95349 20.4302 10.053 20.2221L11.7464 16.6941C11.7736 16.629 11.8152 16.5675 11.8676 16.5151L11.9039 16.4808L12.8553 15.5272V8.75871H10.9142C10.6138 8.75871 10.3714 8.51619 10.3714 8.21589C10.3714 7.9156 10.6139 7.67308 10.9142 7.67308H12.8552V5.73172C12.8552 5.43142 13.0977 5.18891 13.3979 5.18891C13.6984 5.18891 13.9407 5.43142 13.9407 5.73172V7.67308H20.7086L22.8704 5.51108C22.9716 5.40795 23.1092 5.35195 23.2539 5.35195C23.3968 5.35195 23.536 5.40795 23.6373 5.51108L23.811 5.68478L24.3917 5.10588C24.5328 4.96471 24.7607 4.96471 24.9036 5.10588L25.8932 6.09549ZM19.623 8.75871H13.9407V14.4416L19.623 8.75871ZM11.701 19.2994L12.4916 17.6512L13.351 18.5087L11.701 19.2994ZM22.239 11.3785L16.5602 17.0577V17.0579H22.239V11.3785ZM22.3981 9.68506L14.9049 17.1808C14.8989 17.1868 14.8928 17.1924 14.8868 17.1981L14.8868 17.1981L14.8867 17.1981C14.8801 17.2042 14.8735 17.2104 14.8669 17.2171L13.975 18.1108L12.8914 17.0272L21.3163 8.59961L23.2539 6.66181L24.3376 7.74548L22.3981 9.68506ZM24.3771 6.14244L24.8548 6.62195L25.126 6.35241L24.6466 5.8729L24.3771 6.14244Z" fill="black"/>
</svg>
