<svg width="61" height="53" viewBox="0 0 61 53" fill="none" xmlns="http://www.w3.org/2000/svg">
<g clip-path="url(#clip0_39_1627)">
<path opacity="0.991397" d="M25.7778 53C39.8713 53 51.2963 41.1355 51.2963 26.5C51.2963 11.8645 39.8713 0 25.7778 0C11.6843 0 0.259277 11.8645 0.259277 26.5C0.259277 41.1355 11.6843 53 25.7778 53Z" fill="#A8E5D7"/>
<path d="M57.3148 46.0077C59.3084 46.0077 60.9259 44.328 60.9259 42.2577V16.3125C60.9259 15.3203 60.5422 14.3594 59.8651 13.6562L53.5532 7.10153C52.8761 6.39841 51.9583 6 51.0028 6H35.6482C33.6545 6.00778 32.037 7.68747 32.037 9.75777V42.2577C32.037 44.328 33.6545 46.0077 35.6482 46.0077H57.3148ZM57.3148 43.5077H35.6482C34.9861 43.5077 34.4444 42.9452 34.4444 42.2577V9.75777C34.4444 9.07029 34.9861 8.50778 35.6482 8.50778H48.8889V16.6328C48.8889 17.6718 49.6938 18.5078 50.6944 18.5078H58.5185V42.2577C58.5185 42.9452 57.9768 43.5077 57.3148 43.5077ZM58.4809 16.0078H51.2963V8.54684C51.5069 8.60154 51.695 8.71087 51.853 8.87498L58.1649 15.4296C58.3229 15.5937 58.4282 15.789 58.4809 16.0078ZM52.8009 26.0077C53.2974 26.0077 53.7037 25.5858 53.7037 25.0702V24.4452C53.7037 23.9296 53.2974 23.5077 52.8009 23.5077H40.162C39.6655 23.5077 39.2593 23.9296 39.2593 24.4452V25.0702C39.2593 25.5858 39.6655 26.0077 40.162 26.0077H52.8009ZM52.8009 31.0077C53.2974 31.0077 53.7037 30.5858 53.7037 30.0702V29.4452C53.7037 28.9296 53.2974 28.5077 52.8009 28.5077H40.162C39.6655 28.5077 39.2593 28.9296 39.2593 29.4452V30.0702C39.2593 30.5858 39.6655 31.0077 40.162 31.0077H52.8009ZM52.8009 36.0077C53.2974 36.0077 53.7037 35.5858 53.7037 35.0702V34.4452C53.7037 33.9296 53.2974 33.5077 52.8009 33.5077H40.162C39.6655 33.5077 39.2593 33.9296 39.2593 34.4452V35.0702C39.2593 35.5858 39.6655 36.0077 40.162 36.0077H52.8009Z" fill="black"/>
</g>
<defs>
<clipPath id="clip0_39_1627">
<rect width="60.6667" height="53" fill="white" transform="translate(0.259277)"/>
</clipPath>
</defs>
</svg>
