<svg width="64" height="52" viewBox="0 0 64 52" fill="none" xmlns="http://www.w3.org/2000/svg">
<g clip-path="url(#clip0_60_306)">
<path opacity="0.991397" d="M25.8375 51.675C40.1072 51.675 51.675 40.1072 51.675 25.8375C51.675 11.5678 40.1072 0 25.8375 0C11.5678 0 0 11.5678 0 25.8375C0 40.1072 11.5678 51.675 25.8375 51.675Z" fill="#FFEDAB"/>
<path d="M62.0547 39.9749C62.6944 39.9749 63.2125 39.4477 63.2125 38.7968V37.6187C63.2125 36.9678 62.6944 36.4406 62.0547 36.4406H29.6359V12.8781C29.6359 12.2272 29.1178 11.7 28.4781 11.7H27.3203C26.6806 11.7 26.1625 12.2272 26.1625 12.8781V37.6187C26.1625 38.9198 27.1995 39.9749 28.4781 39.9749H62.0547ZM47.8223 29.86L55.7982 21.7435L57.9322 23.9157C59.0263 25.0289 60.8969 24.2403 60.8969 22.6661V15.2343C60.8969 14.5834 60.3787 14.0562 59.7391 14.0562H52.4355C50.8883 14.0562 50.1133 15.9596 51.2074 17.0729L53.3421 19.2444L47.0031 25.6946L40.8747 19.4586C40.4224 18.9984 39.6894 18.9984 39.2371 19.4586L33.8576 24.9325C33.4053 25.3927 33.4053 26.1386 33.8576 26.5988L34.6761 27.4316C35.1283 27.8918 35.8614 27.8918 36.3136 27.4316L40.0563 23.6241L46.1847 29.86C46.637 30.3202 47.37 30.3202 47.8223 29.86Z" fill="#262626"/>
</g>
<defs>
<clipPath id="clip0_60_306">
<rect width="63.375" height="52" fill="white"/>
</clipPath>
</defs>
</svg>
