<svg width="46" height="40" viewBox="0 0 46 40" fill="none" xmlns="http://www.w3.org/2000/svg">
<circle cx="20" cy="20" r="20" fill="#F5CFCD"/>
<circle cx="36.44" cy="27.0987" r="8.66403" stroke="#0D37D5" stroke-width="0.959"/>
<path d="M31.7394 30.5735C32.4108 30.5735 32.9612 30.3711 33.3905 29.9664C33.8197 29.5617 34.0343 29.0405 34.0343 28.4027C34.0343 27.6239 33.74 27.0613 33.1513 26.7148C33.6664 26.353 33.924 25.8471 33.924 25.1971C33.924 24.6207 33.7277 24.15 33.3353 23.7852C32.9428 23.4172 32.4354 23.2333 31.813 23.2333C31.1967 23.2333 30.7168 23.3889 30.3734 23.7001C30.03 24.0113 29.8031 24.5011 29.6928 25.1695H30.7598C30.8364 24.82 30.9529 24.5716 31.1093 24.4245C31.2718 24.2803 31.5017 24.2083 31.7992 24.2083C32.118 24.2083 32.3771 24.3049 32.5764 24.498C32.7788 24.6881 32.88 24.935 32.88 25.2385C32.88 25.631 32.7404 25.9161 32.4614 26.0939C32.3051 26.1951 32 26.2457 31.5462 26.2457V27.1609C31.9632 27.1609 32.2713 27.2192 32.4706 27.3357C32.811 27.5381 32.9811 27.8784 32.9811 28.3567C32.9811 28.7185 32.8677 29.0175 32.6408 29.2535C32.4139 29.4835 32.1272 29.5985 31.7808 29.5985C31.4374 29.5985 31.1591 29.5073 30.946 29.3248C30.7329 29.1424 30.5988 28.8795 30.5436 28.5361H29.5088C29.5548 29.0021 29.6636 29.367 29.8353 29.6307C30.2492 30.2592 30.8839 30.5735 31.7394 30.5735Z" fill="#113DCD"/>
<path fill-rule="evenodd" clip-rule="evenodd" d="M37.8827 23.6754L37.0963 23.0867L34.655 26.3999L34.9623 26.4003L36.7534 25.9548C36.6938 25.9498 36.6333 25.9473 36.572 25.9473C36.5352 25.9473 36.4846 25.9504 36.4202 25.9565C36.3558 25.9627 36.2776 25.9719 36.1856 25.9841L37.8827 23.6754ZM34.309 29.493L34.0697 27.4344C33.9687 27.7111 33.9183 27.9804 33.9183 28.2424C33.9183 28.7055 34.0485 29.1223 34.309 29.493Z" fill="#113DCD"/>
<path d="M42.8801 23.4999V24.5025H40.6909L40.3414 25.6799C40.3935 25.6737 40.4433 25.6691 40.4908 25.6661C40.5383 25.663 40.582 25.6615 40.6219 25.6615C41.1564 25.6615 41.6164 25.8014 42.0019 26.0812L39.1364 26.4003L39.0958 26.34L39.9458 23.4999H42.8801Z" fill="#113DCD"/>
<path d="M40.6048 30.6935C39.9197 30.6935 39.2993 30.4195 38.8445 29.9763C39.046 29.7119 39.1914 29.4504 39.3057 29.1058C39.5975 29.51 40.0693 29.7757 40.6048 29.7757C41.4904 29.7757 42.2108 29.0553 42.2108 28.1697C42.2108 27.284 41.4904 26.5636 40.6048 26.5636C40.0693 26.5636 39.5975 26.8293 39.3052 27.2336C38.7238 28.0384 39.2919 28.5482 38.5398 29.6179C38.0768 30.2768 37.3183 30.6935 36.4749 30.6935C35.0809 30.6935 33.9511 29.5637 33.9511 28.1697C33.9511 26.7756 35.0809 25.6459 36.4749 25.6459C37.16 25.6459 37.7804 25.9198 38.2351 26.3631C38.0337 26.6274 37.8882 26.889 37.7744 27.2336C37.4821 26.8293 37.0104 26.5636 36.4749 26.5636C35.5893 26.5636 34.8689 27.284 34.8689 28.1697C34.8689 29.0553 35.5893 29.7757 36.4749 29.7757C37.3771 29.7757 38.081 29.0241 38.081 28.1697C38.081 26.7687 39.2217 25.6459 40.6048 25.6459C41.9988 25.6459 43.1286 26.7756 43.1286 28.1697C43.1286 29.5637 41.9988 30.6935 40.6048 30.6935Z" fill="#113DCD"/>
<path d="M38.8393 29.2977V31.4706H39.4919V29.6918L40.8225 28.9191L40.4462 28.2985L38.8393 29.2977Z" fill="#113DCD"/>
<path fill-rule="evenodd" clip-rule="evenodd" d="M31.0392 2.79525L36.0985 7.85453C36.6298 8.39871 36.9252 9.13038 36.9207 9.8909V17.2016H35.0234V11.5984H28.7878C28.4049 11.6001 28.0371 11.4487 27.7664 11.178C27.4956 10.9072 27.3442 10.5394 27.3459 10.1565V3.92094H16.791C16.2674 3.92084 15.84 4.33976 15.8297 4.86323V29.8308C15.8331 30.3603 16.2615 30.7886 16.791 30.7921H27.4408V32.6893H16.791C15.2018 32.6893 13.9133 31.401 13.9133 29.8118V4.86323C13.9051 4.09403 14.2043 3.35334 14.7446 2.80585C15.285 2.25836 16.0217 1.94946 16.791 1.94781H29.0028C29.7669 1.94998 30.4991 2.25468 31.0392 2.79525ZM29.2622 3.9209V9.65687L35.0234 9.66951C34.9823 9.50113 34.8947 9.34772 34.7705 9.22683L29.7112 4.16754C29.5868 4.04596 29.4315 3.96068 29.2622 3.9209Z" fill="black" fill-opacity="0.7"/>
<rect x="19.0361" y="14.147" width="11.5162" height="1.91621" rx="0.958103" fill="black" fill-opacity="0.7"/>
<path d="M25.1831 19.9083C25.4044 19.9083 25.5878 19.5857 25.5878 19.1873V18.713C25.5878 18.3146 25.4044 17.9921 25.1831 17.9921H19.4914C19.2637 17.9921 19.0803 18.3146 19.0803 18.713V19.1873C19.0803 19.5857 19.2637 19.9083 19.4914 19.9083H25.1831Z" fill="black" fill-opacity="0.7"/>
<path d="M25.1831 23.7469C25.4044 23.7469 25.5878 23.4244 25.5878 23.0259V22.5516C25.5878 22.1532 25.4044 21.8307 25.1831 21.8307H19.4914C19.2637 21.8307 19.0803 22.1532 19.0803 22.5516V23.0259C19.0803 23.4244 19.2637 23.7469 19.4914 23.7469H25.1831Z" fill="black" fill-opacity="0.7"/>
</svg>
