<svg width="26" height="24" viewBox="0 0 26 24" fill="none" xmlns="http://www.w3.org/2000/svg">
<path d="M12 24C18.6274 24 24 18.6274 24 12C24 5.37258 18.6274 0 12 0C5.37258 0 0 5.37258 0 12C0 18.6274 5.37258 24 12 24Z" fill="#FFEDAC"/>
<path d="M14.0769 12C16.6262 12 18.6923 9.93388 18.6923 7.3846C18.6923 4.83532 16.6262 2.76923 14.0769 2.76923C11.5276 2.76923 9.46153 4.83532 9.46153 7.3846C9.46153 9.93388 11.5276 12 14.0769 12ZM14.0769 10.8461C12.1694 10.8461 10.6154 9.29206 10.6154 7.3846C10.6154 5.47714 12.1694 3.92307 14.0769 3.92307C15.9844 3.92307 17.5384 5.47714 17.5384 7.3846C17.5384 9.29206 15.9844 10.8461 14.0769 10.8461ZM20.423 21.2307C21.3786 21.2307 22.1538 20.4555 22.1538 19.5V18C22.1538 15.3245 19.9831 13.1538 17.3077 13.1538C16.2728 13.1538 15.7752 13.7307 14.0769 13.7307C12.3786 13.7307 11.8846 13.1538 10.8462 13.1538C8.17067 13.1538 6 15.3245 6 18V19.5C6 20.4555 6.77524 21.2307 7.73077 21.2307H20.423ZM20.423 20.0769H7.73077C7.41347 20.0769 7.15384 19.8173 7.15384 19.5V18C7.15384 15.9627 8.8089 14.3077 10.8462 14.3077C11.5529 14.3077 12.256 14.8846 14.0769 14.8846C15.8942 14.8846 16.6009 14.3077 17.3077 14.3077C19.3449 14.3077 21 15.9627 21 18V19.5C21 19.8173 20.7403 20.0769 20.423 20.0769Z" fill="black"/>
<path d="M21.2308 21.2308C23.5249 21.2308 25.3846 19.371 25.3846 17.0769C25.3846 14.7828 23.5249 12.9231 21.2308 12.9231C18.9367 12.9231 17.0769 14.7828 17.0769 17.0769C17.0769 19.371 18.9367 21.2308 21.2308 21.2308Z" fill="black"/>
<path d="M21.8308 18.3026V17.9697C21.8308 17.8638 21.8359 17.7755 21.8462 17.7049C21.8564 17.6343 21.8756 17.57 21.9039 17.512C21.9321 17.454 21.9705 17.3985 22.0192 17.3455C22.068 17.2925 22.1333 17.2282 22.2154 17.1526L22.2923 17.0845L22.7539 16.6154C22.8564 16.4893 22.9359 16.3543 22.9923 16.2106C23.0487 16.0668 23.0769 15.8991 23.0769 15.7074C23.0769 15.4855 23.0372 15.2875 22.9577 15.1135C22.8782 14.9395 22.7692 14.7932 22.6308 14.6746C22.4923 14.5561 22.3295 14.4653 22.1423 14.4023C21.9551 14.3392 21.7539 14.3077 21.5385 14.3077C21.0872 14.3077 20.709 14.4325 20.4039 14.6822C20.0987 14.9319 19.9128 15.2762 19.8462 15.715L20.6308 15.7907C20.6615 15.5384 20.7551 15.3342 20.9115 15.1778C21.068 15.0214 21.2718 14.9432 21.5231 14.9432C21.6359 14.9432 21.7423 14.9634 21.8423 15.0038C21.9423 15.0441 22.0282 15.0996 22.1 15.1702C22.1718 15.2408 22.2295 15.3253 22.2731 15.4237C22.3167 15.5221 22.3385 15.6292 22.3385 15.7453C22.3385 15.8613 22.3167 15.9659 22.2731 16.0593C22.2295 16.1526 22.1744 16.2408 22.1077 16.3241C22.041 16.4073 21.9667 16.488 21.8846 16.5662C21.8026 16.6444 21.7205 16.7213 21.6385 16.797C21.5359 16.8928 21.45 16.9748 21.3808 17.0429C21.3115 17.111 21.2564 17.1816 21.2154 17.2547C21.1744 17.3279 21.1436 17.4098 21.1231 17.5006C21.1026 17.5914 21.0923 17.7049 21.0923 17.8411V18.3026H21.8308ZM21.4539 19.8461C21.5923 19.8461 21.7115 19.797 21.8115 19.6986C21.9115 19.6002 21.9615 19.483 21.9615 19.3468C21.9615 19.2106 21.9115 19.0933 21.8115 18.9949C21.7115 18.8966 21.5923 18.8474 21.4539 18.8474C21.3154 18.8474 21.1962 18.8966 21.0962 18.9949C20.9962 19.0933 20.9462 19.2106 20.9462 19.3468C20.9462 19.483 20.9962 19.6002 21.0962 19.6986C21.1962 19.797 21.3154 19.8461 21.4539 19.8461Z" fill="white"/>
</svg>
