<svg width="64" height="53" viewBox="0 0 64 53" fill="none" xmlns="http://www.w3.org/2000/svg">
<path d="M26.5 53C41.1355 53 53 41.1355 53 26.5C53 11.8645 41.1355 0 26.5 0C11.8645 0 0 11.8645 0 26.5C0 41.1355 11.8645 53 26.5 53Z" fill="#C2F4EA"/>
<path d="M55.2499 45.1999C57.3202 45.1999 58.9999 43.5203 58.9999 41.45V15.5047C58.9999 14.5125 58.6015 13.5516 57.8984 12.8485L51.3437 6.29379C50.6406 5.59067 49.6874 5.19226 48.6952 5.19226H32.75C30.6797 5.20004 29 6.87973 29 8.95003V41.45C29 43.5203 30.6797 45.1999 32.75 45.1999H55.2499ZM55.2499 42.7H32.75C32.0625 42.7 31.5 42.1374 31.5 41.45V8.95003C31.5 8.26255 32.0625 7.70004 32.75 7.70004H46.5V15.825C46.5 16.8641 47.3359 17.7 48.375 17.7H56.4999V41.45C56.4999 42.1374 55.9374 42.7 55.2499 42.7ZM56.4609 15.2H49V7.7391C49.2187 7.7938 49.414 7.90313 49.5781 8.06724L56.1327 14.6219C56.2968 14.786 56.4062 14.9813 56.4609 15.2ZM48.5624 23.2C49.078 23.2 49.4999 22.7781 49.4999 22.2625V21.6375C49.4999 21.1219 49.078 20.7 48.5624 20.7H35.4375C34.9219 20.7 34.5 21.1219 34.5 21.6375V22.2625C34.5 22.7781 34.9219 23.2 35.4375 23.2H48.5624ZM48.5624 28.2C49.078 28.2 49.4999 27.7781 49.4999 27.2625V26.6375C49.4999 26.1219 49.078 25.7 48.5624 25.7H35.4375C34.9219 25.7 34.5 26.1219 34.5 26.6375V27.2625C34.5 27.7781 34.9219 28.2 35.4375 28.2H48.5624ZM48.5624 33.2C49.078 33.2 49.4999 32.7781 49.4999 32.2625V31.6375C49.4999 31.1219 49.078 30.7 48.5624 30.7H35.4375C34.9219 30.7 34.5 31.1219 34.5 31.6375V32.2625C34.5 32.7781 34.9219 33.2 35.4375 33.2H48.5624Z" fill="black"/>
<path d="M56.225 46.65C60.2153 46.65 63.45 43.4152 63.45 39.425C63.45 35.4347 60.2153 32.2 56.225 32.2C52.2347 32.2 49 35.4347 49 39.425C49 43.4152 52.2347 46.65 56.225 46.65Z" fill="black"/>
<path d="M55.888 42.2831L60.7755 37.6952C60.9415 37.5394 60.9415 37.2868 60.7755 37.131L60.1745 36.5668C60.0086 36.411 59.7394 36.411 59.5735 36.5668L55.5875 40.3084L53.7266 38.5615C53.5606 38.4057 53.2915 38.4057 53.1255 38.5615L52.5245 39.1257C52.3585 39.2815 52.3585 39.5341 52.5245 39.6899L55.287 42.2831C55.453 42.4389 55.7221 42.4389 55.888 42.2831Z" fill="white"/>
</svg>
