<svg width="62" height="53" viewBox="0 0 62 53" fill="none" xmlns="http://www.w3.org/2000/svg">
<g clip-path="url(#clip0_39_1657)">
<path d="M25.7037 53C39.7972 53 51.2222 41.1355 51.2222 26.5C51.2222 11.8645 39.7972 0 25.7037 0C11.6102 0 0.185181 11.8645 0.185181 26.5C0.185181 41.1355 11.6102 53 25.7037 53Z" fill="#D6CFF0"/>
<path d="M58.2036 46.0077C60.1973 46.0077 61.8148 44.328 61.8148 42.2577V16.3125C61.8148 15.3203 61.4311 14.3594 60.754 13.6562L54.4421 7.10153C53.765 6.39841 52.8472 6 51.8917 6H36.537C34.5434 6.00778 32.9259 7.68747 32.9259 9.75777V42.2577C32.9259 44.328 34.5434 46.0077 36.537 46.0077H58.2036ZM58.2036 43.5077H36.537C35.875 43.5077 35.3333 42.9452 35.3333 42.2577V9.75777C35.3333 9.07029 35.875 8.50778 36.537 8.50778H49.7777V16.6328C49.7777 17.6718 50.5827 18.5078 51.5833 18.5078H59.4074V42.2577C59.4074 42.9452 58.8657 43.5077 58.2036 43.5077ZM59.3697 16.0078H52.1851V8.54684C52.3958 8.60154 52.5839 8.71087 52.7419 8.87498L59.0537 15.4296C59.2118 15.5937 59.3171 15.789 59.3697 16.0078Z" fill="black"/>
<path d="M44.7511 27.4C46.5615 27.4 47.8904 25.96 47.8904 24.2C47.8904 22.4 46.5422 21 44.7511 21C42.9407 21 41.5926 22.42 41.5926 24.2C41.5926 25.96 42.9407 27.4 44.7511 27.4ZM44.7318 25.64C43.923 25.64 43.3644 25 43.3644 24.2C43.3644 23.38 43.923 22.74 44.7318 22.74C45.56 22.74 46.1185 23.38 46.1185 24.2C46.1185 24.98 45.56 25.64 44.7318 25.64ZM43.7689 33.84L52.6474 23.56L51.6074 22.94L42.7289 33.2L43.7689 33.84ZM50.9141 35.5C52.7052 35.5 54.0533 34.06 54.0533 32.3C54.0533 30.52 52.7052 29.1 50.9141 29.1C49.1037 29.1 47.7556 30.52 47.7556 32.3C47.7556 34.06 49.1037 35.5 50.9141 35.5ZM50.8948 33.74C50.0859 33.74 49.5274 33.1 49.5274 32.3C49.5274 31.48 50.0859 30.84 50.8948 30.84C51.723 30.84 52.2815 31.48 52.2815 32.3C52.2815 33.08 51.723 33.74 50.8948 33.74Z" fill="#262626"/>
</g>
<defs>
<clipPath id="clip0_39_1657">
<rect width="61.6296" height="53" fill="white" transform="translate(0.185181)"/>
</clipPath>
</defs>
</svg>
