<?xml version="1.0" encoding="UTF-8"?>
<svg width="14px" height="14px" viewBox="0 0 14 14" version="1.1" xmlns="http://www.w3.org/2000/svg" xmlns:xlink="http://www.w3.org/1999/xlink">
    <title>pphone</title>
    <g id="Final" stroke="none" stroke-width="1" fill="none" fill-rule="evenodd">
        <g id="360pc-mobile" transform="translate(-129.000000, -750.000000)" fill="#50CAAE" fill-rule="nonzero">
            <g id="Group-11" transform="translate(20.000000, 736.000000)">
                <g id="Group-4" transform="translate(109.000000, 12.000000)">
                    <path d="M1.27994421,15.65 C8.10745813,15.65 13.65,10.1181367 13.65,3.27995379 C13.65,2.98136126 13.4447159,2.7227581 13.1541418,2.65610915 L10.3815431,2.01627917 C10.0802687,1.94697467 9.77102777,2.10427662 9.64840401,2.38685778 L8.36874306,5.372731 C8.25676752,5.6339897 8.3314092,5.9405749 8.5526787,6.11919931 L10.1682663,7.44150418 C9.20852056,9.48629935 7.53162111,11.1871755 5.44417941,12.1655874 L4.12184748,10.5500271 C3.94056739,10.3287578 3.63666353,10.2540901 3.37537859,10.3660656 L0.38950306,11.6457255 C0.104266136,11.7710308 -0.0530359354,12.0802715 0.0162686185,12.3815456 L0.65609909,15.1541422 C0.722748098,15.4420605 0.978695907,15.65 1.27994421,15.65 Z" id="pphone" transform="translate(6.825000, 8.825000) scale(-1, 1) translate(-6.825000, -8.825000) "></path>
                </g>
            </g>
        </g>
    </g>
</svg>