<svg width="20" height="20" viewBox="0 0 20 20" fill="none" xmlns="http://www.w3.org/2000/svg">
<path fill-rule="evenodd" clip-rule="evenodd" d="M18.1246 20C8.12089 20 0 11.8947 0 1.87539C0 1.43789 0.300799 1.05899 0.726499 0.961329L4.7889 0.0238502C5.2304 -0.0776897 5.6835 0.15279 5.8631 0.56682L7.73809 4.94173C7.90219 5.32452 7.79279 5.77374 7.46859 6.03545L5.1014 7.97289C6.50769 10.9689 8.96469 13.4611 12.0232 14.8946L13.9607 12.5275C14.2263 12.2033 14.6716 12.0939 15.0544 12.258L19.4293 14.1329C19.8472 14.3165 20.0777 14.7696 19.9762 15.2111L19.0387 19.2735C18.941 19.6953 18.566 20 18.1246 20Z" fill="#262626" fill-opacity="0.7"/>
</svg>
