<svg xmlns="http://www.w3.org/2000/svg" width="77" height="77" xmlns:v="https://vecta.io/nano"><path d="M61.098 10.474c.845 0 1.587.114 2.27.345a4.98 4.98 0 0 1 1.925 1.177c.52.52.927 1.185 1.177 1.924.23.683.343 1.425.345 2.27-.01 1.315-.27 2.745-.796 4.373-.5 1.52-1.204 3.175-2.18 5.062-.933 1.792-2.077 3.703-3.398 5.678l-4.498 6.122a1.58 1.58 0 0 1-1.239.596 1.55 1.55 0 0 1-.774-.204l2.022 2.455c.263.33.38.743.334 1.164a1.57 1.57 0 0 1-1.571 1.405 1.57 1.57 0 0 1-1.237-.596c-2.606-3.265-5.54-6.533-8.72-9.715l-.9-.9a149.31 149.31 0 0 0-5.404-.097h-.03a148.22 148.22 0 0 0-5.373.097l-.9.902-.9.9c-.065 1.778-.098 3.582-.098 5.404 0 1.816.034 3.624.1 5.407l.898.906h0a1.57 1.57 0 0 1 .446.881 145.08 145.08 0 0 0 5.837.116h.08a1.58 1.58 0 0 1 1.582 1.582c0 .823-.632 1.503-1.438 1.575l-.144.006h-.05a148.03 148.03 0 0 1-2.213-.016 1.54 1.54 0 0 1 .631.345c.65.582.7 1.585.12 2.234a1.59 1.59 0 0 1-1.177.524c-.4 0-.767-.144-1.058-.405-.313-.283-.498-.67-.52-1.093a1.56 1.56 0 0 1 .403-1.141 1.58 1.58 0 0 1 .803-.48l-3.927-.128c.175 2.392.4 4.707.703 6.9 4.132-3.045 8.4-6.75 12.55-10.9a1.58 1.58 0 0 1 .882-.446 144.78 144.78 0 0 0 .116-5.867v-.05c0-.872.7-1.582 1.582-1.582a1.58 1.58 0 0 1 1.582 1.582v.05l-.016 2.2a1.54 1.54 0 0 1 .344-.625 1.58 1.58 0 0 1 1.177-.525c.4 0 .767.144 1.058.405.65.584.7 1.585.12 2.234v.002c-.3.332-.728.523-1.175.523a1.57 1.57 0 0 1-1.537-1.204c-.107 5.38-.503 10.617-1.16 15.3l-.138.945c1.936 1.302 3.8 2.423 5.534 3.327 3.17 1.663 6.057 2.617 7.922 2.617h.054c.48 0 .9-.062 1.248-.177.298-.103.516-.23.704-.418s.316-.408.42-.706c.115-.34.177-.77.177-1.25.002-.974-.247-2.23-.718-3.628-.495-1.47-1.236-3.124-2.2-4.914v-.002c-.125-.233-.2-.492-.2-.753.003-.582.32-1.114.832-1.4a1.61 1.61 0 0 1 .75-.2c.582 0 1.117.32 1.394.832 1.05 1.95 1.862 3.767 2.412 5.406.6 1.765.88 3.283.884 4.637-.002.843-.114 1.587-.345 2.27a4.98 4.98 0 0 1-1.178 1.925c-.517.52-1.183.927-1.924 1.177a6.7 6.7 0 0 1-1.913.337l-.356.008c-1.315-.01-2.746-.27-4.373-.796-1.52-.5-3.177-1.204-5.062-2.18-1.48-.77-3.04-1.684-4.65-2.722a71.12 71.12 0 0 1-.661 3.096c-.538 2.257-1.15 4.25-1.82 5.923-1.017 2.504-2.023 4.094-3.264 5.157-.558.474-1.44 1.035-2.557 1.1h-.253c-.867 0-1.577-.706-1.582-1.572a1.57 1.57 0 0 1 .457-1.122c.297-.3.693-.467 1.115-.47.155-.003.385-.05.78-.377.418-.346.886-.952 1.316-1.705.97-1.677 1.9-4.23 2.658-7.385.352-1.438.67-2.978.952-4.604a94.45 94.45 0 0 1-4.29-3.235c-.614-.5-.765-1.347-.394-2a101.83 101.83 0 0 1-5.694 4.497l-1.033.744c.287 1.67.6 3.24.967 4.687.03.123.046.25.046.377a1.58 1.58 0 0 1-1.205 1.538 1.61 1.61 0 0 1-.378.046c-.73 0-1.36-.495-1.535-1.205a69.56 69.56 0 0 1-.76-3.5 64.64 64.64 0 0 1-2.261 1.394c-1.97 1.158-3.84 2.104-5.56 2.8-2.3.936-4.246 1.424-5.932 1.487l-.334.007c-.845-.002-1.587-.114-2.27-.345-.74-.25-1.405-.658-1.924-1.177l.005-.008-.005.006a1.57 1.57 0 0 1-.465-1.12c.002-.424.166-.82.465-1.118a1.57 1.57 0 0 1 1.117-.464c.424 0 .82.166 1.12.465a1.85 1.85 0 0 0 .706.42c.337.115.77.177 1.248.177h.03c1.28 0 3.07-.448 5.04-1.258 2.1-.862 4.482-2.132 7.05-3.775l1.388-.9c-.43-2.855-.76-5.923-.983-9.134-2.852-.2-5.604-.483-8.187-.845L19.182 48c-1.156 1.717-2.172 3.38-3.02 4.958a1.58 1.58 0 0 1-2.975-.748 1.57 1.57 0 0 1 .19-.753 60.77 60.77 0 0 1 2.396-4.037 67.46 67.46 0 0 1-3.095-.66c-2.26-.538-4.25-1.15-5.923-1.82-2.504-1.02-4.094-2.025-5.157-3.265-.5-.598-1.115-1.57-1.12-2.8a1.58 1.58 0 0 1 .457-1.122c.297-.302.693-.467 1.115-.47h.01c.867 0 1.577.706 1.582 1.572.003.155.05.385.377.78.346.418.952.884 1.705 1.316 1.677.97 4.23 1.9 7.385 2.656a70.33 70.33 0 0 0 4.603.952c1.326-1.872 2.796-3.784 4.387-5.7a99.89 99.89 0 0 1-3.639-4.668l-.748-1.038c-1.655.288-3.22.612-4.68.972h-.002a1.62 1.62 0 0 1-.378.046 1.58 1.58 0 0 1-1.536-1.205 1.59 1.59 0 0 1-.046-.375c-.002-.73.494-1.364 1.205-1.538a69.34 69.34 0 0 1 3.502-.759 63.75 63.75 0 0 1-1.396-2.261c-1.158-1.97-2.102-3.84-2.8-5.56-1-2.454-1.487-4.504-1.493-6.266 0-.845.114-1.588.345-2.27a4.97 4.97 0 0 1 1.177-1.924l.003-.002a1.57 1.57 0 0 1 1.117-.462 1.57 1.57 0 0 1 1.12.464c.615.617.615 1.62-.002 2.237l-.002.002a1.78 1.78 0 0 0-.419.704c-.115.34-.176.77-.176 1.25-.006 1.283.44 3.083 1.258 5.067.862 2.1 2.132 4.483 3.773 7.05l.9 1.388a116.44 116.44 0 0 1 9.135-.983l.24-2.954a1.58 1.58 0 0 1 1.721-1.429c.868.08 1.5.853 1.43 1.723l-.205 2.475.203-.01c1.418-1.364 2.85-2.68 4.3-3.938a97.22 97.22 0 0 0-4.672-3.59 1.28 1.28 0 0 1-.243.047l-.16.008a1.8 1.8 0 0 1-.244-.017 1.57 1.57 0 0 1-1.334-1.416c-1.73-1.17-3.4-2.196-5-3.053-.5-.275-.83-.808-.832-1.4a1.6 1.6 0 0 1 .19-.755 1.58 1.58 0 0 1 1.394-.83 1.57 1.57 0 0 1 .75.19c3.93 2.12 8.234 5.107 12.605 8.72l1.428-1.16a1.56 1.56 0 0 1 .984-.345 1.58 1.58 0 0 1 1.24.595c.544.682.432 1.68-.25 2.224l-.953.77a123.84 123.84 0 0 1 4.292 3.94c2.16.097 4.28.242 6.343.434.42.04.8.24 1.07.565a1.58 1.58 0 0 1 .358 1.156c-.038.395-.22.76-.513 1.025-.33.297-.766.445-1.2.403l-2.513-.208a1.46 1.46 0 0 1 .041.201c1.555 1.616 3.046 3.25 4.462 4.892a1.58 1.58 0 0 1 .243-1.535c1-1.255 1.947-2.502 2.828-3.73a1.5 1.5 0 0 1-.037-.65c.06-.375.25-.718.54-.963a1.59 1.59 0 0 1 .876-.37c1.316-1.95 2.448-3.83 3.358-5.577 1.68-3.203 2.634-6.1 2.617-7.973 0-.48-.062-.913-.177-1.25-.103-.3-.23-.516-.42-.704s-.406-.318-.706-.42c-.335-.114-.767-.176-1.245-.176h-.02c-.973 0-2.22.248-3.612.718-1.47.494-3.123 1.234-4.914 2.2-.23.125-.5.2-.75.2a1.58 1.58 0 0 1-1.394-.831 1.6 1.6 0 0 1-.19-.755 1.58 1.58 0 0 1 .831-1.387l.006-.005c1.955-1.052 3.767-1.86 5.4-2.4 1.765-.592 3.283-.88 4.637-.883zm-26.9 58.74c.623 0 1.2.368 1.444.937a1.6 1.6 0 0 1-.797 2.1 1.57 1.57 0 0 1-.645.14c-.623 0-1.2-.367-1.446-.937a1.55 1.55 0 0 1-.033-1.2 1.57 1.57 0 0 1 1.478-1.019zM12.174 56.7a1.62 1.62 0 0 1 .435.06c.838.24 1.326 1.117 1.087 1.955-.2.677-.816 1.15-1.52 1.15h-.002a1.61 1.61 0 0 1-.433-.06c-.84-.24-1.327-1.117-1.088-1.955a1.59 1.59 0 0 1 1.52-1.149zm33.222-7.57l-.033.01a1.6 1.6 0 0 1-.172.033l-.088.084a124.57 124.57 0 0 1-4.793 4.368l-.01.006a1.59 1.59 0 0 1 .551-.098c.36 0 .702.12.985.346a94.36 94.36 0 0 0 2.855 2.192 114.85 114.85 0 0 0 .706-6.94zM64.2 30.976c.127 0 .253.016.378.046 2.574.63 4.77 1.353 6.53 2.144 1.97.895 3.306 1.808 4.2 2.87.506.6 1.1 1.574 1.106 2.806.002.767-.24 1.546-.696 2.25-.394.6-.937 1.175-1.656 1.726-1.264.96-2.988 1.815-5.27 2.613-2.5.868-5.524 1.615-8.974 2.216a1.58 1.58 0 0 1-.265.228c-.264.182-.573.277-.892.277a1.59 1.59 0 0 1-.757-.192c-1.985.3-4.1.558-6.297.766-.05.005-.1.006-.15.006-.392 0-.77-.146-1.06-.4a1.57 1.57 0 0 1-.513-1.025c-.04-.42.087-.83.356-1.157s.65-.527 1.07-.566c4.388-.4 8.345-1.02 11.763-1.808 3.295-.758 6-1.678 7.797-2.66 1.232-.66 1.938-1.326 2.185-1.728.166-.264.2-.414.193-.538-.003-.155-.047-.383-.37-.777-.343-.414-.945-.88-1.694-1.313-1.67-.97-4.22-1.9-7.37-2.658a1.59 1.59 0 0 1-1.205-1.538 1.6 1.6 0 0 1 .046-.377c.172-.7.805-1.205 1.535-1.205zM24.183 41.294l-.17.2c-.98 1.204-1.908 2.402-2.78 3.584 2.2.294 4.5.53 6.896.703l-.01-.2c-1.364-1.42-2.68-2.855-3.936-4.288zm14.423-7.105c2.656 0 4.816 2.16 4.816 4.816s-2.16 4.816-4.816 4.816-4.816-2.16-4.816-4.816 2.16-4.816 4.816-4.816zM27.98 36.885l-.365.406-1.373 1.557 1.737 1.957-.012-1.962.012-1.96zm10.625.468c-.9 0-1.652.74-1.652 1.652s.74 1.652 1.652 1.652 1.652-.74 1.652-1.652-.74-1.652-1.652-1.652zm-10.478-5.46l-.7.054a114.32 114.32 0 0 0-6.203.65 95.54 95.54 0 0 0 2.953 3.8 122.98 122.98 0 0 1 3.942-4.295l.01-.2zm-21.64 1.1c.623 0 1.2.367 1.444.937.172.384.185.815.035 1.2a1.6 1.6 0 0 1-.832.88 1.57 1.57 0 0 1-.645.138c-.623 0-1.2-.367-1.444-.935-.358-.796 0-1.732.796-2.1.206-.093.424-.14.647-.14zm31.953-6.36l-.155.134-1.803 1.602 1.96-.012 1.96.012-1.96-1.736zM38.455.876c.764 0 1.538.24 2.238.696.6.394 1.175.937 1.726 1.656.96 1.266 1.815 2.988 2.613 5.27.868 2.5 1.615 5.522 2.216 8.973a1.58 1.58 0 0 1 .23.266c.346.506.357 1.144.083 1.65a110.75 110.75 0 0 1 .767 6.296 1.58 1.58 0 0 1-.358 1.158c-.268.326-.65.525-1.07.565-.05.005-.1.008-.15.008a1.58 1.58 0 0 1-1.061-.41 1.59 1.59 0 0 1-.513-1.025c-.4-4.387-1.02-8.345-1.808-11.763-.758-3.295-1.678-6-2.66-7.797-.66-1.232-1.326-1.938-1.728-2.186-.262-.165-.414-.2-.538-.2-.153.002-.38.046-.777.37-.416.345-.88.946-1.313 1.696-.97 1.672-1.9 4.22-2.658 7.37a1.59 1.59 0 0 1-1.536 1.205 1.6 1.6 0 0 1-.377-.046c-.712-.174-1.207-.805-1.207-1.536a1.56 1.56 0 0 1 .046-.373v-.003l.008-.032c.628-2.56 1.346-4.744 2.136-6.497.895-1.97 1.808-3.308 2.87-4.2.598-.505 1.568-1.106 2.798-1.106h.02zm-19.44 10.117a1.62 1.62 0 0 1 .435.06 1.56 1.56 0 0 1 .948.753c.206.37.256.796.14 1.202a1.59 1.59 0 0 1-1.381 1.142l-.14.006a1.55 1.55 0 0 1-.433-.062c-.84-.24-1.327-1.115-1.088-1.954a1.59 1.59 0 0 1 1.52-1.15z" fill="#cb9b27"/></svg>