<svg width="40" height="32" viewBox="0 0 40 32" fill="none" xmlns="http://www.w3.org/2000/svg">
<g id="Group 61">
<circle id="Oval Copy 18" opacity="0.5" cx="16" cy="16" r="16" fill="#D6CFF0"/>
<path id="&#239;&#134;&#171;" d="M38.875 5.5C39.1562 5.5 39.4375 5.64062 39.6719 5.82812C39.8594 6.0625 40 6.34375 40 6.625V19.375C40 19.7031 39.8594 19.9844 39.6719 20.1719C39.4375 20.4062 39.1562 20.5 38.875 20.5H11.125C10.7969 20.5 10.5156 20.4062 10.3281 20.1719C10.0938 19.9844 10 19.7031 10 19.375V6.625C10 6.34375 10.0938 6.0625 10.3281 5.82812C10.5156 5.64062 10.7969 5.5 11.125 5.5H38.875ZM20.9219 17.5C21.1094 17.5 21.25 17.4531 21.3906 17.2656C21.4844 17.125 21.5312 16.9375 21.4844 16.75L18.7656 8.875C18.6719 8.64062 18.5312 8.5 18.25 8.5H16.75C16.4688 8.5 16.2812 8.64062 16.2344 8.875L13.5156 16.75C13.4219 16.9375 13.4688 17.125 13.6094 17.2656C13.7031 17.4531 13.8906 17.5 14.0781 17.5H15.1094C15.2031 17.5 15.3438 17.5 15.4375 17.4062C15.5312 17.3125 15.625 17.2188 15.6719 17.0781L16.0938 15.625H18.9062L19.3281 17.0781C19.4219 17.3594 19.6094 17.5 19.8906 17.5H20.9219ZM38.125 18.625V7.375H25V18.625H38.125ZM17.875 12.1094C17.7812 11.7344 17.6406 11.2188 17.5 10.5625L17.125 12.1094L16.6094 13.8438H18.3906L17.875 12.1094ZM26.875 11.125C26.875 11.3125 26.9219 11.4531 27.0156 11.5469C27.1094 11.6406 27.25 11.6875 27.4375 11.6875H32.6406C32.3125 12.2969 31.8906 12.9062 31.4219 13.5156C31.0938 13.1406 30.8125 12.7656 30.5781 12.3906C30.4844 12.2969 30.3438 12.2031 30.2031 12.1562C30.0625 12.1562 29.9219 12.1562 29.8281 12.2031L29.1719 12.5781C28.9844 12.6719 28.8906 12.8125 28.8906 12.9531C28.8438 13.1406 28.8906 13.2812 28.9844 13.375C29.2656 13.8906 29.6406 14.3594 30.1094 14.8281C29.6406 15.2031 29.2188 15.5312 28.75 15.8125C28.6094 15.9062 28.5156 16.0469 28.5156 16.1875C28.4688 16.3281 28.4688 16.4688 28.5625 16.5625L28.9375 17.2188C28.9844 17.3594 29.0781 17.4531 29.2656 17.5C29.4062 17.5469 29.5469 17.5 29.7344 17.4062C30.2969 17.0312 30.8594 16.6094 31.4219 16.1406C31.9375 16.6562 32.4531 17.0781 33.0156 17.4062C33.1562 17.5 33.2969 17.5469 33.4844 17.5C33.625 17.4531 33.7188 17.3594 33.8125 17.2188L34.1875 16.5625C34.2812 16.4688 34.2812 16.3281 34.2344 16.1875C34.1875 16.0469 34.0938 15.9062 34 15.8125C33.5781 15.5312 33.1562 15.2031 32.7344 14.8281L32.9219 14.5938C33.7188 13.6562 34.2812 12.6719 34.6562 11.6875H35.3125C35.4531 11.6875 35.5938 11.6406 35.6875 11.5469C35.7812 11.4531 35.875 11.3125 35.875 11.125V10.375C35.875 10.2344 35.7812 10.0938 35.6875 10C35.5938 9.90625 35.4531 9.8125 35.3125 9.8125H32.3125V9.0625C32.3125 8.92188 32.2188 8.78125 32.125 8.6875C32.0312 8.59375 31.8906 8.5 31.75 8.5H31C30.8125 8.5 30.6719 8.59375 30.5781 8.6875C30.4844 8.78125 30.4375 8.92188 30.4375 9.0625V9.8125H27.4375C27.25 9.8125 27.1094 9.90625 27.0156 10C26.9219 10.0938 26.875 10.2344 26.875 10.375V11.125Z" fill="black"/>
</g>
</svg>
