<svg xmlns="http://www.w3.org/2000/svg" width="30" height="30" fill="none" xmlns:v="https://vecta.io/nano"><circle cx="14" cy="15" r="14" fill="#efd0ce"/><path d="M26.212 17.912l2.849 4.934.002-.003a.38.38 0 0 1-.428.555l-1.984-.538-.526 1.988a.38.38 0 0 1-.694.092L23 20.729c-.282.26-.651.404-1.034.404-.34 0-.67-.113-.937-.323a.76.76 0 0 0-.942 0 1.52 1.52 0 0 1-1.971-.081l-2.431 4.211a.38.38 0 0 1-.694-.092l-.526-1.988-1.984.538a.38.38 0 0 1-.428-.555l2.849-4.934a.76.76 0 0 0-.404-.242 1.52 1.52 0 0 1-1.026-2.13.76.76 0 0 0-.209-.919 1.52 1.52 0 0 1 0-2.363.76.76 0 0 0 .209-.919 1.52 1.52 0 0 1 1.026-2.131.76.76 0 0 0 .588-.737 1.52 1.52 0 0 1 1.848-1.473.76.76 0 0 0 .849-.409 1.52 1.52 0 0 1 2.304-.526.76.76 0 0 0 .942 0 1.52 1.52 0 0 1 2.304.531.76.76 0 0 0 .849.409 1.52 1.52 0 0 1 1.848 1.473.76.76 0 0 0 .587.737 1.52 1.52 0 0 1 1.026 2.13.76.76 0 0 0 .209.919 1.52 1.52 0 0 1 0 2.363.76.76 0 0 0-.209.919 1.52 1.52 0 0 1-1.026 2.13.76.76 0 0 0-.404.242zm-11.115 4.392l.386 1.465 2.138-3.697a.76.76 0 0 0-.69-.192 1.52 1.52 0 0 1-1.744-.941l-2.021 3.495 1.465-.398a.38.38 0 0 1 .466.268zm7.037-1.945a.76.76 0 0 1-.641-.144c-.551-.435-1.328-.435-1.879 0a.76.76 0 0 1-1.156-.264 1.52 1.52 0 0 0-1.693-.816.76.76 0 0 1-.927-.739c-.003-.702-.488-1.31-1.171-1.469a.76.76 0 0 1-.514-1.068c.301-.634.128-1.391-.418-1.831a.76.76 0 0 1 0-1.186c.546-.44.719-1.198.418-1.831a.76.76 0 0 1 .514-1.069c.683-.16 1.168-.768 1.171-1.469a.76.76 0 0 1 .927-.74c.685.153 1.385-.185 1.693-.815a.76.76 0 0 1 1.156-.263c.551.435 1.328.435 1.879 0a.76.76 0 0 1 1.156.263c.307.631 1.008.968 1.692.815a.76.76 0 0 1 .927.74c.003.703.489 1.312 1.174 1.471a.76.76 0 0 1 .514 1.068c-.301.634-.128 1.391.418 1.831a.76.76 0 0 1 0 1.186 1.52 1.52 0 0 0-.418 1.832.76.76 0 0 1-.514 1.068c-.683.16-1.168.768-1.171 1.469a.76.76 0 0 1-.927.739c-.685-.152-1.385.185-1.692.816a.76.76 0 0 1-.517.406zm4.056 1.71a.38.38 0 0 1 .288-.037l1.469.397-2.021-3.495a1.52 1.52 0 0 1-1.748.942.76.76 0 0 0-.69.192l2.136 3.7.389-1.468a.38.38 0 0 1 .177-.231zm-3.526-5.924a.38.38 0 0 1-.306.156.37.37 0 0 1-.218-.071l-1.581-1.141-1.581 1.141a.38.38 0 0 1-.583-.424l.597-1.859-1.574-1.157a.38.38 0 0 1 .224-.684h1.944l.608-1.852a.38.38 0 0 1 .72 0l.608 1.852h1.951a.38.38 0 0 1 .224.684l-1.575 1.157.597 1.859a.38.38 0 0 1-.055.339zm-2.33-1.832a.38.38 0 0 1 .444 0l.857.626-.323-1.018a.38.38 0 0 1 .137-.421l.863-.634h-1.068a.38.38 0 0 1-.36-.261l-.333-1.016-.333 1.016a.38.38 0 0 1-.36.261H18.79l.863.634a.38.38 0 0 1 .137.421l-.323 1.018.867-.626z" fill-rule="evenodd" fill="#000"/><path d="M25.859 13.436c-.001-2.691-2.018-4.955-4.691-5.266s-5.156 1.43-5.774 4.049.823 5.287 3.353 6.205a.38.38 0 0 0 .515-.422.38.38 0 0 0-.257-.29c-2.075-.753-3.31-2.887-2.927-5.061s2.27-3.759 4.478-3.759 4.096 1.585 4.478 3.759-.852 4.308-2.928 5.061a.38.38 0 0 0-.124.654.38.38 0 0 0 .383.058 5.32 5.32 0 0 0 3.495-4.988zm-5.303 4.546a.38.38 0 0 0-.145.729.38.38 0 0 0 .413-.619.38.38 0 0 0-.268-.111z" fill="#000"/></svg>