<svg xmlns="http://www.w3.org/2000/svg" width="30" height="30" fill="none" xmlns:v="https://vecta.io/nano"><ellipse cx="14" cy="14.957" rx="14" ry="13.957" fill="#d8cef3"/><path d="M11.281 23h16.078a2.28 2.28 0 0 0 2.281-2.274V11.23a2.28 2.28 0 0 0-2.281-2.274h-6.27a.471.471 0 1 0 0 .942h6.27c.736 0 1.335.597 1.335 1.331v9.496c0 .734-.599 1.331-1.335 1.331H11.281c-.736 0-1.335-.597-1.335-1.331v-9.496c0-.734.599-1.331 1.335-1.331h10.553a.471.471 0 1 0 0-.942H11.281A2.28 2.28 0 0 0 9 11.231v9.496A2.28 2.28 0 0 0 11.281 23zm9.717-7.739h6.083a.47.47 0 0 0 .473-.471v-1.885a.47.47 0 0 0-.473-.471h-6.083a.47.47 0 0 0-.473.471v1.885a.47.47 0 0 0 .473.471zm.473-1.885h5.137v.943h-5.137v-.943zm-.473 4.102h6.083a.472.472 0 1 0 0-.943h-6.083a.472.472 0 1 0 0 .943zm0 2.217h1.462a.471.471 0 1 0 0-.942h-1.462a.471.471 0 1 0 0 .942zm-3.758-5.576V13.5c0-1.102-.899-1.998-2.005-1.998s-2.005.896-2.005 1.999v.619c0 .455.154.875.412 1.212a3.61 3.61 0 0 0-2.562 3.445v.448a.47.47 0 0 0 .473.471h7.365a.47.47 0 0 0 .473-.471v-.448c0-1.622-1.081-2.996-2.562-3.445.258-.336.412-.756.412-1.212zm-3.064-.619a1.06 1.06 0 0 1 1.059-1.056 1.06 1.06 0 0 1 1.059 1.056v.619a1.06 1.06 0 0 1-1.059 1.056 1.06 1.06 0 0 1-1.059-1.056V13.5zm4.269 5.253h-6.419c.013-1.455 1.204-2.635 2.667-2.635h.07v.609a.473.473 0 1 0 .945 0v-.609h.07c1.463 0 2.654 1.18 2.667 2.635z" fill="#000"/></svg>