<svg xmlns="http://www.w3.org/2000/svg" xmlns:xlink="http://www.w3.org/1999/xlink" width="30" height="30" fill="none" xmlns:v="https://vecta.io/nano"><g fill="#000"><path fill-rule="evenodd" d="M21.339 9.572h-2.666 0c-.158 0-.286-.128-.286-.286S18.514 9 18.672 9h2.666a1.42 1.42 0 0 1 1.013.42l4.339 4.349a1.42 1.42 0 0 1 .418 1.01v1.323c0 .158-.128.286-.286.286s-.286-.128-.286-.286v-1.325a.87.87 0 0 0-.021-.187h-3.671a1.32 1.32 0 0 1-1.318-1.318V9.594c-.062-.014-.125-.021-.188-.021zm1.506 4.448h3.288L22.1 9.976v3.296c0 .412.333.747.745.748z"/><path d="M15.475 15.006h4.717c.102 0 .197-.054.248-.143s.051-.197 0-.286-.145-.143-.248-.143h-4.717c-.102 0-.197.055-.248.143s-.051.197 0 .286.146.143.248.143zm0 6.291c-.158 0-.286.128-.286.286s.128.286.286.286h4.717c.158 0 .286-.128.286-.286s-.128-.286-.286-.286h-4.717zm8.751-4.289c0-.158-.128-.286-.286-.286h-8.541c-.158 0-.286.128-.286.286s.128.286.286.286h8.541c.158 0 .286-.128.286-.286zm-1.906 2.287c0-.076-.03-.149-.084-.202a.29.29 0 0 0-.202-.084h-6.635c-.158 0-.286.128-.286.286s.128.286.286.286h6.635c.076 0 .149-.03.202-.084a.29.29 0 0 0 .084-.202z"/></g><circle cx="14" cy="15" r="14" fill="#c2f4ea"/><g fill="#000"><path d="M28.897 10.097c-.002-.028-.007-.055-.016-.081l-.01-.03a.32.32 0 0 0-.063-.093l-3.8-3.8c-.027-.027-.058-.048-.093-.063-.009-.004-.019-.007-.029-.01a.31.31 0 0 0-.083-.017L15.284 6c-.874.001-1.582.709-1.583 1.583v2.331c-2.177.96-3.582 3.115-3.582 5.494s1.405 4.534 3.582 5.494v2.514c.001.874.709 1.582 1.583 1.583h12.033c.874-.001 1.582-.709 1.583-1.583v-13.3c0-.007-.003-.013-.004-.02zM27.82 9.8h-2.402c-.175 0-.317-.142-.317-.317V7.081L27.82 9.8zm-17.061 5.608c-.002-1.428.565-2.799 1.575-3.809s2.38-1.577 3.809-1.575l.535.026a5.37 5.37 0 0 1 4.782 4.551 5.43 5.43 0 0 1 .066.806 5.34 5.34 0 0 1-.826 2.865 5.36 5.36 0 0 1-1.694 1.693 5.38 5.38 0 0 1-5.467.152c-1.714-.948-2.779-2.752-2.779-4.711zm9.061 4.757l.128-.101.449-.401a5.93 5.93 0 0 0 .401-.448l.101-.129.117-.149 2.7 2.703a.94.94 0 0 1 .279.67c0 .252-.101.493-.279.67-.374.361-.967.361-1.341 0l-2.703-2.698.149-.117zm7.497 4.202H15.284a.95.95 0 0 1-.95-.95V21.15l.06.017.153.042.359.087.178.034.365.052.163.019.53.025a5.97 5.97 0 0 0 2.983-.795l2.8 2.797a1.58 1.58 0 0 0 1.555.467c.565-.143 1.006-.583 1.149-1.148s-.036-1.162-.466-1.556l-2.799-2.8a5.98 5.98 0 0 0 .795-2.983l-.029-.597a5.99 5.99 0 0 0-1.732-3.658c-1.126-1.132-2.658-1.767-4.255-1.762l-.53.025-.163.019-.364.052-.18.034-.354.086-.158.043-.059.017V7.583a.95.95 0 0 1 .95-.95h9.184v2.85a.95.95 0 0 0 .95.95h2.85v12.983a.95.95 0 0 1-.95.95zm-4.116-16.15c0-.175-.142-.317-.317-.317h-6.967c-.175 0-.317.142-.317.317s.142.317.317.317h6.967c.175 0 .317-.142.317-.317z"/><use xlink:href="#B"/><use xlink:href="#B" y="1.9"/><path d="M27.001 17.717c0-.175-.142-.317-.317-.317h-4.117c-.175 0-.317.142-.317.317s.142.317.317.317h4.117c.175 0 .317-.142.317-.317zm0 1.9c0-.175-.142-.317-.317-.317h-2.85c-.175 0-.317.142-.317.317s.142.317.317.317h2.85c.175 0 .317-.142.317-.317zm-3.8-9.5c0-.175-.142-.317-.317-.317h-2.533c-.175 0-.317.142-.317.317s.142.317.317.317h2.533c.175 0 .317-.142.317-.317z"/><use xlink:href="#C"/><path d="M14.967 13.917h2.217c.175 0 .317-.142.317-.317s-.142-.317-.317-.317h-2.217c-.175 0-.317.142-.317.317s.142.317.317.317z"/><use xlink:href="#C" x="-8.234" y="3.483"/><path d="M17.184 17.083h-2.217c-.175 0-.317.142-.317.317s.142.317.317.317h2.217c.175 0 .317-.142.317-.317s-.142-.317-.317-.317zm1.212 2.502a4.64 4.64 0 0 0 1.847-1.792l.076-.131.034-.069.136-.279.108-.278.032-.08a4.75 4.75 0 0 0-8.68-3.785 4.72 4.72 0 0 0-.557 2.236 4.74 4.74 0 0 0 2.313 4.082c1.437.857 3.22.895 4.691.097v-.002zm-4.228-.564c-.345-.188-.66-.425-.938-.703a4.17 4.17 0 0 1-.517-.628l-.207-.345a4.12 4.12 0 0 1 6.545-4.848 4.14 4.14 0 0 1 .709 4.866v.003c-.378.706-.957 1.285-1.663 1.662-1.226.666-2.706.664-3.93-.006v-.001zM27.317 21.2c-.175 0-.317.142-.317.317v1.267c0 .175-.142.317-.317.317h-1.267c-.175 0-.317.142-.317.317s.142.317.317.317h1.267a.95.95 0 0 0 .95-.95v-1.267c0-.175-.142-.317-.317-.317z"/></g><defs ><path id="B" d="M26.684 13.6h-3.8c-.175 0-.317.142-.317.317s.142.317.317.317h3.8c.175 0 .317-.142.317-.317s-.142-.317-.317-.317z"/><path id="C" d="M27.001 12.017c0-.175-.142-.317-.317-.317h-4.75c-.175 0-.317.142-.317.317s.142.317.317.317h4.75c.175 0 .317-.142.317-.317z"/></defs></svg>