<svg xmlns="http://www.w3.org/2000/svg" width="30" height="30" fill="none" xmlns:v="https://vecta.io/nano"><circle cx="14" cy="15" r="14" fill="#b8dee0"/><path d="M27.839 7l-12.489.029c-1.148.007-2.075.934-2.075 2.073v11.475h-1.848c-.269 0-.486.216-.486.483v1.201c.001 1.143.934 2.069 2.085 2.072h9.479c.268 0 .486-.216.486-.483s-.218-.483-.486-.483h-9.479a1.11 1.11 0 0 1-1.112-1.106v-.718h10.591c.268 0 .486-.216.486-.483s-.218-.483-.486-.483h-8.257V9.102a1.11 1.11 0 0 1 1.112-1.106l10.685-.025c-.233.349-.356.758-.356 1.176v2.616c0 .267.218.483.486.483s.486-.216.486-.483V9.145c.001-.651.532-1.179 1.188-1.18.652.006 1.177.532 1.178 1.18v.645h-1.062c-.268 0-.486.216-.486.483s.218.483.486.483h1.556c.265-.004.478-.219.478-.483V9.145c-.001-1.184-.968-2.144-2.161-2.145zm-4.718 12.406c-.046-.193-.183-.352-.368-.427-.468-.193-.813-.599-.928-1.089-.111-.48.02-.985.352-1.351a.56.56 0 0 0 .126-.517c-.126-.464-.022-.96.28-1.336.322-.405.819-.634 1.338-.618.211.007.414-.084.548-.245a1.67 1.67 0 0 1 2.585 0c.133.164.337.255.548.245a1.65 1.65 0 0 1 1.338.618c.302.376.406.872.28 1.336a.56.56 0 0 0 .126.51c.332.367.464.871.352 1.352a1.56 1.56 0 0 1-.93 1.096c-.185.075-.322.234-.368.427-.103.473-.422.871-.862 1.079a1.68 1.68 0 0 1-1.47 0 .71.71 0 0 0-.618 0 1.68 1.68 0 0 1-1.47 0 1.57 1.57 0 0 1-.862-1.079zm.121-3.633c.132.494.006 1.021-.337 1.404h-.002c-.126.136-.175.325-.13.504.046.191.182.348.366.421a1.58 1.58 0 0 1 .933 1.114c.042.182.166.334.336.413a.71.71 0 0 0 .619 0 1.7 1.7 0 0 1 1.468 0c.195.095.424.095.618 0a.6.6 0 0 0 .336-.413 1.58 1.58 0 0 1 .934-1.114.61.61 0 0 0 .366-.421.55.55 0 0 0-.132-.494c-.342-.382-.468-.909-.336-1.404a.55.55 0 0 0-.105-.49.67.67 0 0 0-.552-.251c-.515.012-1.006-.213-1.332-.608-.132-.156-.327-.246-.532-.246s-.4.09-.532.246a1.68 1.68 0 0 1-1.332.61.67.67 0 0 0-.55.249.55.55 0 0 0-.103.481zm.71 6.18c0-.267.218-.483.486-.483s.477.22.477.483v2.097l.554-.425a.49.49 0 0 1 .593 0l.554.425v-2.07c0-.267.218-.483.486-.483s.486.216.486.483v3.052a.48.48 0 0 1-.269.432.49.49 0 0 1-.509-.046l-1.04-.795-1.04.795a.49.49 0 0 1-.509.046.48.48 0 0 1-.269-.432v-3.079zm-7.448-10.771h6.912c.268 0 .486-.216.486-.483s-.218-.483-.486-.483h-6.912c-.268 0-.486.216-.486.483s.218.483.486.483zm5.064 1.469c.268 0 .486.216.486.483s-.218.483-.486.483h-5.056c-.268 0-.486-.216-.486-.483s.218-.483.486-.483h5.057zm-1.052 2.919c0-.267-.218-.483-.486-.483h-3.526c-.268 0-.486.216-.486.483s.218.483.486.483h3.526c.268 0 .486-.216.486-.483zm-4 1.952h3.141c.268 0 .486.216.486.483s-.218.483-.486.483h-3.141c-.268 0-.486-.216-.486-.483s.218-.483.486-.483zm10.454.861c-.039.054-.102.086-.168.086-.043 0-.085-.014-.12-.039l-.869-.628-.87.628c-.073.053-.172.053-.245 0s-.104-.147-.076-.233l.328-1.022-.866-.636c-.072-.053-.102-.147-.074-.233s.107-.143.197-.144h1.069l.334-1.018c.028-.085.108-.143.198-.143s.17.058.198.143l.334 1.018h1.073c.09 0 .169.058.197.144a.21.21 0 0 1-.074.233l-.866.636.329 1.022c.02.063.009.133-.03.186zm-1.282-1.007c.073-.053.171-.053.244 0l.472.344-.178-.56a.21.21 0 0 1 .075-.232l.475-.349h-.587c-.09 0-.17-.058-.198-.144l-.183-.559-.183.559a.21.21 0 0 1-.198.144h-.587l.475.349a.21.21 0 0 1 .075.232l-.178.56.476-.344z" fill-rule="evenodd" fill="#000"/></svg>