<svg xmlns="http://www.w3.org/2000/svg" width="30" height="30" fill="none" xmlns:v="https://vecta.io/nano"><circle cx="14" cy="15" r="14" fill="#ffedab"/><path d="M28.957 19.907v-4.725c0-.191-.108-.367-.278-.455L17.72 9.059a.53.53 0 0 0-.484 0L6.279 14.725c-.177.092-.285.275-.279.472s.125.373.307.454l4.91 2.181v2.65c0 .155.07.301.191.399s.281.137.434.106c.462-.093.954-.14 1.461-.14 1.325 0 2.562.332 3.228.866.265.212.601.33.946.33s.681-.117.946-.33c.666-.535 1.903-.866 3.228-.866.508 0 .999.047 1.462.14a.52.52 0 0 0 .625-.505v-2.65l4.174-1.854v3.928a1.55 1.55 0 0 0-1.044 1.457 1.53 1.53 0 0 0 .4 1.03 1.53 1.53 0 0 0-.4 1.03v2.061a.52.52 0 0 0 .522.515h2.087a.52.52 0 0 0 .522-.515v-2.061a1.52 1.52 0 0 0-.399-1.031c.248-.274.399-.634.399-1.03a1.55 1.55 0 0 0-1.044-1.457zm-5.217-3.203v-1.11c0-.185-.1-.355-.263-.447-.995-.562-2.653-.803-3.869-.906a.52.52 0 0 0-.565.469c-.025.283.188.533.475.557 1.358.115 2.489.346 3.177.644v3.968a8.84 8.84 0 0 0-1.043-.061c-1.577 0-3.03.41-3.886 1.097a.46.46 0 0 1-.288.099c-.106 0-.208-.035-.288-.099-.856-.687-2.309-1.097-3.886-1.097a8.84 8.84 0 0 0-1.043.061v-3.968c.688-.298 1.819-.529 3.177-.644.287-.024.5-.274.475-.557a.52.52 0 0 0-.565-.469c-1.216.104-2.875.345-3.869.906-.162.092-.263.262-.263.447v1.11l-3.503-1.556 9.764-5.05 9.764 5.05-3.503 1.557zm4.696 4.145a.52.52 0 0 1 .522.515.52.52 0 0 1-.522.515.52.52 0 0 1-.522-.515.52.52 0 0 1 .522-.515zm.522 4.121h-1.043v-1.546a.52.52 0 0 1 .522-.515.52.52 0 0 1 .522.515v1.546z" fill="#000"/></svg>