<svg xmlns="http://www.w3.org/2000/svg" width="30" height="30" fill="none" xmlns:v="https://vecta.io/nano"><circle cx="14" cy="15" r="14" fill="#d8cef3"/><path d="M30 13.858c0 1.467-.54 2.912-1.537 4.09.208.392.478.723.831.95.249.165.374.454.312.764a.68.68 0 0 1-.602.558c-.249.041-.498.062-.748.062a4.82 4.82 0 0 1-2.118-.475 8.64 8.64 0 0 1-3.967.95c-4.32 0-7.809-3.078-7.809-6.878S17.871 7 22.17 7c4.32-.021 7.83 3.078 7.83 6.858zm-1.038 0c0-3.222-3.032-5.845-6.771-5.845s-6.77 2.623-6.77 5.845 3.032 5.845 6.77 5.845a7.65 7.65 0 0 0 3.718-.95.57.57 0 0 1 .519 0c.478.289 1.038.454 1.682.475-.312-.331-.54-.723-.727-1.198-.062-.186-.021-.392.104-.537.955-1.033 1.475-2.293 1.475-3.635zm-18.65 11.526c-.062-.289.042-.558.291-.723.27-.165.478-.413.665-.702A5.35 5.35 0 0 1 10 20.529c0-1.942 1.08-3.759 2.908-4.833.249-.145.561-.062.706.186a.51.51 0 0 1-.187.702c-1.516.909-2.409 2.375-2.409 3.945 0 1.095.415 2.127 1.225 2.954.125.145.166.351.104.537-.125.33-.27.62-.478.867.353-.041.768-.145 1.142-.372a.57.57 0 0 1 .519 0c.914.516 1.973.785 3.053.785 2.43 0 4.611-1.384 5.317-3.387.104-.268.395-.413.665-.31s.415.392.311.661c-.872 2.437-3.385 4.069-6.293 4.069-1.163 0-2.305-.269-3.302-.785-.935.454-1.869.413-2.388.351-.291-.041-.519-.248-.582-.516zm14.347-10.907a.5.5 0 0 1-.275.452l.575 1.37a.51.51 0 0 1-.246.659.46.46 0 0 1-.192.042.48.48 0 0 1-.439-.299l-.724-1.723h-2.716l-.724 1.723a.47.47 0 0 1-.631.257.51.51 0 0 1-.246-.659l.575-1.37a.5.5 0 0 1-.275-.452.49.49 0 0 1 .479-.5h.196l1.545-3.677A.48.48 0 0 1 22 10a.48.48 0 0 1 .439.299l1.545 3.677h.196a.49.49 0 0 1 .479.5zM22 11.746l-.937 2.231h1.875L22 11.746z" fill-rule="evenodd" fill="#000"/></svg>