<svg xmlns="http://www.w3.org/2000/svg" xmlns:xlink="http://www.w3.org/1999/xlink" width="118" height="118" xmlns:v="https://vecta.io/nano"><defs><path d="M257 120c-16.6 0-30 13.4-30 30s13.4 30 30 30 30-13.4 30-30-13.4-30-30-30zm11.167 32.262l-14.413 10.032a1.66 1.66 0 0 1-.961.287c-.32 0-.577-.072-.897-.287-.577-.358-.897-1.003-.897-1.8V140.44c0-.717.384-1.433.897-1.8a1.61 1.61 0 0 1 1.858.072l14.413 10.104c.512.358.833 1.003.833 1.72s-.32 1.36-.833 1.72z" id="A"/><filter x="-75.0%" y="-75.0%" width="250.0%" height="250.0%" id="B"><feOffset in="SourceAlpha"/><feGaussianBlur stdDeviation="15"/><feColorMatrix values="0 0 0 0 0 0 0 0 0 0 0 0 0 0 0 0 0 0 0.3 0"/></filter></defs><g transform="translate(-198 -91)"><use filter="url(#B)" xlink:href="#A"/><use fill="#fff" xlink:href="#A"/></g></svg>