<?xml version="1.0" encoding="UTF-8"?>
<svg width="42px" height="42px" viewBox="0 0 42 42" version="1.1" xmlns="http://www.w3.org/2000/svg" xmlns:xlink="http://www.w3.org/1999/xlink">
    <title>pplus</title>
    <g id="Explorations" stroke="none" stroke-width="1" fill="none" fill-rule="evenodd">
        <path d="M22.3436967,41.2499017 C23.2932871,41.2499017 24.0624426,40.4807461 24.0624426,39.5311558 L24.0624426,24.0624426 L39.5311558,24.0624426 C40.4807461,24.0624426 41.2499017,23.2932871 41.2499017,22.3436967 L41.2499017,18.9062049 C41.2499017,17.9566146 40.4807461,17.187459 39.5311558,17.187459 L24.0624426,17.187459 L24.0624426,1.7187459 C24.0624426,0.769155576 23.2932871,0 22.3436967,0 L18.9062049,0 C17.9566146,0 17.187459,0.769155576 17.187459,1.7187459 L17.187459,17.187459 L1.7187459,17.187459 C0.769155576,17.187459 0,17.9566146 0,18.9062049 L0,22.3436967 C0,23.2932871 0.769155576,24.0624426 1.7187459,24.0624426 L17.187459,24.0624426 L17.187459,39.5311558 C17.187459,40.4807461 17.9566146,41.2499017 18.9062049,41.2499017 L22.3436967,41.2499017 Z" id="pplus" fill="#262626" fill-rule="nonzero"></path>
    </g>
</svg>