<svg xmlns="http://www.w3.org/2000/svg" width="29" height="37" xmlns:v="https://vecta.io/nano"><path d="M14.425 20.326c2.403 0 4.35 1.598 4.35 4.715 0 3.562-.435 11.316-4.35 11.316s-4.35-7.753-4.35-11.316c0-3.117 1.948-4.715 4.35-4.715zm0-20.038c7.85 0 14.238 6.472 14.238 14.427a14.47 14.47 0 0 1-7.175 12.52c.04-.795.056-1.544.056-2.193 0-.235-.013-.464-.03-.7 2.897-2.194 4.775-5.696 4.775-9.634 0-6.63-5.323-12.023-11.865-12.023S2.56 8.086 2.56 14.715c0 3.938 1.878 7.44 4.775 9.634-.016.227-.03.456-.03.7a45.29 45.29 0 0 0 .056 2.193C3.08 24.744.187 20.067.187 14.715.187 6.76 6.574.288 14.425.288zm0 5.2c5.016 0 9.096 4.135 9.096 9.218a9.25 9.25 0 0 1-2.782 6.625 6.79 6.79 0 0 0-1.431-1.957 6.83 6.83 0 0 0 1.84-4.669c0-3.757-3.016-6.813-6.723-6.813S7.7 10.96 7.7 14.715a6.83 6.83 0 0 0 1.84 4.669 6.79 6.79 0 0 0-1.431 1.957 9.25 9.25 0 0 1-2.782-6.625c0-5.082 4.08-9.218 9.096-9.218zm0 6c1.747 0 3.164 1.435 3.164 3.206S16.172 17.9 14.425 17.9s-3.164-1.435-3.164-3.206 1.417-3.206 3.164-3.206z" fill="#71bcc1"/></svg>