<?xml version="1.0" encoding="UTF-8"?>
<svg width="12px" height="13px" viewBox="0 0 12 13" version="1.1" xmlns="http://www.w3.org/2000/svg" xmlns:xlink="http://www.w3.org/1999/xlink">
    <title>Popular</title>
    <g id="Page-1" stroke="none" stroke-width="1" fill="none" fill-rule="evenodd">
        <g id="ICONS---Form,-Web" transform="translate(-827.000000, -741.000000)" fill="#A86C66" fill-rule="nonzero">
            <g id="Group-16" transform="translate(799.000000, 741.000000)">
                <path d="M33.9999875,12.4999964 C36.8994328,12.4999964 39.249975,10.0824149 39.249975,7.10000014 C39.249975,5.85149848 38.0316856,3.27642375 36.3334093,1.70002675 C35.8459151,2.15236484 35.4057764,2.6279115 35.0157626,3.10556387 C34.3768634,2.22549242 33.5846824,1.33276383 32.6874906,0.500025034 C30.3845328,2.63681498 28.75,5.42094989 28.75,7.10000014 C28.75,10.0824149 31.1005422,12.4999964 33.9999875,12.4999964 Z M34.0670268,10.2500018 C32.3760061,10.2500018 30.9999946,9.13109271 30.9999946,7.31446191 C30.9999946,6.40953395 31.5697488,5.61220309 32.7060071,4.25001609 C32.8684213,4.43705788 35.0223315,7.18766168 35.0223315,7.18766168 L36.3964661,5.62016816 C36.4934889,5.7807055 36.58186,5.93774095 36.6605952,6.08820751 C37.301623,7.31141779 37.031154,8.87657672 35.8770887,9.68397836 C35.36943,10.0392937 34.7434168,10.2500018 34.0670268,10.2500018 Z" id="Popular"></path>
            </g>
        </g>
    </g>
</svg>