<?xml version="1.0" encoding="UTF-8"?>
<svg width="28px" height="23px" viewBox="0 0 28 23" version="1.1" xmlns="http://www.w3.org/2000/svg" xmlns:xlink="http://www.w3.org/1999/xlink">
    <!-- Generator: Sketch 63.1 (92452) - https://sketch.com -->
    <title>Group 2 Copy</title>
    <desc>Created with Sketch.</desc>
    <defs>
        <rect id="path-1" x="0" y="0" width="24" height="24"></rect>
    </defs>
    <g id="Page-1" stroke="none" stroke-width="1" fill="none" fill-rule="evenodd">
        <g id="Artboard-Copy" transform="translate(-305.000000, -511.000000)">
            <g id="Group-2-Copy" transform="translate(305.000000, 511.000000)">
                <circle id="Oval-Copy-18" fill="#C2F4EA" cx="11.5" cy="11.5" r="11.5"></circle>
                <g id="Group-5" transform="translate(8.000000, 0.000000)">
                    <mask id="mask-2" fill="white">
                        <use xlink:href="#path-1"></use>
                    </mask>
                    <g id="Mask"></g>
                    <g mask="url(#mask-2)" fill-rule="nonzero">
                        <g transform="translate(5.200000, 4.200000)">
                            <path d="M11.9498839,15.2 L1.65394989,15.2 C0.742550587,15.1980915 0.00191873537,14.4614284 1.82076576e-13,13.5549128 L1.82076576e-13,4.04508722 C0.00191873537,3.13857164 0.742550587,2.40190845 1.65394989,2.4 L4.91196254,2.4 C5.21704146,2.4 5.46455832,2.64619055 5.46455832,2.94963471 C5.46455832,3.25307887 5.21704146,3.49926942 4.91196254,3.49926942 L1.65394989,3.49926942 C1.35270843,3.49926942 1.10711031,3.74355151 1.10519157,4.04508722 L1.10519157,13.5549128 C1.10519157,13.85454 1.3507897,14.0988221 1.65394989,14.1007306 L11.9479651,14.1007306 C12.2492066,14.1007306 12.4948047,13.8564485 12.4948047,13.5549128 L12.4948047,10.3162666 C12.4948047,10.0128224 12.7423216,9.76663188 13.0474005,9.76663188 C13.3524794,9.76663188 13.6,10.0128224 13.6,10.3162666 L13.6,13.5568212 C13.601915,14.4614284 12.8612832,15.2 11.9498839,15.2 Z" id="Path" fill="#262626"></path>
                            <path d="M14.2415487,2.2736 L12.1351199,0.158666667 C12.0325946,0.0578666667 11.8965156,-1.0125234e-13 11.7529802,-1.0125234e-13 C11.6113089,-1.0125234e-13 11.4733657,0.0578666667 11.3727045,0.158666667 L4.20898259,7.33413333 C4.14373922,7.39946667 4.09713682,7.47786667 4.07290356,7.5656 L3.22101157,10.5130667 C3.16695278,10.6997333 3.21914747,10.9013333 3.3552265,11.0394667 C3.4577518,11.144 3.59569492,11.2 3.73923033,11.2 C3.78583274,11.2 3.83429924,11.1925333 3.88090165,11.1794667 L6.850407,10.3618667 C6.93988362,10.3376 7.02190386,10.2890667 7.08714723,10.2218667 L14.2452769,3.03146667 C14.4521916,2.82426667 14.4521916,2.48453333 14.2415487,2.2736 Z M4.52028667,9.8896 L4.9042905,8.55866667 L5.87175646,9.51626667 L4.52028667,9.8896 Z M6.70500749,9.08506667 L5.33676083,7.72613333 L10.4332,2.62266667 L11.7921262,3.9704 L6.70500749,9.08506667 Z M12.4240548,3.33573333 L11.0669928,1.988 L11.7529802,1.30106667 L13.1025859,2.6544 L12.4240548,3.33573333 Z" id="Shape" fill="#000000"></path>
                        </g>
                    </g>
                </g>
            </g>
        </g>
    </g>
</svg>