<svg width="40" height="32" viewBox="0 0 40 32" fill="none" xmlns="http://www.w3.org/2000/svg">
<g id="Group 64">
<circle id="Oval Copy 18" opacity="0.5" cx="16" cy="16" r="16" fill="#D6CFF0"/>
<path id="&#239;&#128;&#172;" d="M39.3438 13.7812C39.7656 13.3594 40 12.8438 40 12.1875C40 11.5781 39.7656 11.0625 39.3438 10.5938L29.4062 0.65625C28.9375 0.234375 28.4219 0 27.8125 0H25.5156L37.75 12.1875L26.5938 23.3438C27.0156 23.8125 27.5312 24 28.1875 24C28.7969 24 29.3125 23.8125 29.7812 23.3438L39.3438 13.7812ZM33.3438 13.7812C33.7656 13.3594 34 12.8438 34 12.1875C34 11.5781 33.7656 11.0625 33.3438 10.5938L23.4062 0.65625C22.9375 0.234375 22.4219 0 21.8125 0H12.25C11.5938 0 11.0781 0.234375 10.6562 0.65625C10.1875 1.125 10 1.64062 10 2.25V11.8125C10 12.4688 10.1875 12.9844 10.6562 13.4062L20.5938 23.3438C21.0156 23.8125 21.5312 24 22.1875 24C22.7969 24 23.3125 23.8125 23.7812 23.3438L33.3438 13.7812ZM31.75 12.1875L22.1875 21.75L12.25 11.8125V2.25H21.8125L31.75 12.1875ZM16.75 4.5C17.3594 4.5 17.875 4.73438 18.3438 5.15625C18.7656 5.625 19 6.14062 19 6.75C19 7.40625 18.7656 7.92188 18.3438 8.34375C17.875 8.8125 17.3594 9 16.75 9C16.0938 9 15.5781 8.8125 15.1562 8.34375C14.6875 7.92188 14.5 7.40625 14.5 6.75C14.5 6.14062 14.6875 5.625 15.1562 5.15625C15.5781 4.73438 16.0938 4.5 16.75 4.5Z" fill="black"/>
</g>
</svg>
