<?xml version="1.0" encoding="UTF-8"?>
<svg width="51px" height="41px" viewBox="0 0 51 41" version="1.1" xmlns="http://www.w3.org/2000/svg" xmlns:xlink="http://www.w3.org/1999/xlink">
    <title>Group 2</title>
    <g id="Explorations" stroke="none" stroke-width="1" fill="none" fill-rule="evenodd">
        <g id="Pricing--Web-2-" transform="translate(-218.000000, -1009.000000)">
            <g id="Group-21" transform="translate(177.000000, 985.000000)">
                <g id="Group-9-Copy-2" transform="translate(41.000000, 20.000000)">
                    <g id="Group-2" transform="translate(0.000000, 4.000000)">
                        <circle id="Oval" fill-opacity="0.4" fill="#FFFFFF" cx="20.5" cy="20.5" r="20.5"></circle>
                        <path d="M45.2499329,38.4999893 C47.1132098,38.4999893 48.6249249,36.9882741 48.6249249,35.1249973 L48.6249249,10.3750563 C48.6249249,8.51177952 47.1132098,7.00006437 45.2499329,7.00006437 L41.874941,7.00006437 L41.874941,3.34382309 C41.874941,2.87978916 41.4952269,2.5000751 41.031193,2.5000751 L40.4686943,2.5000751 C40.0046604,2.5000751 39.6249464,2.87978916 39.6249464,3.34382309 L39.6249464,7.00006437 L26.1249785,7.00006437 L26.1249785,3.34382309 C26.1249785,2.87978916 25.7452645,2.5000751 25.2812306,2.5000751 L24.7187319,2.5000751 C24.254698,2.5000751 23.8749839,2.87978916 23.8749839,3.34382309 L23.8749839,7.00006437 L20.499992,7.00006437 C18.6367151,7.00006437 17.125,8.51177952 17.125,10.3750563 L17.125,35.1249973 C17.125,36.9882741 18.6367151,38.4999893 20.499992,38.4999893 L45.2499329,38.4999893 Z M46.3749303,13.7500483 L19.3749946,13.7500483 L19.3749946,10.3750563 C19.3749946,9.75632153 19.8812572,9.25005901 20.499992,9.25005901 L45.2499329,9.25005901 C45.8686677,9.25005901 46.3749303,9.75632153 46.3749303,10.3750563 L46.3749303,13.7500483 Z M45.2499329,36.2499946 L20.499992,36.2499946 C19.8812572,36.2499946 19.3749946,35.7437321 19.3749946,35.1249973 L19.3749946,16.0000429 L46.3749303,16.0000429 L46.3749303,35.1249973 C46.3749303,35.7437321 45.8686677,36.2499946 45.2499329,36.2499946 Z M27.5312252,25.0000215 C27.9952591,25.0000215 28.3749732,24.6203074 28.3749732,24.1562735 L28.3749732,21.3437802 C28.3749732,20.8797462 27.9952591,20.5000322 27.5312252,20.5000322 L24.7187319,20.5000322 C24.254698,20.5000322 23.8749839,20.8797462 23.8749839,21.3437802 L23.8749839,24.1562735 C23.8749839,24.6203074 24.254698,25.0000215 24.7187319,25.0000215 L27.5312252,25.0000215 Z M34.2812091,25.0000215 C34.745243,25.0000215 35.1249571,24.6203074 35.1249571,24.1562735 L35.1249571,21.3437802 C35.1249571,20.8797462 34.745243,20.5000322 34.2812091,20.5000322 L31.4687158,20.5000322 C31.0046819,20.5000322 30.6249678,20.8797462 30.6249678,21.3437802 L30.6249678,24.1562735 C30.6249678,24.6203074 31.0046819,25.0000215 31.4687158,25.0000215 L34.2812091,25.0000215 Z M41.031193,25.0000215 C41.4952269,25.0000215 41.874941,24.6203074 41.874941,24.1562735 L41.874941,21.3437802 C41.874941,20.8797462 41.4952269,20.5000322 41.031193,20.5000322 L38.2186997,20.5000322 C37.7546658,20.5000322 37.3749517,20.8797462 37.3749517,21.3437802 L37.3749517,24.1562735 C37.3749517,24.6203074 37.7546658,25.0000215 38.2186997,25.0000215 L41.031193,25.0000215 Z M34.2812091,31.7500054 C34.745243,31.7500054 35.1249571,31.3702913 35.1249571,30.9062574 L35.1249571,28.0937641 C35.1249571,27.6297302 34.745243,27.2500161 34.2812091,27.2500161 L31.4687158,27.2500161 C31.0046819,27.2500161 30.6249678,27.6297302 30.6249678,28.0937641 L30.6249678,30.9062574 C30.6249678,31.3702913 31.0046819,31.7500054 31.4687158,31.7500054 L34.2812091,31.7500054 Z M27.5312252,31.7500054 C27.9952591,31.7500054 28.3749732,31.3702913 28.3749732,30.9062574 L28.3749732,28.0937641 C28.3749732,27.6297302 27.9952591,27.2500161 27.5312252,27.2500161 L24.7187319,27.2500161 C24.254698,27.2500161 23.8749839,27.6297302 23.8749839,28.0937641 L23.8749839,30.9062574 C23.8749839,31.3702913 24.254698,31.7500054 24.7187319,31.7500054 L27.5312252,31.7500054 Z M41.031193,31.7500054 C41.4952269,31.7500054 41.874941,31.3702913 41.874941,30.9062574 L41.874941,28.0937641 C41.874941,27.6297302 41.4952269,27.2500161 41.031193,27.2500161 L38.2186997,27.2500161 C37.7546658,27.2500161 37.3749517,27.6297302 37.3749517,28.0937641 L37.3749517,30.9062574 C37.3749517,31.3702913 37.7546658,31.7500054 38.2186997,31.7500054 L41.031193,31.7500054 Z" id="ccalendar-alt" fill="#00084D" fill-rule="nonzero"></path>
                    </g>
                </g>
            </g>
        </g>
    </g>
</svg>