<?xml version="1.0" encoding="UTF-8"?>
<svg width="88px" height="72px" viewBox="0 0 88 72" version="1.1" xmlns="http://www.w3.org/2000/svg" xmlns:xlink="http://www.w3.org/1999/xlink">
    <title>Group 32</title>
    <g id="SES" stroke="none" stroke-width="1" fill="none" fill-rule="evenodd">
        <g transform="translate(-768.000000, -6284.000000)" id="Group-16">
            <g transform="translate(768.000000, 6277.000000)">
                <g id="Group-32" transform="translate(0.000000, 7.000000)">
                    <circle id="Oval" fill-opacity="0.4" fill="#CB9B27" fill-rule="nonzero" cx="36" cy="36" r="36"></circle>
                    <g id="Group-75" transform="translate(30.000000, 7.000000)">
                        <rect id="Rectangle" x="0" y="0" width="57.6" height="57.6"></rect>
                        <g id="Group-26" transform="translate(6.000000, 3.000000)" fill="#000000" fill-rule="nonzero">
                            <g id="Group">
                                <path d="M23.2617013,47.7193798 L2.31660545,47.7193798 C1.99060604,47.7193798 1.72489418,47.4582944 1.72489418,47.1379712 L1.72489418,2.22690439 C1.72489418,1.9065812 1.99004782,1.64549585 2.31660545,1.64549585 L25.7729335,1.64549585 L25.7729335,8.26203469 C25.7729335,8.71674004 26.1474979,9.08478261 26.6102607,9.08478261 L34.7490818,9.08478261 L34.7490818,21.9728546 C34.7490818,22.42756 35.1236462,22.7956026 35.5864091,22.7956026 C36.049172,22.7956026 36.4237364,22.42756 36.4237364,21.9728546 L36.4237364,8.28068364 C36.4237364,8.27410166 36.425411,8.26861667 36.425411,8.26203469 C36.425411,8.25051621 36.4226199,8.23954624 36.4220617,8.22802777 C36.4209453,8.19950584 36.417596,8.17208091 36.4136884,8.14355898 C36.4097809,8.11723105 36.4058734,8.09145162 36.3991748,8.06567218 C36.3930344,8.04044124 36.3846611,8.01575881 36.3757296,7.99107637 C36.3662399,7.96529693 36.3573084,7.9395175 36.3455858,7.91483506 C36.3349797,7.89179812 36.3215824,7.87040667 36.3087434,7.84791823 C36.2942297,7.82378429 36.2797161,7.79965035 36.2624113,7.77716191 C36.2478976,7.75741596 36.2317093,7.7393155 36.2149628,7.72066655 C36.202682,7.70695408 36.192634,7.69159612 36.179795,7.67898065 C36.1703053,7.66965618 36.1591409,7.6625257 36.149093,7.65374972 C36.1418362,7.64716773 36.136254,7.63894026 36.1284389,7.63290677 L27.1500577,0.194168511 C27.1394516,0.185392533 27.127729,0.179907547 27.1171228,0.171680067 C27.0925612,0.153031114 27.0674414,0.136027657 27.0412052,0.120669696 C27.0188764,0.107505729 26.9959895,0.0954387596 26.9725443,0.0839202886 C26.9479827,0.0724018176 26.9234211,0.0619803439 26.8977431,0.0526558673 C26.8703904,0.0427828922 26.8430377,0.0345554129 26.8151268,0.0274249309 C26.7916816,0.0213914461 26.7676783,0.0164549585 26.7431167,0.0126154682 C26.7112982,0.00767898065 26.680038,0.00493648756 26.6482196,0.00329099171 C26.6359388,0.00329099171 26.623658,0 26.6102607,0 L2.31660545,0 C1.06675495,0 0.0502396364,0.998815984 0.0502396364,2.22690439 L0.0502396364,47.1379712 C0.0502396364,48.3660597 1.06675495,49.3648756 2.31660545,49.3648756 L23.2617013,49.3648756 C23.7244642,49.3648756 24.0990286,48.9968331 24.0990286,48.5421277 C24.0990286,48.0874224 23.7244642,47.7193798 23.2617013,47.7193798 Z" id="Path" stroke="#050505" stroke-width="1.15584"></path>
                                <path d="M29.5409062,13.2188167 L6.93306982,13.2188167 C6.47030695,13.2188167 6.09574255,13.5868593 6.09574255,14.0415646 C6.09574255,14.49627 6.47030695,14.8643126 6.93306982,14.8643126 L29.5409062,14.8643126 C30.0036691,14.8643126 30.3782335,14.49627 30.3782335,14.0415646 C30.3782335,13.5868593 30.0036691,13.2188167 29.5409062,13.2188167 Z" id="Path" stroke="#000000" stroke-width="0.602"></path>
                                <path d="M30.3782335,20.4041486 C30.3782335,19.9494432 30.0036691,19.5814007 29.5409062,19.5814007 L6.93306982,19.5814007 C6.47030695,19.5814007 6.09574255,19.9494432 6.09574255,20.4041486 C6.09574255,20.858854 6.47030695,21.2268965 6.93306982,21.2268965 L29.5409062,21.2268965 C30.0036691,21.2268965 30.3782335,20.858854 30.3782335,20.4041486 Z" id="Path" stroke="#000000" stroke-width="0.602"></path>
                                <path d="M25.434095,26.7667326 C25.434095,26.3120272 25.0595306,25.9439846 24.5967677,25.9439846 L6.93306982,25.9439846 C6.47030695,25.9439846 6.09574255,26.3120272 6.09574255,26.7667326 C6.09574255,27.2214379 6.47030695,27.5894805 6.93306982,27.5894805 L24.5967677,27.5894805 C25.0595306,27.5894805 25.434095,27.2208894 25.434095,26.7667326 Z" id="Path" stroke="#000000" stroke-width="0.602"></path>
                                <path d="M21.3060716,32.3065686 L6.93306982,32.3065686 C6.47030695,32.3065686 6.09574255,32.6746112 6.09574255,33.1293165 C6.09574255,33.5840219 6.47030695,33.9520645 6.93306982,33.9520645 L21.3060716,33.9520645 C21.7688344,33.9520645 22.1433988,33.5840219 22.1433988,33.1293165 C22.1433988,32.6746112 21.7688344,32.3065686 21.3060716,32.3065686 Z" id="Path" stroke="#000000" stroke-width="0.602"></path>
                                <path d="M21.1676335,38.6691526 L6.93306982,38.6691526 C6.47030695,38.6691526 6.09574255,39.0371952 6.09574255,39.4919005 C6.09574255,39.9466059 6.47030695,40.3146484 6.93306982,40.3146484 L21.1676335,40.3146484 C21.6303963,40.3146484 22.0049607,39.9466059 22.0049607,39.4919005 C22.0049607,39.0371952 21.6303963,38.6691526 21.1676335,38.6691526 Z" id="Path" stroke="#000000" stroke-width="0.602"></path>
                                <path d="M6.93306982,8.50172858 L22.4956345,8.50172858 C22.9583974,8.50172858 23.3329618,8.13368601 23.3329618,7.67898065 C23.3329618,7.2242753 22.9583974,6.85623273 22.4956345,6.85623273 L6.93306982,6.85623273 C6.47030695,6.85623273 6.09574255,7.2242753 6.09574255,7.67898065 C6.09574255,8.13368601 6.47030695,8.50172858 6.93306982,8.50172858 Z" id="Path" stroke="#000000" stroke-width="0.602"></path>
                            </g>
                            <g id="award-light" transform="translate(26.000000, 25.000000)">
                                <path d="M10,5.05995379 C7.24326509,5.05995379 5.00006515,7.33121396 5.00006515,10.1224329 C5.00006515,12.9136519 7.24326509,15.184912 10,15.184912 C12.7567349,15.184912 14.9999349,12.9136519 14.9999349,10.1224329 C14.9999349,7.33121396 12.7572557,5.05995379 10,5.05995379 Z M10,13.497419 C8.16200312,13.497419 6.6667101,11.9834213 6.6667101,10.1224329 C6.6667101,8.26144449 8.16200312,6.74744683 10,6.74744683 C11.8379969,6.74744683 13.3332899,8.26144449 13.3332899,10.1224329 C13.3332899,11.9834213 11.8379969,13.497419 10,13.497419 Z M19.1472766,14.3612045 C19.8795588,13.6065787 20.1675759,12.4981067 19.9009127,11.4682086 C19.5681045,10.192042 19.5681045,10.3897951 19.9009127,9.11151911 C20.1680967,8.08214836 19.8795588,6.97420371 19.1472766,6.21852323 C18.2316636,5.28407396 18.3363497,5.44385846 18.0061457,4.1835121 C17.73792,3.14834059 16.945222,2.33359785 15.9374226,2.05621619 C14.7238968,1.72293631 14.8634783,1.81469375 13.9713024,0.884463208 C13.2306871,0.124036657 12.1421596,-0.174438674 11.1312353,0.102942994 C9.90729287,0.446242359 10.0843739,0.440968944 8.86720226,0.102942994 C7.86461116,-0.177075382 6.76931293,0.124036657 6.02869758,0.886045232 C5.12766765,1.81785779 5.28860306,1.7176629 4.06413984,2.05621619 C3.05529882,2.33359785 2.26260082,3.14834059 1.99385432,4.18245741 C1.66260864,5.45018656 1.76573229,5.28301928 0.852723355,6.21905058 C0.12044123,6.97420371 -0.167575851,8.0826757 0.0996081678,9.11257379 C0.432416331,10.3871584 0.432416331,10.1894053 0.0996081678,11.4692633 C-0.167575851,12.498634 0.120962056,13.6065787 0.853244181,14.3622592 C1.76885725,15.2967084 1.66417111,15.1369239 1.99437515,16.3972703 C2.09906128,16.8001593 2.30218364,17.1545328 2.54749294,17.4719924 L0.0626294829,23.6619278 C-0.161846759,24.2193279 0.245439601,24.8241887 0.832931946,24.8241887 C0.861577406,24.8241887 0.681371421,24.8305168 3.60997909,24.7171383 L5.49797533,26.7363292 C5.66568148,26.9156253 5.88442863,27 6.10109247,27 C6.42244245,27 6.73806334,26.8138484 6.87504072,26.4747678 L9.60677596,19.6704795 C9.86178832,19.5819798 10.138617,19.5817943 10.3937449,19.6699521 L13.1249593,26.4747678 C13.2614158,26.8138484 13.5775576,27 13.8989075,27 C14.1155714,27 14.3343185,26.9156253 14.5020247,26.7363292 L16.3900209,24.7176657 C19.3186286,24.8310441 19.1384226,24.824716 19.1670681,24.824716 C19.7545604,24.824716 20.1618468,24.2198552 19.9373705,23.6624552 L17.4530279,17.4730471 C17.6983372,17.1555875 17.9014595,16.8012139 18.0061457,16.3988523 C18.3373914,15.1300685 18.2342677,15.2972358 19.1472766,14.3612045 L19.1472766,14.3612045 Z M5.81880448,24.6243262 C4.64225731,23.3660892 4.95631572,23.7020058 4.30163675,23.0016962 C3.34852417,23.0386101 3.80945566,23.0206805 2.09281136,23.0876529 L3.94434974,18.4744688 C3.98549504,18.4881796 4.02091124,18.5140194 4.06309819,18.5256209 C5.20214585,18.8346431 5.12870931,18.768198 5.70838925,19.3646213 C6.22609084,19.8993457 6.89535295,20.1856922 7.58128152,20.2347349 L5.81880448,24.6243262 L5.81880448,24.6243262 Z M17.9077095,23.0871255 C16.1936693,23.0206805 16.650955,23.0386101 15.6988841,23.0016962 C15.0447259,23.7014785 15.3582635,23.3660892 14.1817163,24.6243262 L12.4161144,20.2262975 C13.1041262,20.1783094 13.7733883,19.8988184 14.2921316,19.364094 C14.8863947,18.7518504 14.8041041,18.8267329 15.9374226,18.5250936 C15.9796096,18.513492 16.0150258,18.4876523 16.0561711,18.4744688 L17.9077095,23.0871255 L17.9077095,23.0871255 Z M16.3947083,15.9685416 C16.2775224,16.4210007 15.9342977,16.7769562 15.497845,16.8971901 C14.2676527,17.2267786 14.0192185,17.2373254 13.1036054,18.1823215 C12.6869442,18.6099956 12.0520566,18.6890968 11.5541464,18.3658364 C10.6098879,17.7625576 9.38959129,17.7620303 8.44533276,18.3668911 C7.95054754,18.6848781 7.31253502,18.6105229 6.89587378,18.1812669 C5.99067724,17.2489269 5.74380546,17.2346887 4.50163414,16.8966628 C4.0651815,16.7764289 3.7219568,16.4204733 3.60477083,15.9674869 C3.18498463,14.3522397 3.21258844,14.3754427 2.04072871,13.179432 C1.71833708,12.8466795 1.5912554,12.3557245 1.71052468,11.8974646 C2.13499831,10.2906549 2.13760245,10.2901275 1.71052468,8.68331775 C1.59177622,8.22505792 1.7188579,7.73410292 2.04072871,7.40187773 C3.20842183,6.20481235 3.18342215,6.23856221 3.60477083,4.61171346 C3.7219568,4.15925439 4.0651815,3.80329882 4.50163414,3.68411963 C6.10525908,3.24062536 6.04744733,3.2727932 7.21670293,2.06939973 C7.48753274,1.78938135 7.93648522,1.59690167 8.42918713,1.73137378 C10.0156248,2.17328602 9.98385438,2.1743407 11.5687296,1.73137378 C11.9952865,1.61166724 12.4640304,1.74139327 12.7827762,2.06729036 C13.9436986,3.27332054 13.9218239,3.25064485 15.4994075,3.68411963 C15.9337769,3.80382616 16.2775224,4.15978173 16.3947083,4.61276814 C16.8144945,6.22801538 16.7868907,6.20481235 17.9587505,7.40082304 C18.2811421,7.73357558 18.4082238,8.22453058 18.2889545,8.68279041 C17.8623976,10.2922369 17.86396,10.2932916 18.2889545,11.8969373 C18.4077029,12.3551971 18.2806213,12.8461521 17.9587505,13.1783773 C16.7915782,14.37597 16.816057,14.3416928 16.3947083,15.9685416 L16.3947083,15.9685416 Z" id="Shape"></path>
                            </g>
                        </g>
                    </g>
                </g>
            </g>
        </g>
    </g>
</svg>