<svg xmlns="http://www.w3.org/2000/svg" width="33" height="26" fill-rule="evenodd" xmlns:v="https://vecta.io/nano"><circle fill="#50caae" opacity=".5" cx="11.5" cy="14.5" r="11.5"/><path d="M20.526 19.44c-1.173 0-2.127 1.064-2.127 2.372s.954 2.372 2.127 2.372 2.127-1.064 2.127-2.372-.954-2.372-2.127-2.372zm0 3.163c-.4 0-.7-.355-.7-.8s.318-.8.7-.8.7.355.7.8-.318.8-.7.8zM19.524 5.07l1.003-1.12 1.003 1.12 1.003-1.118-1.003-1.12 1.003-1.12L21.53.597l-1.003 1.12-1.003-1.12-1.003 1.118 1.003 1.12-1.003 1.12zm-7.92 0l1.003-1.118-1.003-1.12 1.003-1.12L11.603.597 10.6 1.716 9.598.597 8.595 1.715l1.003 1.12-1.003 1.12L9.598 5.07 10.6 3.95zm18.14-2.564l-.917-1.022-1.003 1.12 1.92 2.14 2.628-2.932-1-1.12zm0 9.027h-8.508V6.788h-1.418v4.745H11.3V6.788H9.9v6.327h9.926v4.745h1.418v-4.745h9.926V6.788h-1.418z" fill-rule="nonzero"/></svg>