<svg xmlns="http://www.w3.org/2000/svg" width="31" height="24" fill-rule="evenodd" xmlns:v="https://vecta.io/nano"><circle fill="#50caae" opacity=".5" cx="12.118" cy="11.648" r="11.5"/><g fill-rule="nonzero"><path d="M19.895 10.835h-5.022c-.725-.003-1.312-.63-1.315-1.404V4.07c.003-.774.6-1.4 1.315-1.404h5.016c.725.003 1.312.63 1.315 1.404v5.356c0 .774-.584 1.404-1.3 1.4h0zM14.88 3.572c-.257 0-.465.222-.465.496v5.356c0 .274.208.496.465.496h5.016c.257 0 .465-.222.465-.496V4.07c0-.274-.208-.496-.465-.496H14.88zm14.083 7.263H23.94c-.725-.003-1.312-.63-1.315-1.404V4.07c.003-.774.6-1.4 1.315-1.404h5.016c.725.003 1.312.63 1.315 1.404v5.356c0 .774-.584 1.404-1.3 1.4zm-5.016-7.263c-.257 0-.465.222-.465.496v5.356c0 .274.208.496.465.496h5.016a.45.45 0 0 0 .329-.145c.087-.093.136-.22.136-.35V4.07c0-.274-.208-.496-.465-.496h-5.016zm5.016 16.948H23.94c-.725-.003-1.312-.63-1.315-1.404v-5.362c.003-.774.6-1.4 1.315-1.404h5.016c.725.003 1.312.63 1.315 1.404V19.1c0 .774-.584 1.404-1.3 1.4h0zm-5.016-7.263c-.257 0-.465.222-.465.496v5.356c0 .274.208.496.465.496h5.016c.257 0 .465-.222.465-.496v-5.356c0-.274-.208-.496-.465-.496h-5.016z"/><path d="M19.895 20.52c-3.498-.003-6.333-3.03-6.336-6.766.003-.774.6-1.4 1.315-1.404H19.9c.725.003 1.312.63 1.315 1.404V19.1c0 .774-.584 1.404-1.3 1.4h0zm-5.016-7.263c-.257 0-.465.222-.465.496.003 3.234 2.458 5.855 5.486 5.86a.45.45 0 0 0 .329-.145c.087-.093.136-.22.136-.35v-5.362c0-.132-.05-.258-.136-.35a.45.45 0 0 0-.329-.145h-5.02z" fill="#262626"/></g></svg>