<svg width="80" height="72" xmlns="http://www.w3.org/2000/svg"><g fill="none" fill-rule="evenodd"><circle fill="#D1C7E3" cx="36" cy="36" r="36"/><g fill="#000" fill-rule="nonzero"><path d="M79.515 37.253l-1.729-1.097v-4.989l1.345-.23a1.045 1.045 0 00.363-1.926L51.449 12.15a1.047 1.047 0 00-.717-.135l-26.862 4.62c-.288.05-.533.215-.689.447l-.004.008a1.08 1.08 0 00-.088.16l-.009.02c-.025.06-.046.124-.06.19a1.001 1.001 0 00-.018.19l-.002.02v7.89c0 .053.008.104.015.155-.07.403.102.827.47 1.06l26.88 17.062a1.07 1.07 0 00.742.148l28.024-4.818c.425-.075.763-.402.848-.826.086-.425-.1-.857-.464-1.088zm-54.42-17.685l24.768 15.719v5.751l-24.768-15.72v-5.75zm26.862 19.35l23.735-4.035v.606l-23.735 4.033v-.603zm23.736-4.458l-23.735 4.034v-.604l23.735-4.035v.605zm-23.736 5.486l23.735-4.033v.604L51.957 40.55v-.604zm23.736-6.514l-23.736 4.033v-.604l23.735-4.034v.605zm-23.736 7.544l23.735-4.034v.693l-23.735 4.08v-.739zm23.736-8.573l-23.735 4.034v-.828l23.735-4.081v.875zM50.703 14.14l25.3 15.212-24.854 4.273-24.251-15.39 23.805-4.095z"/><path d="M77.515 57.2l-1.729-1.106v-5.03l1.344-.233a1.053 1.053 0 00.362-1.94l-13.643-8.27.296 2.64 9.858 5.975-24.854 4.307-4.657-2.98-1.26.202-1.78.35 6.41 4.1v5.8L23.094 45.168v-2.929l-1.437-.88L21 40v5.411c0 .053.009.105.015.156a1.06 1.06 0 00.47 1.07l26.881 17.198a1.047 1.047 0 00.74.15l28.024-4.858a1.056 1.056 0 00.384-1.927zm-3.823.385L49.958 61.7v-.747l23.734-4.067v.7zm0-1.127l-23.734 4.066v-.609l23.734-4.066v.61zm0-1.038l-23.734 4.067v-.608l23.734-4.068v.61zm0-1.036l-23.735 4.067v-.61l23.734-4.066v.61zm0-1.036l-23.734 4.066v-.61l23.734-4.066v.61zm0-1.037l-23.734 4.065v-.834l23.734-4.113v.882z"/><path d="M67.514 46.15l-1.728-1.113V41.53l-2.095.26v.48l-23.735 4.094v-.612l21.003-3.624-8.81 1.089-12.193 2.104v-.84l11.108-1.94-2.696-1.684-9.22 1.61-24.25-15.628 9.654-1.685V23L11.87 25.214c-.287.05-.532.219-.689.454l-.004.007a1.103 1.103 0 00-.088.164l-.009.02a1.077 1.077 0 00-.06.192c-.012.065-.017.13-.018.194l-.002.02v8.011c0 .054.009.106.015.157-.07.41.103.84.47 1.076l26.88 17.324a1.044 1.044 0 00.741.152l28.024-4.893c.426-.075.764-.408.85-.84.084-.43-.1-.866-.466-1.101zm-29.65 3.844l-24.77-15.963v-5.84l24.77 15.962v5.841zm25.828-3.455l-23.735 4.144v-.752l23.735-4.097v.705zm0-1.135l-23.735 4.094v-.613l23.735-4.096v.615zm0-1.045l-23.735 4.094v-.613l23.735-4.096v.615zm0-1.044l-23.735 4.094v-.613L63.692 42.7v.615z"/></g></g></svg>