<svg width="41" height="33" xmlns="http://www.w3.org/2000/svg"><g transform="translate(0 1)" fill="none" fill-rule="evenodd"><ellipse fill="#AE9FE1" opacity=".5" cx="15.146" cy="16.485" rx="15.146" ry="15.515"/><path d="M40.505 9.19c0 2.054-.756 4.078-2.152 5.726.291.55.67 1.012 1.163 1.33.35.232.524.637.437 1.07a.954.954 0 01-.844.781 6.758 6.758 0 01-4.012-.578 12.097 12.097 0 01-5.554 1.33c-6.047 0-10.932-4.309-10.932-9.63 0-5.32 4.914-9.629 10.932-9.629 6.048-.029 10.962 4.309 10.962 9.6zm-1.454 0c0-4.51-4.245-8.183-9.478-8.183-5.234 0-9.48 3.673-9.48 8.184 0 4.51 4.246 8.183 9.48 8.183 1.86 0 3.634-.462 5.204-1.33a.805.805 0 01.727 0c.669.405 1.454.636 2.355.665-.436-.463-.756-1.012-1.018-1.677a.78.78 0 01.146-.752c1.337-1.446 2.064-3.21 2.064-5.09zM13.348 24.315a.933.933 0 00-.407 1.012.962.962 0 00.814.723c.727.087 2.036.145 3.344-.491 1.396.723 2.995 1.099 4.623 1.099 4.07 0 7.589-2.285 8.81-5.697.145-.376-.058-.78-.436-.925-.378-.145-.785.057-.93.433-.99 2.805-4.042 4.743-7.444 4.743-1.512 0-2.995-.376-4.274-1.1a.805.805 0 00-.727 0c-.523.319-1.105.464-1.6.521.292-.347.495-.751.67-1.214a.78.78 0 00-.146-.752c-1.134-1.157-1.715-2.603-1.715-4.135 0-2.198 1.25-4.25 3.373-5.523a.711.711 0 00.261-.983.72.72 0 00-.988-.26c-2.559 1.503-4.07 4.048-4.07 6.766 0 1.706.61 3.412 1.773 4.8-.262.405-.553.752-.93.983z" fill="#000" fill-rule="nonzero"/></g></svg>