<svg width="70" height="70" xmlns="http://www.w3.org/2000/svg"><defs><linearGradient x1="50%" y1="-24.658%" x2="50%" y2="78.93%" id="a"><stop stop-color="#EDE9F1" offset="0%"/><stop stop-color="#967CB8" offset="59.879%"/><stop stop-color="#592E8F" offset="100%"/></linearGradient></defs><g fill="none" fill-rule="evenodd"><circle fill="#FFF" cx="35" cy="35" r="32"/><path d="M35 0c19.33 0 35 15.67 35 35S54.33 70 35 70 0 54.33 0 35 15.67 0 35 0zm0 3C17.327 3 3 17.327 3 35c0 17.673 14.327 32 32 32 17.673 0 32-14.327 32-32C67 17.327 52.673 3 35 3z" fill="url(#a)" opacity=".73"/><g fill="#B6ABDA" fill-rule="nonzero"><path d="M56.105 21.326c-.693 0-1.34.047-2.033.047v-2.357c0-.554-.462-1.016-1.017-1.016-6.19 0-12.243 1.201-17.925 3.604C29.447 19.2 23.44 18 17.25 18c-.554 0-1.016.462-1.016 1.016v2.357c-.647-.047-1.34-.047-2.033-.047-.554 0-1.016.462-1.016 1.017v25.456c0 .554.462 1.016 1.016 1.016 7.069 0 13.999 1.433 20.56 4.205.138.046.276.092.415.092.139 0 .277 0 .416-.092 6.514-2.772 13.444-4.205 20.513-4.205A.996.996 0 0057.12 47.8V22.343c0-.555-.462-1.017-1.016-1.017zm-3.974 23.47c-5.497.092-10.81 1.201-15.939 3.234V23.36c5.082-2.08 10.442-3.235 15.94-3.373v24.809zm-33.91-24.763c5.497.138 10.857 1.247 15.939 3.372V48.03c-5.129-1.987-10.442-3.095-15.94-3.234V20.033z"/><path d="M22.009 26.362a44.27 44.27 0 018.039 1.617.586.586 0 00.277.046c.416 0 .832-.277.97-.693a1.032 1.032 0 00-.693-1.247c-2.726-.832-5.59-1.386-8.362-1.71-.554-.046-1.063.324-1.109.878a.965.965 0 00.878 1.11zM30.602 30.89c-2.726-.832-5.544-1.386-8.408-1.71-.555-.046-1.063.324-1.109.878-.046.555.323 1.063.878 1.109 2.726.277 5.405.832 8.039 1.617a.586.586 0 00.277.046c.416 0 .831-.277.97-.693.185-.508-.139-1.062-.647-1.247zM30.602 35.74c-2.726-.83-5.544-1.385-8.408-1.709-.555-.046-1.063.324-1.109.878-.046.555.323 1.063.878 1.109 2.726.277 5.405.832 8.039 1.617a.586.586 0 00.277.046c.416 0 .831-.277.97-.693a.967.967 0 00-.647-1.247zM30.602 40.546c-2.726-.832-5.544-1.386-8.408-1.71-.555-.046-1.063.324-1.109.878-.046.554.323 1.063.878 1.109 2.726.277 5.405.831 8.039 1.617a.586.586 0 00.277.046c.416 0 .831-.277.97-.693.185-.508-.139-1.063-.647-1.247zM39.103 27.332a.999.999 0 00.97.693c.093 0 .185 0 .277-.046a43.494 43.494 0 018.04-1.617c.554-.046.923-.554.877-1.109-.046-.554-.554-.924-1.109-.877-2.818.323-5.636.877-8.362 1.709a.96.96 0 00-.693 1.247zM48.158 29.227a48.478 48.478 0 00-8.408 1.709c-.508.139-.832.693-.693 1.247a.999.999 0 00.97.693c.092 0 .185 0 .277-.046a43.494 43.494 0 018.039-1.617c.554-.046.924-.554.878-1.109-.046-.554-.508-.97-1.063-.877zM48.158 34.031a48.478 48.478 0 00-8.408 1.71c-.508.138-.832.693-.693 1.247a.999.999 0 00.97.693c.092 0 .185 0 .277-.046a43.494 43.494 0 018.039-1.617c.554-.046.924-.554.878-1.109a.984.984 0 00-1.063-.878zM48.158 38.882a48.478 48.478 0 00-8.408 1.71c-.508.138-.832.693-.693 1.247a.999.999 0 00.97.693c.092 0 .185 0 .277-.046a43.494 43.494 0 018.039-1.617c.554-.046.924-.554.878-1.109-.046-.554-.508-.924-1.063-.878z"/></g></g></svg>