<svg xmlns="http://www.w3.org/2000/svg" width="33" height="29" fill-rule="evenodd" xmlns:v="https://vecta.io/nano"><circle fill="#a9b9ed" opacity=".5" cx="11.5" cy="17.5" r="11.5"/><g fill-rule="nonzero" stroke-width=".3"><path d="M30.36 1.12a2.45 2.45 0 0 0-2.44 2.44c0 .56.2 1.08.52 1.48l-3.92 4.6a.55.55 0 0 0 .04.72c.08.08.2.12.32.12.16 0 .28-.04.4-.16l3.92-4.6a2.41 2.41 0 0 0 1.16.32A2.45 2.45 0 0 0 32.8 3.6c0-1.32-1.08-2.48-2.44-2.48zm0 3.88c-.8 0-1.44-.64-1.44-1.44s.64-1.44 1.44-1.44 1.44.64 1.44 1.44c.04.8-.64 1.44-1.44 1.44zm-16.2 5.08c.08.12.24.16.36.16s.24-.04.32-.12a.55.55 0 0 0 .04-.72l-1.24-1.36c.28-.4.44-.88.44-1.44a2.45 2.45 0 0 0-2.44-2.44c-1.32 0-2.48 1.12-2.48 2.44a2.48 2.48 0 0 0 2.44 2.44 2.38 2.38 0 0 0 1.28-.36l1.28 1.4zm-4-3.48c0-.8.64-1.44 1.44-1.44s1.44.64 1.44 1.44c0 .4-.16.72-.4 1-.04 0-.08.04-.08.04l-.08.08c-.24.2-.56.32-.92.32-.72.04-1.4-.64-1.4-1.44z" stroke="#040404"/><path d="M22.76 13.24a.55.55 0 0 0-.04-.72.55.55 0 0 0-.72.04l-.84.96c-.4-.32-.92-.48-1.48-.48-.4 0-.8.12-1.12.28l-1.04-1.12a.55.55 0 0 0-.72-.04.55.55 0 0 0-.04.72l1 1.08c-.36.44-.56.96-.56 1.52a2.45 2.45 0 0 0 2.44 2.44 2.48 2.48 0 0 0 2.44-2.44c0-.44-.12-.84-.32-1.2l1-1.04zM19.68 17c-.8 0-1.44-.64-1.44-1.44s.64-1.44 1.44-1.44 1.44.64 1.44 1.44c0 .76-.64 1.44-1.44 1.44z" stroke="#111010"/><path d="M24.88 21.44l-1.04-1.52c.92-.88 1.52-2.04 1.76-3.28.64-3.32-1.52-6.56-4.84-7.24h-.08c-1.64-.32-3.28.04-4.64.96s-2.32 2.36-2.6 3.96c-.64 3.32 1.52 6.56 4.84 7.24h.08c.92.16 1.92.16 2.84-.12l1.76 3.44c.2.4.52.64.96.76.04 0 .08 0 .08.04.08 0 .16.04.28.04.24 0 .48-.08.72-.2.16-.08.32-.2.48-.28l.04-.04a1.72 1.72 0 0 0 .72-.96c.08-.4 0-.8-.24-1.16-.4-.52-.76-1.08-1.12-1.64zm.36 2.6a.62.62 0 0 1-.24.32l-.04.04-.44.24c-.08.04-.16.08-.32.04s-.28-.12-.32-.28l-2.16-4.16-.72.2c-.8.24-1.64.28-2.44.12h-.08c-2.76-.6-4.6-3.32-4.04-6.08.28-1.36 1.04-2.56 2.2-3.32 1.16-.8 2.56-1.08 3.88-.8h.08c2.76.56 4.6 3.32 4.04 6.08a5.03 5.03 0 0 1-1.56 2.8l-.56.52L24.04 22l1.08 1.64c.12.12.12.28.12.4z" stroke="#0f0f0f"/></g></svg>