<svg xmlns="http://www.w3.org/2000/svg" width="30" height="26" xmlns:v="https://vecta.io/nano"><path d="M20.44 8.343c4.77 0 8.648 3.664 8.648 8.167 0 1.968-.742 3.846-2.098 5.332l-.22.23.343.685a1.98 1.98 0 0 1-.169 2.059l-.107.134-.025.03c-.377.418-.916.658-1.48.658a2.05 2.05 0 0 1-.53-.07l-.17-.055-2.6-.975a9.2 9.2 0 0 1-1.595.139c-4.17 0-7.658-2.8-8.47-6.513.405-.1.8-.22 1.184-.363 6.305-2.646 6.95-8.22 6.783-8.208a9.86 9.86 0 0 0 .093-1.24 9.33 9.33 0 0 1 .41-.01zm4.124 6.5a1.52 1.52 0 1 0 0 3.041 1.52 1.52 0 1 0 0-3.041zm-4.124 0a1.52 1.52 0 1 0 0 3.041 1.52 1.52 0 1 0 0-3.041zm-3.224.302a10.7 10.7 0 0 1-2.299 1.814c.232.543.772.925 1.4.925a1.52 1.52 0 0 0 1.52-1.52c0-.5-.246-.942-.62-1.218zM9.322.15c4.727 0 8.573 3.632 8.574 8.097s-3.846 8.097-8.574 8.097a9.13 9.13 0 0 1-1.581-.138h0l-2.577.967c-.222.084-.456.126-.694.126a1.98 1.98 0 0 1-1.466-.652h0l-.025-.03c-.524-.605-.632-1.46-.273-2.175h0l.34-.68C1.564 12.255.75 10.3.75 8.246.75 3.78 4.595.15 9.322.15zm-.095 10.877c-.705.001-1.152.434-1.15 1.114.001.672.48 1.164 1.132 1.162.683-.003 1.174-.5 1.17-1.16-.003-.682-.452-1.118-1.15-1.117zm-.16-7.955c-.23.026-.496.04-.756.1-.6.116-1.154.375-1.602.8a1.11 1.11 0 0 0-.059 1.532c.318.36.8.36 1.3-.003l.104-.075c.375-.284.805-.396 1.264-.35.38.038.703.2.84.592.13.378-.052.663-.318.904-.133.12-.287.22-.432.328-.873.65-1.252 1.668-.984 2.646.128.465.345.7.63.7.28 0 .5-.22.616-.682.13-.48.376-.883.756-1.196.304-.25.636-.466.942-.713.957-.774 1.2-1.97.582-3.038C11.315 3.53 10.3 3.14 9.067 3.07z" fill="#5ac0aa"/></svg>