<?xml version="1.0" encoding="UTF-8"?>
<svg width="34px" height="34px" viewBox="0 0 34 34" version="1.1" xmlns="http://www.w3.org/2000/svg" xmlns:xlink="http://www.w3.org/1999/xlink">
    <title>0E16E7DE-31C0-4349-A65B-79FFD279054D</title>
    <g id="Page-1" stroke="none" stroke-width="1" fill="none" fill-rule="evenodd">
        <g id="China-homepage-TOP-NAV-hover-state" transform="translate(-861.000000, -14.000000)" fill="#000000" fill-rule="nonzero">
            <g id="Group-15" transform="translate(60.000000, 9.000000)">
                <g id="qr-code" transform="translate(801.000000, 5.000000)">
                    <path d="M0.412533333,0.412533333 L0.412533333,12.6647733 L13.4073333,12.6647733 L13.4073333,5.31342933 L16.0062933,5.31342933 L16.0062933,2.86298133 L13.4073333,2.86298133 L13.4073333,0.412533333 L0.412533333,0.412533333 Z M10.8083733,10.2143253 L3.01149333,10.2143253 L3.01149333,2.86298133 L10.8083733,2.86298133 L10.8083733,10.2143253 Z" id="Shape"></path>
                    <path d="M33.8277333,33.8277333 L33.8277333,20.8329333 L28.6298133,20.8329333 L28.6298133,18.2339733 L26.0308533,18.2339733 L26.0308533,20.8329333 L18.2339733,20.8329333 L18.2339733,23.4318933 L20.8329333,23.4318933 L20.8329333,26.0308533 L18.2339733,26.0308533 L18.2339733,28.6298133 L20.8329333,28.6298133 L20.8329333,33.8277333 L33.8277333,33.8277333 Z M23.4318933,23.4318933 L31.2287733,23.4318933 L31.2287733,31.2287733 L23.4318933,31.2287733 L23.4318933,23.4318933 Z" id="Shape"></path>
                    <polygon id="Path" points="8.05029333 18.5522133 13.1421333 18.5522133 13.1421333 16.0062933 0.412533333 16.0062933 0.412533333 18.5522133 5.50437333 18.5522133 5.50437333 21.0981333 2.95845333 21.0981333 2.95845333 23.6440533 5.50437333 23.6440533 5.50437333 28.7358933 2.95845333 28.7358933 2.95845333 31.2818133 5.50437333 31.2818133 5.50437333 33.8277333 18.2339733 33.8277333 18.2339733 31.2818133 15.6880533 31.2818133 15.6880533 28.7358933 13.1421333 28.7358933 13.1421333 31.2818133 8.05029333 31.2818133 8.05029333 28.7358933 10.5962133 28.7358933 10.5962133 26.1899733 8.05029333 26.1899733"></polygon>
                    <polygon id="Path" points="5.98173333 4.86789333 8.20941333 4.86789333 8.20941333 7.09557333 5.98173333 7.09557333"></polygon>
                    <polygon id="Path" points="26.0308533 4.86789333 28.2585333 4.86789333 28.2585333 7.09557333 26.0308533 7.09557333"></polygon>
                    <path d="M28.9268373,13.4073333 L33.8277333,13.4073333 L33.8277333,0.412533333 L21.5754933,0.412533333 L21.5754933,13.4073333 L26.4763893,13.4073333 L26.4763893,16.0062933 L28.9268373,16.0062933 L28.9268373,13.4073333 Z M24.0259413,10.8083733 L24.0259413,3.01149333 L31.3772853,3.01149333 L31.3772853,10.8083733 L24.0259413,10.8083733 Z" id="Shape"></path>
                    <path d="M33.8277333,18.2339733 L33.8277333,16.0062933 C33.1540632,16.0062933 28.936917,16.0062933 28.2585333,16.0062933 L28.2585333,18.2339733 L33.8277333,18.2339733 Z" id="Path"></path>
                    <polygon id="Path" points="26.0308533 26.0308533 28.2585333 26.0308533 28.2585333 28.2585333 26.0308533 28.2585333"></polygon>
                    <polygon id="Path" points="16.0062933 23.8031733 18.2339733 23.8031733 18.2339733 26.0308533 16.0062933 26.0308533"></polygon>
                    <path d="M10.4370933,26.0308533 L12.6647733,26.0308533 C12.6647733,25.3571832 12.6647733,21.140037 12.6647733,20.4616533 L10.4370933,20.4616533 L10.4370933,26.0308533 Z" id="Path"></path>
                    <polygon id="Path" points="13.7786133 18.2339733 16.0062933 18.2339733 16.0062933 20.4616533 13.7786133 20.4616533"></polygon>
                    <path d="M2.64021333,22.6893333 L0.412533333,22.6893333 L0.412533333,28.2585333 L2.64021333,28.2585333 C2.64021333,27.5848632 2.64021333,23.367717 2.64021333,22.6893333 Z" id="Path"></path>
                    <polygon id="Path" points="0.412533333 31.6000533 2.64021333 31.6000533 2.64021333 33.8277333 0.412533333 33.8277333"></polygon>
                    <polygon id="Path" points="16.0062933 0.412533333 18.2339733 0.412533333 18.2339733 2.64021333 16.0062933 2.64021333"></polygon>
                    <path d="M16.0062933,10.4370933 L18.2339733,10.4370933 C18.2339733,9.76342322 18.2339733,5.54627703 18.2339733,4.86789333 L16.0062933,4.86789333 L16.0062933,10.4370933 Z" id="Path"></path>
                    <polygon id="Path" points="18.5124333 15.4493733 18.5124333 12.6647733 16.0062933 12.6647733 16.0062933 18.2339733 26.0308533 18.2339733 26.0308533 15.4493733"></polygon>
                </g>
            </g>
        </g>
    </g>
</svg>