<svg width="48" height="48" viewBox="0 0 48 48" fill="none" xmlns="http://www.w3.org/2000/svg">
<path d="M27.4286 41.8856H3.93043C2.54244 41.8856 1.41296 40.7564 1.41296 39.3681V11.6271C1.41296 11.1404 1.61046 10.6641 1.95444 10.3201L9.35173 2.92347C9.69536 2.57949 10.1717 2.38165 10.658 2.38165H27.4286C28.8217 2.38165 29.9554 3.51561 29.9554 4.90877V15.3474C29.9554 15.7376 29.6393 16.0533 29.2495 16.0533C28.8597 16.0533 28.5436 15.7376 28.5436 15.3474V4.90877C28.5436 4.29388 28.0435 3.79342 27.4286 3.79342H10.658C10.5436 3.79342 10.4316 3.84029 10.3502 3.92095L2.95226 11.3189C2.87091 11.4003 2.82473 11.5119 2.82473 11.6271V39.3681C2.82473 39.9775 3.32071 40.4738 3.93043 40.4738H27.4286C28.0435 40.4738 28.5436 39.974 28.5436 39.3591V34.7302C28.5436 34.3401 28.8597 34.0243 29.2495 34.0243C29.6393 34.0243 29.9554 34.3401 29.9554 34.7302V39.3591C29.9554 40.7523 28.8217 41.8856 27.4286 41.8856Z" fill="#96ABEC"/>
<path d="M32.9823 16.691C32.5925 16.691 32.2764 16.3752 32.2764 15.9851V9.56113C32.2764 8.9359 31.7866 8.44578 31.1614 8.44578H29.2495C28.8597 8.44578 28.5436 8.13007 28.5436 7.7399C28.5436 7.34973 28.8597 7.03402 29.2495 7.03402H31.1614C32.5545 7.03402 33.6882 8.16798 33.6882 9.56113V15.9851C33.6882 16.3752 33.3721 16.691 32.9823 16.691ZM31.1614 45.6183H8.58281C7.19482 45.6183 6.06534 44.4892 6.06534 43.1009V41.1797C6.06534 40.7895 6.38141 40.4738 6.77123 40.4738H27.4286C28.0435 40.4738 28.5436 39.974 28.5436 39.3592V34.7302C28.5436 34.3401 28.8597 34.0244 29.2495 34.0244C29.6393 34.0244 29.9554 34.3401 29.9554 34.7302V39.3592C29.9554 40.7523 28.8218 41.8856 27.4286 41.8856H7.47711V43.1009C7.47711 43.7103 7.97309 44.2066 8.58281 44.2066H31.1614C31.7763 44.2066 32.2764 43.7103 32.2764 43.1009V34.0933C32.2764 33.7031 32.5925 33.3874 32.9823 33.3874C33.3721 33.3874 33.6882 33.7031 33.6882 34.0933V43.1009C33.6882 44.4892 32.5545 45.6183 31.1614 45.6183ZM9.33694 13.4276H2.1175C1.72768 13.4276 1.41162 13.1119 1.41162 12.7217V11.6312C1.41162 11.1439 1.60912 10.6675 1.95379 10.3242L9.34901 2.92901C9.69712 2.5802 10.1614 2.38788 10.6553 2.38788H11.7462C12.136 2.38788 12.4521 2.7036 12.4521 3.09376V10.3125C12.4521 12.0303 11.0548 13.4276 9.33694 13.4276ZM2.82339 12.0159H9.33694C10.2762 12.0159 11.0403 11.2521 11.0403 10.3125V3.79964H10.6553C10.5388 3.79964 10.4295 3.84514 10.3475 3.92648L2.95126 11.3231C2.86957 11.4044 2.82339 11.5168 2.82339 11.6312V12.0159V12.0159ZM15.684 37.5882H6.07465C5.68483 37.5882 5.36877 37.2725 5.36877 36.8824C5.36877 36.4922 5.68483 36.1765 6.07465 36.1765H15.684C16.0738 36.1765 16.3899 36.4922 16.3899 36.8824C16.3899 37.2725 16.0738 37.5882 15.684 37.5882ZM15.684 33.7969H6.07465C5.68483 33.7969 5.36877 33.4812 5.36877 33.091C5.36877 32.7008 5.68483 32.3851 6.07465 32.3851H15.684C16.0738 32.3851 16.3899 32.7008 16.3899 33.091C16.3899 33.4812 16.0738 33.7969 15.684 33.7969ZM15.684 30.0048H6.07465C5.68483 30.0048 5.36877 29.6891 5.36877 29.299C5.36877 28.9088 5.68483 28.5931 6.07465 28.5931H15.684C16.0738 28.5931 16.3899 28.9088 16.3899 29.299C16.3899 29.6891 16.0738 30.0048 15.684 30.0048ZM15.684 26.2128H6.07465C5.68483 26.2128 5.36877 25.8971 5.36877 25.5069C5.36877 25.1167 5.68483 24.801 6.07465 24.801H15.684C16.0738 24.801 16.3899 25.1167 16.3899 25.5069C16.3899 25.8971 16.0738 26.2128 15.684 26.2128ZM15.684 22.4207H6.07465C5.68483 22.4207 5.36877 22.105 5.36877 21.7149C5.36877 21.3247 5.68483 21.009 6.07465 21.009H15.684C16.0738 21.009 16.3899 21.3247 16.3899 21.7149C16.3899 22.105 16.0738 22.4207 15.684 22.4207ZM15.684 18.6287H6.07465C5.68483 18.6287 5.36877 18.313 5.36877 17.9228C5.36877 17.5326 5.68483 17.2169 6.07465 17.2169H15.684C16.0738 17.2169 16.3899 17.5326 16.3899 17.9228C16.3899 18.313 16.0738 18.6287 15.684 18.6287Z" fill="#96ABEC"/>
<path d="M28.8779 35.4423C26.0968 35.4423 23.4832 34.3601 21.5186 32.3947C19.554 30.4308 18.4734 27.8182 18.4758 25.0388C18.4779 22.2615 19.5615 19.6496 21.5265 17.6843C25.5795 13.631 32.1754 13.631 36.229 17.6843C40.2872 21.7424 40.291 28.3414 36.2373 32.3947C34.2727 34.3601 31.6587 35.4423 28.8779 35.4423ZM28.8779 16.0554C26.5769 16.0554 24.2763 16.9308 22.5247 18.6824C20.8261 20.381 19.8893 22.6392 19.8876 25.0402C19.8855 27.4419 20.8192 29.6994 22.5167 31.3966C24.2149 33.0951 26.4739 34.0305 28.8779 34.0305C31.2817 34.0305 33.541 33.0951 35.2392 31.3966C38.742 27.8934 38.7382 22.1898 35.2309 18.6824C33.4793 16.9308 31.1786 16.0554 28.8779 16.0554Z" fill="#96ABEC"/>
<path d="M28.8779 31.8005C27.0701 31.8005 25.3706 31.0967 24.0932 29.8194C21.4606 27.1861 21.4641 22.8977 24.1015 20.2596C25.3788 18.983 27.0753 18.2798 28.8779 18.2798C30.6805 18.2798 32.377 18.983 33.6543 20.2596C36.2917 22.8977 36.2952 27.1861 33.6623 29.8194C32.3849 31.0967 30.6857 31.8005 28.8779 31.8005ZM28.8779 19.6916C27.452 19.6916 26.1102 20.2479 25.0996 21.2578C23.0127 23.3451 23.0092 26.738 25.0914 28.8212C26.1023 29.8318 27.4472 30.3888 28.8779 30.3888C30.3086 30.3888 31.6532 29.8318 32.6641 28.8212C34.7466 26.738 34.7431 23.3451 32.6562 21.2578C31.6456 20.2479 30.3038 19.6916 28.8779 19.6916ZM36.6764 36.5411C36.4892 36.5411 36.3097 36.4667 36.1773 36.3343L33.5733 33.73C33.4217 33.5783 33.3472 33.366 33.371 33.153C33.3944 32.94 33.514 32.7491 33.6953 32.6339C34.2485 32.2844 34.7528 31.8791 35.2367 31.3959C35.7144 30.9175 36.1287 30.4019 36.4672 29.8628C36.5813 29.6808 36.7722 29.5609 36.9856 29.5367C37.2003 29.5147 37.4123 29.5871 37.5639 29.7394L40.1682 32.343C40.3006 32.4754 40.375 32.6546 40.375 32.8421C40.375 33.0289 40.3006 33.2088 40.1682 33.3412L37.1755 36.3343C37.0431 36.4667 36.8635 36.5411 36.6764 36.5411ZM35.1678 33.3281L36.6764 34.8371L38.671 32.8421L37.1627 31.3345C36.8825 31.702 36.5723 32.0563 36.2352 32.394C35.8967 32.7318 35.5397 33.0448 35.1678 33.3281Z" fill="#96ABEC"/>
<path d="M42.786 42.7541C41.7703 42.7541 40.8155 42.3584 40.0972 41.6401L36.1687 37.7116C35.5176 37.0602 35.5176 36.0014 36.1687 35.3499L39.1842 32.3348C39.8353 31.6847 40.8951 31.684 41.5455 32.3348L45.4744 36.2633C46.1927 36.9816 46.5884 37.9363 46.5884 38.9517C46.5884 39.9671 46.1927 40.9219 45.4744 41.6401C44.7565 42.3584 43.8017 42.7541 42.786 42.7541ZM40.365 33.2578C40.2989 33.2578 40.2327 33.2826 40.1824 33.3329L37.1669 36.3481C37.0662 36.4487 37.0662 36.6128 37.1669 36.7134L41.0954 40.642C41.9988 41.545 43.5732 41.545 44.4759 40.642C44.9278 40.1905 45.1766 39.5901 45.1766 38.9517C45.1766 38.3134 44.9278 37.713 44.4763 37.2615L40.5477 33.3329C40.4974 33.2826 40.4312 33.2578 40.365 33.2578ZM27.7591 27.6114C27.572 27.6114 27.3924 27.537 27.26 27.4046L25.9155 26.0597C25.6397 25.784 25.6397 25.3373 25.9155 25.0616C26.1912 24.7858 26.6379 24.7858 26.9136 25.0616L27.7591 25.9074L30.8422 22.8247C31.1179 22.5489 31.5646 22.5489 31.8403 22.8247C32.1161 23.1004 32.1161 23.5471 31.8403 23.8228L28.2582 27.4046C28.1258 27.537 27.9463 27.6114 27.7591 27.6114ZM16.5918 10.7426C16.4047 10.7426 16.2251 10.6682 16.0928 10.5358L15.0336 9.47631C14.7578 9.20058 14.7578 8.75388 15.0336 8.47815C15.3093 8.20241 15.756 8.20241 16.0317 8.47815L16.5918 9.03858L18.9139 6.7162C19.1896 6.44047 19.6363 6.44047 19.912 6.7162C20.1878 6.99194 20.1878 7.43863 19.912 7.71436L17.0909 10.5358C16.9586 10.6682 16.779 10.7426 16.5918 10.7426ZM25.4629 10.2877H21.5223C21.1325 10.2877 20.8164 9.97195 20.8164 9.58178C20.8164 9.19161 21.1325 8.8759 21.5223 8.8759H25.4629C25.8527 8.8759 26.1688 9.19161 26.1688 9.58178C26.1688 9.97195 25.8527 10.2877 25.4629 10.2877Z" fill="#96ABEC"/>
</svg>
