<svg width="45" height="41" viewBox="0 0 45 41" fill="none" xmlns="http://www.w3.org/2000/svg">
<circle cx="20" cy="20" r="20" fill="#D3C7EF"/>
<path fill-rule="evenodd" clip-rule="evenodd" d="M40.3187 31.1792L43.9911 37.5394L43.9932 37.5352C44.092 37.7066 44.0778 37.9207 43.9571 38.0775C43.8364 38.2342 43.633 38.3027 43.4421 38.2509L40.8844 37.5571L40.2062 40.1189C40.1553 40.3098 39.9943 40.4512 39.7984 40.4772C39.6026 40.5032 39.4103 40.4086 39.3113 40.2376L36.1776 34.8099C35.8143 35.1448 35.3382 35.3308 34.8441 35.3308C34.4062 35.3313 33.9809 35.1846 33.6366 34.9141C33.2805 34.633 32.778 34.633 32.4219 34.9141C31.6643 35.5082 30.5873 35.4641 29.881 34.8099L26.7472 40.2376C26.6482 40.4086 26.456 40.5032 26.2601 40.4772C26.0642 40.4512 25.9033 40.3098 25.8523 40.1189L25.1741 37.5571L22.6165 38.2509C22.4255 38.3027 22.2222 38.2342 22.1015 38.0775C21.9808 37.9207 21.9665 37.7066 22.0654 37.5352L25.7377 31.175C25.6016 31.0183 25.4192 30.9089 25.2168 30.8625C24.6411 30.7268 24.1574 30.3383 23.9007 29.8054C23.6441 29.2725 23.6419 28.6521 23.8948 28.1174C24.0898 27.7076 23.9782 27.2176 23.6249 26.9328C23.1653 26.5608 22.8983 26.001 22.8983 25.4097C22.8983 24.8184 23.1653 24.2587 23.6249 23.8866C23.9782 23.6018 24.0898 23.1118 23.8948 22.7021C23.6411 22.167 23.643 21.5459 23.9 21.0124C24.1569 20.4788 24.6413 20.0901 25.2179 19.9549C25.6598 19.8516 25.9731 19.4586 25.9752 19.0047C25.9796 18.4134 26.2507 17.8557 26.713 17.4871C27.1753 17.1184 27.7794 16.9782 28.3568 17.1055C28.7995 17.204 29.2519 16.986 29.4507 16.5784C29.7111 16.0473 30.1974 15.6623 30.774 15.5306C31.3506 15.399 31.9558 15.5348 32.4209 15.9002C32.777 16.1813 33.2795 16.1813 33.6356 15.9002C34.1015 15.5352 34.7074 15.4003 35.2841 15.5332C35.8608 15.6661 36.3466 16.0526 36.6058 16.5846C36.8047 16.9927 37.2577 17.2108 37.7007 17.1118C38.2781 16.9845 38.8822 17.1247 39.3445 17.4933C39.8068 17.862 40.0779 18.4197 40.0823 19.011C40.0843 19.4648 40.3977 19.8579 40.8396 19.9611C41.4154 20.0968 41.8991 20.4853 42.1557 21.0182C42.4124 21.5511 42.4146 22.1715 42.1617 22.7062C41.9667 23.116 42.0783 23.606 42.4315 23.8908C42.8911 24.2628 43.1581 24.8225 43.1581 25.4139C43.1581 26.0052 42.8911 26.5649 42.4315 26.937C42.0783 27.2218 41.9667 27.7118 42.1617 28.1215C42.4146 28.6563 42.4124 29.2766 42.1557 29.8096C41.8991 30.3425 41.4154 30.731 40.8396 30.8667C40.6373 30.9131 40.4549 31.0225 40.3187 31.1792ZM25.9919 36.8403L26.4889 38.728L29.2455 33.9628C29.0089 33.7369 28.6751 33.6439 28.3558 33.7149C27.4097 33.9217 26.4544 33.4065 26.1076 32.5022L23.5031 37.007L25.3919 36.4944C25.5173 36.4604 25.6511 36.4777 25.7638 36.5427C25.8764 36.6076 25.9585 36.7147 25.9919 36.8403ZM35.0628 34.3338C34.7736 34.4004 34.4697 34.3322 34.2367 34.1484C33.5266 33.5878 32.5246 33.5878 31.8145 34.1484C31.5814 34.3319 31.2778 34.4002 30.9885 34.3342C30.6993 34.2683 30.4553 34.0752 30.3247 33.8088C29.9284 32.9958 29.026 32.561 28.1432 32.7576C27.8534 32.8218 27.5501 32.7515 27.318 32.5664C27.086 32.3813 26.95 32.1012 26.9483 31.8043C26.944 30.8997 26.3196 30.1162 25.4387 29.9103C25.1498 29.8424 24.9071 29.6474 24.7785 29.38C24.6498 29.1125 24.6489 28.8012 24.7761 28.5331C25.1644 27.7163 24.9416 26.7399 24.2375 26.1724C24.0067 25.9859 23.8725 25.705 23.8725 25.4082C23.8725 25.1114 24.0067 24.8306 24.2375 24.644C24.9416 24.0765 25.1644 23.1001 24.7761 22.2833C24.6489 22.0152 24.6498 21.7039 24.7785 21.4365C24.9071 21.169 25.1498 20.9741 25.4387 20.9061C26.3196 20.7002 26.944 19.9167 26.9483 19.0121C26.95 18.7152 27.086 18.4351 27.318 18.25C27.5501 18.0649 27.8534 17.9946 28.1432 18.0588C29.026 18.2554 29.9284 17.8206 30.3247 17.0077C30.4553 16.7412 30.6993 16.5481 30.9885 16.4822C31.2778 16.4162 31.5814 16.4845 31.8145 16.668C32.5246 17.2287 33.5266 17.2287 34.2367 16.668C34.4698 16.4845 34.7734 16.4162 35.0627 16.4822C35.3519 16.5481 35.5959 16.7412 35.7265 17.0077C36.1228 17.8206 37.0252 18.2554 37.908 18.0588C38.1978 17.9946 38.5011 18.0649 38.7332 18.25C38.9652 18.4351 39.1012 18.7152 39.1029 19.0121C39.1065 19.9184 39.7328 20.7033 40.6156 20.9082C40.9045 20.9761 41.1472 21.1711 41.2759 21.4385C41.4045 21.706 41.4054 22.0173 41.2782 22.2854C40.89 23.1022 41.1127 24.0786 41.8168 24.6461C42.0477 24.8326 42.1818 25.1135 42.1818 25.4103C42.1818 25.7071 42.0477 25.9879 41.8168 26.1745C41.1127 26.742 40.89 27.7184 41.2782 28.5352C41.4054 28.8033 41.4045 29.1146 41.2759 29.382C41.1472 29.6495 40.9045 29.8444 40.6156 29.9124C39.7348 30.1183 39.1103 30.9018 39.1061 31.8064C39.1043 32.1033 38.9684 32.3834 38.7363 32.5685C38.5043 32.7536 38.2009 32.8239 37.9111 32.7597C37.0283 32.5631 36.126 32.9979 35.7296 33.8108C35.5983 34.0774 35.353 34.2698 35.0628 34.3338ZM40.2906 36.5376C40.4032 36.4727 40.5371 36.4554 40.6625 36.4894L42.5555 37.0009L39.951 32.4962C39.6043 33.4032 38.6456 33.9195 37.6976 33.7099C37.3782 33.6387 37.0444 33.7317 36.8079 33.9578L39.5613 38.7272L40.0624 36.8353C40.0959 36.7097 40.178 36.6026 40.2906 36.5376Z" fill="black"/>
<path fill-rule="evenodd" clip-rule="evenodd" d="M35.7456 28.9021C35.6538 29.0281 35.5073 29.1027 35.3514 29.103C35.2504 29.1024 35.1521 29.0703 35.0701 29.0113L33.0324 27.5403L30.9946 29.0113C30.8234 29.1349 30.5921 29.1346 30.4213 29.0104C30.2505 28.8863 30.1787 28.6664 30.2435 28.4654L31.0134 26.0692L28.9839 24.5774C28.8147 24.4522 28.7447 24.2327 28.8102 24.0326C28.8757 23.8325 29.062 23.6969 29.2725 23.696H31.7781L32.5615 21.3093C32.6274 21.1088 32.8146 20.9734 33.0256 20.9734C33.2366 20.9734 33.4238 21.1088 33.4897 21.3093L34.2732 23.696H36.7881C36.9986 23.6969 37.1848 23.8325 37.2504 24.0326C37.3159 24.2327 37.2459 24.4522 37.0766 24.5774L35.0462 26.0692L35.8161 28.4654C35.8636 28.6139 35.8374 28.7761 35.7456 28.9021ZM32.7417 26.5412C32.9125 26.418 33.143 26.418 33.3137 26.5412L34.419 27.3476L34.0023 26.036C33.9383 25.836 34.0092 25.6175 34.1784 25.4932L35.291 24.6754H33.9148C33.7038 24.6751 33.5169 24.5394 33.4512 24.3389L33.022 23.0293L32.5928 24.3389C32.5271 24.5394 32.3401 24.6751 32.1292 24.6754H30.7529L31.8656 25.4932C32.0348 25.6175 32.1057 25.836 32.0417 26.036L31.6249 27.3476L32.7417 26.5412Z" fill="black"/>
<path d="M39.8645 25.4097C39.8632 21.9405 37.2638 19.0224 33.8179 18.6217C30.372 18.2209 27.1723 20.4648 26.375 23.841C25.5777 27.2173 27.4356 30.6554 30.6967 31.8386C30.8625 31.9061 31.0519 31.8775 31.1905 31.7641C31.329 31.6507 31.3944 31.4706 31.3609 31.2948C31.3275 31.1189 31.2005 30.9754 31.0301 30.9208C28.3555 29.9507 26.7641 27.1996 27.2566 24.3974C27.7491 21.5953 30.1831 19.5517 33.0282 19.5517C35.8734 19.5517 38.3074 21.5953 38.7999 24.3974C39.2924 27.1996 37.701 29.9507 35.0264 30.9208C34.8559 30.9754 34.729 31.1189 34.6956 31.2948C34.6621 31.4706 34.7275 31.6507 34.866 31.7641C35.0046 31.8775 35.194 31.9061 35.3598 31.8386C38.0606 30.8519 39.8592 28.2851 39.8645 25.4097Z" fill="black"/>
<path d="M33.0283 31.2698C32.7951 31.2697 32.5943 31.4343 32.5488 31.663C32.5033 31.8917 32.6257 32.1207 32.8411 32.2099C33.0566 32.2991 33.305 32.2236 33.4344 32.0296C33.5639 31.8356 33.5382 31.5772 33.3731 31.4125C33.2814 31.3215 33.1575 31.2702 33.0283 31.2698Z" fill="black"/>
</svg>
