<svg xmlns="http://www.w3.org/2000/svg" width="35" height="23" fill-rule="evenodd" xmlns:v="https://vecta.io/nano"><circle fill="#ae9fe1" opacity=".5" cx="11.5" cy="11.5" r="11.5"/><path d="M14.2 9c1.2 0 2.175-.975 2.175-2.175 0-.35-.075-.65-.225-.95L18.575 3.9c.375.275.825.45 1.325.45s.95-.175 1.325-.45l2.425 1.975c-.15.275-.225.6-.225.95C23.425 8.025 24.4 9 25.6 9s2.175-.975 2.175-2.175c0-.35-.075-.65-.225-.95L29.975 3.9c.375.275.825.45 1.325.45 1.2 0 2.175-.975 2.175-2.175S32.5 0 31.3 0s-2.175.975-2.175 2.175c0 .35.075.65.225.95L26.925 5.1c-.375-.275-.825-.45-1.325-.45s-.95.175-1.325.45l-2.45-1.95c.15-.275.225-.6.225-.95 0-1.2-.975-2.175-2.175-2.175S17.7 1 17.7 2.2c0 .35.075.65.225.95L15.5 5.125c-.375-.275-.825-.45-1.325-.45-1.2 0-2.175.975-2.175 2.175S13 9 14.2 9zm17.05-7.975c.65 0 1.175.525 1.175 1.175S31.9 3.4 31.25 3.4s-1.175-.525-1.175-1.175.525-1.2 1.175-1.2zM25.575 5.65c.65 0 1.175.525 1.175 1.175S26.225 8 25.575 8 24.4 7.475 24.4 6.825a1.19 1.19 0 0 1 1.175-1.175zm-5.7-4.625c.65 0 1.175.525 1.175 1.175s-.525 1.2-1.175 1.2S18.7 2.875 18.7 2.225s.525-1.2 1.175-1.2zM14.2 5.65c.65 0 1.175.525 1.175 1.175S14.85 8 14.2 8s-1.175-.525-1.175-1.175A1.19 1.19 0 0 1 14.2 5.65zm20.05 11.975h-.85V8.5a.5.5 0 0 0-.5-.5h-3a.5.5 0 0 0-.5.5v9.125h-1.7v-4.5a.5.5 0 0 0-.5-.5h-3a.5.5 0 0 0-.5.5v4.5H22V8.5a.5.5 0 0 0-.5-.5h-3a.5.5 0 0 0-.5.5v9.125h-1.7v-4.5a.5.5 0 0 0-.5-.5h-3a.5.5 0 0 0-.5.5v4.5h-.8a.5.5 0 1 0 0 1h22.75a.5.5 0 1 0 0-1zM30.4 9h2v8.625h-2V9zm-5.675 4.625h2v4h-2v-4zM19.025 9h2v8.625h-2V9zm-5.675 4.625h2v4h-2v-4z" fill-rule="nonzero"/></svg>