<?xml version="1.0" encoding="UTF-8"?>
<svg width="64px" height="53px" viewBox="0 0 64 53" version="1.1" xmlns="http://www.w3.org/2000/svg" xmlns:xlink="http://www.w3.org/1999/xlink">
    <title>Group 11</title>
    <g id="Explorations" stroke="none" stroke-width="1" fill="none" fill-rule="evenodd">
        <g id="Topfold-pes-changes-" transform="translate(-950.000000, -2032.000000)">
            <g id="Group-11" transform="translate(950.000000, 2032.000000)">
                <circle id="Oval" fill="#FFEDAB" opacity="0.991396949" cx="26.07" cy="26.07" r="26.07"></circle>
                <g id="Group-41" transform="translate(24.000000, 0.000000)" fill="#000000" fill-rule="nonzero">
                    <path d="M39.24,3.3167841 C39.24,3.0817553 39.1466964,2.85544741 38.9779651,2.6866976 L36.5511989,0.259665409 C36.2006564,-0.0865551364 35.6417067,-0.0865551364 35.2955241,0.259665409 L33.8715539,1.67943127 L33.4455836,1.2534143 C33.1970646,1.00050761 32.855678,0.863153111 32.5051354,0.863153111 C32.1502329,0.863153111 31.8127702,1.00050761 31.5646873,1.2534143 L26.2629488,6.55573399 L9.66449644,6.55573399 L9.66449644,1.79454742 C9.66449644,1.05806568 9.07023086,0.463298904 8.33339386,0.463298904 C7.59699286,0.463298904 7.00229128,1.05806568 7.00229128,1.79454742 L7.00229128,6.55573399 L2.24206267,6.55573399 C1.50566167,6.55573399 0.910960088,7.15050078 0.910960088,7.88698251 C0.910960088,8.62346425 1.50522567,9.21823104 2.24206267,9.21823104 L7.00272728,9.21823104 L7.00272728,25.8180672 L4.66926478,28.1565821 L4.58032114,28.240739 C4.45170167,28.3693725 4.34967808,28.5202445 4.28297036,28.6798373 L0.130087268,37.3322986 C-0.114071738,37.8424725 -0.00768817134,38.4503206 0.391686202,38.8497388 C0.644565172,39.107006 0.985951782,39.24 1.33213437,39.24 C1.52746158,39.24 1.72235278,39.1955233 1.90896002,39.1113664 L10.6359005,34.9227083 C10.7693159,34.8559932 10.8931394,34.7718364 10.999959,34.6610807 L13.4267251,32.2340485 L30.0155856,32.2340485 L30.0155856,36.9952351 C30.0155856,37.7317168 30.6146471,38.3264836 31.3466881,38.3264836 C32.0830891,38.3264836 32.6777907,37.7317168 32.6777907,36.9952351 L32.6777907,32.2340485 L37.4384553,32.2340485 C38.1748563,32.2340485 38.7695579,31.6392817 38.7695579,30.9028 C38.7695579,30.1663182 38.1752923,29.5715514 37.4384553,29.5715514 L32.6782267,29.5715514 L32.6782267,12.9808722 L37.9843251,7.67419205 C38.503599,7.15486124 38.503599,6.31198427 37.9843251,5.79265345 L37.5583548,5.36663648 L38.9779651,3.94251015 C39.1466964,3.7781208 39.24,3.55181291 39.24,3.3167841 Z M9.66449644,9.21823104 L23.6003077,9.21823104 L9.66449644,23.1555702 L9.66449644,9.21823104 Z M4.17179081,35.0692198 L6.11067491,31.0270731 L8.21829033,33.1301231 L4.17179081,35.0692198 Z M16.0889303,29.5715514 L30.0160216,15.6433692 L30.0160216,29.5719875 L16.0889303,29.5719875 L16.0889303,29.5715514 Z M30.40624,11.4900308 L12.0293508,29.8732953 C11.9983949,29.9042546 11.9670031,29.9308534 11.9360472,29.9622487 L9.7486441,32.1542521 L7.09123492,29.4965515 L27.7531908,8.82796984 L32.5051354,4.07550419 L35.1629806,6.73320473 L30.40624,11.4900308 Z M36.4312994,3.97782988 L35.2597722,2.80181375 L35.9207455,2.14076797 L37.0966327,3.3167841 L36.4312994,3.97782988 Z" id="Shape"></path>
                </g>
            </g>
        </g>
    </g>
</svg>