<svg xmlns="http://www.w3.org/2000/svg" width="18" height="18" xmlns:v="https://vecta.io/nano"><path d="M18 1.52a.41.41 0 0 0-.12-.289L16.767.12c-.16-.16-.417-.16-.576 0l-.653.65-.195-.195c-.114-.116-.27-.18-.43-.18a.6.6 0 0 0-.431.179L12.05 3.006H4.433V.823a.61.61 0 1 0-1.221 0v2.184H1.028a.61.61 0 0 0 0 1.221h2.184v7.615l-1.1 1.113c-.06.06-.106.128-.136.2L.06 17.125a.61.61 0 0 0 .12.696c.116.118.273.18.43.18a.59.59 0 0 0 .265-.06l4.003-1.92c.06-.03.118-.07.167-.12l1.113-1.113h7.6v2.184a.61.61 0 1 0 1.221 0v-2.184h2.184a.61.61 0 1 0 0-1.221H15v-7.6l2.434-2.434a.61.61 0 0 0 0-.863l-.195-.195.65-.653a.4.4 0 0 0 .12-.287zM4.433 4.23h6.393l-6.393 6.393V4.23zm-2.52 11.858l.9-1.854.967.965-1.856.9zm5.467-2.522l6.4-6.4v6.4h-6.4zm6.568-8.294l-9.476 9.48-1.22-1.22L14.9 1.87l1.22 1.22-2.182 2.182zm2.764-3.446l-.537-.54.303-.303.54.54-.305.303z" fill="#113dcd"/></svg>