<svg xmlns="http://www.w3.org/2000/svg" xmlns:xlink="http://www.w3.org/1999/xlink" width="29" height="23" xmlns:v="https://vecta.io/nano"><defs><path id="A" d="M0 0h30v30H0z"/></defs><g transform="translate(-1 -4)" fill="none" fill-rule="evenodd"><mask id="B" fill="#fff"><use xlink:href="#A"/></mask><g mask="url(#B)"><circle fill="#d8cef3" cx="12.5" cy="15.5" r="11.5"/><g fill="#000" fill-rule="nonzero"><g stroke="#000" stroke-width=".4"><path d="M18.413 22.032c-2.77-1.107-4.56-3.75-4.56-6.732 0-3.9 3.112-7.103 7-7.24l-1.048 1.17a.3.3 0 0 0 .023.424c.057.05.13.076.2.076a.3.3 0 0 0 .224-.1l1.502-1.677a.3.3 0 0 0-.015-.416l-1.502-1.453a.3.3 0 1 0-.417.431l.977.946a7.86 7.86 0 0 0-7.533 7.84 7.81 7.81 0 0 0 4.937 7.289.3.3 0 1 0 .223-.557zM28.947 15.3a7.82 7.82 0 0 0-4.87-7.262.3.3 0 1 0-.228.555 7.22 7.22 0 0 1 4.498 6.707 7.25 7.25 0 0 1-7.15 7.244l.912-1.06a.3.3 0 0 0-.455-.391l-1.34 1.558a.3.3 0 0 0 .028.42l1.64 1.453a.3.3 0 1 0 .398-.449l-1.055-.935c4.222-.12 7.62-3.6 7.62-7.84z"/></g><path d="M20.106 18.818l5.7-5.4a.3.3 0 0 0 .093-.2c.003-.04.053-1.017-.605-1.724-.42-.452-1.024-.686-1.8-.694-.075-.003-.153.03-.2.082l-5.7 5.4a.3.3 0 0 0-.086.152l-.613 2.713a.3.3 0 0 0 .293.366c.022 0 .044-.002.066-.007l2.713-.613a.31.31 0 0 0 .06-.023c.035-.017.058-.033.08-.052zm3.5-7.414c.537.027.952.193 1.236.496.373.398.438.94.447 1.172l-5.2 4.936c-.297-.94-1.105-1.434-1.696-1.656l5.222-4.947zm-5.6 5.46c.448.135 1.338.525 1.54 1.506l-1.98.448.442-1.953z" stroke="#030303" stroke-width=".4"/></g></g></g></svg>