<svg width="60" height="54" xmlns="http://www.w3.org/2000/svg"><g fill="none" fill-rule="evenodd"><circle fill="#E0CCCD" cx="24" cy="30" r="24"/><g fill="#000" fill-rule="nonzero"><path d="M42.44 8.944a3.534 3.534 0 00-4.256 2.813c-.433 1.948.793 3.895 2.813 4.256a3.534 3.534 0 004.255-2.813c.361-1.948-.865-3.895-2.813-4.256zm1.37 3.967c-.217 1.155-1.443 1.948-2.597 1.66a2.128 2.128 0 01-1.659-2.597 2.128 2.128 0 012.597-1.66 2.257 2.257 0 011.659 2.597zM48.372 30.728c-.072 0-4.833 1.37-9.81 1.515-.721 0-2.092.288-2.597 1.37L27.454 30.8c-2.453-1.082-5.482 2.525-1.587 4.4 1.154.577 10.098 5.193 11.108 6.059.794.65 2.525 1.082 4.472.65 3.967-.578 11.18-.722 14.643 1.514a.704.704 0 001.082-.36l2.452-7.286c.145-.36-.072-.721-.36-.866a30.417 30.417 0 01-5.482-3.173c-1.876-1.299-3.823-1.515-5.41-1.01zm7.646 11.108c-3.895-2.02-11.109-1.875-14.931-1.298-1.01.216-2.453.288-3.318-.361-1.01-.866-8.223-4.616-11.397-6.203-.65-.289-1.299-.794-.938-1.37.36-.506.866-.65 1.37-.434l8.873 2.958c.216 1.01 1.226 1.947 2.813 2.092 1.01.072 2.02.072 3.03-.072.36-.073.72-.361.649-.794-.073-.36-.361-.721-.794-.65-1.082.073-2.164.073-2.813.073-1.948-.072-2.02-2.02-.072-2.02 5.193-.216 9.954-1.514 10.242-1.587 1.37-.504 2.814-.072 3.968.794 1.514 1.154 3.246 2.164 5.193 3.03l-1.875 5.842z"/><path d="M12.65 20.485a7.127 7.127 0 004.255 1.37c2.164 0 5.121-1.081 6.275-3.029.145-.288.361-.433.433-.433H25.128l-.794 1.01c-.793 1.01-.649 2.453.289 3.246.288.289.721.433 1.082.505-.144.794.072 1.66.793 2.236 1.01.794 2.453.65 3.246-.288l2.741-3.318.072.72c.145 1.3 1.37 2.165 2.597 2.02 1.298-.144 2.164-1.298 2.02-2.596l-.072-1.01 17.023 3.607c.36.072.793-.145.865-.577l3.462-16.446c.073-.361-.144-.794-.577-.866L28.59.433c-.216-.072-.36 0-.577.072-.144.072-.288.288-.288.433l-1.227 5.698c-1.659-.505-3.75.144-5.265.938-1.587.577-3.607 2.957-8.151 2.957a.655.655 0 00-.505.217.655.655 0 00-.216.504v8.584c0 .289.144.505.288.65zm12.766-.216l1.299-1.587 1.947.433-1.875 2.308c-.289.36-.866.433-1.226.144-.361-.36-.433-.865-.145-1.298zm3.246 3.895c-.288.36-.865.433-1.226.144-.36-.288-.433-.865-.144-1.226l2.957-3.607 1.948.433-3.535 4.256zm7.141-2.092c.072.505-.288.938-.793 1.01-.505.072-.938-.289-1.01-.793l-.216-2.092h.072l1.73.36.217 1.515zm-6.78-20.124l27.915 5.914-3.174 15.076c-1.515-.289-24.236-5.122-22.794-4.833a3.056 3.056 0 001.299-1.226l16.879 3.534c.36.072.793-.144.865-.577.217-.938 1.082-1.515 2.02-1.298.36.072.793-.145.865-.577l1.227-5.987c.072-.36-.145-.794-.577-.866-.433-.072-.866-.36-1.082-.721-.217-.36-.361-.866-.217-1.298.072-.217 0-.361-.072-.578-.072-.144-.288-.288-.433-.288L33.64 4.473c-.36-.073-.793.143-.865.576-.217.938-1.154 1.515-2.02 1.299-.216-.073-.36 0-.577.072-.144.072-.288.288-.288.432l-1.227 5.915h-1.947c3.174-14.787 2.092-9.665 2.308-10.82zm3.534 13.488c-.072-1.37-1.082-2.452-2.452-2.597l1.082-5.049A3.106 3.106 0 0034 5.987L50.807 9.52c0 .577.216 1.154.504 1.66.361.504.794.865 1.299 1.153l-1.01 4.689c-1.154 0-2.308.721-2.813 1.803l-16.23-3.39zm-18.754-3.462c4.617-.289 6.131-2.236 8.151-3.102 1.154-.649 3.102-1.298 4.256-.793 0 .072-1.082 5.049-1.01 4.688-.65-.072-.938-.433-.938-.433-.216-.288-.649-.432-1.01-.216-.36.216-.432.65-.216 1.01 1.154 1.803 4.544.793 6.708 1.082.722 0 1.37.577 1.37 1.37 0 .794-.576 1.37-1.37 1.37h-5.987c-.288 0-.505.073-.72.145-.29.144-.794.433-1.155 1.01-.866 1.443-3.318 2.308-5.05 2.308-1.081 0-2.163-.288-3.1-.938v-7.501h.071z"/></g></g></svg>