<svg xmlns="http://www.w3.org/2000/svg" width="31" height="24" fill-rule="evenodd" xmlns:v="https://vecta.io/nano"><circle fill="#a9b9ed" opacity=".5" cx="11.5" cy="12.5" r="11.5"/><path d="M24.293 11.314c-.603 0-1.1.376-1.304.9l-1.374-.165c-.072-.684-.657-1.22-1.377-1.22-.77 0-1.392.608-1.392 1.36a1.34 1.34 0 0 0 .411.963l-.996 1.553a1.41 1.41 0 0 0-.456-.081c-.77 0-1.4.608-1.4 1.36s.623 1.36 1.4 1.36 1.4-.608 1.4-1.36a1.34 1.34 0 0 0-.41-.963l.996-1.554a1.38 1.38 0 0 0 .456.08c.603 0 1.1-.376 1.304-.9l1.374.165c.072.685.657 1.22 1.377 1.22.77 0 1.4-.608 1.4-1.36 0-.333-.128-.634-.332-.87l1-1.28c.174.077.366.122.57.122.77 0 1.392-.608 1.392-1.36s-.623-1.36-1.392-1.36-1.4.608-1.4 1.36a1.33 1.33 0 0 0 .332.871l-1 1.28c-.174-.077-.366-.122-.57-.122zm6.353-6.797L26.268.136A.47.47 0 0 0 25.94 0h-6.228c-.256 0-.463.207-.463.464s.208.464.463.464h5.92v3.917a.31.31 0 0 0 .309.309h3.914v15.223H15.358V11.74c0-.256-.207-.464-.463-.464s-.463.208-.463.464v9.1c0 .256.207.464.463.464h15.423c.256 0 .463-.208.463-.464V4.845a.47.47 0 0 0-.136-.328zm-4.396.02V1.43l3.105 3.107H26.25zm-5.873.75C20.377 2.372 18.005 0 15.1 0a5.31 5.31 0 0 0-5.297 5.287c0 1.3.465 2.47 1.234 3.4l-3.9 3.9a.47.47 0 0 0 0 .663c.092.092.212.137.332.137a.47.47 0 0 0 .332-.137l3.9-3.9a5.26 5.26 0 0 0 3.389 1.234c2.915 0 5.287-2.37 5.287-5.287zm-9.636 0c0-2.398 1.95-4.35 4.35-4.35s4.35 1.95 4.35 4.35-1.95 4.35-4.35 4.35-4.35-1.95-4.35-4.35z" fill-rule="nonzero"/></svg>