<svg xmlns="http://www.w3.org/2000/svg" width="25" height="25" fill-rule="nonzero" xmlns:v="https://vecta.io/nano"><path d="M5.288 13l-1.2-1L6.77 8.783l13.058 8.705 1.022-1.858-1.363-.75 4-2.42.096 4.674-1.363-.75-1.843 3.346L7.07 10.86 5.288 13zM1.563 23.438v-3.125h1.563V18.75H1.563v-3.125h1.563v-1.562H1.563v-3.125h1.563V9.375H1.563V6.25h1.563V4.688H1.563V1.563h1.563V0H0v25h25v-1.562H1.563z" fill="#262626"/><path d="M14.4 12.008l4.707 3.256 4.57-8.293L25 7.756 24.98 3l-3.96 2.396 1.325.784-3.752 6.817-4.488-3.104-1.696 2.112 1.283.887.7-.884zm-2.683 3.34l-1.283-.887L6 19.98 7.178 21l4.54-5.652z" fill="#113dcd"/></svg>