<svg xmlns="http://www.w3.org/2000/svg" width="31" height="24" fill-rule="evenodd" xmlns:v="https://vecta.io/nano"><circle fill="#cfa6a1" opacity=".5" cx="11.5" cy="12.5" r="11.5"/><path d="M15.06 9.984l-.922-.77 2.06-2.47 10.028 6.686.785-1.427-1.046-.575 3.07-1.86.074 3.6-1.046-.575-1.416 2.57L16.43 8.34l-1.37 1.643zM12.2 18v-2.4h1.2v-1.2h-1.2V12h1.2v-1.2h-1.2V8.4h1.2V7.2h-1.2V4.8h1.2V3.6h-1.2V1.2h1.2V0H11v19.2h19.2V18h-18zm9.86-8.778l3.615 2.5 3.5-6.37 1.017.603-.016-3.653-3.04 1.84 1.017.602L25.28 9.98l-3.447-2.384L20.53 9.22l.985.68.545-.68zM20 11.787l-.985-.68-3.406 4.24.905.782L20 11.787z" fill="#262626" fill-rule="nonzero"/></svg>