<svg width="48" height="48" viewBox="0 0 48 48" fill="none" xmlns="http://www.w3.org/2000/svg">
<g clip-path="url(#clip0_45:240)">
<path d="M20.8 37.2666L17.7334 35.8C17.7334 35.8 15.8667 35.3333 15.4667 33.2666C17.0667 32.2 18.2 29.8 18.2 27.4C18.2 27.2 18.2 27.0666 18.1334 26.8666C18.2 25.3333 16.1334 23.8 16.1334 23.8C16.1334 23.8 14.8667 25 12.4 25.5333C9.93335 26.0666 9.80002 27.4 9.33335 29C9.66669 30.7333 10.6667 32.4666 11.9334 33.3333C11.5334 35.4666 9.73335 35.8666 9.73335 35.8666L6.66669 37.2666C6.73335 37 7.46669 32.1333 7.60002 30.8C7.66669 29.7333 7.66669 26.5333 7.66669 26.5333C7.73335 23.2666 10.4 20.6 13.7334 20.6C15.4 20.6 16.8667 21.2666 18 22.3333C19.0667 23.4 19.8 24.8666 19.8 26.5333C19.8 26.5333 19.8 29.7333 19.8667 30.8C20 32.1333 20.8 37 20.8 37.2666Z" stroke="#96ABEC" stroke-width="1.5" stroke-miterlimit="10" stroke-linecap="round" stroke-linejoin="round"/>
<path d="M39.2 26.1334H30.5333L32.9333 21.5334L34.2667 24.1334L36.2 20.4L39.2 26.1334Z" stroke="#96ABEC" stroke-width="1.5" stroke-miterlimit="10" stroke-linecap="round" stroke-linejoin="round"/>
<path d="M18.1333 27.4667C18.1333 30.6667 16.1333 33.8667 13.6 33.8667C11.5333 33.8667 9.79998 31.4667 9.26665 29C9.73331 27.4 9.86665 26.0667 12.3333 25.5333C14.8 25 16.0666 23.8 16.0666 23.8C16.0666 23.8 18.1333 25.4 18.0666 26.8667C18.1333 27.0667 18.1333 27.2667 18.1333 27.4667ZM24.1333 44.6H3.33331L4.06665 40.3333C4.26665 39.0667 5.06665 38 6.26665 37.4667L9.79998 35.8C12.4666 39.2 15.1333 39.2 17.8 35.8L21.3333 37.4667C22.4666 38 23.2666 39.0667 23.5333 40.3333L24.1333 44.6Z" stroke="#96ABEC" stroke-width="1.5" stroke-miterlimit="10" stroke-linecap="round" stroke-linejoin="round"/>
<path d="M17.7333 35.8C15.0667 39.2 12.4 39.2 9.73334 35.8C9.73334 35.8 11.5333 35.3333 11.9333 33.2667C12.4667 33.6 13.0667 33.8667 13.6667 33.8667C14.3333 33.8667 14.9333 33.6667 15.4667 33.2667C15.8667 35.4 17.7333 35.8 17.7333 35.8Z" stroke="#96ABEC" stroke-width="1.5" stroke-miterlimit="10" stroke-linecap="round" stroke-linejoin="round"/>
<path d="M13.7333 42.4667V42.5333" stroke="#96ABEC" stroke-width="1.5" stroke-miterlimit="10" stroke-linecap="round" stroke-linejoin="round"/>
<path d="M16.9333 40.4667H20.0667" stroke="#96ABEC" stroke-width="1.5" stroke-miterlimit="10" stroke-linecap="round" stroke-linejoin="round"/>
<path d="M13.3333 17.9333V5.86667C13.3333 4.53334 14.4 3.46667 15.7333 3.46667H34.2C34.8666 3.46667 35.4666 3.73334 35.9333 4.20001L43.9333 12.2C44.4 12.6667 44.6667 13.2667 44.6667 13.9333V42.2667C44.6667 43.6 43.6 44.6667 42.2667 44.6667H26.8" stroke="#96ABEC" stroke-width="1.5" stroke-miterlimit="10" stroke-linecap="round" stroke-linejoin="round"/>
<path d="M39.2 39.1333H25.8667" stroke="#96ABEC" stroke-width="1.5" stroke-miterlimit="10" stroke-linecap="round" stroke-linejoin="round"/>
<path d="M23.1333 34.8H39.2" stroke="#96ABEC" stroke-width="1.5" stroke-miterlimit="10" stroke-linecap="round" stroke-linejoin="round"/>
<path d="M39.2 30.4667H22.5333" stroke="#96ABEC" stroke-width="1.5" stroke-miterlimit="10" stroke-linecap="round" stroke-linejoin="round"/>
<path d="M27.9334 26.1333H22.4" stroke="#96ABEC" stroke-width="1.5" stroke-miterlimit="10" stroke-linecap="round" stroke-linejoin="round"/>
<path d="M27.9333 21.8667H21" stroke="#96ABEC" stroke-width="1.5" stroke-miterlimit="10" stroke-linecap="round" stroke-linejoin="round"/>
<path d="M18.8 17.5333H27.9333" stroke="#96ABEC" stroke-width="1.5" stroke-miterlimit="10" stroke-linecap="round" stroke-linejoin="round"/>
<path d="M18.8 13.2H29.3333" stroke="#96ABEC" stroke-width="1.5" stroke-miterlimit="10" stroke-linecap="round" stroke-linejoin="round"/>
<path d="M29.3333 8.8667H18.8" stroke="#96ABEC" stroke-width="1.5" stroke-miterlimit="10" stroke-linecap="round" stroke-linejoin="round"/>
<path d="M34.2 3.40002V11.0667C34.2 12.4 35.2667 13.4667 36.6 13.4667H44.6" stroke="#96ABEC" stroke-width="1.5" stroke-miterlimit="10" stroke-linecap="round" stroke-linejoin="round"/>
<path d="M39.2 17.5333H30.5333V26.2H39.2V17.5333Z" stroke="#96ABEC" stroke-width="1.5" stroke-miterlimit="10" stroke-linecap="round" stroke-linejoin="round"/>
</g>
<defs>
<clipPath id="clip0_45:240">
<rect width="44" height="44" fill="white" transform="translate(2 2)"/>
</clipPath>
</defs>
</svg>
