<svg xmlns="http://www.w3.org/2000/svg" width="25" height="25" fill="#fff" fill-rule="nonzero" xmlns:v="https://vecta.io/nano"><path d="M1.24 5.778a1.33 1.33 0 0 1 1.994-1.755l2.18 2.5L10.598 1.3c.337-.337.83-.47 1.3-.345a1.34 1.34 0 0 1 .944.944 1.36 1.36 0 0 1-.345 1.3l-6.18 6.22c-.084.06-.173.114-.266.16a.44.44 0 0 1-.133.08 1.23 1.23 0 0 1-.48.093 1.33 1.33 0 0 1-.532-.053l-.16-.106C4.64 9.538 4.55 9.48 4.47 9.4h0L1.24 5.78zM14.2 8.9h9.305a1.33 1.33 0 0 0 1.329-1.329 1.33 1.33 0 0 0-1.329-1.329H14.2a1.33 1.33 0 0 0-1.329 1.329A1.33 1.33 0 0 0 14.2 8.889zm9.305 5.315H2.237a1.33 1.33 0 0 0-1.329 1.329 1.33 1.33 0 0 0 1.329 1.329h21.268a1.33 1.33 0 0 0 1.329-1.329 1.33 1.33 0 0 0-1.329-1.329zm0 7.975H2.237a1.33 1.33 0 0 0-1.329 1.33 1.33 1.33 0 0 0 1.329 1.329h21.268a1.33 1.33 0 0 0 1.329-1.329 1.33 1.33 0 0 0-1.329-1.329z"/></svg>