<?xml version="1.0" encoding="UTF-8"?>
<svg width="27px" height="23px" viewBox="0 0 27 23" version="1.1" xmlns="http://www.w3.org/2000/svg" xmlns:xlink="http://www.w3.org/1999/xlink">
    <!-- Generator: Sketch 63.1 (92452) - https://sketch.com -->
    <title>Group 23</title>
    <desc>Created with Sketch.</desc>
    <g id="Page-1" stroke="none" stroke-width="1" fill="none" fill-rule="evenodd">
        <g id="Artboard-Copy" transform="translate(-305.000000, -255.000000)">
            <g id="Group-23" transform="translate(305.000000, 254.000000)">
                <circle id="Oval-Copy-18" fill="#D8CEF3" cx="11.5" cy="12.5" r="11.5"></circle>
                <g id="Book-editing-icon" transform="translate(7.000000, 0.000000)">
                    <rect id="Book-ed" x="0" y="0" width="24" height="24"></rect>
                    <g id="Group-21" transform="translate(4.000000, 3.000000)" fill-rule="nonzero">
                        <path d="M14.0821732,1.19015908e-13 C14.3702239,1.19015908e-13 14.6037351,0.207970959 14.6037351,0.464516129 L14.6037351,2.78709677 L15.1252971,2.78709677 C15.2693225,2.78709677 15.399713,2.83908952 15.4940971,2.9231504 C15.5884813,3.00721128 15.6468591,3.12334031 15.6468591,3.2516129 L15.6468591,17.1870968 C15.6468591,17.443642 15.4133479,17.6516129 15.1252971,17.6516129 L2.08624788,17.6516129 C0.934183924,17.6516129 0,16.8199884 0,15.7935484 L0,1.85806452 C0,0.831624499 0.934183924,1.19015908e-13 2.08624788,1.19015908e-13 L14.0821732,1.19015908e-13 Z M1.04312394,3.46757799 L1.04312394,15.7935484 C1.04312394,16.3068023 1.51017786,16.7225806 2.08624788,16.7225806 L14.6037351,16.7225806 L14.6037351,3.71612903 L2.08624788,3.71612903 C1.70627157,3.71612903 1.34999685,3.62566267 1.04312394,3.46757799 Z M13.5606112,0.929032258 L2.08624788,0.929032258 C1.51017786,0.929032258 1.04312394,1.34481065 1.04312394,1.85806452 C1.04312394,2.37131838 1.51017786,2.78709677 2.08624788,2.78709677 L13.5606112,2.78709677 L13.5606112,0.929032258 Z" id="Combined-Shape" fill="#000000"></path>
                        <path d="M10.2784774,5.71024717 L12.3647253,7.56831168 C12.5684079,7.74971656 12.5684079,8.04383182 12.3647253,8.22523671 L7.14910562,12.870398 C7.09185126,12.9213902 7.02205281,12.9598097 6.945238,12.9826141 L3.81586616,13.9116464 C3.40813091,14.0326929 3.02022491,13.687214 3.15613666,13.3240748 L4.19926059,10.5369781 C4.22486554,10.4685649 4.26800333,10.4064006 4.32525772,10.3554085 L9.5408774,5.71024717 C9.74456008,5.52884234 10.0747948,5.52884234 10.2784774,5.71024717 Z M9.90967742,6.69563469 L5.1499196,10.934794 L4.47559567,12.7365033 L6.49856742,12.1359335 L11.2583253,7.89677419 L9.90967742,6.69563469 Z" id="Combined-Shape" fill="#262626"></path>
                    </g>
                </g>
            </g>
        </g>
    </g>
</svg>