<svg xmlns="http://www.w3.org/2000/svg" width="48" height="48" viewBox="0 0 48 48">
  <g id="review-icon" transform="translate(-527 -161)">
    <rect id="Rectangle_46" data-name="Rectangle 46" width="48" height="48" transform="translate(527 161)" fill="none"/>
    <path id="Union_8" data-name="Union 8" d="M-16036.334-383a3.673,3.673,0,0,1-3.667-3.667v-36.668a3.676,3.676,0,0,1,3.667-3.667h18.586a3.656,3.656,0,0,1,2.593,1.075l9.282,9.283a3.655,3.655,0,0,1,1.075,2.592v27.386a3.673,3.673,0,0,1-3.667,3.667Zm-2.2-3.667a2.2,2.2,0,0,0,2.2,2.2h27.869a2.2,2.2,0,0,0,2.2-2.2v-17.6h-5.865v-1.469h5.865v-8.317a2.169,2.169,0,0,0-.644-1.554l-8.889-8.892v6.3a2.2,2.2,0,0,0,2.2,2.2h4.4v1.465h-4.4a3.666,3.666,0,0,1-3.667-3.663v-7.282a2.195,2.195,0,0,0-.483-.052h-18.586a2.2,2.2,0,0,0-2.2,2.2v17.6h5.865v1.469h-5.865Zm26.4-1.465V-389.6h2.2v1.469Zm-8.066,0V-389.6h5.865v1.469Zm-14.669,0V-389.6h12.467v1.469Zm17.6-4.4V-394h7.33v1.469Zm-9.537,0V-394h7.335v1.469Zm-8.066,0V-394h5.869v1.469ZM-16031.2-405a8.812,8.812,0,0,1,8.8-8.8,8.8,8.8,0,0,1,8.8,8.8,8.8,8.8,0,0,1-8.8,8.8A8.8,8.8,0,0,1-16031.2-405Zm1.469,0a7.329,7.329,0,0,0,7.331,7.33,7.329,7.329,0,0,0,7.334-7.33,7.34,7.34,0,0,0-7.334-7.334A7.333,7.333,0,0,0-16029.732-405Zm6.924,4.275a.734.734,0,0,1-.285-.841l.732-2.2,1.389.467-.338,1.022a2.923,2.923,0,0,0,1.622-1.61,2.927,2.927,0,0,0-.024-2.286l1.345-.588a4.4,4.4,0,0,1-2.206,5.765l.781.519-.813,1.22Zm-1.417-8.28-.78-.519.813-1.22,2.2,1.465a.729.729,0,0,1,.29.841l-.732,2.2-1.394-.463.343-1.026a2.931,2.931,0,0,0-1.627,1.61,2.948,2.948,0,0,0,.024,2.286l-1.345.588A4.405,4.405,0,0,1-16024.226-409Zm1.824-7.729V-418.2h2.2v1.465Zm-12.467,0V-418.2h10.269v1.465Zm8.8-4.4V-422.6h5.865v1.469Zm-4.4,0V-422.6h2.2v1.469Z" transform="translate(16573 590.002)" fill="#96abec"/>
  </g>
</svg>
