<svg xmlns="http://www.w3.org/2000/svg" width="36" height="36" fill="#96abec" fill-rule="nonzero" xmlns:v="https://vecta.io/nano"><path d="M.42 7.164A2 2 0 0 1 .643 4.47a1.85 1.85 0 0 1 2.617.113L6.366 8.26 13.753.575A1.86 1.86 0 0 1 15.59.067c.656.182 1.17.7 1.345 1.388a2.01 2.01 0 0 1-.492 1.896L7.635 12.5c-.12.1-.246.168-.38.235a.62.62 0 0 1-.189.117c-.216.092-.448.14-.682.137a1.84 1.84 0 0 1-.758-.078l-.227-.156a1.66 1.66 0 0 1-.38-.254h0L.42 7.164zM20.9 12H34.1c1.043 0 1.9-.895 1.9-2s-.846-2-1.9-2H20.9c-1.044 0-1.9.895-1.9 2s.846 2 1.9 2zm13.166 8H2.944C1.87 20 1 20.895 1 22s.87 2 1.944 2h31.1C35.13 24 36 23.105 36 22s-.87-2-1.944-2zm0 12H2.944C1.87 32 1 32.895 1 34s.87 2 1.944 2h31.1C35.13 36 36 35.105 36 34s-.87-2-1.944-2z"/></svg>