<svg width="62" height="59" viewBox="0 0 62 59" fill="none" xmlns="http://www.w3.org/2000/svg">
<g id="icon">
<g id="Group 47">
<ellipse id="Oval Copy 24" opacity="0.5" cx="28" cy="29.5" rx="27" ry="26.5" fill="#CFA6A1"/>
<g id="Group 14">
<mask id="mask0" style="mask-type:alpha" maskUnits="userSpaceOnUse" x="17" y="4" width="45" height="45">
<rect id="Mask" x="17.3658" y="4.46875" width="44.6341" height="44.0625" fill="white"/>
</mask>
<g mask="url(#mask0)">
<g id="Group 14_2">
<g id="Scientific Editing">
<g id="Combined Shape">
<path fill-rule="evenodd" clip-rule="evenodd" d="M60.0782 25.5314C59.4276 25.5314 58.9004 25.9694 58.9004 26.51C58.9004 35.1437 50.4463 42.1678 40.0549 42.1678C29.6634 42.1678 21.2093 35.1437 21.2093 26.51C21.2093 17.8763 29.6634 10.8522 40.0549 10.8522C44.378 10.8522 48.4769 12.0567 51.8036 14.2695L48.2202 15.0673C47.5917 15.207 47.219 15.7441 47.3872 16.2659C47.5281 16.7031 48.0044 16.9916 48.5245 16.9916C48.6253 16.9916 48.728 16.9806 48.8298 16.9583L54.5183 15.692C55.0215 15.5801 55.3913 15.1792 55.3913 14.7467V9.85361C55.3913 9.31303 54.8641 8.875 54.2135 8.875C53.5629 8.875 53.0357 9.31303 53.0357 9.85361V12.5863C49.3363 10.195 44.8171 8.89496 40.0549 8.89496C28.3645 8.89496 18.8536 16.7971 18.8536 26.51C18.8536 36.2229 28.3645 44.125 40.0549 44.125C51.7452 44.125 61.2561 36.2229 61.2561 26.51C61.2561 25.9694 60.7289 25.5314 60.0782 25.5314ZM26.0244 26.1088C26.1907 25.8007 30.2184 18.566 40.0549 18.566C49.8913 18.566 53.919 25.8007 54.0854 26.1088C54.2234 26.364 54.2234 26.656 54.0854 26.9112C53.919 27.2193 49.8913 34.454 40.0549 34.454C30.2184 34.454 26.1911 27.2193 26.0244 26.9112C25.8863 26.656 25.8863 26.364 26.0244 26.1088ZM28.4182 26.5104C29.3435 27.9219 32.894 32.4967 40.0549 32.4967C47.2133 32.4967 50.7643 27.9243 51.6915 26.51C50.7643 25.0957 47.2133 20.5232 40.0549 20.5232C32.8959 20.5232 29.3449 25.0961 28.4182 26.5104ZM40.0549 22.5955C37.457 22.5955 35.3435 24.3516 35.3435 26.51C35.3435 28.6684 37.457 30.4244 40.0549 30.4244C42.6527 30.4244 44.7662 28.6684 44.7662 26.51C44.7662 24.3516 42.6527 22.5955 40.0549 22.5955ZM40.0549 28.4672C38.7559 28.4672 37.6992 27.5892 37.6992 26.51C37.6992 25.4308 38.7559 24.5528 40.0549 24.5528C41.3538 24.5528 42.4105 25.4308 42.4105 26.51C42.4105 27.5892 41.3538 28.4672 40.0549 28.4672Z" fill="black"/>
<path d="M51.8036 14.2695L51.8254 14.3671L52.0543 14.3161L51.859 14.1862L51.8036 14.2695ZM48.2202 15.0673L48.2419 15.1649L48.2419 15.1649L48.2202 15.0673ZM47.3872 16.2659L47.4824 16.2352L47.4824 16.2352L47.3872 16.2659ZM48.8298 16.9583L48.8512 17.056L48.8515 17.0559L48.8298 16.9583ZM54.5183 15.692L54.4966 15.5944L54.4966 15.5944L54.5183 15.692ZM53.0357 12.5863L52.9814 12.6703L53.1357 12.77V12.5863H53.0357ZM26.0244 26.1088L26.1123 26.1563L26.1124 26.1563L26.0244 26.1088ZM54.0854 26.1088L53.9974 26.1563L53.9974 26.1563L54.0854 26.1088ZM54.0854 26.9112L53.9974 26.8636L53.9974 26.8637L54.0854 26.9112ZM26.0244 26.9112L25.9364 26.9588L25.9364 26.9588L26.0244 26.9112ZM28.4182 26.5104L28.3346 26.4556L28.2987 26.5104L28.3346 26.5652L28.4182 26.5104ZM51.6915 26.51L51.7751 26.5648L51.8111 26.51L51.7751 26.4552L51.6915 26.51ZM59.0004 26.51C59.0004 26.0412 59.4647 25.6314 60.0782 25.6314V25.4314C59.3905 25.4314 58.8004 25.8976 58.8004 26.51H59.0004ZM40.0549 42.2678C50.4834 42.2678 59.0004 35.2155 59.0004 26.51H58.8004C58.8004 35.0719 50.4092 42.0678 40.0549 42.0678V42.2678ZM21.1093 26.51C21.1093 35.2155 29.6264 42.2678 40.0549 42.2678V42.0678C29.7005 42.0678 21.3093 35.0719 21.3093 26.51H21.1093ZM40.0549 10.7522C29.6264 10.7522 21.1093 17.8045 21.1093 26.51H21.3093C21.3093 17.948 29.7005 10.9522 40.0549 10.9522V10.7522ZM51.859 14.1862C48.5148 11.9617 44.3964 10.7522 40.0549 10.7522V10.9522C44.3597 10.9522 48.4391 12.1516 51.7482 14.3528L51.859 14.1862ZM48.2419 15.1649L51.8254 14.3671L51.7819 14.1719L48.1984 14.9697L48.2419 15.1649ZM47.4824 16.2352C47.3373 15.7852 47.6534 15.2957 48.2419 15.1649L48.1984 14.9696C47.5299 15.1183 47.1007 15.703 47.292 16.2965L47.4824 16.2352ZM48.5245 16.8916C48.036 16.8916 47.6066 16.6209 47.4824 16.2352L47.292 16.2965C47.4495 16.7853 47.9728 17.0916 48.5245 17.0916V16.8916ZM48.8084 16.8607C48.7136 16.8814 48.6181 16.8916 48.5245 16.8916V17.0916C48.6325 17.0916 48.7424 17.0799 48.8512 17.056L48.8084 16.8607ZM54.4966 15.5944L48.8081 16.8607L48.8515 17.0559L54.5401 15.7896L54.4966 15.5944ZM55.2914 14.7467C55.2914 15.121 54.9661 15.4899 54.4966 15.5944L54.54 15.7896C55.0769 15.6702 55.4913 15.2374 55.4913 14.7467H55.2914ZM55.2914 9.85361V14.7467H55.4913V9.85361H55.2914ZM54.2135 8.975C54.8271 8.975 55.2914 9.3848 55.2914 9.85361H55.4913C55.4913 9.24125 54.9012 8.775 54.2135 8.775V8.975ZM53.1357 9.85361C53.1357 9.3848 53.5999 8.975 54.2135 8.975V8.775C53.5258 8.775 52.9357 9.24125 52.9357 9.85361H53.1357ZM53.1357 12.5863V9.85361H52.9357V12.5863H53.1357ZM40.0549 8.99496C44.7991 8.99496 49.2992 10.2901 52.9814 12.6703L53.0899 12.5023C49.3733 10.0998 44.8351 8.79496 40.0549 8.79496V8.99496ZM18.9536 26.51C18.9536 16.8688 28.4016 8.99496 40.0549 8.99496V8.79496C28.3274 8.79496 18.7536 16.7253 18.7536 26.51H18.9536ZM40.0549 44.025C28.4016 44.025 18.9536 36.1511 18.9536 26.51H18.7536C18.7536 36.2947 28.3274 44.225 40.0549 44.225V44.025ZM61.1561 26.51C61.1561 36.1511 51.7081 44.025 40.0549 44.025V44.225C51.7823 44.225 61.3561 36.2947 61.3561 26.51H61.1561ZM60.0782 25.6314C60.6918 25.6314 61.1561 26.0412 61.1561 26.51H61.3561C61.3561 25.8976 60.766 25.4314 60.0782 25.4314V25.6314ZM40.0549 18.466C30.1616 18.466 26.1079 25.7435 25.9364 26.0612L26.1124 26.1563C26.2734 25.8579 30.2752 18.666 40.0549 18.666V18.466ZM54.1734 26.0612C54.0018 25.7435 49.9481 18.466 40.0549 18.466V18.666C49.8345 18.666 53.8363 25.8579 53.9974 26.1563L54.1734 26.0612ZM54.1733 26.9588C54.3274 26.6739 54.3274 26.3461 54.1733 26.0612L53.9974 26.1563C54.1194 26.3819 54.1194 26.6381 53.9974 26.8636L54.1733 26.9588ZM40.0549 34.554C49.9481 34.554 54.0018 27.2765 54.1734 26.9587L53.9974 26.8637C53.8363 27.1621 49.8345 34.354 40.0549 34.354V34.554ZM25.9364 26.9588C26.1084 27.2764 30.1616 34.554 40.0549 34.554V34.354C30.2752 34.354 26.2739 27.1621 26.1123 26.8636L25.9364 26.9588ZM25.9364 26.0612C25.7823 26.3461 25.7823 26.6739 25.9364 26.9588L26.1123 26.8636C25.9903 26.6381 25.9903 26.3819 26.1123 26.1563L25.9364 26.0612ZM40.0549 32.3967C32.943 32.3967 29.419 27.8546 28.5018 26.4555L28.3346 26.5652C29.2681 27.9892 32.8451 32.5967 40.0549 32.5967V32.3967ZM51.6079 26.4552C50.6889 27.8569 47.1644 32.3967 40.0549 32.3967V32.5967C47.2623 32.5967 50.8397 27.9916 51.7751 26.5648L51.6079 26.4552ZM40.0549 20.6232C47.1644 20.6232 50.6889 25.163 51.6079 26.5648L51.7751 26.4552C50.8397 25.0284 47.2623 20.4232 40.0549 20.4232V20.6232ZM28.5019 26.5652C29.4204 25.1634 32.9448 20.6232 40.0549 20.6232V20.4232C32.847 20.4232 29.2695 25.0287 28.3346 26.4556L28.5019 26.5652ZM35.4435 26.51C35.4435 24.4233 37.4941 22.6955 40.0549 22.6955V22.4955C37.4199 22.4955 35.2435 24.2798 35.2435 26.51H35.4435ZM40.0549 30.3244C37.4941 30.3244 35.4435 28.5966 35.4435 26.51H35.2435C35.2435 28.7402 37.4199 30.5244 40.0549 30.5244V30.3244ZM44.6662 26.51C44.6662 28.5966 42.6156 30.3244 40.0549 30.3244V30.5244C42.6898 30.5244 44.8662 28.7402 44.8662 26.51H44.6662ZM40.0549 22.6955C42.6156 22.6955 44.6662 24.4233 44.6662 26.51H44.8662C44.8662 24.2798 42.6898 22.4955 40.0549 22.4955V22.6955ZM37.5992 26.51C37.5992 27.661 38.7188 28.5672 40.0549 28.5672V28.3672C38.793 28.3672 37.7992 27.5174 37.7992 26.51H37.5992ZM40.0549 24.4528C38.7188 24.4528 37.5992 25.359 37.5992 26.51H37.7992C37.7992 25.5025 38.793 24.6528 40.0549 24.6528V24.4528ZM42.5105 26.51C42.5105 25.359 41.3909 24.4528 40.0549 24.4528V24.6528C41.3167 24.6528 42.3105 25.5025 42.3105 26.51H42.5105ZM40.0549 28.5672C41.3909 28.5672 42.5105 27.661 42.5105 26.51H42.3105C42.3105 27.5174 41.3167 28.3672 40.0549 28.3672V28.5672Z" fill="black"/>
</g>
</g>
</g>
</g>
</g>
</g>
</g>
</svg>
