<?xml version="1.0" encoding="UTF-8"?>
<svg width="23px" height="23px" viewBox="0 0 23 23" version="1.1" xmlns="http://www.w3.org/2000/svg" xmlns:xlink="http://www.w3.org/1999/xlink">
    <title>C695C1B6-7B6A-4262-B5EF-0BB7372A813F</title>
    <g id="Page-1" stroke="none" stroke-width="1" fill="none" fill-rule="evenodd">
        <g id="Small-offer-banner-scientifc-editing.-" transform="translate(-230.000000, -418.000000)" fill="#FFFFFF" fill-rule="nonzero">
            <path d="M241.5,418 C243.025263,418 244.477895,418.290526 245.833684,418.871579 L245.833684,418.871579 L243.606316,421.776842 C242.928421,421.583158 242.226316,421.486316 241.5,421.486316 C237.069474,421.486316 233.486316,425.069474 233.486316,429.5 C233.486316,433.930526 237.093684,437.513684 241.5,437.513684 C245.906316,437.513684 249.513684,433.930526 249.513684,429.5 C249.513684,429.064211 249.489474,428.628421 249.416842,428.216842 L249.416842,428.216842 L252.007368,424.827368 C252.636842,426.255789 253,427.829474 253,429.5 C253,435.843158 247.843158,441 241.5,441 C235.156842,441 230,435.843158 230,429.5 C230,423.156842 235.156842,418 241.5,418 Z M248.109474,420.009474 C248.690526,419.258947 249.78,419.113684 250.554737,419.694737 C251.305263,420.275789 251.450526,421.365263 250.869474,422.14 L250.869474,422.14 L242.444211,433.155789 C242.129474,433.591579 241.596842,433.833684 241.064211,433.833684 L241.064211,433.833684 L240.905293,433.825792 C240.431589,433.778726 239.989263,433.523789 239.684211,433.131579 L239.684211,433.131579 L236.875789,429.403158 C236.294737,428.628421 236.44,427.538947 237.214737,426.957895 C237.989474,426.376842 239.078947,426.522105 239.66,427.296842 L239.66,427.296842 L241.064211,429.209474 Z" id="Combined-Shape"></path>
        </g>
    </g>
</svg>