<svg width="60" height="58" viewBox="0 0 60 58" fill="none" xmlns="http://www.w3.org/2000/svg">
<circle cx="25.5" cy="32.5" r="25.5" fill="#96E6D6"/>
<path d="M34.8777 15.0396H43.9574C49.2873 15.0396 53.608 19.4762 53.608 24.949C53.608 30.4218 49.2873 34.8584 43.9574 34.8584H20.52V32.0272H43.9574C47.7644 32.0272 50.8507 28.8582 50.8507 24.949C50.8507 21.0399 47.7644 17.8709 43.9574 17.8709H34.8777L38.0389 21.1168L36.0892 23.1188L29.5996 16.4553L36.0892 9.79175L38.0389 11.7937L34.8777 15.0396Z" fill="black"/>
<path d="M26.6058 16.4553L31.1456 21.1168L29.1958 23.1188L22.7063 16.4553L29.1958 9.79175L31.1456 11.7937L26.6058 16.4553Z" fill="#262626"/>
</svg>
