<svg width="72" height="59" viewBox="0 0 72 59" fill="none" xmlns="http://www.w3.org/2000/svg">
<g id="icon">
<circle id="Oval" cx="29.5" cy="29.5" r="29.5" fill="#FFEDB3"/>
<g id="Group 11">
<mask id="mask0" style="mask-type:alpha" maskUnits="userSpaceOnUse" x="17" y="2" width="55" height="55">
<rect id="Mask" x="17" y="2" width="55" height="55" fill="white"/>
</mask>
<g mask="url(#mask0)">
<g id="Group 11_2">
<g id="Group 10">
<g id="Group 29">
<g id="Group 36">
<g id="Group 33">
<g id="Group 13">
<g id="Group 13_2">
<path id="Shape" fill-rule="evenodd" clip-rule="evenodd" d="M53.0724 14.8992C54.9909 14.8992 56.546 16.4832 56.546 18.4373V20.4037V49.3457C56.546 51.2709 55.0136 52.8318 53.1235 52.8318H29.261C27.3709 52.8318 25.8386 51.2709 25.8386 49.3457V18.3853C25.8386 16.46 27.3709 14.8992 29.261 14.8992H51.0468H53.0724ZM53.971 48.1998V21.7144L53.9263 19.4885C53.9043 18.3954 53.0284 17.5213 51.9553 17.5213H49.76H30.3853C29.2965 17.5213 28.4136 18.4207 28.4136 19.5297V48.1998C28.4136 49.3088 29.2965 50.2082 30.3853 50.2082H51.9993C53.0881 50.2082 53.971 49.3088 53.971 48.1998Z" fill="black"/>
<path id="Path" d="M50.1336 23.2282H34.0572C33.5082 23.2282 33.0638 22.8236 33.0638 22.325C33.0638 21.8259 33.5089 21.4219 34.0572 21.4219H50.1336C50.6826 21.4219 51.127 21.8265 51.127 22.325C51.127 22.8236 50.6819 23.2282 50.1336 23.2282Z" fill="black"/>
<path id="Path_2" d="M50.1336 28.8854H34.0572C33.5082 28.8854 33.0638 28.4808 33.0638 27.9823C33.0638 27.4831 33.5089 27.0791 34.0572 27.0791H50.1336C50.6826 27.0791 51.127 27.4837 51.127 27.9823C51.127 28.4814 50.6819 28.8854 50.1336 28.8854Z" fill="black"/>
<path id="Path_3" d="M50.1336 34.5429H34.0572C33.5082 34.5429 33.0638 34.1382 33.0638 33.6397C33.0638 33.1412 33.5089 32.7366 34.0572 32.7366H50.1336C50.6826 32.7366 51.127 33.1412 51.127 33.6397C51.127 34.1382 50.6819 34.5429 50.1336 34.5429Z" fill="black"/>
<path id="Path_4" d="M50.1336 40.2001H34.0572C33.5082 40.2001 33.0638 39.7955 33.0638 39.297C33.0638 38.7984 33.5089 38.3938 34.0572 38.3938H50.1336C50.6826 38.3938 51.127 38.7984 51.127 39.297C51.127 39.7955 50.6819 40.2001 50.1336 40.2001Z" fill="black"/>
<path id="Path_5" d="M50.1336 45.8573H34.0572C33.5082 45.8573 33.0638 45.4527 33.0638 44.9542C33.0638 44.4557 33.5089 44.051 34.0572 44.051H50.1336C50.6826 44.051 51.127 44.4557 51.127 44.9542C51.127 45.4527 50.6819 45.8573 50.1336 45.8573Z" fill="black"/>
<path id="Path_6" d="M60.2977 7.67383H58.2721H36.4863C34.5962 7.67383 33.0638 9.23468 33.0638 11.1599V12.5711H35.6388V12.3051C35.6388 11.1961 36.5217 10.2967 37.6105 10.2967H56.9853H59.1805C60.2537 10.2967 61.1295 11.1708 61.1515 12.2639L61.1962 14.4898V40.9752C61.1962 42.0842 60.3133 42.9836 59.2245 42.9836H58.3225V45.6065H60.3488C62.2389 45.6065 63.7712 44.0456 63.7712 42.1204V13.1784V11.212C63.7712 9.25782 62.2161 7.67383 60.2977 7.67383Z" fill="black"/>
</g>
</g>
<g id="Group 27">
<circle id="Oval_2" cx="59.2554" cy="38.8328" r="9.03158" fill="white"/>
<g id="noun_Check_1896654">
<g id="Group">
<path id="Shape_2" fill-rule="evenodd" clip-rule="evenodd" d="M48.5304 38.8327C48.5304 32.917 53.3397 28.1077 59.2554 28.1077C62.9003 28.1077 66.1253 29.9335 68.064 32.7189C69.2718 34.4542 69.9804 36.5619 69.9804 38.8327C69.9804 44.7484 65.1711 49.5577 59.2554 49.5577C53.3397 49.5577 48.5304 44.7484 48.5304 38.8327ZM50.4722 38.8327C50.4722 43.6646 54.401 47.6159 59.2554 47.6159C64.1099 47.6159 68.0386 43.6871 68.0386 38.8327C68.0386 33.9782 64.1099 30.0495 59.2554 30.0495C54.401 30.0495 50.4722 34.0008 50.4722 38.8327Z" fill="black"/>
<path id="Path_7" d="M62.7552 35.2202L58.1942 40.3907L55.7105 37.9071C55.3267 37.5232 54.7171 37.5232 54.3332 37.9071C53.9494 38.2909 53.9494 38.9005 54.3332 39.2618L57.5394 42.468C57.7201 42.6486 57.9684 42.7615 58.2168 42.7615H58.2394C58.5103 42.7615 58.7587 42.6261 58.9393 42.4454L64.1551 36.5072C64.5163 36.1007 64.4712 35.4911 64.0648 35.1524C63.7035 34.7912 63.0939 34.8363 62.7552 35.2202Z" fill="black"/>
</g>
</g>
</g>
</g>
</g>
</g>
</g>
</g>
</g>
</g>
</g>
</svg>
