<svg xmlns="http://www.w3.org/2000/svg" width="34" height="27" fill-rule="evenodd" xmlns:v="https://vecta.io/nano"><circle fill="#ae9fe1" opacity=".5" cx="11.5" cy="15.5" r="11.5"/><path d="M29.18 3.668a1.73 1.73 0 0 0 1.723-1.723 1.723 1.723 0 1 0-3.446 0 1.73 1.73 0 0 0 1.723 1.723zm0-2.437a.74.74 0 0 1 .738.738.74.74 0 0 1-.738.738c-.418 0-.738-.32-.738-.738a.74.74 0 0 1 .738-.738zM13.4 4.33a1.43 1.43 0 0 0 1.428-1.428A1.43 1.43 0 0 0 13.4 1.477a1.43 1.43 0 0 0-1.428 1.428A1.43 1.43 0 0 0 13.4 4.332zm0-1.87a.44.44 0 0 1 .443.443.443.443 0 1 1-.886 0 .44.44 0 0 1 .443-.443zm3.47.64a1.43 1.43 0 0 0 1.428-1.428A1.43 1.43 0 0 0 16.871.246a1.43 1.43 0 0 0-1.428 1.428 1.43 1.43 0 0 0 1.428 1.428zm0-1.87a.44.44 0 0 1 .443.443.443.443 0 1 1-.886 0 .44.44 0 0 1 .443-.443zm15.73 7.3h-2.043V5.908h.812c.27 0 .492-.222.492-.492s-.222-.492-.492-.492h-8.1c-.27 0-.492.222-.492.492s.222.492.492.492h.788v2.658h-5.563V5.908h.788c.27 0 .492-.222.492-.492s-.222-.492-.492-.492h-8.098c-.27 0-.492.222-.492.492s.222.492.492.492h.788v2.658h-2.02c-.27 0-.492.222-.492.492s.222.492.492.492h2.043v11.2a3.13 3.13 0 0 0 3.126 3.126h.222a3.16 3.16 0 0 0 3.151-3.151v-11.2h5.563v11.2a3.16 3.16 0 0 0 3.151 3.151h.222a3.16 3.16 0 0 0 3.151-3.151v-11.2h2.02c.27 0 .492-.222.492-.492s-.222-.492-.492-.492zM12.982 5.908h4.53v2.658h-4.53V5.908zm2.363 16.985h-.222a2.17 2.17 0 0 1-2.166-2.166v-5.834h4.53v5.858c.025 1.182-.935 2.142-2.142 2.142zm2.166-8.985h-4.53V9.526h4.53v4.382zm7.532-8h4.53v2.658h-4.53V5.908zm2.388 16.985h-.23a2.17 2.17 0 0 1-2.166-2.166v-8h4.53v8.025c0 1.182-.96 2.142-2.142 2.142zm2.142-11.15h-4.53V9.526h4.53v2.215z" fill-rule="nonzero"/></svg>