<svg width="40" height="40" viewBox="0 0 40 40" fill="none" xmlns="http://www.w3.org/2000/svg">
<g clip-path="url(#clip0_44:149)">
<circle opacity="0.5" cx="20" cy="20" r="16" fill="#6882DA"/>
<path fill-rule="evenodd" clip-rule="evenodd" d="M36.5837 23.0679L40.1087 29.1729L40.1107 29.1689C40.2056 29.3334 40.192 29.5389 40.0761 29.6894C39.9602 29.8399 39.765 29.9056 39.5817 29.8559L37.1267 29.1899L36.4757 31.6489C36.4268 31.8322 36.2723 31.9679 36.0843 31.9928C35.8963 32.0178 35.7118 31.9271 35.6167 31.7629L32.6087 26.5529C32.26 26.8745 31.8031 27.053 31.3287 27.0529C30.9085 27.0535 30.5002 26.9126 30.1697 26.6529C29.8279 26.3831 29.3456 26.3831 29.0037 26.6529C28.2766 27.2233 27.2428 27.1809 26.5647 26.5529L23.5567 31.7629C23.4617 31.9271 23.2772 32.0178 23.0892 31.9928C22.9012 31.9679 22.7467 31.8322 22.6977 31.6489L22.0467 29.1899L19.5917 29.8559C19.4085 29.9056 19.2133 29.8399 19.0974 29.6894C18.9815 29.5389 18.9679 29.3334 19.0627 29.1689L22.5877 23.0639C22.457 22.9135 22.282 22.8085 22.0877 22.7639C21.5351 22.6337 21.0708 22.2608 20.8245 21.7492C20.5781 21.2377 20.576 20.6422 20.8187 20.1289C21.006 19.7357 20.8988 19.2653 20.5597 18.9919C20.1186 18.6348 19.8623 18.0975 19.8623 17.5299C19.8623 16.9623 20.1186 16.4251 20.5597 16.0679C20.8988 15.7945 21.006 15.3242 20.8187 14.9309C20.5753 14.4173 20.5771 13.8211 20.8237 13.309C21.0704 12.7969 21.5354 12.4238 22.0887 12.2939C22.513 12.1949 22.8137 11.8176 22.8157 11.3819C22.8199 10.8144 23.0802 10.279 23.5239 9.92516C23.9677 9.57129 24.5475 9.4367 25.1017 9.55892C25.5267 9.65341 25.9609 9.44414 26.1517 9.05292C26.4017 8.54319 26.8685 8.17359 27.4219 8.04722C27.9754 7.92084 28.5563 8.05119 29.0027 8.40192C29.3446 8.67173 29.8269 8.67173 30.1687 8.40192C30.616 8.0516 31.1975 7.92215 31.7511 8.04972C32.3047 8.17729 32.771 8.54821 33.0197 9.05892C33.2107 9.45057 33.6455 9.65992 34.0707 9.56492C34.625 9.4427 35.2048 9.57729 35.6486 9.93116C36.0923 10.285 36.3526 10.8204 36.3567 11.3879C36.3588 11.8236 36.6595 12.2009 37.0837 12.2999C37.6364 12.4302 38.1007 12.8031 38.347 13.3146C38.5934 13.8262 38.5955 14.4216 38.3527 14.9349C38.1655 15.3282 38.2727 15.7985 38.6117 16.0719C39.0529 16.4291 39.3092 16.9663 39.3092 17.5339C39.3092 18.1015 39.0529 18.6388 38.6117 18.9959C38.2727 19.2693 38.1655 19.7397 38.3527 20.1329C38.5955 20.6462 38.5934 21.2417 38.347 21.7532C38.1007 22.2648 37.6364 22.6377 37.0837 22.7679C36.8895 22.8125 36.7144 22.9175 36.5837 23.0679ZM22.8317 28.5019L23.3087 30.3139L25.9547 25.7399C25.7276 25.5231 25.4073 25.4338 25.1007 25.5019C24.1926 25.7005 23.2756 25.2059 22.9427 24.3379L20.4427 28.6619L22.2557 28.1699C22.3762 28.1373 22.5046 28.1539 22.6127 28.2162C22.7208 28.2785 22.7997 28.3814 22.8317 28.5019ZM31.5387 26.0959C31.2611 26.1598 30.9694 26.0944 30.7457 25.9179C30.0642 25.3798 29.1023 25.3798 28.4207 25.9179C28.197 26.0941 27.9056 26.1596 27.6279 26.0963C27.3503 26.033 27.1161 25.8476 26.9907 25.5919C26.6103 24.8116 25.7441 24.3942 24.8967 24.5829C24.6186 24.6446 24.3274 24.5771 24.1047 24.3994C23.8819 24.2217 23.7515 23.9529 23.7497 23.6679C23.7457 22.7996 23.1463 22.0476 22.3007 21.8499C22.0234 21.7847 21.7905 21.5975 21.667 21.3408C21.5435 21.0841 21.5427 20.7853 21.6647 20.5279C22.0374 19.7439 21.8236 18.8067 21.1477 18.2619C20.9262 18.0829 20.7974 17.8133 20.7974 17.5284C20.7974 17.2436 20.9262 16.974 21.1477 16.7949C21.8236 16.2502 22.0374 15.3129 21.6647 14.5289C21.5427 14.2715 21.5435 13.9727 21.667 13.716C21.7905 13.4593 22.0234 13.2722 22.3007 13.2069C23.1463 13.0093 23.7457 12.2572 23.7497 11.3889C23.7515 11.104 23.8819 10.8351 24.1047 10.6574C24.3274 10.4797 24.6186 10.4123 24.8967 10.4739C25.7441 10.6626 26.6103 10.2453 26.9907 9.46492C27.1161 9.2092 27.3503 9.02382 27.6279 8.96052C27.9056 8.89722 28.197 8.96279 28.4207 9.13892C29.1023 9.67705 30.0642 9.67705 30.7457 9.13892C30.9695 8.96279 31.2609 8.89722 31.5386 8.96052C31.8162 9.02382 32.0504 9.2092 32.1757 9.46492C32.5562 10.2453 33.4224 10.6626 34.2697 10.4739C34.5479 10.4123 34.8391 10.4797 35.0618 10.6574C35.2846 10.8351 35.415 11.104 35.4167 11.3889C35.4202 12.2589 36.0213 13.0123 36.8687 13.2089C37.146 13.2742 37.379 13.4613 37.5025 13.718C37.626 13.9747 37.6268 14.2735 37.5047 14.5309C37.1321 15.3149 37.3459 16.2522 38.0217 16.7969C38.2433 16.976 38.3721 17.2456 38.3721 17.5304C38.3721 17.8153 38.2433 18.0849 38.0217 18.2639C37.3459 18.8087 37.1321 19.7459 37.5047 20.5299C37.6268 20.7873 37.626 21.0861 37.5025 21.3428C37.379 21.5995 37.146 21.7867 36.8687 21.8519C36.0232 22.0496 35.4238 22.8016 35.4197 23.6699C35.418 23.9549 35.2876 24.2237 35.0648 24.4014C34.8421 24.5791 34.5509 24.6466 34.2727 24.5849C33.4254 24.3962 32.5592 24.8136 32.1787 25.5939C32.0527 25.8498 31.8172 26.0345 31.5387 26.0959ZM36.5568 28.2112C36.6649 28.1489 36.7933 28.1323 36.9137 28.1649L38.7307 28.6559L36.2307 24.3319C35.8979 25.2025 34.9778 25.6981 34.0677 25.4969C33.7612 25.4286 33.4408 25.5179 33.2137 25.7349L35.8567 30.3129L36.3377 28.4969C36.3698 28.3764 36.4487 28.2735 36.5568 28.2112Z" fill="black"/>
<path d="M40.1087 29.1729L39.9788 29.2479L40.1182 29.4893L40.2429 29.24L40.1087 29.1729ZM36.5837 23.0679L36.4705 22.9695L36.4004 23.0503L36.4538 23.1429L36.5837 23.0679ZM40.1107 29.1689L40.2407 29.094L40.1013 28.8524L39.9766 29.1018L40.1107 29.1689ZM39.5817 29.8559L39.5425 30.0007L39.5425 30.0007L39.5817 29.8559ZM37.1267 29.1899L37.166 29.0452L37.0204 29.0056L36.9817 29.1515L37.1267 29.1899ZM36.4757 31.6489L36.6207 31.6876L36.6208 31.6873L36.4757 31.6489ZM35.6167 31.7629L35.4868 31.8379L35.4869 31.8381L35.6167 31.7629ZM32.6087 26.5529L32.7387 26.4779L32.6449 26.3155L32.5071 26.4426L32.6087 26.5529ZM31.3287 27.0529L31.3288 26.9029L31.3286 26.9029L31.3287 27.0529ZM30.1697 26.6529L30.0768 26.7707L30.0771 26.7709L30.1697 26.6529ZM29.0037 26.6529L29.0963 26.771L29.0967 26.7707L29.0037 26.6529ZM26.5647 26.5529L26.6667 26.4429L26.5288 26.3152L26.4348 26.4779L26.5647 26.5529ZM23.5567 31.7629L23.6866 31.8381L23.6867 31.8379L23.5567 31.7629ZM23.0892 31.9928L23.1089 31.8442L23.1089 31.8442L23.0892 31.9928ZM22.6977 31.6489L22.5527 31.6873L22.5528 31.6876L22.6977 31.6489ZM22.0467 29.1899L22.1918 29.1515L22.1531 29.0056L22.0075 29.0452L22.0467 29.1899ZM19.5917 29.8559L19.631 30.0007L19.631 30.0007L19.5917 29.8559ZM19.0627 29.1689L18.9328 29.0939L18.9328 29.094L19.0627 29.1689ZM22.5877 23.0639L22.7176 23.1389L22.7711 23.0463L22.701 22.9655L22.5877 23.0639ZM22.0877 22.7639L22.0533 22.9099L22.0542 22.9101L22.0877 22.7639ZM20.8187 20.1289L20.6833 20.0645L20.6831 20.0648L20.8187 20.1289ZM20.5597 18.9919L20.4654 19.1085L20.4656 19.1087L20.5597 18.9919ZM20.5597 16.0679L20.4656 15.9512L20.4654 15.9513L20.5597 16.0679ZM20.8187 14.9309L20.6832 14.9952L20.6833 14.9954L20.8187 14.9309ZM20.8237 13.309L20.6886 13.2439L20.6886 13.2439L20.8237 13.309ZM22.0887 12.2939L22.0546 12.1479L22.0545 12.1479L22.0887 12.2939ZM22.8157 11.3819L22.6658 11.3808L22.6657 11.3812L22.8157 11.3819ZM25.1017 9.55892L25.1343 9.4125L25.134 9.41244L25.1017 9.55892ZM26.1517 9.05292L26.0171 8.98689L26.0169 8.98716L26.1517 9.05292ZM27.4219 8.04722L27.4553 8.19345L27.4553 8.19345L27.4219 8.04722ZM29.0027 8.40192L29.0957 8.28418L29.0954 8.28397L29.0027 8.40192ZM30.1687 8.40192L30.0762 8.28384L30.0758 8.28418L30.1687 8.40192ZM33.0197 9.05892L32.8849 9.12461L32.8849 9.12466L33.0197 9.05892ZM34.0707 9.56492L34.0384 9.41844L34.038 9.41853L34.0707 9.56492ZM36.3567 11.3879L36.5067 11.3872L36.5067 11.3868L36.3567 11.3879ZM37.0837 12.2999L37.1182 12.1539L37.1179 12.1539L37.0837 12.2999ZM38.3527 14.9349L38.4882 14.9994L38.4884 14.9991L38.3527 14.9349ZM38.6117 16.0719L38.7061 15.9553L38.7059 15.9552L38.6117 16.0719ZM38.6117 18.9959L38.7059 19.1127L38.7061 19.1125L38.6117 18.9959ZM38.3527 20.1329L38.4884 20.0688L38.4882 20.0685L38.3527 20.1329ZM37.0837 22.7679L37.1173 22.9141L37.1182 22.9139L37.0837 22.7679ZM23.3087 30.3139L23.1637 30.3521L23.2563 30.7041L23.4386 30.389L23.3087 30.3139ZM22.8317 28.5019L22.9768 28.4637L22.9767 28.4633L22.8317 28.5019ZM25.9547 25.7399L26.0846 25.815L26.1437 25.7129L26.0583 25.6314L25.9547 25.7399ZM25.1007 25.5019L25.1328 25.6485L25.1333 25.6484L25.1007 25.5019ZM22.9427 24.3379L23.0828 24.2842L22.9702 23.9907L22.8129 24.2628L22.9427 24.3379ZM20.4427 28.6619L20.3129 28.5868L20.1307 28.902L20.482 28.8067L20.4427 28.6619ZM22.2557 28.1699L22.2165 28.0252L22.2165 28.0252L22.2557 28.1699ZM22.6127 28.2162L22.6876 28.0863L22.6876 28.0863L22.6127 28.2162ZM30.7457 25.9179L30.6528 26.0357L30.6529 26.0357L30.7457 25.9179ZM31.5387 26.0959L31.5064 25.9494L31.5051 25.9497L31.5387 26.0959ZM28.4207 25.9179L28.5135 26.0358L28.5137 26.0357L28.4207 25.9179ZM27.6279 26.0963L27.6613 25.9501L27.6613 25.9501L27.6279 26.0963ZM26.9907 25.5919L26.8559 25.6577L26.8561 25.6579L26.9907 25.5919ZM24.8967 24.5829L24.9292 24.7294L24.9294 24.7293L24.8967 24.5829ZM24.1047 24.3994L24.1982 24.2822L24.1982 24.2822L24.1047 24.3994ZM23.7497 23.6679L23.5997 23.6686L23.5998 23.6688L23.7497 23.6679ZM22.3007 21.8499L22.2664 21.9959L22.2666 21.996L22.3007 21.8499ZM21.6647 20.5279L21.5293 20.4635L21.5292 20.4636L21.6647 20.5279ZM21.1477 18.2619L21.0535 18.3786L21.0536 18.3787L21.1477 18.2619ZM21.1477 16.7949L21.0536 16.6781L21.0535 16.6782L21.1477 16.7949ZM21.6647 14.5289L21.5292 14.5932L21.5293 14.5933L21.6647 14.5289ZM21.667 13.716L21.5318 13.651L21.5318 13.651L21.667 13.716ZM22.3007 13.2069L22.2666 13.0609L22.2664 13.0609L22.3007 13.2069ZM23.7497 11.3889L23.5998 11.388L23.5997 11.3882L23.7497 11.3889ZM24.1047 10.6574L24.0111 10.5402L24.0111 10.5402L24.1047 10.6574ZM24.8967 10.4739L24.9294 10.3275L24.9292 10.3275L24.8967 10.4739ZM26.9907 9.46492L26.8561 9.39891L26.8559 9.39919L26.9907 9.46492ZM27.6279 8.96052L27.6613 9.10677L27.6613 9.10677L27.6279 8.96052ZM28.4207 9.13892L28.5137 9.02119L28.5135 9.02105L28.4207 9.13892ZM30.7457 9.13892L30.653 9.02105L30.6528 9.02119L30.7457 9.13892ZM31.5386 8.96052L31.5719 8.81427L31.5719 8.81427L31.5386 8.96052ZM32.1757 9.46492L32.3106 9.39919L32.3104 9.39891L32.1757 9.46492ZM34.2697 10.4739L34.2373 10.3275L34.2371 10.3275L34.2697 10.4739ZM35.0618 10.6574L34.9683 10.7747L34.9683 10.7747L35.0618 10.6574ZM35.4167 11.3889L35.5667 11.3883L35.5667 11.388L35.4167 11.3889ZM36.8687 13.2089L36.9031 13.0629L36.9026 13.0628L36.8687 13.2089ZM37.5025 13.718L37.6377 13.653L37.6377 13.653L37.5025 13.718ZM37.5047 14.5309L37.6402 14.5953L37.6403 14.5952L37.5047 14.5309ZM38.0217 16.7969L38.116 16.6802L38.1159 16.6801L38.0217 16.7969ZM38.0217 18.2639L38.1159 18.3807L38.116 18.3806L38.0217 18.2639ZM37.5047 20.5299L37.6403 20.4656L37.6402 20.4655L37.5047 20.5299ZM36.8687 21.8519L36.9029 21.998L36.9031 21.9979L36.8687 21.8519ZM35.4197 23.6699L35.5697 23.6708L35.5697 23.6706L35.4197 23.6699ZM34.2727 24.5849L34.2401 24.7313L34.2403 24.7314L34.2727 24.5849ZM32.1787 25.5939L32.3133 25.6602L32.3136 25.6597L32.1787 25.5939ZM36.9137 28.1649L36.8745 28.3097L36.8746 28.3097L36.9137 28.1649ZM36.5568 28.2112L36.4819 28.0813L36.4819 28.0813L36.5568 28.2112ZM38.7307 28.6559L38.6916 28.8007L39.0426 28.8956L38.8606 28.5808L38.7307 28.6559ZM36.2307 24.3319L36.3606 24.2568L36.203 23.9843L36.0906 24.2784L36.2307 24.3319ZM34.0677 25.4969L34.0351 25.6433L34.0354 25.6434L34.0677 25.4969ZM33.2137 25.7349L33.1101 25.6265L33.0249 25.7079L33.0838 25.8099L33.2137 25.7349ZM35.8567 30.3129L35.7268 30.3879L35.9086 30.7028L36.0017 30.3513L35.8567 30.3129ZM36.3377 28.4969L36.1928 28.4583L36.1927 28.4585L36.3377 28.4969ZM40.2386 29.0979L36.7136 22.9929L36.4538 23.1429L39.9788 29.2479L40.2386 29.0979ZM39.9766 29.1018L39.9746 29.1058L40.2429 29.24L40.2449 29.236L39.9766 29.1018ZM40.1949 29.7809C40.3479 29.5823 40.3659 29.3111 40.2407 29.094L39.9808 29.2439C40.0454 29.3558 40.0361 29.4955 39.9572 29.5979L40.1949 29.7809ZM39.5425 30.0007C39.7844 30.0663 40.042 29.9795 40.1949 29.7809L39.9572 29.5979C39.8784 29.7002 39.7457 29.745 39.621 29.7112L39.5425 30.0007ZM37.0875 29.3347L39.5425 30.0007L39.621 29.7112L37.166 29.0452L37.0875 29.3347ZM36.6208 31.6873L37.2718 29.2283L36.9817 29.1515L36.3307 31.6105L36.6208 31.6873ZM36.1041 32.1415C36.3522 32.1086 36.5561 31.9295 36.6207 31.6876L36.3308 31.6102C36.2975 31.7349 36.1925 31.8272 36.0646 31.8442L36.1041 32.1415ZM35.4869 31.8381C35.6124 32.0547 35.8559 32.1745 36.1041 32.1415L36.0646 31.8442C35.9367 31.8611 35.8112 31.7994 35.7466 31.6878L35.4869 31.8381ZM32.4788 26.6279L35.4868 31.8379L35.7467 31.6879L32.7387 26.4779L32.4788 26.6279ZM31.3287 27.2029C31.8407 27.203 32.334 27.0103 32.7104 26.6632L32.5071 26.4426C32.1861 26.7386 31.7654 26.903 31.3288 26.9029L31.3287 27.2029ZM30.0771 26.7709C30.434 27.0513 30.875 27.2035 31.3289 27.2029L31.3286 26.9029C30.9419 26.9034 30.5664 26.7738 30.2624 26.535L30.0771 26.7709ZM29.0967 26.7707C29.384 26.5439 29.7895 26.5439 30.0768 26.7707L30.2627 26.5352C29.8663 26.2224 29.3071 26.2224 28.9108 26.5352L29.0967 26.7707ZM26.4628 26.663C27.1949 27.341 28.3112 27.3868 29.0963 26.7709L28.9112 26.5349C28.242 27.0598 27.2906 27.0208 26.6667 26.4429L26.4628 26.663ZM23.6867 31.8379L26.6947 26.6279L26.4348 26.4779L23.4268 31.6879L23.6867 31.8379ZM23.0694 32.1415C23.3176 32.1745 23.5611 32.0547 23.6866 31.8381L23.4269 31.6878C23.3623 31.7994 23.2368 31.8611 23.1089 31.8442L23.0694 32.1415ZM22.5528 31.6876C22.6174 31.9295 22.8213 32.1086 23.0694 32.1415L23.1089 31.8442C22.981 31.8272 22.876 31.7349 22.8427 31.6102L22.5528 31.6876ZM21.9017 29.2283L22.5527 31.6873L22.8428 31.6105L22.1918 29.1515L21.9017 29.2283ZM19.631 30.0007L22.086 29.3347L22.0075 29.0452L19.5525 29.7112L19.631 30.0007ZM18.9786 29.7809C19.1315 29.9795 19.3891 30.0663 19.631 30.0007L19.5525 29.7112C19.4278 29.745 19.2951 29.7002 19.2163 29.5979L18.9786 29.7809ZM18.9328 29.094C18.8076 29.3111 18.8256 29.5823 18.9786 29.7809L19.2163 29.5979C19.1374 29.4955 19.1281 29.3558 19.1927 29.2439L18.9328 29.094ZM22.4578 22.9889L18.9328 29.0939L19.1926 29.2439L22.7176 23.1389L22.4578 22.9889ZM22.0542 22.9101C22.2175 22.9476 22.3647 23.0359 22.4745 23.1623L22.701 22.9655C22.5494 22.7911 22.3465 22.6694 22.1213 22.6177L22.0542 22.9101ZM20.6893 21.8143C20.9553 22.3667 21.4566 22.7693 22.0533 22.9099L22.1222 22.6179C21.6136 22.4981 21.1863 22.1549 20.9596 21.6841L20.6893 21.8143ZM20.6831 20.0648C20.4211 20.619 20.4233 21.262 20.6893 21.8143L20.9596 21.6841C20.7329 21.2134 20.731 20.6654 20.9543 20.1931L20.6831 20.0648ZM20.4656 19.1087C20.7506 19.3385 20.8407 19.7339 20.6833 20.0645L20.9542 20.1934C21.1712 19.7374 21.047 19.1921 20.6539 18.8752L20.4656 19.1087ZM19.7123 17.5299C19.7123 18.1428 19.989 18.7229 20.4654 19.1085L20.6541 18.8753C20.2481 18.5467 20.0123 18.0523 20.0123 17.5299H19.7123ZM20.4654 15.9513C19.989 16.337 19.7123 16.9171 19.7123 17.5299H20.0123C20.0123 17.0076 20.2481 16.5132 20.6541 16.1845L20.4654 15.9513ZM20.6833 14.9954C20.8407 15.326 20.7506 15.7213 20.4656 15.9512L20.6539 16.1847C21.047 15.8677 21.1712 15.3224 20.9542 14.8665L20.6833 14.9954ZM20.6886 13.2439C20.4223 13.7969 20.4203 14.4406 20.6832 14.9952L20.9543 14.8667C20.7302 14.394 20.7319 13.8454 20.9589 13.3741L20.6886 13.2439ZM22.0545 12.1479C21.457 12.2881 20.9549 12.691 20.6886 13.2439L20.9589 13.3741C21.1859 12.9028 21.6138 12.5594 22.123 12.44L22.0545 12.1479ZM22.6657 11.3812C22.6641 11.7474 22.4112 12.0646 22.0546 12.1479L22.1229 12.44C22.6147 12.3251 22.9634 11.8877 22.9657 11.3826L22.6657 11.3812ZM23.4304 9.80789C22.9513 10.19 22.6703 10.768 22.6658 11.3808L22.9657 11.383C22.9696 10.8607 23.2091 10.3681 23.6174 10.0424L23.4304 9.80789ZM25.134 9.41244C24.5356 9.28048 23.9095 9.42579 23.4304 9.80789L23.6174 10.0424C24.0258 9.71678 24.5594 9.59293 25.0694 9.70541L25.134 9.41244ZM26.0169 8.98716C25.8565 9.31602 25.4915 9.49193 25.1343 9.4125L25.0692 9.70535C25.5618 9.8149 26.0653 9.57227 26.2866 9.11869L26.0169 8.98716ZM27.3885 7.90098C26.7909 8.03744 26.2869 8.4365 26.0171 8.98689L26.2864 9.11896C26.5164 8.64987 26.946 8.30975 27.4553 8.19345L27.3885 7.90098ZM29.0954 8.28397C28.6134 7.90527 27.9861 7.76452 27.3885 7.90098L27.4553 8.19345C27.9647 8.07715 28.4993 8.19711 28.9101 8.51987L29.0954 8.28397ZM30.0758 8.28418C29.7885 8.51098 29.383 8.51098 29.0957 8.28418L28.9098 8.51967C29.3061 8.83249 29.8653 8.83249 30.2617 8.51967L30.0758 8.28418ZM31.7848 7.90355C31.1871 7.76581 30.5591 7.90558 30.0762 8.28384L30.2612 8.52001C30.6728 8.19762 31.208 8.07849 31.7174 8.19589L31.7848 7.90355ZM33.1546 8.99323C32.886 8.44179 32.3825 8.04129 31.7848 7.90355L31.7174 8.19589C32.2269 8.31328 32.656 8.65463 32.8849 9.12461L33.1546 8.99323ZM34.038 9.41853C33.6806 9.49839 33.3151 9.32241 33.1546 8.99319L32.8849 9.12466C33.1063 9.57874 33.6104 9.82146 34.1035 9.71132L34.038 9.41853ZM35.7421 9.81389C35.263 9.43179 34.6369 9.28648 34.0384 9.41844L34.103 9.71141C34.6131 9.59893 35.1467 9.72278 35.5551 10.0484L35.7421 9.81389ZM36.5067 11.3868C36.5022 10.774 36.2212 10.196 35.7421 9.81389L35.5551 10.0484C35.9634 10.3741 36.2029 10.8667 36.2068 11.389L36.5067 11.3868ZM37.1179 12.1539C36.7613 12.0706 36.5084 11.7534 36.5067 11.3872L36.2068 11.3886C36.2091 11.8937 36.5578 12.3311 37.0496 12.446L37.1179 12.1539ZM38.4822 13.2495C38.2162 12.6972 37.7149 12.2945 37.1182 12.1539L37.0493 12.4459C37.5579 12.5658 37.9852 12.9089 38.2119 13.3797L38.4822 13.2495ZM38.4884 14.9991C38.7504 14.4448 38.7482 13.8019 38.4822 13.2495L38.2119 13.3797C38.4386 13.8505 38.4405 14.3984 38.2171 14.8708L38.4884 14.9991ZM38.7059 15.9552C38.4209 15.7253 38.3308 15.33 38.4882 14.9994L38.2173 14.8705C38.0003 15.3264 38.1245 15.8717 38.5176 16.1887L38.7059 15.9552ZM39.4592 17.5339C39.4592 16.9211 39.1825 16.341 38.7061 15.9553L38.5174 16.1885C38.9234 16.5172 39.1592 17.0116 39.1592 17.5339H39.4592ZM38.7061 19.1125C39.1825 18.7269 39.4592 18.1468 39.4592 17.5339H39.1592C39.1592 18.0563 38.9234 18.5507 38.5174 18.8793L38.7061 19.1125ZM38.4882 20.0685C38.3308 19.7379 38.4209 19.3425 38.7059 19.1127L38.5176 18.8792C38.1245 19.1961 38.0003 19.7414 38.2173 20.1974L38.4882 20.0685ZM38.4822 21.8183C38.7482 21.266 38.7504 20.623 38.4884 20.0688L38.2171 20.1971C38.4405 20.6694 38.4386 21.2174 38.2119 21.6881L38.4822 21.8183ZM37.1182 22.9139C37.7149 22.7733 38.2162 22.3707 38.4822 21.8183L38.2119 21.6881C37.9852 22.1589 37.5579 22.5021 37.0493 22.6219L37.1182 22.9139ZM36.697 23.1663C36.8068 23.0399 36.954 22.9516 37.1173 22.9141L37.0502 22.6217C36.825 22.6734 36.6221 22.7951 36.4705 22.9695L36.697 23.1663ZM23.4538 30.2757L22.9768 28.4637L22.6867 28.5401L23.1637 30.3521L23.4538 30.2757ZM25.8249 25.6648L23.1789 30.2388L23.4386 30.389L26.0846 25.815L25.8249 25.6648ZM25.1333 25.6484C25.391 25.5911 25.6602 25.6661 25.8512 25.8484L26.0583 25.6314C25.795 25.38 25.4236 25.2765 25.0682 25.3555L25.1333 25.6484ZM22.8027 24.3916C23.1621 25.3288 24.1522 25.8628 25.1328 25.6485L25.0687 25.3554C24.233 25.5381 23.3891 25.0829 23.0828 24.2842L22.8027 24.3916ZM20.5726 28.737L23.0726 24.413L22.8129 24.2628L20.3129 28.5868L20.5726 28.737ZM22.2165 28.0252L20.4035 28.5172L20.482 28.8067L22.295 28.3147L22.2165 28.0252ZM22.6876 28.0863C22.545 28.004 22.3754 27.982 22.2165 28.0252L22.295 28.3147C22.3769 28.2925 22.4643 28.3038 22.5378 28.3462L22.6876 28.0863ZM22.9767 28.4633C22.9343 28.3042 22.8303 28.1685 22.6876 28.0863L22.5378 28.3462C22.6114 28.3886 22.665 28.4585 22.6868 28.5405L22.9767 28.4633ZM30.6529 26.0357C30.9122 26.2403 31.2504 26.3162 31.5724 26.2421L31.5051 25.9497C31.2718 26.0035 31.0266 25.9484 30.8386 25.8001L30.6529 26.0357ZM28.5137 26.0357C29.1408 25.5406 30.0257 25.5406 30.6528 26.0357L30.8387 25.8002C30.1026 25.219 29.0639 25.219 28.3278 25.8002L28.5137 26.0357ZM27.5946 26.2426C27.9164 26.3159 28.2541 26.2399 28.5135 26.0358L28.328 25.8001C28.1398 25.9482 27.8947 26.0033 27.6613 25.9501L27.5946 26.2426ZM26.8561 25.6579C27.0013 25.9543 27.2728 26.1692 27.5946 26.2426L27.6613 25.9501C27.4278 25.8969 27.2308 25.741 27.1254 25.5259L26.8561 25.6579ZM24.9294 24.7293C25.709 24.5557 26.5059 24.9397 26.8559 25.6577L27.1256 25.5262C26.7147 24.6835 25.7793 24.2327 24.8641 24.4365L24.9294 24.7293ZM24.0111 24.5167C24.2693 24.7226 24.6068 24.8008 24.9292 24.7294L24.8643 24.4365C24.6304 24.4883 24.3855 24.4316 24.1982 24.2822L24.0111 24.5167ZM23.5998 23.6688C23.6017 23.9991 23.7529 24.3107 24.0111 24.5167L24.1982 24.2822C24.0109 24.1327 23.9012 23.9066 23.8997 23.667L23.5998 23.6688ZM22.2666 21.996C23.0445 22.1778 23.596 22.8697 23.5997 23.6686L23.8997 23.6672C23.8954 22.7295 23.248 21.9173 22.3349 21.7039L22.2666 21.996ZM21.5318 21.4059C21.675 21.7034 21.945 21.9203 22.2664 21.9959L22.3351 21.7039C22.1019 21.649 21.906 21.4917 21.8022 21.2758L21.5318 21.4059ZM21.5292 20.4636C21.3877 20.762 21.3887 21.1083 21.5318 21.4059L21.8022 21.2758C21.6983 21.0599 21.6976 20.8087 21.8003 20.5922L21.5292 20.4636ZM21.0536 18.3787C21.6754 18.8799 21.8722 19.7422 21.5293 20.4635L21.8002 20.5923C22.2027 19.7457 21.9718 18.7335 21.2419 18.1451L21.0536 18.3787ZM20.6474 17.5284C20.6474 17.8586 20.7967 18.1711 21.0535 18.3786L21.242 18.1452C21.0557 17.9947 20.9474 17.768 20.9474 17.5284H20.6474ZM21.0535 16.6782C20.7967 16.8858 20.6474 17.1982 20.6474 17.5284H20.9474C20.9474 17.2889 21.0557 17.0622 21.242 16.9116L21.0535 16.6782ZM21.5293 14.5933C21.8722 15.3146 21.6754 16.1769 21.0536 16.6781L21.2419 16.9117C21.9718 16.3234 22.2027 15.3112 21.8002 14.4645L21.5293 14.5933ZM21.5318 13.651C21.3887 13.9485 21.3877 14.2949 21.5292 14.5932L21.8003 14.4646C21.6976 14.2482 21.6983 13.9969 21.8022 13.7811L21.5318 13.651ZM22.2664 13.0609C21.945 13.1366 21.675 13.3534 21.5318 13.651L21.8022 13.7811C21.906 13.5652 22.1019 13.4078 22.3351 13.3529L22.2664 13.0609ZM23.5997 11.3882C23.596 12.1871 23.0445 12.879 22.2666 13.0609L22.3349 13.353C23.248 13.1396 23.8954 12.3274 23.8997 11.3896L23.5997 11.3882ZM24.0111 10.5402C23.7529 10.7461 23.6017 11.0578 23.5998 11.388L23.8997 11.3898C23.9012 11.1502 24.0109 10.9241 24.1982 10.7747L24.0111 10.5402ZM24.9292 10.3275C24.6068 10.256 24.2693 10.3342 24.0111 10.5402L24.1982 10.7747C24.3855 10.6252 24.6304 10.5685 24.8643 10.6204L24.9292 10.3275ZM26.8559 9.39919C26.5059 10.1171 25.709 10.5011 24.9294 10.3275L24.8641 10.6203C25.7793 10.8241 26.7147 10.3734 27.1256 9.53066L26.8559 9.39919ZM27.5946 8.81427C27.2728 8.88764 27.0013 9.10251 26.8561 9.39891L27.1254 9.53094C27.2308 9.31589 27.4278 9.16 27.6613 9.10677L27.5946 8.81427ZM28.5135 9.02105C28.2541 8.8169 27.9164 8.74091 27.5946 8.81427L27.6613 9.10677C27.8947 9.05354 28.1398 9.10868 28.328 9.25679L28.5135 9.02105ZM30.6528 9.02119C30.0257 9.5163 29.1408 9.5163 28.5137 9.02119L28.3278 9.25665C29.0639 9.83781 30.1026 9.83781 30.8387 9.25665L30.6528 9.02119ZM31.5719 8.81427C31.2501 8.74091 30.9124 8.8169 30.653 9.02105L30.8385 9.25679C31.0267 9.10868 31.2717 9.05354 31.5052 9.10677L31.5719 8.81427ZM32.3104 9.39891C32.1652 9.10251 31.8937 8.88764 31.5719 8.81427L31.5052 9.10677C31.7387 9.16 31.9357 9.31589 32.0411 9.53094L32.3104 9.39891ZM34.2371 10.3275C33.4575 10.5011 32.6606 10.1171 32.3106 9.39919L32.0409 9.53066C32.4518 10.3734 33.3872 10.8241 34.3024 10.6203L34.2371 10.3275ZM35.1554 10.5402C34.8972 10.3342 34.5597 10.256 34.2373 10.3275L34.3022 10.6204C34.5361 10.5685 34.781 10.6252 34.9683 10.7747L35.1554 10.5402ZM35.5667 11.388C35.5648 11.0578 35.4136 10.7461 35.1554 10.5402L34.9683 10.7747C35.1556 10.9241 35.2653 11.1502 35.2668 11.3898L35.5667 11.388ZM36.9026 13.0628C36.123 12.8819 35.5699 12.1887 35.5667 11.3883L35.2667 11.3895C35.2705 12.329 35.9196 13.1427 36.8348 13.355L36.9026 13.0628ZM37.6377 13.653C37.4945 13.3554 37.2245 13.1386 36.9031 13.0629L36.8344 13.3549C37.0676 13.4098 37.2635 13.5672 37.3673 13.7831L37.6377 13.653ZM37.6403 14.5952C37.7818 14.2969 37.7808 13.9505 37.6377 13.653L37.3673 13.7831C37.4712 13.9989 37.4719 14.2502 37.3692 14.4666L37.6403 14.5952ZM38.1159 16.6801C37.4941 16.1789 37.2973 15.3166 37.6402 14.5953L37.3693 14.4665C36.9668 15.3132 37.1977 16.3254 37.9276 16.9137L38.1159 16.6801ZM38.5221 17.5304C38.5221 17.2002 38.3728 16.8878 38.116 16.6802L37.9275 16.9136C38.1138 17.0642 38.2221 17.2909 38.2221 17.5304H38.5221ZM38.116 18.3806C38.3728 18.1731 38.5221 17.8606 38.5221 17.5304H38.2221C38.2221 17.77 38.1138 17.9967 37.9275 18.1472L38.116 18.3806ZM37.6402 20.4655C37.2973 19.7442 37.4941 18.8819 38.1159 18.3807L37.9276 18.1471C37.1977 18.7355 36.9668 19.7477 37.3693 20.5943L37.6402 20.4655ZM37.6377 21.4079C37.7808 21.1103 37.7818 20.764 37.6403 20.4656L37.3692 20.5942C37.4719 20.8107 37.4712 21.0619 37.3673 21.2778L37.6377 21.4079ZM36.9031 21.9979C37.2245 21.9223 37.4945 21.7054 37.6377 21.4079L37.3673 21.2778C37.2635 21.4937 37.0676 21.651 36.8344 21.7059L36.9031 21.9979ZM35.5697 23.6706C35.5735 22.8717 36.125 22.1798 36.9029 21.998L36.8346 21.7059C35.9215 21.9193 35.2741 22.7315 35.2697 23.6692L35.5697 23.6706ZM35.1584 24.5187C35.4166 24.3127 35.5678 24.0011 35.5697 23.6708L35.2698 23.669C35.2683 23.9086 35.1586 24.1347 34.9713 24.2842L35.1584 24.5187ZM34.2403 24.7314C34.5627 24.8028 34.9002 24.7246 35.1584 24.5187L34.9713 24.2842C34.784 24.4336 34.5391 24.4903 34.3052 24.4385L34.2403 24.7314ZM32.3136 25.6597C32.6636 24.9417 33.4605 24.5577 34.2401 24.7313L34.3054 24.4385C33.3902 24.2347 32.4548 24.6855 32.0439 25.5282L32.3136 25.6597ZM31.5711 26.2424C31.8941 26.1711 32.1671 25.9569 32.3133 25.6602L32.0442 25.5276C31.9383 25.7426 31.7404 25.8978 31.5064 25.9494L31.5711 26.2424ZM36.953 28.0202C36.7941 27.977 36.6245 27.999 36.4819 28.0813L36.6317 28.3412C36.7052 28.2988 36.7926 28.2875 36.8745 28.3097L36.953 28.0202ZM38.7699 28.5111L36.9529 28.0201L36.8746 28.3097L38.6916 28.8007L38.7699 28.5111ZM36.1009 24.407L38.6009 28.731L38.8606 28.5808L36.3606 24.2568L36.1009 24.407ZM34.0354 25.6434C35.018 25.8606 36.0115 25.3255 36.3709 24.3855L36.0906 24.2784C35.7844 25.0795 34.9376 25.5356 34.1001 25.3505L34.0354 25.6434ZM33.3174 25.8434C33.5082 25.661 33.7775 25.5859 34.0351 25.6433L34.1004 25.3505C33.7449 25.2713 33.3734 25.3748 33.1101 25.6265L33.3174 25.8434ZM35.9867 30.2379L33.3437 25.6599L33.0838 25.8099L35.7268 30.3879L35.9867 30.2379ZM36.1927 28.4585L35.7117 30.2745L36.0017 30.3513L36.4827 28.5353L36.1927 28.4585ZM36.4819 28.0813C36.3392 28.1635 36.2352 28.2992 36.1928 28.4583L36.4827 28.5355C36.5045 28.4535 36.5581 28.3836 36.6317 28.3412L36.4819 28.0813Z" fill="black"/>
<path fill-rule="evenodd" clip-rule="evenodd" d="M32.1941 20.8822C32.1059 21.0031 31.9654 21.0747 31.8157 21.0749C31.7188 21.0744 31.6244 21.0436 31.5457 20.9869L29.5897 19.5749L27.6337 20.9869C27.4694 21.1056 27.2474 21.1053 27.0834 20.9861C26.9194 20.8669 26.8506 20.6559 26.9127 20.4629L27.6517 18.1629L25.7037 16.7309C25.5413 16.6108 25.4741 16.4 25.537 16.208C25.5999 16.016 25.7787 15.8858 25.9807 15.8849H28.3857L29.1377 13.5939C29.201 13.4016 29.3807 13.2715 29.5832 13.2715C29.7858 13.2715 29.9654 13.4016 30.0287 13.5939L30.7807 15.8849H33.1947C33.3968 15.8858 33.5756 16.016 33.6385 16.208C33.7013 16.4 33.6342 16.6108 33.4717 16.7309L31.5227 18.1629L32.2617 20.4629C32.3074 20.6055 32.2822 20.7612 32.1941 20.8822ZM29.3107 18.6159C29.4746 18.4977 29.6958 18.4977 29.8597 18.6159L30.9207 19.3899L30.5207 18.1309C30.4593 17.939 30.5273 17.7293 30.6897 17.6099L31.7577 16.8249H30.4367C30.2342 16.8246 30.0548 16.6944 29.9917 16.5019L29.5797 15.2449L29.1677 16.5019C29.1047 16.6944 28.9252 16.8246 28.7227 16.8249H27.4017L28.4697 17.6099C28.6321 17.7293 28.7002 17.939 28.6387 18.1309L28.2387 19.3899L29.3107 18.6159Z" fill="black"/>
<path d="M31.8157 21.0749L31.8148 21.2249L31.8159 21.2249L31.8157 21.0749ZM31.5457 20.9869L31.4579 21.1086L31.4581 21.1087L31.5457 20.9869ZM29.5897 19.5749L29.6775 19.4533L29.5897 19.3899L29.5019 19.4533L29.5897 19.5749ZM27.6337 20.9869L27.5459 20.8653L27.5459 20.8653L27.6337 20.9869ZM26.9127 20.4629L27.0555 20.5089L27.0555 20.5088L26.9127 20.4629ZM27.6517 18.1629L27.7945 18.2088L27.8276 18.106L27.7406 18.0421L27.6517 18.1629ZM25.7037 16.7309L25.6145 16.8515L25.6149 16.8518L25.7037 16.7309ZM25.9807 15.8849V15.7349L25.9801 15.7349L25.9807 15.8849ZM28.3857 15.8849V16.0349H28.4944L28.5282 15.9317L28.3857 15.8849ZM29.1377 13.5939L28.9952 13.5471L28.9952 13.5472L29.1377 13.5939ZM30.0287 13.5939L30.1712 13.5472L30.1712 13.5471L30.0287 13.5939ZM30.7807 15.8849L30.6382 15.9317L30.6721 16.0349H30.7807V15.8849ZM33.1947 15.8849L33.1954 15.7349H33.1947V15.8849ZM33.4717 16.7309L33.5605 16.8518L33.561 16.8515L33.4717 16.7309ZM31.5227 18.1629L31.4339 18.0421L31.3469 18.106L31.3799 18.2088L31.5227 18.1629ZM32.2617 20.4629L32.4046 20.4172L32.4045 20.4171L32.2617 20.4629ZM29.8597 18.6159L29.9481 18.4948L29.9475 18.4943L29.8597 18.6159ZM29.3107 18.6159L29.2229 18.4943L29.2229 18.4943L29.3107 18.6159ZM30.9207 19.3899L30.8323 19.5111L31.2024 19.7811L31.0637 19.3445L30.9207 19.3899ZM30.5207 18.1309L30.6637 18.0855L30.6636 18.0852L30.5207 18.1309ZM30.6897 17.6099L30.7785 17.7308L30.7786 17.7308L30.6897 17.6099ZM31.7577 16.8249L31.8466 16.9458L32.2151 16.6749H31.7577V16.8249ZM30.4367 16.8249L30.4365 16.9749H30.4367V16.8249ZM29.9917 16.5019L30.1343 16.4553L30.1343 16.4552L29.9917 16.5019ZM29.5797 15.2449L29.7223 15.1982L29.5797 14.7633L29.4372 15.1982L29.5797 15.2449ZM29.1677 16.5019L29.0252 16.4552L29.0252 16.4553L29.1677 16.5019ZM28.7227 16.8249V16.9749L28.7229 16.9749L28.7227 16.8249ZM27.4017 16.8249V16.6749H26.9444L27.3129 16.9458L27.4017 16.8249ZM28.4697 17.6099L28.3809 17.7308L28.3809 17.7308L28.4697 17.6099ZM28.6387 18.1309L28.4959 18.0852L28.4958 18.0855L28.6387 18.1309ZM28.2387 19.3899L28.0958 19.3445L27.9582 19.7775L28.3265 19.5116L28.2387 19.3899ZM31.8159 21.2249C32.0135 21.2247 32.199 21.1301 32.3153 20.9705L32.0729 20.7938C32.0129 20.8761 31.9173 20.9248 31.8155 20.9249L31.8159 21.2249ZM31.4581 21.1087C31.562 21.1835 31.6867 21.2242 31.8148 21.2249L31.8166 20.925C31.7508 20.9245 31.6868 20.9037 31.6334 20.8652L31.4581 21.1087ZM29.5019 19.6966L31.4579 21.1086L31.6335 20.8653L29.6775 19.4533L29.5019 19.6966ZM27.7215 21.1086L29.6775 19.6966L29.5019 19.4533L27.5459 20.8653L27.7215 21.1086ZM26.9952 21.1075C27.2117 21.2648 27.5046 21.2652 27.7215 21.1086L27.5459 20.8653C27.4341 20.9461 27.2831 20.9458 27.1716 20.8648L26.9952 21.1075ZM26.7699 20.417C26.6879 20.6716 26.7788 20.9502 26.9952 21.1075L27.1716 20.8648C27.0601 20.7837 27.0132 20.6402 27.0555 20.5089L26.7699 20.417ZM27.5089 18.1171L26.7699 20.4171L27.0555 20.5088L27.7945 18.2088L27.5089 18.1171ZM25.6149 16.8518L27.5629 18.2838L27.7406 18.0421L25.7926 16.6101L25.6149 16.8518ZM25.3944 16.1613C25.3114 16.4148 25.4001 16.6929 25.6145 16.8515L25.7929 16.6104C25.6825 16.5286 25.6368 16.3853 25.6795 16.2547L25.3944 16.1613ZM25.9801 15.7349C25.7134 15.7361 25.4774 15.9079 25.3944 16.1613L25.6795 16.2547C25.7223 16.1241 25.8439 16.0355 25.9814 16.0349L25.9801 15.7349ZM28.3857 15.7349H25.9807V16.0349H28.3857V15.7349ZM28.9952 13.5472L28.2432 15.8382L28.5282 15.9317L29.2802 13.6407L28.9952 13.5472ZM29.5832 13.1215C29.3159 13.1215 29.0788 13.2931 28.9952 13.5471L29.2802 13.6408C29.3233 13.51 29.4455 13.4215 29.5832 13.4215V13.1215ZM30.1712 13.5471C30.0877 13.2931 29.8505 13.1215 29.5832 13.1215V13.4215C29.721 13.4215 29.8432 13.51 29.8862 13.6408L30.1712 13.5471ZM30.9232 15.8382L30.1712 13.5472L29.8862 13.6407L30.6382 15.9317L30.9232 15.8382ZM33.1947 15.7349H30.7807V16.0349H33.1947V15.7349ZM33.781 16.1613C33.698 15.9079 33.462 15.7361 33.1954 15.7349L33.1941 16.0349C33.3315 16.0355 33.4531 16.1241 33.4959 16.2547L33.781 16.1613ZM33.561 16.8515C33.7753 16.6929 33.864 16.4148 33.781 16.1613L33.4959 16.2547C33.5387 16.3853 33.493 16.5286 33.3825 16.6104L33.561 16.8515ZM31.6115 18.2838L33.5605 16.8518L33.3829 16.6101L31.4339 18.0421L31.6115 18.2838ZM32.4045 20.4171L31.6655 18.1171L31.3799 18.2088L32.1189 20.5088L32.4045 20.4171ZM32.3153 20.9705C32.4316 20.8109 32.4648 20.6053 32.4046 20.4172L32.1189 20.5087C32.1499 20.6056 32.1328 20.7116 32.0729 20.7938L32.3153 20.9705ZM29.9475 18.4943C29.7312 18.3382 29.4392 18.3382 29.2229 18.4943L29.3985 18.7376C29.51 18.6571 29.6605 18.6571 29.7719 18.7376L29.9475 18.4943ZM31.0091 19.2688L29.9481 18.4948L29.7713 18.7371L30.8323 19.5111L31.0091 19.2688ZM30.3778 18.1764L30.7778 19.4354L31.0637 19.3445L30.6637 18.0855L30.3778 18.1764ZM30.6009 17.4891C30.3865 17.6465 30.2968 17.9234 30.3779 18.1767L30.6636 18.0852C30.6218 17.9547 30.6681 17.812 30.7785 17.7308L30.6009 17.4891ZM31.6689 16.7041L30.6009 17.4891L30.7786 17.7308L31.8466 16.9458L31.6689 16.7041ZM30.4367 16.9749H31.7577V16.6749H30.4367V16.9749ZM29.8492 16.5486C29.9324 16.8026 30.1692 16.9746 30.4365 16.9749L30.4369 16.6749C30.2992 16.6747 30.1772 16.5862 30.1343 16.4553L29.8492 16.5486ZM29.4372 15.2917L29.8492 16.5487L30.1343 16.4552L29.7223 15.1982L29.4372 15.2917ZM29.3103 16.5487L29.7223 15.2917L29.4372 15.1982L29.0252 16.4552L29.3103 16.5487ZM28.7229 16.9749C28.9902 16.9746 29.2271 16.8026 29.3103 16.5486L29.0252 16.4553C28.9823 16.5862 28.8602 16.6747 28.7225 16.6749L28.7229 16.9749ZM27.4017 16.9749H28.7227V16.6749H27.4017V16.9749ZM28.5586 17.4891L27.4906 16.7041L27.3129 16.9458L28.3809 17.7308L28.5586 17.4891ZM28.7816 18.1767C28.8627 17.9234 28.7729 17.6465 28.5585 17.4891L28.3809 17.7308C28.4914 17.812 28.5377 17.9547 28.4959 18.0852L28.7816 18.1767ZM28.3817 19.4354L28.7817 18.1764L28.4958 18.0855L28.0958 19.3445L28.3817 19.4354ZM29.2229 18.4943L28.1509 19.2683L28.3265 19.5116L29.3985 18.7376L29.2229 18.4943Z" fill="black"/>
<path d="M36.1478 17.5299C36.1465 14.2 33.6514 11.3989 30.3437 11.0143C27.0361 10.6296 23.9647 12.7834 23.1994 16.0242C22.4341 19.265 24.2175 22.5652 27.3478 23.7009C27.5069 23.7657 27.6888 23.7383 27.8217 23.6294C27.9547 23.5206 28.0174 23.3477 27.9853 23.1789C27.9532 23.0101 27.8314 22.8724 27.6678 22.8199C25.1005 21.8887 23.5729 19.248 24.0457 16.5583C24.5184 13.8686 26.8548 11.907 29.5858 11.907C32.3167 11.907 34.6531 13.8686 35.1258 16.5583C35.5986 19.248 34.0711 21.8887 31.5038 22.8199C31.3401 22.8724 31.2183 23.0101 31.1862 23.1789C31.1541 23.3477 31.2169 23.5206 31.3498 23.6294C31.4828 23.7383 31.6646 23.7657 31.8238 23.7009C34.4162 22.7538 36.1426 20.29 36.1478 17.5299Z" fill="black" stroke="black" stroke-width="0.3"/>
<path d="M29.5857 23.1549C29.3619 23.1548 29.1692 23.3129 29.1255 23.5324C29.0818 23.7519 29.1993 23.9717 29.4061 24.0573C29.6129 24.1429 29.8514 24.0704 29.9756 23.8842C30.0998 23.698 30.0752 23.45 29.9167 23.2919C29.8287 23.2045 29.7098 23.1553 29.5857 23.1549Z" fill="black" stroke="black" stroke-width="0.3"/>
</g>
<defs>
<clipPath id="clip0_44:149">
<rect width="40" height="40" fill="white"/>
</clipPath>
</defs>
</svg>
