<svg width="53" height="51" viewBox="0 0 53 51" fill="none" xmlns="http://www.w3.org/2000/svg">
<circle cx="25" cy="25" r="25" fill="#D3C7EF"/>
<path fill-rule="evenodd" clip-rule="evenodd" d="M50.1764 22.8658V11.297C50.1764 10.5052 49.5154 9.86353 48.6998 9.86353H14.7383C14.3308 9.86353 14 10.1841 14 10.5802C14 10.9759 14.3308 11.297 14.7383 11.297H21.3829V18.4642C21.3829 19.2559 22.044 19.8976 22.8595 19.8976H23.2434C22.074 21.5236 21.3829 23.4979 21.3829 25.6314C21.3829 27.9813 22.2212 30.1376 23.6151 31.8477C17.909 34.7051 14 40.4704 14 47.133V48.5664C14 49.3582 14.661 49.9999 15.4766 49.9999H47.9615C48.7771 49.9999 49.4381 49.3582 49.4381 48.5664V47.133C49.4381 40.4708 45.5291 34.7051 39.8231 31.8477C41.217 30.1376 42.0552 27.9813 42.0552 25.6314C42.0552 23.4979 41.3641 21.5236 40.1947 19.8976H40.5786C41.3942 19.8976 42.0552 19.2559 42.0552 18.4642V11.297H48.6998V22.8658C47.4285 23.1855 46.485 24.2968 46.485 25.6314V28.4983C46.485 29.29 47.146 29.9317 47.9615 29.9317H50.9147C51.7303 29.9317 52.3913 29.29 52.3913 28.4983V25.6314C52.3913 24.2968 51.4478 23.1855 50.1764 22.8658ZM47.9617 47.133V48.5665H15.4767V47.133C15.4767 40.8947 19.2376 35.5069 24.6655 32.9515C26.5133 34.6301 28.989 35.6655 31.7192 35.6655C34.4499 35.6655 36.9257 34.6301 38.7734 32.951L38.7729 32.9515C44.2008 35.5069 47.9617 40.8942 47.9617 47.133ZM31.719 34.232C36.6041 34.232 40.5785 30.3737 40.5785 25.6314C40.5785 23.4277 39.7128 21.4209 38.3036 19.8976H25.1344C23.7252 21.4209 22.8595 23.4277 22.8595 25.6314C22.8595 30.3737 26.834 34.232 31.719 34.232ZM40.5785 18.464H22.8595V11.2968H40.5785V18.464ZM47.9616 25.6313V28.4982H50.9148V25.6313C50.9148 24.841 50.2523 24.1979 49.4382 24.1979C48.6241 24.1979 47.9616 24.841 47.9616 25.6313Z" fill="black"/>
<path d="M50.1764 22.8658H49.6764V23.2556L50.0545 23.3507L50.1764 22.8658ZM21.3829 11.297H21.8829V10.797H21.3829V11.297ZM23.2434 19.8976L23.6494 20.1896L24.2189 19.3976H23.2434V19.8976ZM23.6151 31.8477L23.8389 32.2948L24.3968 32.0155L24.0026 31.5318L23.6151 31.8477ZM39.8231 31.8477L39.4355 31.5318L39.0413 32.0155L39.5992 32.2948L39.8231 31.8477ZM40.1947 19.8976V19.3976H39.2192L39.7888 20.1896L40.1947 19.8976ZM42.0552 11.297V10.797H41.5552V11.297H42.0552ZM48.6998 11.297H49.1998V10.797H48.6998V11.297ZM48.6998 22.8658L48.8218 23.3507L49.1998 23.2556V22.8658H48.6998ZM47.9617 48.5665V49.0665H48.4617V48.5665H47.9617ZM15.4767 48.5665H14.9767V49.0665H15.4767V48.5665ZM24.6655 32.9515L25.0018 32.5814L24.7546 32.3569L24.4526 32.4991L24.6655 32.9515ZM38.7734 32.951L39.122 33.3094L38.4371 32.581L38.7734 32.951ZM38.7729 32.9515L38.4242 32.5931L37.9069 33.0964L38.5599 33.4039L38.7729 32.9515ZM38.3036 19.8976L38.6706 19.5581L38.5222 19.3976H38.3036V19.8976ZM25.1344 19.8976V19.3976H24.9158L24.7674 19.5581L25.1344 19.8976ZM22.8595 18.464H22.3595V18.964H22.8595V18.464ZM40.5785 18.464V18.964H41.0785V18.464H40.5785ZM22.8595 11.2968V10.7968H22.3595V11.2968H22.8595ZM40.5785 11.2968H41.0785V10.7968H40.5785V11.2968ZM47.9616 28.4982H47.4616V28.9982H47.9616V28.4982ZM50.9148 28.4982V28.9982H51.4148V28.4982H50.9148ZM49.6764 11.297V22.8658H50.6764V11.297H49.6764ZM48.6998 10.3635C49.2533 10.3635 49.6764 10.7952 49.6764 11.297H50.6764C50.6764 10.2152 49.7775 9.36353 48.6998 9.36353V10.3635ZM14.7383 10.3635H48.6998V9.36353H14.7383V10.3635ZM14.5 10.5802C14.5 10.4744 14.5926 10.3635 14.7383 10.3635V9.36353C14.0689 9.36353 13.5 9.89391 13.5 10.5802H14.5ZM14.7383 10.797C14.5928 10.797 14.5 10.6859 14.5 10.5802H13.5C13.5 11.2659 14.0687 11.797 14.7383 11.797V10.797ZM21.3829 10.797H14.7383V11.797H21.3829V10.797ZM21.8829 18.4642V11.297H20.8829V18.4642H21.8829ZM22.8595 19.3976C22.306 19.3976 21.8829 18.9659 21.8829 18.4642H20.8829C20.8829 19.5459 21.7819 20.3976 22.8595 20.3976V19.3976ZM23.2434 19.3976H22.8595V20.3976H23.2434V19.3976ZM21.8829 25.6314C21.8829 23.6082 22.5378 21.7351 23.6494 20.1896L22.8375 19.6057C21.6102 21.3122 20.8829 23.3877 20.8829 25.6314H21.8829ZM24.0026 31.5318C22.6771 29.9057 21.8829 27.8595 21.8829 25.6314H20.8829C20.8829 28.103 21.7652 30.3696 23.2275 32.1636L24.0026 31.5318ZM14.5 47.133C14.5 40.6734 18.2895 35.0737 23.8389 32.2948L23.3912 31.4007C17.5285 34.3364 13.5 40.2674 13.5 47.133H14.5ZM14.5 48.5664V47.133H13.5V48.5664H14.5ZM15.4766 49.4999C14.9231 49.4999 14.5 49.0682 14.5 48.5664H13.5C13.5 49.6482 14.399 50.4999 15.4766 50.4999V49.4999ZM47.9615 49.4999H15.4766V50.4999H47.9615V49.4999ZM48.9381 48.5664C48.9381 49.0682 48.515 49.4999 47.9615 49.4999V50.4999C49.0392 50.4999 49.9381 49.6482 49.9381 48.5664H48.9381ZM48.9381 47.133V48.5664H49.9381V47.133H48.9381ZM39.5992 32.2948C45.1486 35.0737 48.9381 40.6738 48.9381 47.133H49.9381C49.9381 40.2678 45.9096 34.3364 40.047 31.4007L39.5992 32.2948ZM41.5552 25.6314C41.5552 27.8595 40.761 29.9057 39.4355 31.5318L40.2106 32.1636C41.6729 30.3696 42.5552 28.103 42.5552 25.6314H41.5552ZM39.7888 20.1896C40.9003 21.7351 41.5552 23.6082 41.5552 25.6314H42.5552C42.5552 23.3877 41.828 21.3122 40.6006 19.6057L39.7888 20.1896ZM40.5786 19.3976H40.1947V20.3976H40.5786V19.3976ZM41.5552 18.4642C41.5552 18.9659 41.1321 19.3976 40.5786 19.3976V20.3976C41.6562 20.3976 42.5552 19.5459 42.5552 18.4642H41.5552ZM41.5552 11.297V18.4642H42.5552V11.297H41.5552ZM48.6998 10.797H42.0552V11.797H48.6998V10.797ZM49.1998 22.8658V11.297H48.1998V22.8658H49.1998ZM46.985 25.6314C46.985 24.5439 47.7549 23.6189 48.8218 23.3507L48.5779 22.3809C47.1021 22.752 45.985 24.0498 45.985 25.6314H46.985ZM46.985 28.4983V25.6314H45.985V28.4983H46.985ZM47.9615 29.4317C47.408 29.4317 46.985 29 46.985 28.4983H45.985C45.985 29.58 46.8839 30.4317 47.9615 30.4317V29.4317ZM50.9147 29.4317H47.9615V30.4317H50.9147V29.4317ZM51.8913 28.4983C51.8913 29 51.4682 29.4317 50.9147 29.4317V30.4317C51.9923 30.4317 52.8913 29.58 52.8913 28.4983H51.8913ZM51.8913 25.6314V28.4983H52.8913V25.6314H51.8913ZM50.0545 23.3507C51.1213 23.6189 51.8913 24.5439 51.8913 25.6314H52.8913C52.8913 24.0498 51.7742 22.752 50.2983 22.3809L50.0545 23.3507ZM48.4617 48.5665V47.133H47.4617V48.5665H48.4617ZM15.4767 49.0665H47.9617V48.0665H15.4767V49.0665ZM14.9767 47.133V48.5665H15.9767V47.133H14.9767ZM24.4526 32.4991C18.8633 35.1304 14.9767 40.6861 14.9767 47.133H15.9767C15.9767 41.1033 19.6119 35.8833 24.8785 33.4039L24.4526 32.4991ZM31.7192 35.1655C29.1177 35.1655 26.7607 34.1793 25.0018 32.5814L24.3293 33.3216C26.2658 35.0808 28.8603 36.1655 31.7192 36.1655V35.1655ZM38.4371 32.581C36.6782 34.1793 34.3213 35.1655 31.7192 35.1655V36.1655C34.5786 36.1655 37.1731 35.0808 39.1096 33.3211L38.4371 32.581ZM39.1215 33.3099L39.122 33.3094L38.4247 32.5926L38.4242 32.5931L39.1215 33.3099ZM48.4617 47.133C48.4617 40.6856 44.5751 35.1304 38.9858 32.4991L38.5599 33.4039C43.8265 35.8833 47.4617 41.1028 47.4617 47.133H48.4617ZM40.0785 25.6314C40.0785 30.0837 36.342 33.732 31.719 33.732V34.732C36.8661 34.732 41.0785 30.6637 41.0785 25.6314H40.0785ZM37.9366 20.2372C39.2663 21.6745 40.0785 23.5622 40.0785 25.6314H41.0785C41.0785 23.2932 40.1593 21.1672 38.6706 19.5581L37.9366 20.2372ZM25.1344 20.3976H38.3036V19.3976H25.1344V20.3976ZM23.3595 25.6314C23.3595 23.5622 24.1717 21.6745 25.5014 20.2372L24.7674 19.5581C23.2788 21.1672 22.3595 23.2932 22.3595 25.6314H23.3595ZM31.719 33.732C27.096 33.732 23.3595 30.0837 23.3595 25.6314H22.3595C22.3595 30.6637 26.5719 34.732 31.719 34.732V33.732ZM22.8595 18.964H40.5785V17.964H22.8595V18.964ZM22.3595 11.2968V18.464H23.3595V11.2968H22.3595ZM40.5785 10.7968H22.8595V11.7968H40.5785V10.7968ZM41.0785 18.464V11.2968H40.0785V18.464H41.0785ZM48.4616 28.4982V25.6313H47.4616V28.4982H48.4616ZM50.9148 27.9982H47.9616V28.9982H50.9148V27.9982ZM50.4148 25.6313V28.4982H51.4148V25.6313H50.4148ZM49.4382 24.6979C49.9903 24.6979 50.4148 25.131 50.4148 25.6313H51.4148C51.4148 24.551 50.5144 23.6979 49.4382 23.6979V24.6979ZM48.4616 25.6313C48.4616 25.131 48.8862 24.6979 49.4382 24.6979V23.6979C48.3621 23.6979 47.4616 24.551 47.4616 25.6313H48.4616Z" fill="black"/>
</svg>
