<svg xmlns="http://www.w3.org/2000/svg" width="21" height="18" xmlns:v="https://vecta.io/nano"><path d="M16.844 1c.292 0 .528.2.528.444h0v2.22c0 .196-.166.378-.4.43h0l-2.55.575a.63.63 0 0 1-.137.015c-.233 0-.447-.13-.5-.33-.075-.237.092-.48.373-.544h0l1.606-.362c-1.5-1.004-3.327-1.55-5.264-1.55-4.656 0-8.444 3.188-8.444 7.107s3.788 7.107 8.444 7.107 8.444-3.188 8.444-7.107c0-.245.236-.444.528-.444s.528.2.528.444C20 13.413 15.738 17 10.5 17S1 13.413 1 9.005 5.262 1 10.5 1c2.134 0 4.16.6 5.817 1.675h0v-1.24c0-.245.236-.444.528-.444zM10.5 5.4c4.408 0 6.212 3.284 6.287 3.424a.38.38 0 0 1 0 .364c-.075.14-1.88 3.424-6.287 3.424S4.288 9.326 4.213 9.187a.38.38 0 0 1 0-.364C4.288 8.683 6.092 5.4 10.5 5.4zm0 .888c-3.208 0-4.8 2.076-5.214 2.718.415.64 2.006 2.717 5.214 2.717s4.8-2.075 5.214-2.717C15.3 8.364 13.707 6.29 10.5 6.29zm0 .94c1.164 0 2.1.797 2.1 1.777s-.947 1.777-2.1 1.777-2.1-.797-2.1-1.777.947-1.777 2.1-1.777zm0 .888c-.582 0-1.056.4-1.056.888s.474.888 1.056.888 1.056-.4 1.056-.888-.474-.888-1.056-.888z" stroke="#113dcd" stroke-width=".2" fill="#113dcd"/></svg>