<?xml version="1.0" encoding="UTF-8"?>
<svg width="29px" height="28px" viewBox="0 0 29 28" version="1.1" xmlns="http://www.w3.org/2000/svg" xmlns:xlink="http://www.w3.org/1999/xlink">
    <title>ssearch</title>
    <g id="Overview" stroke="none" stroke-width="1" fill="none" fill-rule="evenodd">
        <g id="Artboard-close" transform="translate(-1384.000000, -264.000000)" fill="#FFFFFF" fill-rule="nonzero">
            <g id="Group-2" transform="translate(1360.000000, 252.000000)">
                <g id="Group" transform="translate(5.000000, 12.000000)">
                    <path d="M46.0713726,27.807228 L47.307228,26.5713726 C47.5642573,26.3143433 47.5642573,25.8987066 47.307228,25.6417307 L40.6684702,19.0029729 C40.5427058,18.8772085 40.3786514,18.8115761 40.2036493,18.8115761 L39.4818525,18.8115761 C41.2044241,16.8155804 42.2488827,14.2180517 42.2488827,11.3744414 C42.2488827,5.09113484 37.1577479,0 30.8744414,0 C24.5911348,0 19.5,5.09113484 19.5,11.3744414 C19.5,17.6577479 24.5911348,22.7488827 30.8744414,22.7488827 C33.7180517,22.7488827 36.3155804,21.7044241 38.3115761,19.9818525 L38.3115761,20.7036493 C38.3115761,20.8786514 38.3826557,21.0427058 38.5029729,21.1684702 L45.1417307,27.807228 C45.3987066,28.0642573 45.8143433,28.0642573 46.0713726,27.807228 Z M30.8744414,20.1240116 C26.0402824,20.1240116 22.1248711,16.2086003 22.1248711,11.3744414 C22.1248711,6.54028242 26.0402824,2.62487108 30.8744414,2.62487108 C35.7086003,2.62487108 39.6240116,6.54028242 39.6240116,11.3744414 C39.6240116,16.2086003 35.7086003,20.1240116 30.8744414,20.1240116 Z" id="ssearch"></path>
                </g>
            </g>
        </g>
    </g>
</svg>