<svg xmlns="http://www.w3.org/2000/svg" width="17" height="17" xmlns:v="https://vecta.io/nano"><path d="M5.737 0A5.75 5.75 0 0 0 0 5.739a5.75 5.75 0 0 0 5.737 5.739c1.354 0 2.596-.473 3.58-1.262l.657.658-.438.432a.64.64 0 0 0 0 .903l1.248 1.242.013.02a.64.64 0 0 0 .159.166l.02.013 3.16 3.162c.12.12.282.188.452.188s.332-.067.452-.188l1.773-1.767a.64.64 0 0 0 0-.903L12.21 9.54c-.137-.14-.33-.208-.525-.186-.144.017-.277.083-.378.186l-.438.432-.65-.65c.784-.982 1.255-2.23 1.255-3.58A5.75 5.75 0 0 0 5.737 0zm0 1.275c2.472 0 4.462 1.99 4.462 4.464s-2 4.464-4.462 4.464-4.462-1.99-4.462-4.464 2-4.464 4.462-4.464zm6.023 9.612l.445.445-.87.87-.445-.445.87-.87zm1.34 1.348l2.357 2.358-.87.87-2.357-2.358.87-.87z"/></svg>