<svg xmlns="http://www.w3.org/2000/svg" width="19" height="19" xmlns:v="https://vecta.io/nano"><path d="M12.8 8.6a4.62 4.62 0 0 0-1.409-3.391A4.62 4.62 0 0 0 8 3.8a4.62 4.62 0 0 0-3.391 1.409A4.62 4.62 0 0 0 3.2 8.6a4.62 4.62 0 0 0 1.409 3.391A4.62 4.62 0 0 0 8 13.4a4.62 4.62 0 0 0 3.391-1.409A4.62 4.62 0 0 0 12.8 8.6h0zm5.6 8.985a1.36 1.36 0 0 1-.42.995 1.36 1.36 0 0 1-.995.42c-.398 0-.73-.14-.995-.42l-3.793-3.782a7.57 7.57 0 0 1-4.412 1.371 7.65 7.65 0 0 1-3.024-.614c-.962-.4-1.8-.962-2.488-1.66S1.023 12.37.614 11.4A7.65 7.65 0 0 1 0 8.385 7.65 7.65 0 0 1 .614 5.36c.4-.962.962-1.8 1.66-2.488s1.526-1.25 2.488-1.66A7.65 7.65 0 0 1 7.785.6a7.65 7.65 0 0 1 3.024.614c.962.4 1.8.962 2.488 1.66s1.25 1.526 1.66 2.488a7.65 7.65 0 0 1 .614 3.024 7.57 7.57 0 0 1-1.371 4.412l3.793 3.793c.273.273.4.604.4.995h0z" opacity=".3"/></svg>