<svg xmlns="http://www.w3.org/2000/svg" width="28" height="23" fill-rule="evenodd" xmlns:v="https://vecta.io/nano"><circle fill="#efd0ce" cx="11.5" cy="11.5" r="11.5"/><path d="M16.737 3A5.75 5.75 0 0 0 11 8.739a5.75 5.75 0 0 0 5.737 5.739 5.7 5.7 0 0 0 3.58-1.262l.657.658-.438.432a.64.64 0 0 0 0 .903l1.248 1.242.013.02a.64.64 0 0 0 .159.166l.02.013 3.16 3.162a.64.64 0 0 0 .452.188c.17 0 .332-.067.452-.188l1.773-1.767a.64.64 0 0 0 0-.903L23.2 12.54c-.137-.14-.33-.208-.525-.186-.144.017-.277.083-.378.186l-.438.432-.65-.65c.784-.982 1.255-2.23 1.255-3.58A5.75 5.75 0 0 0 16.737 3zm0 1.275c2.472 0 4.462 2 4.462 4.464a4.46 4.46 0 1 1-8.924 0 4.46 4.46 0 0 1 4.462-4.464zm6.023 9.612l.445.445-.87.87-.445-.445.87-.87zm1.34 1.348l2.357 2.358-.87.87-2.357-2.358.87-.87z" fill-rule="nonzero"/></svg>