<svg xmlns="http://www.w3.org/2000/svg" width="48" height="48" viewBox="0 0 48 48">
  <g id="selection-icon" transform="translate(-527 -161)">
    <rect id="Rectangle_46" data-name="Rectangle 46" width="48" height="48" transform="translate(527 161)" fill="none"/>
    <path id="Union_4" data-name="Union 4" d="M-16036.129-383a3.877,3.877,0,0,1-3.872-3.873v-22.841a.864.864,0,0,1,.865-.865.864.864,0,0,1,.865.865v22.841a2.146,2.146,0,0,0,2.142,2.142h28.646a2.146,2.146,0,0,0,2.142-2.142V-388.7l-6.787-6.787s-.008-.012-.016-.016a.055.055,0,0,1-.012-.016l-4.078-4.078a11.464,11.464,0,0,1-5.326,1.308,11.482,11.482,0,0,1-8.284-3.526,1.182,1.182,0,0,1-.137-.145,11.471,11.471,0,0,1-3.1-7.85,11.528,11.528,0,0,1,11.517-11.517,11.531,11.531,0,0,1,11.518,11.517,11.469,11.469,0,0,1-1.309,5.326l4.078,4.082a.054.054,0,0,1,.016.012.043.043,0,0,0,.013.016l1.9,1.9V-417.8h-4.545a1.9,1.9,0,0,1-1.9-1.9v-5.579h-24.343a2.147,2.147,0,0,0-2.142,2.146v5.7a.864.864,0,0,1-.865.865.864.864,0,0,1-.865-.865v-5.7a3.878,3.878,0,0,1,3.872-3.877h25.208a.665.665,0,0,1,.093.008h.021l.068.012c.008,0,.016,0,.02.008a.327.327,0,0,1,.068.016.063.063,0,0,0,.024.008l.061.024.024.012.052.028.028.016a.339.339,0,0,1,.044.032.143.143,0,0,1,.028.02.3.3,0,0,1,.04.036.144.144,0,0,1,.028.024.386.386,0,0,1,.041.04l.016.016,6.44,7.475s0,0,.009.008a.072.072,0,0,1,.02.028.167.167,0,0,1,.028.032.171.171,0,0,1,.021.036.088.088,0,0,1,.02.032.136.136,0,0,1,.021.036.24.24,0,0,1,.016.032c.009.016.013.028.021.044a.284.284,0,0,1,.012.032c0,.012.009.028.013.04a.122.122,0,0,1,.008.04c0,.012.008.024.012.04s0,.028,0,.044,0,.024.008.036,0,.052,0,.081v21.915l3.885,3.889a3.427,3.427,0,0,1-.077,4.943,3.413,3.413,0,0,1-2.391,1.035,3.094,3.094,0,0,1-1.417-.35v.358a3.88,3.88,0,0,1-3.873,3.873Zm25.824-13.119,6.92,6.924a1.549,1.549,0,0,0,2.358.056,1.723,1.723,0,0,0,.077-2.5l-4.122-4.122a.216.216,0,0,1-.032-.036l-2.766-2.762Zm-3.039-5.632a.843.843,0,0,1-.157.157,11.734,11.734,0,0,1-1.232,1.051l3.205,3.2,2.436-2.435-3.205-3.2A11.257,11.257,0,0,1-16013.344-401.75Zm-14.919-.938a9.745,9.745,0,0,0,6.7,2.665,9.693,9.693,0,0,0,4.9-1.324,1.071,1.071,0,0,1,.241-.145,9.617,9.617,0,0,0,1.365-1.018,7.261,7.261,0,0,0-6.643-4.344A7.307,7.307,0,0,0-16028.263-402.688Zm11.706-9.307a5.133,5.133,0,0,1-1.924,4.005,9,9,0,0,1,4.689,4.118c.2-.258.379-.519.552-.8a.818.818,0,0,1,.141-.233,9.729,9.729,0,0,0,1.324-4.911,9.8,9.8,0,0,0-9.786-9.786,9.8,9.8,0,0,0-9.786,9.786,9.727,9.727,0,0,0,1.86,5.736,9.009,9.009,0,0,1,2.633-2.882,8.984,8.984,0,0,1,1.94-1.035,5.125,5.125,0,0,1-1.921-4,5.145,5.145,0,0,1,5.141-5.141A5.146,5.146,0,0,1-16016.557-411.995Zm-8.546,0a3.411,3.411,0,0,0,3.409,3.41,3.413,3.413,0,0,0,3.406-3.41,3.413,3.413,0,0,0-3.406-3.41A3.411,3.411,0,0,0-16025.1-411.995Zm15.047-7.7a.17.17,0,0,0,.169.165h3.519l-3.687-4.279Zm-7.648,30.57a.864.864,0,0,1-.865-.865.864.864,0,0,1,.865-.865h4.831a.864.864,0,0,1,.865.865.864.864,0,0,1-.865.865Zm-3.868,0a.863.863,0,0,1-.861-.865.863.863,0,0,1,.861-.865h.021a.867.867,0,0,1,.865.865.867.867,0,0,1-.865.865Zm-8.679,0a.867.867,0,0,1-.866-.865.867.867,0,0,1,.866-.865h4.83a.864.864,0,0,1,.865.865.864.864,0,0,1-.865.865Zm3.751-4.436a.869.869,0,0,1-.865-.866.867.867,0,0,1,.865-.865h9.875a.864.864,0,0,1,.865.865.866.866,0,0,1-.865.866Zm-13.5-19.995v-.02a.869.869,0,0,1,.865-.865.866.866,0,0,1,.865.865v.02a.866.866,0,0,1-.865.865A.869.869,0,0,1-16040-413.553Z" transform="translate(16572 590.002)" fill="#96abec"/>
  </g>
</svg>
