<?xml version="1.0" encoding="UTF-8"?>
<svg width="29px" height="23px" viewBox="0 0 29 23" version="1.1" xmlns="http://www.w3.org/2000/svg" xmlns:xlink="http://www.w3.org/1999/xlink">
    <!-- Generator: Sketch 63.1 (92452) - https://sketch.com -->
    <title>Group 4 Copy</title>
    <desc>Created with Sketch.</desc>
    <g id="Page-1" stroke="none" stroke-width="1" fill="none" fill-rule="evenodd">
        <g id="Artboard-Copy" transform="translate(-305.000000, -303.000000)">
            <g id="Group-4-Copy" transform="translate(305.000000, 303.000000)">
                <circle id="Oval-Copy-18" fill="#FFEDA2" cx="11.5" cy="11.5" r="11.5"></circle>
                <g id="journal-selection" transform="translate(8.000000, 0.000000)">
                    <rect id="Rectangle" x="0" y="0" width="24" height="24"></rect>
                    <path d="M9.73698075,3 C6.5760839,3 4,5.57709155 4,8.73922243 C4,11.9013427 6.57608305,14.4784449 9.73698075,14.4784449 C11.0907703,14.4784449 12.3331562,14.0053015 13.3159537,13.2163473 L13.9733161,13.8739666 L13.5350745,14.3057368 C13.4150675,14.4253985 13.3476153,14.5879301 13.3476153,14.7574348 C13.3476153,14.9269396 13.4150675,15.0894712 13.5350745,15.2091329 L14.783399,16.4513026 L14.7966791,16.4712304 C14.8392903,16.5357976 14.89329,16.5920692 14.9560396,16.6372959 C14.9625959,16.6418487 14.9692371,16.6462778 14.9759597,16.6505811 L18.1366111,19.8124676 C18.2562261,19.9325214 18.4186943,20 18.5881328,20 C18.7575713,20 18.9200394,19.9325214 19.0396544,19.8124676 L20.8125408,18.045531 C20.9325478,17.9258693 21,17.7633377 21,17.593833 C21,17.4243283 20.9325478,17.2617966 20.8125408,17.1421349 L16.2110042,12.5388002 C16.0738607,12.3996921 15.8805442,12.3311481 15.6864423,12.3528069 C15.5428446,12.3700604 15.4093791,12.435648 15.3079609,12.5388002 L14.8697193,12.9705705 L14.218997,12.3195938 C15.0031249,11.337868 15.4739615,10.0892261 15.4739615,8.73922243 C15.4739615,5.57709155 12.8978776,3 9.73698075,3 Z M9.73698075,4.27538276 C12.2088785,4.27538276 14.1990769,6.26635941 14.1990769,8.73922243 C14.1990769,11.2120833 12.2088777,13.2030621 9.73698075,13.2030621 C7.26508382,13.2030621 5.27488461,11.2120833 5.27488461,8.73922243 C5.27488461,6.26635941 7.26508297,4.27538276 9.73698075,4.27538276 Z M15.7594825,13.8872518 L16.2043641,14.3323073 L15.334521,15.2024903 L14.8896394,14.7574348 L15.7594825,13.8872518 Z M17.1007674,15.2357034 L19.4579759,17.593833 L18.5881328,18.464016 L16.2309242,16.1058864 L17.1007674,15.2357034 Z" id="Shape" fill="#000000" fill-rule="nonzero"></path>
                </g>
            </g>
        </g>
    </g>
</svg>