<svg width="48" height="48" viewBox="0 0 48 48" fill="none" xmlns="http://www.w3.org/2000/svg">
<rect width="48" height="48" fill="white"/>
<path d="M39.4346 24.8213C39.0527 24.7511 38.6863 25.004 38.6162 25.386C38.5462 25.7679 38.799 26.1343 39.181 26.2043C43.1551 26.9331 46.0394 30.3964 46.0394 34.4393C46.0394 38.5032 43.1289 41.8996 39.2831 42.6547C39.2755 42.6559 39.2678 42.6563 39.2602 42.6577C38.7318 42.7599 38.1957 42.8118 37.667 42.8118C33.0504 42.8118 29.2945 39.0559 29.2945 34.4393C29.2945 30.3437 32.2442 26.921 36.153 26.2043C36.535 26.1343 36.7878 25.7679 36.7178 25.386C36.6478 25.004 36.2808 24.7509 35.8995 24.8213C33.6584 25.2322 31.7155 26.3889 30.3036 28.0056L25.9318 26.3124V23.8723C27.516 22.6595 28.6085 20.8367 28.8565 18.7576C30.7395 18.6741 32.1415 17.1675 32.1415 15.3763C32.1415 14.5463 31.8365 13.7547 31.2945 13.1437V10.0577C31.2946 4.51181 26.7828 0 21.2371 0C15.6915 0 11.1796 4.51181 11.1796 10.0576V13.2234C10.6313 13.8293 10.3329 14.58 10.3329 15.3762C10.3329 17.1654 11.732 18.6738 13.6174 18.7574C13.8645 20.8496 14.9687 22.7482 16.7079 23.9901V26.3123L6.82721 30.143C6.8228 30.1447 6.8184 30.1464 6.81399 30.1482C6.64009 30.2197 2.55371 31.9546 2.55371 36.7308V46.4072C2.55371 47.2854 3.26818 48 4.14652 48C4.58246 48 38.0484 48 38.5117 48C39.3857 48 40.0968 47.289 40.0968 46.4149V43.9127C44.3173 42.8295 47.4458 38.9931 47.4458 34.4395C47.4458 29.7174 44.0765 25.6724 39.4346 24.8213ZM27.9885 28.6169L25.4554 33.6934C25.4211 33.669 24.7856 33.2175 22.338 31.4792C24.1352 29.2608 23.5333 30.0037 25.4525 27.6347L27.9885 28.6169ZM23.1338 33.7696L22.4096 34.8596H20.2358L19.5117 33.7696L21.3227 32.4833L23.1338 33.7696ZM18.1143 26.5383V24.7833C19.0645 25.192 20.1916 25.4306 21.3368 25.4306C22.4403 25.4306 23.5331 25.1889 24.5256 24.7258V26.5449L21.3226 30.4986L18.1143 26.5383ZM30.0551 16.8618C29.7354 17.1367 29.342 17.3005 28.9122 17.3432V13.4098C30.7131 13.5842 31.3418 15.7552 30.0551 16.8618ZM13.5624 17.3432C12.4813 17.2361 11.7393 16.3703 11.7393 15.3763C11.7393 14.3797 12.6046 13.5988 13.5624 13.4418V17.3432ZM13.5854 12.0208C13.2577 12.0507 12.8682 12.1475 12.5859 12.2574V10.0576C12.5859 5.28731 16.4668 1.40634 21.2371 1.40634C26.0072 1.40634 29.8883 5.28722 29.8883 10.0576V12.1957C29.5781 12.0854 29.2507 12.0186 28.9122 11.9985C28.9122 11.1534 29.0149 11.3939 26.565 8.76553C26.3691 8.55534 26.1393 8.247 25.6533 8.14491C25.3154 8.07384 24.9525 8.13413 24.6446 8.33541C21.8815 10.1404 18.4141 11.1536 15.0835 10.9354C14.2696 10.8817 13.7108 11.3445 13.5854 12.0208ZM14.9687 17.8553C14.9687 17.2664 14.9687 12.9485 14.9687 12.3376C18.5468 12.5772 22.3219 11.518 25.3672 9.54291C26.6379 10.9082 27.3214 11.6167 27.5059 11.8544C27.5059 18.8685 27.5075 17.6204 27.502 18.0096C27.42 21.3244 24.7025 24.0243 21.3368 24.0243C17.5924 24.0244 14.9687 21.1374 14.9687 17.8553ZM17.1886 27.6365L20.3039 31.4817C19.289 32.2025 17.7179 33.3186 17.1898 33.6936L14.6567 28.6171L17.1886 27.6365ZM10.4695 46.5938V38.2297C10.4695 37.8414 10.1548 37.5266 9.76637 37.5266C9.37796 37.5266 9.06324 37.8414 9.06324 38.2297V46.5938H4.14652C4.04368 46.5938 3.96005 46.51 3.96005 46.4073V36.731C3.96005 32.948 7.15524 31.5314 7.34443 31.451L13.3394 29.1268L15.9766 34.4121C15.9766 34.4121 15.9766 34.4121 15.9766 34.4122C16.1491 34.7576 16.4627 35.0094 16.8373 35.1031C17.5226 35.2745 17.9307 34.8923 18.3644 34.5844L19.119 35.7201L17.2786 46.5938H10.4695ZM32.1815 46.5937H25.3668L24.7357 42.8646C24.671 42.4818 24.3092 42.2243 23.9251 42.2886C23.5423 42.3533 23.2845 42.7163 23.3492 43.0992L23.9407 46.5937H18.705L20.453 36.2659H22.1927L22.7939 39.8177C22.8586 40.2006 23.221 40.4585 23.6045 40.3937C23.9874 40.3289 24.2452 39.9659 24.1804 39.5831L23.5266 35.7201L24.2812 34.5844L24.7239 34.8988C25.3844 35.368 26.3074 35.1362 26.6687 34.4122C26.6688 34.4122 26.6688 34.4122 26.6688 34.4122L29.3058 29.1273L29.4258 29.1737C28.4484 30.7029 27.8883 32.5232 27.8883 34.4396C27.8883 37.8001 29.5924 40.7699 32.1816 42.5308V46.5937H32.1815ZM38.6907 46.415C38.6907 46.5136 38.6105 46.5938 38.5119 46.5938H33.5879V43.3257C34.8301 43.8982 36.2119 44.2184 37.6672 44.2184C38.0129 44.2184 38.3542 44.2001 38.6908 44.165V46.415H38.6907Z" fill="#96ABEC"/>
<path d="M40.9951 32.3617C40.724 32.0837 40.279 32.0779 40.0007 32.349L37.2363 35.0436L36.0782 33.9084C35.8009 33.6367 35.3557 33.6411 35.0838 33.9185C34.812 34.1958 34.8164 34.641 35.0937 34.9129L36.7427 36.5288C36.8794 36.6628 37.0571 36.7298 37.2349 36.7298C37.412 36.7298 37.5891 36.6634 37.7257 36.5302L40.9823 33.3561C41.2604 33.0849 41.266 32.6398 40.9951 32.3617Z" fill="#96ABEC"/>
<path d="M37.6678 27.1341C33.6395 27.1341 30.3623 30.4113 30.3623 34.4395C30.3623 38.4678 33.6395 41.745 37.6678 41.745C41.696 41.745 44.9732 38.4678 44.9732 34.4395C44.9732 30.4113 41.696 27.1341 37.6678 27.1341ZM37.6678 40.3386C34.415 40.3386 31.7686 37.6922 31.7686 34.4394C31.7686 31.1867 34.4149 28.5403 37.6678 28.5403C40.9205 28.5403 43.5669 31.1867 43.5669 34.4394C43.5669 37.6922 40.9205 40.3386 37.6678 40.3386Z" fill="#96ABEC"/>
</svg>
