<?xml version="1.0" encoding="UTF-8"?>
<svg width="46px" height="37px" viewBox="0 0 46 37" version="1.1" xmlns="http://www.w3.org/2000/svg" xmlns:xlink="http://www.w3.org/1999/xlink">
    <title>ECC7C291-3751-481F-A518-ABF29F24A183</title>
    <g id="Final" stroke="none" stroke-width="1" fill="none" fill-rule="evenodd">
        <g id="what-makes-us-number-1-component" transform="translate(-220.000000, -172.000000)">
            <g id="Group-7" transform="translate(220.000000, 172.673267)">
                <g id="Group" fill="#AE9FE1" opacity="0.5">
                    <g id="Group-47">
                        <ellipse id="Oval" cx="17.5650437" cy="17.8217822" rx="17.5650437" ry="17.8217822"></ellipse>
                    </g>
                </g>
                <g id="selection-icon" transform="translate(14.000000, 2.326733)">
                    <rect id="Rectangle_46" x="0" y="0" width="31.7793103" height="31.7793103"></rect>
                    <path d="M5.87321379,30.4564966 C4.45791268,30.454672 3.31114179,29.307605 3.30968276,27.8923034 L3.30968276,12.7699862 C3.3095068,12.6180456 3.36978707,12.4722775 3.47722538,12.3648392 C3.58466369,12.2574009 3.7304318,12.1971206 3.88237241,12.1972966 C4.03431303,12.1971206 4.18008114,12.2574009 4.28751945,12.3648392 C4.39495776,12.4722775 4.45523803,12.6180456 4.45506207,12.7699862 L4.45506207,27.8923034 C4.45651946,28.6749226 5.09059469,29.3089978 5.87321379,29.3104552 L24.8388414,29.3104552 C25.6214605,29.3089978 26.2555357,28.6749226 26.2569931,27.8923034 L26.2569931,26.6827034 L21.763531,22.1892414 C21.763531,22.1892414 21.7582345,22.1812966 21.7529379,22.1786483 C21.7496645,22.1756325 21.7469717,22.1720421 21.7449931,22.1680552 L19.0450759,19.4681379 C17.9570574,20.0378375 16.7470419,20.3350024 15.5188966,20.3341241 C13.4491357,20.3350628 11.4684765,19.4920154 10.0343172,17.999669 C10.0014317,17.970282 9.97108914,17.9381677 9.94361379,17.903669 C8.62385423,16.4950344 7.8899962,14.6367165 7.8912,12.7064276 C7.89521482,8.49689382 11.3067145,5.08539413 15.5162483,5.08137931 C19.7255874,5.08612181 23.1368507,8.49708888 23.1419586,12.7064276 C23.1425007,13.9346122 22.8451155,15.1445996 22.2753103,16.2326069 L24.9752276,18.9351724 C24.9792225,18.937138 24.9828152,18.9398325 24.9858207,18.9431172 C24.9877882,18.9472939 24.9907421,18.9509295 24.9944276,18.9537103 L26.2523586,20.2116414 L26.2523586,7.41649655 L23.2432552,7.41649655 C22.548519,7.41649655 21.9853241,6.85330164 21.9853241,6.15856552 L21.9853241,2.46488276 L5.86857931,2.46488276 C5.08507892,2.46670732 4.45079039,3.10218033 4.45042759,3.88568276 L4.45042759,7.65947586 C4.45060355,7.81141648 4.39032328,7.95718459 4.28288497,8.0646229 C4.17544666,8.17206121 4.02967855,8.23234148 3.87773793,8.23216552 C3.72579732,8.23234148 3.5800292,8.17206121 3.47259089,8.0646229 C3.36515258,7.95718459 3.30504789,7.81141648 3.30504789,7.65947586 L3.30504789,3.88568276 C3.30541177,2.46949811 4.45239631,1.32103244 5.86857931,1.31884138 L22.5580138,1.31884138 C22.5786367,1.31916249 22.5992115,1.32093237 22.6195862,1.32413793 L22.6334897,1.32413793 L22.6785103,1.33208276 C22.6838069,1.33208276 22.6891034,1.33208276 22.6917517,1.33737931 C22.7070938,1.33929266 22.7221868,1.34284395 22.7367724,1.34797241 C22.7416564,1.35079415 22.7470619,1.35259599 22.7526621,1.35326897 L22.7930483,1.36915862 L22.8089379,1.37710345 L22.8433655,1.39564138 L22.8619034,1.40623448 C22.8721657,1.41250468 22.8819074,1.41958956 22.8910345,1.42742069 C22.8977242,1.43107224 22.9039486,1.43551821 22.9095724,1.44066207 C22.9190962,1.4477975 22.9279594,1.45577441 22.9360552,1.46449655 C22.94289,1.46897669 22.9491204,1.47431702 22.9545931,1.48038621 C22.9642848,1.48852933 22.973358,1.49738128 22.9817379,1.50686897 L22.992331,1.51746207 L27.2560552,6.46642759 C27.2560552,6.46642759 27.2560552,6.46642759 27.2620138,6.47172414 C27.267861,6.47674244 27.2724045,6.48310339 27.2752552,6.49026207 C27.282312,6.49650541 27.2885418,6.50362517 27.2937931,6.51144828 C27.2993821,6.5187965 27.3040512,6.52680076 27.3076966,6.53528276 C27.3135904,6.54130425 27.318108,6.54853249 27.3209379,6.55646897 C27.3267695,6.56365227 27.331459,6.57169147 27.3348414,6.58030345 C27.3388946,6.58709213 27.3424355,6.59417387 27.3454345,6.60148966 C27.3513931,6.61208276 27.3540414,6.62002759 27.3593379,6.63062069 C27.3624091,6.63751687 27.3650622,6.64459174 27.3672828,6.6518069 C27.3672828,6.65975172 27.3732414,6.67034483 27.3758897,6.67828966 C27.3791289,6.68675743 27.3809195,6.69571013 27.3811862,6.70477241 C27.3811862,6.71271724 27.3864828,6.72066207 27.389131,6.73125517 C27.3917793,6.74184828 27.389131,6.7497931 27.389131,6.76038621 C27.389131,6.77097931 27.389131,6.77627586 27.3944276,6.78422069 C27.3997241,6.79216552 27.3944276,6.81864828 27.3944276,6.83784828 L27.3944276,21.3470897 L29.9665655,23.9218759 C30.4053639,24.3566011 30.6479578,24.9514347 30.638337,25.569041 C30.6287161,26.1866472 30.3677123,26.773636 29.9155862,27.1944828 C29.4992904,27.6232386 28.9301007,27.8696257 28.3325793,27.8797241 C28.0058571,27.8784053 27.6841899,27.7989533 27.3944276,27.648 L27.3944276,27.8850207 C27.3918769,29.3001275 26.2453413,30.4466631 24.8302345,30.4492138 L5.87321379,30.4564966 Z M22.9704828,21.7708138 L27.552,26.3549793 C27.7413629,26.5883553 28.0235643,26.7269231 28.3240168,26.7340586 C28.6244693,26.741194 28.9129306,26.6161788 29.1131586,26.3920552 C29.346985,26.1837344 29.484886,25.8884466 29.4945269,25.57543 C29.5041678,25.2624134 29.3847007,24.9591987 29.1641379,24.7368828 L26.4350897,22.0078345 C26.4271611,22.0007044 26.4200548,21.9927098 26.4139034,21.984 L24.5826207,20.1553655 L22.9704828,21.7708138 Z M20.9584552,18.0420414 C20.9285413,18.0811209 20.8935899,18.1160723 20.8545103,18.1459862 C20.5989694,18.3964382 20.3264309,18.6289365 20.0388414,18.8418207 L22.1607724,20.9604414 L23.7735724,19.3483034 L21.6516414,17.2296828 C21.440327,17.516924 21.2086699,17.7886289 20.9584552,18.0427034 L20.9584552,18.0420414 Z M11.0810483,17.4210207 C12.2796911,18.5546805 13.8670835,19.1860836 15.5169103,19.1854378 C16.6569545,19.1865857 17.7767267,18.8840187 18.7610483,18.3088552 C18.8097832,18.2699803 18.8634319,18.237702 18.9206069,18.2128552 C19.2411844,18.0153567 19.5436109,17.7898108 19.824331,17.538869 C19.0583576,15.7928302 17.3328699,14.6644968 15.4262069,14.6628414 C13.5682067,14.6717329 11.8794651,15.7439538 11.0810483,17.4216828 L11.0810483,17.4210207 Z M18.8312276,11.2591448 C18.8309772,12.2905085 18.3623742,13.2659529 17.5574069,13.910731 C18.8842654,14.4201958 19.9853158,15.3871664 20.6618483,16.637131 C20.7942621,16.4663172 20.9127724,16.2935172 21.0273103,16.1074759 C21.0495889,16.0512 21.0811434,15.9990568 21.1206621,15.9532138 C21.6960064,14.9663131 21.9985387,13.8441558 21.9972455,12.7017931 C21.9921362,9.12565315 19.0943744,6.22789134 15.5182345,6.22278621 C11.9420945,6.22789134 9.04433272,9.12565315 9.03921949,12.7017931 C9.03706465,14.0661558 9.46827477,15.3959522 10.2706759,16.4994207 C10.7053142,15.7436319 11.3003574,15.0923162 12.0139034,14.5913379 C12.4123689,14.311195 12.8437369,14.081058 13.2983172,13.9060966 C12.4943799,13.2621429 12.026483,12.2878651 12.0264828,11.2578207 C12.0279432,9.37861625 13.5509749,7.85558457 15.4301793,7.85412414 C17.3089731,7.85740988 18.8305003,9.38101042 18.8312276,11.2598069 L18.8312276,11.2591448 Z M13.1731862,11.2591448 C13.1735514,12.5056035 14.1837208,13.5160692 15.4301793,13.5168 C16.6755596,13.5142462 17.6840941,12.5045273 17.6851862,11.2591448 C17.6840941,10.0137624 16.6755596,9.00404343 15.4301793,9.00148966 C14.1842381,9.00331601 13.1751711,10.0138644 13.1751724,11.2598069 L13.1731862,11.2591448 Z M23.1353379,6.16121379 C23.1371204,6.2218218 23.1865943,6.27012471 23.2472276,6.27045517 L25.5770483,6.27045517 L23.136,3.43746207 L23.1353379,6.16121379 Z M18.0718345,26.4006625 C17.9198939,26.400838 17.7741258,26.3405578 17.6666874,26.2331195 C17.5592491,26.1256811 17.4989689,25.979913 17.4991444,25.8279724 C17.4989689,25.6760318 17.5592491,25.5302637 17.6666874,25.4228254 C17.7741258,25.3153871 17.9198939,25.2551068 18.0718345,25.2552824 L21.2702897,25.2552824 C21.4222303,25.2551068 21.5679984,25.3153871 21.6754367,25.4228254 C21.782875,25.5302637 21.8431553,25.6760318 21.8429797,25.8279724 C21.8431553,25.979913 21.782875,26.1256811 21.6754367,26.2331195 C21.5679984,26.3405578 21.4222303,26.400838 21.2702897,26.4006625 L18.0718345,26.4006625 Z M15.5109517,26.4006621 C15.359416,26.4003113 15.2142263,26.3397774 15.1073227,26.2323771 C15.0004191,26.1249769 14.9405588,25.9795081 14.9409088,25.8279724 C14.9405588,25.6764367 15.0004191,25.5309679 15.1073227,25.4235677 C15.2142263,25.3161675 15.359416,25.2556335 15.5109517,25.2552828 L15.5248552,25.2552828 C15.8408409,25.2560108 16.0968167,25.5119867 16.0975448,25.8279724 C16.0968167,26.1439581 15.8408409,26.399934 15.5248552,26.4006621 L15.5109517,26.4006621 Z M9.76485517,26.4006625 C9.44861096,26.4002982 9.19223275,26.144216 9.19150345,25.8279724 C9.19223275,25.5117288 9.44861096,25.2556467 9.76485517,25.2552824 L12.9626483,25.2552824 C13.1145889,25.2551068 13.260357,25.3153871 13.3677953,25.4228254 C13.4752336,25.5302637 13.5355139,25.6760318 13.5353383,25.8279724 C13.5355139,25.979913 13.4752336,26.1256811 13.3677953,26.2331195 C13.260357,26.3405578 13.1145889,26.400838 12.9626483,26.4006625 L9.76485517,26.4006625 Z M12.2482759,23.4637241 C11.9323335,23.4622717 11.6766736,23.2063162 11.6755862,22.8903724 C11.6763143,22.5743867 11.9322902,22.3184108 12.2482759,22.3176824 L18.7862069,22.3176824 C18.9381475,22.3175068 19.0839156,22.3777871 19.1913539,22.4852254 C19.2987922,22.5926637 19.3590725,22.7384318 19.3588969,22.8903724 C19.3588969,23.2067675 19.1026017,23.4633588 18.7862069,23.4637241 L12.2482759,23.4637241 Z M3.31034483,10.2256552 L3.31034483,10.2124138 C3.31179461,9.8967285 3.56734919,9.64117392 3.88303448,9.63972414 C4.199171,9.64008898 4.45535929,9.89627728 4.45572414,10.2124138 L4.45572414,10.2256552 C4.45535929,10.5417917 4.199171,10.79798 3.88303448,10.7983448 C3.56837385,10.7969097 3.31323835,10.542954 3.31034483,10.2283034 L3.31034483,10.2256552 Z" id="Union_4" stroke="#000000" stroke-width="0.1" fill="#000000" fill-rule="nonzero"></path>
                </g>
            </g>
        </g>
    </g>
</svg>