<svg fill="#fff" id="Capa_1" enable-background="new 0 0 512 512" height="32" viewBox="0 0 512 512" width="32" xmlns="http://www.w3.org/2000/svg"><path d="m79.948 472h121.564l-9.096 40h-112.468c-33.084 0-60-26.916-60-60v-352c0-33.084 26.916-60 60-60h15v-40h40v40h80v-40h40v40h80v-40h40v40h17c33.084 0 60 26.916 60 60v138.002l-40-39.909v-98.093c0-11.028-8.972-20-20-20h-17v9h-.051c.017.333.051.662.051 1 0 11.046-8.954 20-20 20s-20-8.954-20-20c0-.338.034-.667.051-1h-.051v-9h-80v9h-.051c.017.333.051.662.051 1 0 11.046-8.954 20-20 20s-20-8.954-20-20c0-.338.034-.667.051-1h-.051v-9h-80v9h-.051c.017.333.051.662.051 1 0 11.046-8.954 20-20 20s-20-8.954-20-20c0-.338.034-.667.051-1h-.051v-9h-15c-11.028 0-20 8.972-20 20v352c0 11.028 8.972 20 20 20zm292-280h-272v40h272zm-120.522 160h-151.478v40h121.802c5.416-11.969 12.961-22.987 22.204-32.316zm-151.478-40h190.379l38.901-40h-229.28zm392.104 22.52-134.363 138.156c-7.733 7.729-17.308 13.63-27.69 17.065l-96.434 21.691 21.959-96.152c3.422-10.328 9.288-19.858 16.967-27.568l134.381-138.179zm-56.208.424-28.542-28.478-108.777 111.646 28.53 28.545z"/></svg>