<svg xmlns="http://www.w3.org/2000/svg" width="28" height="26" xmlns:v="https://vecta.io/nano"><path d="M27.857 8.207a8.07 8.07 0 0 0-2.474-5.828 8.61 8.61 0 0 0-11.538-.295 8.57 8.57 0 0 0-11.483.366A7.91 7.91 0 0 0 0 8.173a8.64 8.64 0 0 0 2.502 6.078 2.38 2.38 0 0 0 .613 2.507 2.55 2.55 0 0 0 1.783.713 3 3 0 0 0 .3 0 2.23 2.23 0 0 0 .719 2.017 2.55 2.55 0 0 0 1.783.713 3 3 0 0 0 .3 0 2.23 2.23 0 0 0 .719 2.017 2.55 2.55 0 0 0 1.783.713 3.45 3.45 0 0 0 .3-.09 2.47 2.47 0 0 0 0 .251 2.55 2.55 0 0 0 4.273 1.822l1.67-1.67a2.45 2.45 0 0 0 .474-.663 2.56 2.56 0 0 0 2.424-.63 2.23 2.23 0 0 0 .719-2.006h.217a2.57 2.57 0 0 0 1.794-.724c.57-.516.84-1.286.713-2.045a2.42 2.42 0 0 0 2.112-.696c.755-.72.96-1.845.507-2.786a8.05 8.05 0 0 0 2.184-5.488zM3.9 15.957a1.33 1.33 0 0 1 0-1.906l1.67-1.67c.562-.538 1.45-.538 2 0a1.33 1.33 0 0 1 0 1.906l-1.67 1.67c-.562.538-1.45.538-2 0h0zm2.786 2.708a1.33 1.33 0 0 1 0-1.906l1.67-1.67a1.45 1.45 0 0 1 2.011 0 1.33 1.33 0 0 1 0 1.906l-1.67 1.67c-.562.538-1.45.538-2 0zm4.797 2.708c-.562.538-1.45.538-2 0a1.33 1.33 0 0 1 0-1.906l1.67-1.67c.562-.538 1.45-.538 2 0a1.33 1.33 0 0 1 0 1.906l-1.67 1.67zm4.513 1.114l-1.67 1.67c-.562.538-1.45.538-2 0a1.41 1.41 0 0 1-.423-1.003c-.02-.364.112-.72.368-.98l1.67-1.67a1.5 1.5 0 0 1 2.045.033 1.33 1.33 0 0 1 .011 1.934l.01.017zm8.374-6.77c-.558.533-1.437.533-1.995 0-.056-.052-.123-.092-.195-.117l-3.755-3.65c-.224-.187-.553-.17-.756.04a.56.56 0 0 0-.018.757l3.9 3.8a1.32 1.32 0 0 1 .41.953c0 .36-.148.705-.4.953-.497.474-1.26.532-1.822.14l-.117-.14-3.9-3.8c-.138-.157-.353-.223-.556-.17s-.36.213-.405.417.026.417.187.55l3.738 3.633a.54.54 0 0 0 .117.167c.056.056.117.095.178.14.183.23.283.514.284.808-.002.372-.16.725-.435.975a1.44 1.44 0 0 1-1.315.357h0a2.43 2.43 0 0 0-.741-1.755c-.564-.533-1.335-.8-2.106-.702a2.23 2.23 0 0 0-.73-2.05 2.55 2.55 0 0 0-2.067-.691 2.23 2.23 0 0 0-.719-2.017 2.55 2.55 0 0 0-2.067-.691 2.23 2.23 0 0 0-.719-2.017c-.995-.953-2.565-.953-3.56 0l-1.67 1.67c-1.3-1.388-2.007-3.2-2-5.103a6.79 6.79 0 0 1 2.028-4.925C5.86.63 10.103.457 13.026 2.84l-3.4 3.343c-.516.433-.82 1.065-.84 1.738s.25 1.322.74 1.783c.992.952 2.557.952 3.55 0l3.638-3.538 3.9 3.9 3.772 3.744a1.31 1.31 0 0 1 .4.956 1.32 1.32 0 0 1-.417.95h0zm.613-2.903l-3.59-3.544-4.3-4.257c-.026-.02-.054-.04-.084-.056-.03-.026-.065-.048-.1-.067-.032-.003-.063-.003-.095 0-.068-.026-.144-.026-.212 0-.035-.003-.07-.003-.106 0-.03.016-.06.034-.1.056s-.062.038-.1.06l-4.028 3.9c-.56.54-1.446.54-2.006 0a1.25 1.25 0 0 1-.39-.936 1.3 1.3 0 0 1 .479-.953l3.86-3.76C17.12.462 21.7.426 24.6 3.176a6.98 6.98 0 0 1 .373 9.64z" fill="#fff"/></svg>