<svg xmlns="http://www.w3.org/2000/svg" width="18" height="23" fill="none" xmlns:v="https://vecta.io/nano"><path d="M15.972 14.06c.221 0 .437-.066.621-.188l.903-.601c.278-.184.502-.604.502-.937v-2.169c0-.333-.224-.753-.502-.937l-.903-.601c-.188-.114-.401-.18-.621-.19h-1.348v5.625l1.348-.002zM-.001 11.269c.011 3.586 2.918 6.168 6.188 6.168a6.15 6.15 0 0 0 4.07-1.531c.663-.581 2.047-1.489 3.215-1.835.01 0 .019-.003.027-.004V8.433c-.009 0-.018-.002-.027-.004-1.168-.346-2.552-1.255-3.215-1.836a6.15 6.15 0 0 0-4.07-1.531 6.19 6.19 0 0 0-6.188 6.207zm3.375-.019c.001.746.297 1.46.825 1.988s1.242.824 1.988.825a.56.56 0 0 1 .563.563.56.56 0 0 1-.562.563 3.94 3.94 0 0 1-3.937-3.937.56.56 0 0 1 .165-.398c.105-.105.249-.165.398-.165a.56.56 0 0 1 .563.563zm3.375 7.313c-.224 0-.438.089-.597.247s-.247.373-.247.597v2.25c0 .224.089.438.247.597s.373.247.597.247.438-.089.597-.247.247-.373.247-.597v-2.25c0-.224-.089-.438-.247-.597s-.373-.247-.597-.247zM5.905.844v2.25c0 .224.089.438.247.597s.373.247.597.247.438-.089.597-.247.247-.373.247-.597V.844c0-.224-.089-.438-.247-.597S6.973 0 6.749 0s-.438.089-.597.247-.247.373-.247.597zM1.941 17.892L.816 19.84c-.058.096-.096.203-.112.314s-.01.224.018.332.077.21.145.3.153.164.25.22.204.092.316.106.224.006.332-.024.209-.081.297-.151.161-.156.216-.254l1.125-1.948c.058-.096.096-.203.112-.314s.01-.224-.018-.332-.077-.21-.145-.3-.153-.164-.25-.22a.84.84 0 0 0-.648-.082c-.108.03-.209.081-.297.151s-.161.156-.216.254zm9.281-16.076l-1.125 1.948a.84.84 0 0 0-.112.314c-.016.111-.01.224.018.332s.077.21.145.3.153.164.25.22.204.092.316.106.224.006.332-.024.209-.081.297-.151a.84.84 0 0 0 .216-.254l1.125-1.948c.107-.193.134-.421.075-.634s-.2-.394-.391-.505-.419-.142-.633-.086-.398.192-.512.382zm-1.125 16.919l1.125 1.948a.84.84 0 0 0 .216.254c.088.07.189.121.297.151s.221.038.332.024a.84.84 0 0 0 .316-.106c.097-.056.182-.131.25-.22s.117-.191.145-.3.034-.221.018-.332a.84.84 0 0 0-.112-.314l-1.125-1.948c-.114-.189-.298-.326-.512-.382s-.441-.024-.633.086-.332.292-.391.505-.032.441.075.634zM3.515 4.186c0-.148-.039-.294-.113-.422L2.277 1.815c-.114-.189-.298-.327-.512-.382s-.441-.024-.633.086-.332.292-.391.505-.032.441.075.634l1.125 1.948c.093.161.236.286.408.357s.362.083.541.035.338-.154.451-.301.174-.328.174-.513z" fill="#fff"/></svg>