<svg xmlns="http://www.w3.org/2000/svg" width="25" height="26" xmlns:v="https://vecta.io/nano"><path d="M10.558.5H1.263a.93.93 0 0 0-.929.926V16.24a.93.93 0 0 0 .929.926H6.17l-2.07 6.2c-.162.485.1 1 .588 1.17.098.032.197.048.294.048a.93.93 0 0 0 .882-.633l2.267-6.774h3.358v7.407a.93.93 0 0 0 .93.926c.514 0 .93-.414.93-.926v-7.407h3.358l2.267 6.774a.93.93 0 0 0 .882.633.94.94 0 0 0 .294-.048c.487-.162.75-.686.588-1.17l-2.07-6.2h4.907a.93.93 0 0 0 .929-.926V1.426A.93.93 0 0 0 23.571.5H10.558zM5.9 13.463c-2.053 0-3.718-1.658-3.718-3.704S3.857 6.056 5.9 6.056V9.76h3.718A3.71 3.71 0 0 1 5.9 13.464zm1.86-5.556V4.204c2.053 0 3.718 1.658 3.718 3.704H7.77zm11.154 5.556h-5.577V11.6h5.577v1.852zM22.64 9.76h-9.295V7.907h9.295V9.76zm0-3.704h-9.295V4.204h9.295v1.852z" fill="#50caae"/></svg>