<svg width="40" height="40" viewBox="0 0 40 40" fill="none" xmlns="http://www.w3.org/2000/svg">
<g clip-path="url(#clip0_14_12)">
<path d="M12.5307 24.3744L10.3902 22.7222L9.38771 19.1168C9.29921 18.7979 8.9684 18.6108 8.64918 18.6996C8.33027 18.7884 8.14351 19.1193 8.23201 19.4382L8.80513 21.4987L5.42409 18.8891C5.16194 18.6868 4.78505 18.7353 4.58272 18.9975C4.38039 19.2596 4.42891 19.6362 4.69106 19.8389L8.10719 22.4753H5.77718C5.44575 22.4753 5.1772 22.7438 5.1772 23.0749C5.1772 23.4064 5.44575 23.6749 5.77718 23.6749H9.66114C11.9762 25.4617 11.8874 25.4489 12.1639 25.4489C12.733 25.4489 12.9836 24.7238 12.5307 24.3744Z" fill="#AE583E"/>
<path d="M37.3913 18.9975C37.189 18.7353 36.8124 18.6868 36.5502 18.8892L33.1692 21.4987L33.742 19.4382C33.8308 19.1193 33.644 18.7884 33.3248 18.6999C33.0056 18.6108 32.6751 18.7979 32.5863 19.1171L31.5841 22.7222L29.4436 24.3744C28.9904 24.7241 29.2416 25.4489 29.8104 25.4489C29.9383 25.4489 30.0671 25.4083 30.1763 25.3241L32.3129 23.6749H36.1971C36.5283 23.6749 36.7968 23.4067 36.7968 23.0752C36.7968 22.7438 36.5283 22.4756 36.1971 22.4756H33.8671L37.2833 19.8389C37.5451 19.6365 37.5939 19.2596 37.3913 18.9975Z" fill="#AE583E"/>
<path d="M33.749 37.3327C33.749 38.7997 32.5487 40 31.0817 40H10.8977C10.1647 40 9.49725 39.7003 9.01385 39.2166C8.53015 38.7332 8.23047 38.0658 8.23047 37.3327C8.23047 35.8658 9.43103 34.6655 10.8977 34.6655H12.9412C13.0883 34.6655 13.1737 34.4992 13.0883 34.3793C11.978 32.8052 11.325 30.8853 11.325 28.8125C11.325 26.4599 12.1654 24.3048 13.5622 22.6291C14.2406 21.8161 15.0502 21.1154 15.9575 20.5606C16.0067 20.531 16.0369 20.484 16.0479 20.4339C16.0628 20.3659 16.0411 20.2908 15.9819 20.2404C14.305 18.8189 13.2402 16.697 13.2402 14.3261C13.2402 9.94594 16.874 6.41445 21.2914 6.58199C21.642 6.59572 21.9866 6.63234 22.3238 6.69124C25.9383 7.32204 28.6986 10.4794 28.7392 14.2401C28.7651 16.6455 27.6949 18.8015 25.9981 20.2408C25.9417 20.2881 25.9194 20.3579 25.9304 20.4229C25.9383 20.4779 25.9697 20.5288 26.0219 20.5609C26.921 21.1108 27.7242 21.8033 28.3989 22.6074C29.8067 24.2859 30.6545 26.4502 30.6545 28.8128C30.6545 30.8853 30.0014 32.8052 28.8912 34.3793C28.8057 34.4995 28.8912 34.6655 29.0383 34.6655H31.0817C31.8148 34.6655 32.4822 34.9655 32.9656 35.4489C33.4493 35.9323 33.749 36.5997 33.749 37.3327Z" fill="#C2EAF2"/>
<path d="M33.7491 37.3328C33.7491 38.7997 32.5489 40 31.0819 40H13.5667C12.8336 40 12.1662 39.7003 11.6828 39.2166C11.1991 38.7332 10.8994 38.0658 10.8994 37.3328C10.8994 35.8658 12.1 34.6655 13.5667 34.6655H15.6101C15.7572 34.6655 15.8427 34.4992 15.7572 34.3793C14.647 32.8052 13.9939 30.8853 13.9939 28.8126C13.9939 26.46 14.8344 24.3048 16.2311 22.6291C16.9095 21.8161 17.7192 21.1154 18.6265 20.5606C18.6753 20.531 18.7058 20.484 18.7168 20.434C18.7318 20.3659 18.7101 20.2908 18.6509 20.2405C16.9739 18.819 15.9092 16.6971 15.9092 14.3262C15.9092 10.5014 18.6802 7.32391 22.324 6.69128C25.9385 7.32208 28.6988 10.4794 28.7394 14.2401C28.7653 16.6455 27.6951 18.8016 25.9983 20.2408C25.9421 20.2881 25.9196 20.358 25.9305 20.423C25.9388 20.4779 25.9699 20.5289 26.0221 20.5609C26.9211 21.1108 27.7244 21.8033 28.3991 22.6074C29.8069 24.2859 30.6547 26.4502 30.6547 28.8129C30.6547 30.8853 30.0016 32.8052 28.8914 34.3793C28.8059 34.4995 28.8914 34.6655 29.0385 34.6655H31.0819C31.8152 34.6655 32.4824 34.9655 32.9658 35.4489C33.4495 35.9323 33.7491 36.5997 33.7491 37.3328Z" fill="#DEF4F8"/>
<path d="M18.5493 13.1866C18.5493 13.7115 18.1235 14.1373 17.5983 14.1373C17.0734 14.1373 16.6477 13.7115 16.6477 13.1866C16.6477 12.6614 17.0734 12.236 17.5983 12.236C18.1235 12.236 18.5493 12.6614 18.5493 13.1866Z" fill="#4E5A61"/>
<path d="M25.3322 13.1866C25.3322 13.7115 24.9065 14.1373 24.3813 14.1373C23.8564 14.1373 23.4307 13.7115 23.4307 13.1866C23.4307 12.6614 23.8564 12.236 24.3813 12.236C24.9065 12.236 25.3322 12.6614 25.3322 13.1866Z" fill="#4E5A61"/>
<path d="M27.254 23.9258V28.0551H22.1375V23.2883L27.254 22.6376V23.9258Z" fill="#D63030"/>
<path d="M20.4542 14.6665L17.0801 16.2671C16.8085 16.3959 16.9004 16.8036 17.201 16.8036H21.0169C21.6175 16.8036 22.1326 16.3309 22.1375 15.7303C22.14 15.4212 22.0084 15.0842 21.6004 14.7766C21.2708 14.5282 20.8274 14.4898 20.4542 14.6665Z" fill="#FFA90B"/>
<path d="M28.3989 22.6074L28.0428 22.908C20.1055 27.2781 13.937 22.9147 13.937 22.9147L13.5625 22.6291C14.2406 21.8161 15.0505 21.1154 15.9578 20.5609C16.0067 20.531 16.0372 20.484 16.0482 20.434C16.6796 20.8096 20.7708 23.0145 25.9304 20.423C25.9386 20.4779 25.9697 20.5289 26.0219 20.5609C26.9213 21.1108 27.7242 21.8033 28.3989 22.6074Z" fill="#F44545"/>
<path d="M16.0479 20.434C16.0372 20.484 16.0067 20.531 15.9578 20.5606C15.0502 21.1154 14.2406 21.8161 13.5625 22.6291L13.9366 22.9147C13.9366 22.9147 14.4765 23.2965 15.443 23.7216C15.6804 23.3383 15.9435 22.9736 16.231 22.6291C16.6799 22.0914 17.1859 21.6022 17.7401 21.1722C16.8517 20.8868 16.2581 20.5588 16.0479 20.434Z" fill="#D63030"/>
<path d="M25.8311 2.74017V8.6499H15.4465V2.74017C15.4465 1.55823 16.4054 0.599365 17.5873 0.599365H23.6906C24.8731 0.599365 25.8311 1.55823 25.8311 2.74017Z" fill="#4E5A61"/>
<path d="M25.8311 2.74017V8.6499H18.9036V2.74017C18.9036 1.55823 19.8624 0.599365 21.0444 0.599365H23.6906C24.8731 0.599365 25.8311 1.55823 25.8311 2.74017Z" fill="#5F6C75"/>
<path d="M22.7374 30.1743C22.406 30.1743 22.1375 29.9057 22.1375 29.5746V28.0551C22.1375 27.7237 22.406 27.4554 22.7374 27.4554C23.0685 27.4554 23.3371 27.7237 23.3371 28.0551V29.5746C23.3371 29.9057 23.0685 30.1743 22.7374 30.1743Z" fill="#D63030"/>
<path d="M26.6544 30.1743C26.3229 30.1743 26.0547 29.9057 26.0547 29.5746V28.0551C26.0547 27.7237 26.3229 27.4554 26.6544 27.4554C26.9855 27.4554 27.254 27.7237 27.254 28.0551V29.5746C27.254 29.9057 26.9855 30.1743 26.6544 30.1743Z" fill="#D63030"/>
<path d="M24.6959 30.1743C24.3647 30.1743 24.0962 29.9057 24.0962 29.5746V28.0551C24.0962 27.7237 24.3647 27.4554 24.6959 27.4554C25.0273 27.4554 25.2958 27.7237 25.2958 28.0551V29.5746C25.2958 29.9057 25.0273 30.1743 24.6959 30.1743Z" fill="#D63030"/>
<path d="M12.9261 2.60071H11.7734L12.5886 1.78558C12.8226 1.55121 12.8226 1.17157 12.5886 0.9375C12.3542 0.70343 11.9745 0.70343 11.7402 0.9375L10.925 1.75262V0.59967C10.925 0.268555 10.6565 0 10.3254 0C9.99426 0 9.72571 0.268555 9.72571 0.59967V1.75262L8.91028 0.9375C8.67621 0.70343 8.29657 0.70343 8.06219 0.9375C7.82813 1.17188 7.82813 1.55151 8.06219 1.78558L8.87732 2.60071H7.72467C7.39355 2.60071 7.125 2.86926 7.125 3.20038C7.125 3.5318 7.39355 3.80035 7.72467 3.80035H8.87762L8.06219 4.61548C7.68317 4.99451 7.95691 5.63934 8.48639 5.63934C8.80591 5.63934 8.87061 5.50354 9.72571 4.64844V5.80139C9.72571 6.13251 9.99426 6.40106 10.3254 6.40106C10.6568 6.40106 10.925 6.13251 10.925 5.80139V4.64844L11.7405 5.46356C11.8574 5.58075 12.0109 5.63934 12.1644 5.63934C12.3179 5.63934 12.4714 5.58075 12.5886 5.46356C12.8226 5.22949 12.8226 4.84955 12.5886 4.61548L11.7734 3.80035H12.9261C13.2575 3.80035 13.5261 3.5318 13.5261 3.20068C13.5261 2.86926 13.2575 2.60071 12.9261 2.60071Z" fill="#DEF4F8"/>
<path d="M6.50452 13.9529H5.35156L6.16669 13.1378C6.40106 12.9037 6.40106 12.5238 6.16669 12.2897C5.93262 12.0557 5.55267 12.0554 5.3186 12.2897L4.50348 13.1049V11.9522C4.50348 11.6208 4.23492 11.3522 3.9035 11.3522C3.57239 11.3522 3.30383 11.6208 3.30383 11.9522V13.1049L2.48871 12.2897C2.25433 12.0557 1.87469 12.0557 1.64062 12.2897C1.40625 12.5241 1.40625 12.9037 1.64062 13.1381L2.45575 13.9532H1.3028C0.97168 13.9532 0.703125 14.2215 0.703125 14.5529C0.703125 14.884 0.97168 15.1526 1.3028 15.1526H2.45575L1.64062 15.9677C1.2616 16.3467 1.53503 16.9916 2.06451 16.9916C2.38434 16.9916 2.44904 16.8558 3.30383 16.0007V17.1536C3.30383 17.4847 3.57239 17.7533 3.90381 17.7533C4.23492 17.7533 4.50348 17.4847 4.50348 17.1536V16.0007C5.36041 16.8576 5.42389 16.9916 5.7428 16.9916C6.27228 16.9916 6.54572 16.3467 6.16669 15.9677L5.35156 15.1526H6.50452C6.83563 15.1526 7.10419 14.884 7.10419 14.5529C7.10419 14.2215 6.83563 13.9529 6.50452 13.9529Z" fill="#DEF4F8"/>
<path d="M33.5963 11.6971H34.7492L33.9341 12.5122C33.5551 12.8915 33.8288 13.5364 34.3583 13.5364C34.6778 13.5364 34.7425 13.4006 35.5973 12.5455V13.6981C35.5973 14.0295 35.8658 14.2981 36.1973 14.2981C36.5284 14.2981 36.7969 14.0295 36.7969 13.6981V12.5455C37.6542 13.4027 37.7173 13.5364 38.0363 13.5364C38.5657 13.5364 38.8392 12.8912 38.4601 12.5125L37.645 11.6974H38.798C39.1291 11.6974 39.3976 11.4288 39.3976 11.0974C39.3976 10.7663 39.1291 10.4977 38.798 10.4977H37.645L38.4601 9.68262C38.6945 9.44824 38.6945 9.0686 38.4601 8.83453C38.2261 8.60016 37.8464 8.60016 37.6121 8.83453L36.7969 9.64966V8.4967C36.7969 8.16559 36.5284 7.89703 36.1973 7.89703C35.8658 7.89703 35.5976 8.16559 35.5976 8.4967V9.64966L34.7822 8.83453C34.5481 8.60016 34.1682 8.60016 33.9341 8.83453C33.7 9.0686 33.7 9.44855 33.9341 9.68262L34.7492 10.4977H33.5966C33.2651 10.4977 32.9966 10.7663 32.9966 11.0974C32.9966 11.4288 33.2651 11.6971 33.5963 11.6971Z" fill="#DEF4F8"/>
<path d="M38.798 29.7769H37.645L38.4601 28.9618C38.6945 28.7274 38.6945 28.3478 38.4601 28.1137C38.2261 27.8796 37.8461 27.8793 37.6121 28.1137L36.7969 28.9288V27.7759C36.7969 27.4448 36.5284 27.1762 36.1973 27.1762C35.8658 27.1762 35.5973 27.4448 35.5973 27.7759V28.9285L34.7822 28.1134C34.5481 27.8793 34.1682 27.8793 33.9341 28.1134C33.6997 28.3478 33.6997 28.7274 33.9341 28.9618L34.7492 29.7769H33.5963C33.2651 29.7769 32.9966 30.0452 32.9966 30.3766C32.9966 30.7077 33.2651 30.9763 33.5963 30.9763H34.7492L33.9341 31.7914C33.5551 32.1704 33.8288 32.8152 34.3583 32.8152C34.6778 32.8152 34.7425 32.6794 35.5973 31.8246V32.9773C35.5973 33.3087 35.8658 33.577 36.1973 33.577C36.5284 33.577 36.7969 33.3087 36.7969 32.9773V31.8243C37.6542 32.6816 37.7173 32.8152 38.0363 32.8152C38.5657 32.8152 38.8392 32.1704 38.4601 31.7914L37.645 30.9763H38.798C39.1291 30.9763 39.3976 30.7077 39.3976 30.3766C39.3976 30.0452 39.1291 29.7769 38.798 29.7769Z" fill="#DEF4F8"/>
<path d="M6.50452 32.3776H5.35156L6.16669 31.5625C6.40106 31.3284 6.40106 30.9485 6.16669 30.7144C5.93262 30.4803 5.55267 30.48 5.3186 30.7144L4.50348 31.5295V30.3769C4.50348 30.0455 4.23492 29.7769 3.9035 29.7769C3.57239 29.7769 3.30383 30.0455 3.30383 30.3769V31.5295L2.48871 30.7144C2.25433 30.4803 1.87469 30.4803 1.64062 30.7144C1.40625 30.9488 1.40625 31.3284 1.64062 31.5628L2.45575 32.3779H1.3028C0.97168 32.3779 0.703125 32.6462 0.703125 32.9776C0.703125 33.3087 0.97168 33.5773 1.3028 33.5773H2.45575L1.64062 34.3924C1.40625 34.6268 1.40625 35.0064 1.64062 35.2405C1.875 35.4749 2.25464 35.4749 2.48871 35.2405L3.30383 34.4254V35.5783C3.30383 35.9094 3.57239 36.178 3.9035 36.178C4.23492 36.178 4.50348 35.9094 4.50348 35.5783V34.4257C5.36041 35.2823 5.42389 35.4163 5.74249 35.4163C6.27228 35.4163 6.54572 34.7714 6.16669 34.3924L5.35156 33.5773H6.50452C6.83563 33.5773 7.10419 33.3087 7.10419 32.9776C7.10419 32.6462 6.83563 32.3776 6.50452 32.3776Z" fill="#DEF4F8"/>
<path d="M27.927 10.329H13.3515C12.4241 10.329 11.6721 9.57733 11.6721 8.6499C11.6721 7.72247 12.4241 6.97052 13.3515 6.97052H27.927C28.8544 6.97052 29.6061 7.72247 29.6061 8.6499C29.6061 9.57733 28.8544 10.329 27.927 10.329Z" fill="#4E5A61"/>
</g>
<defs>
<clipPath id="clip0_14_12">
<rect width="40" height="40" fill="white"/>
</clipPath>
</defs>
</svg>
