<svg xmlns="http://www.w3.org/2000/svg" width="74" height="75" fill-rule="nonzero" xmlns:v="https://vecta.io/nano"><path d="M36.73 1.8c13.156 0 24.282 10.87 24.394 23.78l2.316 9.263a4.14 4.14 0 0 1-.757 3.572c-.794 1.018-2 1.6-3.28 1.6H54.8v4.746c0 5.57-4.132 10.2-9.492 10.96v15.932H65.15a1.58 1.58 0 1 1 0 3.164H1.87a1.58 1.58 0 1 1 0-3.164h10.215v-34.8a1.58 1.58 0 1 1 3.164 0v34.803h3.163l.001-7.9a1.58 1.58 0 1 1 3.164 0l-.001 7.9h20.566v-15.82l-12.655.001a1.58 1.58 0 1 1 0-3.164h14.238a7.92 7.92 0 0 0 7.91-7.91v-6.328a1.58 1.58 0 0 1 1.582-1.582h6.186c.424 0 .676-.24.788-.384s.285-.446.182-.857l-2.362-9.45c-.03-.125-.047-.254-.047-.384 0-11.283-9.723-20.815-21.23-20.815a1.58 1.58 0 1 1 0-3.164zm33.163 69.856c.416 0 .824.17 1.118.464s.464.702.464 1.118-.17.824-.464 1.118-.702.464-1.118.464-.824-.17-1.118-.464-.464-.702-.464-1.118.17-.824.464-1.118.702-.464 1.118-.464zm1.582-9.492a1.58 1.58 0 1 1 0 3.164h-6.328a1.58 1.58 0 1 1 0-3.164h6.328zm-3.164-4.746a1.58 1.58 0 1 1 0 3.164H54.075a1.58 1.58 0 1 1 0-3.164h14.238zM22.286.467a2.9 2.9 0 0 1 2.875 2.658l.107 1.366a14.3 14.3 0 0 1 1.681.698l1.048-.892c.52-.444 1.185-.688 1.87-.688.77 0 1.495.3 2.04.845l2.362 2.362a2.9 2.9 0 0 1 .156 3.909l-.893 1.05a14.34 14.34 0 0 1 .693 1.676l1.377.1a2.9 2.9 0 0 1 2.654 2.875v3.342a2.9 2.9 0 0 1-2.659 2.875l-1.37.108a14.3 14.3 0 0 1-.694 1.68l.893 1.05a2.9 2.9 0 0 1-.156 3.909l-2.362 2.362c-.545.545-1.27.845-2.04.845-.685 0-1.348-.244-1.87-.688l-1.05-.893c-.543.266-1.105.498-1.68.694l-.108 1.37a2.9 2.9 0 0 1-2.875 2.659h-3.342a2.9 2.9 0 0 1-2.875-2.654l-.1-1.377a14.31 14.31 0 0 1-1.676-.693l-1.05.893c-.52.444-1.185.688-1.87.688-.77 0-1.495-.3-2.04-.845L6.97 29.39a2.9 2.9 0 0 1-.156-3.909l.886-1.04a14.3 14.3 0 0 1-.698-1.681l-1.366-.107a2.9 2.9 0 0 1-2.658-2.875v-3.343a2.9 2.9 0 0 1 2.653-2.875L7 13.45c.196-.572.43-1.132.697-1.677l-.892-1.048a2.9 2.9 0 0 1 .156-3.909l2.362-2.362c.545-.545 1.27-.845 2.04-.845a2.89 2.89 0 0 1 1.87.688l1.048.892c.545-.268 1.105-.5 1.677-.697l.1-1.372A2.9 2.9 0 0 1 18.943.467h3.343zm-.26 3.164H19.2l-.176 2.192a1.58 1.58 0 0 1-1.186 1.406 11.18 11.18 0 0 0-2.95 1.227 1.58 1.58 0 0 1-1.835-.155L11.38 6.874 9.383 8.87l1.428 1.677a1.58 1.58 0 0 1 .155 1.835 11.19 11.19 0 0 0-1.227 2.95 1.58 1.58 0 0 1-1.406 1.186l-2.192.176v2.826l2.2.172A1.58 1.58 0 0 1 9.74 20.88c.262 1.034.675 2.028 1.227 2.954a1.58 1.58 0 0 1-.155 1.835l-1.428 1.677 1.996 1.996 1.677-1.428a1.58 1.58 0 0 1 1.835-.155 11.16 11.16 0 0 0 2.95 1.221 1.58 1.58 0 0 1 1.186 1.407l.176 2.198h2.825l.172-2.196a1.58 1.58 0 0 1 1.188-1.41c1.046-.266 2.04-.676 2.954-1.22a1.58 1.58 0 0 1 1.835.155l1.677 1.428 1.996-1.996-1.428-1.676a1.58 1.58 0 0 1-.155-1.835c.544-.914.955-1.908 1.22-2.954a1.58 1.58 0 0 1 1.41-1.188l2.195-.172v-2.825l-2.198-.176a1.58 1.58 0 0 1-1.407-1.186c-.267-1.044-.677-2.036-1.22-2.95a1.58 1.58 0 0 1 .155-1.835l1.428-1.676-1.996-1.996-1.68 1.423a1.58 1.58 0 0 1-1.835.155 11.2 11.2 0 0 0-2.954-1.227 1.58 1.58 0 0 1-1.188-1.409l-.172-2.2zm-1.4 6.566a7.92 7.92 0 0 1 7.91 7.91 7.92 7.92 0 0 1-7.91 7.91 7.92 7.92 0 0 1-7.91-7.91 7.92 7.92 0 0 1 7.91-7.91zm0 3.164c-2.617 0-4.746 2.13-4.746 4.746s2.13 4.746 4.746 4.746 4.746-2.13 4.746-4.746-2.13-4.746-4.746-4.746z" fill="#328a92"/><path d="M7.034 55.418v3.164H3.87v-3.164h3.164zm3.164-3.164v3.164H7.034v-3.164h3.164zm60.114-41.13v3.164h-3.164v-3.164h3.164zm3.164-3.164v3.164h-3.164V7.96h3.164zm-3.164-3.164V7.96h-3.164V4.795h3.164zm3.164-3.164v3.164h-3.164V1.63h3.164z" fill="#71bcc1" style="mix-blend-mode:multiply"/></svg>