<svg width="15" height="15" viewBox="0 0 15 15" fill="none" xmlns="http://www.w3.org/2000/svg">
<mask id="mask0_35_103" style="mask-type:alpha" maskUnits="userSpaceOnUse" x="0" y="0" width="15" height="15">
<rect width="15" height="15" fill="#D9D9D9"/>
</mask>
<g mask="url(#mask0_35_103)">
<path d="M12.3327 6.13175L14.2647 5.58931C14.6169 5.49041 14.8278 5.14453 14.7358 4.81672C14.6438 4.48894 14.2836 4.3034 13.9314 4.40225L11.9994 4.9447C11.6472 5.04355 11.4363 5.38947 11.5283 5.71728C11.6203 6.04501 11.9804 6.23066 12.3327 6.13175Z" fill="#1F9071"/>
<path d="M13.7177 8.24237L12.4992 7.61452C12.1851 7.45266 11.7813 7.56604 11.5973 7.86775C11.4134 8.16945 11.5189 8.54527 11.833 8.70713L13.0515 9.33498C13.3656 9.49683 13.7694 9.38345 13.9533 9.08175C14.1373 8.78004 14.0318 8.40422 13.7177 8.24237Z" fill="#1F9071"/>
<path d="M10.5688 3.55598C10.8829 3.71783 11.2867 3.60445 11.4707 3.30275L12.1842 2.13246C12.3682 1.83075 12.2627 1.45493 11.9485 1.29308C11.6344 1.13122 11.2306 1.2446 11.0467 1.5463L10.3331 2.71659C10.1492 3.0183 10.2547 3.39412 10.5688 3.55598Z" fill="#1F9071"/>
<path d="M0.357007 7.32346C0.149103 7.38182 0.0242987 7.58627 0.0786919 7.77992L0.675286 9.9047C0.729634 10.0983 0.942392 10.208 1.15052 10.1496L2.04342 9.89889L1.24991 7.07281L0.357007 7.32346Z" fill="#1F9071"/>
<path d="M6.01638 10.5823L3.00643 10.433L3.67484 12.8135C3.72919 13.0071 3.94197 13.1168 4.15008 13.0584L6.14764 12.4975C6.35574 12.4391 6.48034 12.2347 6.42596 12.041L6.01638 10.5823Z" fill="#1F9071"/>
<path d="M9.00744 2.69407C8.97538 2.57987 8.88555 2.48961 8.76674 2.45212C8.64792 2.41465 8.51498 2.43466 8.41039 2.50575L2.00339 6.86113L2.79688 9.68724L10.5346 10.0711C10.6609 10.0774 10.7848 10.0252 10.8668 9.93138C10.9487 9.83753 10.9784 9.71372 10.9464 9.59953L9.00744 2.69407Z" fill="#1F9071"/>
</g>
</svg>
