<?xml version="1.0" encoding="UTF-8"?>
<svg width="46px" height="37px" viewBox="0 0 46 37" version="1.1" xmlns="http://www.w3.org/2000/svg" xmlns:xlink="http://www.w3.org/1999/xlink">
    <title>A7B31D71-EB59-49DA-89A1-5385AED6EE52@2x</title>
    <defs>
        <polygon id="path-1" points="6.81818182e-05 0.000340909091 30 0.000340909091 30 30 6.81818182e-05 30"></polygon>
        <polygon id="path-3" points="0.0538117226 0.554637823 30 0.554637823 30 18.1015948 0.0538117226 18.1015948"></polygon>
    </defs>
    <g id="Final" stroke="none" stroke-width="1" fill="none" fill-rule="evenodd">
        <g id="what-makes-us-number-1-component" transform="translate(-479.000000, -172.000000)">
            <g id="Group-2" transform="translate(479.962646, 172.000000)">
                <g id="Group-22" transform="translate(0.000000, 0.673267)" fill="#FFDC68" opacity="0.5">
                    <g id="Group-47" transform="translate(0.000000, -0.000000)">
                        <ellipse id="Oval" cx="17.5650437" cy="17.8217822" rx="17.5650437" ry="17.8217822"></ellipse>
                    </g>
                </g>
                <g id="Group-35" transform="translate(14.037354, 2.000000)">
                    <g id="Group-3">
                        <mask id="mask-2" fill="white">
                            <use xlink:href="#path-1"></use>
                        </mask>
                        <g id="Clip-2"></g>
                    </g>
                    <g id="Group-6" transform="translate(0.000000, 10.909091)">
                        <mask id="mask-4" fill="white">
                            <use xlink:href="#path-3"></use>
                        </mask>
                        <g id="Clip-5"></g>
                        <path d="M24.5749773,9.9075 C25.84725,9.89522727 26.89725,8.83909091 26.898614,7.57159091 C26.8992955,6.29386364 25.8213409,5.22136364 24.5477045,5.23363636 C23.2761136,5.24522727 22.2254318,6.30204545 22.2240679,7.56954545 C22.2233864,8.84727273 23.3013409,9.91977273 24.5749773,9.9075 L24.5749773,9.9075 Z M5.48952273,9.90753313 C6.75429545,9.91431818 7.81452273,8.86772727 7.83429545,7.59272727 C7.85406818,6.3225 6.78565909,5.24045455 5.50452273,5.23360322 C4.23975,5.22681818 3.17952273,6.27272727 3.15975,7.54840909 C3.13997727,8.81863636 4.20838636,9.90068182 5.48952273,9.90753313 L5.48952273,9.90753313 Z M22.04475,16.9070455 L28.8302045,16.9070455 C28.8302045,16.7134091 28.83225,16.5388636 28.8302045,16.365 C28.80975,14.6836364 27.7311136,13.1570455 26.13225,12.5488636 C24.48975,11.9236364 22.4920227,12.3538636 21.3942955,13.5777273 C21.33975,13.6390909 21.3049773,13.7788636 21.3363409,13.8463636 C21.7911136,14.8111364 22.0215682,15.8270455 22.04475,16.9070455 L22.04475,16.9070455 Z M8.01225,16.9131818 C8.03679545,15.8263636 8.26861364,14.8015909 8.72815909,13.8293182 C8.75952273,13.7618182 8.69679545,13.6118182 8.63202273,13.5436364 C7.45247727,12.3040909 5.43634091,11.9079545 3.82929545,12.5904545 C2.06543182,13.3404545 0.990204545,15.1411364 1.25952273,16.9131818 L8.01225,16.9131818 Z M18.5367963,5.23363636 C18.5381591,3.30136364 16.9563409,1.72090909 15.0240682,1.72363284 C13.1033864,1.72636364 11.52975,3.29454545 11.521531,5.21454545 C11.5127045,7.1475 13.0883864,8.73409091 15.0199773,8.73887772 C16.95225,8.74431818 18.5361136,7.16522727 18.5367963,5.23363636 L18.5367963,5.23363636 Z M20.8856591,16.9111364 C20.7942955,14.8165909 19.9529318,13.1359091 18.1856591,12.0245455 C16.1190682,10.7256818 13.9740682,10.7202273 11.8999773,12.0122727 C10.1170227,13.1229545 9.26338636,14.8036364 9.17475,16.9111364 L20.8856591,16.9111364 Z M30.0002045,17.6877273 C29.8181591,18.0143182 29.5352045,18.1022727 29.1717955,18.1015948 C19.7477045,18.0954545 10.3242955,18.0968182 0.900204545,18.0968182 C0.229295455,18.0968182 0.0642954545,17.9229545 0.0567954545,17.2418182 C0.04725,16.3240909 0.0383863636,15.4077273 0.407931818,14.5397727 C1.22543182,12.6204545 2.67770455,11.5036364 4.72247727,11.1402273 C4.81520455,11.1238636 4.90793182,11.1081818 5.00338636,11.0693182 C4.03111364,10.8852273 3.23747727,10.4229545 2.65997727,9.62318182 C2.07838636,8.81795455 1.88679545,7.91931818 2.04634091,6.9375 C2.32111364,5.24931818 3.90497727,3.99272727 5.67838636,4.06704545 C7.40815909,4.14 8.86247727,5.55545455 8.99611364,7.29681818 C9.13725,9.13022727 7.91065909,10.665 5.98384091,11.0747727 C7.29088636,11.2513636 8.45270455,11.7402273 9.43861364,12.6838636 C10.7286136,11.0618182 12.3990682,10.1393182 14.4533864,9.91840909 C11.2802045,9.40090909 10.0215682,6.48272727 10.4204318,4.39431818 C10.8492955,2.14772727 12.8606591,0.493636364 15.1563409,0.556363636 C17.5086136,0.620454545 19.42725,2.4 19.6842955,4.79181818 C19.9208864,6.98931818 18.4345227,9.45818182 15.6015682,9.91295455 C17.6470227,10.1365909 19.31475,11.0454545 20.6142955,12.6811364 C21.5906591,11.7565909 22.7538409,11.2486364 24.0717955,11.0795455 C21.8129318,10.6281818 20.8815682,8.72181818 21.07725,7.19181818 C21.3131591,5.3475 22.80225,4.04318182 24.6029318,4.06295455 C26.3879318,4.08204545 27.8749773,5.44159091 28.0536136,7.245 C28.2152045,8.87045455 27.18225,10.6697727 24.9881591,11.0686364 C25.31475,11.1347727 25.5820227,11.1715909 25.8390682,11.2452273 C28.1074773,11.8909091 29.5208864,13.3315909 29.9483864,15.6845455 C29.9565682,15.7295455 29.9824773,15.7725 30.0002045,15.8161364 L30.0002045,17.6877273 Z" id="Fill-4" fill="#000000" mask="url(#mask-4)"></path>
                    </g>
                    <path d="M15.0071591,2.85395455 C14.7610227,3.35781818 14.5346591,3.81872727 14.3123864,4.28031818 C14.1985227,4.51690909 14.0260227,4.65872727 13.7567045,4.69486364 C13.2494318,4.76168182 12.7455682,4.84554545 12.2151136,4.92531818 C12.5348864,5.25190909 12.8123864,5.5785 13.1348864,5.85054545 C13.5010227,6.16009091 13.5992045,6.50509091 13.4839773,6.96259091 C13.3817045,7.36963636 13.3380682,7.79031818 13.2603409,8.25463636 C13.6919318,8.02895455 14.0846591,7.85372727 14.4439773,7.62736364 C14.8394318,7.37781818 15.1905682,7.38872727 15.5819318,7.6335 C15.9385227,7.85577273 16.3257955,8.02895455 16.7567045,8.25327273 C16.6707955,7.74531818 16.6155682,7.30213636 16.5180682,6.8685 C16.42875,6.47440909 16.5242045,6.18054545 16.8255682,5.90645455 C17.1603409,5.60236364 17.4535227,5.25327273 17.7698864,4.91918182 C17.2926136,4.84827273 16.8057955,4.76440909 16.3155682,4.70645455 C16.0005682,4.66827273 15.80625,4.50736364 15.6760227,4.22713636 C15.4680682,3.77918182 15.2444318,3.33872727 15.0071591,2.85395455 M11.9042045,9.23713636 C12.0296591,8.49463636 12.16875,7.7085 12.2873864,6.91963636 C12.30375,6.80986364 12.2539773,6.65168182 12.17625,6.57327273 C11.6567045,6.04554545 11.1248864,5.53009091 10.5903409,5.01804545 C10.3905682,4.82645455 10.2801136,4.60963636 10.3660227,4.33895455 C10.4567045,4.05327273 10.6919318,3.95372727 10.9728409,3.91554545 C11.6867045,3.82009091 12.3992045,3.711 13.1123864,3.6135 C13.2807955,3.591 13.3851136,3.52418182 13.4621591,3.36122727 C13.7717045,2.70054545 14.1023864,2.05009091 14.4180682,1.39145455 C14.5401136,1.13645455 14.7044318,0.942818182 15.0057955,0.940765619 C15.3085227,0.939409091 15.4748864,1.13440909 15.5969318,1.38804545 C15.9132955,2.04531818 16.2405682,2.69781818 16.5514773,3.35781818 C16.6271591,3.51804545 16.7301136,3.59031818 16.9005682,3.6135 C17.6144318,3.71031818 18.32625,3.81940909 19.0401136,3.91554545 C19.3189773,3.95372727 19.5528409,4.04577273 19.6482955,4.33622727 C19.74375,4.626 19.6114773,4.84145455 19.4089773,5.03645455 C18.90375,5.52327273 18.4101136,6.02236364 17.8967045,6.50031818 C17.7344318,6.65168182 17.6853409,6.79554545 17.7255682,7.01031818 C17.8585227,7.71736364 17.9696591,8.42918182 18.0998864,9.13759091 C18.1482955,9.40213636 18.0992045,9.62781818 17.8851136,9.79145455 C17.6682955,9.95713636 17.4282955,9.93259091 17.1964773,9.81122727 C16.5330682,9.4635 15.8676136,9.1185 15.2089773,8.76190909 C15.0644318,8.68418182 14.9546591,8.6835 14.8094318,8.76190909 C14.1419318,9.12259091 13.4710227,9.47918182 12.7932955,9.82009091 C12.33375,10.0512273 11.8803409,9.76827273 11.9042045,9.23713636" id="Fill-7" fill="#000000"></path>
                    <path d="M3.39272727,9.32079545 C4.18568182,9.79261364 4.30636364,10.4423864 4.035,11.2646591 C4.71818182,10.6632955 5.37340909,10.72125 6.06818182,11.2428409 C5.72386364,10.4007955 5.98363636,9.79397727 6.69477273,9.30443182 C5.80022727,9.35488636 5.27454545,8.96625 5.0475,8.10784091 C4.81159091,8.95534091 4.29340909,9.36034091 3.39272727,9.32079545 M2.67409091,12.2076136 C2.73886364,11.82375 2.79272727,11.3669318 2.89909091,10.92375 C2.97,10.6278409 2.90113636,10.4342045 2.67681818,10.2398864 C2.36727273,9.97261364 2.08977273,9.66988636 1.7925,9.38829545 C1.59,9.19670455 1.5,8.97306818 1.58931818,8.70443182 C1.67659091,8.44125 1.89272727,8.34102273 2.15045455,8.30556818 C2.58409091,8.24556818 3.01704545,8.17738636 3.45136364,8.12420455 C3.65931818,8.09897727 3.79977273,8.03011364 3.89113636,7.81670455 C4.06772727,7.40625 4.28454545,7.01352273 4.47886364,6.60988636 C4.59340909,6.37261364 4.76113636,6.20897727 5.03522727,6.20420455 C5.32363636,6.19943182 5.4975,6.36988636 5.61681818,6.61738636 C5.81454545,7.02920455 6.02931818,7.43352273 6.21681818,7.85079545 C6.29522727,8.02602273 6.40977273,8.09420455 6.58840909,8.11670455 C7.03227273,8.17329545 7.47477273,8.24488636 7.91863636,8.30284091 C8.18863636,8.33829545 8.40886364,8.43988636 8.505,8.71193182 C8.60318182,8.98670455 8.49068182,9.20284091 8.295,9.39238636 C7.95136364,9.72375 7.60363636,10.0510227 7.27363636,10.3960227 C7.20204545,10.4703409 7.15772727,10.6169318 7.17204545,10.7198864 C7.2375,11.1923864 7.32613636,11.6607955 7.41,12.1305682 C7.45636364,12.3889773 7.41340909,12.6201136 7.19522727,12.7857955 C6.97704545,12.9521591 6.74454545,12.9351136 6.51,12.8096591 C6.08045455,12.58125 5.65295455,12.3480682 5.21522727,12.1360227 C5.12181818,12.0910227 4.96977273,12.0917045 4.87636364,12.1367045 C4.42090909,12.3569318 3.98318182,12.6126136 3.52704545,12.8314773 C3.08113636,13.0455682 2.655,12.7585227 2.67409091,12.2076136" id="Fill-9" fill="#000000"></path>
                    <path d="M23.9055,11.2641818 C24.5955,10.6764545 25.2520909,10.7085 25.9066364,11.2696364 C25.8807273,10.8462273 25.7620909,10.4603182 25.8650455,10.1466818 C25.968,9.83440909 26.2918636,9.59509091 26.5632273,9.27122727 C25.6945909,9.34145455 25.1470909,8.98077273 24.9759545,8.10122727 C24.7543636,8.46054545 24.6302727,8.84781818 24.3650455,9.04213636 C24.0936818,9.24054545 23.6839091,9.24804545 23.2632273,9.3585 C24.0377727,9.79895455 24.2157273,10.431 23.9055,11.2641818 M22.5582273,12.1900909 C22.6257273,11.8000909 22.6986818,11.3282727 22.7927727,10.8612273 C22.8391364,10.6314545 22.8077727,10.4623636 22.6195909,10.2973636 C22.2895909,10.0089545 21.9902727,9.68713636 21.6725455,9.38509091 C21.4693636,9.19281818 21.3827727,8.96781818 21.4741364,8.69986364 C21.5627727,8.43736364 21.7809545,8.34054545 22.038,8.30509091 C22.4811818,8.24440909 22.9243636,8.17622727 23.3682273,8.11963636 C23.5550455,8.09509091 23.6791364,8.02827273 23.7623182,7.83804545 C23.9409545,7.42827273 24.1557273,7.03486364 24.3493636,6.63122727 C24.4673182,6.38645455 24.6343636,6.20645455 24.9227727,6.20437721 C25.2111818,6.20168182 25.383,6.37418182 25.5016364,6.62168182 C25.6945909,7.02531818 25.9073182,7.42009091 26.0886818,7.8285 C26.1759545,8.02486364 26.3041364,8.09918182 26.5052727,8.12304545 C26.9395909,8.17418182 27.3718636,8.24645455 27.8061818,8.30372727 C28.0768636,8.33918182 28.2957273,8.44418182 28.3898182,8.71622727 C28.4852727,8.99168182 28.3707273,9.20713636 28.1743636,9.396 C27.8450455,9.71372727 27.5218636,10.0382727 27.1870909,10.3505455 C27.0616364,10.4678182 27.0111818,10.5741818 27.0500455,10.7555455 C27.1475455,11.2116818 27.213,11.6753182 27.2941364,12.1348636 C27.3398182,12.3946364 27.2934545,12.6244091 27.0745909,12.7887273 C26.8543636,12.9544091 26.6225455,12.9319091 26.3886818,12.8078182 C25.9761818,12.5889545 25.5555,12.3837273 25.1511818,12.1512273 C24.9834545,12.0544091 24.8586818,12.0680455 24.6984545,12.1566818 C24.2736818,12.3925909 23.8448182,12.6250909 23.4057273,12.8337273 C22.9598182,13.0457727 22.5357273,12.7553182 22.5582273,12.1900909" id="Fill-11" fill="#000000"></path>
                    <path d="M17.3661818,23.8440682 C17.433,23.8761136 17.5734545,23.9204318 17.6886818,24.0008864 C18.3282273,24.4481591 18.8314091,25.0174773 19.1900455,25.7129318 C19.3789091,26.07975 19.3175455,26.40225 19.0175455,26.5781591 C18.7155,26.75475 18.3834545,26.6620227 18.1884545,26.2999773 C17.883,25.7320227 17.4677727,25.2717955 16.9495909,24.8927045 C16.7136818,24.7202045 16.6318636,24.4754318 16.7423182,24.1958864 C16.8377727,23.9545227 17.0293636,23.8386136 17.3661818,23.8440682" id="Fill-31" fill="#000000"></path>
                    <path d="M15.6093409,23.7503864 C15.6045682,24.0578864 15.32775,24.3278864 15.0216136,24.3231136 C14.7134318,24.3176591 14.4441136,24.0408409 14.4488864,23.7347045 C14.4543409,23.4272045 14.7304773,23.1578864 15.0366136,23.1626591 C15.3447955,23.1674318 15.6141136,23.44425 15.6093409,23.7503864" id="Fill-33" fill="#000000"></path>
                </g>
            </g>
        </g>
    </g>
</svg>