<svg xmlns="http://www.w3.org/2000/svg" width="16" height="18" xmlns:v="https://vecta.io/nano"><path d="M1.543 5.255h2.955l-1.413-1c-.465-.33-.2-1.045.376-1.006l3.05.006.95-2.872c.17-.516.915-.508 1.083 0l.95 2.872 3.1-.006c.552 0 .774.692.333 1.005l-1.415 1 2.958-.001c.85 0 1.543.68 1.543 1.507v9.73c-.013.83-.708 1.5-1.556 1.5H1.543C.693 18 0 17.323 0 16.493v-9.73c0-.827.696-1.507 1.543-1.507h0zm4.714 2.35c2.06-1.468 1.425-1.468 3.485 0-.788-2.354-.993-1.776 1.077-3.24-2.455.005-2.042.353-2.82-2-.78 2.36-.28 2.006-2.82 2 2.124 1.502 1.837.97 1.077 3.24zm4.27-1.234l.86 2.58.001.007c.107.516-.516.87-.925.535L8 7.736 5.536 9.492c-.434.356-1.086-.064-.9-.597L5.47 6.37H1.54c-.223 0-.402.175-.402.393v9.73a.4.4 0 0 0 .402.393h12.914a.4.4 0 0 0 .402-.393v-9.73c0-.216-.18-.393-.402-.393h-3.93zm-6.3 8.402c-.75 0-.75-1.115 0-1.115h7.057c.75 0 .75 1.115 0 1.115H4.218zm0-2.576c-.75 0-.75-1.115 0-1.115h7.057c.75 0 .75 1.115 0 1.115H4.218z"/></svg>