<svg xmlns="http://www.w3.org/2000/svg" width="33" height="27" fill-rule="evenodd" xmlns:v="https://vecta.io/nano"><circle fill="#ffdc68" opacity=".5" cx="11.5" cy="15.5" r="11.5"/><path d="M29.138 11.1c-1.325 0-2.406 1-2.544 2.3l-1.808-.2.008-.157c0-1.28-.577-2.426-1.482-3.198l2.742-4.004a1.92 1.92 0 0 0 .758.154c1.072 0 1.943-.87 1.943-1.943S27.884 2.1 26.812 2.1s-1.942.87-1.942 1.943c0 .626.303 1.178.765 1.534l-2.712 3.96a4.18 4.18 0 0 0-4.058-.336l-2.96-4.955a1.97 1.97 0 0 0 .967-1.688A1.98 1.98 0 0 0 14.898.584a1.98 1.98 0 0 0-1.974 1.974c0 1.088.876 1.982 1.976 1.982a1.95 1.95 0 0 0 .553-.089l2.98 4.987a4.23 4.23 0 0 0-1.625 1.776l-1.34-.618c.01-.074.023-.15.023-.226 0-.846-.688-1.534-1.534-1.534s-1.534.688-1.534 1.534.688 1.534 1.534 1.534a1.53 1.53 0 0 0 1.359-.838l1.304.6a4.18 4.18 0 0 0-.236 1.375 4.2 4.2 0 0 0 1.55 3.258L15.2 19.6c-.407-.323-.915-.525-1.474-.525-1.314 0-2.382 1.07-2.382 2.382a2.39 2.39 0 0 0 2.382 2.382 2.39 2.39 0 0 0 2.382-2.382 2.36 2.36 0 0 0-.557-1.513l2.772-3.368c.653.417 1.425.662 2.256.662.602 0 1.174-.13 1.693-.36l3.163 4.27c-.355.353-.575.84-.575 1.377 0 1.07.87 1.943 1.942 1.943s1.943-.87 1.943-1.943-.87-1.943-1.943-1.943c-.357 0-.688.104-.975.273L22.72 16.65a4.21 4.21 0 0 0 2.02-2.973l1.85.206c.114 1.313 1.207 2.35 2.55 2.35 1.418 0 2.57-1.153 2.57-2.57a2.57 2.57 0 0 0-2.573-2.562zm-3.78-7.048c0-.8.65-1.453 1.452-1.453s1.453.652 1.453 1.453-.652 1.453-1.453 1.453-1.452-.652-1.452-1.453zM13.414 2.567c0-.818.666-1.484 1.484-1.484s1.484.666 1.484 1.484-.666 1.484-1.484 1.484-1.484-.665-1.484-1.484zm.54 8.847c-.576 0-1.044-.468-1.044-1.044s.468-1.044 1.044-1.044S15 9.795 15 10.37s-.468 1.044-1.044 1.044zm-.22 11.946c-1.044 0-1.893-.85-1.893-1.893s.85-1.893 1.893-1.893 1.893.85 1.893 1.893-.85 1.893-1.893 1.893zm14.53-.824c0 .8-.652 1.453-1.453 1.453s-1.452-.65-1.452-1.453.65-1.453 1.452-1.453 1.453.65 1.453 1.453zm-7.677-5.778a3.72 3.72 0 0 1-3.716-3.716 3.72 3.72 0 0 1 3.716-3.716 3.72 3.72 0 0 1 3.716 3.716 3.72 3.72 0 0 1-3.716 3.716zm8.55-1.006c-1.148 0-2.082-.934-2.082-2.08S28 11.6 29.138 11.6a2.09 2.09 0 0 1 2.082 2.082c0 1.148-.934 2.08-2.082 2.08z" fill-rule="nonzero" stroke="#0a0909" stroke-width=".6"/></svg>