<?xml version="1.0" encoding="UTF-8"?>
<svg width="27px" height="22px" viewBox="0 0 27 22" version="1.1" xmlns="http://www.w3.org/2000/svg" xmlns:xlink="http://www.w3.org/1999/xlink">
    <title>urgent icon</title>
    <g id="pricing-table-component" stroke="none" stroke-width="1" fill="none" fill-rule="evenodd">
        <g id="ScE--PT--Desktop-view" transform="translate(-599.000000, -436.000000)" fill="#262626" fill-rule="nonzero">
            <g id="Group-6" transform="translate(220.000000, 225.000000)">
                <g id="Group-7" transform="translate(379.000000, 211.000000)">
                    <g id="Group_379" transform="translate(0.426531, 0.482927)">
                        <g id="Group_375" transform="translate(0.000000, 7.586244)">
                            <g id="Group_374" transform="translate(1.523781, 0.000000)">
                                <path d="M5.28258163,1.14507317 L0.568885204,1.14507317 C0.254698581,1.14507317 0,0.88873981 0,0.572536585 C0,0.256333361 0.254698581,0 0.568885204,0 L5.28258163,0 C5.59676826,0 5.85146684,0.256333361 5.85146684,0.572536585 C5.85146684,0.88873981 5.59676826,1.14507317 5.28258163,1.14507317 Z" id="Path_41"></path>
                                <path d="M5.1205,9.14073171 L0.711239796,9.14073171 C0.397053173,9.14073171 0.142354592,8.88439835 0.142354592,8.56819512 C0.142354592,8.2519919 0.397053173,7.99565854 0.711239796,7.99565854 L5.1205,7.99565854 C5.27109501,7.99594289 5.41540977,8.05642335 5.52169655,8.16379485 C5.62798333,8.27116634 5.68753562,8.41663352 5.68725255,8.56819512 C5.69092258,8.72076922 5.63246165,8.86822215 5.52543368,8.97634241 C5.4184057,9.08446267 5.27211376,9.14385222 5.1205,9.14073171 L5.1205,9.14073171 Z" id="Path_42"></path>
                            </g>
                            <path d="M5.95330102,5.13243902 L0.568885204,5.13243902 C0.254698581,5.13243902 0,4.87610566 0,4.55990244 C0,4.24369921 0.254698581,3.98736484 0.568885204,3.98736484 L5.95383418,3.98736484 C6.10479873,3.98708026 6.24966185,4.04730919 6.35641009,4.1547426 C6.46315834,4.26217601 6.52300316,4.40796892 6.52271939,4.55990244 C6.52995872,4.71396123 6.47227625,4.86394361 6.36386326,4.97295028 C6.25545027,5.08195696 6.10637044,5.13986914 5.95330102,5.13243902 L5.95330102,5.13243902 Z" id="Path_43"></path>
                        </g>
                        <path d="M24.4418036,5.11258537 C24.4371976,5.46896393 24.3313773,5.81657697 24.1368342,6.11439024 C23.3922037,5.17306038 22.4834358,4.376103 21.455023,3.76253659 C21.7874572,3.47186949 22.2132046,3.3121425 22.653574,3.31287805 C23.1287126,3.31000078 23.5852188,3.49868817 23.9211986,3.83682449 C24.2571785,4.17496081 24.4446625,4.63439705 24.4418036,5.11258537 L24.4418036,5.11258537 Z" id="Path_44"></path>
                        <path d="M8.49382398,5.11258537 C8.49842991,5.46896393 8.60425025,5.81657697 8.79879337,6.11439024 C9.54342382,5.17306038 10.4521918,4.376103 11.4806046,3.76253659 C11.1481703,3.47186949 10.7224229,3.3121425 10.2820536,3.31287805 C9.80590454,3.30661312 9.34743556,3.49421214 9.01071858,3.83309033 C8.6740016,4.17196852 8.48759901,4.63338018 8.49382398,5.11258537 Z" id="Path_45"></path>
                        <g id="Group_377" transform="translate(7.782584, 0.000000)">
                            <path d="M17.3512653,10.6335122 C16.7235677,6.9855598 13.8848813,4.12865326 10.2601939,3.49692683 C9.50843367,3.35365854 9.46791327,3.21039024 9.52869388,2.43341463 L9.54895408,2.22897561 L10.9714337,2.22897561 C11.3574439,2.20858537 11.5403189,2.068 11.5808393,1.71760976 C11.6215383,1.29595174 11.6215383,0.871316551 11.5808393,0.449658537 C11.5797694,0.327071484 11.5294804,0.210131363 11.4414119,0.125439052 C11.3533433,0.0407467412 11.2349831,-0.00449686265 11.1132551,-7.71768717e-14 L8.71402041,-7.71768717e-14 C7.88121939,-7.71768717e-14 7.10866582,-7.71768717e-14 6.35690561,0.0203902439 C6.20277896,0.021336546 6.05553927,0.0847749149 5.94847638,0.196362381 C5.84141349,0.307949848 5.78356874,0.458262994 5.78802041,0.613317073 L5.78802041,1.41121951 C5.78802041,2.00414634 6.03167602,2.22897561 6.62082143,2.22897561 L8.08595408,2.22897561 L8.10621429,2.43341463 C8.1872551,3.19 8.14673469,3.33326829 7.41310204,3.45560976 C7.35038295,3.45937396 7.28865582,3.4731389 7.23022704,3.49639024 C7.16944643,3.51678049 7.12839286,3.51678049 7.07027806,3.53717073 C4.8053085,3.97765985 2.80906581,5.31059093 1.5253801,7.23960976 C0.214794111,9.14743952 -0.275936185,11.5065727 0.164214286,13.7832683 C0.932421366,17.9371767 4.53758805,20.9471115 8.7358801,20.9398024 C9.36551731,20.94272 9.99347754,20.8741388 10.6078163,20.7352683 C15.1696698,19.712246 18.1346331,15.2707004 17.3512653,10.6335122 L17.3512653,10.6335122 Z M13.7748061,17.2383415 C12.4532103,18.5813419 10.654513,19.3392299 8.77640051,19.344439 L8.7156199,19.344439 C4.7884656,19.301006 1.63073195,16.0787735 1.64182794,12.12619 C1.65298254,8.17360656 4.82880454,4.96943065 8.75614031,4.94838096 L8.79506122,4.94838096 C10.6907202,4.94530333 12.5074575,5.71198847 13.8339872,7.07487805 C15.1614046,8.4398843 15.8990235,10.2775413 15.8861327,12.1874634 C15.891206,14.0894077 15.1293237,15.9120412 13.7748061,17.2383415 Z" id="Path_46"></path>
                        </g>
                        <path d="M17.6770281,13.0669268 C17.4032133,13.4183929 16.9830166,13.6223093 16.5392577,13.6190732 C16.2116185,13.6228339 15.8938121,13.5064914 15.6451429,13.2917561 C15.3390793,13.0519743 15.1414334,12.6986063 15.0965179,12.310878 C15.0518073,11.9232096 15.1614577,11.5334972 15.4014872,11.2269756 C15.5453143,11.0394603 15.7340844,10.8917583 15.9501122,10.7977073 L15.9703724,7.87331707 C15.9735414,7.56961816 16.2172386,7.32411845 16.5189974,7.32063415 L16.5189974,7.32063415 C16.6678459,7.32128219 16.8101087,7.38247966 16.9134363,7.49031071 C17.0167638,7.59814177 17.0723744,7.74344183 17.0676224,7.89317073 L17.0473622,10.7762439 C17.1778466,10.8275536 17.3008693,10.8963182 17.4131122,10.9806829 C17.7192994,11.2205911 17.9169587,11.5741763 17.9617372,11.9620976 C18.0264672,12.354329 17.9230112,12.7557958 17.6770281,13.0669268 L17.6770281,13.0669268 Z" id="Path_47"></path>
                    </g>
                </g>
            </g>
        </g>
    </g>
</svg>