<svg xmlns="http://www.w3.org/2000/svg" width="28" height="28" viewBox="0 0 28 28">
  <g id="speed-expanded-icon" transform="translate(-9024 -1184)">
    <path id="Union_1" data-name="Union 1" d="M8.483,14.621A9.138,9.138,0,0,1,9.936,7.68a9.234,9.234,0,0,1,5.923-3.927c.065-.022.108-.022.173-.043a.642.642,0,0,1,.2-.043c.781-.13.824-.283.738-1.085l-.022-.217H15.381c-.629,0-.889-.238-.889-.868V.651A.611.611,0,0,1,15.1.022C15.9,0,16.726,0,17.616,0h2.56a.482.482,0,0,1,.5.477,6.991,6.991,0,0,1,0,1.345c-.044.368-.239.52-.651.542H18.5l-.022.217c-.065.824-.022.977.781,1.129A9.32,9.32,0,0,1,19.634,22a8.922,8.922,0,0,1-2,.217A9.292,9.292,0,0,1,8.483,14.621ZM10.023,12.8a7.684,7.684,0,0,0,7.592,7.723h.065a7.54,7.54,0,0,0,5.337-2.234,7.448,7.448,0,0,0,2.256-5.359,7.679,7.679,0,0,0-2.191-5.423A7.511,7.511,0,0,0,17.7,5.25h-.043A7.615,7.615,0,0,0,10.023,12.8ZM2.387,17.745a.608.608,0,0,1,0-1.215H7.094a.607.607,0,0,1,.608.608.593.593,0,0,1-.608.608ZM16.7,14.1a1.545,1.545,0,0,1-.586-1.041,1.566,1.566,0,0,1,.326-1.15,1.474,1.474,0,0,1,.585-.455l.023-3.1a.592.592,0,0,1,.585-.586.588.588,0,0,1,.586.607L18.2,11.433a1.641,1.641,0,0,1,.391.217,1.543,1.543,0,0,1,.586,1.041,1.487,1.487,0,0,1-.3,1.171,1.528,1.528,0,0,1-1.215.586A1.44,1.44,0,0,1,16.7,14.1Zm-16.1-.608a.608.608,0,0,1,0-1.215H6.357a.607.607,0,0,1,.608.608.582.582,0,0,1-.608.608ZM2.235,9.263a.607.607,0,1,1,0-1.214H7.268a.607.607,0,1,1,0,1.214ZM22.909,3.992a1.949,1.949,0,0,1,1.28-.477A1.9,1.9,0,0,1,26.1,5.423a1.98,1.98,0,0,1-.326,1.063A10.5,10.5,0,0,0,22.909,3.992ZM9.068,5.423a1.885,1.885,0,0,1,1.909-1.909,1.947,1.947,0,0,1,1.28.477A10.513,10.513,0,0,0,9.393,6.486,1.987,1.987,0,0,1,9.068,5.423Z" transform="translate(9024 1187)" fill="#000f54"/>
    <rect id="Rectangle_48" data-name="Rectangle 48" width="28" height="28" transform="translate(9024 1184)" fill="none"/>
  </g>
</svg>
