<svg width="41" height="36" viewBox="0 0 41 36" fill="none" xmlns="http://www.w3.org/2000/svg">
<g id="Group 67">
<g id="Group 47">
<ellipse id="Oval" opacity="0.5" cx="17.565" cy="17.8218" rx="17.565" ry="17.8218" fill="#E6D2D0"/>
</g>
<g id="Group 3">
<path id="Path" d="M17.8464 10.2568C17.4193 9.69812 17.4855 8.88412 17.9968 8.41018C18.508 7.93624 19.2828 7.9705 19.7546 8.48789L21.8408 11.0073L26.8018 5.74067C27.1245 5.40074 27.5948 5.26798 28.0356 5.39241C28.4764 5.51683 28.8207 5.87953 28.9388 6.34388C29.0569 6.80824 28.9308 7.3037 28.6082 7.64363L22.693 13.9153C22.6129 13.9767 22.5278 14.0306 22.4386 14.0761C22.4011 14.1107 22.358 14.1379 22.3114 14.1565C22.1663 14.2199 22.0106 14.2518 21.8535 14.2504C21.6822 14.269 21.5091 14.2507 21.3446 14.1968L21.192 14.0895C21.0999 14.0442 21.0143 13.9856 20.9376 13.9153L17.8464 10.2568Z" fill="#262626"/>
<path id="Path_2" d="M30.2509 13.3663H39.131C39.8316 13.3663 40.3996 12.7679 40.3996 12.0297C40.3996 11.2915 39.8316 10.6931 39.131 10.6931H30.2509C29.5503 10.6931 28.9823 11.2915 28.9823 12.0297C28.9823 12.7679 29.5503 13.3663 30.2509 13.3663Z" fill="black"/>
<path id="Path_3" d="M39.131 18.7129H18.8336C18.133 18.7129 17.565 19.3113 17.565 20.0495C17.565 20.7877 18.133 21.3861 18.8336 21.3861H39.131C39.8316 21.3861 40.3996 20.7877 40.3996 20.0495C40.3996 19.3113 39.8316 18.7129 39.131 18.7129Z" fill="black"/>
<path id="Path_4" d="M39.131 26.7327H18.8336C18.133 26.7327 17.565 27.3311 17.565 28.0693C17.565 28.8075 18.133 29.4059 18.8336 29.4059H39.131C39.8316 29.4059 40.3996 28.8075 40.3996 28.0693C40.3996 27.3311 39.8316 26.7327 39.131 26.7327Z" fill="black"/>
</g>
</g>
</svg>
