<svg xmlns="http://www.w3.org/2000/svg" xmlns:xlink="http://www.w3.org/1999/xlink" width="41" height="37" xmlns:v="https://vecta.io/nano"><g fill="none" fill-rule="evenodd"><ellipse cx="17.575" cy="18.495" rx="17.565" ry="17.822" fill="#96abec" opacity=".5"/><g fill-rule="nonzero"><path d="M17.856 10.93c-.427-.56-.36-1.373.15-1.847s1.286-.44 1.758.078l2.086 2.52 4.96-5.267c.323-.34.793-.473 1.234-.348s.785.487.903.95-.008.96-.33 1.3l-5.915 6.272c-.08.06-.165.115-.254.16-.038.035-.08.062-.127.08a1.12 1.12 0 0 1-.458.094 1.21 1.21 0 0 1-.509-.054l-.153-.107a1.09 1.09 0 0 1-.254-.174h0l-3.09-3.658z" fill="#262626"/><g fill="#000"><path d="M30.26 14.04h8.88c.7 0 1.27-.598 1.27-1.337s-.568-1.337-1.27-1.337h-8.88c-.7 0-1.27.598-1.27 1.337s.568 1.337 1.27 1.337z"/><use xlink:href="#A"/><use xlink:href="#A" y="8.02"/></g></g></g><defs><path id="A" d="M39.14 19.386H18.844c-.7 0-1.27.598-1.27 1.337s.568 1.337 1.27 1.337H39.14c.7 0 1.27-.598 1.27-1.337s-.568-1.337-1.27-1.337z"/></defs></svg>