<?xml version="1.0" encoding="UTF-8"?>
<svg width="88px" height="72px" viewBox="0 0 88 72" version="1.1" xmlns="http://www.w3.org/2000/svg" xmlns:xlink="http://www.w3.org/1999/xlink">
    <title>Group 76</title>
    <g id="PES" stroke="none" stroke-width="1" fill="none" fill-rule="evenodd">
        <g transform="translate(-776.000000, -6538.000000)" id="Group-58">
            <g transform="translate(235.000000, 6490.000000)">
                <g id="Group-57" transform="translate(501.000000, 0.000000)">
                    <g id="Group-54" transform="translate(40.000000, 40.000000)">
                        <g id="Group-76" transform="translate(0.000000, 8.000000)">
                            <circle id="Oval" fill-opacity="0.2" fill="#00084D" fill-rule="nonzero" cx="36" cy="36" r="36"></circle>
                            <g id="Group-75" transform="translate(30.000000, 7.000000)">
                                <rect id="Rectangle" x="0" y="0" width="57.6" height="57.6"></rect>
                                <g id="Group" transform="translate(4.000000, 4.000000)">
                                    <path d="M36.0943876,25.5051857 C29.8613234,25.5051857 24.7904695,30.4877472 24.7904695,36.6122828 C24.7904695,42.7368183 29.8613234,47.7193798 36.0943876,47.7193798 C42.3274519,47.7193798 47.3983058,42.7368183 47.3983058,36.6122828 C47.3983058,30.4877472 42.3274519,25.5051857 36.0943876,25.5051857 Z M43.9434935,33.3547495 L35.0120026,42.1307274 C34.8484447,42.2914375 34.6340889,42.3715183 34.4197331,42.3715183 C34.2053773,42.3715183 33.9910215,42.2914375 33.8274636,42.1307274 L28.8035,37.1942398 C28.4763841,36.8733681 28.4763841,36.3517459 28.8035,36.0308742 C29.1306158,35.709454 29.6603649,35.709454 29.9874807,36.0308742 L34.4191749,40.3854048 L42.7595127,32.1908354 C43.0866286,31.8694152 43.6163776,31.8694152 43.9434935,32.1908354 C44.2706093,32.5122556 44.2706093,33.0333293 43.9434935,33.3547495 Z" id="Shape" stroke="#0B0B0B" stroke-width="0.602"></path>
                                    <path d="M27.2617013,47.7193798 L2.31660545,47.7193798 C1.99060604,47.7193798 1.72489418,47.4582944 1.72489418,47.1379712 L1.72489418,2.22690439 C1.72489418,1.9065812 1.99004782,1.64549585 2.31660545,1.64549585 L25.7729335,1.64549585 L25.7729335,8.26203469 C25.7729335,8.71674004 26.1474979,9.08478261 26.6102607,9.08478261 L34.7490818,9.08478261 L34.7490818,21.9728546 C34.7490818,22.42756 35.1236462,22.7956026 35.5864091,22.7956026 C36.049172,22.7956026 36.4237364,22.42756 36.4237364,21.9728546 L36.4237364,8.28068364 C36.4237364,8.27410166 36.425411,8.26861667 36.425411,8.26203469 C36.425411,8.25051621 36.4226199,8.23954624 36.4220617,8.22802777 C36.4209453,8.19950584 36.417596,8.17208091 36.4136884,8.14355898 C36.4097809,8.11723105 36.4058734,8.09145162 36.3991748,8.06567218 C36.3930344,8.04044124 36.3846611,8.01575881 36.3757296,7.99107637 C36.3662399,7.96529693 36.3573084,7.9395175 36.3455858,7.91483506 C36.3349797,7.89179812 36.3215824,7.87040667 36.3087434,7.84791823 C36.2942297,7.82378429 36.2797161,7.79965035 36.2624113,7.77716191 C36.2478976,7.75741596 36.2317093,7.7393155 36.2149628,7.72066655 C36.202682,7.70695408 36.192634,7.69159612 36.179795,7.67898065 C36.1703053,7.66965618 36.1591409,7.6625257 36.149093,7.65374972 C36.1418362,7.64716773 36.136254,7.63894026 36.1284389,7.63290677 L27.1500577,0.194168511 C27.1394516,0.185392533 27.127729,0.179907547 27.1171228,0.171680067 C27.0925612,0.153031114 27.0674414,0.136027657 27.0412052,0.120669696 C27.0188764,0.107505729 26.9959895,0.0954387596 26.9725443,0.0839202886 C26.9479827,0.0724018176 26.9234211,0.0619803439 26.8977431,0.0526558673 C26.8703904,0.0427828922 26.8430377,0.0345554129 26.8151268,0.0274249309 C26.7916816,0.0213914461 26.7676783,0.0164549585 26.7431167,0.0126154682 C26.7112982,0.00767898065 26.680038,0.00493648756 26.6482196,0.00329099171 C26.6359388,0.00329099171 26.623658,0 26.6102607,0 C26.6102607,0 26.6102607,0 26.6102607,0 C26.6102607,0 26.6102607,0 26.6102607,0 L2.31660545,0 C1.06675495,0 0.0502396364,0.998815984 0.0502396364,2.22690439 L0.0502396364,47.1379712 C0.0502396364,48.3660597 1.06675495,49.3648756 2.31660545,49.3648756 L27.2617013,49.3648756 C27.7244642,49.3648756 28.0990286,48.9968331 28.0990286,48.5421277 C28.0990286,48.0874224 27.7244642,47.7193798 27.2617013,47.7193798 Z" id="Path" stroke="#050505" stroke-width="1.15584" fill="#000000" fill-rule="nonzero"></path>
                                    <path d="M29.5409062,13.2188167 L6.93306982,13.2188167 C6.47030695,13.2188167 6.09574255,13.5868593 6.09574255,14.0415646 C6.09574255,14.49627 6.47030695,14.8643126 6.93306982,14.8643126 L29.5409062,14.8643126 C30.0036691,14.8643126 30.3782335,14.49627 30.3782335,14.0415646 C30.3782335,13.5868593 30.0036691,13.2188167 29.5409062,13.2188167 Z" id="Path" stroke="#000000" stroke-width="0.602" fill="#000000" fill-rule="nonzero"></path>
                                    <path d="M30.3782335,20.4041486 C30.3782335,19.9494432 30.0036691,19.5814007 29.5409062,19.5814007 L6.93306982,19.5814007 C6.47030695,19.5814007 6.09574255,19.9494432 6.09574255,20.4041486 C6.09574255,20.858854 6.47030695,21.2268965 6.93306982,21.2268965 L29.5409062,21.2268965 C30.0036691,21.2268965 30.3782335,20.858854 30.3782335,20.4041486 Z" id="Path" stroke="#000000" stroke-width="0.602" fill="#000000" fill-rule="nonzero"></path>
                                    <path d="M25.434095,26.7667326 C25.434095,26.3120272 25.0595306,25.9439846 24.5967677,25.9439846 L6.93306982,25.9439846 C6.47030695,25.9439846 6.09574255,26.3120272 6.09574255,26.7667326 C6.09574255,27.2214379 6.47030695,27.5894805 6.93306982,27.5894805 L24.5967677,27.5894805 C25.0595306,27.5894805 25.434095,27.2208894 25.434095,26.7667326 Z" id="Path" stroke="#000000" stroke-width="0.602" fill="#000000" fill-rule="nonzero"></path>
                                    <path d="M21.3060716,32.3065686 L6.93306982,32.3065686 C6.47030695,32.3065686 6.09574255,32.6746112 6.09574255,33.1293165 C6.09574255,33.5840219 6.47030695,33.9520645 6.93306982,33.9520645 L21.3060716,33.9520645 C21.7688344,33.9520645 22.1433988,33.5840219 22.1433988,33.1293165 C22.1433988,32.6746112 21.7688344,32.3065686 21.3060716,32.3065686 Z" id="Path" stroke="#000000" stroke-width="0.602" fill="#000000" fill-rule="nonzero"></path>
                                    <path d="M21.1676335,38.6691526 L6.93306982,38.6691526 C6.47030695,38.6691526 6.09574255,39.0371952 6.09574255,39.4919005 C6.09574255,39.9466059 6.47030695,40.3146484 6.93306982,40.3146484 L21.1676335,40.3146484 C21.6303963,40.3146484 22.0049607,39.9466059 22.0049607,39.4919005 C22.0049607,39.0371952 21.6303963,38.6691526 21.1676335,38.6691526 Z" id="Path" stroke="#000000" stroke-width="0.602" fill="#000000" fill-rule="nonzero"></path>
                                    <path d="M6.93306982,8.50172858 L22.4956345,8.50172858 C22.9583974,8.50172858 23.3329618,8.13368601 23.3329618,7.67898065 C23.3329618,7.2242753 22.9583974,6.85623273 22.4956345,6.85623273 L6.93306982,6.85623273 C6.47030695,6.85623273 6.09574255,7.2242753 6.09574255,7.67898065 C6.09574255,8.13368601 6.47030695,8.50172858 6.93306982,8.50172858 Z" id="Path" stroke="#000000" stroke-width="0.602" fill="#000000" fill-rule="nonzero"></path>
                                    <path d="M36.0943876,23.8596899 C28.9380305,23.8596899 23.1158149,29.5805305 23.1158149,36.6122828 C23.1158149,43.644035 28.9380305,49.3648756 36.0943876,49.3648756 C43.2507447,49.3648756 49.0729604,43.644035 49.0729604,36.6122828 C49.0729604,29.5805305 43.2507447,23.8596899 36.0943876,23.8596899 Z M36.0943876,47.7193798 C29.8613234,47.7193798 24.7904695,42.7368183 24.7904695,36.6122828 C24.7904695,30.4877472 29.8613234,25.5051857 36.0943876,25.5051857 C42.3274519,25.5051857 47.3983058,30.4877472 47.3983058,36.6122828 C47.3983058,42.7368183 42.3274519,47.7193798 36.0943876,47.7193798 Z" id="Shape" stroke="#0B0B0B" stroke-width="0.602" fill="#000000" fill-rule="nonzero"></path>
                                    <path d="M42.7595127,32.1908354 L34.4197331,40.3854048 L29.9880389,36.0308742 C29.6609231,35.709454 29.131174,35.709454 28.8040582,36.0308742 C28.4769423,36.3517459 28.4769423,36.8733681 28.8040582,37.1942398 L33.8280218,42.1307274 C33.9915797,42.2914375 34.2059355,42.3715183 34.4202913,42.3715183 C34.6346471,42.3715183 34.8490029,42.2914375 35.0125608,42.1307274 L43.9440517,33.3547495 C44.2711676,33.0338778 44.2711676,32.5122556 43.9440517,32.1913839 C43.6163776,31.8699637 43.0866286,31.8699637 42.7595127,32.1908354 Z" id="Path" fill="#000000" fill-rule="nonzero"></path>
                                </g>
                            </g>
                        </g>
                    </g>
                </g>
            </g>
        </g>
    </g>
</svg>