<svg xmlns="http://www.w3.org/2000/svg" width="48" height="48" viewBox="0 0 48 48">
  <g id="submit-icon" transform="translate(-527 -161)">
    <rect id="Rectangle_46" data-name="Rectangle 46" width="48" height="48" transform="translate(527 161)" fill="none"/>
    <g id="Union_9" data-name="Union 9" transform="translate(16574 590.002)" fill="#96abec">
      <path d="M -16008.0302734375 -382.8990478515625 L -16037.078125 -382.8990478515625 C -16038.7451171875 -382.8990478515625 -16040.1005859375 -384.2531433105469 -16040.1005859375 -385.9175415039062 L -16040.1005859375 -424.0793762207031 C -16040.1005859375 -425.7460021972656 -16038.7451171875 -427.1018981933594 -16037.078125 -427.1018981933594 L -16015.7880859375 -427.1018981933594 C -16015.591796875 -427.1018981933594 -16015.400390625 -427.0221862792969 -16015.26171875 -426.8832397460938 L -16005.23046875 -416.8478088378906 C -16005.091796875 -416.7086181640625 -16005.0126953125 -416.5171203613281 -16005.0126953125 -416.3222351074219 L -16005.0126953125 -402.1041259765625 C -16005.0126953125 -401.69384765625 -16005.345703125 -401.3600463867188 -16005.755859375 -401.3600463867188 C -16006.166015625 -401.3600463867188 -16006.5 -401.69384765625 -16006.5 -402.1041259765625 L -16006.5 -415.578125 L -16014.068359375 -415.578125 C -16015.4267578125 -415.578125 -16016.53125 -416.6830139160156 -16016.53125 -418.0411071777344 L -16016.53125 -425.6097106933594 L -16037.078125 -425.6097106933594 C -16037.9248046875 -425.6097106933594 -16038.61328125 -424.9232177734375 -16038.61328125 -424.0793762207031 L -16038.61328125 -385.9175415039062 C -16038.61328125 -385.07373046875 -16037.9248046875 -384.3872375488281 -16037.078125 -384.3872375488281 L -16027.1787109375 -384.3872375488281 C -16026.5654296875 -388.6205749511719 -16023.8583984375 -398.49609375 -16011.9990234375 -399.5031433105469 L -16011.9990234375 -401.9994506835938 C -16011.9990234375 -402.6730651855469 -16011.6181640625 -403.2618103027344 -16011.005859375 -403.535888671875 C -16010.7841796875 -403.6342468261719 -16010.552734375 -403.68408203125 -16010.31640625 -403.68408203125 C -16009.90625 -403.68408203125 -16009.509765625 -403.5295715332031 -16009.19921875 -403.2490234375 L -16001.015625 -395.9028015136719 C -16000.662109375 -395.5834655761719 -16000.4599609375 -395.1279602050781 -16000.4599609375 -394.6528930664062 C -16000.4599609375 -394.1735534667969 -16000.662109375 -393.7178955078125 -16001.015625 -393.40283203125 L -16009.2001953125 -386.0524597167969 C -16009.509765625 -385.77392578125 -16009.9052734375 -385.6205139160156 -16010.3125 -385.6205139160156 C -16010.5498046875 -385.6204833984375 -16010.783203125 -385.6707458496094 -16011.005859375 -385.7698364257812 C -16011.6181640625 -386.0440063476562 -16011.9990234375 -386.6311950683594 -16011.9990234375 -387.3023376464844 L -16011.9990234375 -389.4364624023438 L -16012.7890625 -389.4364624023438 C -16015.126953125 -389.4364624023438 -16017.470703125 -388.88330078125 -16019.5673828125 -387.8367919921875 C -16021.2626953125 -386.9853515625 -16022.818359375 -385.7953796386719 -16024.080078125 -384.3872375488281 L -16008.0302734375 -384.3872375488281 C -16007.1865234375 -384.3872375488281 -16006.5 -385.07373046875 -16006.5 -385.9175415039062 L -16006.5 -387.25 C -16006.5 -387.6602783203125 -16006.166015625 -387.9940795898438 -16005.755859375 -387.9940795898438 C -16005.345703125 -387.9940795898438 -16005.0126953125 -387.6602783203125 -16005.0126953125 -387.25 L -16005.0126953125 -385.9175415039062 C -16005.0126953125 -384.2531433105469 -16006.3662109375 -382.8990478515625 -16008.0302734375 -382.8990478515625 Z M -16010.3125 -402.1933288574219 C -16010.3486328125 -402.1933288574219 -16010.3759765625 -402.1851806640625 -16010.3876953125 -402.17822265625 L -16010.392578125 -402.1756286621094 L -16010.3974609375 -402.1735229492188 C -16010.47265625 -402.1404724121094 -16010.51171875 -402.0819091796875 -16010.51171875 -401.9994506835938 L -16010.51171875 -398.8072204589844 C -16010.51171875 -398.4133911132812 -16010.8212890625 -398.0866394042969 -16011.216796875 -398.0633239746094 C -16016.1171875 -397.79931640625 -16019.896484375 -395.9248352050781 -16022.4501953125 -392.4918823242188 C -16024.3486328125 -389.9429626464844 -16025.19921875 -387.0384216308594 -16025.580078125 -384.9315795898438 C -16024.1181640625 -386.685302734375 -16022.2763671875 -388.1451110839844 -16020.232421875 -389.1670227050781 C -16017.9326171875 -390.3168640136719 -16015.359375 -390.9246520996094 -16012.7890625 -390.9246520996094 L -16011.2548828125 -390.9246520996094 C -16010.8447265625 -390.9246520996094 -16010.51171875 -390.5908508300781 -16010.51171875 -390.1805725097656 L -16010.51171875 -387.3023376464844 C -16010.51171875 -387.2198791503906 -16010.47265625 -387.1613159179688 -16010.3974609375 -387.1282653808594 C -16010.3681640625 -387.1156616210938 -16010.3408203125 -387.1092834472656 -16010.3134765625 -387.1092834472656 C -16010.271484375 -387.1092834472656 -16010.232421875 -387.1256713867188 -16010.1943359375 -387.1593933105469 L -16002.0107421875 -394.5099182128906 C -16001.958984375 -394.5571594238281 -16001.947265625 -394.6137390136719 -16001.947265625 -394.6528930664062 C -16001.947265625 -394.6915588378906 -16001.9580078125 -394.7467651367188 -16002.0087890625 -394.7901916503906 L -16010.1943359375 -402.1424255371094 C -16010.2431640625 -402.1882019042969 -16010.28515625 -402.1933288574219 -16010.3125 -402.1933288574219 Z M -16015.0439453125 -424.5585327148438 L -16015.0439453125 -418.0411071777344 C -16015.0439453125 -417.5036010742188 -16014.6064453125 -417.0663146972656 -16014.068359375 -417.0663146972656 L -16007.55078125 -417.0663146972656 L -16015.0439453125 -424.5585327148438 Z M -16024.41796875 -395.5512390136719 L -16035.2265625 -395.5512390136719 C -16035.63671875 -395.5512390136719 -16035.970703125 -395.8868408203125 -16035.970703125 -396.2993469238281 C -16035.970703125 -396.7096252441406 -16035.63671875 -397.0434265136719 -16035.2265625 -397.0434265136719 L -16024.41796875 -397.0434265136719 C -16024.0078125 -397.0434265136719 -16023.6748046875 -396.7096252441406 -16023.6748046875 -396.2993469238281 C -16023.6748046875 -395.8868408203125 -16024.0078125 -395.5512390136719 -16024.41796875 -395.5512390136719 Z M -16015.7880859375 -401.3640747070312 L -16035.2265625 -401.3640747070312 C -16035.63671875 -401.3640747070312 -16035.970703125 -401.6978759765625 -16035.970703125 -402.108154296875 C -16035.970703125 -402.5184326171875 -16035.63671875 -402.8522338867188 -16035.2265625 -402.8522338867188 L -16015.7880859375 -402.8522338867188 C -16015.3779296875 -402.8522338867188 -16015.0439453125 -402.5184326171875 -16015.0439453125 -402.108154296875 C -16015.0439453125 -401.6978759765625 -16015.3779296875 -401.3640747070312 -16015.7880859375 -401.3640747070312 Z M -16009.8818359375 -407.1769104003906 L -16035.2265625 -407.1769104003906 C -16035.63671875 -407.1769104003906 -16035.970703125 -407.5107116699219 -16035.970703125 -407.9209899902344 C -16035.970703125 -408.3312683105469 -16035.63671875 -408.6650695800781 -16035.2265625 -408.6650695800781 L -16009.8818359375 -408.6650695800781 C -16009.4716796875 -408.6650695800781 -16009.138671875 -408.3312683105469 -16009.138671875 -407.9209899902344 C -16009.138671875 -407.5107116699219 -16009.4716796875 -407.1769104003906 -16009.8818359375 -407.1769104003906 Z M -16022.2490234375 -415.5700988769531 L -16035.2265625 -415.5700988769531 C -16035.63671875 -415.5700988769531 -16035.970703125 -415.9039001464844 -16035.970703125 -416.3141784667969 C -16035.970703125 -416.7244567871094 -16035.63671875 -417.0582580566406 -16035.2265625 -417.0582580566406 L -16022.2490234375 -417.0582580566406 C -16021.8388671875 -417.0582580566406 -16021.5048828125 -416.7244567871094 -16021.5048828125 -416.3141784667969 C -16021.5048828125 -415.9039001464844 -16021.8388671875 -415.5700988769531 -16022.2490234375 -415.5700988769531 Z M -16022.2490234375 -419.8089599609375 L -16035.2265625 -419.8089599609375 C -16035.63671875 -419.8089599609375 -16035.970703125 -420.1427612304688 -16035.970703125 -420.5530395507812 C -16035.970703125 -420.9633178710938 -16035.63671875 -421.297119140625 -16035.2265625 -421.297119140625 L -16022.2490234375 -421.297119140625 C -16021.8388671875 -421.297119140625 -16021.5048828125 -420.9633178710938 -16021.5048828125 -420.5530395507812 C -16021.5048828125 -420.1427612304688 -16021.8388671875 -419.8089599609375 -16022.2490234375 -419.8089599609375 Z" stroke="none"/>
      <path d="M -16008.0302734375 -382.9990539550781 C -16006.419921875 -382.9990539550781 -16005.1123046875 -384.3113708496094 -16005.1123046875 -385.9175415039062 L -16005.1123046875 -387.25 C -16005.1123046875 -387.604248046875 -16005.3974609375 -387.8940734863281 -16005.755859375 -387.8940734863281 C -16006.1103515625 -387.8940734863281 -16006.400390625 -387.604248046875 -16006.400390625 -387.25 L -16006.400390625 -385.9175415039062 C -16006.400390625 -385.0198669433594 -16007.1328125 -384.2872314453125 -16008.0302734375 -384.2872314453125 L -16024.3017578125 -384.2872314453125 C -16022.9970703125 -385.7887268066406 -16021.3916015625 -387.0326232910156 -16019.6123046875 -387.92626953125 C -16017.5068359375 -388.9769287109375 -16015.1435546875 -389.5364685058594 -16012.7890625 -389.5364685058594 L -16011.8994140625 -389.5364685058594 L -16011.8994140625 -387.3023376464844 C -16011.8994140625 -386.6703186035156 -16011.541015625 -386.1188354492188 -16010.96484375 -385.8612060546875 C -16010.7529296875 -385.7668151855469 -16010.53125 -385.7204895019531 -16010.3125 -385.7205200195312 C -16009.9345703125 -385.7205200195312 -16009.564453125 -385.8590393066406 -16009.2666015625 -386.1268615722656 L -16001.08203125 -393.4774475097656 C -16000.748046875 -393.7753295898438 -16000.5595703125 -394.2020568847656 -16000.5595703125 -394.6528930664062 C -16000.5595703125 -395.0997314453125 -16000.748046875 -395.5264282226562 -16001.08203125 -395.828369140625 L -16009.2666015625 -403.1748962402344 C -16009.5634765625 -403.4439086914062 -16009.935546875 -403.5840759277344 -16010.31640625 -403.5840759277344 C -16010.5341796875 -403.5840759277344 -16010.75390625 -403.5382690429688 -16010.96484375 -403.4446105957031 C -16011.541015625 -403.1869812011719 -16011.8994140625 -402.6314697265625 -16011.8994140625 -401.9994506835938 L -16011.8994140625 -399.4110717773438 C -16023.7666015625 -398.4529724121094 -16026.4716796875 -388.5985412597656 -16027.0830078125 -384.3516235351562 C -16027.0830078125 -384.3315124511719 -16027.0869140625 -384.3113708496094 -16027.0869140625 -384.2872314453125 L -16037.078125 -384.2872314453125 C -16037.98046875 -384.2872314453125 -16038.712890625 -385.0198669433594 -16038.712890625 -385.9175415039062 L -16038.712890625 -424.0793762207031 C -16038.712890625 -424.9811096191406 -16037.98046875 -425.709716796875 -16037.078125 -425.709716796875 L -16016.431640625 -425.709716796875 L -16016.431640625 -418.0411071777344 C -16016.431640625 -416.7368469238281 -16015.373046875 -415.6781311035156 -16014.068359375 -415.6781311035156 L -16006.400390625 -415.6781311035156 L -16006.400390625 -402.1041259765625 C -16006.400390625 -401.7498779296875 -16006.1103515625 -401.4600524902344 -16005.755859375 -401.4600524902344 C -16005.3974609375 -401.4600524902344 -16005.1123046875 -401.7498779296875 -16005.1123046875 -402.1041259765625 L -16005.1123046875 -416.3222351074219 C -16005.1123046875 -416.4913024902344 -16005.1806640625 -416.6563415527344 -16005.30078125 -416.777099609375 L -16015.3330078125 -426.8127136230469 C -16015.453125 -426.9334716796875 -16015.6181640625 -427.0018920898438 -16015.7880859375 -427.0018920898438 L -16037.078125 -427.0018920898438 C -16038.6884765625 -427.0018920898438 -16040.0009765625 -425.6895751953125 -16040.0009765625 -424.0793762207031 L -16040.0009765625 -385.9175415039062 C -16040.0009765625 -384.3113708496094 -16038.6884765625 -382.9990539550781 -16037.078125 -382.9990539550781 L -16008.0302734375 -382.9990539550781 M -16010.3125 -402.2933349609375 C -16010.2568359375 -402.2933349609375 -16010.1923828125 -402.2772216796875 -16010.1279296875 -402.2168273925781 L -16001.9443359375 -394.8662719726562 C -16001.859375 -394.7937927246094 -16001.84765625 -394.7012023925781 -16001.84765625 -394.6528930664062 C -16001.84765625 -394.6046142578125 -16001.859375 -394.5120239257812 -16001.9443359375 -394.4355163574219 L -16010.1279296875 -387.0849609375 C -16010.1923828125 -387.0272827148438 -16010.2568359375 -387.00927734375 -16010.3134765625 -387.00927734375 C -16010.3642578125 -387.00927734375 -16010.4072265625 -387.0234069824219 -16010.4375 -387.0366516113281 C -16010.501953125 -387.0648193359375 -16010.611328125 -387.1372680664062 -16010.611328125 -387.3023376464844 L -16010.611328125 -390.1805725097656 C -16010.611328125 -390.5348205566406 -16010.900390625 -390.8246459960938 -16011.2548828125 -390.8246459960938 L -16012.7890625 -390.8246459960938 C -16015.3447265625 -390.8246459960938 -16017.9013671875 -390.2208251953125 -16020.1875 -389.0775756835938 C -16022.3369140625 -388.0027770996094 -16024.2490234375 -386.4529418945312 -16025.7431640625 -384.5730285644531 C -16025.380859375 -386.8031616210938 -16024.52734375 -389.87060546875 -16022.5302734375 -392.5515747070312 C -16019.9580078125 -396.0094909667969 -16016.154296875 -397.8974609375 -16011.22265625 -398.1631469726562 C -16010.880859375 -398.1832885742188 -16010.611328125 -398.4650573730469 -16010.611328125 -398.8072204589844 L -16010.611328125 -401.9994506835938 C -16010.611328125 -402.1645202636719 -16010.501953125 -402.2369689941406 -16010.4375 -402.26513671875 C -16010.4091796875 -402.28125 -16010.365234375 -402.2933349609375 -16010.3125 -402.2933349609375 M -16015.1435546875 -424.7999572753906 L -16007.3095703125 -416.96630859375 L -16014.068359375 -416.96630859375 C -16014.66015625 -416.96630859375 -16015.1435546875 -417.4493713378906 -16015.1435546875 -418.0411071777344 L -16015.1435546875 -424.7999572753906 M -16024.41796875 -395.6512451171875 C -16024.060546875 -395.6512451171875 -16023.7744140625 -395.9410705566406 -16023.7744140625 -396.2993469238281 C -16023.7744140625 -396.6535949707031 -16024.060546875 -396.9434204101562 -16024.41796875 -396.9434204101562 L -16035.2265625 -396.9434204101562 C -16035.5810546875 -396.9434204101562 -16035.87109375 -396.6535949707031 -16035.87109375 -396.2993469238281 C -16035.87109375 -395.9410705566406 -16035.5810546875 -395.6512451171875 -16035.2265625 -395.6512451171875 L -16024.41796875 -395.6512451171875 M -16015.7880859375 -401.4640808105469 C -16015.43359375 -401.4640808105469 -16015.1435546875 -401.75390625 -16015.1435546875 -402.108154296875 C -16015.1435546875 -402.4664306640625 -16015.43359375 -402.7522277832031 -16015.7880859375 -402.7522277832031 L -16035.2265625 -402.7522277832031 C -16035.5810546875 -402.7522277832031 -16035.87109375 -402.4664306640625 -16035.87109375 -402.108154296875 C -16035.87109375 -401.75390625 -16035.5810546875 -401.4640808105469 -16035.2265625 -401.4640808105469 L -16015.7880859375 -401.4640808105469 M -16009.8818359375 -407.2769165039062 C -16009.5283203125 -407.2769165039062 -16009.23828125 -407.5667419433594 -16009.23828125 -407.9209899902344 C -16009.23828125 -408.2792663574219 -16009.5283203125 -408.5650634765625 -16009.8818359375 -408.5650634765625 L -16035.2265625 -408.5650634765625 C -16035.5810546875 -408.5650634765625 -16035.87109375 -408.2792663574219 -16035.87109375 -407.9209899902344 C -16035.87109375 -407.5667419433594 -16035.5810546875 -407.2769165039062 -16035.2265625 -407.2769165039062 L -16009.8818359375 -407.2769165039062 M -16022.2490234375 -415.6701049804688 C -16021.89453125 -415.6701049804688 -16021.6044921875 -415.9559020996094 -16021.6044921875 -416.3141784667969 C -16021.6044921875 -416.6684265136719 -16021.89453125 -416.958251953125 -16022.2490234375 -416.958251953125 L -16035.2265625 -416.958251953125 C -16035.5810546875 -416.958251953125 -16035.87109375 -416.6684265136719 -16035.87109375 -416.3141784667969 C -16035.87109375 -415.9559020996094 -16035.5810546875 -415.6701049804688 -16035.2265625 -415.6701049804688 L -16022.2490234375 -415.6701049804688 M -16022.2490234375 -419.9089660644531 C -16021.89453125 -419.9089660644531 -16021.6044921875 -420.1987915039062 -16021.6044921875 -420.5530395507812 C -16021.6044921875 -420.9113159179688 -16021.89453125 -421.1971130371094 -16022.2490234375 -421.1971130371094 L -16035.2265625 -421.1971130371094 C -16035.5810546875 -421.1971130371094 -16035.87109375 -420.9113159179688 -16035.87109375 -420.5530395507812 C -16035.87109375 -420.1987915039062 -16035.5810546875 -419.9089660644531 -16035.2265625 -419.9089660644531 L -16022.2490234375 -419.9089660644531 M -16008.0302734375 -382.7990417480469 L -16037.078125 -382.7990417480469 C -16038.7998046875 -382.7990417480469 -16040.201171875 -384.197998046875 -16040.201171875 -385.9175415039062 L -16040.201171875 -424.0793762207031 C -16040.201171875 -425.8011474609375 -16038.7998046875 -427.2018737792969 -16037.078125 -427.2018737792969 L -16015.7880859375 -427.2018737792969 C -16015.5654296875 -427.2018737792969 -16015.34765625 -427.1114501953125 -16015.19140625 -426.9537658691406 L -16005.1591796875 -416.9184875488281 C -16005.001953125 -416.7605285644531 -16004.912109375 -416.5433349609375 -16004.912109375 -416.3222351074219 L -16004.912109375 -402.1041259765625 C -16004.912109375 -401.6387023925781 -16005.291015625 -401.2600402832031 -16005.755859375 -401.2600402832031 C -16006.2216796875 -401.2600402832031 -16006.6005859375 -401.6387023925781 -16006.6005859375 -402.1041259765625 L -16006.6005859375 -415.4781188964844 L -16014.068359375 -415.4781188964844 C -16015.4814453125 -415.4781188964844 -16016.6318359375 -416.6278686523438 -16016.6318359375 -418.0411071777344 L -16016.6318359375 -425.5097045898438 L -16037.078125 -425.5097045898438 C -16037.869140625 -425.5097045898438 -16038.5126953125 -424.8680725097656 -16038.5126953125 -424.0793762207031 L -16038.5126953125 -385.9175415039062 C -16038.5126953125 -385.1288452148438 -16037.869140625 -384.4872131347656 -16037.078125 -384.4872131347656 L -16027.265625 -384.4872131347656 C -16026.6259765625 -388.7789916992188 -16023.873046875 -398.545654296875 -16012.099609375 -399.5948181152344 L -16012.099609375 -401.9994506835938 C -16012.099609375 -402.7130737304688 -16011.6962890625 -403.3367919921875 -16011.046875 -403.627197265625 C -16010.8125 -403.7313537597656 -16010.56640625 -403.7840881347656 -16010.31640625 -403.7840881347656 C -16009.880859375 -403.7840881347656 -16009.4609375 -403.6203918457031 -16009.1328125 -403.3231506347656 L -16000.9482421875 -395.9772033691406 C -16000.57421875 -395.6387023925781 -16000.359375 -395.1561889648438 -16000.359375 -394.6528930664062 C -16000.359375 -394.1450500488281 -16000.57421875 -393.6622314453125 -16000.94921875 -393.3281860351562 L -16009.1328125 -385.9780578613281 C -16009.4619140625 -385.6830139160156 -16009.880859375 -385.5205383300781 -16010.3125 -385.5205078125 C -16010.5634765625 -385.5205078125 -16010.810546875 -385.5736389160156 -16011.0458984375 -385.678466796875 C -16011.6962890625 -385.9690246582031 -16012.099609375 -386.5912170410156 -16012.099609375 -387.3023376464844 L -16012.099609375 -389.3364562988281 L -16012.7890625 -389.3364562988281 C -16015.111328125 -389.3364562988281 -16017.439453125 -388.7869567871094 -16019.5234375 -387.747314453125 C -16021.1396484375 -386.9354248046875 -16022.62890625 -385.8133239746094 -16023.8544921875 -384.4872131347656 L -16008.0302734375 -384.4872131347656 C -16007.2421875 -384.4872131347656 -16006.6005859375 -385.1288452148438 -16006.6005859375 -385.9175415039062 L -16006.6005859375 -387.25 C -16006.6005859375 -387.7154235839844 -16006.2216796875 -388.0940551757812 -16005.755859375 -388.0940551757812 C -16005.291015625 -388.0940551757812 -16004.912109375 -387.7154235839844 -16004.912109375 -387.25 L -16004.912109375 -385.9175415039062 C -16004.912109375 -384.197998046875 -16006.310546875 -382.7990417480469 -16008.0302734375 -382.7990417480469 Z M -16010.3125 -402.0933532714844 C -16010.3291015625 -402.0933532714844 -16010.33984375 -402.0905151367188 -16010.3427734375 -402.0894165039062 L -16010.3515625 -402.0841979980469 L -16010.357421875 -402.0818786621094 C -16010.4072265625 -402.0601196289062 -16010.4111328125 -402.0292358398438 -16010.4111328125 -401.9994506835938 L -16010.4111328125 -398.8072204589844 C -16010.4111328125 -398.3605041503906 -16010.7626953125 -397.9899291992188 -16011.2109375 -397.9635009765625 C -16016.0810546875 -397.7011413574219 -16019.8349609375 -395.8401489257812 -16022.3701171875 -392.4322204589844 C -16024.1484375 -390.0441284179688 -16025.001953125 -387.3407287597656 -16025.412109375 -385.282958984375 C -16023.982421875 -386.9195556640625 -16022.220703125 -388.2847290039062 -16020.27734375 -389.2564697265625 C -16017.9638671875 -390.4132080078125 -16015.375 -391.024658203125 -16012.7890625 -391.024658203125 L -16011.2548828125 -391.024658203125 C -16010.7900390625 -391.024658203125 -16010.4111328125 -390.64599609375 -16010.4111328125 -390.1805725097656 L -16010.4111328125 -387.3023376464844 C -16010.4111328125 -387.2725524902344 -16010.4072265625 -387.2416687011719 -16010.357421875 -387.2199096679688 C -16010.341796875 -387.2129516601562 -16010.326171875 -387.2092895507812 -16010.3134765625 -387.2092895507812 C -16010.306640625 -387.2092895507812 -16010.2890625 -387.2092895507812 -16010.26171875 -387.2337951660156 L -16002.078125 -394.5843200683594 C -16002.0703125 -394.5909423828125 -16002.0478515625 -394.6116333007812 -16002.0478515625 -394.6528930664062 C -16002.0478515625 -394.6915283203125 -16002.06640625 -394.7079467773438 -16002.07421875 -394.714111328125 L -16002.076171875 -394.7157592773438 L -16002.078125 -394.7174682617188 L -16010.26171875 -402.0680236816406 C -16010.2890625 -402.0933532714844 -16010.302734375 -402.0933532714844 -16010.3125 -402.0933532714844 Z M -16014.943359375 -424.317138671875 L -16014.943359375 -418.0411071777344 C -16014.943359375 -417.5587463378906 -16014.55078125 -417.1663208007812 -16014.068359375 -417.1663208007812 L -16007.7919921875 -417.1663208007812 L -16014.943359375 -424.317138671875 Z M -16024.41796875 -395.4512634277344 L -16035.2265625 -395.4512634277344 C -16035.6923828125 -395.4512634277344 -16036.0712890625 -395.8316955566406 -16036.0712890625 -396.2993469238281 C -16036.0712890625 -396.7647705078125 -16035.6923828125 -397.1434326171875 -16035.2265625 -397.1434326171875 L -16024.41796875 -397.1434326171875 C -16023.953125 -397.1434326171875 -16023.57421875 -396.7647705078125 -16023.57421875 -396.2993469238281 C -16023.57421875 -395.8316955566406 -16023.953125 -395.4512634277344 -16024.41796875 -395.4512634277344 Z M -16015.7880859375 -401.2640686035156 L -16035.2265625 -401.2640686035156 C -16035.6923828125 -401.2640686035156 -16036.0712890625 -401.6427307128906 -16036.0712890625 -402.108154296875 C -16036.0712890625 -402.5735778808594 -16035.6923828125 -402.9522399902344 -16035.2265625 -402.9522399902344 L -16015.7880859375 -402.9522399902344 C -16015.322265625 -402.9522399902344 -16014.943359375 -402.5735778808594 -16014.943359375 -402.108154296875 C -16014.943359375 -401.6427307128906 -16015.322265625 -401.2640686035156 -16015.7880859375 -401.2640686035156 Z M -16009.8818359375 -407.076904296875 L -16035.2265625 -407.076904296875 C -16035.6923828125 -407.076904296875 -16036.0712890625 -407.45556640625 -16036.0712890625 -407.9209899902344 C -16036.0712890625 -408.3864135742188 -16035.6923828125 -408.7650756835938 -16035.2265625 -408.7650756835938 L -16009.8818359375 -408.7650756835938 C -16009.4169921875 -408.7650756835938 -16009.0380859375 -408.3864135742188 -16009.0380859375 -407.9209899902344 C -16009.0380859375 -407.45556640625 -16009.4169921875 -407.076904296875 -16009.8818359375 -407.076904296875 Z M -16022.2490234375 -415.4701232910156 L -16035.2265625 -415.4701232910156 C -16035.6923828125 -415.4701232910156 -16036.0712890625 -415.8487548828125 -16036.0712890625 -416.3141784667969 C -16036.0712890625 -416.7796020507812 -16035.6923828125 -417.1582336425781 -16035.2265625 -417.1582336425781 L -16022.2490234375 -417.1582336425781 C -16021.783203125 -417.1582336425781 -16021.404296875 -416.7796020507812 -16021.404296875 -416.3141784667969 C -16021.404296875 -415.8487548828125 -16021.783203125 -415.4701232910156 -16022.2490234375 -415.4701232910156 Z M -16022.2490234375 -419.7089538574219 L -16035.2265625 -419.7089538574219 C -16035.6923828125 -419.7089538574219 -16036.0712890625 -420.0876159667969 -16036.0712890625 -420.5530395507812 C -16036.0712890625 -421.0184631347656 -16035.6923828125 -421.3970947265625 -16035.2265625 -421.3970947265625 L -16022.2490234375 -421.3970947265625 C -16021.783203125 -421.3970947265625 -16021.404296875 -421.0184631347656 -16021.404296875 -420.5530395507812 C -16021.404296875 -420.0876159667969 -16021.783203125 -419.7089538574219 -16022.2490234375 -419.7089538574219 Z" stroke="none" fill="#96abec"/>
    </g>
  </g>
</svg>
