<svg xmlns="http://www.w3.org/2000/svg" width="29" height="23" fill="none" fill-rule="evenodd" xmlns:v="https://vecta.io/nano"><circle fill="#d8cef3" cx="11.5" cy="11.5" r="11.5"/><g fill-rule="nonzero"><path d="M12.225 4.298a.9.9 0 0 1 1.35-1.188l1.476 1.692 3.5-3.537c.228-.228.56-.317.873-.234s.555.327.64.64a.9.9 0 0 1-.234.873l-4.185 4.212a1.19 1.19 0 0 1-.18.108.28.28 0 0 1-.1.054.83.83 0 0 1-.324.063.9.9 0 0 1-.36-.036l-.108-.072c-.065-.03-.126-.07-.18-.117h0L12.206 4.3z" fill="#262626"/><path d="M21 6.404h6.3a.9.9 0 0 0 0-1.8H21a.9.9 0 0 0 0 1.8zm6.3 3.6H12.9a.9.9 0 0 0 0 1.8h14.4a.9.9 0 0 0 0-1.8zm0 5.4H12.9a.9.9 0 1 0 0 1.8h14.4a.9.9 0 1 0 0-1.8z" fill="#000"/></g></svg>