<?xml version="1.0" encoding="UTF-8"?>
<svg width="35px" height="32px" viewBox="0 0 35 32" version="1.1" xmlns="http://www.w3.org/2000/svg" xmlns:xlink="http://www.w3.org/1999/xlink">
    <title>Group 85</title>
    <g id="Page-1" stroke="none" stroke-width="1" fill="none" fill-rule="evenodd">
        <g id="Translation-(With-AI-component)" transform="translate(-300.000000, -7797.000000)">
            <g id="Group-99" transform="translate(-101.000000, 2180.000000)">
                <g id="Group-76" transform="translate(0.000000, 1908.000000)">
                    <g id="Group-85" transform="translate(401.000000, 3709.000000)">
                        <circle id="Oval-Copy-18" fill="#D6CFF0" opacity="0.5" cx="16" cy="16" r="16"></circle>
                        <path d="M28.25,16 C29.6875,16 30.921875,15.484375 31.953125,14.453125 C32.984375,13.421875 33.5,12.1875 33.5,10.75 L33.5,10.75 L33.5,10 C33.5,7.53125 32.6171875,5.4140625 30.8515625,3.6484375 C29.0859375,1.8828125 26.96875,1 24.5,1 C22.03125,1 19.9140625,1.8828125 18.1484375,3.6484375 C16.3828125,5.4140625 15.5,7.53125 15.5,10 L15.5,10 L15.5,10.75 C15.5,10.96875 15.5703125,11.1484375 15.7109375,11.2890625 C15.8515625,11.4296875 16.03125,11.5 16.25,11.5 C16.46875,11.5 16.640625,11.4375 16.765625,11.3125 C16.921875,11.15625 17,10.96875 17,10.75 L17,10.75 L17,10 C17,7.9375 17.734375,6.171875 19.203125,4.703125 C20.671875,3.234375 22.4375,2.5 24.5,2.5 C26.5625,2.5 28.328125,3.234375 29.796875,4.703125 C31.265625,6.171875 32,7.9375 32,10 L32,10 L32,10.75 C32,11.78125 31.6328125,12.6640625 30.8984375,13.3984375 C30.1640625,14.1328125 29.28125,14.5 28.25,14.5 L28.25,14.5 L26.75,14.5 C26.75,14.09375 26.6015625,13.7421875 26.3046875,13.4453125 C26.0078125,13.1484375 25.65625,13 25.25,13 L25.25,13 L23.75,13 C23.34375,13 22.9921875,13.1484375 22.6953125,13.4453125 C22.3984375,13.7421875 22.25,14.09375 22.25,14.5 C22.25,14.90625 22.3984375,15.2578125 22.6953125,15.5546875 C22.9921875,15.8515625 23.34375,16 23.75,16 L23.75,16 L28.25,16 Z M20.75,14.640625 L20.75,14.5 C20.75,13.96875 20.890625,13.46875 21.171875,13 C20.953125,12.78125 20.7578125,12.4921875 20.5859375,12.1328125 C20.4140625,11.7734375 20.2734375,11.40625 20.1640625,11.03125 C20.0546875,10.65625 20,10.3125 20,10 C20,8.75 20.4375,7.6875 21.3125,6.8125 C22.1875,5.9375 23.25,5.5 24.5,5.5 C25.125,5.5 25.7109375,5.6171875 26.2578125,5.8515625 C26.8046875,6.0859375 27.28125,6.40625 27.6875,6.8125 C28.09375,7.21875 28.4140625,7.6953125 28.6484375,8.2421875 C28.8828125,8.7890625 29,9.375 29,10 C29,10.46875 28.8828125,10.9921875 28.6484375,11.5703125 C28.4140625,12.1484375 28.140625,12.625 27.828125,13 L27.828125,13 L28.25,13 C28.59375,13 28.953125,12.8984375 29.328125,12.6953125 C29.703125,12.4921875 29.984375,12.234375 30.171875,11.921875 C30.390625,11.265625 30.5,10.625 30.5,10 C30.5,8.34375 29.9140625,6.9296875 28.7421875,5.7578125 C27.5703125,4.5859375 26.15625,4 24.5,4 C22.84375,4 21.4296875,4.5859375 20.2578125,5.7578125 C19.0859375,6.9296875 18.5,8.34375 18.5,10 C18.5,11.90625 19.25,13.453125 20.75,14.640625 L20.75,14.640625 Z M33.5,25 C33.90625,25 34.2578125,24.8515625 34.5546875,24.5546875 C34.8515625,24.2578125 35,23.90625 35,23.5 C35,21.84375 34.4140625,20.4296875 33.2421875,19.2578125 C32.0703125,18.0859375 30.65625,17.5 29,17.5 L29,17.5 L28.765625,17.5 C28.296875,17.5 27.75,17.609375 27.125,17.828125 C26.28125,18.109375 25.40625,18.25 24.5,18.25 C23.59375,18.25 22.71875,18.109375 21.875,17.828125 C21.25,17.609375 20.703125,17.5 20.234375,17.5 L20.234375,17.5 L20,17.5 C18.34375,17.5 16.9296875,18.0859375 15.7578125,19.2578125 C14.5859375,20.4296875 14,21.84375 14,23.5 C14,23.90625 14.1484375,24.2578125 14.4453125,24.5546875 C14.7421875,24.8515625 15.09375,25 15.5,25 L15.5,25 L33.5,25 Z M33.5,23.5 L15.5,23.5 C15.5,22.25 15.9375,21.1875 16.8125,20.3125 C17.6875,19.4375 18.75,19 20,19 L20,19 L20.234375,19 C20.546875,19 20.9375,19.078125 21.40625,19.234375 C22.40625,19.578125 23.4375,19.75 24.5,19.75 C25.5625,19.75 26.59375,19.578125 27.59375,19.234375 C28.0625,19.078125 28.453125,19 28.765625,19 L28.765625,19 L29,19 C30.25,19 31.3125,19.4375 32.1875,20.3125 C33.0625,21.1875 33.5,22.25 33.5,23.5 L33.5,23.5 Z" id="" fill="#000000" fill-rule="nonzero"></path>
                    </g>
                </g>
            </g>
        </g>
    </g>
</svg>