<svg xmlns="http://www.w3.org/2000/svg" width="112" height="111" fill-rule="evenodd" xmlns:v="https://vecta.io/nano"><path d="M2.446.001c5.452-.06 11.08 1.835 16.882 5.687S51.382 35.42 98.08 83.327c9.22 12.503 13.18 20.67 11.876 24.505-.242.712.12.297 1.083-1.244V57.96c.227-4.693-2.7-9.9-8.786-15.65s-17.38-17.1-33.887-34.055C62.94 2.753 56.745.001 49.782.001H2.446z" fill="#fba800"/><path d="M106.92 96.94v13.845c2.753-1.123 4.13-2.34 4.13-3.653s-1.377-4.7-4.13-10.192zM5.474 0c2.64 0 6.304 1.366 10.996 4.098H0C1 1.366 2.835 0 5.474 0z" fill="#b17800"/></svg>