<?xml version="1.0" encoding="UTF-8"?>
<svg width="40px" height="32px" viewBox="0 0 40 32" version="1.1" xmlns="http://www.w3.org/2000/svg" xmlns:xlink="http://www.w3.org/1999/xlink">
    <title>Group 64</title>
    <g id="Page-1" stroke="none" stroke-width="1" fill="none" fill-rule="evenodd">
        <g id="Translation-(With-AI-component)" transform="translate(-300.000000, -7670.000000)">
            <g id="Group-99" transform="translate(-101.000000, 2180.000000)">
                <g id="Group-76" transform="translate(0.000000, 1908.000000)">
                    <g id="Group-64" transform="translate(401.000000, 3582.000000)">
                        <circle id="Oval-Copy-18" fill="#D6CFF0" opacity="0.5" cx="16" cy="16" r="16"></circle>
                        <path d="M28.1875,24 C28.8125,24 29.34375,23.78125 29.78125,23.34375 L29.78125,23.34375 L39.34375,13.78125 C39.78125,13.34375 40,12.8125 40,12.1875 C40,11.5625 39.78125,11.03125 39.34375,10.59375 L39.34375,10.59375 L29.40625,0.65625 C28.96875,0.21875 28.4375,0 27.8125,0 L27.8125,0 L25.421875,0 L26.921875,1.5 L27.8125,1.5 C28.03125,1.5 28.203125,1.578125 28.328125,1.734375 L28.328125,1.734375 L38.3455067,11.7512019 C38.6384061,12.0685096 38.6117788,12.3858173 38.265625,12.703125 L28.6237981,22.3455067 C28.3064904,22.6384061 27.9891827,22.6117788 27.671875,22.265625 L27.671875,22.265625 L27.578125,22.21875 L26.5,23.25 L26.59375,23.34375 C27.03125,23.78125 27.5625,24 28.1875,24 Z M22.1875,24 C22.8125,24 23.34375,23.78125 23.78125,23.34375 L23.78125,23.34375 L33.34375,13.78125 C33.78125,13.34375 34,12.8125 34,12.1875 C34,11.5625 33.78125,11.03125 33.34375,10.59375 L33.34375,10.59375 L23.40625,0.65625 C22.96875,0.21875 22.4375,0 21.8125,0 L21.8125,0 L12.25,0 C11.625,0 11.09375,0.21875 10.65625,0.65625 C10.21875,1.09375 10,1.625 10,2.25 L10,2.25 L10,11.8125 C10,12.4375 10.21875,12.96875 10.65625,13.40625 L10.65625,13.40625 L20.59375,23.34375 C21.03125,23.78125 21.5625,24 22.1875,24 Z M22.6237981,22.3455067 C22.3064904,22.6384061 21.9891827,22.6117788 21.671875,22.265625 L11.734375,12.328125 C11.578125,12.203125 11.5,12.03125 11.5,11.8125 L11.5,11.8125 L11.5,2.25 C11.5,2.03125 11.5703125,1.8515625 11.7109375,1.7109375 C11.8515625,1.5703125 12.03125,1.5 12.25,1.5 L12.25,1.5 L21.8125,1.5 C22.03125,1.5 22.203125,1.578125 22.328125,1.734375 L22.328125,1.734375 L32.3455067,11.7512019 C32.6384061,12.0685096 32.6117788,12.3858173 32.265625,12.703125 L22.6237981,22.3455067 Z M16.75,9 C17.375,9 17.90625,8.78125 18.34375,8.34375 C18.78125,7.90625 19,7.375 19,6.75 C19,6.125 18.78125,5.59375 18.34375,5.15625 C17.90625,4.71875 17.375,4.5 16.75,4.5 C16.125,4.5 15.59375,4.71875 15.15625,5.15625 C14.71875,5.59375 14.5,6.125 14.5,6.75 C14.5,7.375 14.71875,7.90625 15.15625,8.34375 C15.59375,8.78125 16.125,9 16.75,9 Z M16.75,7.6875 C16.5,7.6875 16.28125,7.59375 16.09375,7.40625 C15.90625,7.21875 15.8125,7 15.8125,6.75 C15.8125,6.5 15.90625,6.28125 16.09375,6.09375 C16.28125,5.90625 16.5,5.8125 16.75,5.8125 C17,5.8125 17.21875,5.90625 17.40625,6.09375 C17.59375,6.28125 17.6875,6.5 17.6875,6.75 C17.6875,7 17.59375,7.21875 17.40625,7.40625 C17.21875,7.59375 17,7.6875 16.75,7.6875 Z" id="" fill="#000000" fill-rule="nonzero"></path>
                    </g>
                </g>
            </g>
        </g>
    </g>
</svg>