<svg xmlns="http://www.w3.org/2000/svg" width="28" height="23" fill-rule="evenodd" xmlns:v="https://vecta.io/nano"><circle fill="#e6d2d0" cx="11.5" cy="11.5" r="11.5"/><path d="M28 4.52a.41.41 0 0 0-.12-.289l-1.113-1.11c-.16-.16-.417-.16-.576 0l-.653.65-.195-.195c-.114-.116-.27-.18-.43-.18a.6.6 0 0 0-.431.179L22.05 6.006h-7.614V3.823a.61.61 0 1 0-1.221 0v2.184H11.03a.61.61 0 0 0 0 1.221h2.184v7.615l-1.1 1.113c-.06.06-.106.128-.136.2l-1.905 3.97a.61.61 0 0 0 .12.696c.116.118.273.18.43.18a.59.59 0 0 0 .265-.06l4.003-1.92c.06-.03.118-.07.167-.12l1.113-1.113h7.6v2.184a.61.61 0 1 0 1.221 0V17.79h2.184a.61.61 0 1 0 0-1.221H25v-7.6l2.434-2.434a.61.61 0 0 0 0-.863l-.195-.195.65-.653a.4.4 0 0 0 .12-.287zm-13.567 2.7h6.393l-6.393 6.393V7.23zm-2.52 11.858l.9-1.854.967.965-1.856.9zm5.467-2.522l6.4-6.4v6.4h-6.4zm6.568-8.294l-9.476 9.48-1.22-1.22L24.9 4.87l1.22 1.22-2.182 2.182zm2.764-3.446l-.537-.54.303-.303.54.54-.305.303z" fill-rule="nonzero"/></svg>