<?xml version="1.0" encoding="UTF-8"?>
<svg width="28px" height="28px" viewBox="0 0 28 28" version="1.1" xmlns="http://www.w3.org/2000/svg" xmlns:xlink="http://www.w3.org/1999/xlink">
    <title>Group 11</title>
    <defs>
        <rect id="path-1" x="0" y="0" width="28" height="28"></rect>
    </defs>
    <g id="Page-1" stroke="none" stroke-width="1" fill="none" fill-rule="evenodd">
        <g id="ICON----R0W,-Web" transform="translate(-872.000000, -709.000000)">
            <g id="Group-11" transform="translate(872.000000, 709.000000)">
                <rect id="Mask-2" x="0" y="0" width="28" height="28"></rect>
                <g id="Group_11-2-Clipped">
                    <mask id="mask-2" fill="white">
                        <use xlink:href="#path-1"></use>
                    </mask>
                    <g id="Mask"></g>
                    <g id="Group_11-2" mask="url(#mask-2)">
                        <g transform="translate(0.000000, 1.000000)" id="Group_10" fill-rule="nonzero">
                            <g id="Group_33">
                                <g id="Group_13-2">
                                    <path d="M17.6422014,25.7881481 L2.21261793,25.7881481 C0.952733407,25.7464873 -0.0363533271,24.6968938 1.77084909e-14,23.4401748 L1.77084909e-14,2.5848237 C-0.0371996845,1.3275261 0.952128384,0.277004868 2.21261793,0.235348148 L17.6075586,0.235348148 C18.8859779,0.277826093 19.8896688,1.34264336 19.8533131,2.61787259 L19.8533131,23.4401748 C19.8896778,24.696327 18.9014907,25.7456801 17.6422014,25.7881481 Z M2.94011586,2.00196148 C2.21485868,2.02646439 1.64556737,2.63049124 1.66586483,3.35396148 L1.66586483,22.6680326 C1.64556737,23.3915028 2.21485868,23.9955297 2.94011586,24.0200326 L16.9147034,24.0200326 C17.6399606,23.9955297 18.2092519,23.3915028 18.1889545,22.6680326 L18.1889545,4.82613926 L18.1603366,3.32391704 C18.1640654,2.61234936 17.6005818,2.0264136 16.8875917,2.00045926 L2.94011586,2.00045926 L2.94011586,2.00196148 Z" id="Shape" fill="#0230F5"></path>
                                    <path d="M15.7082317,6.03392593 L5.31389793,6.03392593 C4.96838083,6.04232995 4.68129005,5.77011359 4.67225379,5.42552593 C4.68129005,5.08093827 4.96838083,4.8087219 5.31389793,4.81712593 L15.7067255,4.81712593 C16.0522426,4.8087219 16.3393334,5.08093827 16.3483697,5.42552593 C16.3393299,5.76951361 16.0531669,6.04148865 15.7082317,6.03392593 Z" id="Path" fill="#000000"></path>
                                    <path d="M15.7082317,9.77445926 L5.31389793,9.77445926 C4.96838083,9.78286328 4.68129005,9.51064692 4.67225379,9.16605926 C4.68129005,8.8214716 4.96838083,8.54925524 5.31389793,8.55765926 L15.7067255,8.55765926 C16.0522426,8.54925524 16.3393334,8.8214716 16.3483697,9.16605926 C16.3393299,9.51004694 16.0531669,9.78202199 15.7082317,9.77445926 Z" id="Path-2" fill="#000000"></path>
                                    <path d="M15.7082317,13.5149926 L5.31389793,13.5149926 C4.96838083,13.5233966 4.68129005,13.2511803 4.67225379,12.9065926 C4.68129005,12.5620049 4.96838083,12.2897886 5.31389793,12.2981926 L15.7067255,12.2981926 C16.0522426,12.2897886 16.3393334,12.5620049 16.3483697,12.9065926 C16.3393299,13.2505803 16.0531669,13.5225553 15.7082317,13.5149926 Z" id="Path-3" fill="#000000"></path>
                                    <path d="M15.7082317,17.2555259 L5.31389793,17.2555259 C4.96838083,17.26393 4.68129005,16.9917136 4.67225379,16.6471259 C4.68129005,16.3025383 4.96838083,16.0303219 5.31389793,16.0387259 L15.7067255,16.0387259 C16.0522426,16.0303219 16.3393334,16.3025383 16.3483697,16.6471259 C16.3393299,16.9911136 16.0531669,17.2630887 15.7082317,17.2555259 Z" id="Path-4" fill="#000000"></path>
                                    <path d="M15.7082317,20.9960593 L5.31389793,20.9960593 C4.96838083,21.0044633 4.68129005,20.7322469 4.67225379,20.3876593 C4.68129005,20.0430716 4.96838083,19.7708552 5.31389793,19.7792593 L15.7067255,19.7792593 C16.0522426,19.7708552 16.3393334,20.0430716 16.3483697,20.3876593 C16.3393299,20.7316469 16.0531669,21.003622 15.7082317,20.9960593 Z" id="Path-5" fill="#000000"></path>
                                </g>
                                <g id="Group_27" transform="translate(14.459586, 10.615704)">
                                    <ellipse id="Oval" fill="#FFFFFF" cx="6.50681379" cy="6.4896" rx="5.42234483" ry="5.408"></ellipse>
                                    <g id="Group">
                                        <path d="M6.50681379,12.9116 C2.95185738,12.9107703 0.0705146331,10.0361535 0.07079192,6.4906016 C0.0710692069,2.94504974 2.95286155,0.0708811931 6.50781805,0.0706046398 C10.0627746,0.0703280864 12.9450164,2.94404823 12.9458483,6.4896 C12.9416983,10.0346568 10.0612739,12.907461 6.50681379,12.9116 Z M6.50681379,1.23032 C3.59532095,1.23032 1.23508966,3.58430729 1.23508966,6.48809778 C1.23508966,9.39188826 3.59532095,11.7458756 6.50681379,11.7458756 C9.41830664,11.7458756 11.7785379,9.39188826 11.7785379,6.48809778 C11.7785379,5.09364841 11.2231257,3.75631206 10.2344857,2.77028746 C9.24584563,1.78426285 7.90496196,1.23032 6.50681379,1.23032 Z" id="Shape-2" fill="#000000"></path>
                                        <path d="M8.60797241,4.3264 L5.86968828,7.42248 L4.37854345,5.93978667 C4.2693256,5.82960441 4.12043816,5.76759821 3.96508966,5.76759821 C3.80974115,5.76759821 3.66085371,5.82960441 3.55163586,5.93978667 C3.44118277,6.04596555 3.37878397,6.19238543 3.37878397,6.34538667 C3.37878397,6.4983879 3.44118277,6.64480778 3.55163586,6.75098667 L5.47656828,8.66632 C5.58391549,8.7756209 5.72987496,8.83870268 5.88324414,8.84208 L5.8968,8.84208 C6.05650088,8.8370587 6.20766162,8.76897316 6.31703172,8.6528 L9.44843586,5.09704 C9.55164343,4.98373965 9.60417683,4.83342841 9.59394845,4.68069197 C9.58372007,4.52795554 9.51161075,4.3859472 9.39421241,4.28734222 C9.28616714,4.18558464 9.14115922,4.1322189 8.9927384,4.13959195 C8.84431758,4.146965 8.70534441,4.21443798 8.60797241,4.3264 L8.60797241,4.3264 Z" id="Path-6" fill="#0230F5"></path>
                                    </g>
                                </g>
                            </g>
                        </g>
                    </g>
                </g>
            </g>
        </g>
    </g>
</svg>