<svg xmlns="http://www.w3.org/2000/svg" width="24" height="24" fill="none" fill-rule="evenodd" xmlns:v="https://vecta.io/nano"><path d="M17.5 12.13c-2.157 0-3.912 1.784-3.912 3.976s1.755 3.976 3.912 3.976 3.912-1.784 3.912-3.976-1.755-3.976-3.912-3.976zm2.716 2.8l-3.1 3.142c-.057.058-.13.086-.205.086s-.148-.03-.205-.086l-1.74-1.767c-.113-.115-.113-.302 0-.416s.297-.115.4 0l1.534 1.56 2.886-2.934c.113-.115.297-.115.4 0s.113.302 0 .417z" stroke="#0b0b0b" stroke-width=".2"/><g fill="#113dcd" fill-rule="nonzero"><g stroke="#113dcd"><path d="M14.434 20.084H5.802c-.113 0-.205-.093-.205-.208V3.797c0-.115.092-.208.205-.208h8.118v2.37c0 .163.13.295.3.295h2.817v4.614c0 .163.13.295.3.295s.3-.132.3-.295l-.003-4.95-.005-.028c-.002-.01-.005-.018-.008-.027l-.01-.027-.013-.024-.016-.025c-.005-.007-.01-.014-.016-.02-.015-.018-.02-.02-.023-.024l-3.114-2.67-.038-.026-.024-.013-.026-.01c-.01-.004-.02-.006-.03-.01s-.016-.004-.025-.005a.31.31 0 0 0-.033-.003L5.802 3c-.433 0-.784.358-.784.797v16.078c0 .44.352.797.784.797h8.633c.16 0 .3-.132.3-.295s-.13-.295-.3-.295z" stroke-width=".4"/><path d="M15.223 7.732H7.4c-.16 0-.3.132-.3.295s.13.295.3.295h7.824c.16 0 .3-.132.3-.295s-.13-.295-.3-.295zm.3 2.573c0-.163-.13-.295-.3-.295H7.4c-.16 0-.3.132-.3.295s.13.295.3.295h7.824c.16 0 .3-.132.3-.295zm-1.7 2.278c0-.163-.13-.295-.3-.295H7.4c-.16 0-.3.132-.3.295s.13.295.3.295h6.113c.16 0 .3-.132.3-.295zm-1.43 1.983H7.4c-.16 0-.3.132-.3.295s.13.295.3.295h4.974c.16 0 .3-.132.3-.295s-.13-.295-.3-.295zm-.048 2.278H7.4c-.16 0-.3.132-.3.295s.13.295.3.295h4.926c.16 0 .3-.132.3-.295s-.13-.295-.3-.295zM7.4 6.044h5.386c.16 0 .3-.132.3-.295s-.13-.295-.3-.295H7.4c-.16 0-.3.132-.3.295s.13.295.3.295zm10.1 5.498c-2.477 0-4.5 2.048-4.5 4.565s2.015 4.565 4.5 4.565 4.5-2.048 4.5-4.565-2.015-4.565-4.5-4.565zm0 8.542c-2.157 0-3.912-1.784-3.912-3.976s1.755-3.976 3.912-3.976 3.912 1.784 3.912 3.976-1.755 3.976-3.912 3.976z" stroke-width=".2"/></g><path d="M19.798 14.524l-2.886 2.934-1.534-1.56c-.113-.115-.297-.115-.4 0s-.113.302 0 .416l1.74 1.767c.057.058.13.086.205.086s.148-.03.205-.086l3.1-3.142c.113-.115.113-.302 0-.416s-.297-.115-.4 0z"/></g></svg>