<?xml version="1.0" encoding="UTF-8"?>
<svg width="33px" height="32px" viewBox="0 0 33 32" version="1.1" xmlns="http://www.w3.org/2000/svg" xmlns:xlink="http://www.w3.org/1999/xlink">
    <title>Group 60</title>
    <g id="Page-1" stroke="none" stroke-width="1" fill="none" fill-rule="evenodd">
        <g id="Translation-(With-AI-component)" transform="translate(-514.000000, -7402.000000)">
            <g id="Group-99" transform="translate(-101.000000, 2180.000000)">
                <g id="Group-76" transform="translate(0.000000, 1908.000000)">
                    <g id="Group-60" transform="translate(615.000000, 3314.000000)">
                        <circle id="Oval" fill-opacity="0.0903081294" fill="#DC293B" cx="16" cy="16" r="16"></circle>
                        <path d="M18,26.5 C18.3385417,26.5 18.6315104,26.3763021 18.8789062,26.1289062 C19.1263021,25.8815104 19.25,25.5885417 19.25,25.25 L19.25,25.25 L19.25,24.8984375 C19.5364583,24.8984375 20.4804688,25.1653646 22.0820312,25.6992188 C23.6835938,26.2330729 25.0442708,26.5 26.1640625,26.5 L26.1640625,26.5 L27.765625,26.5 C28.9114583,26.5 29.796875,26.1809896 30.421875,25.5429688 C31.046875,24.9049479 31.3463542,24.0520833 31.3203125,22.984375 C31.9713542,22.2291667 32.2057292,21.3567708 32.0234375,20.3671875 C32.5182292,19.5859375 32.6484375,18.6875 32.4140625,17.671875 C32.8046875,17.1510417 33,16.4869792 33,15.6796875 C33,14.9505208 32.7200521,14.2994792 32.1601562,13.7265625 C31.6002604,13.1536458 30.9296875,12.8671875 30.1484375,12.8671875 L30.1484375,12.8671875 L27.4140625,12.8671875 C27.9609375,11.7994792 28.234375,10.8880208 28.234375,10.1328125 C28.234375,7.7109375 27.1536458,6.5 24.9921875,6.5 C24.1067708,6.5 23.4947917,7.37239583 23.15625,9.1171875 C22.9739583,10.0026042 22.765625,10.5755208 22.53125,10.8359375 C22.3229167,11.0442708 21.8216146,11.65625 21.0273438,12.671875 C20.2330729,13.6875 19.6666667,14.2864583 19.328125,14.46875 C19.25,14.4947917 19.1458333,14.5208333 19.015625,14.546875 C18.78125,14.1822917 18.4427083,14 18,14 L18,14 L14.25,14 C13.9114583,14 13.6184896,14.1236979 13.3710938,14.3710938 C13.1236979,14.6184896 13,14.9114583 13,15.25 L13,15.25 L13,25.25 C13,25.5885417 13.1236979,25.8815104 13.3710938,26.1289062 C13.6184896,26.3763021 13.9114583,26.5 14.25,26.5 L14.25,26.5 L18,26.5 Z M27.765625,25.25 L26.1640625,25.25 C25.1223958,25.25 23.8268229,24.9830729 22.2773438,24.4492188 C20.7278646,23.9153646 19.71875,23.6484375 19.25,23.6484375 L19.25,23.6484375 L19.25,15.71875 C19.6927083,15.71875 20.1484375,15.4973958 20.6171875,15.0546875 C21.0859375,14.6119792 21.6002604,14.0130208 22.1601562,13.2578125 C22.7200521,12.5026042 23.1302083,11.9947917 23.390625,11.734375 C23.8333333,11.2916667 24.1523438,10.5755208 24.3476562,9.5859375 C24.5429688,8.59635417 24.7578125,7.984375 24.9921875,7.75 C25.4609375,7.75 25.8385417,7.82161458 26.125,7.96484375 C26.4114583,8.10807292 26.6132812,8.32291667 26.7304688,8.609375 C26.8476562,8.89583333 26.9192708,9.13671875 26.9453125,9.33203125 C26.9713542,9.52734375 26.984375,9.79427083 26.984375,10.1328125 C26.984375,10.6796875 26.7825521,11.3502604 26.3789062,12.1445312 L26.2518326,12.4042245 C25.9329025,13.0832369 25.7734375,13.6542245 25.7734375,14.1171875 L25.7734375,14.1171875 L30.1484375,14.1171875 C30.4348958,14.1171875 30.7018229,14.1953125 30.9492188,14.3515625 C31.1966146,14.5078125 31.3919271,14.703125 31.5351562,14.9375 C31.6783854,15.171875 31.75,15.4322917 31.75,15.71875 C31.75,16.6041667 31.4375,17.125 30.8125,17.28125 C31.1510417,17.515625 31.3007812,17.984375 31.2617188,18.6875 C31.2226562,19.390625 30.9947917,19.8463542 30.578125,20.0546875 C30.8385417,20.5234375 30.8971354,20.9986979 30.7539062,21.4804688 C30.6106771,21.9622396 30.3567708,22.2942708 29.9921875,22.4765625 C30.2786458,24.2994792 29.5364583,25.2239583 27.765625,25.25 L27.765625,25.25 Z M18,25.25 L14.25,25.25 L14.25,15.25 L18,15.25 L18,25.25 Z M16.125,24.3125 C16.3854167,24.3125 16.6067708,24.2213542 16.7890625,24.0390625 C16.9713542,23.8567708 17.0625,23.6354167 17.0625,23.375 C17.0625,23.1145833 16.9713542,22.8932292 16.7890625,22.7109375 C16.6067708,22.5286458 16.3854167,22.4375 16.125,22.4375 C15.8645833,22.4375 15.6432292,22.5286458 15.4609375,22.7109375 C15.2786458,22.8932292 15.1875,23.1145833 15.1875,23.375 C15.1875,23.6354167 15.2786458,23.8567708 15.4609375,24.0390625 C15.6432292,24.2213542 15.8645833,24.3125 16.125,24.3125 Z" id="" fill="#000000" fill-rule="nonzero"></path>
                    </g>
                </g>
            </g>
        </g>
    </g>
</svg>