<svg xmlns="http://www.w3.org/2000/svg" width="16.667" height="16" viewBox="0 0 16.667 16">
  <g id="thumbs-up-icon" fill="none" stroke-miterlimit="10">
    <path d="M11.334,16a7.709,7.709,0,0,1-1.5-.162q-.813-.161-1.265-.3t-1.255-.411a7.65,7.65,0,0,0-1.646-.459.691.691,0,0,1-.469-.2A.626.626,0,0,1,5,14V7.323a.629.629,0,0,1,.187-.454.681.681,0,0,1,.448-.213q.25-.022.791-.615T7.479,4.781A15.445,15.445,0,0,1,8.531,3.532a1.587,1.587,0,0,0,.323-.5,3.407,3.407,0,0,0,.183-.5c.031-.129.077-.338.14-.631.049-.27.092-.482.13-.635a3.148,3.148,0,0,1,.2-.541A1.789,1.789,0,0,1,9.865.2a.638.638,0,0,1,.468-.2,3.107,3.107,0,0,1,.859.11,2.306,2.306,0,0,1,.626.27A1.479,1.479,0,0,1,12.235.8a2.45,2.45,0,0,1,.25.469,2.613,2.613,0,0,1,.124.521,4.432,4.432,0,0,1,.052.469c0,.1.005.239.005.406a3.275,3.275,0,0,1-.1.792,4.117,4.117,0,0,1-.2.625q-.1.229-.286.583c-.021.041-.056.1-.1.188a1.741,1.741,0,0,0-.114.229,2.608,2.608,0,0,0-.084.25h2.885a2.029,2.029,0,0,1,2,2,2.285,2.285,0,0,1-.573,1.553,2.505,2.505,0,0,1,.157.791A2.163,2.163,0,0,1,15.8,11.1a2.142,2.142,0,0,1,0,1.219,2.027,2.027,0,0,1-.562.979,2.506,2.506,0,0,1-.51,1.885A2.591,2.591,0,0,1,12.677,16ZM.667,14.666a.64.64,0,0,1-.469-.2A.638.638,0,0,1,0,14V7.333a.641.641,0,0,1,.2-.469.643.643,0,0,1,.469-.2h3a.676.676,0,0,1,.667.667V14a.676.676,0,0,1-.667.666Z" stroke="none"/>
    <path d="M 12.66905879974365 15.00020027160645 C 13.59290599822998 14.9840726852417 13.87273025512695 14.6522159576416 13.96378040313721 14.54421043395996 C 14.1923303604126 14.27219009399414 14.28363037109375 13.89190006256104 14.24287033081055 13.38160991668701 L 14.20479011535645 12.90476036071777 L 14.55216026306152 12.57586002349854 C 14.68592071533203 12.44921016693115 14.77851009368896 12.28305053710938 14.83524036407471 12.06787014007568 L 14.8369607925415 12.06134033203125 L 14.83877086639404 12.05484008789062 C 14.9053201675415 11.81556034088135 14.90744018554688 11.59951972961426 14.84523010253906 11.39439010620117 L 14.69777011871338 10.90810012817383 L 15.00363063812256 10.50230026245117 C 15.18415069580078 10.2628002166748 15.2628002166748 10.01292991638184 15.25117015838623 9.715950012207031 L 15.25040054321289 9.696379661560059 L 15.25040054321289 9.676799774169922 C 15.25040054321289 9.614399909973145 15.23705005645752 9.470700263977051 15.14766025543213 9.209449768066406 L 14.96077060699463 8.663280487060547 L 15.34026050567627 8.228290557861328 C 15.56325054168701 7.972710132598877 15.66710090637207 7.68828010559082 15.66710090637207 7.333199977874756 C 15.66710090637207 7.057760238647461 15.5744800567627 6.842520236968994 15.36599063873291 6.634510040283203 C 15.15775012969971 6.426259994506836 14.94199085235596 6.333400249481201 14.66640090942383 6.333400249481201 L 11.7810001373291 6.333400249481201 L 10.45358085632324 6.333400249481201 L 10.81981086730957 5.05750036239624 C 10.85787010192871 4.924930095672607 10.89622020721436 4.811170101165771 10.93706035614014 4.70973014831543 C 10.98424053192139 4.592540264129639 11.04464054107666 4.470970153808594 11.11421012878418 4.352459907531738 C 11.17138004302979 4.254000186920166 11.18734073638916 4.222549915313721 11.1889705657959 4.219290256500244 L 11.19439029693604 4.208460330963135 L 11.2000207901001 4.197840213775635 C 11.3117504119873 3.987240076065063 11.39611053466797 3.815950155258179 11.4527006149292 3.684180021286011 C 11.47729015350342 3.627700090408325 11.52876091003418 3.49189019203186 11.59707069396973 3.217720031738281 C 11.64321041107178 3.031910181045532 11.66660022735596 2.846520185470581 11.66660022735596 2.666700124740601 C 11.66660022735596 2.511920213699341 11.66499042510986 2.387050151824951 11.66179084777832 2.295260190963745 C 11.66096019744873 2.271090030670166 11.6555004119873 2.174150228500366 11.6195707321167 1.93690013885498 C 11.59418106079102 1.763689041137695 11.56425952911377 1.665311813354492 11.54801750183105 1.620743155479431 C 11.53279781341553 1.581057548522949 11.49372482299805 1.495187401771545 11.40122032165527 1.354610085487366 C 11.36058330535889 1.293329834938049 11.31820964813232 1.248918056488037 11.26808547973633 1.21510374546051 C 11.21255016326904 1.179247260093689 11.10686016082764 1.125661253929138 10.91542053222656 1.070680141448975 C 10.7925386428833 1.035256147384644 10.65066432952881 1.013022422790527 10.49213600158691 1.004262328147888 C 10.4659309387207 1.044073581695557 10.44057846069336 1.090227961540222 10.41618061065674 1.142630100250244 C 10.32712364196777 1.333124279975891 10.29078674316406 1.449533104896545 10.27680683135986 1.503516554832458 C 10.24485778808594 1.633481502532959 10.2060604095459 1.824894666671753 10.16148090362549 2.072550058364868 L 10.15847015380859 2.089310169219971 L 10.15488052368164 2.105960130691528 C 10.09206008911133 2.397650241851807 10.04324054718018 2.616900205612183 10.00978088378906 2.757610082626343 L 10.00883007049561 2.761620044708252 L 10.00784015655518 2.765620231628418 C 9.962460517883301 2.949740171432495 9.885280609130859 3.166560173034668 9.772520065307617 3.427030086517334 C 9.633100509643555 3.750500202178955 9.453330039978027 4.023590087890625 9.238210678100586 4.238709926605225 C 9.101483345031738 4.375437259674072 8.822629928588867 4.686522483825684 8.270167350769043 5.392426490783691 C 7.916680812835693 5.854162216186523 7.545222759246826 6.299191474914551 7.166000366210938 6.715290069580078 C 6.712836742401123 7.212528228759766 6.355790138244629 7.48619270324707 6.000400543212891 7.597609043121338 L 6.000400543212891 13.69962882995605 C 6.2947998046875 13.75050163269043 6.768449306488037 13.87581920623779 7.63688325881958 14.17945861816406 C 8.195808410644531 14.36762237548828 8.585700988769531 14.49536991119385 8.864490509033203 14.58166027069092 C 9.133130073547363 14.66506004333496 9.524370193481445 14.7577600479126 10.02889060974121 14.85749053955078 C 10.50393009185791 14.95219039916992 10.94293022155762 15.00020027160645 11.33370018005371 15.00020027160645 L 12.66905879974365 15.00020027160645 M 3.333500385284424 13.66639995574951 L 3.333500385284424 7.666300296783447 L 1.000000476837158 7.666300296783447 L 1.000000476837158 13.66639995574951 L 3.333500385284424 13.66639995574951 M 12.67740058898926 16.00020027160645 L 11.33370018005371 16.00020027160645 C 10.87470054626465 16.00020027160645 10.37520027160645 15.94620037078857 9.833400726318359 15.83820056915283 C 9.291600227355957 15.73110008239746 8.869500160217285 15.63030052185059 8.568000793457031 15.53670024871826 C 8.265600204467773 15.44309997558594 7.847100257873535 15.30539989471436 7.312500476837158 15.12540054321289 C 6.458400249481201 14.82660007476807 5.909400463104248 14.67360019683838 5.66640043258667 14.66639995574951 C 5.486400604248047 14.66009998321533 5.329800605773926 14.59170055389404 5.197500228881836 14.46390056610107 C 5.066100597381592 14.33520030975342 5.000400543212891 14.18039989471436 5.000400543212891 14.00040054321289 L 5.000400543212891 7.323300361633301 C 5.000400543212891 7.149600028991699 5.062500476837158 6.998400211334229 5.187600612640381 6.869699954986572 C 5.312700271606445 6.741000175476074 5.462100505828857 6.669899940490723 5.635800361633301 6.656400203704834 C 5.802300453186035 6.642000198364258 6.066000461578369 6.437700271606445 6.426900386810303 6.04170036315918 C 6.787800312042236 5.645699977874756 7.138800621032715 5.225399971008301 7.479000568389893 4.780800342559814 C 7.951500415802002 4.176899909973145 8.30250072479248 3.760200023651123 8.531100273132324 3.5316002368927 C 8.656200408935547 3.406500101089478 8.764200210571289 3.240000247955322 8.85420036315918 3.031200170516968 C 8.94420051574707 2.823300123214722 9.005400657653809 2.654100179672241 9.036900520324707 2.526300191879272 C 9.067500114440918 2.397600173950195 9.114300727844238 2.187900066375732 9.177300453186035 1.895400166511536 C 9.225900650024414 1.625400185585022 9.269100189208984 1.413000106811523 9.306900024414062 1.260000109672546 C 9.345600128173828 1.107900142669678 9.413100242614746 0.9270001649856567 9.510300636291504 0.7191001176834106 C 9.607500076293945 0.5103001594543457 9.725400924682617 0.336600124835968 9.864900588989258 0.1980001330375671 C 9.99630069732666 0.06570013612508774 10.15290069580078 1.358032193365943e-07 10.33290004730225 1.358032193365943e-07 C 10.65240001678467 1.358032193365943e-07 10.93950080871582 0.03690013661980629 11.1923999786377 0.1098001375794411 C 11.44620037078857 0.1827001422643661 11.65410041809082 0.2727001309394836 11.81790065765381 0.3798001408576965 C 11.98080062866211 0.487800121307373 12.11940002441406 0.6282001137733459 12.23460006713867 0.8019001483917236 C 12.34890079498291 0.9756001234054565 12.4326000213623 1.132200121879578 12.48480033874512 1.270800113677979 C 12.53610038757324 1.409400105476379 12.57840061187744 1.583100080490112 12.60900020599365 1.791900157928467 C 12.64050006866455 1.999800086021423 12.65760040283203 2.156400203704834 12.66120052337646 2.260800123214722 C 12.6648006439209 2.36430025100708 12.66660022735596 2.500200033187866 12.66660022735596 2.666700124740601 C 12.66660022735596 2.930400133132935 12.63330078125 3.194100141525269 12.56760025024414 3.458700180053711 C 12.5019006729126 3.722400188446045 12.43620014190674 3.930300235748291 12.36960029602051 4.083300113677979 C 12.30390071868896 4.236299991607666 12.20850086212158 4.430700302124023 12.08340072631836 4.666500091552734 C 12.06270027160645 4.707900047302246 12.02760028839111 4.770900249481201 11.97900009155273 4.854599952697754 C 11.93040084838867 4.937400341033936 11.89260005950928 5.013900279998779 11.86470031738281 5.083199977874756 C 11.83680057525635 5.152500152587891 11.80890083312988 5.236200332641602 11.7810001373291 5.333400249481201 L 14.66640090942383 5.333400249481201 C 15.20820045471191 5.333400249481201 15.67710018157959 5.531400203704834 16.07310104370117 5.9274001121521 C 16.46910095214844 6.322500228881836 16.66710090637207 6.791399955749512 16.66710090637207 7.333199977874756 C 16.66710090637207 7.930799961090088 16.47540092468262 8.448300361633301 16.09379959106445 8.885700225830078 C 16.19820022583008 9.190799713134766 16.25040054321289 9.454500198364258 16.25040054321289 9.676799774169922 C 16.2711009979248 10.20510005950928 16.12170028686523 10.68029975891113 15.80220031738281 11.10420036315918 C 15.92010021209717 11.49300003051758 15.92010021209717 11.89890003204346 15.80220031738281 12.32279968261719 C 15.6978006362915 12.71880054473877 15.51060009002686 13.04549980163574 15.23970031738281 13.30200004577637 C 15.30180072784424 14.07960033416748 15.13170051574707 14.70870018005371 14.72940063476562 15.1875 C 14.28480052947998 15.71490001678467 13.60080051422119 15.98579978942871 12.67740058898926 16.00020027160645 Z M 3.666600465774536 14.66639995574951 L 0.6669004559516907 14.66639995574951 C 0.4860004484653473 14.66639995574951 0.3303004503250122 14.60070037841797 0.1980004459619522 14.46840000152588 C 0.06570045650005341 14.33699989318848 4.531860327006143e-07 14.18039989471436 4.531860327006143e-07 14.00040054321289 L 4.531860327006143e-07 7.333199977874756 C 4.531860327006143e-07 7.153200149536133 0.06570045650005341 6.996600151062012 0.1980004459619522 6.86430025100708 C 0.3303004503250122 6.732900142669678 0.4860004484653473 6.666300296783447 0.6669004559516907 6.666300296783447 L 3.666600465774536 6.666300296783447 C 3.847500562667847 6.666300296783447 4.003200531005859 6.732900142669678 4.135500431060791 6.86430025100708 C 4.267800331115723 6.996600151062012 4.333500385284424 7.153200149536133 4.333500385284424 7.333199977874756 L 4.333500385284424 14.00040054321289 C 4.333500385284424 14.18039989471436 4.267800331115723 14.33699989318848 4.135500431060791 14.46840000152588 C 4.003200531005859 14.60070037841797 3.847500562667847 14.66639995574951 3.666600465774536 14.66639995574951 Z" stroke="none" fill="#ffffff"/>
  </g>
</svg>