<svg width="38" height="32" viewBox="0 0 38 32" fill="none" xmlns="http://www.w3.org/2000/svg">
<g id="Group 61">
<circle id="Oval Copy 18" opacity="0.5" cx="16" cy="16" r="16" fill="#D6CFF0"/>
<path id="&#239;&#128;&#182;" d="M26 3.375C28.0625 3.375 30.0312 3.9375 31.8125 4.96875C33.5938 6 35 7.40625 36.0312 9.1875C37.0625 10.9688 37.625 12.9375 37.625 15C37.625 17.1094 37.0625 19.0312 36.0312 20.8125C35 22.5938 33.5938 24.0469 31.8125 25.0781C30.0312 26.1094 28.0625 26.625 26 26.625C23.8906 26.625 21.9688 26.1094 20.1875 25.0781C18.4062 24.0469 16.9531 22.5938 15.9219 20.8125C14.8906 19.0312 14.375 17.1094 14.375 15C14.375 12.9375 14.8906 10.9688 15.9219 9.1875C16.9531 7.40625 18.4062 6 20.1875 4.96875C21.9688 3.9375 23.8906 3.375 26 3.375ZM26 24.375C27.6875 24.375 29.2344 23.9531 30.6875 23.1094C32.0938 22.2656 33.2656 21.1406 34.1094 19.6875C34.9531 18.2812 35.375 16.6875 35.375 15C35.375 13.3125 34.9531 11.7656 34.1094 10.3125C33.2656 8.90625 32.0938 7.73438 30.6875 6.89062C29.2344 6.04688 27.6875 5.625 26 5.625C24.3125 5.625 22.7188 6.04688 21.3125 6.89062C19.8594 7.73438 18.7344 8.90625 17.8906 10.3125C17.0469 11.7656 16.625 13.3125 16.625 15C16.625 16.6875 17.0469 18.2812 17.8906 19.6875C18.7344 21.1406 19.8594 22.2656 21.3125 23.1094C22.7188 23.9531 24.3125 24.375 26 24.375ZM28.9062 19.5C29 19.5938 29.1406 19.6406 29.3281 19.5938C29.4688 19.5938 29.6094 19.5 29.7031 19.3594L30.5469 18.1406C30.6406 18.0469 30.6406 17.9062 30.6406 17.7188C30.6406 17.5781 30.5469 17.4375 30.4531 17.3438L27.3125 15.0938V8.4375C27.3125 8.29688 27.2188 8.15625 27.125 8.0625C27.0312 7.96875 26.8906 7.875 26.75 7.875H25.25C25.0625 7.875 24.9219 7.96875 24.8281 8.0625C24.7344 8.15625 24.6875 8.29688 24.6875 8.4375V16.125C24.6875 16.3125 24.7344 16.5 24.9219 16.5938L28.9062 19.5Z" fill="black"/>
</g>
</svg>
