<svg xmlns="http://www.w3.org/2000/svg" width="195" height="191" fill-rule="evenodd" xmlns:v="https://vecta.io/nano"><ellipse fill="#e4c764" cx="96.828" cy="95.717" rx="87.79" ry="87.956"/><path d="M13.904 74.214l1.33 44.8L1.66 95.465l12.245-21.25zM29.2 44.794L17.47 65.152l-.382-12.864 12.115-7.496zM81.175 12.63h28.453l51.125 27.574L174.98 64.9l1.73 58.138-14.227 24.696-49.395 30.566H84.62L33.5 150.723l-14.228-24.7L17.55 67.9l14.23-24.693L81.175 12.63zm-31.78 0h24.492L35.82 36.186 49.394 12.63zm45.04-8.202L106.97 11.2h-23.47l10.93-6.762zm50.428 8.202l12.252 21.252L117.7 12.63h27.15zm29.616 34.974l.413 14.262-11.736-20.363 11.322 6.1zm2.698 91.037l-12.123 7.498 11.736-20.364.387 12.866zM144.86 178.3h-24.5l38.073-23.558L144.86 178.3zm-45.03 8.203l-12.55-6.766h23.484l-10.935 6.766zM49.394 178.3l-12.246-21.25 39.395 21.25h-27.15zm-29.607-34.976l-.423-14.26 11.734 20.36-11.3-6.1zm172.817-47.86l-12.252 21.252-1.33-44.807 13.582 23.555zm-177.278 26.6l.7 23.6 18.717 10.097 13.823 23.986H79.21l20.75 11.194 18.087-11.194h27.64l15.325-26.6 20.05-12.406-.633-21.3 13.827-24-15.325-26.6-.697-23.597-18.72-10.097-13.827-24H115.05L94.304 0l-18.1 11.2h-27.65L33.242 37.8 13.194 50.197l.63 21.3L0 95.465l15.325 26.6z" fill="#00084d"/><path d="M63.368 62.998v1.438h-17.93v-1.438h17.93zm86.07-.15v1.438h-17.93V62.85h17.93zM64.383 37.972l12.162 8.856-.336.472-12.363-8.57.537-.758zm62.094-3l.607.702-11.5 9.715-.374-.437zM72.8 29.426l9 12.068-.457.352L72.068 30l.733-.564zm44.483-2.146l.788.492-8.108 12.692-.5-.307zm-33.896-3.517l5 14.2-.542.198-5.32-14.087.87-.32zm22.806-1.1l.9.233-3.938 14.536-.555-.144zm-11-1.133l.542 15.053-.58.027-.9-15.037.93-.044zm1.145 132.216l.58.027-.542 15.052-.93-.04zm8.004-.823l3.938 14.537-.9.233-3.602-14.625.555-.145zm-15.312-.735l.542.197-5 14.208-.87-.318zm22.128-2.293l8.108 12.7-.788.492-7.8-12.875.5-.307zm-28.622-1.384l.457.352-8.997 12.067-.733-.56zm34.25-3.554l11.5 9.717-.607.7-11.258-9.98.374-.437zm-39.384-1.9l.336.472-12.162 8.855-.537-.757zm73.228-10.116v1.44H43.034v-1.44H150.62z" fill="#93701b"/><path d="M67.7 100.972v-12.58h4.147v-3.548h-11.98v3.548h4.147v12.58H67.7zm10.246 0V84.844H74.26v16.128h3.686zm7.25 0v-9.377l4.17 6.843h.415l4.17-6.843v9.377h3.686V84.844H93.95l-4.378 7.165-4.378-7.165H81.5v16.128h3.686zm26.144 0v-3.548h-6.45v-2.857h5.76v-3.502h-5.76v-2.673h6.336v-3.548h-10.022v16.128h10.138zm20.332.6l2.88-1.66-2.028-2.258c.7-1.06 1.175-2.258 1.475-3.387l-3.087-1.75c-.184.945-.438 1.797-.76 2.534l-2.972-3.295c-.714-.783-1.267-1.382-1.267-2.28 0-.783.622-1.36 1.544-1.36 1.037 0 1.682.668 2.097 1.75l3.156-1.82c-1-2.373-2.972-3.525-5.3-3.525-3.087 0-5.184 2.004-5.184 4.723 0 1.037.253 1.843.668 2.557-1.66 1.06-2.58 2.788-2.58 4.63 0 3.04 2.442 4.86 5.76 4.86 1.66 0 3.04-.484 4.17-1.267l1.428 1.544zm-5.3-3.64c-1.636 0-2.327-.806-2.327-1.9a2.27 2.27 0 0 1 .852-1.797l.138.138 2.95 3.18c-.484.253-1.014.37-1.613.37zm-59.826 26.08v-3.548h-6.45v-2.857h5.76v-3.502h-5.76v-2.673h6.336v-3.548H56.4v16.128h10.138zm6.56 0v-5.92h6v-3.548h-6v-3.1h6.106v-3.548H69.42v16.128h3.686zm12.78 0v-5.92h6v-3.548h-6v-3.1h6.106v-3.548H82.2v16.128h3.686zm16.8.323c4.63 0 8.387-3.64 8.387-8.387s-3.756-8.387-8.387-8.387-8.387 3.64-8.387 8.387 3.756 8.387 8.387 8.387zm0-3.594c-2.627 0-4.7-1.912-4.7-4.792s2.074-4.792 4.7-4.792 4.7 1.912 4.7 4.792-2.074 4.792-4.7 4.792zm14.947 3.272v-5.3h1.75l3.04 5.3h3.963l-3.433-5.92c1.774-.9 2.972-2.696 2.972-4.677 0-3.064-2.465-5.53-5.53-5.53h-6.45v16.128h3.686zm2.765-8.525h-2.765v-4.147h2.765c1.014 0 1.843.9 1.843 2.074s-.83 2.074-1.843 2.074zm14.854 8.525v-12.58h4.147v-3.548h-12v3.548h4.147v12.58h3.686zM74.4 76.08c.552 0 1.18-.153 1.886-.46 1.073.307 2.177.276 3.312-.092a4.36 4.36 0 0 0 1.84-1.104h0l.966-1.012c.307-.276.613-.66.92-1.15l.76-1.242.713-1.334.598-1.265.4-.874c.138-.3.207-.468.207-.53 0-.245-.138-.353-.414-.322-.153 0-.26.077-.322.23l-3.45 6.026c-1.196 1.44-2.407 2.162-3.634 2.162a6.36 6.36 0 0 1-.828-.092c.9-.613 1.656-1.4 2.3-2.392s.966-1.978.966-3-.353-2.315-1.058-3.9l-.828-1.794c-.245-.552-.368-1.257-.368-2.116 0-1.625.52-2.683 1.564-3.174.184-.092.4-.138.644-.138s.537.077.874.23.56.107.667-.138-.046-.468-.46-.667-.836-.3-1.265-.3c-1.625 0-3.05 1.303-4.278 3.9l-4.002 8.05c-.43.03-.836.307-1.22.828s-.575 1.066-.575 1.633.046 1.05.138 1.45c.46 1.717 1.78 2.576 3.956 2.576zm1.38-1.38c-1.288-.613-1.932-1.825-1.932-3.634 0-.92-.322-1.38-.966-1.38l4.324-8.5c-.03.215-.046.613-.046 1.196s.107 1.702.322 3.358l.322 3.9c0 2.33-.675 4.017-2.024 5.06zm-1.702.598c-.9 0-1.457-.414-1.702-1.242-.03-.215-.046-.414-.046-.598 0-.644.276-1.242.828-1.794.092 1.595.705 2.745 1.84 3.45-.245.123-.552.184-.92.184zm20.7.7c1.932 0 4.3-2.852 7.13-8.556.092-.215.138-.4.138-.552 0-.276-.123-.368-.368-.276-.153.03-.3.184-.414.46-1.227 2.515-2.47 4.554-3.726 6.118-.86 1.073-1.58 1.6-2.162 1.6-.46 0-.7-.3-.7-.897s.1-1.38.3-2.346.805-2.423 1.817-4.37 1.794-3.197 2.346-3.75c-.245.06-.62.046-1.127-.046s-.82-.138-.943-.138c-.613 0-1.12.207-1.518.62s-.9 1.188-1.472 2.323c-2.975 5.643-5.382 8.464-7.222 8.464-.767 0-1.15-.598-1.15-1.794s.598-2.8 1.794-4.784c.95-1.656 1.978-3.097 3.082-4.324 1.932-2.085 3.557-3.128 4.876-3.128 1.135 0 1.87.552 2.208 1.656.4.06.66-.06.782-.368s.03-.63-.276-.966a4.88 4.88 0 0 0-3.588-1.472c-.52 0-1.073.077-1.656.23-2.147.52-3.956 1.64-5.428 3.358-2.607 3.097-3.9 6.15-3.9 9.154 0 1.564.46 2.668 1.38 3.312.4.307.843.46 1.334.46 1.78 0 3.895-1.978 6.348-5.934-.307 1.104-.46 2.04-.46 2.806s.138 1.38.414 1.84c.552.86 1.273 1.288 2.162 1.288zm8.096.23c2.116 0 4.14-1.625 6.072-4.876 1.32-2.24 2.76-5.796 4.324-10.672h0l.23-.828c0-.5-.245-.736-.736-.736a1.97 1.97 0 0 0-.69.138c-1.196.43-2.07 1.518-2.622 3.266-.184.583-.276 1.25-.276 2s.215 1.618.644 2.6c-1.012 2.515-2.024 4.416-3.036 5.704s-1.917 1.932-2.714 1.932a1.85 1.85 0 0 1-.828-.207c-.276-.137-.414-.644-.414-1.518s.483-2.584 1.45-5.13 1.45-4.753 1.45-6.624a2.77 2.77 0 0 0-.115-.828c-.077-.245-.268-.376-.575-.4s-1.38.13-3.22.437c.5.215.736.92.736 2.116s-.3 2.392-.874 3.588h0l-.828 1.564c-.092.245-.054.452.115.62s.406.008.713-.483c-.92 2.637-1.38 4.585-1.38 5.842 0 1.656.86 2.484 2.576 2.484zm13.662-.138c2.3 0 4.232-1.073 5.796-3.22.705-.92 1.403-2.124 2.093-3.6s1.035-2.292 1.035-2.415-.06-.2-.184-.23c-.307-.06-.567.153-.782.644-2.27 5.244-4.8 7.866-7.6 7.866-.705 0-1.25-.253-1.633-.76s-.575-1.188-.575-2.047c0-1.288.215-2.453.644-3.496.644 0 1.58-.207 2.806-.62s2.177-.882 2.852-1.403c2.208-1.687 3.312-3.45 3.312-5.3 0-.52-.26-.997-.782-1.426a3.17 3.17 0 0 0-1.794-.552c-.644 0-1.32.153-2.024.46-1.472.613-2.775 1.587-3.9 2.92a16.82 16.82 0 0 0-2.691 4.324c-.66 1.55-1 3.013-1 4.393s.43 2.47 1.288 3.266 1.9 1.196 3.128 1.196zm-.874-8.05c.797-1.595 1.717-3.036 2.76-4.324 1.748-2.116 3.05-3.174 3.9-3.174.5 0 .736.307.736.92 0 1.595-.843 3.113-2.53 4.554-.736.613-1.602 1.104-2.6 1.472s-1.756.552-2.277.552z" fill="#00084d" fill-rule="nonzero"/></svg>