<svg width="41" height="36" viewBox="0 0 41 36" fill="none" xmlns="http://www.w3.org/2000/svg">
<path d="M36.0556 17.7778C36.0556 27.5962 28.0962 35.5556 18.2778 35.5556C8.45938 35.5556 0.5 27.5962 0.5 17.7778C0.5 7.95938 8.45938 0 18.2778 0C28.0962 0 36.0556 7.95938 36.0556 17.7778Z" fill="#FFEDA3"/>
<path fill-rule="evenodd" clip-rule="evenodd" d="M39.0075 7.4074C39.0075 6.99999 39.3433 6.66666 39.7537 6.66666C40.1642 6.66666 40.5 6.99999 40.5 7.4074V28.1481C40.5 28.5555 40.1642 28.8889 39.7537 28.8889C39.3433 28.8889 39.0075 28.5555 39.0075 28.1481V24.7407H30.6493C30.3134 26.1481 29.0448 27.1852 27.5149 27.1852C25.9851 27.1852 24.7164 26.1481 24.3806 24.7407H21.9925V28.1481C21.9925 28.5555 21.6567 28.8889 21.2463 28.8889C20.8358 28.8889 20.5 28.5555 20.5 28.1481V7.4074C20.5 6.99999 20.8358 6.66666 21.2463 6.66666C21.6567 6.66666 21.9925 6.99999 21.9925 7.4074V10.8148H24.0075C24.3433 9.4074 25.6119 8.37036 27.1418 8.37036C28.6716 8.37036 29.9403 9.4074 30.2761 10.8148H39.0075V7.4074ZM28.8582 11.5556C28.8582 10.6297 28.112 9.85192 27.1418 9.85192C26.209 9.85192 25.4254 10.6297 25.4254 11.5556C25.4254 12.4815 26.1717 13.2593 27.1418 13.2593C28.0747 13.2593 28.8582 12.4815 28.8582 11.5556ZM24.0074 12.2963C24.3433 13.7037 25.6119 14.7408 27.1418 14.7408C28.6716 14.7408 29.9403 13.7037 30.2761 12.2963H39.0074V17.037H37.3656C37.0298 15.6296 35.7612 14.5926 34.2313 14.5926C32.7015 14.5926 31.4328 15.6296 31.097 17.037H21.9925V12.2963H24.0074ZM34.2686 19.4815C35.2015 19.4815 35.9851 18.7407 35.9851 17.7778C35.9851 16.8148 35.2015 16.0741 34.2686 16.0741C33.3358 16.0741 32.5522 16.8148 32.5522 17.7778C32.5522 18.7037 33.3358 19.4815 34.2686 19.4815ZM27.5149 25.7037C26.5448 25.7037 25.7985 24.9259 25.7985 24C25.7985 23.0741 26.5821 22.2963 27.5149 22.2963C28.4851 22.2963 29.2313 23.0741 29.2313 24C29.2313 24.9259 28.4851 25.7037 27.5149 25.7037ZM27.5149 20.8148C29.0448 20.8148 30.3134 21.8519 30.6492 23.2593H39.0074V18.5185H37.3656C37.0298 19.926 35.7612 20.963 34.2313 20.963C32.7015 20.963 31.4328 19.926 31.097 18.5185H21.9925V23.2593H24.3806C24.7164 21.8519 25.9851 20.8148 27.5149 20.8148Z" fill="black"/>
</svg>
