<svg xmlns="http://www.w3.org/2000/svg" width="44" height="44" xmlns:v="https://vecta.io/nano"><path d="M25 0a1 1 0 0 1 1 1v17h17a1 1 0 0 1 1 1v24a1 1 0 0 1-1 1H19a1 1 0 0 1-1-1V26H1a1 1 0 0 1-1-1V1a1 1 0 0 1 1-1h24zm17 20H20v22h22V20zM5.03 28c.124.004.242.03.35.074a1 1 0 0 1 .302.194l4.024 4.024a1 1 0 0 1-1.414 1.414h0L6 31.414V35a5.01 5.01 0 0 0 5 5h4a1 1 0 1 1 0 2h0-4a7.01 7.01 0 0 1-7-7h0v-3.586l-2.3 2.294a1 1 0 0 1-1.414-1.414h0L4.32 28.27c.1-.084.192-.15.302-.194a.97.97 0 0 1 .35-.076h0zm26.866-3.448l6 12a1 1 0 0 1-.448 1.342A1.01 1.01 0 0 1 37 38a1 1 0 0 1-.894-.552L34.382 34h-6.766l-1.722 3.448a1 1 0 1 1-1.788-.896l2-3.98c.006-.012.012-.026.02-.038l4-7.982c.34-.678 1.45-.678 1.8 0zM31 27.236L28.618 32h4.766L31 27.236zM24 2H2v22h16v-5a1 1 0 0 1 1-1h5V2zm-5 4a1 1 0 0 1 .117 1.993L19 8h-5.382l-2 4H17a1 1 0 0 1 .117 1.993L17 14h-4.728l3.5 4.374a1 1 0 0 1-1.476 1.345l-.084-.093-3.95-4.928-2.376 4.75A1 1 0 0 1 7 20a.98.98 0 0 1-.446-.106 1 1 0 0 1-.494-1.235l.046-.107L8.382 14H7a1 1 0 0 1-.117-1.993L7 12h2.382l2-4H7a1 1 0 0 1-.117-1.993L7 6h12zm14-4a7.01 7.01 0 0 1 7 7v3.586l2.292-2.292a1 1 0 0 1 1.414 1.414l-4.022 4.022c-.094.086-.196.152-.304.196s-.226.07-.35.074h-.06a.98.98 0 0 1-.352-.076 1 1 0 0 1-.302-.194l-4.024-4.024a1 1 0 0 1 1.414-1.414L38 12.586V9c0-2.756-2.242-5-5-5h-4a1 1 0 1 1 0-2h4z" fill="#96abec"/></svg>