<svg xmlns="http://www.w3.org/2000/svg" width="33" height="23" fill-rule="evenodd" xmlns:v="https://vecta.io/nano"><circle fill="#ffdc68" opacity=".5" cx="11.5" cy="11.5" r="11.5"/><g fill-rule="nonzero"><path d="M27.027 12.66l2.66 5.27a.46.46 0 0 1-.2.6.45.45 0 0 1-.199.047c-.162 0-.318-.1-.396-.242l-.764-1.514h-3l-.763 1.514c-.1.218-.375.304-.595.197s-.308-.373-.198-.6l2.66-5.27c.15-.298.643-.298.794 0zm-.397 1.18l-1.056 2.092h2.113L26.63 13.84zM25.3 3.196a.44.44 0 0 1 .443-.439h1.773c1.7 0 3.103 1.38 3.103 3.074v1.575L31.635 6.4a.45.45 0 0 1 .627 0c.173.17.173.45 0 .62L30.48 8.785c-.042.038-.087.067-.135.086a.45.45 0 0 1-.155.032h-.025a.44.44 0 0 1-.292-.118L28.1 7.018c-.173-.17-.173-.45 0-.62a.45.45 0 0 1 .627 0l1.017 1.007V5.83a2.21 2.21 0 0 0-2.217-2.196h-1.773a.44.44 0 0 1-.443-.439z"/><path d="M19.536 19.442h-1.773a2.21 2.21 0 0 1-2.217-2.196V15.67l1.016 1.006a.45.45 0 0 0 .627 0c.173-.17.173-.45 0-.62L15.417 14.3a.46.46 0 0 0-.145-.097.44.44 0 0 0-.155-.032h-.024a.44.44 0 0 0-.157.033c-.047.02-.094.048-.134.085l-1.784 1.767c-.173.17-.173.45 0 .62a.45.45 0 0 0 .627 0l1.015-1.007v1.575c0 1.695 1.392 3.074 3.103 3.074h1.773a.44.44 0 0 0 .443-.439.44.44 0 0 0-.443-.439zM21.3 4.513H16a.44.44 0 0 0-.443.439.44.44 0 0 0 .443.439h1.943l-.887 1.756H16a.44.44 0 0 0-.443.439.44.44 0 0 0 .443.439h.613l-1 2a.46.46 0 0 0 .2.6.44.44 0 0 0 .198.047c.163 0 .32-.1.397-.242l1.053-2.086 1.75 2.164c.153.2.432.22.623.068s.222-.428.068-.617l-1.556-1.92h2.096a.44.44 0 0 0 .443-.439.44.44 0 0 0-.443-.439h-2.386l.887-1.756H21.3a.44.44 0 0 0 .443-.439.44.44 0 0 0-.443-.439z" fill="#262626"/><path d="M23.97 1.878a.44.44 0 0 1 .443.439v7.465h7.536a.44.44 0 0 1 .443.439V20.76a.44.44 0 0 1-.443.439H21.3a.44.44 0 0 1-.443-.439v-7.465H13.33a.44.44 0 0 1-.443-.439V2.317a.44.44 0 0 1 .443-.439h10.64zm7.536 8.782h-9.753v9.66h9.753v-9.66zm-7.98-7.904h-9.753v9.66h7.093V10.22a.44.44 0 0 1 .443-.439h2.217V2.756z"/></g></svg>