<svg xmlns="http://www.w3.org/2000/svg" width="26" height="26" fill-rule="nonzero" xmlns:v="https://vecta.io/nano"><path d="M18.773 14.5l2.328 4.656c.005.007.008.014.012.022l1.16 2.322c.144.288.027.638-.26.783a.59.59 0 0 1-.261.062.58.58 0 0 1-.52-.322L20.223 20h-3.947l-1.005 2a.58.58 0 0 1-.783.26c-.3-.144-.405-.496-.26-.784l3.5-7c.198-.396.846-.396 1.044 0zm-.523 1.566l-1.4 2.78h2.78l-1.4-2.78z" fill="#262626"/><path d="M16.5 1.917a.58.58 0 0 1 .583-.583h2.333A4.09 4.09 0 0 1 23.5 5.417V7.5l1.337-1.337c.227-.228.597-.228.825 0s.227.597 0 .825l-2.346 2.346a.57.57 0 0 1-.177.114.65.65 0 0 1-.204.043h-.033c-.075-.002-.145-.018-.208-.044a.58.58 0 0 1-.176-.113l-2.348-2.35c-.227-.228-.227-.597 0-.825s.597-.228.825 0l1.338 1.338v-2.09A2.92 2.92 0 0 0 19.417 2.5h-2.333a.58.58 0 0 1-.583-.583z" fill="#113dcd"/><path d="M8.917 23.5H6.583a2.92 2.92 0 0 1-2.917-2.917V18.5l1.337 1.337c.228.228.597.228.825 0s.228-.597 0-.825L3.496 16.67c-.016-.014-.016-.014-.015-.015a.58.58 0 0 0-.176-.113.59.59 0 0 0-.204-.043h-.03a.57.57 0 0 0-.207.044.57.57 0 0 0-.176.113L.34 19.005c-.228.227-.228.597 0 .825s.597.227.825 0L2.5 18.492v2.092a4.09 4.09 0 0 0 4.083 4.083h2.333a.58.58 0 1 0 0-1.166zM11.25 3.667h-7a.58.58 0 1 0 0 1.166h2.556L5.64 7.167h-1.4a.58.58 0 1 0 0 1.166h.806L3.73 11c-.145.288-.027.638.26.783.083.042.172.062.26.062.215 0 .42-.118.523-.322L6.16 8.74l2.304 2.875c.2.252.568.292.82.1s.292-.568.1-.82l-2.047-2.55h2.758a.58.58 0 1 0 0-1.166h-3.14L8.1 4.833h3.14a.58.58 0 1 0 0-1.166zm3.5-3.5a.58.58 0 0 1 .583.583v9.917h9.917a.58.58 0 0 1 .583.583v14a.58.58 0 0 1-.583.583h-14a.58.58 0 0 1-.583-.583v-9.917H.75a.58.58 0 0 1-.583-.583v-14A.58.58 0 0 1 .75.167h14zm9.917 11.667H11.833v12.833h12.833V11.833zm-10.5-10.5H1.333v12.833h9.333V11.25a.58.58 0 0 1 .583-.583h2.917V1.333z" fill="#262626"/></svg>