<?xml version="1.0" encoding="UTF-8"?>
<svg width="40px" height="32px" viewBox="0 0 40 32" version="1.1" xmlns="http://www.w3.org/2000/svg" xmlns:xlink="http://www.w3.org/1999/xlink">
    <title>Group 61</title>
    <g id="Page-1" stroke="none" stroke-width="1" fill="none" fill-rule="evenodd">
        <g id="Translation-(With-AI-component)" transform="translate(-300.000000, -7462.000000)">
            <g id="Group-99" transform="translate(-101.000000, 2180.000000)">
                <g id="Group-76" transform="translate(0.000000, 1908.000000)">
                    <g id="Group-61" transform="translate(401.000000, 3374.000000)">
                        <circle id="Oval-Copy-18" fill="#D6CFF0" opacity="0.5" cx="16" cy="16" r="16"></circle>
                        <path d="M38.875,20.5 C39.1875,20.5 39.453125,20.390625 39.671875,20.171875 C39.890625,19.953125 40,19.6875 40,19.375 L40,19.375 L40,6.625 C40,6.3125 39.890625,6.046875 39.671875,5.828125 C39.453125,5.609375 39.1875,5.5 38.875,5.5 L38.875,5.5 L11.125,5.5 C10.8125,5.5 10.546875,5.609375 10.328125,5.828125 C10.109375,6.046875 10,6.3125 10,6.625 L10,6.625 L10,19.375 C10,19.6875 10.109375,19.953125 10.328125,20.171875 C10.546875,20.390625 10.8125,20.5 11.125,20.5 L11.125,20.5 L38.875,20.5 Z M24.25,19 L11.5,19 L11.5,7 L24.25,7 L24.25,19 Z M38.5,19 L25.75,19 L25.75,7 L38.5,7 L38.5,19 Z M14.734375,17.5 C15.015625,17.5 15.203125,17.375 15.296875,17.125 L15.296875,17.125 L15.90625,15.203125 L19.09375,15.203125 L19.703125,17.125 C19.796875,17.375 19.984375,17.5 20.265625,17.5 L20.265625,17.5 L20.734375,17.5 C20.921875,17.5 21.0703125,17.421875 21.1796875,17.265625 C21.2890625,17.109375 21.3125,16.9375 21.25,16.75 L21.25,16.75 L18.484375,8.875 C18.390625,8.625 18.21875,8.5 17.96875,8.5 L17.96875,8.5 L17.03125,8.5 C16.78125,8.5 16.609375,8.625 16.515625,8.875 L16.515625,8.875 L13.75,16.75 C13.6875,16.9375 13.7109375,17.109375 13.8203125,17.265625 C13.9296875,17.421875 14.078125,17.5 14.265625,17.5 L14.265625,17.5 L14.734375,17.5 Z M34.234375,17.40625 C34.578125,17.625 34.84375,17.5625 35.03125,17.21875 L35.03125,17.21875 L35.21875,16.890625 C35.40625,16.578125 35.34375,16.328125 35.03125,16.140625 C34.5625,15.828125 34.078125,15.453125 33.578125,15.015625 C34.640625,13.828125 35.34375,12.65625 35.6875,11.5 L35.6875,11.5 L36.4375,11.5 C36.8125,11.5 37,11.3125 37,10.9375 L37,10.9375 L37,10.5625 C37,10.1875 36.8125,10 36.4375,10 L36.4375,10 L33.25,10 L33.25,9.0625 C33.25,8.6875 33.0625,8.5 32.6875,8.5 L32.6875,8.5 L32.3125,8.5 C31.9375,8.5 31.75,8.6875 31.75,9.0625 L31.75,9.0625 L31.75,10 L28.5625,10 C28.1875,10 28,10.1875 28,10.5625 L28,10.5625 L28,10.9375 C28,11.3125 28.1875,11.5 28.5625,11.5 L28.5625,11.5 L34.09375,11.5 C33.78125,12.3125 33.265625,13.125 32.546875,13.9375 C32.171875,13.5 31.828125,13.0625 31.515625,12.625 C31.328125,12.34375 31.078125,12.28125 30.765625,12.4375 L30.765625,12.4375 L30.4375,12.671875 C30.09375,12.859375 30.03125,13.125 30.25,13.46875 C30.625,13.96875 31.03125,14.484375 31.46875,15.015625 C31,15.421875 30.5,15.796875 29.96875,16.140625 C29.65625,16.328125 29.59375,16.578125 29.78125,16.890625 L29.78125,16.890625 L29.96875,17.21875 C30.15625,17.5625 30.421875,17.625 30.765625,17.40625 C31.390625,17.03125 31.984375,16.578125 32.546875,16.046875 C33.078125,16.578125 33.640625,17.03125 34.234375,17.40625 Z M18.671875,13.84375 L16.328125,13.84375 L17.125,11.453125 C17.25,11.109375 17.375,10.640625 17.5,10.046875 L17.5,10.046875 L17.875,11.453125 L18.671875,13.84375 Z" id="" fill="#000000" fill-rule="nonzero"></path>
                    </g>
                </g>
            </g>
        </g>
    </g>
</svg>