<svg xmlns="http://www.w3.org/2000/svg" width="30" height="30" xmlns:v="https://vecta.io/nano"><path d="M17.045 0a.68.68 0 0 1 .682.682v11.6h11.6a.68.68 0 0 1 .682.682v16.364a.68.68 0 0 1-.682.682H12.955a.68.68 0 0 1-.682-.682v-11.6H.682A.68.68 0 0 1 0 17.045V.682A.68.68 0 0 1 .682 0h16.364zm11.6 13.636h-15v15h15v-15zM3.43 19.1a.69.69 0 0 1 .239.05.68.68 0 0 1 .206.132l2.744 2.744a.68.68 0 1 1-.964.964h0L4.1 21.42v2.445c0 1.88 1.53 3.4 3.4 3.4h2.727a.68.68 0 1 1 0 1.364h0H7.5a4.78 4.78 0 0 1-4.773-4.773h0V21.42l-1.56 1.564a.68.68 0 0 1-.964 0 .68.68 0 0 1 0-.964h0l2.742-2.742c.063-.06.132-.104.207-.134a.66.66 0 0 1 .239-.052h0zm18.318-2.35l4.1 8.182c.168.337.03.746-.305.915-.1.05-.203.072-.305.072a.68.68 0 0 1-.61-.376l-1.175-2.35H18.83l-1.174 2.35a.68.68 0 1 1-1.219-.611l4.1-8.182c.232-.462 1-.462 1.22 0zm-.6 1.83l-1.624 3.248h3.25L21.14 18.57zM16.364 1.364h-15v15h10.9v-3.4a.68.68 0 0 1 .682-.682h3.4V1.364zm-3.4 2.727a.68.68 0 0 1 .682.682.68.68 0 0 1-.581.674l-.1.007h-3.67L7.92 8.182h3.67a.68.68 0 0 1 .682.682.68.68 0 0 1-.581.674l-.1.007H8.367l2.393 2.982a.68.68 0 0 1-.105.959.68.68 0 0 1-.883-.024l-.076-.08-2.693-3.36-1.62 3.24a.68.68 0 0 1-.611.376.67.67 0 0 1-.304-.072c-.306-.154-.448-.506-.344-.822l.04-.093 1.552-3.104h-.942a.68.68 0 0 1-.682-.682.68.68 0 0 1 .58-.674l.1-.007h1.624l1.364-2.73H4.773a.68.68 0 0 1-.682-.682.68.68 0 0 1 .58-.674l.1-.007h8.182zM22.5 1.364a4.78 4.78 0 0 1 4.773 4.773V8.58l1.563-1.563a.68.68 0 1 1 .964.964l-2.744 2.744a.7.7 0 0 1-.206.132c-.048.02-.1.035-.155.043l-.084.008h-.04a.67.67 0 0 1-.24-.052.64.64 0 0 1-.141-.079l-.065-.053L23.38 7.98a.68.68 0 1 1 .964-.964L25.9 8.58V6.136c0-1.88-1.53-3.4-3.4-3.4h-2.727a.68.68 0 1 1 0-1.364H22.5z" fill="#fff"/></svg>