<?xml version="1.0" encoding="UTF-8"?>
<svg width="32px" height="23px" viewBox="0 0 32 23" version="1.1" xmlns="http://www.w3.org/2000/svg" xmlns:xlink="http://www.w3.org/1999/xlink">
    <!-- Generator: Sketch 63.1 (92452) - https://sketch.com -->
    <title>Group 6</title>
    <desc>Created with Sketch.</desc>
    <g id="Page-1" stroke="none" stroke-width="1" fill="none" fill-rule="evenodd">
        <g id="Artboard-Copy" transform="translate(-305.000000, -354.000000)">
            <g id="Group-6" transform="translate(305.000000, 353.000000)">
                <circle id="Oval-Copy-19" fill="#C2F4EA" cx="11.5" cy="12.5" r="11.5"></circle>
                <g id="Group-4" transform="translate(8.000000, 0.000000)">
                    <rect id="Rectangle" x="0" y="0" width="24" height="24"></rect>
                    <g id="Group-2" transform="translate(0.000000, 1.000000)">
                        <g id="noun_Translation_24074" fill="#000000" fill-rule="nonzero">
                            <g id="Group">
                                <path d="M22.5107259,0.298338462 L11.1033185,0.298338462 C10.6000889,0.298338462 10.1907259,0.710564103 10.1907259,1.21731282 L10.1907259,5.82071795 L0.608503704,5.82071795 C0.356562963,5.82071795 0.152207407,6.02617436 0.152207407,6.28020513 L0.152207407,18.2183385 C0.152207407,18.4723692 0.356562963,18.6778256 0.608503704,18.6778256 L4.71517037,18.6778256 L4.71517037,20.7238564 C4.71517037,20.8994462 4.81457778,21.0596103 4.97102222,21.1367385 C5.03457778,21.1682462 5.10302222,21.1833436 5.17146667,21.1833436 C5.2712,21.1833436 5.37028148,21.1505231 5.45208889,21.0865231 L8.52263704,18.6778256 L12.9288296,18.6778256 C13.1807704,18.6778256 13.3851259,18.4723692 13.3851259,18.2183385 L13.3851259,13.1639795 L14.3752889,13.1639795 C14.5222815,13.1639795 14.7892148,13.2578462 14.9045926,13.3500718 L17.3076444,15.2749949 C17.4556148,15.3934769 17.6185778,15.4558359 17.7789333,15.4558359 C18.0898667,15.4558359 18.4047111,15.2103385 18.4047111,14.7413333 L18.4047111,13.1636513 L22.5113778,13.1636513 C23.0146074,13.1636513 23.4239704,12.7514256 23.4239704,12.2446769 L23.4239704,1.21698462 C23.4233185,0.710892308 23.0139556,0.298338462 22.5107259,0.298338462 Z M12.4722074,17.7588513 L8.36554074,17.7588513 C8.26385185,17.7588513 8.1650963,17.7929846 8.08491852,17.8556718 L5.62776296,19.7832205 L5.62776296,18.2180103 C5.62776296,17.9639795 5.42340741,17.7585231 5.17146667,17.7585231 L1.0648,17.7585231 L1.0648,6.73969231 L10.1907259,6.73969231 L10.1907259,12.2450051 C10.1907259,12.7517538 10.6000889,13.1639795 11.1033185,13.1639795 L12.4722074,13.1639795 L12.4722074,17.7588513 Z M22.5107259,12.2450051 L18.4040593,12.2450051 C17.9008296,12.2450051 17.4914667,12.6572308 17.4914667,13.1639795 L17.4911407,14.2483692 L15.4723556,12.6313026 C15.193363,12.4074667 14.7318519,12.2450051 14.374963,12.2450051 L11.1033185,12.2450051 L11.1033185,1.21731282 L22.5107259,1.21731282 L22.5107259,12.2450051 L22.5107259,12.2450051 Z" id="Shape"></path>
                            </g>
                        </g>
                        <text id="A" font-family="Gilroy-SemiBold, Gilroy" font-size="7" font-weight="500" fill="#262626">
                            <tspan x="4.55194444" y="15">A</tspan>
                        </text>
                        <text id="英" font-family="PingFangSC-Semibold, PingFang SC" font-size="7" font-weight="500" fill="#262626">
                            <tspan x="13.0555556" y="9">英</tspan>
                        </text>
                    </g>
                </g>
            </g>
        </g>
    </g>
</svg>