<svg width="48" height="48" viewBox="0 0 48 48" fill="none" xmlns="http://www.w3.org/2000/svg">
<path d="M32.2209 4.28625H31.107C30.3847 3.62222 29.4217 3.21591 28.3655 3.21591H27.0953C26.1507 1.32216 24.2338 0.123095 22.0867 0.123095C19.9398 0.123095 18.0228 1.32216 17.0782 3.21591H15.8081C14.7517 3.21591 13.7886 3.62231 13.0661 4.28663H11.9535C8.6115 4.28663 5.89256 7.00556 5.89256 10.3476V11.5611C2.58506 11.9134 0 14.7196 0 18.1189C0 21.5182 2.58506 24.3244 5.89247 24.6765V34.5025C5.89247 37.8451 8.61141 40.5645 11.9534 40.5645H23.2939C23.2683 40.8001 23.2542 41.0391 23.2542 41.2813C23.2542 44.9181 26.213 47.8769 29.8497 47.8769C33.4865 47.8769 36.4452 44.9182 36.4452 41.2813C36.4452 40.5409 36.3207 39.8294 36.0947 39.1644C37.4734 38.0177 38.2818 36.3131 38.2818 34.5028V14.7169C38.2818 14.3286 37.967 14.0138 37.5787 14.0138C37.1903 14.0138 36.8755 14.3286 36.8755 14.7169V34.5028C36.8755 35.7678 36.3604 36.9648 35.4698 37.834C34.3081 35.9469 32.2237 34.6857 29.8496 34.6857C26.9556 34.6857 24.4927 36.5603 23.6067 39.1583H11.9534C9.38681 39.1583 7.29872 37.0697 7.29872 34.5025V24.6765C10.606 24.3243 13.1911 21.5181 13.1911 18.1189C13.1911 14.7197 10.6061 11.9135 7.29872 11.5613V10.3478C7.29872 7.78116 9.38681 5.69306 11.9534 5.69306H12.0727C11.8669 6.17841 11.753 6.71175 11.753 7.27116C11.753 9.50719 13.5721 11.3263 15.8081 11.3263H28.3656C30.6016 11.3263 32.4206 9.50719 32.4206 7.27116C32.4206 6.71147 32.3066 6.17803 32.1007 5.6926H32.221C34.7876 5.6926 36.8757 7.78106 36.8757 10.3482V11.9063C36.8757 12.2946 37.1905 12.6094 37.5788 12.6094C37.9672 12.6094 38.282 12.2946 38.282 11.9063V10.3481C38.2819 7.00566 35.5629 4.28625 32.2209 4.28625V4.28625ZM29.8497 36.092C32.7111 36.092 35.039 38.4199 35.039 41.2812C35.039 44.1426 32.7111 46.4706 29.8497 46.4706C26.9884 46.4706 24.6605 44.1427 24.6605 41.2812C24.6605 38.4199 26.9884 36.092 29.8497 36.092ZM11.7848 18.1189C11.7848 20.9802 9.45694 23.3082 6.5955 23.3082C3.73416 23.3081 1.40625 20.9802 1.40625 18.1189C1.40625 15.2575 3.73416 12.9296 6.5955 12.9296C9.45694 12.9296 11.7848 15.2575 11.7848 18.1189ZM28.3655 9.92007H15.8081C14.3475 9.92007 13.1592 8.73178 13.1592 7.27116C13.1592 5.81053 14.3475 4.62225 15.8081 4.62225H17.5335C17.8217 4.62225 18.0807 4.44638 18.187 4.17853C18.8257 2.56922 20.3565 1.52944 22.0867 1.52944C23.8171 1.52944 25.3478 2.56922 25.9866 4.17853C26.0929 4.44638 26.3519 4.62225 26.6401 4.62225H28.3655C29.8261 4.62225 31.0143 5.81053 31.0143 7.27116C31.0143 8.73178 29.8261 9.92007 28.3655 9.92007Z" fill="#96ABEC"/>
<path d="M33.1123 39.2124C32.8412 38.9343 32.3962 38.9285 32.1179 39.1996L29.3535 41.8942L28.1954 40.7591C27.9181 40.4873 27.4729 40.4917 27.201 40.7691C26.9292 41.0464 26.9336 41.4916 27.2109 41.7635L28.8599 43.3795C28.9966 43.5134 29.1743 43.5805 29.3521 43.5805C29.5292 43.5805 29.7063 43.514 29.8428 43.3809L33.0994 40.2067C33.3776 39.9356 33.3832 39.4904 33.1123 39.2124Z" fill="#96ABEC"/>
<path d="M22.0872 3.01735C20.5943 3.01735 19.3799 4.23188 19.3799 5.72475C19.3799 7.21763 20.5944 8.43206 22.0872 8.43206C23.58 8.43206 24.7945 7.21753 24.7945 5.72475C24.7945 4.23197 23.5801 3.01735 22.0872 3.01735V3.01735ZM22.0872 7.02581C21.3697 7.02581 20.7861 6.44213 20.7861 5.72475C20.7861 5.00738 21.3698 4.4236 22.0872 4.4236C22.8046 4.4236 23.3883 5.00728 23.3883 5.72475C23.3883 6.44222 22.8047 7.02581 22.0872 7.02581V7.02581Z" fill="#96ABEC"/>
<path d="M4.76367 15.0807C4.76367 15.469 5.07848 15.7838 5.4668 15.7838H6.07514V21.2166C6.07514 21.6049 6.38995 21.9197 6.77827 21.9197C7.16658 21.9197 7.48139 21.6049 7.48139 21.2166V15.0807C7.48139 14.6924 7.16658 14.3776 6.77827 14.3776H5.4668C5.07848 14.3776 4.76367 14.6924 4.76367 15.0807Z" fill="#96ABEC"/>
<path d="M20.3025 28.5383C20.3209 28.4369 20.3477 28.2448 20.3509 28.1422C20.3509 26.8887 19.3312 25.8689 18.0778 25.8689C16.994 25.8689 16.056 26.64 15.8473 27.7023C15.7725 28.0833 16.0206 28.4529 16.4017 28.5278C16.7826 28.6023 17.1523 28.3544 17.2272 27.9733C17.3067 27.5688 17.6644 27.2752 18.0778 27.2752C18.543 27.2752 18.9238 27.6435 18.9439 28.1039L18.9249 28.252C18.8485 28.5541 18.6683 28.9093 18.389 29.3084C17.4172 30.6969 16.8373 31.4562 16.5258 31.8642C16.1398 32.3696 15.9635 32.6004 16.0834 32.9896C16.1537 33.2184 16.327 33.3939 16.5587 33.4713C16.6524 33.5025 16.7425 33.5326 17.9349 33.5326C18.4032 33.5326 19.0414 33.528 19.9167 33.5169C20.305 33.5121 20.6158 33.1933 20.6109 32.805C20.606 32.4167 20.2881 32.1052 19.899 32.1108C19.2849 32.1186 18.6334 32.1236 18.0921 32.1247C18.4324 31.6696 18.9044 31.0245 19.5411 30.1147C19.9339 29.5537 20.19 29.0232 20.3025 28.5383V28.5383Z" fill="#96ABEC"/>
<path d="M14.0233 33.893C13.7828 34.1978 13.835 34.64 14.1399 34.8805C15.3134 35.8061 16.725 36.2953 18.2223 36.2953C21.8594 36.2953 24.8185 33.3367 24.8185 29.7C24.8185 26.0633 21.8595 23.1047 18.2223 23.1047C14.5856 23.1047 11.627 26.0633 11.627 29.7C11.627 30.6623 11.8301 31.5907 12.2306 32.4592C12.3932 32.8117 12.8108 32.9658 13.1636 32.8031C13.5162 32.6405 13.6702 32.2228 13.5076 31.8701C13.1928 31.1876 13.0331 30.4575 13.0331 29.6999C13.0331 26.8387 15.3609 24.5108 18.2222 24.5108C21.0839 24.5108 23.4122 26.8387 23.4122 29.6999C23.4122 32.5612 21.084 34.889 18.2222 34.889C17.0441 34.889 15.9335 34.5042 15.0108 33.7762C14.7059 33.5359 14.2638 33.5881 14.0233 33.893V33.893Z" fill="#96ABEC"/>
<path d="M28.1685 16.3417C28.1685 15.9534 27.8537 15.6386 27.4654 15.6386H16.5371C16.1488 15.6386 15.834 15.9534 15.834 16.3417C15.834 16.7301 16.1488 17.0449 16.5371 17.0449H27.4654C27.8537 17.0449 28.1685 16.7301 28.1685 16.3417Z" fill="#96ABEC"/>
<path d="M23.8294 20.5991C24.2177 20.5991 24.5325 20.2843 24.5325 19.896C24.5325 19.5077 24.2177 19.1929 23.8294 19.1929H16.5371C16.1488 19.1929 15.834 19.5077 15.834 19.896C15.834 20.2843 16.1488 20.5991 16.5371 20.5991H23.8294Z" fill="#96ABEC"/>
<path d="M35.7213 27.923C35.7213 27.5347 35.4064 27.2199 35.0181 27.2199H26.2471C25.8588 27.2199 25.5439 27.5347 25.5439 27.923C25.5439 28.3113 25.8588 28.6261 26.2471 28.6261H35.0181C35.4064 28.6261 35.7213 28.3113 35.7213 27.923Z" fill="#96ABEC"/>
<path d="M26.2471 30.7741C25.8588 30.7741 25.5439 31.0889 25.5439 31.4772C25.5439 31.8655 25.8588 32.1804 26.2471 32.1804H31.3821C31.7704 32.1804 32.0853 31.8655 32.0853 31.4772C32.0853 31.0889 31.7704 30.7741 31.3821 30.7741H26.2471Z" fill="#96ABEC"/>
<path d="M47.2971 38.8011H39.0684C38.68 38.8011 38.3652 39.1159 38.3652 39.5042C38.3652 39.8925 38.68 40.2073 39.0684 40.2073H47.2971C47.6854 40.2073 48.0002 39.8925 48.0002 39.5042C48.0002 39.1159 47.6854 38.8011 47.2971 38.8011Z" fill="#96ABEC"/>
<path d="M43.6612 42.3552H39.0684C38.68 42.3552 38.3652 42.67 38.3652 43.0584C38.3652 43.4467 38.68 43.7615 39.0684 43.7615H43.6612C44.0495 43.7615 44.3643 43.4467 44.3643 43.0584C44.3643 42.67 44.0495 42.3552 43.6612 42.3552Z" fill="#96ABEC"/>
</svg>
