<svg id="Group_42" data-name="Group 42" xmlns="http://www.w3.org/2000/svg" width="64.8" height="57.6" viewBox="0 0 64.8 57.6">
  <circle id="Oval" cx="28.8" cy="28.8" r="28.8" transform="translate(0 0)" fill="#ae9fe1" opacity="0.5"/>
  <path id="Shape" d="M7.875,44.517a10.332,10.332,0,0,1-5.732.842A1.648,1.648,0,0,1,.748,44.12a1.6,1.6,0,0,1,.7-1.735A5.2,5.2,0,0,0,3.04,40.7,12.842,12.842,0,0,1,0,32.47a13.541,13.541,0,0,1,6.979-11.6,1.234,1.234,0,0,1,1.695.446A1.22,1.22,0,0,1,8.224,23,11.157,11.157,0,0,0,2.443,32.47a9.992,9.992,0,0,0,2.94,7.088,1.337,1.337,0,0,1,.249,1.29A7.006,7.006,0,0,1,4.486,42.93a6.841,6.841,0,0,0,2.741-.892,1.377,1.377,0,0,1,1.247,0A14.923,14.923,0,0,0,15.8,43.922c5.832,0,11.065-3.322,12.76-8.131a1.245,1.245,0,0,1,2.343.843C28.81,42.484,22.779,46.4,15.8,46.4A17.288,17.288,0,0,1,7.875,44.517ZM15.95,28.182a16.472,16.472,0,0,1-4.012-5.246,14.757,14.757,0,0,1-1.471-6.427C10.467,7.406,18.875,0,29.209,0h.1A19.892,19.892,0,0,1,42.526,4.839a16.52,16.52,0,0,1,4.005,5.233A14.626,14.626,0,0,1,48,16.458a15.257,15.257,0,0,1-3.688,9.815,5.952,5.952,0,0,0,1.993,2.281,1.746,1.746,0,0,1,.748,1.834,1.633,1.633,0,0,1-1.445,1.338,11.082,11.082,0,0,1-1.795.149,11.611,11.611,0,0,1-5.084-1.14,20.609,20.609,0,0,1-9.52,2.281A19.973,19.973,0,0,1,15.95,28.182ZM13.01,16.458c0,7.736,7.289,14.029,16.25,14.029a18.482,18.482,0,0,0,8.922-2.281,1.382,1.382,0,0,1,1.246,0,8.2,8.2,0,0,0,4.036,1.14,8.7,8.7,0,0,1-1.744-2.875,1.335,1.335,0,0,1,.249-1.289,12.714,12.714,0,0,0,3.539-8.725c0-7.735-7.289-14.028-16.249-14.028S13.01,8.723,13.01,16.458Zm15.3,7.04a1.192,1.192,0,0,1-.348-.893,1.422,1.422,0,0,1,.348-.892,1.369,1.369,0,0,1,1.795,0,1.19,1.19,0,0,1,.349.892,1.42,1.42,0,0,1-.349.893,1.206,1.206,0,0,1-.9.347A1.438,1.438,0,0,1,28.311,23.5Zm-.249-4.809a5.509,5.509,0,0,1,2.193-4.313A1.607,1.607,0,0,0,30.8,12.79a1.5,1.5,0,0,0-1.146-1.14,1.587,1.587,0,0,0-1.346.3,1.474,1.474,0,0,0-.6,1.19,1.246,1.246,0,0,1-2.492,0,4.014,4.014,0,0,1,1.495-3.123,4.145,4.145,0,0,1,3.389-.794,4.051,4.051,0,0,1,3.14,3.123A3.885,3.885,0,0,1,31.8,16.359a2.915,2.915,0,0,0-1.247,2.33,1.246,1.246,0,0,1-2.492,0Z" transform="translate(16.8 0)"/>
</svg>
