<svg width="15" height="18" viewBox="0 0 15 18" fill="none" xmlns="http://www.w3.org/2000/svg">
<path fill-rule="evenodd" clip-rule="evenodd" d="M11.7857 4.49999C11.7857 6.98554 9.86719 8.99998 7.5 8.99998C5.13281 8.99998 3.21429 6.98554 3.21429 4.49999C3.21429 2.01444 5.13281 0 7.5 0C9.86719 0 11.7857 2.01444 11.7857 4.49999ZM15 16.3125C15 17.2441 14.2801 18 13.3929 18H1.60714C0.719866 18 0 17.2441 0 16.3125V14.85C0 12.2414 2.01563 10.125 4.50001 10.125H5.05914C5.80582 10.4836 6.62946 10.6875 7.5 10.6875C8.37054 10.6875 9.19755 10.4836 9.94086 10.125H10.5C12.9844 10.125 15 12.2414 15 14.85V16.3125Z" fill="#A86C66"/>
</svg>
