<svg xmlns="http://www.w3.org/2000/svg" width="18" height="20"  xmlns:v="https://vecta.io/nano"><path d="M12.5 13.75h-.902a6.8 6.8 0 0 1-5.695 0H5a5 5 0 0 0-5 5A1.25 1.25 0 0 0 1.25 20h15a1.25 1.25 0 0 0 1.25-1.25 5 5 0 0 0-5-5zm-10.625-5c.345 0 .625-.28.625-.625V7.5a6.26 6.26 0 0 1 6.25-6.25A6.26 6.26 0 0 1 15 7.5v.625a3.13 3.13 0 0 1-3.125 3.125h-1.25A1.25 1.25 0 0 0 9.375 10h-1.25a1.25 1.25 0 1 0 0 2.5h3.75a4.38 4.38 0 0 0 4.375-4.375V7.5A7.51 7.51 0 0 0 8.75 0a7.51 7.51 0 0 0-7.5 7.5v.625c0 .345.28.625.625.625zm6.25 0h1.25A2.5 2.5 0 0 1 11.539 10h.336c1.035-.001 1.874-.84 1.875-1.875V7.5a5 5 0 1 0-10 0c0 1.579.746 2.969 1.889 3.886-.002-.046-.014-.089-.014-.136.002-1.38 1.12-2.498 2.5-2.5h0z" fill="#113dcd"/></svg>