<svg width="14" height="16" viewBox="0 0 14 16" fill="none" xmlns="http://www.w3.org/2000/svg">
<path fill-rule="evenodd" clip-rule="evenodd" d="M10.4762 4C10.4762 6.20938 8.77085 8 6.66668 8C4.5625 8 2.85714 6.20938 2.85714 4C2.85714 1.79062 4.5625 0 6.66668 0C8.77085 0 10.4762 1.79062 10.4762 4ZM13.3334 14.5C13.3334 15.3281 12.6935 16 11.9048 16H1.42857C0.639882 16 0 15.3281 0 14.5V13.2C0 10.8813 1.79168 8.99999 4.00002 8.99999H4.49702C5.16074 9.31875 5.89287 9.49999 6.66668 9.49999C7.44049 9.49999 8.17562 9.31875 8.83634 8.99999H9.33334C11.5417 8.99999 13.3334 10.8813 13.3334 13.2V14.5Z" fill="#BC3447"/>
</svg>
