<svg width="14" height="16" viewBox="0 0 14 16" fill="none" xmlns="http://www.w3.org/2000/svg">
<path fill-rule="evenodd" clip-rule="evenodd" d="M10.5874 4C10.5874 6.20938 8.88206 8 6.77788 8C4.67371 8 2.96835 6.20938 2.96835 4C2.96835 1.79062 4.67371 0 6.77788 0C8.88206 0 10.5874 1.79062 10.5874 4ZM13.4446 14.5C13.4446 15.3281 12.8047 16 12.016 16H1.53978C0.75109 16 0.111206 15.3281 0.111206 14.5V13.2C0.111206 10.8813 1.90288 8.99999 4.11123 8.99999H4.60823C5.27195 9.31875 6.00408 9.49999 6.77789 9.49999C7.5517 9.49999 8.28683 9.31875 8.94755 8.99999H9.44455C11.6529 8.99999 13.4446 10.8813 13.4446 13.2V14.5Z" fill="#4164D7"/>
</svg>
