<?xml version="1.0" encoding="UTF-8"?>
<svg width="21px" height="24px" viewBox="0 0 21 24" version="1.1" xmlns="http://www.w3.org/2000/svg" xmlns:xlink="http://www.w3.org/1999/xlink">
    <title>uuser</title>
    <g id="Explorations" stroke="none" stroke-width="1" fill="none" fill-rule="evenodd">
        <g id="PES-service-component" transform="translate(-235.000000, -623.000000)" fill="#A86C66" fill-rule="nonzero">
            <g id="Group-6" transform="translate(235.000000, 623.000000)">
                <path d="M10.499975,12.0000215 C13.8140387,12.0000215 16.4999607,9.31409952 16.4999607,6.00003576 C16.4999607,2.68597201 13.8140387,5.00679016e-05 10.499975,5.00679016e-05 C7.18591121,5.00679016e-05 4.49998927,2.68597201 4.49998927,6.00003576 C4.49998927,9.31409952 7.18591121,12.0000215 10.499975,12.0000215 Z M18.7499553,23.9999928 C19.9921398,23.9999928 20.9999499,22.9921828 20.9999499,21.7499982 L20.9999499,19.8000212 C20.9999499,16.3218953 18.1780725,13.5000179 14.6999466,13.5000179 L13.9171726,13.5000179 C12.876541,13.9781509 11.7187221,14.2500161 10.499975,14.2500161 C9.28122787,14.2500161 8.12812393,13.9781509 7.0827773,13.5000179 L6.30000329,13.5000179 C2.82187743,13.5000179 0,16.3218953 0,19.8000212 L0,21.7499982 C0,22.9921828 1.0078101,23.9999928 2.24999464,23.9999928 L18.7499553,23.9999928 Z" id="uuser"></path>
            </g>
        </g>
    </g>
</svg>