<?xml version="1.0" encoding="UTF-8"?>
<svg width="38px" height="32px" viewBox="0 0 38 32" version="1.1" xmlns="http://www.w3.org/2000/svg" xmlns:xlink="http://www.w3.org/1999/xlink">
    <title>Group 62</title>
    <g id="Page-1" stroke="none" stroke-width="1" fill="none" fill-rule="evenodd">
        <g id="Translation-(With-AI-component)" transform="translate(-300.000000, -7529.000000)">
            <g id="Group-99" transform="translate(-101.000000, 2180.000000)">
                <g id="Group-76" transform="translate(0.000000, 1908.000000)">
                    <g id="Group-62" transform="translate(401.000000, 3441.000000)">
                        <circle id="Oval-Copy-18" fill="#D6CFF0" opacity="0.5" cx="16" cy="16" r="16"></circle>
                        <path d="M35,23.5 C35.8125,23.5 36.515625,23.203125 37.109375,22.609375 C37.703125,22.015625 38,21.3125 38,20.5 L38,20.5 L38,5.5 C38,4.6875 37.703125,3.984375 37.109375,3.390625 C36.515625,2.796875 35.8125,2.5 35,2.5 L35,2.5 L14,2.5 C13.1875,2.5 12.484375,2.796875 11.890625,3.390625 C11.296875,3.984375 11,4.6875 11,5.5 L11,5.5 L11,20.5 C11,21.3125 11.296875,22.015625 11.890625,22.609375 C12.484375,23.203125 13.1875,23.5 14,23.5 L14,23.5 L35,23.5 Z M35,22 L14,22 C13.59375,22 13.2421875,21.8515625 12.9453125,21.5546875 C12.6484375,21.2578125 12.5,20.90625 12.5,20.5 L12.5,20.5 L12.5,5.5 C12.5,5.09375 12.6484375,4.7421875 12.9453125,4.4453125 C13.2421875,4.1484375 13.59375,4 14,4 L14,4 L35,4 C35.40625,4 35.7578125,4.1484375 36.0546875,4.4453125 C36.3515625,4.7421875 36.5,5.09375 36.5,5.5 L36.5,5.5 L36.5,20.5 C36.5,20.90625 36.3515625,21.2578125 36.0546875,21.5546875 C35.7578125,21.8515625 35.40625,22 35,22 L35,22 Z M20.75,14.5 C21.78125,14.5 22.65625,14.140625 23.375,13.421875 C24.125,12.671875 24.5,11.78125 24.5,10.75 C24.5,9.71875 24.1328125,8.8359375 23.3984375,8.1015625 C22.6640625,7.3671875 21.78125,7 20.75,7 C19.71875,7 18.8359375,7.3671875 18.1015625,8.1015625 C17.3671875,8.8359375 17,9.71875 17,10.75 C17,11.78125 17.3671875,12.6640625 18.1015625,13.3984375 C18.8359375,14.1328125 19.71875,14.5 20.75,14.5 Z M33.125,10 C33.375,10 33.5,9.875 33.5,9.625 L33.5,9.625 L33.5,8.875 C33.5,8.625 33.375,8.5 33.125,8.5 L33.125,8.5 L27.875,8.5 C27.625,8.5 27.5,8.625 27.5,8.875 L27.5,8.875 L27.5,9.625 C27.5,9.875 27.625,10 27.875,10 L27.875,10 L33.125,10 Z M20.75,13 C20.125,13 19.59375,12.78125 19.15625,12.34375 C18.71875,11.90625 18.5,11.375 18.5,10.75 C18.5,10.125 18.71875,9.59375 19.15625,9.15625 C19.59375,8.71875 20.125,8.5 20.75,8.5 C21.375,8.5 21.90625,8.71875 22.34375,9.15625 C22.78125,9.59375 23,10.125 23,10.75 C23,11.375 22.78125,11.90625 22.34375,12.34375 C21.90625,12.78125 21.375,13 20.75,13 Z M33.125,13 C33.375,13 33.5,12.875 33.5,12.625 L33.5,12.625 L33.5,11.875 C33.5,11.625 33.375,11.5 33.125,11.5 L33.125,11.5 L27.875,11.5 C27.625,11.5 27.5,11.625 27.5,11.875 L27.5,11.875 L27.5,12.625 C27.5,12.875 27.625,13 27.875,13 L27.875,13 L33.125,13 Z M33.125,16 C33.375,16 33.5,15.875 33.5,15.625 L33.5,15.625 L33.5,14.875 C33.5,14.625 33.375,14.5 33.125,14.5 L33.125,14.5 L27.875,14.5 C27.625,14.5 27.5,14.625 27.5,14.875 L27.5,14.875 L27.5,15.625 C27.5,15.875 27.625,16 27.875,16 L27.875,16 L33.125,16 Z M16.625,19.75 C16.875,19.75 17,19.625 17,19.375 L17,19.375 L17,18.296875 C17,17.953125 17.09375,17.640625 17.28125,17.359375 C17.5625,16.953125 17.984375,16.75 18.546875,16.75 C18.703125,16.75 18.9921875,16.8046875 19.4140625,16.9140625 C19.8359375,17.0234375 20.28125,17.078125 20.75,17.078125 C21.21875,17.078125 21.6640625,17.0234375 22.0859375,16.9140625 C22.5078125,16.8046875 22.796875,16.75 22.953125,16.75 C23.515625,16.75 23.9375,16.953125 24.21875,17.359375 C24.40625,17.640625 24.5,17.953125 24.5,18.296875 L24.5,18.296875 L24.5,19.375 C24.5,19.625 24.625,19.75 24.875,19.75 L24.875,19.75 L25.625,19.75 C25.875,19.75 26,19.625 26,19.375 L26,19.375 L26,18.296875 C26,17.640625 25.828125,17.046875 25.484375,16.515625 C24.890625,15.671875 24.046875,15.25 22.953125,15.25 C22.640625,15.25 22.2890625,15.3046875 21.8984375,15.4140625 C21.5078125,15.5234375 21.125,15.578125 20.75,15.578125 C20.375,15.578125 19.9921875,15.5234375 19.6015625,15.4140625 C19.2109375,15.3046875 18.859375,15.25 18.546875,15.25 C17.453125,15.25 16.609375,15.671875 16.015625,16.515625 C15.671875,17.046875 15.5,17.640625 15.5,18.296875 L15.5,18.296875 L15.5,19.375 C15.5,19.625 15.625,19.75 15.875,19.75 L15.875,19.75 L16.625,19.75 Z" id="" fill="#000000" fill-rule="nonzero"></path>
                    </g>
                </g>
            </g>
        </g>
    </g>
</svg>