<?xml version="1.0" encoding="UTF-8"?>
<svg width="35px" height="35px" viewBox="0 0 35 35" version="1.1" xmlns="http://www.w3.org/2000/svg" xmlns:xlink="http://www.w3.org/1999/xlink">
    <title>7F5AD351-0305-48C9-9B67-DB2B5BBEA715</title>
    <g id="SES" stroke="none" stroke-width="1" fill="none" fill-rule="evenodd">
        <g id="SES-new---06-10-2021" transform="translate(-226.000000, -882.000000)" fill="#6882DA" fill-rule="nonzero">
            <path d="M243.437458,916.937491 C253.070248,916.937491 260.874917,909.132822 260.874917,899.500032 C260.874917,889.867243 253.070248,882.062574 243.437458,882.062574 C233.804669,882.062574 226,889.867243 226,899.500032 C226,909.132822 233.804669,916.937491 243.437458,916.937491 Z M243.437458,901.187528 C240.020307,901.187528 237.249973,898.417195 237.249973,895.000043 C237.249973,891.582891 240.020307,888.812558 243.437458,888.812558 C246.85461,888.812558 249.624944,891.582891 249.624944,895.000043 C249.624944,898.417195 246.85461,901.187528 243.437458,901.187528 Z M243.437458,913 C239.310111,913 235.61171,911.129719 233.136702,908.204685 C234.45856,905.71567 237.04604,904.000021 240.062466,904.000021 C240.231244,904.000021 240.399952,904.028174 240.561657,904.077338 C241.475717,904.372663 242.432006,904.56252 243.437458,904.56252 C244.442911,904.56252 245.406204,904.372663 246.31326,904.077338 C246.474965,904.028174 246.643673,904.000021 246.81245,904.000021 C249.828877,904.000021 252.416357,905.71567 253.738215,908.204685 C251.263207,911.129719 247.564806,913 243.437458,913 Z" id="uuser-circle"></path>
        </g>
    </g>
</svg>