<svg width="84" height="72" viewBox="0 0 84 72" fill="none" xmlns="http://www.w3.org/2000/svg">
<circle cx="36" cy="36" r="36" fill="#00084D" fill-opacity="0.2"/>
<path fill-rule="evenodd" clip-rule="evenodd" d="M56.0924 23.4007C56.0924 30.2502 50.541 35.8015 43.6917 35.8015C36.8518 35.8015 31.3006 30.2502 31.3006 23.4007C31.3006 16.5512 36.8518 11 43.6917 11C50.541 11 56.0924 16.5512 56.0924 23.4007ZM34.3911 23.4007C34.3911 28.5258 38.5666 32.7013 43.6916 32.7013C48.8166 32.7013 52.9922 28.5258 52.9922 23.4007C52.9922 18.2757 48.8166 14.1002 43.6916 14.1002C38.5666 14.1002 34.4007 18.2757 34.3911 23.4007ZM71.9323 60.6127C72.7267 60.6127 73.5211 60.3124 74.1218 59.702L83.0833 50.7406C84.3039 49.5198 84.3039 47.5532 83.0929 46.3421L74.3543 37.5938C73.1918 36.4313 71.6125 35.7821 69.9753 35.7821H62.2927C60.5779 35.7821 59.1925 37.1675 59.1925 38.8823V46.565C59.1925 48.2119 59.8415 49.7912 61.0041 50.9537L69.7428 59.702C70.3434 60.3027 71.1379 60.6127 71.9323 60.6127ZM63.2033 48.7545L71.942 57.5028L80.9034 48.5414L72.1648 39.7931C71.5835 39.202 70.7988 38.8823 69.9753 38.8823H62.2927V46.565C62.2927 47.3884 62.622 48.1732 63.2033 48.7545ZM60.7426 60.603C62.2539 60.603 63.5812 59.8667 64.4338 58.7526L62.1861 56.505C61.9536 57.0862 61.4014 57.5028 60.7426 57.5028H26.6503C25.7977 57.5028 25.1002 56.8053 25.1002 55.9527V51.9225C25.1002 46.4488 29.547 42.0019 35.0208 42.0019C35.7497 42.0019 36.4771 42.2303 37.3735 42.5117C38.8125 42.9635 40.6868 43.552 43.7013 43.552C46.7015 43.552 48.5781 42.9644 50.0204 42.5128C50.9208 42.2309 51.652 42.0019 52.3818 42.0019C53.6994 42.0019 54.9491 42.2731 56.102 42.7382V39.5024C54.9201 39.1439 53.68 38.9017 52.3818 38.9017C51.1629 38.9017 50.2213 39.1996 49.1638 39.5342C47.8091 39.9629 46.2639 40.4518 43.7013 40.4518C41.1406 40.4518 39.5989 39.9636 38.2459 39.5352C37.1879 39.2002 36.2452 38.9017 35.0208 38.9017C27.8322 38.9017 22 44.734 22 51.9225V55.9527C22 58.5201 24.0829 60.603 26.6503 60.603H60.7426ZM68.4931 43.552C68.4931 44.4045 67.7955 45.1021 66.943 45.1021C66.0903 45.1021 65.3929 44.4045 65.3929 43.552C65.3929 42.6995 66.0903 42.0019 66.943 42.0019C67.7955 42.0019 68.4931 42.6995 68.4931 43.552Z" fill="black"/>
</svg>
