<svg xmlns="http://www.w3.org/2000/svg" width="50" height="50" fill="none" xmlns:v="https://vecta.io/nano"><path fill-rule="evenodd" d="M25 50a25 25 0 1 0 0-50 25 25 0 1 0 0 50zm0-22.581c-4.899 0-8.871-3.972-8.871-8.871S20.101 9.677 25 9.677s8.871 3.972 8.871 8.871-3.972 8.871-8.871 8.871zM10.232 37.48c3.548 4.194 8.851 6.875 14.768 6.875s11.22-2.681 14.768-6.875c-1.895-3.568-5.605-6.028-9.929-6.028a2.47 2.47 0 0 0-.716.111c-1.3.423-2.681.696-4.123.696s-2.812-.272-4.123-.696c-.232-.07-.474-.111-.716-.111-4.325 0-8.034 2.46-9.929 6.028z" fill="#abdab5"/></svg>