<?xml version="1.0" encoding="UTF-8"?>
<svg width="68px" height="52px" viewBox="0 0 68 52" version="1.1" xmlns="http://www.w3.org/2000/svg" xmlns:xlink="http://www.w3.org/1999/xlink">
    <title>Group 20</title>
    <g id="Explorations" stroke="none" stroke-width="1" fill="none" fill-rule="evenodd">
        <g id="Topfold-pes-changes-" transform="translate(-570.000000, -2032.000000)">
            <g id="Group-20" transform="translate(570.000000, 2032.000000)">
                <circle id="Oval-Copy-18" fill="#F5CFCD" cx="26" cy="26" r="26"></circle>
                <g id="Group-22" transform="translate(26.000000, 6.000000)">
                    <path d="M17.4999583,19.9999523 C23.0233979,19.9999523 27.4999344,15.5234157 27.4999344,9.99997616 C27.4999344,4.47653657 23.0233979,0 17.4999583,0 C11.9765187,0 7.49998212,4.47653657 7.49998212,9.99997616 C7.49998212,15.5234157 11.9765187,19.9999523 17.4999583,19.9999523 Z M17.4999583,17.4999583 C13.3671251,17.4999583 9.99997616,14.1328093 9.99997616,9.99997616 C9.99997616,5.86714299 13.3671251,2.49999404 17.4999583,2.49999404 C21.6327914,2.49999404 24.9999404,5.86714299 24.9999404,9.99997616 C24.9999404,14.1328093 21.6327914,17.4999583 17.4999583,17.4999583 Z M31.2499255,39.9999046 C33.3202331,39.9999046 34.9999166,38.3202211 34.9999166,36.2499136 L34.9999166,32.9999464 C34.9999166,27.2030754 30.2967875,22.4999464 24.4999111,22.4999464 C22.25779,22.4999464 21.1796065,23.7499434 17.4999583,23.7499434 C13.8203101,23.7499434 12.7499849,22.4999464 10.5,22.4999464 C4.70312905,22.4999464 0,27.2030754 0,32.9999464 L0,36.2499136 C0,38.3202211 1.6796835,39.9999046 3.74999106,39.9999046 L31.2499255,39.9999046 Z M31.2499255,37.4999106 L3.74999106,37.4999106 C3.06250796,37.4999106 2.49999404,36.9373967 2.49999404,36.2499136 L2.49999404,32.9999518 C2.49999404,28.5858999 6.08595351,24.9999404 10.5000055,24.9999404 C12.0312213,24.9999404 13.5546552,26.2499374 17.4999583,26.2499374 C21.4374794,26.2499374 22.9686952,24.9999404 24.4999111,24.9999404 C28.913963,24.9999404 32.4999225,28.5858999 32.4999225,32.9999518 L32.4999225,36.2499136 C32.4999225,36.9373967 31.9374086,37.4999106 31.2499255,37.4999106 Z" id="uuser" fill="#000000" fill-rule="nonzero"></path>
                    <circle id="Oval" fill="#000000" cx="33" cy="31" r="9"></circle>
                    <path d="M34.3,33.6557377 L34.3,32.9344262 C34.3,32.704918 34.3111111,32.5136612 34.3333333,32.3606557 C34.3555556,32.2076503 34.3972222,32.068306 34.4583333,31.942623 C34.5194444,31.8169399 34.6027778,31.6967213 34.7083333,31.5819672 C34.8138889,31.4672131 34.9555556,31.3278689 35.1333333,31.1639344 L35.1333333,31.1639344 L35.3,31.0163934 L36.3,30 C36.5222222,29.726776 36.6944444,29.4344262 36.8166667,29.1229508 C36.9388889,28.8114754 37,28.4480874 37,28.0327869 C37,27.5519126 36.9138889,27.1229508 36.7416667,26.7459016 C36.5694444,26.3688525 36.3333333,26.0519126 36.0333333,25.795082 C35.7333333,25.5382514 35.3805556,25.3415301 34.975,25.204918 C34.5694444,25.068306 34.1333333,25 33.6666667,25 C32.6888889,25 31.8694444,25.2704918 31.2083333,25.8114754 C30.5472222,26.352459 30.1444444,27.0983607 30,28.0491803 L30,28.0491803 L31.7,28.2131148 C31.7666667,27.6666667 31.9694444,27.2240437 32.3083333,26.8852459 C32.6472222,26.5464481 33.0888889,26.3770492 33.6333333,26.3770492 C33.8777778,26.3770492 34.1083333,26.420765 34.325,26.5081967 C34.5416667,26.5956284 34.7277778,26.715847 34.8833333,26.8688525 C35.0388889,27.0218579 35.1638889,27.204918 35.2583333,27.4180328 C35.3527778,27.6311475 35.4,27.863388 35.4,28.1147541 C35.4,28.3661202 35.3527778,28.5928962 35.2583333,28.795082 C35.1638889,28.9972678 35.0444444,29.1885246 34.9,29.3688525 C34.7555556,29.5491803 34.5944444,29.7240437 34.4166667,29.8934426 C34.2388889,30.0628415 34.0611111,30.2295082 33.8833333,30.3934426 C33.6611111,30.6010929 33.475,30.7786885 33.325,30.9262295 C33.175,31.0737705 33.0555556,31.226776 32.9666667,31.3852459 C32.8777778,31.5437158 32.8111111,31.7213115 32.7666667,31.9180328 C32.7222222,32.1147541 32.7,32.3606557 32.7,32.6557377 L32.7,32.6557377 L32.7,33.6557377 L34.3,33.6557377 Z M33.4833333,37 C33.7833333,37 34.0416667,36.8934426 34.2583333,36.6803279 C34.475,36.4672131 34.5833333,36.2131148 34.5833333,35.9180328 C34.5833333,35.6229508 34.475,35.3688525 34.2583333,35.1557377 C34.0416667,34.942623 33.7833333,34.8360656 33.4833333,34.8360656 C33.1833333,34.8360656 32.925,34.942623 32.7083333,35.1557377 C32.4916667,35.3688525 32.3833333,35.6229508 32.3833333,35.9180328 C32.3833333,36.2131148 32.4916667,36.4672131 32.7083333,36.6803279 C32.925,36.8934426 33.1833333,37 33.4833333,37 Z" id="?" fill="#FFFFFF" fill-rule="nonzero"></path>
                </g>
            </g>
        </g>
    </g>
</svg>