<?xml version="1.0" encoding="UTF-8"?>
<svg width="61px" height="53px" viewBox="0 0 61 53" version="1.1" xmlns="http://www.w3.org/2000/svg" xmlns:xlink="http://www.w3.org/1999/xlink">
    <title>2156BC42-21E7-4835-AE3B-C96D82A504F2</title>
    <g id="SES" stroke="none" stroke-width="1" fill="none" fill-rule="evenodd">
        <g id="SES-new---06-10-2021" transform="translate(-202.000000, -2021.000000)">
            <g id="Group-15" transform="translate(202.000000, 2021.000000)">
                <circle id="Oval-Copy-18" fill="#D8CEF3" cx="26.18" cy="26.18" r="26.18"></circle>
                <g id="Group-22" transform="translate(11.000000, 6.000000)">
                    <path d="M32.4999583,19.9999523 C38.0233979,19.9999523 42.4999344,15.5234157 42.4999344,9.99997616 C42.4999344,4.47653657 38.0233979,0 32.4999583,0 C26.9765187,0 22.4999821,4.47653657 22.4999821,9.99997616 C22.4999821,15.5234157 26.9765187,19.9999523 32.4999583,19.9999523 Z M32.4999583,17.4999583 C28.3671251,17.4999583 24.9999762,14.1328093 24.9999762,9.99997616 C24.9999762,5.86714299 28.3671251,2.49999404 32.4999583,2.49999404 C36.6327914,2.49999404 39.9999404,5.86714299 39.9999404,9.99997616 C39.9999404,14.1328093 36.6327914,17.4999583 32.4999583,17.4999583 Z M46.2499255,39.9999046 C48.3202331,39.9999046 49.9999166,38.3202211 49.9999166,36.2499136 L49.9999166,32.9999464 C49.9999166,27.2030754 45.2967875,22.4999464 39.4999111,22.4999464 C37.25779,22.4999464 36.1796065,23.7499434 32.4999583,23.7499434 C28.8203101,23.7499434 27.7499849,22.4999464 25.5,22.4999464 C19.703129,22.4999464 15,27.2030754 15,32.9999464 L15,36.2499136 C15,38.3202211 16.6796835,39.9999046 18.7499911,39.9999046 L46.2499255,39.9999046 Z M46.2499255,37.4999106 L18.7499911,37.4999106 C18.062508,37.4999106 17.499994,36.9373967 17.499994,36.2499136 L17.499994,32.9999518 C17.499994,28.5858999 21.0859535,24.9999404 25.5000055,24.9999404 C27.0312213,24.9999404 28.5546552,26.2499374 32.4999583,26.2499374 C36.4374794,26.2499374 37.9686952,24.9999404 39.4999111,24.9999404 C43.913963,24.9999404 47.4999225,28.5858999 47.4999225,32.9999518 L47.4999225,36.2499136 C47.4999225,36.9373967 46.9374086,37.4999106 46.2499255,37.4999106 Z" id="uuser" fill="#000000" fill-rule="nonzero"></path>
                    <circle id="Oval" fill="#000000" cx="9" cy="11" r="9"></circle>
                    <polygon id="Path-5" fill="#000000" points="16.986752 9.99997616 21.1639362 11 16.5045561 13.1154952"></polygon>
                    <text id="Aa" font-family="PingFangSC-Regular, PingFang SC" font-size="12" font-weight="normal" fill="#FFFFFF">
                        <tspan x="2" y="15">Aa</tspan>
                    </text>
                </g>
            </g>
        </g>
    </g>
</svg>