<svg width="18" height="20" xmlns="http://www.w3.org/2000/svg"><path d="M12.5 13.75h-.902a6.8 6.8 0 01-5.696 0H5a5 5 0 00-5 5C0 19.44.56 20 1.25 20h15c.69 0 1.25-.56 1.25-1.25a5 5 0 00-5-5zm-10.625-5c.345 0 .625-.28.625-.625V7.5a6.257 6.257 0 016.25-6.25A6.257 6.257 0 0115 7.5v.625a3.129 3.129 0 01-3.125 3.125h-1.25c0-.69-.56-1.25-1.25-1.25h-1.25a1.25 1.25 0 000 2.5h3.75a4.38 4.38 0 004.375-4.375V7.5c0-4.136-3.364-7.5-7.5-7.5s-7.5 3.364-7.5 7.5v.625c0 .345.28.625.625.625zm6.25 0h1.25A2.5 2.5 0 0111.539 10h.336a1.877 1.877 0 001.875-1.875V7.5a5 5 0 00-10 0c0 1.579.746 2.969 1.889 3.886-.003-.046-.014-.09-.014-.136a2.503 2.503 0 012.5-2.5z" fill="#262600" fill-rule="nonzero"/></svg>