<svg width="74" height="74" viewBox="0 0 74 74" fill="none" xmlns="http://www.w3.org/2000/svg">
<g opacity="0.4" clip-path="url(#clip0_31_467)">
<path d="M42.0862 43.3213L28.8232 39.7675L30.5683 59.7808L42.0862 43.3213Z" fill="white"/>
<path d="M45.7003 44.2895L30.678 65.7571L30.4313 66.1096L63.2827 49.0007L45.7003 44.2895Z" fill="white"/>
<path d="M25.2103 38.7993L7.62793 34.0881L27.5236 65.3306L25.2103 38.7993Z" fill="white"/>
<path d="M22.8027 19.9559L27.6752 34.3589L39.0964 24.3217L22.8027 19.9559Z" fill="white"/>
<path d="M40.9141 24.8087L45.7865 39.2118L57.2077 29.1746L40.9141 24.8087Z" fill="white"/>
<path d="M38.7297 29.324L30.4822 36.5722L42.2483 39.7249L38.7297 29.324Z" fill="white"/>
<path d="M19.3982 20.8634L8.28989 30.6258L24.1371 34.8721L19.3982 20.8634Z" fill="white"/>
<path d="M59.7019 31.6628L48.5936 41.4251L64.4409 45.6713L59.7019 31.6628Z" fill="white"/>
<path d="M59.2209 25.1997C58.7863 25.0832 58.3962 24.801 58.1536 24.3806C57.6682 23.54 57.9562 22.4648 58.797 21.9794L64.8862 18.4638C65.7268 17.9785 66.8019 18.2666 67.2874 19.1072C67.7728 19.9479 67.4847 21.023 66.644 21.5084L60.5548 25.024C60.1344 25.2667 59.6554 25.3161 59.2209 25.1997V25.1997Z" fill="white"/>
<path d="M41.7768 17.9521C40.8391 17.7008 40.2826 16.7369 40.5338 15.7992L42.3536 9.00752C42.6049 8.06982 43.5688 7.51331 44.5065 7.76456C45.4442 8.01582 46.0007 8.97973 45.7495 9.91744L43.9296 16.7091C43.6784 17.6468 42.7145 18.2033 41.7768 17.9521Z" fill="white"/>
<path d="M23.0467 15.5069C22.6122 15.3904 22.2221 15.1082 21.9795 14.6878L18.4639 8.59873C17.9784 7.75808 18.2665 6.68296 19.1072 6.19754C19.9479 5.7122 21.023 6.00028 21.5084 6.84094L25.024 12.9301C25.5095 13.7708 25.2214 14.8459 24.3806 15.3313C23.9603 15.5739 23.4813 15.6233 23.0467 15.5069V15.5069Z" fill="white"/>
</g>
<defs>
<clipPath id="clip0_31_467">
<rect width="60" height="60" fill="white" transform="translate(15.5293) rotate(15)"/>
</clipPath>
</defs>
</svg>
