<svg xmlns="http://www.w3.org/2000/svg" width="36" height="29" fill-rule="evenodd" xmlns:v="https://vecta.io/nano"><circle fill="#50caae" opacity=".5" cx="11.5" cy="16.944" r="11.5"/><path d="M16.854 13.258l-1.153-.96L18.276 9.2l12.535 8.357.98-1.784-1.308-.72 3.84-2.323.092 4.487-1.308-.72-1.77 3.212-12.774-8.515-1.7 2.054zm7.07-2.483l4.607 3.072 4.472-7.824 1.296.74-.02-4.487-3.876 2.26 1.296.74-3.672 6.43-4.393-2.928-1.66 1.992 1.255.836.695-.834zm-2.626 3.15l-1.255-.836-4.34 5.208 1.153.96 4.443-5.332zm-8.02 9.352v-3h1.5v-1.5h-1.5v-3h1.5v-1.5h-1.5v-3h1.5v-1.5h-1.5v-3h1.5v-1.5h-1.5v-3h1.5v-1.5h-3v24h24v-1.5h-22.5z" fill-rule="nonzero"/></svg>