<?xml version="1.0" encoding="UTF-8"?>
<svg width="31px" height="31px" viewBox="0 0 31 31" version="1.1" xmlns="http://www.w3.org/2000/svg" xmlns:xlink="http://www.w3.org/1999/xlink">
    <title>E70F97E7-4001-469F-8320-B61B2BA3D8A7</title>
    <g id="Page-1" stroke="none" stroke-width="1" fill="none" fill-rule="evenodd">
        <g id="Inline-offer-components" transform="translate(-299.000000, -176.000000)" fill="#FFFFFF" fill-rule="nonzero">
            <g id="Group" transform="translate(299.000000, 176.000000)">
                <path d="M13.8944892,0.156611176 C13.0497649,0.156611176 12.3536804,0.852697647 12.3536804,1.69742 C12.3536804,2.54214235 13.0497649,3.23822882 13.8944892,3.23822882 L13.8944892,4.90041941 C12.1136413,5.15830712 10.4256134,5.85765205 8.98416301,6.93475294 L7.8084953,5.75909882 C8.40575842,5.16181824 8.40575842,4.17754471 7.8084953,3.58028353 C7.21123024,2.98302235 6.22695865,2.98302235 5.62969359,3.58028353 L3.45089383,5.75909882 C2.85363071,6.35636 2.85363071,7.34063353 3.45089383,7.93789471 C4.04815889,8.53515588 5.03243048,8.53515588 5.62969359,7.93789471 L6.80636683,9.11455824 C5.73012899,10.5559207 5.03148258,12.2435735 4.77402495,14.0238906 L3.10882748,14.0238906 C3.10882748,13.1791682 2.41274295,12.4830818 1.56801865,12.4830818 C0.723294359,12.4830818 0.0272098294,13.1791682 0.0272098294,14.0238906 L0.0272098294,17.1055082 C0.0272098294,17.9502306 0.723294359,18.6463171 1.56801865,18.6463171 C2.41274295,18.6463171 3.10882748,17.9502306 3.10882748,17.1055082 L4.77101418,17.1055082 C5.02890712,18.8863563 5.7282574,20.5743829 6.80536324,22.0158306 L5.62969359,23.1915041 C5.03243048,22.5942429 4.04815889,22.5942429 3.45089383,23.1915041 C2.85363071,23.7887653 2.85363071,24.7730388 3.45089383,25.3703 L5.62969359,27.5490959 C6.22695865,28.1463571 7.21123024,28.1463571 7.8084953,27.5490959 C8.40575842,26.9518347 8.40575842,25.9675612 7.8084953,25.3703 L8.98516659,24.1936171 C10.4265251,25.2698576 12.1141744,25.9685079 13.8944892,26.2259706 L13.8944892,27.89117 C13.0497649,27.89117 12.3536804,28.5872565 12.3536804,29.4319788 C12.3536804,30.2767012 13.0497649,30.9727876 13.8944892,30.9727876 L16.9761069,30.9727876 C17.8208312,30.9727876 18.5169163,30.2767012 18.5169163,29.4319788 C18.5169163,28.5872565 17.8208312,27.89117 16.9761069,27.89117 L16.9761069,26.2289794 C18.7569562,25.9710857 20.4449837,25.2717341 21.8864318,24.1946265 L23.0621014,25.3703 C22.4648383,25.9675612 22.4648383,26.9518347 23.0621014,27.5490959 C23.6593645,28.1463571 24.6436381,28.1463571 25.2409012,27.5490959 L27.4197009,25.3703 C28.0169641,24.7730388 28.016966,23.7887653 27.4197009,23.1915041 C26.8224378,22.5942429 25.8381643,22.5942429 25.2409012,23.1915041 L24.0642279,22.0148212 C25.1404635,20.5734645 25.8391104,18.8858188 26.0965718,17.1055082 L27.7617692,17.1055082 C27.7617692,17.9502306 28.4578538,18.6463171 29.3025781,18.6463171 C30.1473024,18.6463171 30.8433869,17.9502306 30.8433869,17.1055082 L30.8433869,14.0238906 C30.8433869,13.1791682 30.1473024,12.4830818 29.3025781,12.4830818 C28.4578538,12.4830818 27.7617692,13.1791682 27.7617692,14.0238906 L26.0995806,14.0238906 C25.8416877,12.2430425 25.1423374,10.555016 24.0652315,9.11356824 L25.2409012,7.93789471 C25.8381643,8.53515588 26.8224378,8.53515588 27.4197009,7.93789471 C28.016966,7.34063353 28.0169641,6.35636 27.4197009,5.75909882 L25.2409012,3.58028353 C24.6436381,2.98302235 23.6593645,2.98302235 23.0621014,3.58028353 C22.4648383,4.17754471 22.4648383,5.16181824 23.0621014,5.75909882 L21.8854282,6.93576235 C20.4440682,5.85952898 18.7564194,5.16088535 16.9761069,4.90342824 L16.9761069,3.23822882 C17.8208312,3.23822882 18.5169163,2.54214235 18.5169163,1.69742 C18.5169163,0.852697647 17.8208312,0.156611176 16.9761069,0.156611176 L13.8944892,0.156611176 Z M15.4352981,7.86065529 C15.7189503,7.86065568 15.9488968,8.09059948 15.9489004,8.37425176 C15.9488968,8.65790405 15.7189503,8.88784785 15.4352981,8.88784824 C15.151645,8.88784892 14.9216974,8.6579048 14.9216938,8.37425176 C14.9216974,8.09059873 15.151645,7.86065461 15.4352981,7.86065529 L15.4352981,7.86065529 Z M11.8410798,8.88885765 C13.5369265,8.88885765 14.9196886,10.2746247 14.9196886,11.9704753 C14.9196886,13.6663259 13.5369265,15.0490841 11.8410798,15.0490841 C10.1452331,15.0490841 8.75946212,13.6663259 8.75946212,11.9704753 C8.75946212,10.2746247 10.1452331,8.88885765 11.8410798,8.88885765 L11.8410798,8.88885765 Z M19.029515,9.91607 C20.1580529,9.91607 21.0849297,10.8419335 21.0849297,11.9704753 C21.0849297,13.0990171 20.1580529,14.02589 19.029515,14.02589 C17.9009785,14.02589 16.9751033,13.0990171 16.9751033,11.9704753 C16.9751033,10.8419335 17.9009785,9.91607 19.029515,9.91607 Z M8.24485624,15.0510835 C8.38107434,15.0510837 8.51171304,15.1051972 8.60803251,15.2015192 C8.70435197,15.2978412 8.75846195,15.4284813 8.75845854,15.5646994 C8.75845493,15.8483517 8.52850852,16.0782955 8.24485624,16.0782959 C7.96120396,16.0782955 7.73125755,15.8483517 7.73125395,15.5646994 C7.73125053,15.4284813 7.78536051,15.2978412 7.88167998,15.2015192 C7.97799944,15.1051972 8.10863815,15.0510837 8.24485624,15.0510835 L8.24485624,15.0510835 Z M15.4352981,15.0510835 C15.5715162,15.0510837 15.7021549,15.1051972 15.7984743,15.2015192 C15.8947938,15.2978412 15.9489038,15.4284813 15.9489004,15.5646994 C15.9488968,15.8483517 15.7189503,16.0782955 15.4352981,16.0782959 C15.151645,16.0782966 14.9216974,15.8483525 14.9216938,15.5646994 C14.9216904,15.428481 14.9758007,15.2978405 15.0721205,15.2015185 C15.1684404,15.1051964 15.2990796,15.0510832 15.4352981,15.0510835 L15.4352981,15.0510835 Z M22.6257385,15.0510835 C22.761957,15.0510832 22.8925962,15.1051964 22.988916,15.2015185 C23.0852359,15.2978405 23.1393462,15.428481 23.1393428,15.5646994 C23.1393392,15.8483525 22.9093916,16.0782966 22.6257385,16.0782959 C22.3420862,16.0782955 22.1121398,15.8483517 22.1121362,15.5646994 C22.1121328,15.4284813 22.1662428,15.2978412 22.2625623,15.2015192 C22.3588817,15.1051972 22.4895204,15.0510837 22.6257385,15.0510835 L22.6257385,15.0510835 Z M19.029515,16.0762965 C20.7253636,16.0762965 22.1121362,17.4630729 22.1121362,19.1589041 C22.1121362,20.8547547 20.7253636,22.2415312 19.029515,22.2415312 C17.3336697,22.2415312 15.9468951,20.8547547 15.9468951,19.1589041 C15.9468951,17.4630729 17.3336697,16.0762965 19.029515,16.0762965 Z M11.8410798,17.1044988 C12.9696177,17.1044988 13.8964945,18.0303818 13.8964945,19.1589041 C13.8964945,20.2874459 12.9696177,21.2143188 11.8410798,21.2143188 C10.7125438,21.2143188 9.78666865,20.2874459 9.78666865,19.1589041 C9.78666865,18.0303818 10.7125438,17.1044988 11.8410798,17.1044988 Z M15.4352981,22.2415312 C15.7189503,22.2415316 15.9488968,22.4714754 15.9489004,22.7551276 C15.9489038,22.8913457 15.8947938,23.0219859 15.7984743,23.1183079 C15.7021549,23.2146299 15.5715162,23.2687433 15.4352981,23.2687435 C15.2990796,23.2687439 15.1684404,23.2146306 15.0721205,23.1183086 C14.9758007,23.0219865 14.9216904,22.8913461 14.9216938,22.7551276 C14.9216974,22.4714746 15.151645,22.2415305 15.4352981,22.2415312 L15.4352981,22.2415312 Z" id="Shape"></path>
            </g>
        </g>
    </g>
</svg>