<svg width="454" height="383" viewBox="0 0 454 383" fill="none" xmlns="http://www.w3.org/2000/svg">
<path d="M212.392 232.984L208.136 169.368C207.304 156.568 202.936 135.88 212.712 125.48C220.152 117.48 237.768 116.104 243.112 127.192C247.656 140.221 248.661 154.223 246.024 167.768L240.328 233.256C240.083 239.42 238.734 245.489 236.344 251.176C235.403 253.016 233.977 254.564 232.22 255.652C230.463 256.74 228.441 257.326 226.375 257.347C224.308 257.369 222.275 256.824 220.496 255.773C218.717 254.722 217.259 253.204 216.28 251.384C214.028 245.492 212.716 239.283 212.392 232.984V232.984ZM227.128 320.392C222.082 320.364 217.237 318.414 213.578 314.94C209.919 311.466 207.722 306.728 207.432 301.691C207.143 296.653 208.783 291.695 212.02 287.825C215.257 283.954 219.847 281.462 224.856 280.856C227.547 280.53 230.276 280.76 232.875 281.53C235.474 282.3 237.888 283.594 239.967 285.333C242.047 287.072 243.748 289.219 244.965 291.64C246.183 294.062 246.891 296.708 247.047 299.414C247.202 302.12 246.802 304.83 245.869 307.375C244.937 309.92 243.493 312.248 241.627 314.213C239.76 316.179 237.511 317.742 235.017 318.804C232.524 319.867 229.839 320.407 227.128 320.392V320.392Z" fill="white"/>
<path d="M406.088 383H47.912C39.4967 382.87 31.2604 380.55 24.0149 376.268C16.7694 371.986 10.7649 365.889 6.59326 358.58C2.4216 351.27 0.226785 342.999 0.22516 334.583C0.223535 326.167 2.41515 317.895 6.58399 310.584L185.88 23.1759C190.236 16.1746 196.307 10.4012 203.518 6.40276C210.73 2.40434 218.842 0.31329 227.088 0.327711C235.334 0.342132 243.439 2.46155 250.637 6.48517C257.834 10.5088 263.885 16.3034 268.216 23.3199L447.224 310.248C451.463 317.555 453.717 325.843 453.764 334.291C453.811 342.738 451.648 351.051 447.49 358.404C443.332 365.757 437.324 371.896 430.061 376.21C422.799 380.525 414.534 382.865 406.088 383V383ZM213.224 39.7839L33.944 327.192C32.6219 329.633 31.9522 332.373 31.9996 335.149C32.047 337.924 32.81 340.64 34.2146 343.035C35.6193 345.429 37.6181 347.42 40.0177 348.815C42.4173 350.211 45.1364 350.963 47.912 351H406.088C408.894 350.957 411.64 350.184 414.056 348.756C416.472 347.329 418.474 345.296 419.865 342.858C421.255 340.421 421.987 337.663 421.987 334.857C421.987 332.051 421.255 329.293 419.864 326.856C419.864 326.856 240.856 39.8799 240.776 39.7839C239.303 37.4644 237.268 35.5545 234.859 34.2312C232.451 32.9078 229.748 32.214 227 32.214C224.252 32.214 221.549 32.9078 219.141 34.2312C216.732 35.5545 214.697 37.4644 213.224 39.7839V39.7839Z" fill="white"/>
</svg>
