<svg width="31" height="30" viewBox="0 0 31 30" fill="none" xmlns="http://www.w3.org/2000/svg">
<path d="M27.877 9.73133L30.0012 7.20123C30.2073 6.95502 30.1748 6.58859 29.9298 6.38245L28.2173 4.94522C27.9711 4.73965 27.6046 4.77159 27.3997 5.01781L25.423 7.3737C23.7889 6.1792 21.8604 5.37552 19.7635 5.08691V2.99756H22.2884C22.5717 2.99756 22.8011 2.76819 22.8011 2.4848V0.512756C22.8011 0.229376 22.5717 0 22.2884 0H13.8299C13.5465 0 13.3172 0.229376 13.3172 0.512756V2.4848C13.3172 2.76819 13.5465 2.99756 13.8299 2.99756H16.3548V5.07762C14.2771 5.361 12.3375 6.15714 10.686 7.36092L8.7192 5.01781C8.51305 4.77159 8.14779 4.73965 7.90157 4.94522L6.1891 6.38245C5.94288 6.58859 5.91094 6.95502 6.11767 7.20123L8.23315 9.72262C7.54909 10.5902 6.96723 11.5518 6.523 12.6046C6.30408 13.1209 6.54565 13.7172 7.06305 13.9362C7.58161 14.1562 8.17566 13.9124 8.39459 13.3961C10.0403 9.50486 13.834 6.99044 18.0603 6.99044C23.8435 6.99044 28.5494 11.6952 28.5494 17.4796C28.5494 23.2627 23.8435 27.9676 18.0603 27.9676C16.3693 27.9676 14.7567 27.5785 13.2649 26.8108C12.7672 26.5536 12.1534 26.7498 11.8962 27.2487C11.6389 27.7475 11.8352 28.3601 12.334 28.6174C14.0906 29.5227 16.0714 30 18.0603 30C24.9642 30 30.5819 24.3835 30.5819 17.4796C30.5807 14.5534 29.5645 11.866 27.877 9.73133Z" fill="#BDBDBD"/>
<path d="M20.2077 17.8671C23.6315 13.7941 23.8359 12.617 23.6048 12.3859C23.3725 12.1548 22.196 12.3574 18.1235 15.783C16.1852 17.4118 16.7955 18.3462 17.2194 18.7707C17.6445 19.1952 18.5788 19.8049 20.2077 17.8671Z" fill="#BDBDBD"/>
<path d="M11.963 16.3444C11.963 15.8636 11.5739 15.4734 11.0919 15.4734H0.871046C0.389067 15.4734 0 15.8636 0 16.3444C0 16.8253 0.389067 17.2155 0.871046 17.2155H11.0925C11.5745 17.2155 11.963 16.8258 11.963 16.3444Z" fill="#BDBDBD"/>
<path d="M11.0919 19.8772H5.17171C4.69089 19.8772 4.30066 20.2674 4.30066 20.7482C4.30066 21.2291 4.69089 21.6193 5.17171 21.6193H11.0919C11.5739 21.6193 11.963 21.2291 11.963 20.7482C11.963 20.2674 11.5745 19.8772 11.0919 19.8772Z" fill="#BDBDBD"/>
<path d="M11.0919 24.2812H2.55855C2.07773 24.2812 1.6875 24.6703 1.6875 25.1523C1.6875 25.6331 2.07773 26.0233 2.55855 26.0233H11.0919C11.5739 26.0233 11.9629 25.6331 11.9629 25.1523C11.9629 24.6703 11.5745 24.2812 11.0919 24.2812Z" fill="#BDBDBD"/>
</svg>
