<?xml version="1.0" encoding="UTF-8"?>
<svg width="19px" height="15px" viewBox="0 0 19 15" version="1.1" xmlns="http://www.w3.org/2000/svg" xmlns:xlink="http://www.w3.org/1999/xlink">
    <title>6F10288A-1CC6-4036-8BA0-874C0782E62F</title>
    <g id="Page-1" stroke="none" stroke-width="1" fill="none" fill-rule="evenodd">
        <g id="China-homepage" transform="translate(-1203.000000, -7506.000000)" fill="#fff" fill-rule="nonzero">
            <g id="Group-4" transform="translate(-1.000000, 7272.000000)">
                <g id="Group-2">
                    <g id="Group-3" transform="translate(1076.000000, 60.000000)">
                        <g id="wechat" transform="translate(128.249783, 174.000000)">
                            <path d="M11.89881,4.32684 L11.89881,4.32684 L12.006981,4.32684 L12.006981,4.32684 C12.2015521,4.31342172 12.3574942,4.1605373 12.3747728,3.96627 C12.3753302,3.89151732 12.3526498,3.81843621 12.3098598,3.7571394 C11.4805488,1.5071826 9.0791526,0 6.309975,0 C2.8340802,0 0,2.4230304 0,5.40855 C0.0301698144,7.0615002 0.861053965,8.59688807 2.2283226,9.5262594 L1.5071826,11.0190192 C1.43275487,11.1620756 1.46236486,11.3371575 1.57969557,11.4477836 C1.69702628,11.5584097 1.87354577,11.5776785 2.0119806,11.4949716 L3.9230016,10.4060502 C4.44089543,10.5892196 4.97802267,10.7126137 5.5239324,10.7738316 C5.63993137,10.7861715 5.75473314,10.7416301 5.83205558,10.6542844 C5.90937801,10.5669387 5.93966627,10.4475821 5.913348,10.3339362 C5.82824124,10.0209055 5.7798399,9.69903666 5.76912,9.37482 C5.76912,6.5912196 8.5166634,4.32684 11.89881,4.32684 Z M7.93254,2.88456 C8.33081462,2.88456 8.65368,3.20742538 8.65368,3.6057 C8.65368,4.00397462 8.33081462,4.32684 7.93254,4.32684 C7.53426538,4.32684 7.2114,4.00397462 7.2114,3.6057 C7.2114,3.20742538 7.53426538,2.88456 7.93254,2.88456 Z M4.32684,4.32684 C3.92856538,4.32684 3.6057,4.00397462 3.6057,3.6057 C3.6057,3.20742538 3.92856538,2.88456 4.32684,2.88456 C4.72511462,2.88456 5.04798,3.20742538 5.04798,3.6057 C5.04798,4.00397462 4.72511462,4.32684 4.32684,4.32684 Z" id="Shape"></path>
                            <path d="M17.30736,9.37482 C17.30736,6.9878466 14.8843296,5.04798 11.89881,5.04798 C8.9132904,5.04798 6.49026,6.9878466 6.49026,9.37482 C6.49026,11.7617934 8.9132904,13.70166 11.89881,13.70166 C12.4582759,13.7019328 13.0155441,13.6316685 13.557432,13.4925294 L15.3458592,14.386743 C15.3953051,14.4106919 15.44957,14.4230249 15.50451,14.422803 C15.6244301,14.4222026 15.7362057,14.3620235 15.8027262,14.2622427 C15.8692467,14.162462 15.8818061,14.0361386 15.8362344,13.9252134 L15.3458592,12.6992754 C16.517384,11.9917241 17.2545058,10.7424112 17.30736,9.37482 L17.30736,9.37482 Z M10.09596,8.65368 C9.69768538,8.65368 9.37482,8.33081462 9.37482,7.93254 C9.37482,7.53426538 9.69768538,7.2114 10.09596,7.2114 C10.4942346,7.2114 10.8171,7.53426538 10.8171,7.93254 C10.8171,8.33081462 10.4942346,8.65368 10.09596,8.65368 Z M13.70166,8.65368 C13.3033854,8.65368 12.98052,8.33081462 12.98052,7.93254 C12.98052,7.53426538 13.3033854,7.2114 13.70166,7.2114 C14.0999346,7.2114 14.4228,7.53426538 14.4228,7.93254 C14.4228,8.33081462 14.0999346,8.65368 13.70166,8.65368 Z" id="Shape"></path>
                        </g>
                    </g>
                </g>
            </g>
        </g>
    </g>
</svg>