<svg width="30" height="30" xmlns="http://www.w3.org/2000/svg"><g fill="none" fill-rule="evenodd"><path d="M0 0h30v30H0z"/><path d="M1 1h28v28H1z"/><path d="M12.144 14H5.056A1.864 1.864 0 013.2 12.144V5.056A1.864 1.864 0 015.056 3.2h7.08a1.864 1.864 0 011.856 1.856v7.08A1.864 1.864 0 0112.144 14zm-7.08-9.6a.656.656 0 00-.656.656v7.08c0 .362.294.656.656.656h7.08a.656.656 0 00.656-.656v-7.08a.656.656 0 00-.656-.656h-7.08zM24.944 14h-7.088A1.864 1.864 0 0116 12.144V5.056A1.864 1.864 0 0117.856 3.2h7.08a1.864 1.864 0 011.856 1.856v7.08A1.864 1.864 0 0124.944 14zm-7.08-9.6a.656.656 0 00-.656.656v7.08c0 .362.294.656.656.656h7.08a.656.656 0 00.656-.656v-7.08a.656.656 0 00-.656-.656h-7.08zM24.944 26.8h-7.088A1.864 1.864 0 0116 24.944v-7.088A1.864 1.864 0 0117.856 16h7.08a1.864 1.864 0 011.856 1.856v7.08a1.864 1.864 0 01-1.848 1.864zm-7.08-9.6a.656.656 0 00-.656.656v7.08c0 .362.294.656.656.656h7.08a.656.656 0 00.656-.656v-7.08a.656.656 0 00-.656-.656h-7.08z" fill="#FFF" fill-rule="nonzero"/><path d="M12.144 26.8A8.952 8.952 0 013.2 17.856 1.864 1.864 0 015.056 16h7.08a1.864 1.864 0 011.856 1.856v7.08a1.864 1.864 0 01-1.848 1.864zm-7.08-9.6a.656.656 0 00-.656.656 7.752 7.752 0 007.744 7.744.656.656 0 00.656-.656v-7.088a.656.656 0 00-.656-.656H5.064z" fill-opacity=".775" fill="#FFF" fill-rule="nonzero"/></g></svg>