<svg width="30" height="30" xmlns="http://www.w3.org/2000/svg"><g fill="none" fill-rule="evenodd"><path d="M0 0h30v30H0z"/><g fill="#FFF" fill-rule="nonzero"><path d="M13.666 11.131h-.048c-.032-.001-.08-.001-.14-.006-.118-.011-.297-.02-.516-.056a7.675 7.675 0 01-1.254-.304c-.165-.055-.336-.12-.515-.19-.177-.074-.36-.158-.55-.25a8.79 8.79 0 01-.576-.328 6.89 6.89 0 01-.591-.431 4.85 4.85 0 01-.587-.586 3.092 3.092 0 01-.276-.382 3.231 3.231 0 01-.245-.468 2.656 2.656 0 01-.072-1.907c.076-.214.178-.405.288-.58l.085-.126.022-.031.03-.04.026-.036.027-.035.033-.043.09-.11c.115-.136.23-.259.375-.382a3.02 3.02 0 011.086-.62 2.529 2.529 0 011.394-.016c.215.057.408.139.579.234.171.094.321.198.456.305.271.213.478.445.65.674.088.114.165.228.239.34.071.114.135.229.193.341.118.226.22.444.3.663.164.432.268.844.337 1.225a7.408 7.408 0 01.1 1.841c-.013.221-.046.396-.06.514-.009.058-.016.127-.021.157-.006.031-.005.07-.005.07l-.145.029-.042-.187c-.026-.107-.066-.275-.12-.473a13.775 13.775 0 00-.545-1.612 9.14 9.14 0 00-.486-1.017 5.588 5.588 0 00-.715-1.016 3.003 3.003 0 00-.478-.43 1.687 1.687 0 00-.573-.272 1.121 1.121 0 00-.615.024c-.2.064-.384.186-.548.332a3.081 3.081 0 00-.233.238c-.036.041-.071.083-.108.13l-.027.035-.012.015-.012.016-.046.067c-.12.179-.198.379-.22.585-.02.207.013.418.086.617.07.2.178.386.298.561.244.348.544.646.843.908.301.262.606.488.894.687.58.393 1.082.695 1.442.892.36.199.57.3.57.3l-.062.134zM16.833 11.455l.047.012c.03.008.076.022.134.033.118.023.292.064.512.09.221.03.489.054.797.063.155.005.318.001.492-.002.174-.007.356-.021.548-.038.19-.022.39-.051.598-.087a8.71 8.71 0 00.644-.154c.222-.066.45-.148.688-.248.237-.103.478-.234.728-.398.126-.084.249-.178.373-.29a3.24 3.24 0 00.365-.38 2.647 2.647 0 00.603-1.81 2.947 2.947 0 00-.114-.639l-.046-.144-.013-.036-.017-.047-.016-.04-.016-.042c-.005-.014-.009-.026-.02-.051l-.055-.131a3.224 3.224 0 00-.252-.472 3.022 3.022 0 00-.87-.899 2.525 2.525 0 00-1.334-.406 2.494 2.494 0 00-.621.063c-.19.042-.364.1-.524.165-.32.129-.582.293-.812.465a4.706 4.706 0 00-.606.533 5.508 5.508 0 00-.472.552c-.28.369-.494.736-.667 1.082a7.364 7.364 0 00-.612 1.74c-.049.215-.066.393-.084.51-.009.058-.022.126-.025.157a.341.341 0 01-.015.067l.13.07.094-.168a14.393 14.393 0 01.65-1.045c.162-.235.355-.496.571-.77a9.09 9.09 0 01.751-.84c.285-.278.606-.553.972-.776.182-.111.376-.21.58-.28.202-.068.415-.11.625-.1.209.011.411.077.584.196.174.118.317.285.433.472a3.041 3.041 0 01.224.45l.017.04.006.018.007.019.026.077c.065.205.083.419.046.624a1.405 1.405 0 01-.254.567c-.124.172-.28.322-.444.456a5.165 5.165 0 01-1.063.635c-.363.167-.718.3-1.05.41-.667.215-1.234.365-1.635.453-.4.09-.63.127-.63.127l.022.147zM13.7 12.64h2.97s.062-1.454-1.454-1.454S13.7 12.64 13.7 12.64zM18.4 13.216h6.336c.636 0 1.152.516 1.152 1.152v4.32H18.4v-5.472zM5.152 13.216h6.912v5.472H4v-4.32c0-.636.516-1.152 1.152-1.152zM12.64 12.928h5.184v15.84H12.64zM5.152 19.264h6.912v9.504h-5.76a1.152 1.152 0 01-1.152-1.152v-8.352zM18.4 19.264h6.048v8.352c0 .636-.516 1.152-1.152 1.152H18.4v-9.504z"/></g><path d="M28.076 6.01l-.81-.206c-.329-.083-.665-.419-.749-.747l-.205-.811c-.082-.328-.219-.328-.302 0l-.206.812c-.083.328-.42.665-.747.747l-.812.206c-.327.083-.327.219 0 .302l.812.206c.327.083.664.419.747.747l.206.811c.083.328.22.328.302 0l.205-.811c.084-.328.42-.664.748-.747l.811-.206c.328-.084.328-.219 0-.303zM20.83 1.395l-.564-.143a.793.793 0 01-.519-.518L19.605.17c-.057-.228-.152-.228-.21 0l-.143.563a.79.79 0 01-.518.519l-.564.143c-.227.057-.227.152 0 .21l.564.142c.227.058.46.29.518.518l.143.563c.058.228.153.228.21 0l.142-.563a.793.793 0 01.52-.518l.562-.143c.228-.058.228-.152 0-.21zM4.772 10.86l-.75-.19c-.304-.078-.615-.388-.692-.692l-.19-.75c-.076-.304-.203-.304-.28 0l-.19.75c-.077.304-.389.616-.692.692l-.751.19c-.303.078-.303.203 0 .28l.751.19c.303.078.615.388.692.692l.19.75c.077.304.204.304.28 0l.19-.75c.077-.304.388-.614.692-.691l.75-.19c.304-.079.304-.203 0-.281zM6.83 5.395l-.564-.143a.793.793 0 01-.519-.518l-.142-.563c-.057-.228-.152-.228-.21 0l-.143.563a.79.79 0 01-.518.519l-.564.143c-.227.057-.227.152 0 .21l.564.142c.227.058.46.29.518.518l.143.563c.058.228.153.228.21 0l.142-.563a.793.793 0 01.52-.518l.562-.143c.228-.058.228-.152 0-.21z" fill="#FFF" fill-rule="nonzero"/></g></svg>