<svg width="30" height="30" xmlns="http://www.w3.org/2000/svg"><g fill="#FFF" fill-rule="evenodd"><g fill-rule="nonzero"><path d="M19.67 8.195l-3.617 5.136a.697.697 0 01-.974.17.701.701 0 01-.17-.976l.204-.29c-.126-.112-.252-.224-.38-.332a21.592 21.592 0 00-.638-.536l.072-.09c.22-.382.396-.792.53-1.22a23.574 23.574 0 01.846.696c.128.108.254.218.38.33l2.6-3.694a.702.702 0 011.146.806zM25.881 18.977a.695.695 0 01-.97-.194c-.63-.944-1.542-1.48-2.71-1.596a5.221 5.221 0 00-2.41.348c-.26.108-.438.212-.504.278a.7.7 0 01-.988-.99c.158-.158.388-.314.67-.456a25.953 25.953 0 00-.466-.592h-.002a29.872 29.872 0 00-1.996-2.216l.466-.662.352-.5.074.074c.8.8 1.536 1.614 2.192 2.42.28.346.54.684.778 1.012a6.63 6.63 0 011.972-.11c1.584.158 2.876.922 3.736 2.214a.7.7 0 01-.194.97zM25.754 6.494l-5.97 5.159a.7.7 0 00.915 1.059l5.97-5.158a.7.7 0 00-.915-1.06zM29.95 11.884a.5.5 0 00-.403-.34l-1.556-.226-.696-1.41a.5.5 0 00-.896 0l-.696 1.41-1.556.226a.5.5 0 00-.277.853l1.126 1.097-.266 1.55a.5.5 0 00.726.526l1.391-.731 1.392.731a.5.5 0 00.725-.527l-.266-1.55 1.126-1.097a.5.5 0 00.127-.512zm-2.138 1.077a.5.5 0 00-.144.443l.139.81-.728-.383a.5.5 0 00-.465 0l-.727.383.139-.81a.5.5 0 00-.144-.443l-.589-.573.814-.119a.5.5 0 00.376-.273l.364-.737.363.737a.5.5 0 00.377.273l.813.119-.588.573zM4.673 4.02l-.266 1.55a.5.5 0 00.726.526l1.391-.731 1.391.731a.5.5 0 00.726-.527l-.266-1.55 1.126-1.097a.5.5 0 00-.277-.853l-1.556-.226-.696-1.41a.5.5 0 00-.896 0l-.696 1.41-1.556.226a.5.5 0 00-.277.853L4.673 4.02zm1.11-1.225a.5.5 0 00.377-.273l.364-.737.363.737a.5.5 0 00.377.273l.813.119-.588.573a.5.5 0 00-.144.443l.139.81-.728-.383a.5.5 0 00-.465 0l-.727.383.138-.81a.5.5 0 00-.143-.443l-.589-.573.814-.119z"/><path d="M21.497 17.671a4.814 4.814 0 00-1.436.298c.4.684.566 1.126.634 1.382.037.14.05.234.052.296l-.013.005a1.351 1.351 0 01-.289-.049c-.274-.074-.756-.256-1.51-.712a18.868 18.868 0 01-2.068-1.482 29.687 29.687 0 01-2.312-2.094 30.433 30.433 0 01-2.094-2.312 18.603 18.603 0 01-1.482-2.068c-.456-.754-.638-1.236-.712-1.51a1.35 1.35 0 01-.049-.29l.005-.011c.06.002.156.014.294.051.274.072.758.254 1.512.712.04.024.082.05.124.078.138.084.278.174.42.272-.097.18-.205.354-.326.515a.7.7 0 101.119.842c.268-.357.49-.75.666-1.17l.022-.056c.036-.089.07-.178.102-.268.014-.038.025-.077.038-.115.023-.071.046-.143.067-.215l.012-.039a6.665 6.665 0 00.03-3.383c-.403-1.61-1.34-2.898-2.507-3.444a.7.7 0 10-.593 1.269c.778.363 1.445 1.326 1.74 2.514.184.735.211 1.48.093 2.177l-.001-.001a28.07 28.07 0 00-.282-.174c-.718-.436-1.35-.728-1.876-.868-.736-.194-1.302-.1-1.682.28a1.267 1.267 0 00-.35.678L.083 28.865a.7.7 0 00.922.921l20.078-8.759a1.27 1.27 0 00.686-.352c.38-.38.474-.946.28-1.682-.102-.386-.288-.828-.552-1.322zm-11.716-6.01c.418.69.954 1.438 1.592 2.224.656.806 1.392 1.62 2.192 2.42a31.71 31.71 0 002.42 2.192 19.928 19.928 0 002.224 1.59c.232.141.454.265.667.376l-2.057.898c-3.407.107-6.716-.973-8.568-2.826-.685-.686-1.1-1.424-1.207-2.125l2.363-5.416c.11.213.234.435.374.667zM8.714 24.896c-1.794-.052-3.17-.489-3.91-1.251a1.953 1.953 0 01-.516-.916l2.164-4.962a5.826 5.826 0 001.092 1.474c1.358 1.359 3.838 2.71 7.146 3.048l-5.976 2.607zm-4.955-.954c.097.138.204.272.327.4.488.503 1.338 1.066 2.784 1.359l-4.79 2.09 1.679-3.849zM24.3 4.884a2.004 2.004 0 002.002-2.002A2.004 2.004 0 0024.3.88a2.004 2.004 0 00-2.003 2.002c0 1.104.899 2.002 2.003 2.002zm0-3.004a1.003 1.003 0 010 2.004 1.003 1.003 0 010-2.004zM17.276 5.946c.983 0 1.782-.8 1.782-1.782 0-.983-.799-1.782-1.782-1.782s-1.782.799-1.782 1.782.8 1.782 1.782 1.782zm0-2.564a.783.783 0 11-.002 1.566.783.783 0 01.002-1.566zM25.802 21.37c-.983 0-1.782.8-1.782 1.782 0 .983.799 1.783 1.782 1.783.982 0 1.782-.8 1.782-1.783 0-.982-.8-1.782-1.782-1.782zm0 2.565a.783.783 0 010-1.565.783.783 0 010 1.565z"/></g><path d="M10.302 10L2 28.642l18.426-8.402c-2.799-1.956-4.831-3.574-6.098-4.854-1.266-1.281-2.608-3.076-4.026-5.386z" stroke="#FFF"/></g></svg>