<svg width="30" height="30" xmlns="http://www.w3.org/2000/svg"><g fill="none" fill-rule="evenodd"><path d="M0 0h30v30H0z"/><path d="M25.306 23.023l-1.026.256c-.232-.98-.675-2.709-1.014-4.066-.434-1.744-1.778-2.41-4.272-3.607a89.828 89.828 0 01-2.558-1.264 89.349 89.349 0 011.665-2.318c1.64-2.227 2.544-3.454 2.109-5.197-.339-1.358-.759-3.092-1.014-4.066l.996-.249c.49-.122.778-.653.656-1.142-.122-.489-.626-.823-1.115-.7L4.127 4.56c-.489.122-.777.653-.655 1.142.122.49.626.823 1.115.701l.996-.248c.232.98.675 2.708 1.014 4.066.435 1.743 1.808 2.402 4.302 3.599.727.349 1.58.759 2.558 1.264a89.262 89.262 0 01-1.665 2.318c-1.64 2.227-2.543 3.454-2.109 5.197.339 1.358.759 3.092 1.014 4.067l-.996.248c-.49.122-.778.653-.656 1.143.122.489.626.822 1.115.7l15.606-3.89c.489-.123.777-.654.655-1.143-.122-.49-.626-.822-1.115-.7zM8.961 11.094c-.524-.376-.792-.737-.916-1.234-.338-1.359-.783-3.093-1.014-4.066l10.717-2.672c.253.967.675 2.707 1.014 4.066.124.497.057.941-.23 1.52l-9.57 2.386zM22.832 23.64s-2.704-.674-4.83-.5a.953.953 0 00-1.183-1.004.956.956 0 00-.578 1.435c-1.968.837-4.066 2.726-4.066 2.726-.253-.967-.675-2.707-1.014-4.067-.252-1.01.252-1.796 1.833-3.943.417-.567.897-1.218 1.429-1.977a.956.956 0 001.775-.412c.81.41 1.526.755 2.15 1.054 2.404 1.153 3.218 1.611 3.47 2.621.339 1.36.783 3.094 1.014 4.067zm-5.756-4.427a.956.956 0 11-1.855.462.956.956 0 011.855-.462z" fill="#FFF" fill-rule="nonzero"/></g></svg>