<svg width="30" height="30" xmlns="http://www.w3.org/2000/svg"><g fill="none" fill-rule="evenodd"><path d="M0 0h30v30H0z"/><path d="M6.076 14.01l-.81-.206c-.329-.083-.665-.419-.749-.747l-.205-.811c-.082-.328-.219-.328-.302 0l-.206.812c-.083.328-.42.665-.747.747l-.812.206c-.327.083-.327.219 0 .302l.812.206c.327.083.664.419.747.747l.206.811c.083.328.22.328.302 0l.205-.811c.084-.328.42-.664.748-.747l.811-.206c.328-.084.328-.219 0-.303zM24.83 5.395l-.563-.143a.793.793 0 01-.519-.518l-.142-.563c-.057-.228-.152-.228-.21 0l-.143.563a.79.79 0 01-.518.519l-.564.143c-.227.057-.227.152 0 .21l.564.142c.227.058.46.29.518.518l.143.563c.058.228.153.228.21 0l.142-.563a.793.793 0 01.52-.518l.562-.143c.228-.058.228-.152 0-.21zm4 13l-.563-.143a.793.793 0 01-.519-.518l-.142-.563c-.057-.228-.152-.228-.21 0l-.143.563a.79.79 0 01-.518.519l-.564.143c-.227.057-.227.152 0 .21l.564.142c.227.058.46.29.518.518l.143.563c.058.228.153.228.21 0l.142-.563a.793.793 0 01.52-.518l.562-.143c.228-.058.228-.152 0-.21z" fill="#FFF" fill-rule="nonzero"/><g fill="#FFF"><path d="M23.342 19.257l2.78 3.673c-4.567 2.581-10.622 3.276-15.982 2.184l13.202-5.857zM10.636 8.438l4.368-5.857 1.687 2.283zM10.04 11.614l.298-.397c-.496-.199-.893-.397-1.39-.596l.298-.397 8.04-4.566 3.674 4.963c-.398.199-.894.397-1.29.596l3.771 5.062-13.4-4.665zm6.056-1.191c.595 0 1.092.496 1.092 1.092 0 .595-.497 1.092-1.092 1.092a1.102 1.102 0 01-1.092-1.092c0-.596.496-1.092 1.092-1.092zM22.15 17.57l.696.893L8.65 24.816c-1.787-.496-3.375-1.092-4.765-1.886l3.871-5.36a11.85 11.85 0 01-1.588-.794l3.276-4.368 13.698 4.765c-.397.1-.694.298-.992.397zm-4.565 0c.794 0 1.39.595 1.39 1.29 0 .695-.596 1.29-1.39 1.29-.695 0-1.29-.595-1.29-1.29 0-.695.595-1.29 1.29-1.29zm-4.269-2.482c.298 0 .596.199.596.596 0 .298-.298.595-.596.595-.397 0-.695-.297-.695-.595 0-.397.298-.596.695-.596zM17.783 25.908v2.382c0 .894-.695 1.49-1.489 1.49h-2.68c-.794 0-1.489-.596-1.489-1.49v-2.382a26.95 26.95 0 005.658 0z"/><path d="M15.004 0l.397 1.29h1.39l-1.092.795.397 1.19-1.092-.793-1.092.794.397-1.191-1.092-.795h1.39z"/></g></g></svg>