<svg width="30" height="30" xmlns="http://www.w3.org/2000/svg"><g fill="none" fill-rule="evenodd"><path d="M0 0h30v30H0z"/><path d="M8.63 12.665c-.01.12-.018.242-.018.365l1.816 12.395c0 2.416 1.95 4.374 4.357 4.374h3.63c2.407 0 4.357-1.958 4.357-4.374l1.816-12.395c0-.123-.008-.244-.019-.365H8.631zM28.077 5.01l-.81-.206c-.329-.083-.665-.419-.749-.747l-.205-.811c-.082-.328-.219-.328-.302 0l-.206.812c-.083.328-.42.665-.747.747l-.812.206c-.327.083-.327.219 0 .302l.812.206c.327.083.664.419.747.747l.206.811c.083.328.22.328.302 0l.205-.811c.084-.328.42-.664.748-.747l.811-.206c.328-.084.328-.219 0-.303zm-23 7l-.81-.206c-.329-.083-.665-.419-.749-.747l-.205-.811c-.082-.328-.219-.328-.302 0l-.206.812c-.083.328-.42.665-.747.747l-.812.206c-.327.083-.327.219 0 .302l.812.206c.327.083.664.419.747.747l.206.811c.083.328.22.328.302 0l.205-.811c.084-.328.42-.664.748-.747l.811-.206c.328-.084.328-.219 0-.303zM22.83 1.395l-.563-.143a.793.793 0 01-.519-.518L21.605.17c-.057-.228-.152-.228-.21 0l-.143.563a.79.79 0 01-.518.519l-.564.143c-.227.057-.227.152 0 .21l.564.142c.227.058.46.29.518.518l.143.563c.058.228.153.228.21 0l.142-.563a.793.793 0 01.52-.518l.562-.143c.228-.058.228-.152 0-.21zm-15 4l-.563-.143a.793.793 0 01-.519-.518l-.142-.563c-.057-.228-.152-.228-.21 0l-.143.563a.79.79 0 01-.518.519l-.564.143c-.227.057-.227.152 0 .21l.564.142c.227.058.46.29.518.518l.143.563c.058.228.153.228.21 0l.142-.563a.793.793 0 01.52-.518l.562-.143c.228-.058.228-.152 0-.21zM16.6 23.079a2.88 2.88 0 110-5.76 2.88 2.88 0 010 5.76zm.44-14.7l-1.995-7.098-1.403.376 1.887 6.723h1.511zm7.548.64H8.612c-.802 0-1.452.654-1.452 1.46 0 .805.65 1.457 1.452 1.457h15.976c.802 0 1.452-.652 1.452-1.458 0-.805-.65-1.458-1.452-1.458z" fill="#FFF" fill-rule="nonzero"/></g></svg>