<svg width="31" height="26" xmlns="http://www.w3.org/2000/svg"><g fill="#FFF" fill-rule="nonzero"><path d="M15.688 9.622c-.14-.103-.303-.122-.49-.057a.514.514 0 00-.355.347c-.078.262-.038.623.122 1.086.16.462.35.773.57.93a.52.52 0 00.498.06.497.497 0 00.347-.35c.079-.262.038-.622-.122-1.086-.158-.46-.348-.77-.57-.93zM23.128 12.021c-.143-.101-.306-.119-.493-.054-.187.063-.303.18-.35.35-.077.26-.035.623.123 1.084.16.463.35.773.571.932a.502.502 0 00.488.057.523.523 0 00.358-.348c.076-.26.036-.622-.123-1.086-.16-.461-.35-.774-.574-.935z"/><path d="M30.508 15.474l-.274-.797-.822-2.388-.547-1.594a2.526 2.526 0 11-1.644-4.779l-.547-1.592-.275-.797-.82-2.39A1.687 1.687 0 0023.436.093L8.243 5.317l.949 2.767c.075.22-.04.46-.26.537l-.798.273a.423.423 0 01-.536-.26L6.65 5.865 1.139 7.76A1.685 1.685 0 00.092 9.9l.547 1.594.549 1.593.548 1.593a2.527 2.527 0 011.643 4.779l.548 1.591.547 1.594.548 1.592a1.683 1.683 0 002.141 1.045l5.68-1.952-1.036-2.78a.422.422 0 01.27-.53l.803-.257a.42.42 0 01.53.273l1.026 2.747 15.027-5.167a1.687 1.687 0 001.045-2.14zM9.313 13.41l-.82-2.39a.422.422 0 01.261-.535l.798-.273a.419.419 0 01.534.261l.82 2.387c.076.22-.04.46-.26.537l-.797.274a.422.422 0 01-.536-.261zm2.977 4.765l-.798.273a.42.42 0 01-.535-.26l-.822-2.39a.423.423 0 01.262-.535l.797-.273a.422.422 0 01.536.261l.82 2.389a.422.422 0 01-.26.535zm2.755-5.336a1.85 1.85 0 01-1.033-.53 2.609 2.609 0 01-.624-1.005 2.583 2.583 0 01-.125-1.173c.049-.4.212-.75.489-1.053.278-.3.65-.534 1.117-.692.687-.237 1.295-.227 1.824.027.531.258.907.712 1.133 1.365.227.656.208 1.248-.053 1.778-.261.527-.735.909-1.422 1.145-.466.16-.9.206-1.306.138zm2.346 4.481l1.713-10.393 1.693-.581-1.727 10.395-1.679.58zm7.827-3.364c-.261.53-.736.913-1.426 1.15-.464.159-.9.206-1.306.137a1.866 1.866 0 01-1.036-.53 2.633 2.633 0 01-.618-1.005 2.594 2.594 0 01-.129-1.173c.047-.398.21-.749.489-1.055.28-.303.65-.535 1.113-.695.69-.236 1.301-.227 1.831.03.532.259.908.713 1.135 1.367.224.654.207 1.246-.053 1.774z"/></g></svg>