<svg width="30" height="30" xmlns="http://www.w3.org/2000/svg"><g fill="none" fill-rule="evenodd"><path d="M0 0h30v30H0z"/><path d="M27.718 21.08l-3.044-1.757 2.638-1.555a1.023 1.023 0 10-1.039-1.762l-3.634 2.142-5.479-3.163 5.478-3.163 3.635 2.143a1.022 1.022 0 101.039-1.762l-2.639-1.556 3.045-1.758a1.023 1.023 0 00-1.023-1.771l-3.044 1.758-.027-3.063a1.022 1.022 0 10-2.046.018l.038 4.22-5.478 3.163V6.888l3.673-2.076a1.023 1.023 0 00-1.007-1.781l-2.666 1.507V1.023a1.023 1.023 0 00-2.046 0v3.515l-2.667-1.507a1.023 1.023 0 10-1.006 1.78l3.673 2.077v6.326L8.613 10.05l.038-4.219A1.023 1.023 0 007.638 4.8h-.01c-.56 0-1.017.452-1.022 1.014l-.028 3.063-3.044-1.758a1.023 1.023 0 10-1.022 1.771l3.044 1.758-2.639 1.556a1.023 1.023 0 001.04 1.762l3.634-2.143 5.479 3.163-5.48 3.164-3.634-2.143a1.023 1.023 0 00-1.039 1.761l2.639 1.556-3.044 1.757a1.023 1.023 0 001.022 1.772l3.044-1.758.028 3.063a1.023 1.023 0 001.022 1.014h.01a1.023 1.023 0 001.013-1.032l-.038-4.22 5.48-3.163v6.326l-3.674 2.076a1.023 1.023 0 001.006 1.781l2.667-1.507v3.515a1.023 1.023 0 002.046 0v-3.515l2.666 1.507a1.022 1.022 0 101.007-1.78l-3.673-2.077v-6.326l5.478 3.163-.039 4.22a1.023 1.023 0 001.014 1.032h.01c.56 0 1.016-.452 1.022-1.013l.028-3.064 3.044 1.758a1.023 1.023 0 001.023-1.771z" fill="#FFF" fill-rule="nonzero"/></g></svg>