<svg width="31" height="30" xmlns="http://www.w3.org/2000/svg"><g fill="none" fill-rule="evenodd"><path d="M1 0h30v30H1z"/><path d="M23.252 26.034a48.023 48.023 0 01-3.534-1.264 9.388 9.388 0 00-.098-7.304 11.157 11.157 0 00-7.233-5.838C6.708 9.968 2.705 8.55 2.665 8.535a1 1 0 00-1.32.767c-1.572 8.835.454 14.62 6.02 17.195a11.302 11.302 0 004.813 1.048 19.576 19.576 0 005.746-1.058l.414-.123a51.26 51.26 0 004.31 1.576 1 1 0 10.604-1.906zM8.206 24.682C3.801 22.644 2.095 17.98 3.128 10.81c1.593.54 4.745 1.582 8.698 2.737a9.175 9.175 0 015.97 4.74 7.42 7.42 0 01.078 5.688c-9.065-4.143-11.308-9.14-11.333-9.198a1 1 0 00-1.846.77c.106.256 2.256 5.208 10.844 9.535a10.676 10.676 0 01-7.333-.401zm17.802-5.977a1 1 0 01-1.604-1.196c2.923-3.922 4.234-7.454 3.79-10.215a6.198 6.198 0 00-.191-.82A6.49 6.49 0 0126.96 7.96c-2.646 2.898-3.092 4.746-3 5.786.018.496.233.965.599 1.301.433.331.526.946.21 1.39a.989.989 0 01-1.366.243 3.743 3.743 0 01-1.424-2.643c-.24-2.117.938-4.615 3.504-7.426 1.609-1.762.766-2.705.757-2.715a1 1 0 011.289-1.512 6.974 6.974 0 012.624 4.513c.576 3.37-.819 7.342-4.146 11.808z" fill="#FFF" fill-rule="nonzero"/></g></svg>