<svg width="31" height="30" xmlns="http://www.w3.org/2000/svg"><g fill="none" fill-rule="evenodd"><path d="M0 0h31v30H0z"/><g fill="#FFF" fill-rule="nonzero"><path d="M9.267 13.263H4.234a.607.607 0 110-1.215h5.033a.607.607 0 110 1.215zM9.094 21.745H4.386a.607.607 0 110-1.215h4.708a.606.606 0 01.607.607.593.593 0 01-.607.608zM8.356 17.493H2.607a.607.607 0 110-1.215h5.749a.606.606 0 01.607.607.581.581 0 01-.607.608zM28.097 9.423a1.982 1.982 0 01-.325 1.063 10.512 10.512 0 00-2.864-2.495c.355-.308.81-.478 1.28-.477a1.9 1.9 0 011.909 1.909zM11.069 9.423c.005.378.117.747.325 1.063a10.511 10.511 0 012.864-2.495 1.946 1.946 0 00-1.28-.477 1.885 1.885 0 00-1.909 1.909z"/><g><path d="M28.834 15.281a9.293 9.293 0 00-7.571-7.571c-.8-.152-.846-.3-.781-1.128l.022-.217h1.519c.412-.022.607-.174.651-.542a6.956 6.956 0 000-1.345.482.482 0 00-.5-.477h-2.559c-.889 0-1.714 0-2.516.022a.611.611 0 00-.607.629V5.5c0 .629.26.868.889.868h1.562l.022.217c.087.8.043.955-.738 1.085a.633.633 0 00-.2.043c-.065.022-.108.022-.174.043a9.234 9.234 0 00-5.918 3.924 9.138 9.138 0 00-1.453 6.942 9.293 9.293 0 009.155 7.593 8.933 8.933 0 002-.217 9.37 9.37 0 007.197-10.717zm-3.818 7.007a7.54 7.54 0 01-5.337 2.234h-.064a7.636 7.636 0 01.043-15.272h.047a7.511 7.511 0 015.38 2.256 7.68 7.68 0 012.191 5.423 7.448 7.448 0 01-2.26 5.359z"/></g><path d="M20.874 17.866c-.292.373-.741.59-1.215.586-.35.004-.69-.12-.955-.347a1.546 1.546 0 01-.586-1.041 1.566 1.566 0 01.911-1.606l.022-3.1a.593.593 0 01.586-.586.588.588 0 01.586.607l-.022 3.059c.14.055.27.127.39.217.327.254.538.63.586 1.041.069.415-.041.84-.303 1.17z"/></g></g></svg>