<svg width="31" height="30" xmlns="http://www.w3.org/2000/svg"><g fill="none" fill-rule="evenodd"><path d="M0 0h30v30H0z"/><g fill-rule="nonzero"><path d="M15.236 2.096C15.236.939 14.326 0 13.203 0H3.04c-1.123 0-2.033.938-2.033 2.095v10.473c0 1.157.91 2.094 2.033 2.094h10.164c1.123 0 2.033-.937 2.033-2.094V2.096zm-4.38 8.86a.415.415 0 01-.194.042.504.504 0 01-.467-.325l-.93-2.293H6.978l-.93 2.293a.493.493 0 01-.66.283.523.523 0 01-.275-.68l.975-2.415v-.005l.158-.377L7.654 3.99a.502.502 0 01.467-.324c.203 0 .391.125.468.324l2.54 6.284a.523.523 0 01-.274.681z" fill="#F5F3F1"/><path fill="#FFF" d="M7.4 7.332h1.443l-.722-1.78zM27.433 14.663H17.269c-1.123 0-2.033.938-2.033 2.095v10.473c0 1.157.91 2.095 2.033 2.095h10.164c1.123 0 2.033-.938 2.033-2.095V16.758c0-1.157-.91-2.095-2.033-2.095zm1.016 12.568c0 .576-.457 1.047-1.016 1.047H17.269c-.56 0-1.017-.47-1.017-1.047V16.758c0-.576.458-1.047 1.017-1.047h10.164c.559 0 1.016.471 1.016 1.047v10.473z"/><path d="M24.892 20.424c.28 0 .508-.235.508-.524a.516.516 0 00-.508-.524h-2.033v-.523a.516.516 0 00-.508-.524.516.516 0 00-.508.524v.523H19.81a.516.516 0 00-.508.524c0 .29.227.524.508.524h.503c.037.73.266 2.013 1.285 3.202-.5.382-1.134.734-1.95 1.014a.527.527 0 00-.32.662.51.51 0 00.643.331c1.003-.345 1.778-.79 2.38-1.278.602.489 1.377.933 2.38 1.278a.51.51 0 00.643-.33.527.527 0 00-.321-.663c-.817-.28-1.45-.631-1.951-1.012a5.348 5.348 0 001.287-3.204h.503zm-2.545 2.504a4.137 4.137 0 01-1.026-2.504h2.056a4.19 4.19 0 01-1.03 2.504zM16.845 8.128a.51.51 0 00.1.123c.007.007.01.017.02.024l2.032 1.57a.495.495 0 00.711-.104.533.533 0 00-.102-.733l-.813-.628h1.525c.145 0 3.557.047 3.557 4.189 0 .29.228.523.509.523.28 0 .508-.234.508-.523 0-5.177-4.528-5.237-4.574-5.237h-1.525l.813-.628a.533.533 0 00.102-.733.497.497 0 00-.711-.105l-2.033 1.571c-.008.007-.012.017-.02.024a.51.51 0 00-.099.123c-.01.018-.025.033-.034.052a.528.528 0 00-.05.22c0 .08.02.153.05.22.009.02.023.034.034.052zM13.627 21.199a.51.51 0 00-.1-.123c-.008-.007-.01-.017-.02-.024l-2.032-1.57a.498.498 0 00-.711.104.533.533 0 00.102.733l.813.628h-1.525c-.145 0-3.557-.047-3.557-4.189a.516.516 0 00-.509-.524.516.516 0 00-.508.524c0 5.177 4.528 5.237 4.574 5.237h1.525l-.813.628a.533.533 0 00-.102.733.501.501 0 00.711.105l2.033-1.571c.008-.007.011-.017.02-.024a.508.508 0 00.099-.123c.01-.018.025-.033.034-.052.03-.067.05-.14.05-.22 0-.08-.02-.153-.05-.22-.009-.02-.023-.034-.034-.052z" fill="#FFF"/></g><path d="M12.807.002H3.943c-1.352-.019-2.19.26-2.512.833-.114.204-.36.502-.42.809-.01.051 0 .105 0 .16.001.08-.002.162 0 .244.004.187-.003.378 0 .575.008.558 0 1.143 0 1.717v7.105c.052-.254.192-.625.42-1.114.242-.518.605-1.608 1.69-3.797.7-1.41 4.213-4.333 5.24-4.89.917-.498 2.399-1.045 4.446-1.642z" fill="#FFF"/></g></svg>