<?xml version="1.0" encoding="UTF-8"?>
<svg width="15px" height="15px" viewBox="0 0 15 15" version="1.1" xmlns="http://www.w3.org/2000/svg" xmlns:xlink="http://www.w3.org/1999/xlink">
    <title>FDB0E420-3A8C-4D25-B150-69D5106B9D87</title>
    <g id="Offer-banner-across-website" stroke="none" stroke-width="1" fill="none" fill-rule="evenodd">
        <g id="Bottom-widget-component" transform="translate(-273.000000, -129.000000)" fill="#FFFFFF">
            <g id="Group-8" transform="translate(265.000000, 121.000000)">
                <path d="M17.2039954,8.02931328 L21.2347765,9.08294036 C21.6638945,9.19510977 21.9952231,9.53629985 22.0947622,9.96852222 L22.9782342,13.8047674 C23.0703556,14.2047803 22.9501391,14.6240471 22.6600494,14.9144685 L14.5837492,23 L8,16.4087254 L16.0593939,8.34011931 C16.3586263,8.04054497 16.7943393,7.9222311 17.2039954,8.02931328 Z M17.5,12 C16.6715729,12 16,12.6715729 16,13.5 C16,14.3284271 16.6715729,15 17.5,15 C18.3284271,15 19,14.3284271 19,13.5 C19,12.6715729 18.3284271,12 17.5,12 Z" id="Combined-Shape-Copy"></path>
            </g>
        </g>
    </g>
</svg>