<svg width="30" height="30" xmlns="http://www.w3.org/2000/svg"><g fill="none" fill-rule="evenodd"><path d="M0 0h30v30H0z"/><g fill="#FFF" fill-rule="nonzero"><path d="M6.922 15.56l-1.344-1.12 3.004-3.603 14.625 9.75 1.145-2.082-1.527-.839 4.48-2.71.107 5.234-1.526-.839-2.064 3.748-14.903-9.934-1.997 2.396zM2.75 27.25v-3.5H4.5V22H2.75v-3.5H4.5v-1.75H2.75v-3.5H4.5V11.5H2.75V8H4.5V6.25H2.75v-3.5H4.5V1H1v28h28v-1.75H2.75z"/><path d="M16.592 13.914l5.374 3.584 5.218-9.128 1.512.865L28.672 4 24.15 6.637l1.513.863-4.284 7.502-5.126-3.416-1.937 2.324 1.465.976.81-.972zm-3.064 3.676l-1.464-.976L7 22.689l1.345 1.122 5.183-6.221z" fill-opacity=".798"/></g></g></svg>