<svg width="44" height="39" viewBox="0 0 44 39" fill="none" xmlns="http://www.w3.org/2000/svg">
<g id="Group 22">
<g id="Group 47">
<ellipse id="Oval" opacity="0.5" cx="17.565" cy="20.8218" rx="17.565" ry="17.8218" fill="#FFDC68"/>
</g>
<g id="Group 43">
<g id="Group 35">
<path id="Combined Shape" fill-rule="evenodd" clip-rule="evenodd" d="M20.4713 3.48575L27.3595 10.4739L33.6945 16.9015L38.5869 21.8646C38.6903 21.9696 38.7672 22.0996 38.8088 22.2422L40.8055 29.0286C40.8983 29.3434 40.8134 29.686 40.5836 29.9192C40.4157 30.0896 40.1903 30.1819 39.9587 30.1819C39.8739 30.1819 39.7899 30.1694 39.7059 30.1443L33.0183 28.1183C32.8778 28.0753 32.7496 27.9981 32.6462 27.8932L27.7546 22.9292L21.4197 16.5025L14.5306 9.5116C14.3644 9.34389 14.2716 9.11609 14.2716 8.87754C14.2716 8.63898 14.3644 8.41208 14.5306 8.24347L19.2214 3.48575C19.567 3.13508 20.1257 3.13508 20.4713 3.48575ZM21.6495 7.21749L19.8464 5.38794L16.4044 8.87843L18.2085 10.7089L21.6495 7.21749ZM19.1463 11.6595L22.5873 8.16814L36.8686 22.6566L33.4267 26.1497L19.1463 11.6595ZM34.703 26.7569L38.6443 27.9515L37.4679 23.9525L34.703 26.7569Z" fill="#262626"/>
</g>
</g>
</g>
</svg>
