<svg width="83" height="72" xmlns="http://www.w3.org/2000/svg"><g fill="none" fill-rule="evenodd"><circle cx="36" cy="36" r="36" fill="#F5DE90"/><g fill="#000" fill-rule="nonzero"><path d="M78 13H28a5 5 0 00-5 5v40a5 5 0 005 5h50a5 5 0 005-5V18a5 5 0 00-5-5zm-28 5a2 2 0 110 4 2 2 0 010-4zm-9 0a2 2 0 110 4 2 2 0 010-4zm-9 0a2 2 0 110 4 2 2 0 010-4zm49 40a3 3 0 01-3 3H28a3 3 0 01-3-3V26h56v32z"/><path d="M53.233 49.632V35.737c0-.695.57-1.263 1.267-1.263s1.267.568 1.267 1.263v13.895c0 .694-.57 1.263-1.267 1.263a1.269 1.269 0 01-1.267-1.263zm6.663-.853l5.56-6.095-5.56-6.095a1.27 1.27 0 01.082-1.787 1.279 1.279 0 011.793.082l6.333 6.948c.437.48.437 1.219 0 1.699l-6.333 6.947a1.264 1.264 0 01-1.786.088 1.265 1.265 0 01-.089-1.787zm-19-6.947l6.333-6.948a1.267 1.267 0 011.793-.082c.519.467.557 1.27.082 1.787l-5.56 6.095 5.56 6.095a1.27 1.27 0 01-.082 1.787 1.275 1.275 0 01-1.793-.082l-6.333-6.947a1.273 1.273 0 010-1.705z"/></g></g></svg>