<?xml version="1.0" encoding="UTF-8"?>
<svg width="13px" height="17px" viewBox="0 0 13 17" version="1.1" xmlns="http://www.w3.org/2000/svg" xmlns:xlink="http://www.w3.org/1999/xlink">
    <title>yyen-sign</title>
    <g id="Explorations" stroke="none" stroke-width="1" fill="none" fill-rule="evenodd">
        <g id="PES-service-component" transform="translate(-781.000000, -425.000000)" fill="#009169" fill-rule="nonzero">
            <g id="Group-9" transform="translate(234.000000, 153.000000)">
                <g id="Group-10" transform="translate(30.000000, 89.000000)">
                    <path d="M524.432405,199.124997 C524.665383,199.124997 524.854279,198.936102 524.854279,198.703123 L524.854279,194.906257 L528.109349,194.906257 C528.342327,194.906257 528.531223,194.717362 528.531223,194.484383 L528.531223,193.640635 C528.531223,193.407657 528.342327,193.218761 528.109349,193.218761 L524.854279,193.218761 L524.854279,192.454698 L525.373656,191.531265 L528.109349,191.531265 C528.342327,191.531265 528.531223,191.34237 528.531223,191.109391 L528.531223,190.265643 C528.531223,190.032665 528.342327,189.843769 528.109349,189.843769 L526.268319,189.843769 L529.601735,184.00328 C529.759388,183.722065 529.556176,183.375035 529.233762,183.375035 L527.684591,183.375035 C527.545786,183.375035 527.379549,183.474118 527.313528,183.596203 L524.720383,188.282959 C524.229605,189.331499 523.761142,190.558463 523.761142,190.558463 L523.71651,190.558463 C523.71651,190.558463 523.248013,189.331464 522.7572,188.282959 L520.188293,183.597507 C520.12241,183.474701 519.955865,183.375035 519.816544,183.375035 L518.266206,183.375035 C517.944307,183.375035 517.740992,183.721103 517.897753,184.002318 L521.209814,189.843769 L519.390619,189.843769 C519.157641,189.843769 518.968745,190.032665 518.968745,190.265643 L518.968745,191.109391 C518.968745,191.34237 519.157641,191.531265 519.390619,191.531265 L522.103961,191.531265 L522.623407,192.454698 L522.623407,193.218761 L519.390619,193.218761 C519.157641,193.218761 518.968745,193.407657 518.968745,193.640635 L518.968745,194.484383 C518.968745,194.717362 519.157641,194.906257 519.390619,194.906257 L522.623407,194.906257 L522.623407,198.703123 C522.623407,198.936102 522.812303,199.124997 523.045281,199.124997 L524.432405,199.124997 Z" id="yyen-sign"></path>
                </g>
            </g>
        </g>
    </g>
</svg>