<svg width="69" height="18" xmlns="http://www.w3.org/2000/svg" xmlns:xlink="http://www.w3.org/1999/xlink"><defs><path id="a" d="M0 17.6h67.551V0H0z"/></defs><g transform="translate(.438)" fill="none" fill-rule="evenodd"><path d="M2.509 7.96h4.81c-.138-.64-.424-1.119-.858-1.433a2.463 2.463 0 00-1.481-.472c-.654 0-1.195.167-1.622.5-.428.334-.71.802-.85 1.406zm.038 1.887c.326 1.182 1.213 1.773 2.66 1.773.93 0 1.634-.314 2.112-.943l1.962 1.132c-.93 1.346-2.301 2.018-4.112 2.018-1.56 0-2.811-.471-3.754-1.415C.47 11.47 0 10.281 0 8.847c0-1.42.465-2.606 1.396-3.556.93-.949 2.125-1.424 3.584-1.424 1.383 0 2.525.478 3.424 1.434s1.349 2.138 1.349 3.546c0 .315-.032.648-.095 1H2.547z" fill="#FFF"/><mask id="b" fill="#fff"><use xlink:href="#a"/></mask><path fill="#FFF" mask="url(#b)" d="M23.184 13.563h2.433V4.131h-2.433zM33.238 6.47h-2.132v3.924c0 .327.082.566.245.717.164.15.403.236.717.255.314.018.704.016 1.17-.01v2.207c-1.673.189-2.852.031-3.537-.472-.686-.502-1.028-1.401-1.028-2.697V6.47H27.03V4.131h1.642V2.226l2.433-.736v2.641h2.132v2.34zM60.307 7.96h4.81c-.138-.64-.424-1.119-.858-1.433a2.462 2.462 0 00-1.48-.472c-.655 0-1.195.167-1.623.5-.427.334-.71.802-.849 1.406zm.038 1.887c.327 1.182 1.214 1.773 2.66 1.773.93 0 1.635-.314 2.113-.943l1.961 1.132c-.93 1.346-2.3 2.018-4.112 2.018-1.56 0-2.81-.471-3.754-1.415-.943-.943-1.415-2.131-1.415-3.565 0-1.42.466-2.606 1.396-3.556.93-.949 2.126-1.424 3.584-1.424 1.384 0 2.525.478 3.424 1.434.9.956 1.35 2.138 1.35 3.546 0 .315-.032.648-.095 1h-7.112zM17.789 10.762c-.49.497-1.114.745-1.868.745s-1.38-.248-1.877-.745c-.497-.497-.745-1.135-.745-1.915s.248-1.418.745-1.915c.497-.496 1.123-.745 1.877-.745s1.377.249 1.868.745c.49.497.735 1.135.735 1.915s-.245 1.418-.735 1.915zm.735-9.664v4.146c-.716-.918-1.735-1.377-3.056-1.377-1.27 0-2.355.481-3.254 1.443-.9.962-1.349 2.141-1.349 3.537s.45 2.575 1.35 3.537c.898.962 1.983 1.443 3.253 1.443 1.32 0 2.34-.459 3.056-1.377v1.113h2.434V.36l-2.434.738zM41.095 10.762c-.497.497-1.123.745-1.877.745-.755 0-1.377-.248-1.868-.745-.49-.497-.736-1.135-.736-1.915s.246-1.418.736-1.915c.49-.496 1.113-.745 1.868-.745.754 0 1.38.249 1.877.745.496.497.745 1.135.745 1.915s-.249 1.418-.745 1.915zm.745-6.15v.632c-.73-.918-1.755-1.377-3.075-1.377-1.258 0-2.336.481-3.235 1.443-.9.962-1.349 2.141-1.349 3.537s.45 2.575 1.349 3.537c.899.962 1.977 1.443 3.235 1.443 1.32 0 2.345-.459 3.075-1.377v1.113h2.433V3.875l-2.433.737zM52.96 10.554c-.497.484-1.13.727-1.896.727-.767 0-1.4-.243-1.896-.727-.497-.484-.745-1.103-.745-1.858 0-.742.248-1.355.745-1.839s1.129-.726 1.896-.726c.767 0 1.399.242 1.896.726.496.484.745 1.097.745 1.84 0 .754-.249 1.373-.745 1.857zm.745-5.96V5.3c-.717-.956-1.723-1.434-3.018-1.434-1.32 0-2.434.472-3.34 1.415-.905.943-1.357 2.081-1.357 3.414 0 1.346.45 2.487 1.348 3.424.9.937 2.016 1.405 3.349 1.405 1.295 0 2.301-.477 3.018-1.433v1.018c0 .742-.22 1.314-.66 1.717-.44.402-1.044.603-1.811.603-.938 0-1.65-.287-2.142-.853l-2.401.728a4.09 4.09 0 001.78 1.71c.772.39 1.669.585 2.687.585 1.358 0 2.518-.384 3.48-1.15.963-.768 1.444-1.881 1.444-3.34V3.873l-2.377.72z"/><path d="M24.39 3a1.43 1.43 0 01-1.046-.444 1.43 1.43 0 01-.443-1.047c0-.402.147-.755.443-1.056A1.417 1.417 0 0124.39 0c.415 0 .77.15 1.065.453.296.301.444.654.444 1.056 0 .403-.148.752-.444 1.047-.295.296-.65.443-1.065.443" fill="#F06" mask="url(#b)"/></g></svg>