<svg width="71" height="21" xmlns="http://www.w3.org/2000/svg" xmlns:xlink="http://www.w3.org/1999/xlink"><defs><path id="a" d="M0 .151H19.58V19.73H0z"/></defs><g fill="none" fill-rule="evenodd"><path d="M27.318 14.44c-1.267 0-2.314-.422-3.14-1.263-.825-.842-1.238-1.88-1.238-3.115 0-1.243.413-2.283 1.239-3.12.825-.838 1.872-1.257 3.139-1.257.761 0 1.465.178 2.11.535.645.357 1.149.84 1.51 1.449l-1.432.83a2.222 2.222 0 00-.89-.884 2.643 2.643 0 00-1.298-.319c-.818 0-1.478.257-1.979.77-.5.513-.751 1.178-.751 1.996 0 .81.25 1.471.751 1.984.501.513 1.161.77 1.979.77.48 0 .916-.106 1.304-.319.39-.212.684-.503.884-.872l1.431.83a3.927 3.927 0 01-1.503 1.45 4.28 4.28 0 01-2.116.534M33.625 12.455c.309.313.695.469 1.16.469.466 0 .854-.156 1.167-.469.313-.313.469-.71.469-1.19 0-.482-.156-.878-.47-1.191a1.583 1.583 0 00-1.166-.469c-.465 0-.851.156-1.16.469-.309.313-.463.71-.463 1.19 0 .482.154.878.463 1.191m3.421 1.064c-.617.614-1.37.92-2.26.92-.89 0-1.642-.306-2.255-.92-.613-.613-.92-1.364-.92-2.254 0-.89.307-1.642.92-2.255.613-.614 1.365-.92 2.254-.92.89 0 1.644.306 2.261.92.617.613.926 1.365.926 2.255 0 .89-.309 1.64-.926 2.254M42.41 8.09c.657 0 1.2.22 1.629.661.429.441.643 1.05.643 1.828v3.692h-1.551v-3.5c0-.4-.108-.707-.325-.92-.216-.212-.504-.318-.865-.318-.401 0-.722.124-.962.373-.241.248-.361.621-.361 1.118v3.247h-1.551V8.258h1.55v.673c.378-.56.975-.841 1.793-.841M48.867 14.44c-.906 0-1.661-.305-2.267-.915-.605-.609-.907-1.363-.907-2.26 0-.898.302-1.652.907-2.261.606-.61 1.361-.914 2.267-.914.585 0 1.119.14 1.6.42a2.8 2.8 0 011.094 1.131l-1.335.782a1.361 1.361 0 00-.547-.59 1.59 1.59 0 00-.824-.216c-.465 0-.85.154-1.154.463-.305.309-.457.704-.457 1.184 0 .474.152.865.457 1.173.305.309.69.463 1.154.463.313 0 .591-.07.836-.21.244-.14.427-.335.547-.584l1.347.77a3.01 3.01 0 01-1.118 1.136 3.083 3.083 0 01-1.6.427M53.593 10.7h3.067c-.088-.41-.27-.714-.548-.915a1.57 1.57 0 00-.943-.3c-.417 0-.762.106-1.035.319-.272.212-.453.51-.54.895zm.024 1.202c.209.754.774 1.13 1.696 1.13.593 0 1.042-.2 1.347-.601l1.25.722c-.593.857-1.467 1.286-2.621 1.286-.994 0-1.792-.3-2.393-.902-.601-.6-.902-1.358-.902-2.273 0-.905.296-1.66.89-2.266.593-.605 1.355-.908 2.285-.908.881 0 1.609.305 2.182.914s.86 1.363.86 2.26c0 .201-.02.413-.06.638h-4.534zM61.314 12.485c.312.317.709.475 1.19.475s.88-.158 1.197-.475c.316-.317.475-.723.475-1.22s-.159-.904-.475-1.22c-.317-.318-.716-.476-1.197-.476-.481 0-.878.158-1.19.475-.313.317-.47.724-.47 1.22 0 .498.157.904.47 1.221m1.479-4.395c.81 0 1.5.306 2.074.92.573.613.86 1.365.86 2.254 0 .89-.287 1.642-.86 2.255-.573.614-1.265.92-2.074.92-.842 0-1.492-.293-1.948-.878v3.115h-1.552V8.258h1.552v.71c.456-.586 1.106-.878 1.948-.878M70.128 9.75H68.77v2.5c0 .21.051.362.156.458.104.096.256.15.457.162.2.012.448.01.745-.006v1.407c-1.066.12-1.818.02-2.255-.3-.436-.321-.655-.895-.655-1.72V9.749h-1.046V8.26h1.046V7.043l1.552-.47v1.684h1.358V9.75z" fill="#FFF"/><g transform="translate(.438 .12)"><mask id="b" fill="#fff"><use xlink:href="#a"/></mask><path d="M17.192 19.73H2.386A2.386 2.386 0 010 17.343V2.537A2.386 2.386 0 012.386.151h14.806a2.386 2.386 0 012.387 2.386v14.806a2.386 2.386 0 01-2.387 2.387" fill="#FFF" mask="url(#b)"/></g><path d="M12.167 11.879a4.9 4.9 0 002.073-1.767 4.506 4.506 0 00.782-2.549c0-1.354-.48-2.51-1.438-3.47-.96-.958-2.123-1.438-3.49-1.438H5.008v2.73h5.084c.55 0 1.023.21 1.418.634.394.423.592.938.592 1.544 0 .607-.198 1.125-.592 1.555-.395.43-.868.645-1.418.645H5.01v7.7h2.92v-5.14H9.3l2.993 5.14h3.153l-3.28-5.584z" fill="#113DCD"/><path d="M7.505 8.487a1.412 1.412 0 01-1.033.43 1.41 1.41 0 01-1.033-.43 1.41 1.41 0 01-.43-1.033c0-.402.144-.746.43-1.033a1.41 1.41 0 011.033-.43c.402 0 .746.143 1.033.43.287.287.431.63.431 1.033 0 .401-.144.746-.43 1.033" fill="#F06"/></g></svg>