<svg width="81" height="21" xmlns="http://www.w3.org/2000/svg" xmlns:xlink="http://www.w3.org/1999/xlink"><defs><path id="a" d="M0 20.011h79.917V.001H0z"/></defs><g transform="translate(.438)" fill="none" fill-rule="evenodd"><path d="M26.595 12.81c.78 0 1.414-.258 1.903-.777.488-.518.732-1.193.732-2.025 0-.83-.244-1.506-.732-2.025-.489-.518-1.123-.777-1.903-.777h-1.8v5.605h1.8zm0-7.3c1.234 0 2.265.432 3.092 1.298.827.865 1.24 1.932 1.24 3.2 0 1.269-.413 2.336-1.24 3.201-.827.866-1.858 1.299-3.092 1.299H23.02V5.509h3.574z" fill="#FFF"/><mask id="b" fill="#fff"><use xlink:href="#a"/></mask><path d="M32.11 14.508h1.658V8.08H32.11v6.428zm.823-7.199a.976.976 0 01-.714-.302.976.976 0 01-.302-.714c0-.274.1-.514.302-.72a.965.965 0 01.714-.308.98.98 0 01.726.308.997.997 0 01.302.72c0 .275-.1.512-.302.714a.99.99 0 01-.726.302zM36.763 9.905c0 .172.114.311.341.418.227.107.503.202.829.283.326.082.651.184.977.308a1.9 1.9 0 01.829.624c.227.292.34.655.34 1.093 0 .66-.245 1.167-.738 1.523-.493.356-1.108.534-1.845.534-1.32 0-2.22-.51-2.7-1.53l1.44-.81c.189.557.609.836 1.26.836.591 0 .887-.185.887-.553 0-.171-.114-.31-.34-.418a4.848 4.848 0 00-.83-.29 8.714 8.714 0 01-.977-.32 2.007 2.007 0 01-.829-.611c-.227-.279-.34-.628-.34-1.048 0-.634.233-1.133.7-1.497.467-.365 1.048-.547 1.742-.547.523 0 .998.118 1.427.354.428.235.767.572 1.015 1.009l-1.414.771c-.205-.437-.548-.655-1.028-.655a.944.944 0 00-.534.14.441.441 0 00-.212.386M44.116 14.688c-.968 0-1.776-.326-2.423-.978-.647-.65-.97-1.456-.97-2.416s.323-1.766.97-2.417c.647-.651 1.455-.977 2.423-.977.626 0 1.196.15 1.71.45.514.3.904.703 1.17 1.209l-1.427.835a1.458 1.458 0 00-.585-.63 1.703 1.703 0 00-.88-.231c-.498 0-.909.165-1.235.495-.325.33-.488.752-.488 1.266 0 .506.163.923.488 1.253.326.33.737.495 1.234.495.335 0 .632-.075.894-.225.261-.15.456-.357.585-.623l1.44.822c-.283.506-.682.911-1.196 1.215a3.296 3.296 0 01-1.71.457M49.612 12.567c.33.334.743.5 1.24.5s.913-.166 1.247-.5c.335-.335.502-.759.502-1.273 0-.514-.167-.938-.502-1.273-.334-.334-.75-.501-1.247-.501-.497 0-.91.167-1.24.501-.33.335-.495.759-.495 1.273 0 .514.165.938.495 1.273m3.657 1.137c-.66.656-1.465.984-2.417.984-.95 0-1.754-.328-2.41-.984-.655-.656-.983-1.459-.983-2.41 0-.951.328-1.755.983-2.41.656-.656 1.46-.984 2.41-.984.952 0 1.757.328 2.417.983.66.656.99 1.46.99 2.411 0 .951-.33 1.754-.99 2.41M59.401 8.08h1.825l-2.442 6.428h-1.89L54.453 8.08h1.825l1.558 4.498zM63.142 10.69h3.278c-.094-.437-.29-.763-.585-.977a1.675 1.675 0 00-1.009-.322c-.446 0-.815.114-1.105.34-.292.228-.485.548-.58.959zm.026 1.285c.222.806.827 1.209 1.812 1.209.634 0 1.114-.215 1.44-.643l1.337.771c-.634.917-1.568 1.376-2.802 1.376-1.063 0-1.916-.322-2.559-.965-.642-.642-.964-1.452-.964-2.429 0-.969.317-1.776.952-2.423.634-.647 1.448-.97 2.442-.97.943 0 1.72.325 2.333.976.613.652.92 1.457.92 2.417 0 .214-.022.441-.065.68h-4.846zM70.893 9.186c.155-.412.41-.72.766-.926a2.332 2.332 0 011.189-.309v1.851a1.956 1.956 0 00-1.357.31c-.398.265-.598.706-.598 1.323v3.073h-1.658V8.08h1.658v1.106zM78.143 8.08h1.774l-2.343 6.438c-.334.918-.777 1.585-1.33 2-.551.417-1.238.603-2.06.56v-1.542c.446.008.8-.086 1.06-.283.262-.197.47-.514.624-.951L73.233 8.08h1.812l1.677 4.32 1.421-4.32zM17.572 20.011H2.44A2.439 2.439 0 010 17.572V2.44A2.439 2.439 0 012.44 0h15.132a2.439 2.439 0 012.44 2.44v15.132a2.439 2.439 0 01-2.44 2.44" fill="#FFF" mask="url(#b)"/><path d="M11.988 11.865a5.007 5.007 0 002.119-1.805c.533-.8.8-1.669.8-2.606 0-1.384-.49-2.566-1.47-3.546-.981-.98-2.17-1.47-3.569-1.47H4.672v2.79h5.196c.563 0 1.045.215 1.45.647.403.433.605.96.605 1.58 0 .619-.202 1.149-.606 1.588-.404.44-.886.66-1.449.66H4.672v7.87h2.984V12.32h1.402l3.06 5.255h3.221l-3.35-5.71z" fill="#113DCD" mask="url(#b)"/><path d="M7.224 8.398a1.442 1.442 0 01-1.056.44c-.41 0-.763-.147-1.056-.44a1.44 1.44 0 01-.44-1.056c0-.41.147-.762.44-1.056.293-.293.645-.44 1.056-.44.41 0 .762.147 1.056.44.293.294.44.646.44 1.056 0 .41-.147.763-.44 1.056" fill="#F06" mask="url(#b)"/></g></svg>