<svg width="70" height="21" xmlns="http://www.w3.org/2000/svg" xmlns:xlink="http://www.w3.org/1999/xlink"><defs><path id="a" d="M0 .151H19.58V19.73H0z"/></defs><g fill="none" fill-rule="evenodd"><g transform="translate(.438 .12)"><mask id="b" fill="#fff"><use xlink:href="#a"/></mask><path d="M17.192 19.73H2.386A2.386 2.386 0 010 17.344V2.537A2.386 2.386 0 012.386.151h14.806a2.386 2.386 0 012.387 2.386v14.807a2.386 2.386 0 01-2.387 2.386" fill="#FFF" mask="url(#b)"/></g><path d="M12.167 11.879a4.9 4.9 0 002.073-1.767 4.505 4.505 0 00.782-2.549c0-1.354-.48-2.51-1.438-3.47-.96-.958-2.123-1.438-3.49-1.438H5.008v2.73h5.084c.55 0 1.023.21 1.418.634.394.423.592.938.592 1.544 0 .607-.198 1.125-.592 1.555-.395.43-.868.645-1.418.645H5.01v7.7h2.92v-5.14H9.3l2.993 5.14h3.153l-3.28-5.584z" fill="#113DCD"/><path d="M7.505 8.486a1.412 1.412 0 01-1.033.43 1.41 1.41 0 01-1.033-.43 1.41 1.41 0 01-.43-1.032c0-.402.144-.746.43-1.033.288-.287.632-.43 1.033-.43.402 0 .746.143 1.033.43.287.287.431.631.431 1.033 0 .401-.144.746-.43 1.032" fill="#F06"/><path d="M26.22 9.95c.369 0 .675-.128.918-.384.243-.255.364-.572.364-.949 0-.385-.121-.704-.364-.955a1.224 1.224 0 00-.918-.377h-1.546v2.664h1.546zm0-4.287c.847 0 1.559.285 2.137.855.578.57.867 1.27.867 2.099 0 .83-.289 1.53-.867 2.1-.578.57-1.29.854-2.137.854h-1.546v2.891h-1.735V5.663h3.281zM34.429 8.177h1.62v6.285h-1.62v-.704c-.395.587-1.02.88-1.874.88-.687 0-1.255-.23-1.703-.691-.448-.46-.672-1.098-.672-1.911V8.177H31.8v3.658c0 .42.113.74.34.962.226.222.528.333.905.333.419 0 .754-.13 1.005-.39.252-.26.378-.65.378-1.169V8.177zM39.645 12.595c.327.332.742.497 1.244.497.503 0 .92-.165 1.251-.497.33-.33.497-.756.497-1.275 0-.52-.166-.945-.497-1.276-.331-.331-.748-.497-1.25-.497-.503 0-.918.166-1.245.497-.327.33-.49.756-.49 1.276s.163.945.49 1.275m1.546-4.594c.847 0 1.57.32 2.168.962.6.641.9 1.426.9 2.357 0 .93-.3 1.715-.9 2.356-.599.642-1.321.962-2.168.962-.88 0-1.559-.306-2.036-.917v.741h-1.622V5.663h1.622V8.92C39.632 8.307 40.31 8 41.19 8M46.76 9.962c0 .168.11.304.333.409.222.104.492.197.81.276.319.08.637.18.956.302.318.121.588.325.81.61.223.284.334.64.334 1.068 0 .645-.241 1.142-.723 1.49-.482.347-1.083.521-1.804.521-1.29 0-2.17-.498-2.64-1.496l1.408-.792c.184.545.595.818 1.232.818.578 0 .867-.18.867-.541 0-.168-.11-.304-.333-.408a4.748 4.748 0 00-.81-.283 8.515 8.515 0 01-.956-.314 1.96 1.96 0 01-.81-.598c-.223-.272-.334-.614-.334-1.024 0-.62.229-1.108.686-1.464C46.242 8.179 46.81 8 47.489 8c.51 0 .976.115 1.395.346.419.23.75.56.993.987l-1.383.754c-.2-.428-.536-.641-1.005-.641a.922.922 0 00-.522.138.432.432 0 00-.207.377M55.194 8.177h1.622v6.285h-1.622v-.704c-.394.587-1.018.88-1.873.88-.687 0-1.255-.23-1.703-.691-.448-.46-.672-1.098-.672-1.911V8.177h1.62v3.658c0 .42.114.74.34.962.227.222.528.333.906.333.419 0 .754-.13 1.005-.39.252-.26.377-.65.377-1.169V8.177zM59.92 9.258c.151-.402.4-.704.749-.905a2.28 2.28 0 011.162-.302v1.81a1.91 1.91 0 00-1.326.302c-.39.26-.584.692-.584 1.295v3.004h-1.622V8.177h1.622v1.081zM63.88 10.729h3.205c-.092-.427-.282-.746-.572-.956a1.638 1.638 0 00-.986-.314c-.436 0-.797.111-1.081.333-.285.223-.474.535-.566.937zm.025 1.257c.218.788.809 1.181 1.772 1.181.62 0 1.09-.209 1.408-.628l1.308.754c-.62.897-1.534 1.345-2.74 1.345-1.04 0-1.873-.314-2.502-.942-.628-.63-.943-1.42-.943-2.376 0-.947.31-1.737.93-2.37.62-.633 1.416-.949 2.389-.949.921 0 1.682.319 2.281.955.6.637.899 1.425.899 2.364 0 .21-.021.431-.063.666h-4.739z" fill="#FFF"/></g></svg>