<svg width="61" height="20" xmlns="http://www.w3.org/2000/svg" xmlns:xlink="http://www.w3.org/1999/xlink"><defs><path id="a" d="M0 19.847h59.515V0H0z"/></defs><g transform="translate(.438)" fill="none" fill-rule="evenodd"><path d="M26.222 14.578c-.995 0-1.812-.28-2.45-.843-.638-.56-.957-1.314-.957-2.258v-6.01h1.748v5.87c0 .467.134.838.402 1.11.268.272.687.408 1.257.408.57 0 .989-.136 1.257-.408.268-.272.402-.643.402-1.11v-5.87h1.76v6.01c0 .944-.318 1.697-.956 2.258-.638.562-1.46.843-2.463.843M33.292 12.504c.332.336.752.504 1.263.504.51 0 .933-.168 1.27-.504.336-.336.504-.768.504-1.296 0-.527-.168-.958-.504-1.295-.337-.335-.76-.503-1.27-.503s-.931.168-1.263.503c-.332.337-.498.768-.498 1.295 0 .528.166.96.498 1.296m1.57-4.664c.858 0 1.592.325 2.2.976.608.65.913 1.448.913 2.392 0 .945-.305 1.743-.913 2.393-.608.651-1.342.977-2.2.977-.894 0-1.583-.31-2.068-.932v2.757h-1.646V8.019h1.646v.753c.485-.622 1.174-.932 2.067-.932M40.514 9.83c0 .17.113.309.338.415.226.107.5.2.823.281.324.08.647.183.97.306.324.124.598.33.823.62.226.289.339.65.339 1.084 0 .655-.245 1.159-.734 1.512-.49.353-1.1.53-1.832.53-1.31 0-2.203-.506-2.68-1.519l1.43-.804c.187.553.604.83 1.25.83.588 0 .881-.183.881-.55 0-.17-.113-.307-.338-.414a4.864 4.864 0 00-.823-.287 8.492 8.492 0 01-.97-.32 1.988 1.988 0 01-.823-.605c-.225-.276-.338-.623-.338-1.04 0-.63.231-1.125.695-1.487.464-.361 1.04-.542 1.73-.542.518 0 .99.117 1.416.35.425.235.76.569 1.008 1.003l-1.404.765c-.204-.434-.545-.65-1.02-.65a.933.933 0 00-.53.14.437.437 0 00-.21.382M50.748 14.399h-1.914L46.512 11.5v2.899h-1.646V5.466h1.646v5.371l2.195-2.818h1.965l-2.565 3.152z" fill="#FFF"/><mask id="b" fill="#fff"><use xlink:href="#a"/></mask><path d="M51.565 14.399h1.646v-6.38h-1.646v6.38zm.817-7.146a.968.968 0 01-.708-.3c-.2-.2-.3-.436-.3-.708 0-.272.1-.51.3-.715a.959.959 0 01.708-.306c.28 0 .52.102.721.306.2.204.3.443.3.715 0 .272-.1.508-.3.708-.2.2-.44.3-.721.3zM54.717 14.399h1.646V5.084h-1.646zM57.869 14.399h1.646V5.084H57.87zM17.428 19.847H2.419A2.419 2.419 0 010 17.427V2.42A2.419 2.419 0 012.42 0h15.008a2.419 2.419 0 012.419 2.42v15.008a2.419 2.419 0 01-2.42 2.419" fill="#FFF" mask="url(#b)"/><path d="M11.89 11.767a4.966 4.966 0 002.1-1.79 4.567 4.567 0 00.794-2.584c0-1.373-.486-2.545-1.458-3.517-.973-.972-2.152-1.458-3.539-1.458H4.634v2.766h5.153c.558 0 1.037.215 1.437.643.4.43.6.951.6 1.566 0 .615-.2 1.14-.6 1.576-.4.436-.88.654-1.437.654H4.634v7.806h2.96v-5.211h1.39l3.034 5.21h3.195l-3.323-5.66z" fill="#113DCD" mask="url(#b)"/><path d="M7.164 8.329a1.432 1.432 0 01-1.047.436A1.43 1.43 0 015.07 8.33a1.43 1.43 0 01-.436-1.047c0-.407.145-.756.436-1.047.291-.291.64-.436 1.047-.436.407 0 .756.145 1.047.436.291.29.437.64.437 1.047 0 .407-.146.756-.437 1.047" fill="#F06" mask="url(#b)"/></g></svg>