<svg width="55" height="21" xmlns="http://www.w3.org/2000/svg" xmlns:xlink="http://www.w3.org/1999/xlink"><defs><path id="a" d="M0 19.73h53.54V.15H0z"/></defs><g fill="none" fill-rule="evenodd"><path fill="#FFF" d="M25.497 14.468L22.54 5.662h1.887l2.154 6.77 2.136-6.77h1.9l-2.969 8.806z"/><g transform="translate(.438 .12)"><path d="M31.971 12.45c.323.327.728.49 1.214.49.487 0 .894-.163 1.22-.49.328-.328.491-.743.491-1.246s-.163-.918-.49-1.246c-.327-.327-.734-.49-1.22-.49-.487 0-.892.163-1.215.49-.323.328-.484.743-.484 1.246s.161.918.484 1.246m3.58 1.113c-.646.641-1.434.962-2.366.962-.93 0-1.717-.32-2.358-.962-.642-.642-.963-1.428-.963-2.359 0-.93.321-1.717.963-2.359.641-.641 1.427-.962 2.358-.962.932 0 1.72.32 2.365.962.646.642.969 1.428.969 2.36 0 .93-.323 1.716-.969 2.358" fill="#FFF"/><mask id="b" fill="#fff"><use xlink:href="#a"/></mask><path d="M37.664 14.349h1.623v-6.29h-1.623v6.29zm.805-7.045a.954.954 0 01-.698-.296.954.954 0 01-.296-.698c0-.268.099-.503.296-.704a.945.945 0 01.698-.302c.277 0 .514.1.71.302a.976.976 0 01.296.704.954.954 0 01-.295.698.968.968 0 01-.711.296zM43.765 14.525c-.948 0-1.738-.319-2.371-.956s-.95-1.426-.95-2.365c0-.94.317-1.728.95-2.365.633-.637 1.423-.956 2.371-.956.612 0 1.17.147 1.673.44a2.93 2.93 0 011.145 1.183l-1.396.818a1.426 1.426 0 00-.572-.617 1.664 1.664 0 00-.863-.226c-.486 0-.888.161-1.207.484-.319.323-.478.736-.478 1.24 0 .494.16.903.478 1.226.319.323.72.484 1.207.484.328 0 .619-.073.875-.22.256-.147.447-.35.572-.61l1.41.805a3.15 3.15 0 01-1.17 1.189 3.225 3.225 0 01-1.674.446M48.71 10.613h3.207c-.092-.428-.283-.747-.572-.956a1.641 1.641 0 00-.988-.315c-.436 0-.797.111-1.082.334-.285.222-.474.534-.566.937zm.024 1.258c.218.788.81 1.182 1.774 1.182.62 0 1.09-.21 1.409-.629l1.308.755c-.62.897-1.534 1.346-2.742 1.346-1.04 0-1.874-.314-2.504-.944-.628-.628-.943-1.42-.943-2.377 0-.947.31-1.738.931-2.371.62-.633 1.417-.95 2.39-.95.923 0 1.684.319 2.284.956.599.637.899 1.426.899 2.365 0 .21-.021.432-.063.667h-4.743zM17.192 19.73H2.386A2.386 2.386 0 010 17.343V2.538A2.386 2.386 0 012.386.15h14.806a2.386 2.386 0 012.387 2.387v14.805a2.386 2.386 0 01-2.387 2.387" fill="#FFF" mask="url(#b)"/><path d="M11.729 11.76a4.9 4.9 0 002.073-1.767 4.507 4.507 0 00.782-2.549c0-1.354-.48-2.51-1.438-3.47-.96-.958-2.123-1.438-3.49-1.438H4.57v2.73h5.084c.55 0 1.023.21 1.418.634.394.423.592.938.592 1.544 0 .607-.198 1.125-.592 1.555-.395.43-.868.645-1.418.645H4.571v7.7h2.92v-5.14h1.371l2.993 5.14h3.153l-3.28-5.584z" fill="#113DCD" mask="url(#b)"/><path d="M7.067 8.367a1.412 1.412 0 01-1.033.43c-.401 0-.745-.143-1.033-.43a1.41 1.41 0 01-.43-1.032c0-.402.144-.746.43-1.033a1.41 1.41 0 011.033-.43c.402 0 .746.143 1.033.43.287.287.431.63.431 1.033 0 .401-.144.746-.43 1.032" fill="#F06" mask="url(#b)"/></g></g></svg>