<svg width="141" height="15" xmlns="http://www.w3.org/2000/svg" xmlns:xlink="http://www.w3.org/1999/xlink"><defs><path id="a" d="M0 14.803h139.548V0H0z"/></defs><g transform="translate(.438)" fill="none" fill-rule="evenodd"><path d="M2.787 2.989v4.18h2.868c.525 0 .976-.205 1.353-.616.377-.41.565-.905.565-1.484 0-.578-.188-1.07-.565-1.474-.377-.404-.828-.606-1.353-.606H2.787zM7.755 14.52L4.897 9.613h-2.11v4.908H0V.384h5.655c1.306 0 2.416.457 3.332 1.373.915.916 1.373 2.02 1.373 3.312a4.31 4.31 0 01-.747 2.434 4.681 4.681 0 01-1.979 1.686l3.13 5.332H7.755zM13.935 8.522h5.15c-.149-.687-.455-1.198-.92-1.534a2.636 2.636 0 00-1.585-.505c-.7 0-1.279.178-1.737.535-.457.357-.76.858-.908 1.504zm.04 2.02c.35 1.266 1.299 1.898 2.848 1.898.996 0 1.75-.336 2.261-1.01l2.1 1.212c-.996 1.44-2.463 2.16-4.401 2.16-1.67 0-3.01-.504-4.02-1.514-1.01-1.01-1.514-2.282-1.514-3.817 0-1.521.498-2.79 1.494-3.806S15.018 4.14 16.58 4.14c1.481 0 2.703.512 3.666 1.535.962 1.023 1.444 2.289 1.444 3.796 0 .337-.034.694-.101 1.07h-7.614zM25.507 7.29c0 .27.178.489.535.657.356.168.79.316 1.302.444s1.024.29 1.535.485c.512.195.946.522 1.303.98.356.457.535 1.029.535 1.716 0 1.037-.387 1.834-1.161 2.393-.774.559-1.74.838-2.898.838-2.074 0-3.487-.8-4.241-2.403l2.262-1.273c.296.876.955 1.313 1.979 1.313.929 0 1.394-.289 1.394-.868 0-.27-.179-.488-.536-.656a7.566 7.566 0 00-1.302-.455 13.601 13.601 0 01-1.535-.505 3.145 3.145 0 01-1.303-.96c-.357-.436-.535-.985-.535-1.645 0-.996.367-1.78 1.101-2.353.733-.572 1.646-.858 2.736-.858.821 0 1.568.186 2.242.556.673.37 1.204.898 1.595 1.585l-2.221 1.211c-.323-.686-.862-1.03-1.616-1.03-.336 0-.615.075-.838.223a.694.694 0 00-.333.606M34.413 8.522h5.15c-.149-.687-.455-1.198-.92-1.534a2.636 2.636 0 00-1.585-.505c-.7 0-1.279.178-1.736.535-.458.357-.76.858-.91 1.504zm.04 2.02c.35 1.266 1.3 1.898 2.848 1.898.996 0 1.75-.336 2.262-1.01l2.1 1.212c-.996 1.44-2.464 2.16-4.402 2.16-1.67 0-3.01-.504-4.019-1.514-1.01-1.01-1.515-2.282-1.515-3.817 0-1.521.498-2.79 1.495-3.806.995-1.016 2.275-1.525 3.836-1.525 1.481 0 2.704.512 3.666 1.535.963 1.023 1.444 2.289 1.444 3.796 0 .337-.034.694-.101 1.07h-7.614zM59.152 6.16c.242-.646.643-1.131 1.202-1.455a3.665 3.665 0 011.867-.484v2.908c-.794-.094-1.504.067-2.13.485-.626.417-.94 1.11-.94 2.08v4.827h-2.604V4.423h2.605V6.16zM68.159 14.803c-1.522 0-2.79-.511-3.807-1.535-1.017-1.023-1.524-2.288-1.524-3.796s.507-2.774 1.524-3.797c1.016-1.023 2.285-1.535 3.807-1.535.982 0 1.878.236 2.686.707a4.702 4.702 0 011.838 1.898L70.44 8.058a2.296 2.296 0 00-.92-.99 2.675 2.675 0 00-1.383-.363c-.78 0-1.427.26-1.938.777-.512.519-.767 1.182-.767 1.99 0 .795.255 1.45.767 1.969.511.518 1.158.777 1.938.777.525 0 .993-.117 1.404-.353a2.22 2.22 0 00.919-.98l2.262 1.293a5.061 5.061 0 01-1.878 1.909 5.179 5.179 0 01-2.686.716M79.71 4.14c1.104 0 2.017.37 2.737 1.11.72.741 1.08 1.765 1.08 3.07v6.2h-2.605V8.644c0-.672-.181-1.187-.545-1.544-.364-.357-.848-.536-1.454-.536-.674 0-1.212.21-1.615.627-.405.417-.606 1.043-.606 1.878v5.453h-2.606V.383h2.606v5.17c.632-.942 1.636-1.413 3.009-1.413M87.91 8.522h5.15c-.15-.687-.455-1.198-.92-1.534a2.637 2.637 0 00-1.585-.505c-.7 0-1.279.178-1.736.535-.459.357-.761.858-.91 1.504zm.04 2.02c.35 1.266 1.299 1.898 2.848 1.898.996 0 1.75-.336 2.261-1.01l2.1 1.212c-.996 1.44-2.463 2.16-4.402 2.16-1.67 0-3.009-.504-4.018-1.514-1.01-1.01-1.515-2.282-1.515-3.817 0-1.521.498-2.79 1.494-3.806s2.275-1.525 3.837-1.525c1.481 0 2.703.512 3.666 1.535.962 1.023 1.444 2.289 1.444 3.796 0 .337-.034.694-.101 1.07H87.95zM100.087 6.16c.242-.646.643-1.131 1.202-1.455a3.665 3.665 0 011.868-.484v2.908c-.794-.094-1.505.067-2.131.485-.626.417-.939 1.11-.939 2.08v4.827h-2.605V4.423h2.605V6.16z" fill="#FFF"/><path d="M105.964 14.278c-.337.337-.74.505-1.212.505a1.65 1.65 0 01-1.211-.505 1.65 1.65 0 01-.505-1.212c0-.471.168-.875.505-1.211.336-.337.74-.505 1.211-.505.471 0 .876.168 1.212.505.336.336.504.74.504 1.211 0 .472-.168.876-.504 1.212" fill="#F06"/><path fill="#999" d="M111.558 11.855h5.392v2.665h-8.18V.385h2.788z"/><mask id="b" fill="#fff"><use xlink:href="#a"/></mask><path d="M118.404 14.52h2.605V4.424h-2.605v10.098zm1.292-11.309a1.53 1.53 0 01-1.12-.475 1.53 1.53 0 01-.475-1.12c0-.431.158-.808.474-1.131.316-.323.69-.485 1.12-.485.445 0 .825.162 1.142.485.316.323.475.7.475 1.13 0 .432-.16.805-.475 1.121a1.554 1.554 0 01-1.141.475zM128.824 2.605c-1.427-.107-2.14.464-2.14 1.717v.1h2.14v2.505h-2.14v7.594h-2.606V6.927h-1.454V4.423h1.454v-.101c0-1.427.397-2.51 1.192-3.252.794-.74 1.979-1.063 3.554-.969v2.504zM131.793 8.522h5.15c-.149-.687-.455-1.198-.919-1.534a2.637 2.637 0 00-1.586-.505c-.7 0-1.279.178-1.736.535-.458.357-.761.858-.91 1.504zm.04 2.02c.35 1.266 1.3 1.898 2.848 1.898.996 0 1.75-.336 2.262-1.01l2.1 1.212c-.996 1.44-2.464 2.16-4.403 2.16-1.67 0-3.009-.504-4.018-1.514-1.01-1.01-1.515-2.282-1.515-3.817 0-1.521.498-2.79 1.494-3.806s2.276-1.525 3.837-1.525c1.481 0 2.703.512 3.666 1.535.962 1.023 1.444 2.289 1.444 3.796 0 .337-.034.694-.101 1.07h-7.614z" fill="#999" mask="url(#b)"/><path d="M50.781 11.522c-.532.531-1.201.797-2.01.797-.807 0-1.473-.266-1.999-.797-.525-.532-.787-1.215-.787-2.05 0-.835.262-1.518.787-2.05.526-.532 1.192-.798 2-.798s1.477.266 2.01.798c.53.532.797 1.215.797 2.05 0 .835-.266 1.518-.798 2.05zm.798-6.762v.854c-.781-.982-1.878-1.474-3.292-1.474-1.346 0-2.501.515-3.463 1.545-.963 1.03-1.444 2.292-1.444 3.786 0 1.495.48 2.758 1.444 3.787.962 1.03 2.117 1.545 3.463 1.545 1.414 0 2.51-.49 3.292-1.474v1.192h2.605V3.97l-2.605.79z" fill="#FFF" mask="url(#b)"/></g></svg>