<svg width="80" height="80" viewBox="0 0 80 80" fill="none" xmlns="http://www.w3.org/2000/svg">
<g filter="url(#filter0_d_4_2382)">
<path d="M38.4347 74.7414C58.5682 74.7414 74.8896 58.42 74.8896 38.2865C74.8896 18.153 58.5682 1.83154 38.4347 1.83154C18.3012 1.83154 1.97968 18.153 1.97968 38.2865C1.97968 58.42 18.3012 74.7414 38.4347 74.7414Z" fill="url(#paint0_linear_4_2382)"/>
</g>
<path d="M13.5833 55.1204C14.5229 55.089 15.1336 54.9168 15.4154 54.5723C15.6973 54.2278 15.8226 53.7423 15.8226 53.0846V41.0113C15.0396 40.1344 14.5698 39.6333 14.3819 39.4767C14.1939 39.3201 13.9434 39.2261 13.6302 39.1791V38.5371H19.0327L27.8019 49.1855H27.9272V41.7003C27.9272 40.839 27.7707 40.2283 27.4575 39.8525C27.1443 39.4767 26.5179 39.2574 25.5783 39.1948V38.5528H31.0591V39.1948C30.2605 39.3201 29.728 39.508 29.4618 39.7272C29.1956 39.9465 29.0547 40.4476 29.0547 41.2305V56.2478H28.3501L17.1379 42.6242H16.9657V52.6149C16.9657 53.3978 17.0753 53.9459 17.2946 54.2747C17.6391 54.7915 18.328 55.089 19.3772 55.1204V55.7624H13.5989V55.1204H13.5833Z" fill="#00084D"/>
<path d="M33.2201 45.49C34.3162 44.2999 35.6786 43.7048 37.3385 43.7048C38.9984 43.7048 40.4078 44.3155 41.4726 45.5213C42.5374 46.7271 43.0855 48.1991 43.0855 49.9216C43.0855 51.6441 42.553 53.0848 41.4882 54.3062C40.4233 55.5276 39.0454 56.1384 37.3385 56.1384C35.6316 56.1384 34.3006 55.5433 33.2201 54.3532C32.1396 53.1631 31.5916 51.6911 31.5916 49.9216C31.5916 48.1521 32.1396 46.6645 33.2201 45.4743V45.49ZM35.6003 53.6798C35.8979 54.776 36.4616 55.3397 37.3228 55.3397C38.1841 55.3397 38.6852 54.9169 38.9358 54.0713C39.1863 53.2257 39.3273 51.8477 39.3273 49.9373C39.3273 48.0268 39.1863 46.6645 38.9201 45.8188C38.6539 44.9732 38.1215 44.5504 37.3385 44.5504C36.4772 44.5504 35.8978 45.0985 35.6159 46.2103C35.428 46.9463 35.3341 48.1991 35.3341 49.9529C35.3341 51.7068 35.4281 52.9908 35.6003 53.6955V53.6798Z" fill="#00084D"/>
<path d="M45.2151 55.4648C44.9489 55.1829 44.808 54.854 44.808 54.4626C44.808 54.0711 44.9489 53.7422 45.2308 53.4604C45.5126 53.1942 45.8415 53.0532 46.233 53.0532C46.6245 53.0532 46.9534 53.1942 47.2352 53.4604C47.5014 53.7422 47.6424 54.0711 47.6424 54.4626C47.6424 54.854 47.5014 55.1829 47.2352 55.4648C46.969 55.7466 46.6401 55.8876 46.233 55.8876C45.8259 55.8876 45.497 55.7466 45.2308 55.4648H45.2151Z" fill="#00084D"/>
<path d="M49.3962 54.8542C51.2127 54.8542 52.3715 54.6036 52.8882 54.1182C53.405 53.6327 53.6555 52.6932 53.6555 51.2995V37.5506C53.6555 36.6737 53.5459 36.0473 53.358 35.6715C53.1544 35.2957 52.7786 35.1077 52.2306 35.1077C51.933 35.1077 51.4945 35.2017 50.8838 35.4053C50.508 35.5149 49.9755 35.7028 49.3178 35.969V35.0608L58.322 31.1772H58.9484V51.5031C58.9484 52.8028 59.152 53.6797 59.5748 54.1495C59.9976 54.6193 61.0624 54.8542 62.7849 54.8542V55.6998H49.4118V54.8542H49.3962Z" fill="#00084D"/>
<g style="mix-blend-mode:color-burn">
<path style="mix-blend-mode:color-burn" d="M31.6071 66.677C31.1687 66.5517 30.5267 66.4264 29.7281 66.1759C29.2426 66.0193 28.6788 65.8314 28.0838 65.6122C28.1621 65.1894 27.802 64.5317 27.066 63.7017C25.8915 62.4803 24.2629 61.0396 22.8223 60.0844C22.3525 60.3506 22.4308 61.1649 23.2764 62.3707C23.7462 63.1067 24.4665 63.7487 25.2494 64.3907C24.6231 64.0932 23.9811 63.7487 23.3234 63.3729C22.8223 63.0753 22.2899 62.7622 21.7731 62.4177C21.8201 62.2924 21.8201 62.1358 21.7731 61.9479C21.7105 61.572 21.5069 61.0709 21.178 60.4916C20.3481 59.1292 19.1266 57.485 17.9992 56.2948C17.5294 56.4514 17.4512 57.1874 17.9836 58.4715C18.2654 59.2075 18.7822 59.9122 19.3303 60.6325C18.4847 59.9435 17.6547 59.1762 16.8404 58.3462C16.903 58.2366 16.95 58.08 16.95 57.8921C16.95 57.5319 16.8404 57.0152 16.6368 56.3418C16.3863 55.5745 15.9948 54.7446 15.6347 53.899C15.4468 53.4762 15.2119 53.0847 15.0239 52.6775C14.836 52.2704 14.6324 51.8789 14.4132 51.5187C13.9278 51.5501 13.6929 52.2547 13.9121 53.6328C14.0687 54.3844 14.3819 55.2144 14.789 56.0443C13.8494 54.8699 13.0039 53.5545 12.2053 52.1921L12.1583 52.0981C12.4088 51.8476 12.5027 51.2056 12.4401 50.2817C12.3618 49.5457 12.3148 48.6688 12.1269 47.8388C11.9546 47.0089 11.8608 46.1319 11.6102 45.3959C11.1718 45.2863 10.7959 45.8344 10.6863 47.1185C10.6236 47.7918 10.6863 48.5591 10.8429 49.3578L10.3105 48.0424L9.85637 46.5704L9.80935 46.4295C10.0912 46.2416 10.2948 45.6622 10.4827 44.7383C10.608 44.0023 10.655 43.1567 10.7333 42.2954C10.7646 41.8726 10.7802 41.4341 10.7645 41.027C10.7959 40.5885 10.8116 40.1814 10.8116 39.7742C10.4201 39.5394 9.90327 39.9935 9.48047 41.2149C9.30822 41.8569 9.18299 42.6556 9.13601 43.5012L8.96378 42.0292L8.86983 41.2619C8.85417 41.0113 8.85414 40.7451 8.83848 40.4946C8.83848 40.0091 8.80713 39.5237 8.80713 39.0383C9.089 38.9286 9.41786 38.4902 9.69972 37.7229C9.98159 37.0965 10.2791 36.3605 10.467 35.5932C10.5766 35.2174 10.655 34.8259 10.7333 34.4344C10.8429 34.0586 10.9369 33.6828 11.0152 33.3383C10.702 33.0407 10.1852 33.3383 9.54317 34.3248C9.29262 34.8259 9.0734 35.4366 8.86983 36.0943C8.91681 35.5619 8.94806 35.0295 8.99503 34.5127C9.08899 33.7454 9.21435 33.0094 9.37094 32.2734C9.66847 32.2578 10.0756 31.8976 10.5454 31.2399C10.9682 30.7075 11.3909 30.0655 11.7354 29.3764C12.0799 28.6874 12.5184 28.0141 12.769 27.3407C12.5341 26.9649 11.9703 27.1058 11.156 27.9201C10.7332 28.3116 10.3887 28.844 10.0755 29.4547C10.4827 28.1394 10.9682 26.9023 11.4849 25.7748C11.7668 25.7748 12.1896 25.5869 12.7064 25.1641C13.599 24.3811 14.6794 23.238 15.4154 22.1731C15.2901 21.7973 14.7107 21.7817 13.8964 22.3454C13.5519 22.5803 13.1761 22.8935 12.8159 23.2536C13.5049 22.0635 14.2096 21.03 14.8673 20.1687C15.1178 20.2627 15.572 20.1688 16.1984 19.8556C16.7465 19.605 17.3102 19.2292 17.8739 18.822C18.4533 18.4462 18.9857 17.9764 19.4711 17.5536C19.4242 17.1622 18.8605 17.0056 17.9366 17.3814C17.5294 17.538 17.0597 17.7729 16.6212 18.0704C17.0284 17.6163 17.3885 17.2874 17.639 17.0212C17.8269 16.8333 17.9679 16.6924 18.0462 16.6141C18.3594 16.5671 18.6882 16.4888 19.0171 16.3792C19.5338 16.1913 20.0662 15.8937 20.5987 15.5179C21.225 15.0638 21.7731 14.3122 22.1959 13.6545C22.6187 12.9968 22.9162 12.4644 22.9162 12.4644C22.9162 12.4644 22.4151 12.4174 21.7418 12.527C21.0684 12.6209 20.2541 12.8402 19.6747 13.2317C19.0014 13.7171 18.4376 14.2965 18.0931 14.9072C17.8895 15.2517 17.733 15.5962 17.639 15.9251C17.592 15.972 17.4198 16.1443 17.1379 16.4262C16.8091 16.7707 16.2923 17.2405 15.713 17.9451C15.2902 18.3992 14.836 18.9473 14.3506 19.5894C14.5698 19.0726 14.7577 18.5715 14.9143 18.1174C15.1962 17.2405 15.2275 16.6297 15.0083 16.3792C14.9613 16.3322 14.8987 16.2852 14.8204 16.2696C14.3506 16.849 13.8338 17.5067 13.4737 18.2427C13.1135 18.9786 12.8003 19.7146 12.6437 20.388C12.4871 21.1709 12.5341 21.7034 12.6907 21.9696C12.2836 22.6273 11.8764 23.3319 11.4692 24.0992C11.25 24.522 11.0308 24.9605 10.8272 25.4146C10.9525 24.8196 11.0935 24.2558 11.1248 23.7078C11.2031 22.7682 11.1247 22.1575 10.8585 21.9852C10.7959 21.9383 10.7332 21.9226 10.6549 21.9226C10.2948 22.5959 9.98162 23.3946 9.73107 24.1932C9.46486 24.9762 9.41784 25.8218 9.38652 26.5108C9.38652 27.3407 9.52752 27.8418 9.74675 28.0454C9.32395 29.2512 8.94812 30.5509 8.66625 31.8976C8.65059 31.2242 8.58794 30.5509 8.55662 29.9715C8.46267 28.938 8.21213 28.3116 7.88328 28.1863C7.80499 28.155 7.74232 28.155 7.66403 28.1863C7.4448 29.0163 7.20991 29.9558 7.17859 30.8954C7.16293 31.835 7.22556 32.7432 7.3665 33.4792C7.44479 33.9803 7.63275 34.3718 7.805 34.638C7.93028 34.8259 8.05554 34.9512 8.18081 35.0138C8.11818 35.8124 8.05555 36.6111 7.99291 37.4097C7.99291 37.8951 7.99292 38.3962 8.00858 38.8817C7.94595 38.6311 7.8833 38.3806 7.805 38.1457C7.74237 37.9421 7.67974 37.7542 7.6171 37.5506L7.46045 37.0025C7.14726 36.0317 6.78715 35.4836 6.44265 35.4523C6.36435 35.4523 6.28603 35.4523 6.2234 35.4992C6.19208 36.3605 6.11371 37.3314 6.3486 38.2396C6.52085 39.1479 6.77144 40.0091 7.06897 40.6981C7.17858 40.933 7.27256 41.1366 7.38217 41.3089C7.50745 41.4811 7.61702 41.622 7.72663 41.7317C7.88322 41.8883 8.03986 41.9822 8.16514 42.0135V42.1075L8.36872 43.6891L8.6975 45.255L8.86983 46.038L8.99503 46.4764C8.61921 45.7718 8.29042 45.0828 7.88328 44.5034C7.72669 44.2685 7.57003 44.0649 7.4291 43.8927C7.30383 43.7204 7.17857 43.5638 7.05329 43.4542C6.8184 43.2193 6.59921 43.1097 6.4113 43.141C6.333 43.141 6.25468 43.188 6.19205 43.2663C6.286 44.2372 6.66187 45.2394 7.02204 46.1946C7.41352 47.1341 7.97725 47.9641 8.47834 48.5905C9.13604 49.3421 9.71545 49.624 10.06 49.5613L10.1539 49.8119L10.4514 50.5479C10.5611 50.7828 10.6863 51.0176 10.7959 51.2525C10.9838 51.6284 11.1717 52.0042 11.3596 52.3644C10.8742 51.7693 10.3418 51.2212 9.8407 50.7514C9.07339 49.9841 8.46262 49.6709 8.11811 49.8275C8.03982 49.8589 7.97719 49.9215 7.93021 49.9998C8.11812 50.4383 8.32173 50.8924 8.55662 51.3465C8.79151 51.8006 9.10465 52.2078 9.38652 52.5992C9.68405 52.9907 9.98161 53.3822 10.3105 53.6954C10.655 54.0086 10.9838 54.2905 11.3127 54.5253C12.0956 55.1047 12.7063 55.2457 13.0508 55.0891C13.6459 55.9503 14.2723 56.7803 14.9457 57.5163C15.3371 57.9704 15.7285 58.3932 16.1357 58.816C15.384 58.3462 14.6794 57.8451 13.9591 57.5319C12.9099 57.0308 12.2209 56.8429 11.8921 57.1405C11.8294 57.2031 11.7667 57.2814 11.7354 57.391C12.3148 58.2209 13.1448 58.9726 13.9591 59.6303C14.7891 60.2723 15.7129 60.7264 16.4802 61.024C17.4981 61.3372 18.1715 61.2902 18.469 61.024C19.3459 61.76 20.2228 62.4177 21.0841 62.997C20.2855 62.6839 19.5025 62.402 18.7665 62.2611C17.6704 61.9635 16.95 62.0105 16.6838 62.355C16.6212 62.4333 16.5899 62.5273 16.5899 62.6212C16.9657 62.9344 17.3728 63.2476 17.8113 63.5451C18.2497 63.8113 18.7195 64.0462 19.1893 64.2655C20.1132 64.7196 21.084 64.9545 21.914 65.0484C22.9318 65.1894 23.6053 64.9545 23.8558 64.6256C25.2025 65.346 26.4709 65.8784 27.5671 66.3012C26.5962 66.1602 25.641 66.0506 24.7954 66.0819C23.5896 66.0506 22.8223 66.2699 22.6187 66.7083C22.5717 66.8023 22.5561 66.9119 22.5718 67.0215C23.0415 67.2564 23.5426 67.4756 24.0437 67.6792C24.5605 67.8671 25.1085 67.9924 25.6409 68.102C26.7058 68.3525 27.7863 68.3525 28.6788 68.2586C29.822 68.1333 30.4797 67.7105 30.6363 67.2877C30.9025 67.3503 31.153 67.413 31.3409 67.4756C31.7794 67.5852 32.03 67.6479 32.03 67.6479L32.1709 66.8649L31.4976 66.6927L31.6071 66.677Z" fill="url(#paint1_linear_4_2382)"/>
<path style="mix-blend-mode:color-burn" d="M44.808 66.677C45.2465 66.5517 45.8885 66.4264 46.6871 66.1759C47.1725 66.0193 47.7363 65.8314 48.3314 65.6122C48.2531 65.1894 48.6132 64.5317 49.3492 63.7017C50.5236 62.4803 52.1522 61.0396 53.5929 60.0844C54.0627 60.3506 53.9843 61.1649 53.1387 62.3707C52.6689 63.1067 51.9487 63.7487 51.1657 64.3907C51.7921 64.0932 52.4341 63.7487 53.0918 63.3729C53.5929 63.0753 54.1253 62.7622 54.6421 62.4177C54.5951 62.2924 54.5951 62.1358 54.6421 61.9479C54.7047 61.572 54.9083 61.0709 55.2371 60.4916C56.0671 59.1292 57.2884 57.485 58.4159 56.2948C58.8857 56.4514 58.964 57.1874 58.4316 58.4715C58.1497 59.2075 57.633 59.9122 57.0849 60.6325C57.9305 59.9435 58.7605 59.1762 59.5748 58.3462C59.5122 58.2366 59.4652 58.08 59.4652 57.8921C59.4652 57.5319 59.5748 57.0152 59.7784 56.3418C60.0289 55.5745 60.4203 54.7446 60.7805 53.899C60.9684 53.4762 61.2033 53.0847 61.3912 52.6775C61.5791 52.2704 61.7827 51.8789 62.002 51.5187C62.4874 51.5501 62.7223 52.2547 62.5031 53.6328C62.3465 54.3844 62.0333 55.2144 61.6262 56.0443C62.5657 54.8699 63.4113 53.5545 64.2099 52.1921L64.2569 52.0981C64.0064 51.8476 63.9124 51.2056 63.9751 50.2817C64.0534 49.5457 64.1003 48.6688 64.2882 47.8388C64.4604 47.0089 64.5544 46.1319 64.805 45.3959C65.2434 45.2863 65.6193 45.8344 65.7289 47.1185C65.7915 47.7918 65.7288 48.5591 65.5722 49.3578L66.1047 48.0424L66.5588 46.5704L66.6058 46.4295C66.3239 46.2416 66.1204 45.6622 65.9325 44.7383C65.8072 44.0023 65.7602 43.1567 65.6819 42.2954C65.6506 41.8726 65.635 41.4341 65.6506 41.027C65.6193 40.5885 65.6036 40.1814 65.6036 39.7742C65.9951 39.5394 66.5118 39.9935 66.9346 41.2149C67.1069 41.8569 67.2322 42.6556 67.2792 43.5012L67.4514 42.0292L67.5453 41.2619C67.561 41.0113 67.561 40.7451 67.5767 40.4946C67.5767 40.0091 67.608 39.5237 67.608 39.0383C67.3262 38.9286 66.9973 38.4902 66.7154 37.7229C66.4336 37.0965 66.1361 36.3605 65.9482 35.5932C65.8385 35.2174 65.7602 34.8259 65.6819 34.4344C65.5723 34.0586 65.4783 33.6828 65.4 33.3383C65.7132 33.0407 66.23 33.3383 66.872 34.3248C67.1225 34.8259 67.3418 35.4366 67.5453 36.0943C67.4984 35.5619 67.467 35.0295 67.42 34.5127C67.3261 33.7454 67.2008 33.0094 67.0442 32.2734C66.7467 32.2578 66.3396 31.8976 65.8698 31.2399C65.447 30.7075 65.0242 30.0655 64.6797 29.3764C64.3351 28.6874 63.8967 28.0141 63.6462 27.3407C63.8811 26.9649 64.4449 27.1058 65.2591 27.9201C65.6819 28.3116 66.0264 28.844 66.3396 29.4547C65.9325 28.1394 65.447 26.9023 64.9303 25.7748C64.6484 25.7748 64.2255 25.5869 63.7088 25.1641C62.8162 24.3811 61.7357 23.238 60.9997 22.1731C61.125 21.7973 61.7045 21.7817 62.5188 22.3454C62.8633 22.5803 63.2391 22.8935 63.5993 23.2536C62.9102 22.0635 62.2055 21.03 61.5478 20.1687C61.2972 20.2627 60.8432 20.1688 60.2168 19.8556C59.6687 19.605 59.105 19.2292 58.5412 18.822C57.9618 18.4462 57.4295 17.9764 56.944 17.5536C56.991 17.1622 57.5547 17.0056 58.4786 17.3814C58.8858 17.538 59.3555 17.7729 59.7939 18.0704C59.3868 17.6163 59.0267 17.2874 58.7761 17.0212C58.5882 16.8333 58.4473 16.6924 58.369 16.6141C58.0558 16.5671 57.727 16.4888 57.3981 16.3792C56.8814 16.1913 56.3489 15.8937 55.8165 15.5179C55.1901 15.0638 54.642 14.3122 54.2192 13.6545C53.7964 12.9968 53.499 12.4644 53.499 12.4644C53.499 12.4644 54.0001 12.4174 54.6734 12.527C55.3468 12.6209 56.1611 12.8402 56.7405 13.2317C57.4138 13.7171 57.9775 14.2965 58.322 14.9072C58.5255 15.2517 58.6822 15.5962 58.7761 15.9251C58.8231 15.972 58.9954 16.1443 59.2773 16.4262C59.6061 16.7707 60.1228 17.2405 60.7022 17.9451C61.125 18.3992 61.5791 18.9473 62.0646 19.5894C61.8453 19.0726 61.6575 18.5715 61.5009 18.1174C61.219 17.2405 61.1877 16.6297 61.4069 16.3792C61.4539 16.3322 61.5165 16.2852 61.5948 16.2696C62.0646 16.849 62.5813 17.5067 62.9415 18.2427C63.3017 18.9786 63.6149 19.7146 63.7715 20.388C63.9281 21.1709 63.8811 21.7034 63.7245 21.9696C64.1316 22.6273 64.5388 23.3319 64.9459 24.0992C65.1652 24.522 65.3844 24.9605 65.5879 25.4146C65.4626 24.8196 65.3217 24.2558 65.2904 23.7078C65.2121 22.7682 65.2905 22.1575 65.5567 21.9852C65.6193 21.9383 65.6819 21.9226 65.7602 21.9226C66.1203 22.5959 66.4335 23.3946 66.6841 24.1932C66.9503 24.9762 66.9972 25.8218 67.0286 26.5108C67.0286 27.3407 66.8877 27.8418 66.6684 28.0454C67.0912 29.2512 67.4671 30.5509 67.7489 31.8976C67.7646 31.2242 67.8272 30.5509 67.8585 29.9715C67.9525 28.938 68.203 28.3116 68.5319 28.1863C68.6102 28.155 68.6728 28.155 68.7511 28.1863C68.9704 29.0163 69.2053 29.9558 69.2366 30.8954C69.2522 31.835 69.1896 32.7432 69.0487 33.4792C68.9704 33.9803 68.7824 34.3718 68.6102 34.638C68.4849 34.8259 68.3596 34.9512 68.2344 35.0138C68.297 35.8124 68.3596 36.6111 68.4223 37.4097C68.4223 37.8951 68.4222 38.3962 68.4066 38.8817C68.4692 38.6311 68.5319 38.3806 68.6102 38.1457C68.6728 37.9421 68.7354 37.7542 68.7981 37.5506L68.9547 37.0025C69.2679 36.0317 69.628 35.4836 69.9725 35.4523C70.0508 35.4523 70.1291 35.4523 70.1918 35.4992C70.2231 36.3605 70.3014 37.3314 70.0665 38.2396C69.8942 39.1479 69.6437 40.0091 69.3462 40.6981C69.2366 40.933 69.1426 41.1366 69.033 41.3089C68.9077 41.4811 68.7982 41.622 68.6885 41.7317C68.5319 41.8883 68.3753 41.9822 68.25 42.0135V42.1075L68.0465 43.6891L67.7176 45.255L67.5453 46.038L67.42 46.4764C67.7959 45.7718 68.1247 45.0828 68.5319 44.5034C68.6885 44.2685 68.845 44.0649 68.986 43.8927C69.1112 43.7204 69.2366 43.5638 69.3619 43.4542C69.5968 43.2193 69.816 43.1097 70.0039 43.141C70.0822 43.141 70.1605 43.188 70.2231 43.2663C70.1292 44.2372 69.7533 45.2394 69.3931 46.1946C69.0016 47.1341 68.4379 47.9641 67.9368 48.5905C67.2791 49.3421 66.6997 49.624 66.3552 49.5613L66.2613 49.8119L65.9637 50.5479C65.8541 50.7828 65.7289 51.0176 65.6193 51.2525C65.4314 51.6284 65.2435 52.0042 65.0556 52.3644C65.541 51.7693 66.0734 51.2212 66.5745 50.7514C67.3418 49.9841 67.9525 49.6709 68.2971 49.8275C68.3754 49.8589 68.438 49.9215 68.485 49.9998C68.297 50.4383 68.0934 50.8924 67.8585 51.3465C67.6237 51.8006 67.3104 52.2078 67.0286 52.5992C66.731 52.9907 66.4336 53.3822 66.1047 53.6954C65.7602 54.0086 65.4313 54.2905 65.1025 54.5253C64.3195 55.1047 63.7088 55.2457 63.3643 55.0891C62.7693 55.9503 62.1429 56.7803 61.4695 57.5163C61.078 57.9704 60.6865 58.3932 60.2794 58.816C61.031 58.3462 61.7357 57.8451 62.4561 57.5319C63.5052 57.0308 64.1943 56.8429 64.5231 57.1405C64.5857 57.2031 64.6483 57.2814 64.6797 57.391C64.1003 58.2209 63.2703 58.9726 62.4561 59.6303C61.6261 60.2723 60.7022 60.7264 59.9349 61.024C58.9171 61.3372 58.2437 61.2902 57.9462 61.024C57.0692 61.76 56.1923 62.4177 55.3311 62.997C56.1297 62.6839 56.9126 62.402 57.6486 62.2611C58.7448 61.9635 59.4651 62.0105 59.7313 62.355C59.794 62.4333 59.8253 62.5273 59.8253 62.6212C59.4495 62.9344 59.0424 63.2476 58.6039 63.5451C58.1655 63.8113 57.6957 64.0462 57.2259 64.2655C56.302 64.7196 55.331 64.9545 54.5011 65.0484C53.4832 65.1894 52.8099 64.9545 52.5593 64.6256C51.2126 65.346 49.9442 65.8784 48.8481 66.3012C49.819 66.1602 50.7742 66.0506 51.6198 66.0819C52.8256 66.0506 53.5929 66.2699 53.7965 66.7083C53.8435 66.8023 53.8591 66.9119 53.8434 67.0215C53.3736 67.2564 52.8725 67.4756 52.3714 67.6792C51.8547 67.8671 51.3067 67.9924 50.7742 68.102C49.7094 68.3525 48.6289 68.3525 47.7363 68.2586C46.5932 68.1333 45.9355 67.7105 45.7789 67.2877C45.5127 67.3503 45.2621 67.413 45.0742 67.4756C44.6358 67.5852 44.3852 67.6479 44.3852 67.6479L44.2442 66.8649L44.9176 66.6927L44.808 66.677Z" fill="url(#paint2_linear_4_2382)"/>
</g>
<g filter="url(#filter1_d_4_2382)">
<path d="M38.4347 74.7414C58.5682 74.7414 74.8896 58.42 74.8896 38.2865C74.8896 18.153 58.5682 1.83154 38.4347 1.83154C18.3012 1.83154 1.97968 18.153 1.97968 38.2865C1.97968 58.42 18.3012 74.7414 38.4347 74.7414Z" stroke="url(#paint3_linear_4_2382)" stroke-width="1.36" stroke-miterlimit="10"/>
</g>
<defs>
<filter id="filter0_d_4_2382" x="1.62968" y="1.48154" width="77.1499" height="77.1499" filterUnits="userSpaceOnUse" color-interpolation-filters="sRGB">
<feFlood flood-opacity="0" result="BackgroundImageFix"/>
<feColorMatrix in="SourceAlpha" type="matrix" values="0 0 0 0 0 0 0 0 0 0 0 0 0 0 0 0 0 0 127 0" result="hardAlpha"/>
<feOffset dx="1.77" dy="1.77"/>
<feGaussianBlur stdDeviation="1.06"/>
<feColorMatrix type="matrix" values="0 0 0 0 0 0 0 0 0 0 0 0 0 0 0 0 0 0 0.75 0"/>
<feBlend mode="normal" in2="BackgroundImageFix" result="effect1_dropShadow_4_2382"/>
<feBlend mode="normal" in="SourceGraphic" in2="effect1_dropShadow_4_2382" result="shape"/>
</filter>
<filter id="filter1_d_4_2382" x="0.949683" y="0.801611" width="78.5099" height="78.5098" filterUnits="userSpaceOnUse" color-interpolation-filters="sRGB">
<feFlood flood-opacity="0" result="BackgroundImageFix"/>
<feColorMatrix in="SourceAlpha" type="matrix" values="0 0 0 0 0 0 0 0 0 0 0 0 0 0 0 0 0 0 127 0" result="hardAlpha"/>
<feOffset dx="1.77" dy="1.77"/>
<feGaussianBlur stdDeviation="1.06"/>
<feColorMatrix type="matrix" values="0 0 0 0 0 0 0 0 0 0 0 0 0 0 0 0 0 0 0.75 0"/>
<feBlend mode="normal" in2="BackgroundImageFix" result="effect1_dropShadow_4_2382"/>
<feBlend mode="normal" in="SourceGraphic" in2="effect1_dropShadow_4_2382" result="shape"/>
</filter>
<linearGradient id="paint0_linear_4_2382" x1="12.6593" y1="64.0618" x2="64.2099" y2="12.5112" gradientUnits="userSpaceOnUse">
<stop offset="0.02" stop-color="#CB9B27"/>
<stop offset="0.7" stop-color="#E4C764"/>
<stop offset="1" stop-color="#CB9B27"/>
</linearGradient>
<linearGradient id="paint1_linear_4_2382" x1="6.286" y1="40.385" x2="32.2806" y2="40.385" gradientUnits="userSpaceOnUse">
<stop stop-color="#CDAB2E"/>
<stop offset="0.3" stop-color="#F1E28B"/>
<stop offset="0.98" stop-color="#AD8C40"/>
</linearGradient>
<linearGradient id="paint2_linear_4_2382" x1="70.1448" y1="-13.9999" x2="44.1503" y2="-13.9999" gradientUnits="userSpaceOnUse">
<stop stop-color="#CDAB2E"/>
<stop offset="0.3" stop-color="#F1E28B"/>
<stop offset="0.98" stop-color="#AD8C40"/>
</linearGradient>
<linearGradient id="paint3_linear_4_2382" x1="11.9077" y1="64.8134" x2="64.9615" y2="11.7596" gradientUnits="userSpaceOnUse">
<stop stop-color="#E6CB81"/>
<stop offset="0.19" stop-color="#ECDA8F"/>
<stop offset="0.41" stop-color="#F7F2E5"/>
<stop offset="0.73" stop-color="#B78921"/>
<stop offset="0.93" stop-color="#DFC27C"/>
<stop offset="0.95" stop-color="#E4C886"/>
</linearGradient>
</defs>
</svg>
