<svg width="204" height="203" xmlns="http://www.w3.org/2000/svg"><g transform="translate(2 2)" fill="none" fill-rule="evenodd"><circle fill="#F5DE90" cx="99.871" cy="99.871" r="89.171"/><path d="M199.28 99.729c0 54.86-44.476 99.336-99.337 99.336-54.86 0-99.336-44.475-99.336-99.336S45.082.392 99.943.392 199.28 44.868 199.28 99.73z" stroke="#BFA66B" stroke-width="3.638"/><path d="M99.943 4.592c-52.541 0-95.135 42.595-95.135 95.137 0 52.54 42.594 95.136 95.135 95.136 52.541 0 95.137-42.595 95.137-95.136 0-52.542-42.596-95.137-95.137-95.137m0 8.489c47.778 0 86.648 38.87 86.648 86.648 0 47.777-38.87 86.647-86.648 86.647-47.776 0-86.646-38.87-86.646-86.647 0-47.778 38.87-86.648 86.646-86.648" fill="#9E8852"/><path d="M45.597 67.858c10.964-18.626 31.213-31.16 54.346-31.16 23.134 0 43.384 12.534 54.348 31.16h2.823c-11.19-20.033-32.593-33.586-57.171-33.586-24.576 0-45.978 13.553-57.17 33.586h2.824zM45.597 132.003c10.964 18.626 31.213 31.16 54.346 31.16 23.134 0 43.384-12.534 54.348-31.16h2.823c-11.19 20.033-32.593 33.586-57.171 33.586-24.576 0-45.978-13.553-57.17-33.586h2.824zM158.88 43.583l5.19 5.971-2.113 1.839-3.283-3.775L157.082 49l2.983 3.432-2.087 1.815-2.984-3.432-1.702 1.48 3.342 3.845-2.115 1.838-5.25-6.042 9.61-8.354zm-7.963-7.537c1.904 1.521 2.76 3.743 2.53 5.749l-2.819-.435c.11-.985-.376-2.211-1.499-3.11-1.677-1.34-3.914-1.103-5.313.645-1.352 1.691-1.147 3.882.786 5.426 1.322 1.058 2.655 1.168 3.77.5l-2.656-2.125 1.59-1.989 4.989 3.988-.682.852c-2.431 3.042-6.026 3.197-8.812.97-3.126-2.5-3.531-6.598-1.247-9.454 2.306-2.885 6.435-3.36 9.363-1.017zm-97.864-2.92l1.742 2.191-2.56 2.04 6.182 7.769-2.277 1.811-6.182-7.768-2.563 2.037-1.744-2.191 7.402-5.89zm11.876-6.97l6.166 11.14-2.547 1.409-2.447-4.424-3.501 1.938 2.448 4.424-2.546 1.409-6.166-11.14 2.547-1.41 2.36 4.266 3.502-1.937-2.362-4.266 2.546-1.41zm70.886.556l3.291 1.714-2.04 13.295-2.823-1.471.36-2.07-4.196-2.183-1.49 1.48-2.823-1.47 9.72-9.295zm-58.916-5.087l.93 2.64-4.718 1.66.7 1.989 4.288-1.508.918 2.608-4.288 1.508.747 2.128 4.803-1.69.93 2.642-7.549 2.653-4.223-12.007 7.462-2.623zm59.024 8.897l-3.482 3.458 2.646 1.377.836-4.835zm-14.717-9.43l8.968 2.993-.886 2.654-3.105-1.035-3.14 9.416-2.76-.921 3.141-9.416-3.104-1.037.886-2.654zm-6.29-1.311l2.85.582-2.55 12.474-2.852-.582 2.552-12.474zm-19.753-1.333l.306 2.784-4.971.545.23 2.098 4.519-.495.3 2.747-4.52.495.246 2.242 5.062-.554.305 2.784-7.955.872L87.3 19.31l7.863-.862zm4.508-.204l5.083.316c3.503.218 6 3.143 5.777 6.737-.224 3.594-3.064 6.188-6.567 5.97l-5.083-.316.79-12.707zm2.731 2.976l-.443 7.115 2.178.137c1.997.123 3.463-1.17 3.598-3.35.136-2.177-1.158-3.642-3.156-3.766l-2.177-.136zM97.75 170.084c1.932.065 3.544 1.094 4.354 2.56l-1.467.783c-.493-.963-1.605-1.67-2.942-1.714-2.153-.072-3.719 1.465-3.787 3.545-.067 2.05 1.364 3.685 3.647 3.76 1.847.061 3.014-.862 3.364-2.219l-3.404-.111.05-1.5 5.09.17-.022.698c-.092 2.777-2.165 4.69-5.147 4.59-3.17-.104-5.347-2.536-5.25-5.459.097-2.923 2.458-5.205 5.513-5.103zm14.345-.706l.789 6.763c.253 2.18-1.207 3.73-3.418 3.987-2.225.26-3.987-.912-4.242-3.095l-.788-6.764 1.662-.192.775 6.661c.14 1.185.916 1.944 2.405 1.772 1.488-.175 2.07-1.093 1.932-2.276l-.776-6.663 1.661-.193zm6.515-1.559l6.114 8.934-1.746.453-1.203-1.807-4.197 1.085-.176 2.165-1.76.456 1.025-10.784 1.943-.502zm-39.828-.601l1.853.456 1.337 4.977 3.482-3.791 1.853.456-4.917 5.117-.968 3.93-1.626-.4.967-3.93-1.981-6.815zm52.773-.61c.496 1.212.168 2.605-.753 3.5l3.642 2.789-1.698.695-3.4-2.62-1.832.75 1.406 3.437-1.549.633-3.86-9.43 3.771-1.544a3.263 3.263 0 014.273 1.79zm-60.332-2.277l6.928 2.652-.572 1.494-2.677-1.024-3.067 8.013-1.562-.598 3.067-8.013-2.69-1.031.573-1.493zm46.908 5.64l-.411 4.854 3.126-.809-2.715-4.045zm-49.965-7.198l1.502.735-4.481 9.145-1.504-.736 4.483-9.144zm67.982-2.433l8.286 6.963-1.56.906-1.645-1.418-3.75 2.174.411 2.13-1.572.911-1.907-10.66 1.737-1.006zm-74.583-1.325l1.436.86-4.41 7.37 3.559 2.13-.822 1.374-4.997-2.99 5.234-8.744zm66.314 7.257l-2.223.91 1.29 3.152 2.222-.91c.822-.335 1.195-1.307.837-2.182-.364-.889-1.305-1.306-2.126-.97zm8.384-3.729l.907 4.784 2.793-1.617-3.7-3.167zm-80.48-7.755l1.583 1.237-3.368 10.297-1.422-1.11.7-2.058-3.42-2.668-1.824 1.178-1.434-1.12 9.184-5.756zm90.783-1.935l6.295 8.006-1.029.81-8.046-2.466 4.271 5.433-1.314 1.033-6.296-8.004 1.03-.809 8.045 2.463-4.271-5.43 1.315-1.036zm-91.202 4.102l-4.104 2.631 2.548 1.99 1.556-4.621zM46.76 146.28l1.168 1.197-4.803 4.685c-.854.832-.98 1.911.066 2.984 1.046 1.072 2.128.973 2.983.141l4.802-4.683 1.169 1.198-4.876 4.754c-1.573 1.534-3.69 1.323-5.245-.272-1.565-1.604-1.713-3.716-.14-5.25l4.876-4.754zm106.2.174l1.144 1.12-2.005 2.048 6.135 6.006-1.171 1.196-6.134-6.005-2.016 2.059-1.145-1.12 5.192-5.304zm4.797-6.098l1.264.982-2.72 3.503 2.092 1.624 2.497-3.217 1.252.972-2.497 3.218 2.172 1.685 2.765-3.562 1.264.982-3.791 4.883-8.044-6.243 3.746-4.827zm-115.088.297a5.251 5.251 0 01-1.216 7.368 5.228 5.228 0 01-3.64.964l-.271 1.519-1.551-.34.282-1.579a5.421 5.421 0 01-2.189-1.779 5.263 5.263 0 011.217-7.368 5.261 5.261 0 017.368 1.215zm-6.393.144c-1.703 1.22-2.037 3.427-.866 5.06.322.45.713.795 1.161 1.046l.465-2.623 1.549.338-.484 2.746a3.661 3.661 0 002.378-.702c1.703-1.22 2.035-3.427.867-5.06-1.17-1.632-3.368-2.026-5.07-.805zm125.762-7.326l1.368.83-2.304 3.793 2.264 1.374 2.114-3.482 1.356.824-2.114 3.481 2.35 1.428 2.341-3.856 1.368.831-3.21 5.285-8.704-5.285 3.171-5.223z" fill="#00084D"/><path stroke="#020303" stroke-width="2.425" d="M173.401 121.32H26.487"/><path d="M99.871 137.354s3.243 3.011 3.243 6.726-3.243 6.726-3.243 6.726-3.244-3.011-3.244-6.726c0-3.529 2.928-6.423 3.22-6.704zm-8.185-3.669c3.565 0 6.489 2.899 6.773 3.188l.022.024s-3.042 3.209-6.795 3.209-6.795-3.21-6.795-3.21 3.042-3.21 6.795-3.21zm16.37 0c3.566 0 6.49 2.899 6.773 3.188l.023.024s-3.042 3.21-6.796 3.21c-3.47 0-6.334-2.747-6.744-3.159l-.05-.051s3.042-3.212 6.794-3.212zM100.62 52.871l2.214 6.649 7.054.029a.713.713 0 01.416 1.29l-5.683 4.123 2.153 6.652a.713.713 0 01-1.092.8l-5.739-4.088-5.738 4.089a.713.713 0 01-1.093-.8l2.153-6.653-5.682-4.122a.713.713 0 01.416-1.291l7.053-.03 2.214-6.648a.713.713 0 011.354 0z" fill="#9E8852"/><path d="M79.761 74.222c3.502 2.081 5.253 4.592 5.253 7.532 0 2.313-1.288 4.79-3.865 7.434-1.487 1.552-3.246 2.89-5.278 4.014-2.032 1.123-4.039 1.932-6.021 2.428-3.436.826-6.542 1.239-9.317 1.239-.594 0-1.19-.017-1.784-.05-2.412 3.535-4.89 6.542-7.433 9.02-3.733 3.502-7.847 5.252-12.34 5.252-4.295 0-6.938-1.172-7.929-3.518-.23-.562-.347-1.214-.347-1.957 0-.744.38-1.545 1.14-2.404 1.19-1.354 2.858-2.032 5.005-2.032 1.388 0 2.842.248 4.361.744.562.198.76.413.595.644-.132.132-.562.066-1.288-.198-.727-.265-1.628-.397-2.701-.397-1.074 0-2.016.405-2.825 1.214-.81.81-1.214 1.677-1.214 2.602 0 .363.066.727.198 1.09.529 1.784 2.032 2.676 4.51 2.676 3.7 0 7.334-1.718 10.902-5.154 2.544-2.477 5.402-6.937 8.573-13.38 1.223-2.412 2.742-5.096 4.56-8.053 1.817-2.957 3.667-5.492 5.55-7.607l.892-.892a40.126 40.126 0 011.734-1.883c-2.378-.33-4.922-.495-7.631-.495-2.71 0-5.27.223-7.682.669-2.411.446-4.51.974-6.293 1.586a37.428 37.428 0 00-5.427 2.378c-1.833.975-3.378 2.206-4.633 3.692-1.652 1.883-2.478 3.85-2.478 5.897 0 1.256.446 2.429 1.338 3.519.958 1.156 2.189 1.734 3.692 1.734 1.503 0 2.957-.578 4.361-1.734 1.404-1.156 2.403-2.577 2.998-4.262.033-.231.107-.388.223-.47.116-.083.223-.075.322.024.1.1.149.264.149.496-.033 2.147-.867 3.84-2.503 5.08-1.635 1.238-3.444 1.857-5.426 1.857-2.247 0-4.08-.66-5.5-1.982-1.421-1.321-2.132-3.023-2.132-5.104 0-1.916.512-3.642 1.536-5.179 1.025-1.536 2.247-2.783 3.668-3.741 1.42-.958 3.056-1.817 4.906-2.577a43.841 43.841 0 019.886-2.651c3.453-.512 6.674-.768 9.664-.768 2.99 0 5.756.264 8.3.792 1.19-.925 2.23-1.552 3.122-1.883.892-.33 1.396-.495 1.512-.495.115 0 .19.016.223.05.198 0 .24.107.124.321-.116.215-.496.537-1.14.967a12.22 12.22 0 00-1.858 1.536c2.114.562 4.03 1.355 5.748 2.379zM60.137 95.779c2.412 0 5.03-.422 7.854-1.264 2.825-.843 5.328-2.073 7.508-3.692 4.229-3.205 6.343-6.508 6.343-9.911 0-3.866-2.923-6.492-8.771-7.88-1.85 2.577-4.245 6.492-7.186 11.745-2.94 5.253-5.087 8.92-6.442 11.002h.694zm28.197-6.492c0 1.486-.941 2.89-2.824 4.212.66.033 1.544.05 2.65.05 1.108 0 2.503-.083 4.188-.248.066.099.1.363.1.793 0 .43-.199 1.065-.595 1.908a71.45 71.45 0 01-1.066 2.18c-.314.611-.61 1.19-.892 1.735-.28.545-.594 1.214-.941 2.007-.347.792-.636 1.52-.868 2.18-.825 2.51-.693 3.766.397 3.766 1.388 0 3.436-2.758 6.145-8.276.231-.429.421-.594.57-.495.148.099.223.223.223.372 0 .148-.215.66-.644 1.536-.43.875-.892 1.776-1.388 2.7-.496.926-1.272 2-2.33 3.222-1.255 1.52-2.46 2.28-3.617 2.28-1.288 0-2.18-.777-2.676-2.33-.099-.297-.148-.743-.148-1.338 0-.594.19-1.387.57-2.379.38-.99.982-2.196 1.808-3.617.826-1.42 1.289-2.255 1.388-2.503.099-.247.148-.487.148-.718 0-1.024-1.321-1.57-3.964-1.636l-.595 1.586c-2.081 5.451-4.08 9.102-5.996 10.952-.33.297-.496.198-.496-.297 0-.1.034-.215.1-.347 1.85-2.445 3.452-5.336 4.807-8.672 1.354-3.337 2.296-6.509 2.824-9.515.198-1.024.661-1.536 1.388-1.536.727 0 1.255.462 1.586 1.387.099.297.148.644.148 1.04zm15.214 2.527c2.412 0 3.618 1.52 3.618 4.56 0 1.387-.364 2.874-1.09 4.46-.926 2.147-2.313 4.096-4.163 5.847.43.826 1.206 1.239 2.329 1.239.892 0 1.734-.446 2.527-1.338.991-1.024 1.702-1.925 2.131-2.7.43-.777.743-1.347.942-1.71.198-.364.454-.884.768-1.562.314-.677.504-1.09.57-1.239a.35.35 0 01.347-.223c.33-.033.495.083.495.347 0 .1-.033.215-.099.347l-.297.694c-.199.463-.347.793-.446.991-.1.198-.273.554-.52 1.066-.248.512-.463.916-.645 1.214-.182.297-.43.694-.743 1.19-.314.495-.595.891-.843 1.188-.247.298-.553.628-.916.992-.364.363-.71.644-1.041.842-.826.496-1.602.743-2.33.743-1.354 0-2.411-.43-3.17-1.288-1.52 1.123-2.925 1.685-4.213 1.685-2.412 0-3.618-1.52-3.618-4.56 0-1.387.364-2.874 1.09-4.46.992-2.312 2.387-4.278 4.188-5.897 1.8-1.618 3.51-2.428 5.129-2.428zm.545 1.536c-.892 0-1.95.595-3.171 1.784-1.223 1.19-2.313 2.809-3.271 4.857-1.156 2.379-1.735 4.328-1.735 5.848 0 1.52.579 2.28 1.735 2.28.826 0 1.75-.447 2.775-1.339-.529-.76-.793-1.57-.793-2.428.066-1.42.644-2.131 1.735-2.131.429 0 .784.149 1.065.446.28.297.421.57.421.818 0 .247-.033.503-.099.768.562-.826 1.206-1.999 1.933-3.519.826-1.685 1.239-3.337 1.239-4.955 0-1.62-.611-2.429-1.834-2.429zm30.477-.446c-4.03 7.17-6.046 11.795-6.046 13.876 0 .925.314 1.388.942 1.388.793 0 1.701-.595 2.725-1.784 1.553-1.883 2.908-4.147 4.064-6.79.198-.462.397-.644.595-.545.198.1.297.232.297.397s-.165.578-.495 1.239l-.793 1.585c-.199.397-.636 1.157-1.314 2.28-.677 1.123-1.255 1.95-1.734 2.478-.48.528-1.09 1.049-1.834 1.56-.743.513-1.585.769-2.527.769-.942 0-1.743-.463-2.403-1.388-.298-.429-.446-1.015-.446-1.759 0-.743.165-1.643.495-2.7.33-1.058 1.239-2.776 2.726-5.154.363-.595.545-1.066.545-1.413s-.273-.52-.818-.52c-.545 0-1.528.66-2.948 1.982-1.421 1.322-2.916 3.106-4.485 5.352-1.57 2.247-2.503 4.047-2.8 5.402-.562 0-.975-.231-1.24-.694-.263-.463-.396-.859-.396-1.19 0-1.354.909-3.93 2.726-7.73.595-1.256.909-2.106.942-2.552.033-.446-.025-.678-.174-.694-.149-.017-.355.041-.62.173-.594.298-1.503 1.025-2.725 2.18-2.313 2.115-4.592 5.336-6.839 9.664-.165.364-.371.587-.62.67-.247.082-.734.14-1.461.173-.727.033-1.206.115-1.437.248.595-1.157 1.635-3.32 3.122-6.492 2.676-5.683 4.46-8.953 5.352-9.812.396-.397.942-.595 1.635-.595.132 0 .471.05 1.016.149.545.099.95.115 1.214.05-1.222.66-3.22 3.765-5.996 9.316 1.553-1.916 2.668-3.172 3.345-3.767a180.715 180.715 0 003.073-2.75c.346-.314.61-.545.792-.694.182-.148.438-.355.769-.62.33-.263.586-.437.768-.52.181-.082.43-.223.743-.42.314-.199.545-.298.694-.298.148 0 .355-.041.62-.124.264-.083.445-.058.544.074.661.265.992.678.992 1.24 0 .495-.562 1.767-1.685 3.815-1.124 2.048-1.85 3.403-2.18 4.064 1.453-1.817 2.84-3.312 4.162-4.485 1.321-1.173 2.882-2.255 4.683-3.246 1.8-.991 3.114-1.487 3.94-1.487.198 0 .363.033.495.1zm8.474-3.023c-.462.397-.974.595-1.536.595s-1.008-.198-1.338-.595c-.33-.396-.462-.875-.396-1.437.099-.561.38-1.04.842-1.437.463-.396.975-.594 1.536-.594.562 0 1.016.198 1.363.594.347.397.47.876.372 1.437-.1.562-.38 1.041-.843 1.437zm-4.856 18.188c.628 0 1.288-.314 1.982-.942 1.222-1.222 2.775-3.717 4.658-7.483.232-.496.463-.644.694-.446.066.066.1.173.1.322 0 .149-.133.512-.397 1.09-.265.579-.504 1.099-.719 1.561-.215.463-.627 1.214-1.239 2.255-.61 1.04-1.164 1.842-1.66 2.404-1.354 1.552-2.635 2.329-3.84 2.329-1.206 0-2.074-.364-2.602-1.09a4.032 4.032 0 01-.793-2.429c0-.892.215-1.866.644-2.924l3.172-8.077c.066-.198.099-.463.099-.793s-.198-.76-.595-1.289l2.726-.05c.76 0 1.206.141 1.338.422.132.281.033.719-.297 1.313l-3.965 9.267c-.562 1.223-.842 2.263-.842 3.122 0 .959.512 1.438 1.536 1.438zm10.952.148c.43.066.727.1.892.1 1.321 0 2.626-.777 3.915-2.33.693-.859 1.932-3.023 3.716-6.492.066-.165.182-.247.347-.247.298-.033.446.082.446.346 0 .067-.074.256-.223.57-.148.314-.289.628-.421.942a25.16 25.16 0 01-.644 1.363 24.172 24.172 0 01-.768 1.437c-.215.363-.488.81-.818 1.338-.33.528-.66.941-.991 1.239l-1.04 1.09a4.696 4.696 0 01-1.983 1.19c-1.222.396-2.412.429-3.568.098-.76.33-1.437.496-2.032.496-2.346 0-3.766-.925-4.262-2.775-.099-.43-.148-.95-.148-1.561s.206-1.198.62-1.76c.412-.561.85-.858 1.312-.891 1.685-3.205 3.122-6.096 4.312-8.673 1.321-2.808 2.857-4.212 4.608-4.212.463 0 .917.107 1.363.322.446.215.611.454.496.719-.116.264-.355.314-.719.148-.363-.165-.677-.247-.941-.247-.265 0-.496.05-.694.148-1.123.529-1.685 1.669-1.685 3.42 0 .925.132 1.685.396 2.28.265.594.562 1.238.892 1.932.76 1.718 1.14 3.122 1.14 4.212 0 1.09-.347 2.164-1.04 3.221-.694 1.058-1.52 1.916-2.478 2.577zm-1.685-.347c1.453-1.123 2.18-2.94 2.18-5.45 0-1.025-.115-2.43-.347-4.213-.23-1.784-.347-2.99-.347-3.618 0-.627.017-1.057.05-1.288-2.51 5.022-4.064 8.077-4.658 9.168.694 0 1.04.495 1.04 1.486 0 1.95.694 3.255 2.082 3.915zm-3.717-1.338c0 .199.017.413.05.645.264.892.875 1.338 1.833 1.338.397 0 .727-.067.991-.199-1.222-.76-1.883-1.998-1.982-3.716-.595.594-.892 1.239-.892 1.932zm16.007-5.005c-.463 1.123-.694 2.379-.694 3.766 0 .925.206 1.66.62 2.206.412.545.999.817 1.759.817 3.006 0 5.732-2.824 8.176-8.474.232-.528.512-.76.843-.694.132.033.198.116.198.248s-.372 1-1.115 2.602c-.743 1.602-1.495 2.899-2.255 3.89-1.685 2.313-3.766 3.469-6.244 3.469-1.321 0-2.445-.43-3.37-1.288-.925-.86-1.387-2.032-1.387-3.519s.355-3.064 1.065-4.733a18.12 18.12 0 012.9-4.658c1.222-1.437 2.626-2.486 4.212-3.147.76-.33 1.486-.495 2.18-.495.694 0 1.338.198 1.933.594.561.463.842.975.842 1.537 0 1.982-1.19 3.882-3.568 5.699-.727.561-1.75 1.065-3.072 1.511-1.322.446-2.33.67-3.023.67zm8.325-7.929c0-.66-.264-.991-.793-.991-.925 0-2.329 1.14-4.212 3.42a25.483 25.483 0 00-2.973 4.658c.561 0 1.379-.199 2.453-.595 1.073-.396 2.007-.925 2.8-1.586 1.817-1.553 2.725-3.188 2.725-4.906z" fill="#00084D" fill-rule="nonzero"/></g></svg>