<svg width="296" height="107" viewBox="0 0 296 107" fill="none" xmlns="http://www.w3.org/2000/svg">
<path d="M61.0168 24.5554C69.1753 27.4993 69.2692 30.5999 69.2692 31.9935C69.2692 34.2015 68.1261 35.0941 67.4684 35.5795H91.5681C90.6756 35.0001 90.5033 34.593 89.2818 30.8348C89.0313 30.0205 88.0605 27.0765 85.8525 24.8685C82.3448 28.4545 79.7297 30.9913 74.6717 34.9218L74.2645 34.5147C77.6939 28.3136 81.5305 19.3251 82.517 11.6521L94.2772 15.332C94.606 15.4103 95.0132 15.7392 95.0132 16.2246C95.0132 17.0389 94.6843 17.2111 91.5055 18.5109C90.2841 19.9828 89.2975 21.126 87.9195 22.6762H102.138L105.568 17.7749C106.225 16.8823 106.554 16.4751 106.961 16.4751C107.368 16.4751 107.697 16.7257 108.512 17.3677L114.713 22.5196C115.041 22.7702 115.527 23.2556 115.527 23.7411C115.527 24.6337 114.713 24.6337 114.305 24.6337H89.8926C91.1923 25.1191 97.5656 27.2488 97.5656 31.5707C97.5656 32.7922 96.9079 34.593 95.2011 35.5795H96.9236L99.2882 32.5573C99.8676 31.8213 99.9459 31.743 100.275 31.743C100.604 31.743 101.011 31.9935 101.496 32.3224L107.462 36.7383C107.87 36.9889 108.198 37.396 108.198 37.8032C108.198 38.2103 106.57 39.8389 105.505 40.8254C105.583 41.8903 105.756 47.1205 105.756 48.2636C105.756 51.1293 102.655 51.9435 99.8833 51.9435C96.7827 51.9435 96.9393 50.315 97.1115 48.1853H82.4074C82.4074 49.579 82.3291 56.2655 82.4074 57.8158H102.42L105.521 54.3081C105.677 54.1515 106.413 53.3216 106.914 53.3216C107.243 53.3216 108.057 53.9793 108.386 54.2142L114.259 59.1155C114.666 59.5227 114.916 59.9298 114.916 60.2587C114.916 61.1512 114.587 61.3235 111.487 63.1243C109.122 74.2268 107.729 80.7724 95.0758 81.9155C94.9192 79.6293 94.5904 74.7279 87.481 70.2337V69.6543C90.0178 70.2337 94.9976 71.2828 97.2055 71.2828C98.928 71.2828 100.071 70.954 101.042 67.6968C101.935 64.424 102.592 61.1669 102.843 59.7732H82.4231C82.4231 62.8738 82.6736 78.0633 82.6736 81.4927C82.6736 83.9356 82.517 84.3584 81.7811 85.0787C80.0742 86.7856 77.3651 86.9578 76.3159 86.9578C73.2937 86.9578 73.2937 85.4076 73.2937 82.0565C73.2937 81.4771 73.372 68.0883 73.4503 66.0526C66.9203 73.3968 55.8022 81.8216 42.0063 85.5642L41.6775 84.9065C49.4445 80.0834 58.1824 72.8957 66.0904 59.7576H56.2093C55.1445 63.8446 54.6591 66.0526 50.6503 66.0526C48.5206 66.0526 45.9055 65.4732 45.9055 63.3592C45.9055 62.4666 47.7846 57.4713 48.1918 56.3282C49.006 53.8853 50.6503 48.5611 51.3706 42.1095L59.9519 46.1966H73.5129V37.537H58.5739C52.8582 37.537 51.308 37.7875 49.7577 38.0224L48.364 35.0784C52.1223 35.4073 56.2876 35.5639 60.0459 35.5639H62.5827C61.5962 34.7496 61.5179 34.2642 60.453 30.412C59.4822 26.826 58.0885 25.1817 57.5091 24.5397C51.214 31.8056 46.1561 35.3133 41.6618 38.0224L41.333 37.443C45.0129 32.8705 52.9366 19.7949 53.0149 11.5581L64.5244 15.3163C64.9316 15.4729 65.3387 15.8018 65.3387 16.3812C65.3387 17.5243 64.3522 17.8532 62.1599 18.5892C61.1734 19.8889 60.4373 21.032 59.1376 22.5979H66.7324L69.7546 18.3543C70.1618 17.6966 70.4907 17.1328 71.0544 17.1328C71.4615 17.1328 71.6338 17.2111 72.5264 17.9471L78.1638 22.4413C78.4926 22.6919 78.978 23.1773 78.978 23.6628C78.978 24.5554 78.242 24.5554 77.7566 24.5554H61.095H61.0168ZM73.4346 57.8001V48.1696H59.1376C58.5582 50.3776 57.8379 52.9927 56.6008 57.8001H73.419H73.4346ZM82.3448 37.5526V46.2122H97.0489V37.5526H82.3448Z" fill="url(#paint0_linear_4_2353)"/>
<path d="M128.79 82.1504C134.177 82.1504 137.638 81.3048 139.157 79.6136C140.676 77.9224 141.443 74.6966 141.443 69.9518V22.7546C141.443 19.7323 141.146 17.5713 140.535 16.3029C139.924 15.0345 138.812 14.3925 137.199 14.3925C136.338 14.3925 135.007 14.737 133.206 15.4103C132.063 15.8018 130.513 16.4438 128.54 17.3208V14.2046L155.333 0.862793H157.196V70.6721C157.196 75.135 157.823 78.173 159.06 79.7702C160.297 81.3675 163.492 82.1661 168.596 82.1661V85.0944H128.79V82.1661V82.1504Z" fill="url(#paint1_linear_4_2353)"/>
<path d="M200.823 33.857C201.559 34.1075 202.374 34.5929 202.374 35.2506C202.374 35.6578 201.966 36.2372 201.638 36.4721C200.823 37.1298 200.338 37.5369 199.759 38.0223C199.602 44.8028 199.915 74.6182 199.915 80.741C199.915 83.6067 199.915 87.0361 194.528 87.0361C190.535 87.0361 190.535 84.9064 190.535 83.6067C190.535 79.9267 190.942 63.594 191.021 60.2429C191.099 54.5273 191.099 48.8116 191.099 43.0177C186.605 48.655 183.348 51.1762 181.374 52.6482L180.717 52.241C187.576 40.888 195.343 21.4548 195.421 12.0592L206.696 17.6965C207.275 17.9471 207.76 18.5108 207.76 18.9179C207.76 19.7322 206.696 20.2177 204.409 21.0476C201.309 27.1704 199.665 30.0361 197.958 32.8078L200.823 33.8726V33.857ZM241.084 80.6471L244.67 74.1171C244.92 73.6317 245.406 73.0523 245.891 73.0523C246.47 73.0523 246.956 73.4594 247.441 73.8666L254.222 80.3965C254.551 80.6471 255.036 81.1325 255.036 81.618C255.036 82.4322 254.551 82.6045 253.815 82.6045H212.646C207.259 82.6045 205.38 82.855 203.83 83.1682L202.53 80.146C206.367 80.4748 210.203 80.6314 214.134 80.6314H225.409C233.082 61.2765 235.462 39.6353 235.368 36.2842L246.721 41.1072C247.379 41.3578 248.271 41.7649 248.271 42.407C248.271 42.8924 246.878 43.6284 245.327 44.3644C240.269 57.1111 235.446 68.4641 227.601 80.6314H241.084V80.6471ZM240.348 29.441L243.777 23.6471C244.027 23.1616 244.435 22.5039 244.998 22.5039C245.484 22.5039 245.969 22.9894 246.47 23.3965L253.815 29.2688C254.222 29.5976 254.629 30.0048 254.629 30.4902C254.629 31.3045 253.971 31.3828 253.407 31.3828H214.776C209.389 31.3828 207.588 31.6333 205.96 31.9622L204.66 28.9399C208.496 29.2688 212.411 29.4254 216.263 29.4254H222.136C221.979 16.9292 221.979 15.5355 220.664 12.0278L232.674 14.3924C233.332 14.549 234.554 14.7995 234.554 15.6921C234.554 16.5064 234.225 16.757 231.688 18.4638C231.61 20.3429 231.61 27.4523 231.61 29.4097H240.348V29.441ZM209.076 38.9149C211.519 40.9506 216.013 44.38 219.771 50.0174C222.95 54.7622 224.422 60.2273 224.422 63.6567C224.422 66.1935 222.715 70.3589 218.957 70.3589C215.528 70.3589 214.541 67.9943 214.212 63.1712C213.554 54.8405 212.176 46.5097 208.418 38.9149H209.076Z" fill="url(#paint2_linear_4_2353)"/>
<path d="M28.7429 101.38C29.1187 102.32 29.0874 104.95 28.6019 106.109C28.2574 106.924 28.9778 106.375 28.9778 106.375C33.519 101.646 27.8033 96.103 27.5528 96.0716C27.3335 96.0403 27.8816 98.0917 26.5662 100.957C25.2508 103.839 27.1143 107.064 27.6937 106.438C28.9151 105.138 28.7429 101.364 28.7429 101.364V101.38ZM23.6066 89.3694C23.4031 89.2911 23.5596 91.2955 21.8371 93.7227C20.1146 96.1499 21.3673 99.4854 22.0093 99.0156C23.3717 98.029 23.7789 94.49 23.7789 94.49C23.9511 95.4296 23.4657 97.8411 22.808 98.8433C22.3382 99.548 23.1055 99.1722 23.1055 99.1722C28.1478 95.6175 23.8415 89.479 23.6066 89.3851V89.3694ZM18.5643 92.1098C23.5753 88.7274 19.4882 82.6203 19.269 82.542C19.081 82.4637 19.175 84.4367 17.4368 86.77C15.6987 89.1032 16.8574 92.2977 17.4994 91.8436C18.8462 90.9041 19.3159 87.5529 19.3159 87.5529C19.4569 88.4768 18.9401 90.8414 18.2668 91.7966C17.797 92.47 18.5643 92.1255 18.5643 92.1255V92.1098ZM14.7747 83.0274C20.2242 80.8194 17.5621 74.1955 17.3585 74.0703C17.1863 73.9606 16.9044 75.8554 14.7747 77.7189C12.6451 79.598 13.0678 82.9021 13.7725 82.6046C15.2445 81.9782 16.419 78.8464 16.419 78.8464C16.372 79.7546 15.4011 81.8999 14.5712 82.6672C13.9918 83.2153 14.7904 83.0274 14.7904 83.0274H14.7747ZM12.2379 74.7279C11.6272 75.2447 12.4258 75.1038 12.4258 75.1038C17.9849 73.1777 15.683 66.4285 15.4951 66.2876C15.3385 66.1623 14.9313 68.0414 12.7234 69.7953C10.4997 71.5491 10.7346 74.8845 11.455 74.6183C12.9583 74.0703 14.2893 71.001 14.2893 71.001C14.1953 71.9093 13.0992 73.992 12.2379 74.7123V74.7279ZM10.0456 66.9609C9.41926 67.415 10.2022 67.3367 10.2022 67.3367C15.7143 65.8804 13.9761 59.1939 13.8039 59.0373C13.6473 58.912 13.1305 60.6815 10.8599 62.2161C8.5893 63.7508 8.57362 66.9766 9.27829 66.7887C10.7816 66.3659 12.2849 63.5002 12.2849 63.5002C12.1283 64.3771 10.9225 66.3032 10.03 66.9453L10.0456 66.9609ZM8.74588 57.3148C8.05687 57.6593 8.83984 57.7062 8.83984 57.7062C14.4146 57.1895 13.8039 50.4246 13.6629 50.2524C13.5377 50.1115 12.7547 51.74 10.2962 52.8675C7.83767 53.9793 7.3209 57.1112 8.02557 57.0329C9.54452 56.8763 11.4706 54.3395 11.4706 54.3395C11.1731 55.1538 9.70113 56.8293 8.73026 57.3148H8.74588ZM9.07472 49.4381C8.40136 49.767 9.16872 49.8296 9.16872 49.8296C14.6651 49.3755 14.1327 42.6889 13.9918 42.5167C13.8665 42.3601 13.0835 43.973 10.6563 45.0692C8.22913 46.1496 7.68108 49.2345 8.38575 49.1719C9.88904 49.031 11.8151 46.5411 11.8151 46.5411C11.5176 47.3398 10.0456 48.984 9.09039 49.4538L9.07472 49.4381ZM8.29175 41.3266C9.76373 41.3579 11.9404 39.1656 11.9404 39.1656C11.5646 39.9172 9.936 41.3422 8.94946 41.6867C8.24479 41.9216 8.98076 42.0626 8.98076 42.0626C14.3989 42.2661 14.6651 35.7049 14.5399 35.5169C14.4459 35.3604 13.475 36.8323 10.9852 37.5996C8.49532 38.367 7.58708 41.3109 8.29175 41.3266ZM10.8129 32.2911C10.0769 32.4007 10.7816 32.6826 10.7816 32.6826C16.0745 33.8414 17.4995 27.4211 17.4212 27.2175C17.3585 27.0452 16.1528 28.3293 13.5533 28.6425C10.9695 28.9557 9.56015 31.6961 10.2492 31.837C11.6898 32.1345 14.211 30.365 14.211 30.365C13.7099 31.0384 11.8464 32.1502 10.8129 32.3068V32.2911ZM13.8195 23.9917C15.0566 24.2422 17.2176 22.7233 17.2176 22.7233C16.7791 23.3027 15.1975 24.2422 14.3206 24.3832C13.6942 24.4771 14.305 24.712 14.305 24.712C18.8305 25.6985 20.0519 20.2178 19.9893 20.0299C19.9266 19.8889 18.8931 20.9851 16.6852 21.2513C14.4616 21.5175 13.2714 23.8664 13.8508 23.976L13.8195 23.9917ZM17.3742 17.7123C16.7008 17.7906 17.3429 18.0568 17.3429 18.0568C22.1347 19.2939 23.6536 13.4843 23.591 13.2963C23.5283 13.1398 22.3852 14.2672 20.0206 14.4708C17.6404 14.6744 16.2624 17.1172 16.8888 17.2738C18.2041 17.587 20.553 16.0681 20.553 16.0681C20.0676 16.6631 18.3294 17.6183 17.3899 17.7279L17.3742 17.7123ZM26.5192 5.98343C26.3783 5.85816 20.7566 5.40404 20.3651 10.0392C20.3651 10.0392 20.4121 10.6812 20.694 10.1175C21.0855 9.31888 22.4635 8.08179 23.1525 7.83124C23.1525 7.83124 21.0698 9.44415 20.9288 10.7126C20.8662 11.3076 23.4657 10.8535 24.3896 8.80212C25.2978 6.7664 26.6602 6.09305 26.5349 5.99909L26.5192 5.98343ZM20.1616 102.351C17.1393 103.244 15.1819 102.414 15.1819 102.633C15.1819 102.899 19.8797 109.335 25.1882 105.499C25.1882 105.499 25.8302 104.857 24.969 105.076C23.7476 105.405 21.1481 105.06 20.2555 104.559C20.2555 104.559 23.9668 105.248 25.4231 104.23C26.1121 103.745 23.1681 101.443 20.1459 102.351H20.1616ZM19.6135 97.8255C19.6135 97.8255 20.2398 97.2304 19.4099 97.434C18.2511 97.7159 15.8239 97.3557 14.994 96.8703C14.994 96.8703 18.4547 97.6845 19.8483 96.745C20.506 96.3065 17.797 93.9889 14.9313 94.7876C12.0657 95.5862 10.2335 94.7562 10.2335 94.9755C10.2335 95.226 14.5398 101.364 19.5978 97.8411L19.6135 97.8255ZM14.9157 90.0428C14.9157 90.0428 15.6047 89.573 14.7904 89.6356C13.6316 89.7139 11.3297 88.978 10.6093 88.3672C10.6093 88.3672 13.7256 89.667 15.2289 88.9936C15.9335 88.6648 13.7882 86.034 10.8912 86.3472C7.99423 86.6447 6.36568 85.5642 6.3187 85.7678C6.28739 86.0027 9.4349 92.6422 14.9157 90.0584V90.0428ZM11.3297 81.023C11.3297 81.023 12.0657 80.6628 11.2671 80.6002C10.1396 80.5219 8.02554 79.504 7.41483 78.8307C7.41483 78.8307 10.3118 80.5062 11.8464 80.0521C12.5668 79.8329 10.7973 77.0142 7.96292 76.9203C5.12858 76.8263 3.70361 75.5579 3.64097 75.7458C3.57833 75.9807 5.72362 82.7768 11.3297 81.023ZM8.68323 72.6766C8.68323 72.6766 9.4349 72.379 8.65193 72.2538C7.52446 72.0815 5.52009 70.8914 4.95635 70.1711C4.95635 70.1711 7.71236 72.0659 9.27829 71.737C10.0143 71.5804 8.47967 68.6208 5.66099 68.3076C2.84231 67.9788 1.52692 66.6007 1.44862 66.7887C1.35467 67.0079 2.95193 73.9606 8.69891 72.6766H8.68323ZM7.2426 63.97C7.2426 63.97 7.99425 63.7038 7.2426 63.5628C6.16211 63.3593 4.25165 62.1222 3.75055 61.4018C3.75055 61.4018 6.33435 63.3593 7.86896 63.0931C8.58929 62.9678 7.21128 60.0551 4.50221 59.6167C1.79315 59.1939 0.571725 57.8002 0.493428 57.9725C0.399472 58.1917 1.66786 64.9878 7.2739 63.9543L7.2426 63.97ZM6.50661 54.9972C6.50661 54.9972 7.25824 54.8093 6.53791 54.59C5.50439 54.2768 3.76624 52.8832 3.34344 52.1159C3.34344 52.1159 5.67667 54.2925 7.19562 54.1829C7.91595 54.1359 6.86677 51.145 4.25166 50.456C1.65221 49.767 0.587384 48.2793 0.493428 48.4516C0.383813 48.6395 0.931884 55.42 6.50661 54.9815V54.9972ZM6.45963 46.6664C6.45963 46.6664 7.22693 46.7134 6.60056 46.3062C5.70798 45.7268 4.47087 43.8947 4.28296 43.0648C4.28296 43.0648 5.86457 45.7738 7.33655 46.1183C8.02556 46.2749 7.88462 43.1431 5.61401 41.765C3.34341 40.3713 2.76401 38.6801 2.62308 38.8054C2.46648 38.962 1.07282 45.5233 6.45963 46.6821V46.6664ZM7.3992 37.631C7.3992 37.631 8.13517 37.7562 7.57143 37.2865C6.77281 36.6131 5.77064 34.687 5.69234 33.8571C5.69234 33.8571 6.91373 36.6914 8.29175 37.1925C8.94944 37.4274 9.18435 34.3738 7.13297 32.7452C5.09726 31.1167 4.73709 29.3941 4.58049 29.5038C4.40824 29.629 2.26292 35.8458 7.38353 37.631H7.3992ZM9.49755 29.5194C9.49755 29.5194 10.2022 29.77 9.73243 29.2062C9.05908 28.4076 8.40137 26.3562 8.44835 25.5106C8.44835 25.5106 9.18435 28.5016 10.4684 29.2376C11.0791 29.5821 11.8151 26.5911 10.0613 24.6494C8.32307 22.7076 8.24481 20.9538 8.08822 21.0321C7.9003 21.126 4.75277 26.9043 9.49755 29.5038V29.5194ZM12.9113 21.5488C12.9113 21.5488 13.522 21.7524 13.0992 21.2826C12.5041 20.6093 11.8778 18.8711 11.9091 18.1507C11.9091 18.1507 12.6137 20.6876 13.7255 21.2826C14.258 21.5645 14.8061 18.9963 13.2558 17.3678C11.7212 15.7549 11.6116 14.2516 11.4706 14.3299C11.314 14.4238 8.76153 19.4348 12.8956 21.5488H12.9113ZM16.7009 14.3299C16.7009 14.3299 17.2959 14.6744 16.9514 14.095C16.466 13.265 16.1997 11.3076 16.3876 10.5716C16.3876 10.5716 16.5756 13.3746 17.6091 14.2359C18.0945 14.6431 19.2377 12.0749 17.9693 10.0549C16.7009 8.03481 16.9201 6.43755 16.7635 6.50019C16.5755 6.56283 12.833 11.2606 16.7009 14.3455V14.3299Z" fill="url(#paint3_linear_4_2353)"/>
<path d="M267.939 106.36C268.519 106.97 270.382 103.745 269.067 100.879C267.751 98.0133 268.299 95.9462 268.08 95.9932C267.814 96.0402 262.098 101.584 266.655 106.297C266.655 106.297 267.391 106.845 267.031 106.031C266.546 104.856 266.514 102.241 266.89 101.302C266.89 101.302 266.718 105.076 267.939 106.375V106.36ZM272.527 99.0625C272.527 99.0625 273.295 99.4383 272.825 98.7336C272.167 97.7471 271.682 95.3355 271.854 94.3803C271.854 94.3803 272.261 97.9037 273.624 98.9059C274.266 99.3756 275.518 96.0402 273.796 93.613C272.073 91.1858 272.214 89.1814 272.026 89.2597C271.792 89.338 267.485 95.4765 272.527 99.0468V99.0625ZM277.366 91.6869C276.693 90.7317 276.176 88.3828 276.317 87.4432C276.317 87.4432 276.787 90.7943 278.133 91.7339C278.776 92.1724 279.934 88.9935 278.196 86.6603C276.458 84.327 276.568 82.3539 276.364 82.4322C276.129 82.5262 272.042 88.6177 277.053 92.0001C277.053 92.0001 277.82 92.3603 277.351 91.6713L277.366 91.6869ZM281.077 82.5732C280.247 81.8059 279.277 79.6605 279.23 78.7523C279.23 78.7523 280.388 81.8842 281.876 82.5105C282.565 82.8081 282.988 79.5039 280.874 77.6248C278.744 75.7457 278.462 73.8666 278.29 73.9762C278.102 74.1015 275.424 80.7254 280.874 82.9333C280.874 82.9333 281.673 83.1213 281.093 82.5732H281.077ZM281.359 70.907C281.359 70.907 282.69 73.9762 284.209 74.5243C284.914 74.7748 285.165 71.455 282.941 69.7012C280.717 67.9473 280.326 66.0839 280.169 66.1935C279.981 66.3344 277.679 73.0836 283.238 75.0097C283.238 75.0097 284.053 75.1507 283.426 74.6339C282.565 73.8979 281.469 71.8309 281.375 70.9226L281.359 70.907ZM283.364 63.4218C283.364 63.4218 284.883 66.2875 286.37 66.7103C287.075 66.8982 287.059 63.6723 284.789 62.1377C282.518 60.6031 282.001 58.8336 281.845 58.9589C281.672 59.1155 279.934 65.802 285.446 67.2583C285.446 67.2583 286.229 67.3366 285.603 66.8825C284.71 66.2405 283.505 64.3144 283.348 63.4375L283.364 63.4218ZM284.178 54.2611C284.178 54.2611 286.104 56.7822 287.623 56.9545C288.343 57.0328 287.811 53.9009 285.352 52.7891C282.894 51.6773 282.111 50.0331 281.986 50.174C281.845 50.3462 281.25 57.1111 286.809 57.6278C286.809 57.6278 287.592 57.5809 286.903 57.2364C285.932 56.7509 284.46 55.091 284.162 54.2611H284.178ZM283.865 46.4471C283.865 46.4471 285.791 48.9212 287.279 49.0778C287.983 49.1405 287.435 46.0556 285.008 44.9751C282.581 43.8946 281.782 42.2817 281.673 42.4226C281.532 42.5949 280.999 49.2814 286.511 49.7355C286.511 49.7355 287.279 49.6729 286.605 49.3441C285.65 48.8743 284.178 47.2457 283.88 46.4314L283.865 46.4471ZM284.679 37.5213C282.189 36.7539 281.218 35.282 281.124 35.4386C281.015 35.6265 281.281 42.1877 286.684 41.9842C286.684 41.9842 287.419 41.8432 286.73 41.6083C285.744 41.2638 284.115 39.8388 283.74 39.0872C283.74 39.0872 285.901 41.2795 287.388 41.2482C288.077 41.2482 287.185 38.2886 284.695 37.5213H284.679ZM281.453 30.2553C281.453 30.2553 283.974 32.0248 285.415 31.7273C286.104 31.5864 284.695 28.8616 282.095 28.5328C279.512 28.2196 278.306 26.9355 278.227 27.1078C278.149 27.3114 279.574 33.7317 284.867 32.5729C284.867 32.5729 285.572 32.291 284.836 32.1814C283.802 32.0248 281.954 30.913 281.438 30.2397L281.453 30.2553ZM279.01 21.1729C276.802 20.9067 275.769 19.8105 275.706 19.9515C275.644 20.1237 276.849 25.6202 281.391 24.6336C281.391 24.6336 281.986 24.3987 281.359 24.3048C280.482 24.1638 278.885 23.2086 278.447 22.6449C278.447 22.6449 280.608 24.1638 281.845 23.9133C282.424 23.8037 281.218 21.4548 279.01 21.1886V21.1729ZM275.127 15.974C275.127 15.974 277.491 17.5086 278.791 17.1798C279.418 17.0232 278.039 14.5803 275.659 14.3767C273.279 14.1732 272.136 13.0457 272.073 13.2023C272.011 13.3902 273.53 19.1998 278.321 17.9627C278.321 17.9627 278.948 17.6965 278.274 17.6182C277.335 17.5086 275.597 16.5534 275.111 15.9583L275.127 15.974ZM271.306 8.70807C272.23 10.7594 274.814 11.2136 274.751 10.6185C274.626 9.3501 272.527 7.73719 272.527 7.73719C273.201 7.98774 274.594 9.22482 274.986 10.0234C275.268 10.5872 275.315 9.94515 275.315 9.94515C274.923 5.32565 269.302 5.77977 269.161 5.88938C269.035 5.98334 270.398 6.65669 271.306 8.69241V8.70807ZM270.241 104.152C271.713 105.17 275.409 104.481 275.409 104.481C274.516 104.982 271.932 105.326 270.711 104.997C269.85 104.762 270.492 105.42 270.492 105.42C275.816 109.257 280.498 102.821 280.498 102.554C280.498 102.335 278.541 103.165 275.518 102.273C272.496 101.38 269.552 103.666 270.241 104.152ZM285.431 94.8971C285.431 94.6778 283.599 95.5078 280.733 94.7092C277.867 93.9105 275.158 96.2281 275.816 96.6666C277.21 97.6061 280.67 96.7919 280.67 96.7919C279.84 97.2773 277.413 97.6375 276.254 97.3556C275.44 97.152 276.051 97.7471 276.051 97.7471C281.124 101.27 285.415 95.132 285.415 94.8814L285.431 94.8971ZM289.346 85.6737C289.314 85.4702 287.67 86.5663 284.773 86.2531C281.876 85.9556 279.731 88.5707 280.435 88.8995C281.939 89.5886 285.055 88.2732 285.055 88.2732C284.335 88.8682 282.033 89.6199 280.874 89.5416C280.044 89.4789 280.749 89.9487 280.749 89.9487C286.214 92.5325 289.377 85.9086 289.346 85.6581V85.6737ZM292.023 75.6674C291.961 75.4795 290.536 76.7479 287.701 76.8419C284.867 76.9358 283.097 79.7545 283.818 79.9737C285.352 80.4278 288.249 78.7523 288.249 78.7523C287.639 79.4256 285.525 80.4592 284.397 80.5218C283.599 80.5688 284.335 80.9446 284.335 80.9446C289.941 82.6984 292.102 75.8866 292.023 75.6674ZM294.216 66.7259C294.137 66.538 292.822 67.916 290.003 68.2449C287.185 68.5737 285.65 71.5177 286.386 71.6743C287.952 72.0031 290.708 70.1083 290.708 70.1083C290.144 70.8287 288.14 72.0188 287.012 72.191C286.214 72.3163 286.981 72.6138 286.981 72.6138C292.712 73.8979 294.31 66.9451 294.231 66.7259H294.216ZM295.202 57.9097C295.124 57.7375 293.902 59.1155 291.193 59.5539C288.484 59.9767 287.106 62.905 287.827 63.0303C289.361 63.2965 291.945 61.3391 291.945 61.3391C291.428 62.0594 289.518 63.2965 288.437 63.5001C287.67 63.641 288.437 63.9072 288.437 63.9072C294.043 64.9408 295.312 58.1446 295.218 57.9254L295.202 57.9097ZM295.187 48.3888C295.093 48.2166 294.043 49.7042 291.428 50.3932C288.829 51.0822 287.78 54.0732 288.5 54.1202C290.019 54.2141 292.352 52.0531 292.352 52.0531C291.929 52.8048 290.191 54.2141 289.158 54.5273C288.422 54.7465 289.189 54.9344 289.189 54.9344C294.764 55.3572 295.312 48.5924 295.202 48.4045L295.187 48.3888ZM293.072 38.7114C292.932 38.5861 292.352 40.2773 290.082 41.671C287.811 43.0647 287.67 46.1965 288.359 46.0243C289.831 45.6798 291.413 42.9707 291.413 42.9707C291.225 43.8163 289.972 45.6328 289.079 46.2122C288.453 46.6193 289.22 46.5723 289.22 46.5723C294.623 45.3979 293.213 38.8523 293.057 38.6957L293.072 38.7114ZM291.099 29.4254C290.943 29.3158 290.598 31.0383 288.547 32.6669C286.511 34.2954 286.731 37.349 287.388 37.1141C288.766 36.613 289.988 33.7787 289.988 33.7787C289.909 34.6086 288.907 36.5347 288.108 37.2081C287.545 37.6778 288.296 37.5526 288.296 37.5526C293.417 35.7674 291.272 29.5506 291.099 29.4254ZM287.623 20.9693C287.451 20.891 287.388 22.6449 285.65 24.5866C283.912 26.5284 284.648 29.5037 285.243 29.1748C286.527 28.4388 287.263 25.4479 287.263 25.4479C287.326 26.2935 286.652 28.3449 285.979 29.1435C285.509 29.7072 286.214 29.4567 286.214 29.4567C290.959 26.8572 287.827 21.0789 287.623 20.985V20.9693ZM284.225 14.2671C284.084 14.1888 283.974 15.6921 282.44 17.305C280.89 18.918 281.453 21.5017 281.97 21.2199C283.082 20.6248 283.786 18.088 283.786 18.088C283.818 18.8083 283.192 20.5465 282.596 21.2199C282.174 21.6897 282.784 21.4861 282.784 21.4861C286.903 19.3721 284.366 14.3611 284.209 14.2671H284.225ZM278.932 6.40614C278.776 6.35916 278.979 7.94076 277.726 9.96081C276.458 11.9809 277.601 14.549 278.087 14.1419C279.12 13.2806 279.324 10.4776 279.324 10.4776C279.512 11.2292 279.23 13.1866 278.76 14.0009C278.415 14.5803 279.026 14.2358 279.026 14.2358C282.878 11.1353 279.151 6.43746 278.963 6.39048L278.932 6.40614Z" fill="url(#paint4_linear_4_2353)"/>
<defs>
<linearGradient id="paint0_linear_4_2353" x1="41.2547" y1="43.9416" x2="255.052" y2="43.9416" gradientUnits="userSpaceOnUse">
<stop offset="0.02" stop-color="#CB9B27"/>
<stop offset="0.7" stop-color="#E9D283"/>
<stop offset="1" stop-color="#CB9B27"/>
</linearGradient>
<linearGradient id="paint1_linear_4_2353" x1="41.2546" y1="43.9416" x2="255.052" y2="43.9416" gradientUnits="userSpaceOnUse">
<stop offset="0.02" stop-color="#CB9B27"/>
<stop offset="0.7" stop-color="#E9D283"/>
<stop offset="1" stop-color="#CB9B27"/>
</linearGradient>
<linearGradient id="paint2_linear_4_2353" x1="41.2547" y1="43.9416" x2="255.052" y2="43.9416" gradientUnits="userSpaceOnUse">
<stop offset="0.02" stop-color="#CB9B27"/>
<stop offset="0.7" stop-color="#E9D283"/>
<stop offset="1" stop-color="#CB9B27"/>
</linearGradient>
<linearGradient id="paint3_linear_4_2353" x1="0.44645" y1="56.3282" x2="30.7316" y2="56.3282" gradientUnits="userSpaceOnUse">
<stop offset="0.02" stop-color="#CB9B27"/>
<stop offset="0.7" stop-color="#E9D283"/>
<stop offset="1" stop-color="#CB9B27"/>
</linearGradient>
<linearGradient id="paint4_linear_4_2353" x1="264.901" y1="56.2185" x2="295.187" y2="56.2185" gradientUnits="userSpaceOnUse">
<stop offset="0.02" stop-color="#CB9B27"/>
<stop offset="0.7" stop-color="#E9D283"/>
<stop offset="1" stop-color="#CB9B27"/>
</linearGradient>
</defs>
</svg>
