<svg xmlns="http://www.w3.org/2000/svg" viewBox="0 0 601.85 63.84"><defs><style>.cls-1{fill:#113dcd}.cls-3{fill:#999}</style></defs><g id="Layer_2" data-name="Layer 2"><g id="Layer_1-2" data-name="Layer 1"><path class="cls-1" d="M33.45 62.62L21.12 41.46H12v21.16H0v-61h24.39a19.57 19.57 0 0114.37 5.96 19.46 19.46 0 015.92 14.28 18.55 18.55 0 01-3.22 10.5 20.22 20.22 0 01-8.53 7.27l13.49 23zM12 12.89v18h12.39a7.61 7.61 0 005.83-2.66 9.1 9.1 0 002.44-6.4 9 9 0 00-2.44-6.36 7.7 7.7 0 00-5.83-2.61zM60.27 45.47q2.26 8.18 12.28 8.18 6.45 0 9.76-4.35l9.06 5.22q-6.45 9.33-19 9.32-10.8 0-17.33-6.53a22.28 22.28 0 01-6.53-16.46A22.52 22.52 0 0155 24.43q6.45-6.57 16.55-6.57a20.74 20.74 0 0115.81 6.62 23 23 0 016.23 16.37 26.45 26.45 0 01-.44 4.62zm-.17-8.71h22.21a10.52 10.52 0 00-4-6.62 11.4 11.4 0 00-6.8-2.14A11.8 11.8 0 0064 30.27a11 11 0 00-3.9 6.49zM110 31.44c0 1.17.77 2.11 2.31 2.83a30.18 30.18 0 005.61 1.92 57.51 57.51 0 016.62 2.09 12.85 12.85 0 015.62 4.22 11.71 11.71 0 012.31 7.41 12 12 0 01-5 10.32A20.79 20.79 0 01115 63.84q-13.41 0-18.29-10.36l9.73-5.48q1.91 5.67 8.53 5.66c4 0 6-1.24 6-3.74 0-1.16-.77-2.11-2.31-2.83a32.36 32.36 0 00-5.61-2 58.17 58.17 0 01-6.62-2.18 13.56 13.56 0 01-5.62-4.14 10.84 10.84 0 01-2.31-7.1 12.15 12.15 0 014.75-10.14 18.59 18.59 0 0111.8-3.7 19.72 19.72 0 019.67 2.39 17.6 17.6 0 016.88 6.84l-9.6 5.25a7.18 7.18 0 00-7-4.44 6.4 6.4 0 00-3.62 1 3 3 0 00-1.38 2.57zM148.59 45.47q2.26 8.18 12.28 8.18 6.45 0 9.76-4.35l9.06 5.22q-6.45 9.33-19 9.32-10.8 0-17.33-6.53a22.28 22.28 0 01-6.53-16.46 22.52 22.52 0 016.44-16.42q6.45-6.57 16.55-6.57a20.74 20.74 0 0115.81 6.62 23 23 0 016.23 16.37 26.45 26.45 0 01-.44 4.62zm-.17-8.71h22.21a10.52 10.52 0 00-4-6.62 11.4 11.4 0 00-6.8-2.14 11.8 11.8 0 00-7.49 2.31 11 11 0 00-3.92 6.45zM255.12 26.57a11.74 11.74 0 015.18-6.28 15.82 15.82 0 018.05-2.09v12.55a13.2 13.2 0 00-9.18 2.09q-4 2.7-4.05 9v20.78h-11.24V19.08h11.24zM294 63.84a22.53 22.53 0 01-23-23 22.53 22.53 0 0123-23 22.62 22.62 0 0111.59 3 20.37 20.37 0 017.92 8.19l-9.67 5.66a9.88 9.88 0 00-4-4.27 11.56 11.56 0 00-6-1.56 11.29 11.29 0 00-8.36 3.35 11.74 11.74 0 00-3.31 8.58 11.59 11.59 0 003.31 8.49 11.26 11.26 0 008.36 3.36 11.94 11.94 0 006.06-1.53 9.55 9.55 0 004-4.22l9.76 5.57a21.83 21.83 0 01-8.1 8.23A22.37 22.37 0 01294 63.84zM343.78 17.86a15.73 15.73 0 0111.8 4.79q4.67 4.79 4.66 13.23v26.74H349V37.28c0-2.9-.79-5.13-2.35-6.66a8.58 8.58 0 00-6.28-2.31 9.23 9.23 0 00-7 2.7c-1.74 1.8-2.62 4.5-2.62 8.1v23.51h-11.18v-61h11.23V24q4.1-6.14 12.98-6.14zM379.32 45.47q2.26 8.18 12.28 8.18 6.45 0 9.75-4.35l9.06 5.22q-6.45 9.33-19 9.32-10.8 0-17.33-6.53a22.32 22.32 0 01-6.53-16.46A22.56 22.56 0 01374 24.43q6.45-6.57 16.55-6.57a20.74 20.74 0 0115.81 6.62 23 23 0 016.23 16.37 26.4 26.4 0 01-.43 4.62zm-.18-8.71h22.21a10.52 10.52 0 00-4-6.62 11.36 11.36 0 00-6.8-2.14 11.82 11.82 0 00-7.49 2.31 11.06 11.06 0 00-3.92 6.45zM431.66 26.57a11.8 11.8 0 015.19-6.28 15.82 15.82 0 018-2.09v12.55a13.22 13.22 0 00-9.19 2.09q-4.05 2.7-4 9v20.78h-11.23V19.08h11.23z"/><path d="M457 61.58a7.35 7.35 0 112.18-5.23 7.13 7.13 0 01-2.18 5.23z" fill="#f06"/><path class="cls-3" d="M481.14 51.13h23.25v11.49h-35.27v-61h12zM516.24 13.85a6.6 6.6 0 01-4.84-2 6.61 6.61 0 01-2-4.83 6.77 6.77 0 012-4.88A6.56 6.56 0 01516.24 0a6.67 6.67 0 014.92 2.09 6.76 6.76 0 012 4.88 6.6 6.6 0 01-2 4.83 6.71 6.71 0 01-4.92 2.05zm-5.58 48.77V19.08h11.24v43.54zM555.6 11.24q-9.23-.7-9.23 7.4v.44h9.23v10.8h-9.23v32.74h-11.23V29.88h-6.28v-10.8h6.28v-.44q0-9.23 5.13-14T555.6.44zM568.58 45.47q2.26 8.18 12.28 8.18 6.45 0 9.76-4.35l9.06 5.22q-6.45 9.33-19 9.32-10.8 0-17.33-6.53a22.29 22.29 0 01-6.54-16.46 22.52 22.52 0 016.45-16.42q6.43-6.57 16.55-6.57a20.77 20.77 0 0115.81 6.62 23 23 0 016.22 16.37 26.4 26.4 0 01-.43 4.62zm-.17-8.71h22.21a10.49 10.49 0 00-4-6.62 11.35 11.35 0 00-6.8-2.14 11.8 11.8 0 00-7.49 2.31 11 11 0 00-3.92 6.45z"/><path class="cls-1" d="M222.45 20.53v3.68q-5-6.34-14.19-6.35a19.73 19.73 0 00-14.94 6.66 23 23 0 00-6.23 16.33 23 23 0 006.23 16.33 19.73 19.73 0 0014.94 6.66q9.13 0 14.19-6.35v5.13h11.24V17.13zM219 49.69a12.58 12.58 0 01-17.29 0 12.06 12.06 0 01-3.39-8.84 12.06 12.06 0 013.4-8.85A12.58 12.58 0 01219 32a11.94 11.94 0 013.44 8.84 11.94 11.94 0 01-3.44 8.85z"/></g></g></svg>