<svg width="69" height="61" viewBox="0 0 69 61" fill="none" xmlns="http://www.w3.org/2000/svg">
<path opacity="0.3" fill-rule="evenodd" clip-rule="evenodd" d="M3.00579 21.0371C4.81574 15.3004 8.17706 10.4135 13.0898 6.37659C15.4106 4.44402 17.8722 2.8036 20.4745 1.45535C24.8275 -0.799953 29.4762 2.82052 29.4762 7.72309C29.4762 10.3229 28.0396 12.6423 26.199 14.4784C24.7942 15.8797 23.7421 17.4485 23.043 19.1849C22.268 21.1094 23.9232 22.9494 25.998 22.9494C27.9189 22.9494 29.4762 24.5066 29.4762 26.4276V52.7693C29.4762 57.1876 25.8945 60.7693 21.4762 60.7693H8C3.58172 60.7693 0 57.1876 0 52.7693V43.3466C0 34.352 1.00193 26.9155 3.00579 21.0371ZM52.3594 6.37659C54.6616 4.45957 57.1023 2.83002 59.6814 1.48795C64.0623 -0.791713 68.7458 2.85526 68.7458 7.79383C68.7458 10.3573 67.3603 12.6584 65.5714 14.4944C64.2215 15.8797 63.1813 17.4285 62.451 19.1407C61.6327 21.0591 63.2586 22.9494 65.3442 22.9494C67.2229 22.9494 68.7458 24.4723 68.7458 26.351V52.7693C68.7458 57.1876 65.1641 60.7693 60.7459 60.7693H47.2697C42.8514 60.7693 39.2697 57.1876 39.2697 52.7693V43.3466C39.2697 34.352 40.2716 26.9155 42.2755 21.0371C44.2793 15.3004 47.6406 10.4135 52.3594 6.37659Z" fill="#96ABEC"/>
</svg>
