<svg width="50" height="50" viewBox="0 0 50 50" fill="none" xmlns="http://www.w3.org/2000/svg">
<path d="M25 0.00134277C11.1943 0.00134277 0 11.1935 0 25.0002C0 38.807 11.1932 49.9991 25 49.9991C38.8079 49.9991 50 38.807 50 25.0002C50 11.1935 38.8079 0.00134277 25 0.00134277ZM25 7.47631C29.5682 7.47631 33.27 11.1792 33.27 15.7452C33.27 20.3123 29.5682 24.0141 25 24.0141C20.434 24.0141 16.7322 20.3123 16.7322 15.7452C16.7322 11.1792 20.434 7.47631 25 7.47631ZM24.9945 43.4631C20.4384 43.4631 16.2655 41.8038 13.0469 39.0574C12.2628 38.3886 11.8104 37.408 11.8104 36.3791C11.8104 31.7482 15.5583 28.0421 20.1902 28.0421H29.812C34.445 28.0421 38.1786 31.7482 38.1786 36.3791C38.1786 37.4091 37.7284 38.3875 36.9432 39.0563C33.7257 41.8038 29.5517 43.4631 24.9945 43.4631Z" fill="#7BCDBB"/>
</svg>
