<svg width="176" height="38" viewBox="0 0 176 38" fill="none" xmlns="http://www.w3.org/2000/svg">
<path d="M129.479 0.758301H129.119V35.4594H129.479V0.758301Z" fill="white"/>
<path d="M5.09667 17.968C5.67606 20.035 7.22634 21.0686 9.74749 21.0686C11.3761 21.0686 12.6132 20.5205 13.4431 19.4243L16.8725 21.3974C15.2439 23.7463 12.848 24.9208 9.68486 24.9208C6.96013 24.9208 4.76782 24.0908 3.12359 22.4466C1.47936 20.8024 0.649414 18.7197 0.649414 16.2142C0.649414 13.7087 1.4637 11.6573 3.09227 9.9974C4.72084 8.33751 6.80353 7.50757 9.35601 7.50757C11.7675 7.50757 13.7719 8.33752 15.3379 10.0131C16.9038 11.6886 17.7024 13.7556 17.7024 16.2142C17.7024 16.7622 17.6398 17.3416 17.5302 17.968H5.09667ZM5.03403 14.6639H13.4431C13.2082 13.5364 12.7071 12.7065 11.9398 12.1584C11.1881 11.6103 10.3112 11.3285 9.35601 11.3285C8.21288 11.3285 7.27332 11.626 6.52167 12.2054C5.77002 12.7848 5.28458 13.6147 5.03403 14.6639Z" fill="white"/>
<path d="M41.1914 24.4666V7.97729H45.4507V24.4666H41.1914Z" fill="white"/>
<path d="M58.7767 12.0643H55.0498V18.9231C55.0498 19.5025 55.1907 19.9096 55.4726 20.1758C55.7545 20.442 56.1773 20.583 56.7254 20.6143C57.2734 20.6456 57.9624 20.6456 58.7767 20.5986V24.4508C55.8484 24.7797 53.7971 24.4978 52.5913 23.6209C51.3855 22.744 50.7905 21.1624 50.7905 18.9074V12.0486H47.9248V7.96155H50.7905V4.62611L55.0498 3.34204V7.96155H58.7767V12.0486V12.0643Z" fill="white"/>
<path d="M106.193 17.968C106.773 20.035 108.323 21.0686 110.844 21.0686C112.473 21.0686 113.71 20.5205 114.54 19.4243L117.969 21.3974C116.341 23.7463 113.945 24.9208 110.782 24.9208C108.057 24.9208 105.865 24.0908 104.22 22.4466C102.576 20.8024 101.746 18.7197 101.746 16.2142C101.746 13.7087 102.56 11.6573 104.189 9.9974C105.818 8.33751 107.9 7.50757 110.453 7.50757C112.864 7.50757 114.869 8.33752 116.435 10.0131C118 11.6886 118.799 13.7556 118.799 16.2142C118.799 16.7622 118.736 17.3416 118.627 17.968H106.193ZM106.131 14.6639H114.54C114.305 13.5364 113.804 12.7065 113.036 12.1584C112.285 11.6103 111.408 11.3285 110.453 11.3285C109.31 11.3285 108.37 11.626 107.618 12.2054C106.867 12.7848 106.381 13.6147 106.131 14.6639Z" fill="white"/>
<path d="M33.0484 2.66866V9.91893C31.7957 8.32168 30.0105 7.50739 27.7086 7.50739C25.4066 7.50739 23.5902 8.353 22.0242 10.0285C20.4583 11.7041 19.6597 13.7711 19.6597 16.214C19.6597 18.6568 20.4426 20.7239 22.0242 22.3994C23.5902 24.075 25.5006 24.9206 27.7086 24.9206C29.9165 24.9206 31.7957 24.122 33.0484 22.509V24.4508H37.3077V1.35327L33.0484 2.63734V2.66866ZM31.7643 19.5651C30.9031 20.4263 29.8226 20.8648 28.4915 20.8648C27.1605 20.8648 26.08 20.4263 25.2031 19.5651C24.3262 18.7038 23.9033 17.5764 23.9033 16.214C23.9033 14.8516 24.3418 13.7398 25.2031 12.8629C26.0643 12.0016 27.1605 11.5632 28.4915 11.5632C29.8226 11.5632 30.9031 12.0016 31.7643 12.8629C32.6256 13.7242 33.0484 14.8516 33.0484 16.214C33.0484 17.5764 32.6256 18.6882 31.7643 19.5651Z" fill="white"/>
<path d="M73.8258 8.82292V9.93473C72.5573 8.33747 70.7565 7.52319 68.4546 7.52319C66.1527 7.52319 64.3675 8.36879 62.8016 10.0443C61.2356 11.7199 60.437 13.7869 60.437 16.2298C60.437 18.6726 61.22 20.7397 62.8016 22.4152C64.3832 24.0908 66.2623 24.9364 68.4546 24.9364C70.7565 24.9364 72.5573 24.1378 73.8258 22.5248V24.4666H78.0851V7.52319L73.8258 8.80726V8.82292ZM72.526 19.5809C71.6491 20.4421 70.5686 20.8806 69.2376 20.8806C67.9065 20.8806 66.826 20.4421 65.9648 19.5809C65.1035 18.7196 64.6807 17.5921 64.6807 16.2298C64.6807 14.8674 65.1035 13.7556 65.9648 12.8787C66.826 12.0174 67.9065 11.579 69.2376 11.579C70.5686 11.579 71.6491 12.0174 72.526 12.8787C73.3873 13.7399 73.8258 14.8674 73.8258 16.2298C73.8258 17.5921 73.3873 18.704 72.526 19.5809Z" fill="white"/>
<path d="M94.574 8.79163V10.0287C93.3213 8.35317 91.5674 7.52323 89.2968 7.52323C87.0262 7.52323 85.0375 8.35317 83.4559 9.9974C81.8743 11.6416 81.0757 13.6304 81.0757 15.9636C81.0757 18.2969 81.8587 20.3169 83.4402 21.9455C85.0062 23.5897 86.9636 24.404 89.2968 24.404C91.6301 24.404 93.3213 23.5741 94.574 21.8985V23.6837C94.574 24.9834 94.1825 25.9856 93.4152 26.6903C92.6479 27.3949 91.5831 27.7394 90.2521 27.7394C88.6078 27.7394 87.3707 27.2383 86.5095 26.2518L82.3128 27.5202C83.0331 28.8356 84.0823 29.8378 85.429 30.5111C86.7757 31.2002 88.3416 31.529 90.1268 31.529C92.507 31.529 94.5271 30.8556 96.2183 29.5089C97.8938 28.1622 98.7394 26.2205 98.7394 23.668V7.50757L94.5897 8.76031L94.574 8.79163ZM93.2743 19.2208C92.3974 20.0664 91.3012 20.4892 89.9545 20.4892C88.6078 20.4892 87.5117 20.0664 86.6348 19.2208C85.7578 18.3751 85.335 17.2947 85.335 15.9636C85.335 14.6326 85.7735 13.5991 86.6348 12.7535C87.496 11.9078 88.6078 11.485 89.9545 11.485C91.3012 11.485 92.3974 11.9078 93.2743 12.7535C94.1356 13.5991 94.574 14.6795 94.574 15.9636C94.574 17.2477 94.1356 18.3595 93.2743 19.2208Z" fill="white"/>
<path d="M43.3055 6.00422C42.6009 6.00422 41.9902 5.75367 41.4734 5.22125C40.9566 4.70449 40.6904 4.09377 40.6904 3.3891C40.6904 2.68443 40.941 2.07372 41.4734 1.54131C41.9902 1.00889 42.6009 0.742676 43.3055 0.742676C44.0102 0.742676 44.6522 1.00889 45.169 1.54131C45.6858 2.07372 45.952 2.68443 45.952 3.3891C45.952 4.09377 45.6858 4.70449 45.169 5.22125C44.6522 5.73801 44.0259 6.00422 43.3055 6.00422Z" fill="#FF0066"/>
<path d="M5.92661 32.8443C5.92661 34.3163 4.79914 35.4594 3.45244 35.4594C2.68513 35.4594 2.09007 35.1462 1.71425 34.6295V37.3229H0.649414V30.3702H1.71425V31.0905C2.09007 30.5581 2.66947 30.2449 3.45244 30.2449C4.79914 30.2449 5.92661 31.388 5.92661 32.86V32.8443ZM4.86178 32.8443C4.86178 31.9204 4.18843 31.2627 3.29584 31.2627C2.40326 31.2627 1.72991 31.9204 1.72991 32.8443C1.72991 33.7682 2.40326 34.4259 3.29584 34.4259C4.18843 34.4259 4.86178 33.7682 4.86178 32.8443Z" fill="white"/>
<path d="M11.3136 30.3702V35.3342H10.2488V34.6921C9.91992 35.2089 9.3875 35.4594 8.71415 35.4594C7.60234 35.4594 6.80371 34.7078 6.80371 33.4081V30.3545H7.86855V33.2984C7.86855 34.0501 8.30701 34.4572 8.98036 34.4572C9.65371 34.4572 10.2331 34.0344 10.2331 33.0322V30.3702H11.2979H11.3136Z" fill="white"/>
<path d="M17.8436 32.8445C17.8436 34.3165 16.7161 35.4596 15.3694 35.4596C14.6021 35.4596 14.0071 35.1464 13.6312 34.614V35.3343H12.5664V28.3816H13.6312V31.075C14.0071 30.5582 14.5865 30.2451 15.3694 30.2451C16.7161 30.2451 17.8436 31.3725 17.8436 32.8602V32.8445ZM16.7788 32.8445C16.7788 31.9206 16.1054 31.2629 15.2128 31.2629C14.3203 31.2629 13.6469 31.9206 13.6469 32.8445C13.6469 33.7684 14.3203 34.4261 15.2128 34.4261C16.1054 34.4261 16.7788 33.7684 16.7788 32.8445Z" fill="white"/>
<path d="M18.8145 28.084H19.8793V35.3343H18.8145V28.084Z" fill="white"/>
<path d="M20.9751 28.9295C20.9751 28.5537 21.2883 28.2405 21.6641 28.2405C22.0399 28.2405 22.3531 28.5537 22.3531 28.9295C22.3531 29.3053 22.0399 29.6185 21.6641 29.6185C21.2883 29.6185 20.9751 29.3053 20.9751 28.9295ZM21.116 30.3545H22.1809V35.3185H21.116V30.3545Z" fill="white"/>
<path d="M27.0355 33.925C27.0355 34.9116 26.1743 35.4596 25.0938 35.4596C24.1072 35.4596 23.3869 35.0055 23.0737 34.3009L23.9976 33.7684C24.1542 34.2226 24.5457 34.4888 25.0938 34.4888C25.5636 34.4888 25.9394 34.3322 25.9394 33.9407C25.9394 33.0638 23.2773 33.5492 23.2773 31.7797C23.2773 30.8401 24.0759 30.2607 25.0938 30.2607C25.9081 30.2607 26.5814 30.6366 26.9259 31.2943L26.0177 31.7954C25.8454 31.4039 25.4853 31.2316 25.0781 31.2316C24.671 31.2316 24.3578 31.4039 24.3578 31.764C24.3578 32.6723 27.0199 32.1242 27.0199 33.9563L27.0355 33.925Z" fill="white"/>
<path d="M32.4381 32.2808V35.3344H31.3732V32.3904C31.3732 31.6388 30.9348 31.2316 30.2614 31.2316C29.5881 31.2316 29.0087 31.6544 29.0087 32.6566V35.3187H27.9438V28.366H29.0087V30.9811C29.3375 30.4643 29.8699 30.2138 30.5433 30.2138C31.6551 30.2138 32.4537 30.9654 32.4537 32.2651L32.4381 32.2808Z" fill="white"/>
<path d="M41.2228 35.4751L40.5651 34.7548C40.064 35.1463 39.4377 35.4125 38.6234 35.4125C37.2297 35.4125 36.2432 34.6452 36.2432 33.3768C36.2432 32.5625 36.666 31.8265 37.4646 31.388C37.2297 31.0592 37.0731 30.6834 37.0731 30.1823C37.0731 28.9922 38.0127 28.2249 39.1871 28.2249C40.1267 28.2249 40.9566 28.726 41.3324 29.6812L40.3616 30.2293C40.1737 29.6812 39.7509 29.3367 39.2028 29.3367C38.6547 29.3367 38.2162 29.6812 38.2162 30.2136C38.2162 30.6677 38.4824 30.9652 38.8113 31.3254L40.5025 33.1575C40.6748 32.813 40.7844 32.4059 40.8627 31.9518L41.8335 32.4999C41.7239 33.001 41.536 33.5177 41.2542 33.9718L42.1624 34.9584L41.2385 35.4908L41.2228 35.4751ZM39.8292 33.9875L38.1223 32.1554C37.5899 32.4216 37.3863 32.8757 37.3863 33.2985C37.3863 33.9405 37.8404 34.3633 38.6704 34.3633C39.1245 34.3633 39.5003 34.238 39.8292 34.0032V33.9875Z" fill="white"/>
<path d="M50.4933 28.4284V35.3185H49.4285V29.1957C49.2719 29.1957 49.1153 29.1957 48.9587 29.1957C48.2071 29.1957 47.7843 29.5089 47.7843 30.2605V30.3545H48.7082V31.388H47.7843V35.3185H46.7194V31.388H45.9678V30.3545H46.7194V30.2605C46.7194 28.9138 47.4711 28.2405 48.9587 28.2405C49.5068 28.2405 49.9922 28.3031 50.509 28.4127L50.4933 28.4284Z" fill="white"/>
<path d="M51.4487 32.8444C51.4487 31.3724 52.6232 30.2292 54.0638 30.2292C55.5045 30.2292 56.679 31.3567 56.679 32.8444C56.679 34.332 55.5202 35.4595 54.0638 35.4595C52.6075 35.4595 51.4487 34.3163 51.4487 32.8444ZM55.6141 32.8444C55.6141 31.9361 54.9408 31.2784 54.0638 31.2784C53.1869 31.2784 52.5136 31.9361 52.5136 32.8444C52.5136 33.7526 53.1869 34.4103 54.0638 34.4103C54.9408 34.4103 55.6141 33.7526 55.6141 32.8444Z" fill="white"/>
<path d="M62.0812 30.3702V35.3342H61.0163V34.6921C60.6875 35.2089 60.1551 35.4594 59.4817 35.4594C58.3699 35.4594 57.5713 34.7078 57.5713 33.4081V30.3545H58.6361V33.2984C58.6361 34.0501 59.0746 34.4572 59.7479 34.4572C60.4213 34.4572 61.0007 34.0344 61.0007 33.0322V30.3702H62.0655H62.0812Z" fill="white"/>
<path d="M65.9334 30.2761V31.4349C65.2288 31.3879 64.3988 31.7168 64.3988 32.8286V35.3341H63.334V30.3701H64.3988V31.2C64.6963 30.5267 65.3071 30.2761 65.9334 30.2761Z" fill="white"/>
<path d="M66.5757 28.9295C66.5757 28.5537 66.8889 28.2405 67.2647 28.2405C67.6405 28.2405 67.9537 28.5537 67.9537 28.9295C67.9537 29.3053 67.6405 29.6185 67.2647 29.6185C66.8889 29.6185 66.5757 29.3053 66.5757 28.9295ZM66.7166 30.3545H67.7815V35.3185H66.7166V30.3545Z" fill="white"/>
<path d="M72.6356 33.9248C72.6356 34.9113 71.7744 35.4594 70.6939 35.4594C69.7073 35.4594 68.987 35.0053 68.6738 34.3006L69.5977 33.7682C69.7543 34.2223 70.1458 34.4885 70.6939 34.4885C71.1637 34.4885 71.5395 34.3319 71.5395 33.9404C71.5395 33.0635 68.8774 33.549 68.8774 31.7795C68.8774 30.8399 69.676 30.2605 70.6939 30.2605C71.5082 30.2605 72.1815 30.6363 72.526 31.294L71.6178 31.7951C71.4455 31.4036 71.0854 31.2314 70.6782 31.2314C70.2711 31.2314 69.9579 31.4036 69.9579 31.7638C69.9579 32.672 72.62 32.124 72.62 33.9561L72.6356 33.9248Z" fill="white"/>
<path d="M78.0382 32.2806V35.3341H76.9733V32.3902C76.9733 31.6385 76.5349 31.2314 75.8615 31.2314C75.1882 31.2314 74.6088 31.6542 74.6088 32.6564V35.3185H73.5439V28.3657H74.6088V30.9808C74.9376 30.4641 75.47 30.2135 76.1434 30.2135C77.2552 30.2135 78.0538 30.9652 78.0538 32.2649L78.0382 32.2806Z" fill="white"/>
<path d="M175.736 12.8787C175.736 14.4916 175.627 15.9479 175.423 17.2163C175.376 17.5295 175.314 17.827 175.251 18.1245C174.656 20.2386 172.699 21.8045 170.381 21.8045C168.377 21.8045 166.654 20.6457 165.824 18.9701C166.153 19.5652 166.623 19.8627 167.233 19.8627C168.032 19.8627 168.58 19.346 168.909 18.3125C169.238 17.2789 169.394 15.4625 169.394 12.8787C169.394 12.4872 169.394 12.127 169.394 11.7669C169.347 9.7468 169.191 8.29048 168.909 7.3979C168.799 7.06905 168.674 6.80284 168.533 6.56795V6.53663C167.656 5.00202 166.012 3.95284 164.117 3.95284C161.753 3.95284 159.78 5.56575 159.216 7.75806C159.56 6.08251 160.108 4.72015 160.86 3.67097C162.254 1.71355 164.383 0.742676 167.265 0.742676C170.146 0.742676 172.182 1.76053 173.607 3.79625C175.032 5.83196 175.752 8.85421 175.752 12.8787H175.736Z" fill="url(#paint0_linear_4_2758)"/>
<path d="M175.251 18.1246C174.907 19.7219 174.374 21.0216 173.654 22.0238C172.26 23.9656 170.13 24.9208 167.249 24.9208C164.368 24.9208 162.316 23.9029 160.891 21.8829C159.466 19.8628 158.746 16.8562 158.746 12.8631C158.746 11.1719 158.856 9.66857 159.091 8.33753C159.091 8.33753 159.091 8.33753 159.091 8.32187C159.122 8.13396 159.153 7.9617 159.185 7.78945C159.185 7.78945 159.185 7.75814 159.185 7.74248C159.748 5.55017 161.737 3.93726 164.086 3.93726C165.981 3.93726 167.625 4.97077 168.502 6.50539C168.502 6.50539 167.907 5.89467 167.515 5.81638C167.421 5.80072 167.327 5.78506 167.233 5.78506C166.466 5.78506 165.902 6.28615 165.558 7.30401C165.213 8.32187 165.057 10.154 165.057 12.8474C165.057 13.2389 165.057 13.6147 165.057 13.9749C165.104 16.0419 165.26 17.4982 165.542 18.3439C165.621 18.5631 165.699 18.751 165.793 18.9076C165.793 18.9076 165.793 18.9232 165.808 18.9389C166.638 20.6145 168.361 21.7732 170.365 21.7732C172.683 21.7732 174.64 20.223 175.235 18.0933L175.251 18.1246Z" fill="url(#paint1_linear_4_2758)"/>
<path d="M150.243 9.38652C150.384 8.99504 150.462 8.58789 150.462 8.14943C150.462 7.52306 150.243 7.06894 149.852 6.67745C149.46 6.28597 148.881 6.17635 148.16 6.14504C147.44 6.11372 146.657 6.36427 145.89 6.78707C145.671 6.91234 145.436 7.05328 145.201 7.20987C144.042 7.97718 142.492 7.75795 141.583 6.70877C141.129 6.19201 140.926 5.54998 140.926 4.92361C140.926 4.04669 141.333 3.18542 142.116 2.653C142.366 2.48075 142.617 2.32416 142.836 2.19888C143.322 1.93267 143.823 1.69778 144.355 1.49421C144.559 1.46289 144.778 1.46289 144.997 1.46289C148.145 1.46289 150.697 4.01536 150.697 7.16289C150.697 7.96152 150.541 8.71316 150.243 9.40218V9.38652Z" fill="url(#paint2_linear_4_2758)"/>
<path d="M155.849 3.87454C155.176 2.87235 154.236 2.08938 153.03 1.55696C151.825 1.00889 150.447 0.742676 148.896 0.742676C147.675 0.742676 146.563 0.867953 145.577 1.1185C145.154 1.22812 144.747 1.35339 144.355 1.49432C144.559 1.463 144.778 1.463 144.997 1.463C148.145 1.463 150.697 4.01548 150.697 7.163C150.697 7.96163 150.541 8.71328 150.243 9.40229C150.212 9.46493 150.196 9.54323 150.165 9.60586C149.961 10.06 149.601 10.6081 149.1 11.2501C148.583 11.8921 147.503 13.0822 145.843 14.8204L140.894 19.8314C140.613 20.1133 140.393 20.4421 140.252 20.8023C140.111 21.1625 140.033 21.5539 140.033 21.9454C140.033 23.6053 141.38 24.952 143.04 24.952H150.384C148.662 24.952 147.252 23.5427 147.252 21.8201C147.252 20.8806 147.659 20.0506 148.317 19.4712C150.963 17.1067 152.686 15.4938 153.5 14.6482C154.315 13.8026 154.957 12.9883 155.442 12.221C155.927 11.4537 156.288 10.6707 156.522 9.88773C156.757 9.0891 156.867 8.22784 156.867 7.28828C156.867 6.03553 156.538 4.90806 155.865 3.90586L155.849 3.87454Z" fill="url(#paint3_linear_4_2758)"/>
<path d="M148.286 19.6122V19.4556C147.628 20.035 147.221 20.8649 147.221 21.8045C147.221 23.527 148.614 24.9363 150.353 24.9363H153.641V19.6122H148.286Z" fill="url(#paint4_linear_4_2758)"/>
<path d="M153.641 24.9363L158.527 20.0505C158.668 19.9096 158.668 19.6747 158.527 19.5181L154.268 15.2588C154.033 15.0239 153.625 15.1961 153.625 15.525V24.9363H153.641Z" fill="url(#paint5_linear_4_2758)"/>
<path d="M149.523 30.3545L147.612 35.4908C147.143 36.7592 146.328 37.3855 145.185 37.3229V36.3207C145.874 36.3677 146.266 36.0075 146.501 35.3498L146.548 35.2559L144.434 30.3702H145.608L147.096 33.9875L148.364 30.3702H149.507L149.523 30.3545Z" fill="white"/>
<path d="M153.046 34.4729C153.642 34.4729 154.096 34.2067 154.331 33.8622L155.223 34.379C154.769 35.0523 154.017 35.4595 153.046 35.4595C151.402 35.4595 150.337 34.332 150.337 32.8444C150.337 31.3567 151.402 30.2292 152.968 30.2292C154.534 30.2292 155.458 31.4194 155.458 32.86C155.458 33.0166 155.442 33.1732 155.411 33.3141H151.449C151.621 34.0971 152.248 34.4886 153.046 34.4886V34.4729ZM154.362 32.4216C154.205 31.5603 153.579 31.2001 152.937 31.2001C152.138 31.2001 151.59 31.6699 151.434 32.4216H154.362Z" fill="white"/>
<path d="M161.972 30.3545V35.3342H160.892V34.6139C160.516 35.1463 159.921 35.4595 159.153 35.4595C157.807 35.4595 156.679 34.3163 156.679 32.8444C156.679 31.3724 157.807 30.2292 159.153 30.2292C159.936 30.2292 160.516 30.5424 160.892 31.0592V30.3545H161.972ZM160.892 32.8444C160.892 31.9205 160.218 31.2471 159.326 31.2471C158.433 31.2471 157.76 31.9205 157.76 32.8444C157.76 33.7683 158.433 34.4416 159.326 34.4416C160.218 34.4416 160.892 33.7683 160.892 32.8444Z" fill="white"/>
<path d="M166.435 30.2605V31.4193C165.73 31.3723 164.9 31.7012 164.9 32.813V35.3185H163.82V30.3388H164.9V31.1688C165.198 30.4954 165.809 30.2449 166.435 30.2449V30.2605Z" fill="white"/>
<path d="M171.289 33.9248C171.289 34.927 170.428 35.4594 169.348 35.4594C168.346 35.4594 167.641 35.0053 167.312 34.3006L168.236 33.7682C168.393 34.2223 168.8 34.4886 169.348 34.4886C169.818 34.4886 170.193 34.332 170.193 33.9248C170.193 33.0322 167.516 33.5333 167.516 31.7638C167.516 30.8243 168.314 30.2449 169.332 30.2449C170.146 30.2449 170.82 30.6207 171.18 31.2784L170.272 31.7795C170.099 31.388 169.739 31.2158 169.332 31.2158C168.925 31.2158 168.612 31.388 168.612 31.7482C168.612 32.6564 171.289 32.1083 171.289 33.9405V33.9248Z" fill="white"/>
<defs>
<linearGradient id="paint0_linear_4_2758" x1="167.468" y1="20.4891" x2="167.468" y2="2.80971" gradientUnits="userSpaceOnUse">
<stop stop-color="#B47B3A"/>
<stop offset="0.67" stop-color="#D29936"/>
<stop offset="1" stop-color="#E4AB35"/>
</linearGradient>
<linearGradient id="paint1_linear_4_2758" x1="166.999" y1="17.8271" x2="166.999" y2="0.194674" gradientUnits="userSpaceOnUse">
<stop stop-color="#E4AB35"/>
<stop offset="0.16" stop-color="#E1A735"/>
<stop offset="0.32" stop-color="#D89B35"/>
<stop offset="0.48" stop-color="#C98735"/>
<stop offset="0.63" stop-color="#B46C35"/>
<stop offset="0.79" stop-color="#9A4936"/>
<stop offset="0.94" stop-color="#791E36"/>
<stop offset="1" stop-color="#6C0C37"/>
</linearGradient>
<linearGradient id="paint2_linear_4_2758" x1="142.554" y1="5.4247" x2="152.702" y2="5.4247" gradientUnits="userSpaceOnUse">
<stop stop-color="#E4AB35"/>
<stop offset="0.16" stop-color="#E1A735"/>
<stop offset="0.32" stop-color="#D89B35"/>
<stop offset="0.48" stop-color="#C98735"/>
<stop offset="0.63" stop-color="#B46C35"/>
<stop offset="0.79" stop-color="#9A4936"/>
<stop offset="0.94" stop-color="#791E36"/>
<stop offset="1" stop-color="#6C0C37"/>
</linearGradient>
<linearGradient id="paint3_linear_4_2758" x1="148.427" y1="24.6232" x2="148.427" y2="13.6929" gradientUnits="userSpaceOnUse">
<stop stop-color="#B47B3A"/>
<stop offset="0.67" stop-color="#D29936"/>
<stop offset="1" stop-color="#E4AB35"/>
</linearGradient>
<linearGradient id="paint4_linear_4_2758" x1="153.61" y1="23.1825" x2="145.858" y2="19.5965" gradientUnits="userSpaceOnUse">
<stop stop-color="#E4AB34"/>
<stop offset="0.16" stop-color="#E1A734"/>
<stop offset="0.32" stop-color="#D89B34"/>
<stop offset="0.48" stop-color="#C98734"/>
<stop offset="0.63" stop-color="#B46C35"/>
<stop offset="0.79" stop-color="#9A4935"/>
<stop offset="0.94" stop-color="#791E36"/>
<stop offset="1" stop-color="#6C0C37"/>
</linearGradient>
<linearGradient id="paint5_linear_4_2758" x1="158.871" y1="23.0415" x2="154.142" y2="20.2071" gradientUnits="userSpaceOnUse">
<stop stop-color="#B47B3A"/>
<stop offset="0.67" stop-color="#D29936"/>
<stop offset="1" stop-color="#E4AB35"/>
</linearGradient>
</defs>
</svg>
