<svg width="134" height="40" viewBox="0 0 134 40" fill="none" xmlns="http://www.w3.org/2000/svg">
<path d="M5.02409 18.8415C5.66568 21.0981 7.40886 22.2385 10.2657 22.2385C12.0937 22.2385 13.4858 21.6319 14.43 20.4308L18.2916 22.6025C16.4637 25.1745 13.7642 26.4605 10.1931 26.4605C7.11833 26.4605 4.66093 25.5627 2.7967 23.755C0.932463 21.9473 0.0124512 19.6786 0.0124512 16.9367C0.0124512 14.1948 0.932463 11.9504 2.76038 10.1305C4.5883 8.31068 6.94886 7.40076 9.81784 7.40076C12.6868 7.40076 14.7932 8.31068 16.5606 10.1426C18.3279 11.9746 19.2237 14.2312 19.2237 16.9246C19.2237 17.5312 19.1632 18.1621 19.0422 18.8415H5.02409ZM4.93936 15.2261H14.4179C14.1516 14.0007 13.5826 13.0787 12.7231 12.4842C11.8637 11.8776 10.8952 11.5864 9.80573 11.5864C8.52256 11.5864 7.45728 11.9018 6.6099 12.5448C5.77463 13.1757 5.21778 14.0735 4.93936 15.2261Z" fill="#113DC6"/>
<path d="M45.6614 25.9509V7.89807H50.4551V25.9509H45.6614Z" fill="#113DC6"/>
<path d="M65.4663 12.3749H61.2657V19.8848C61.2657 20.5156 61.4231 20.9645 61.75 21.2557C62.0768 21.5469 62.5368 21.7046 63.1663 21.741C63.7837 21.7774 64.5584 21.7774 65.4663 21.7289V25.9509C62.1736 26.3149 59.8494 26.0115 58.5057 25.0531C57.1499 24.0947 56.4841 22.3719 56.4841 19.8848V12.3749H53.252V7.89809H56.4841V4.25842L61.2778 2.85107V7.91022H65.4784L65.4663 12.3749Z" fill="#113DC6"/>
<path d="M118.851 18.8415C119.492 21.0981 121.236 22.2385 124.092 22.2385C125.92 22.2385 127.312 21.6319 128.257 20.4308L132.118 22.6025C130.29 25.1745 127.591 26.4605 124.02 26.4605C120.945 26.4605 118.488 25.5627 116.623 23.755C114.771 21.9473 113.839 19.6786 113.839 16.9367C113.839 14.1948 114.759 11.9504 116.587 10.1305C118.415 8.31068 120.776 7.40076 123.644 7.40076C126.513 7.40076 128.62 8.31068 130.387 10.1426C132.155 11.9746 133.05 14.2312 133.05 16.9246C133.05 17.5312 132.99 18.1621 132.869 18.8415H118.851ZM118.766 15.2261H128.245C127.978 14.0007 127.409 13.0787 126.55 12.4842C125.69 11.8776 124.722 11.5864 123.632 11.5864C122.349 11.5864 121.284 11.9018 120.437 12.5448C119.601 13.1757 119.044 14.0735 118.766 15.2261Z" fill="#113DC6"/>
<path d="M36.4857 2.09899V10.0335C35.0694 8.27431 33.072 7.40079 30.4693 7.40079C27.8666 7.40079 25.8329 8.32284 24.0655 10.1669C22.2981 12.011 21.4023 14.2676 21.4023 16.9367C21.4023 19.6058 22.286 21.8624 24.0655 23.7065C25.8329 25.5506 27.9756 26.4727 30.4693 26.4727C32.963 26.4727 35.0815 25.5992 36.4857 23.84V25.9753H41.2794V0.69165L36.4857 2.09899ZM35.033 20.5885C34.0646 21.5349 32.842 22.0202 31.353 22.0202C29.864 22.0202 28.6293 21.547 27.6608 20.5885C26.6803 19.6422 26.1961 18.4169 26.1961 16.9246C26.1961 15.4323 26.6803 14.207 27.6608 13.2607C28.6414 12.3144 29.8761 11.8291 31.353 11.8291C32.8299 11.8291 34.0646 12.3022 35.033 13.2607C36.0015 14.207 36.4857 15.4323 36.4857 16.9246C36.4857 18.4169 36.0015 19.6422 35.033 20.5885Z" fill="#113DC6"/>
<path d="M82.4016 8.82023V10.0335C80.961 8.27428 78.9515 7.40076 76.3489 7.40076C73.7462 7.40076 71.7488 8.32281 69.9814 10.1669C68.214 12.011 67.3303 14.2676 67.3303 16.9367C67.3303 19.6058 68.214 21.8624 69.9814 23.7065C71.7488 25.5506 73.8794 26.4727 76.3489 26.4727C78.9515 26.4727 80.9731 25.5991 82.4016 23.84V25.9752H87.1953V7.41289L82.4016 8.82023ZM80.9368 20.5885C79.9563 21.5348 78.7215 22.0201 77.2447 22.0201C75.7678 22.0201 74.533 21.547 73.5646 20.5885C72.5962 19.6422 72.112 18.4168 72.112 16.9246C72.112 15.4323 72.5962 14.207 73.5646 13.2606C74.533 12.3143 75.7557 11.829 77.2447 11.829C78.7336 11.829 79.9684 12.3022 80.9368 13.2606C81.9173 14.207 82.4016 15.4323 82.4016 16.9246C82.4016 18.4168 81.9173 19.6422 80.9368 20.5885Z" fill="#113DC6"/>
<path d="M105.765 8.78383V10.1426C104.349 8.31068 102.376 7.40076 99.8215 7.40076C97.2673 7.40076 95.0278 8.29854 93.2483 10.1062C91.4688 11.914 90.573 14.0856 90.573 16.6455C90.573 19.2054 91.4567 21.4014 93.2241 23.197C94.9915 24.9925 97.1947 25.8903 99.8215 25.8903C102.448 25.8903 104.349 24.9804 105.765 23.1484V25.1017C105.765 26.5212 105.33 27.6131 104.47 28.3896C103.598 29.1539 102.412 29.5421 100.899 29.5421C99.0589 29.5421 97.6547 28.9962 96.6862 27.9043L91.953 29.2995C92.7641 30.7432 93.9383 31.8351 95.4515 32.5752C96.9768 33.3153 98.7442 33.6914 100.742 33.6914C103.417 33.6914 105.705 32.9513 107.593 31.4833C109.494 30.0153 110.438 27.88 110.438 25.0896V7.41289L105.765 8.78383ZM104.301 20.2003C103.32 21.1223 102.073 21.5955 100.572 21.5955C99.071 21.5955 97.812 21.1345 96.8436 20.2003C95.8752 19.2661 95.3788 18.0893 95.3788 16.6455C95.3788 15.2018 95.8631 14.0492 96.8436 13.1272C97.8241 12.2051 99.071 11.732 100.572 11.732C102.073 11.732 103.332 12.193 104.301 13.1272C105.281 14.0492 105.765 15.2261 105.765 16.6455C105.765 18.065 105.281 19.2661 104.301 20.2003Z" fill="#113DC6"/>
<path d="M48.0342 5.73856C47.2353 5.73856 46.5574 5.45952 45.9763 4.8893C45.3953 4.31908 45.1047 3.65181 45.1047 2.88748C45.1047 2.12314 45.3953 1.44374 45.9763 0.86139C46.5574 0.279042 47.2474 0 48.0342 0C48.8211 0 49.5474 0.291174 50.1285 0.86139C50.7095 1.44374 51.0001 2.11101 51.0001 2.88748C51.0001 3.66394 50.7095 4.33122 50.1285 4.8893C49.5595 5.44738 48.8574 5.73856 48.0342 5.73856Z" fill="#FF0066"/>
<path d="M5.94376 35.1106C5.94376 36.7242 4.6848 37.9617 3.15951 37.9617C2.28792 37.9617 1.63423 37.6099 1.21054 37.0518V39.9999H0V32.393H1.21054V33.1695C1.63423 32.5993 2.30003 32.2474 3.15951 32.2474C4.6848 32.2596 5.94376 33.5092 5.94376 35.1106ZM4.74532 35.1106C4.74532 34.1037 3.98268 33.3757 2.97793 33.3757C1.97318 33.3757 1.21054 34.1037 1.21054 35.1106C1.21054 36.1176 1.97318 36.8456 2.97793 36.8456C3.98268 36.8456 4.74532 36.1176 4.74532 35.1106Z" fill="black"/>
<path d="M12.0086 32.405V37.8403H10.798V37.1487C10.4228 37.719 9.82962 37.9859 9.06698 37.9859C7.82012 37.9859 6.92432 37.1609 6.92432 35.7535V32.4172H8.13486V35.6322C8.13486 36.4572 8.63118 36.894 9.38172 36.894C10.1807 36.894 10.798 36.4329 10.798 35.3289V32.4172H12.0086V32.405Z" fill="black"/>
<path d="M19.3686 35.1108C19.3686 36.7244 18.1096 37.9619 16.5843 37.9619C15.7127 37.9619 15.059 37.61 14.6353 37.0398V37.8163H13.4248V30.2094H14.6353V33.1575C15.059 32.5873 15.7248 32.2476 16.5843 32.2476C18.0975 32.2597 19.3686 33.4972 19.3686 35.1108ZM18.158 35.1108C18.158 34.1038 17.3954 33.3759 16.3906 33.3759C15.3859 33.3759 14.6232 34.1038 14.6232 35.1108C14.6232 36.1178 15.3859 36.8457 16.3906 36.8457C17.3954 36.8457 18.158 36.1178 18.158 35.1108Z" fill="black"/>
<path d="M20.4585 29.9059H21.669V37.8282H20.4585V29.9059Z" fill="black"/>
<path d="M22.8911 30.8401C22.8911 30.4276 23.2422 30.0879 23.6659 30.0879C24.0895 30.0879 24.4406 30.4276 24.4406 30.8401C24.4406 31.2526 24.0895 31.5923 23.6659 31.5923C23.2422 31.5802 22.8911 31.2405 22.8911 30.8401ZM23.0606 32.4052H24.2711V37.8404H23.0606V32.4052Z" fill="black"/>
<path d="M29.7187 36.2997C29.7187 37.3795 28.7503 37.9739 27.5397 37.9739C26.426 37.9739 25.615 37.4886 25.2639 36.7L26.305 36.1177C26.4866 36.603 26.9345 36.8942 27.5397 36.8942C28.0724 36.8942 28.484 36.7243 28.484 36.2875C28.484 35.317 25.4818 35.8629 25.4818 33.9218C25.4818 32.9027 26.3897 32.2596 27.5276 32.2596C28.4476 32.2596 29.1982 32.6721 29.5977 33.3879L28.5808 33.946C28.375 33.5214 27.9876 33.3273 27.5276 33.3273C27.0918 33.3273 26.7166 33.5093 26.7166 33.8975C26.7166 34.8802 29.7187 34.2857 29.7187 36.2997Z" fill="black"/>
<path d="M35.7957 34.492V37.8284H34.5852V34.6133C34.5852 33.7883 34.0888 33.3516 33.3383 33.3516C32.5393 33.3516 31.922 33.8126 31.922 34.9166V37.8284H30.7114V30.2214H31.922V33.0846C32.2972 32.5144 32.8904 32.2475 33.653 32.2475C34.912 32.2597 35.7957 33.0846 35.7957 34.492Z" fill="black"/>
<path d="M45.6858 37.998L44.9352 37.2216C44.3784 37.6583 43.6642 37.9374 42.7563 37.9374C41.1947 37.9374 40.0688 37.1002 40.0688 35.705C40.0688 34.8194 40.541 33.9944 41.4368 33.5212C41.1704 33.1572 40.9889 32.7448 40.9889 32.1988C40.9889 30.9007 42.0541 30.0514 43.3736 30.0514C44.4268 30.0514 45.3589 30.6095 45.7826 31.6407L44.6931 32.2473C44.4752 31.6407 44.0031 31.2646 43.3857 31.2646C42.7684 31.2646 42.2841 31.6407 42.2841 32.2352C42.2841 32.7205 42.5868 33.0602 42.9499 33.4484L44.8505 35.4502C45.0442 35.0863 45.1773 34.6374 45.25 34.1278L46.3395 34.7344C46.2184 35.2925 46.0005 35.8506 45.6858 36.348L46.7026 37.4278L45.6858 37.998ZM44.1242 36.3723L42.1994 34.3583C41.5941 34.6495 41.3762 35.1469 41.3762 35.608C41.3762 36.2995 41.8968 36.7727 42.8289 36.7727C43.3494 36.7727 43.7731 36.6392 44.1242 36.3723Z" fill="black"/>
<path d="M56.133 30.282V37.8283H54.9225V31.1313C54.7409 31.1191 54.5593 31.1191 54.3899 31.1191C53.5425 31.1191 53.0704 31.4588 53.0704 32.296V32.4052H54.1114V33.5335H53.0704V37.8404H51.8598V33.5335H51.0125V32.4052H51.8598V32.296C51.8598 30.828 52.7072 30.0879 54.3899 30.0879C55.0072 30.0879 55.552 30.1607 56.133 30.282Z" fill="black"/>
<path d="M57.2102 35.1107C57.2102 33.4971 58.5297 32.2596 60.1639 32.2596C61.7982 32.2596 63.1177 33.4971 63.1177 35.1107C63.1177 36.7243 61.8103 37.9618 60.1639 37.9618C58.5297 37.9739 57.2102 36.7243 57.2102 35.1107ZM61.9071 35.1107C61.9071 34.128 61.1445 33.4001 60.1639 33.4001C59.1834 33.4001 58.4207 34.128 58.4207 35.1107C58.4207 36.0934 59.1834 36.8214 60.1639 36.8214C61.1445 36.8335 61.9071 36.1056 61.9071 35.1107Z" fill="black"/>
<path d="M69.1827 32.405V37.8403H67.9721V37.1487C67.5969 37.719 67.0037 37.9859 66.241 37.9859C64.9942 37.9859 64.0984 37.1609 64.0984 35.7535V32.4172H65.3089V35.6322C65.3089 36.4572 65.8053 36.894 66.5558 36.894C67.3547 36.894 67.9721 36.4329 67.9721 35.3289V32.4172H69.1827V32.405Z" fill="black"/>
<path d="M73.5159 32.3081V33.5699C72.717 33.5213 71.797 33.8732 71.797 35.0864V37.8283H70.5864V32.393H71.797V33.303C72.1238 32.575 72.8138 32.3081 73.5159 32.3081Z" fill="black"/>
<path d="M74.2427 30.8401C74.2427 30.4276 74.5937 30.0879 75.0174 30.0879C75.4411 30.0879 75.7922 30.4276 75.7922 30.8401C75.7922 31.2526 75.4411 31.5923 75.0174 31.5923C74.5816 31.5802 74.2427 31.2405 74.2427 30.8401ZM74.4122 32.4052H75.6227V37.8404H74.4122V32.4052Z" fill="black"/>
<path d="M81.07 36.2997C81.07 37.3795 80.1016 37.9739 78.8911 37.9739C77.7774 37.9739 76.9663 37.4886 76.6152 36.7L77.6563 36.1177C77.8379 36.603 78.2858 36.8942 78.8911 36.8942C79.4237 36.8942 79.8353 36.7243 79.8353 36.2875C79.8353 35.317 76.8331 35.8629 76.8331 33.9218C76.8331 32.9027 77.741 32.2596 78.8789 32.2596C79.799 32.2596 80.5495 32.6721 80.949 33.3879L79.9321 33.946C79.7263 33.5214 79.3389 33.3273 78.8789 33.3273C78.4431 33.3273 78.0679 33.5093 78.0679 33.8975C78.0558 34.8802 81.07 34.2857 81.07 36.2997Z" fill="black"/>
<path d="M87.1468 34.4919V37.8282H85.9362V34.6132C85.9362 33.7882 85.4399 33.3514 84.6894 33.3514C83.8904 33.3514 83.273 33.8125 83.273 34.9165V37.8282H82.0625V30.2213H83.273V33.0845C83.6483 32.5143 84.2415 32.2474 85.0041 32.2474C86.251 32.2595 87.1468 33.0845 87.1468 34.4919Z" fill="black"/>
</svg>
