<svg xmlns="http://www.w3.org/2000/svg" xmlns:xlink="http://www.w3.org/1999/xlink" width="680" height="128" viewBox="0 0 680 128">
  <defs>
    <clipPath id="clip-Logo">
      <rect width="680" height="128"/>
    </clipPath>
  </defs>
  <g id="Logo" clip-path="url(#clip-Logo)">
    <rect width="680" height="128" fill="#fff"/>
    <g id="Group_9" data-name="Group 9">
      <g id="Group_1" data-name="Group 1" transform="translate(33 15)">
        <path id="Path_2613" data-name="Path 2613" d="M9092.426,1028.39q2.751,9.927,14.893,9.924,7.808,0,11.82-5.277l10.979,6.333q-7.816,11.3-23.016,11.3-13.087,0-21.006-7.919t-7.922-19.952q0-11.929,7.814-19.9t20.055-7.97a25.178,25.178,0,0,1,19.166,8.024q7.547,8.024,7.549,19.847a32.07,32.07,0,0,1-.527,5.594Zm-.209-10.557h26.922a12.771,12.771,0,0,0-4.8-8.023,13.783,13.783,0,0,0-8.291-2.64,14.348,14.348,0,0,0-9.08,2.8A13.4,13.4,0,0,0,9092.217,1017.833Z" transform="translate(-9078.174 -973.282)" fill="#113dcd"/>
        <path id="Path_2614" data-name="Path 2614" d="M9144.663,1048.468V995.682h13.617v52.786Z" transform="translate(-9014.913 -972.56)" fill="#113dcd"/>
        <path id="Path_2615" data-name="Path 2615" d="M9190.431,1015.981H9178.5v21.958a5.226,5.226,0,0,0,1.373,4.012,6.283,6.283,0,0,0,4.013,1.425,58.792,58.792,0,0,0,6.541-.053v12.353q-14.03,1.583-19.793-2.641t-5.749-15.1v-21.958h-9.19V1002.89h9.19V992.226l13.615-4.119v14.783h11.927Z" transform="translate(-9004.411 -979.768)" fill="#113dcd"/>
        <path id="Path_2616" data-name="Path 2616" d="M9258.186,1028.39q2.745,9.927,14.889,9.924,7.808,0,11.822-5.277l10.979,6.333q-7.811,11.3-23.012,11.3-13.093,0-21.008-7.919t-7.924-19.952q0-11.929,7.811-19.9t20.063-7.97a25.169,25.169,0,0,1,19.162,8.024,27.872,27.872,0,0,1,7.549,19.847,32.07,32.07,0,0,1-.527,5.594Zm-.213-10.557H9284.9a12.748,12.748,0,0,0-4.807-8.023,13.77,13.77,0,0,0-8.285-2.64,14.333,14.333,0,0,0-9.08,2.8A13.373,13.373,0,0,0,9257.973,1017.833Z" transform="translate(-8920.455 -973.282)" fill="#113dcd"/>
        <path id="Path_2617" data-name="Path 2617" d="M9152.2,988.995V1012.2q-6.015-7.7-17.1-7.706a24.029,24.029,0,0,0-18.215,8.075,29.728,29.728,0,0,0,0,39.59,24.023,24.023,0,0,0,18.215,8.077q11.083,0,17.1-7.706v6.227h13.619v-73.89Zm-4.111,54.086a14.079,14.079,0,0,1-10.457,4.17,14.239,14.239,0,0,1-10.5-4.17,15.842,15.842,0,0,1,0-21.431,14.244,14.244,0,0,1,10.5-4.171,14.084,14.084,0,0,1,10.457,4.171,16.02,16.02,0,0,1,0,21.431Z" transform="translate(-9048.527 -982.852)" fill="#113dcd"/>
        <path id="Path_2618" data-name="Path 2618" d="M9219.064,999.093v3.538q-6.123-7.7-17.211-7.706a23.934,23.934,0,0,0-18.109,8.075,29.752,29.752,0,0,0,0,39.59,23.93,23.93,0,0,0,18.109,8.077q11.083,0,17.211-7.706v6.227h13.615V994.967Zm-4.168,34.419a14.247,14.247,0,0,1-10.508,4.17,14.067,14.067,0,0,1-10.453-4.17,16.015,16.015,0,0,1,0-21.432,14.073,14.073,0,0,1,10.453-4.171,14.253,14.253,0,0,1,10.508,4.171,15.859,15.859,0,0,1,0,21.432Z" transform="translate(-8984.904 -973.282)" fill="#113dcd"/>
        <path id="Path_2619" data-name="Path 2619" d="M9253.249,998.99v3.959q-6.019-8.023-16.9-8.024a24.877,24.877,0,0,0-18.682,7.917,27.96,27.96,0,0,0-.058,38.271,24.928,24.928,0,0,0,18.739,7.865q10.876,0,16.9-8.023v5.7q0,6.23-3.7,9.607t-10.134,3.378c-5.248,0-9.229-1.612-11.987-4.776l-13.435,4.071a22.914,22.914,0,0,0,9.953,9.574,33.042,33.042,0,0,0,15.051,3.273,30.282,30.282,0,0,0,19.479-6.442q8.073-6.44,8.075-18.685v-51.7Zm-4.173,33.36a15.887,15.887,0,0,1-21.223,0,14.934,14.934,0,0,1,0-20.692,15.882,15.882,0,0,1,21.223,0,14.912,14.912,0,0,1,0,20.692Z" transform="translate(-8952.681 -973.282)" fill="#113dcd"/>
        <path id="Path_2620" data-name="Path 2620" d="M9152.192,1000.619a8.473,8.473,0,0,1-8.343-8.339,8.2,8.2,0,0,1,2.481-5.913,7.935,7.935,0,0,1,5.861-2.533,8.057,8.057,0,0,1,5.964,2.533,8.19,8.19,0,0,1,2.484,5.913,8.013,8.013,0,0,1-2.484,5.858A8.132,8.132,0,0,1,9152.192,1000.619Z" transform="translate(-9015.685 -983.834)" fill="#f06"/>
      </g>
      <path id="Path_2623" data-name="Path 2623" d="M15.52-13.216V-22.4H19.2V0H15.52V-9.7H5.92V0H2.24V-22.4H5.92v9.184ZM38.912-6.528H26.176A4.465,4.465,0,0,0,27.92-3.744a5.576,5.576,0,0,0,3.376.992,4.74,4.74,0,0,0,4.128-1.984l2.848,1.664A7.872,7.872,0,0,1,31.264.416a8.656,8.656,0,0,1-6.3-2.368A8.2,8.2,0,0,1,22.56-8a8.247,8.247,0,0,1,2.368-5.984,8.051,8.051,0,0,1,6.08-2.432,7.5,7.5,0,0,1,5.76,2.464A8.509,8.509,0,0,1,39.04-7.968,9.2,9.2,0,0,1,38.912-6.528ZM26.144-9.344h9.408a4.77,4.77,0,0,0-1.584-2.912,4.527,4.527,0,0,0-2.992-1.024,4.861,4.861,0,0,0-3.2,1.056A4.763,4.763,0,0,0,26.144-9.344ZM45.536,0H42.08V-23.36h3.456ZM58.592-16.416a7.547,7.547,0,0,1,5.632,2.464A8.268,8.268,0,0,1,66.56-8a8.308,8.308,0,0,1-2.336,5.984A7.527,7.527,0,0,1,58.592.416a6.553,6.553,0,0,1-5.6-2.688V6.4H49.536V-16h3.456v2.3A6.474,6.474,0,0,1,58.592-16.416Zm-4.16,12.1a4.9,4.9,0,0,0,3.616,1.44,4.9,4.9,0,0,0,3.616-1.44A5.051,5.051,0,0,0,63.1-8a4.943,4.943,0,0,0-1.44-3.648,4.849,4.849,0,0,0-3.616-1.472,4.849,4.849,0,0,0-3.616,1.472A4.943,4.943,0,0,0,52.992-8,5.121,5.121,0,0,0,54.432-4.32ZM72.96-19.04a2.1,2.1,0,0,1-1.536.64,2.2,2.2,0,0,1-1.568-.64,2.2,2.2,0,0,1-.64-1.568,2.1,2.1,0,0,1,.64-1.536,2.082,2.082,0,0,1,1.568-.672,2.082,2.082,0,0,1,1.568.672,2.1,2.1,0,0,1,.64,1.536A2.149,2.149,0,0,1,72.96-19.04ZM73.152,0H69.7V-16h3.456ZM85.568-16.416a5.857,5.857,0,0,1,4.464,1.776,6.722,6.722,0,0,1,1.68,4.816V0H88.256V-9.472a3.724,3.724,0,0,0-.96-2.752,3.546,3.546,0,0,0-2.624-.96A3.869,3.869,0,0,0,81.7-12.016a4.877,4.877,0,0,0-1.088,3.44V0H77.152V-16h3.456v2.048A5.5,5.5,0,0,1,85.568-16.416Zm22.592,2.784V-16h3.392V-.736a6.8,6.8,0,0,1-2.4,5.6,8.854,8.854,0,0,1-5.824,1.952q-5.536,0-7.584-3.872L98.72,1.216q1.248,2.464,4.672,2.464a4.966,4.966,0,0,0,3.5-1.168A4.2,4.2,0,0,0,108.16-.736V-2.688A6.393,6.393,0,0,1,102.592.1a7.751,7.751,0,0,1-5.728-2.4A8.15,8.15,0,0,1,94.528-8.16a7.972,7.972,0,0,1,2.336-5.824,7.634,7.634,0,0,1,5.728-2.432A6.393,6.393,0,0,1,108.16-13.632ZM99.424-4.576a5.012,5.012,0,0,0,3.648,1.44,4.9,4.9,0,0,0,3.616-1.44A4.81,4.81,0,0,0,108.16-8.16a4.81,4.81,0,0,0-1.472-3.584,4.9,4.9,0,0,0-3.616-1.44,5.012,5.012,0,0,0-3.648,1.44,4.865,4.865,0,0,0-1.44,3.584A4.865,4.865,0,0,0,99.424-4.576Zm30.848.192L134.368-16h3.68L131.9.512Q129.6,6.72,124.1,6.4V3.168a3.732,3.732,0,0,0,2.592-.672A5.678,5.678,0,0,0,128.352.032l.16-.32L121.728-16H125.5ZM153.12-2.016A8.133,8.133,0,0,1,147.136.416a8.133,8.133,0,0,1-5.984-2.432A8.147,8.147,0,0,1,138.688-8a8.147,8.147,0,0,1,2.464-5.984,8.133,8.133,0,0,1,5.984-2.432,8.133,8.133,0,0,1,5.984,2.432A8.147,8.147,0,0,1,155.584-8,8.147,8.147,0,0,1,153.12-2.016ZM142.144-8a4.9,4.9,0,0,0,1.44,3.616,4.826,4.826,0,0,0,3.552,1.44,4.826,4.826,0,0,0,3.552-1.44A4.9,4.9,0,0,0,152.128-8a4.9,4.9,0,0,0-1.44-3.616,4.826,4.826,0,0,0-3.552-1.44,4.826,4.826,0,0,0-3.552,1.44A4.9,4.9,0,0,0,142.144-8Zm27.36.576V-16h3.456V0H169.5V-2.048a5.5,5.5,0,0,1-4.96,2.464A5.857,5.857,0,0,1,160.08-1.36a6.722,6.722,0,0,1-1.68-4.816V-16h3.456v9.472a3.724,3.724,0,0,0,.96,2.752,3.546,3.546,0,0,0,2.624.96,3.869,3.869,0,0,0,2.976-1.168A4.877,4.877,0,0,0,169.5-7.424ZM14.752,21.368V19h3.392V34.264a6.8,6.8,0,0,1-2.4,5.6A8.854,8.854,0,0,1,9.92,41.816q-5.536,0-7.584-3.872l2.976-1.728Q6.56,38.68,9.984,38.68a4.966,4.966,0,0,0,3.5-1.168,4.2,4.2,0,0,0,1.264-3.248V32.312A6.393,6.393,0,0,1,9.184,35.1a7.751,7.751,0,0,1-5.728-2.4A8.15,8.15,0,0,1,1.12,26.84a7.972,7.972,0,0,1,2.336-5.824,7.634,7.634,0,0,1,5.728-2.432A6.393,6.393,0,0,1,14.752,21.368ZM6.016,30.424a5.012,5.012,0,0,0,3.648,1.44,4.9,4.9,0,0,0,3.616-1.44,5.1,5.1,0,0,0,0-7.168,4.9,4.9,0,0,0-3.616-1.44,5.012,5.012,0,0,0-3.648,1.44,5.18,5.18,0,0,0,0,7.168Zm31.616-1.952H24.9a4.465,4.465,0,0,0,1.744,2.784,5.576,5.576,0,0,0,3.376.992,4.74,4.74,0,0,0,4.128-1.984l2.848,1.664a7.872,7.872,0,0,1-7.008,3.488,8.656,8.656,0,0,1-6.3-2.368A8.2,8.2,0,0,1,21.28,27a8.247,8.247,0,0,1,2.368-5.984,8.051,8.051,0,0,1,6.08-2.432,7.5,7.5,0,0,1,5.76,2.464,8.509,8.509,0,0,1,2.272,5.984A9.2,9.2,0,0,1,37.632,28.472ZM24.864,25.656h9.408a4.77,4.77,0,0,0-1.584-2.912A4.527,4.527,0,0,0,29.7,21.72a4.861,4.861,0,0,0-3.2,1.056A4.763,4.763,0,0,0,24.864,25.656ZM49.216,19v3.328H45.248v7.68a1.915,1.915,0,0,0,.448,1.424,2.009,2.009,0,0,0,1.328.48,21.873,21.873,0,0,0,2.192-.016V35q-3.968.48-5.7-.688t-1.728-4.3v-7.68H38.848V19h2.944V15.544l3.456-1.024V19Zm20.352-.416A7.547,7.547,0,0,1,75.2,21.048,8.268,8.268,0,0,1,77.536,27,8.308,8.308,0,0,1,75.2,32.984a7.527,7.527,0,0,1-5.632,2.432,6.553,6.553,0,0,1-5.6-2.688V41.4H60.512V19h3.456v2.3A6.474,6.474,0,0,1,69.568,18.584Zm-4.16,12.1a5.26,5.26,0,0,0,7.232,0A5.051,5.051,0,0,0,74.08,27a4.943,4.943,0,0,0-1.44-3.648,5.177,5.177,0,0,0-7.232,0A4.943,4.943,0,0,0,63.968,27,5.121,5.121,0,0,0,65.408,30.68Zm26.048-3.1V19h3.456V35H91.456V32.952a5.5,5.5,0,0,1-4.96,2.464,5.857,5.857,0,0,1-4.464-1.776,6.722,6.722,0,0,1-1.68-4.816V19h3.456v9.472a3.724,3.724,0,0,0,.96,2.752,3.546,3.546,0,0,0,2.624.96,3.869,3.869,0,0,0,2.976-1.168A4.877,4.877,0,0,0,91.456,27.576ZM108,18.584a7.527,7.527,0,0,1,5.632,2.432A8.308,8.308,0,0,1,115.968,27a8.308,8.308,0,0,1-2.336,5.984A7.527,7.527,0,0,1,108,35.416a6.474,6.474,0,0,1-5.6-2.72V35H98.944V12.6H102.4v8.672A6.553,6.553,0,0,1,108,18.584Zm-4.16,12.1a5.26,5.26,0,0,0,7.232,0,5.051,5.051,0,0,0,1.44-3.68,4.943,4.943,0,0,0-1.44-3.648,5.177,5.177,0,0,0-7.232,0A4.943,4.943,0,0,0,102.4,27,5.121,5.121,0,0,0,103.84,30.68ZM122.56,35H119.1V11.64h3.456Zm7.264-19.04a2.1,2.1,0,0,1-1.536.64,2.185,2.185,0,0,1-2.208-2.208,2.208,2.208,0,0,1,4.416,0A2.149,2.149,0,0,1,129.824,15.96ZM130.016,35H126.56V19h3.456Zm7.008-11.584a1.374,1.374,0,0,0,.768,1.2,9.457,9.457,0,0,0,2.24.88,18.916,18.916,0,0,1,1.952.544,9.383,9.383,0,0,1,1.76.848,3.846,3.846,0,0,1,1.424,1.472,4.15,4.15,0,0,1,.464,2.128A4.235,4.235,0,0,1,143.84,34.1a7.326,7.326,0,0,1-4.448,1.312,7.913,7.913,0,0,1-4.064-.992,5.818,5.818,0,0,1-2.464-2.752l2.976-1.728a3.362,3.362,0,0,0,3.552,2.3q2.72,0,2.72-1.792,0-1.312-3.04-2.048a19.306,19.306,0,0,1-1.936-.576A11.376,11.376,0,0,1,135.408,27a3.735,3.735,0,0,1-1.44-1.44,4,4,0,0,1-.464-2.08,4.34,4.34,0,0,1,1.664-3.552,6.539,6.539,0,0,1,4.192-1.344,7.042,7.042,0,0,1,3.536.88,5.987,5.987,0,0,1,2.384,2.448l-2.912,1.632a2.986,2.986,0,0,0-3.008-1.824,2.917,2.917,0,0,0-1.68.448A1.428,1.428,0,0,0,137.024,23.416ZM156.9,18.584a5.857,5.857,0,0,1,4.464,1.776,6.722,6.722,0,0,1,1.68,4.816V35h-3.456V25.528a3.724,3.724,0,0,0-.96-2.752,3.546,3.546,0,0,0-2.624-.96,3.869,3.869,0,0,0-2.976,1.168,4.877,4.877,0,0,0-1.088,3.44V35H148.48V12.6h3.456v8.448A5.5,5.5,0,0,1,156.9,18.584Zm25.312,9.888H169.472a4.465,4.465,0,0,0,1.744,2.784,5.576,5.576,0,0,0,3.376.992,4.74,4.74,0,0,0,4.128-1.984l2.848,1.664a7.872,7.872,0,0,1-7.008,3.488,8.656,8.656,0,0,1-6.3-2.368,8.2,8.2,0,0,1-2.4-6.048,8.247,8.247,0,0,1,2.368-5.984,8.051,8.051,0,0,1,6.08-2.432,7.5,7.5,0,0,1,5.76,2.464,8.509,8.509,0,0,1,2.272,5.984A9.2,9.2,0,0,1,182.208,28.472ZM169.44,25.656h9.408a4.77,4.77,0,0,0-1.584-2.912,4.527,4.527,0,0,0-2.992-1.024,4.861,4.861,0,0,0-3.2,1.056A4.763,4.763,0,0,0,169.44,25.656Zm28.512-4.384V12.6h3.456V35h-3.456V32.7a6.474,6.474,0,0,1-5.6,2.72,7.527,7.527,0,0,1-5.632-2.432A8.308,8.308,0,0,1,184.384,27a8.308,8.308,0,0,1,2.336-5.984,7.527,7.527,0,0,1,5.632-2.432A6.5,6.5,0,0,1,197.952,21.272ZM189.28,30.68a5.26,5.26,0,0,0,7.232,0,5.051,5.051,0,0,0,1.44-3.68,4.943,4.943,0,0,0-1.44-3.648,5.177,5.177,0,0,0-7.232,0A4.943,4.943,0,0,0,187.84,27,5.121,5.121,0,0,0,189.28,30.68Z" transform="translate(443.374 54)"/>
    </g>
  </g>
</svg>
