<?xml version="1.0" encoding="UTF-8"?>
<svg width="423px" height="110px" viewBox="0 0 423 110" version="1.1" xmlns="http://www.w3.org/2000/svg" xmlns:xlink="http://www.w3.org/1999/xlink">
    <!-- Generator: Sketch 53.2 (72643) - https://sketchapp.com -->
    <title>Group 11</title>
    <desc>Created with Sketch.</desc>
    <defs>
        <polygon id="path-1" points="0 110 422.195 110 422.195 0 0 0"></polygon>
    </defs>
    <g id="Page-1" stroke="none" stroke-width="1" fill="none" fill-rule="evenodd">
        <g id="Group-11">
            <path d="M15.6803,49.753 L45.7443,49.753 C44.8793,45.745 43.0923,42.758 40.3803,40.794 C37.6683,38.83 34.5823,37.845 31.1253,37.845 C27.0363,37.845 23.6573,38.888 20.9863,40.969 C18.3133,43.053 16.5443,45.981 15.6803,49.753 L15.6803,49.753 Z M15.9163,61.544 C17.9593,68.932 23.5003,72.626 32.5403,72.626 C38.3553,72.626 42.7573,70.662 45.7443,66.731 L58.0063,73.805 C52.1893,82.216 43.6223,86.42 32.3043,86.42 C22.5573,86.42 14.7373,83.473 8.8423,77.577 C2.9463,71.683 0.0003,64.255 0.0003,55.294 C0.0003,46.413 2.9073,39.006 8.7233,33.07 C14.5393,27.137 22.0073,24.169 31.1253,24.169 C39.7703,24.169 46.9033,27.157 52.5243,33.13 C58.1423,39.103 60.9543,46.493 60.9543,55.294 C60.9543,57.26 60.7573,59.344 60.3643,61.544 L15.9163,61.544 Z" id="Fill-1" fill="#113DCD"></path>
            <mask id="mask-2" fill="white">
                <use xlink:href="#path-1"></use>
            </mask>
            <g id="Clip-4"></g>
            <polygon id="Fill-3" fill="#113DCD" mask="url(#mask-2)" points="144.897 84.769 160.106 84.769 160.106 25.82 144.897 25.82"></polygon>
            <path d="M207.7354,40.44 L194.4144,40.44 L194.4144,64.962 C194.4144,67.007 194.9234,68.5 195.9464,69.443 C196.9664,70.386 198.4614,70.917 200.4254,71.034 C202.3904,71.151 204.8274,71.134 207.7354,70.976 L207.7354,84.77 C197.2814,85.949 189.9134,84.964 185.6304,81.821 C181.3454,78.679 179.2044,73.059 179.2044,64.962 L179.2044,40.44 L168.9464,40.44 L168.9464,25.82 L179.2044,25.82 L179.2044,13.913 L194.4144,9.313 L194.4144,25.82 L207.7354,25.82 L207.7354,40.44 Z" id="Fill-5" fill="#113DCD" mask="url(#mask-2)"></path>
            <path d="M376.9205,49.753 L406.9855,49.753 C406.1195,45.745 404.3325,42.758 401.6205,40.794 C398.9085,38.83 395.8235,37.845 392.3655,37.845 C388.2775,37.845 384.8975,38.888 382.2275,40.969 C379.5545,43.053 377.7845,45.981 376.9205,49.753 L376.9205,49.753 Z M377.1565,61.544 C379.2005,68.932 384.7415,72.626 393.7815,72.626 C399.5965,72.626 403.9975,70.662 406.9855,66.731 L419.2465,73.805 C413.4295,82.216 404.8635,86.42 393.5455,86.42 C383.7985,86.42 375.9785,83.473 370.0825,77.577 C364.1875,71.683 361.2395,64.255 361.2395,55.294 C361.2395,46.413 364.1475,39.006 369.9635,33.07 C375.7795,27.137 383.2475,24.169 392.3655,24.169 C401.0115,24.169 408.1435,27.157 413.7645,33.13 C419.3835,39.103 422.1945,46.493 422.1945,55.294 C422.1945,57.26 421.9975,59.344 421.6055,61.544 L377.1565,61.544 Z" id="Fill-6" fill="#113DCD" mask="url(#mask-2)"></path>
            <path d="M111.1783,67.2618 C108.1133,70.3668 104.2213,71.9188 99.5063,71.9188 C94.7913,71.9188 90.8803,70.3668 87.7763,67.2618 C84.6693,64.1578 83.1183,60.1698 83.1183,55.2938 C83.1183,50.4208 84.6693,46.4328 87.7763,43.3268 C90.8803,40.2228 94.7913,38.6708 99.5063,38.6708 C104.2213,38.6708 108.1133,40.2228 111.1783,43.3268 C114.2433,46.4328 115.7763,50.4208 115.7763,55.2938 C115.7763,60.1698 114.2433,64.1578 111.1783,67.2618 L111.1783,67.2618 Z M115.7763,6.8608 L115.7763,32.7748 C111.2973,27.0388 104.9303,24.1688 96.6773,24.1688 C88.7363,24.1688 81.9573,27.1758 76.3393,33.1888 C70.7183,39.2018 67.9093,46.5698 67.9093,55.2938 C67.9093,64.0188 70.7183,71.3868 76.3393,77.4008 C81.9573,83.4138 88.7363,86.4188 96.6773,86.4188 C104.9303,86.4188 111.2973,83.5518 115.7763,77.8128 L115.7763,84.7688 L130.9853,84.7688 L130.9853,2.2528 L115.7763,6.8608 Z" id="Fill-7" fill="#113DCD" mask="url(#mask-2)"></path>
            <path d="M256.8423,67.2618 C253.7353,70.3668 249.8253,71.9188 245.1103,71.9188 C240.3953,71.9188 236.5033,70.3668 233.4393,67.2618 C230.3733,64.1578 228.8403,60.1698 228.8403,55.2938 C228.8403,50.4208 230.3733,46.4328 233.4393,43.3268 C236.5033,40.2228 240.3953,38.6708 245.1103,38.6708 C249.8253,38.6708 253.7353,40.2228 256.8423,43.3268 C259.9463,46.4328 261.4983,50.4208 261.4983,55.2938 C261.4983,60.1698 259.9463,64.1578 256.8423,67.2618 L256.8423,67.2618 Z M261.4983,28.8248 L261.4983,32.7748 C256.9393,27.0388 250.5333,24.1688 242.2803,24.1688 C234.4203,24.1688 227.6803,27.1758 222.0603,33.1888 C216.4413,39.2018 213.6313,46.5698 213.6313,55.2938 C213.6313,64.0188 216.4413,71.3868 222.0603,77.4008 C227.6803,83.4138 234.4203,86.4188 242.2803,86.4188 C250.5333,86.4188 256.9393,83.5518 261.4983,77.8128 L261.4983,84.7688 L276.7073,84.7688 L276.7073,24.2168 L261.4983,28.8248 Z" id="Fill-8" fill="#113DCD" mask="url(#mask-2)"></path>
            <path d="M330.9986,65.964 C327.8926,68.99 323.9426,70.503 319.1496,70.503 C314.3546,70.503 310.4046,68.99 307.3016,65.964 C304.1936,62.94 302.6446,59.068 302.6446,54.351 C302.6446,49.714 304.1936,45.883 307.3016,42.857 C310.4046,39.831 314.3546,38.318 319.1496,38.318 C323.9426,38.318 327.8926,39.831 330.9986,42.857 C334.1026,45.883 335.6556,49.714 335.6556,54.351 C335.6556,59.068 334.1026,62.94 330.9986,65.964 L330.9986,65.964 Z M335.6556,28.709 L335.6556,33.13 C331.1756,27.156 324.8856,24.169 316.7916,24.169 C308.5386,24.169 301.5826,27.116 295.9246,33.011 C290.2646,38.907 287.4356,46.021 287.4356,54.351 C287.4356,62.762 290.2446,69.895 295.8636,75.749 C301.4836,81.607 308.4606,84.533 316.7916,84.533 C324.8856,84.533 331.1756,81.548 335.6556,75.573 L335.6556,81.94 C335.6556,86.577 334.2786,90.151 331.5286,92.669 C328.7766,95.183 325.0046,96.441 320.2106,96.441 C314.3516,96.441 309.9056,94.641 306.8246,91.107 L291.8186,95.654 C294.4126,100.35 298.1176,103.915 302.9386,106.345 C307.7716,108.781 313.3726,110 319.7396,110 C328.2276,110 335.4776,107.602 341.4916,102.808 C347.5046,98.012 350.5116,91.056 350.5116,81.94 L350.5116,24.209 L335.6556,28.709 Z" id="Fill-9" fill="#113DCD" mask="url(#mask-2)"></path>
            <path d="M152.4425,18.7452 C149.9255,18.7452 147.7445,17.8232 145.8985,15.9742 C144.0505,14.1302 143.1285,11.9482 143.1285,9.4322 C143.1285,6.9172 144.0505,4.7152 145.8985,2.8292 C147.7445,0.9432 149.9255,0.0002 152.4425,0.0002 C155.0355,0.0002 157.2555,0.9432 159.1025,2.8292 C160.9485,4.7152 161.8745,6.9172 161.8745,9.4322 C161.8745,11.9482 160.9485,14.1302 159.1025,15.9742 C157.2555,17.8232 155.0355,18.7452 152.4425,18.7452" id="Fill-10" fill="#FF0066" mask="url(#mask-2)"></path>
        </g>
    </g>
</svg>