<?xml version="1.0" encoding="utf-8"?>
<!-- Generator: Adobe Illustrator 26.2.1, SVG Export Plug-In . SVG Version: 6.00 Build 0)  -->
<svg version="1.1" id="Layer_1" xmlns="http://www.w3.org/2000/svg" xmlns:xlink="http://www.w3.org/1999/xlink" x="0px" y="0px"
	 viewBox="0 0 1632 340.3" style="enable-background:new 0 0 1632 340.3;" xml:space="preserve">
<style type="text/css">
	.st0{fill:#113DC6;}
	.st1{fill:#FF0066;}
	.st2{fill:url(#SVGID_1_);}
	.st3{fill:url(#SVGID_00000026147101441118901630000012385474533798616767_);}
	.st4{fill:url(#SVGID_00000016045239533446455170000012838722471095077285_);}
	.st5{fill:url(#SVGID_00000146475221006259939320000000310357307532273041_);}
	.st6{fill:url(#SVGID_00000157273170857952912450000003128057126700242824_);}
	.st7{fill:url(#SVGID_00000016777857240972789500000001777608684913076907_);}
</style>
<g>
	<g>
		<rect x="1196.7" y="5.3" width="3.3" height="313"/>
	</g>
	<g>
		<g>
			<path class="st0" d="M43.1,160.6c5.3,18.6,19.7,28,43.3,28c15.1,0,26.6-5,34.4-14.9l31.9,17.9c-15.1,21.2-37.4,31.8-66.9,31.8
				c-25.4,0-45.7-7.4-61.1-22.3s-23-33.6-23-56.2c0-22.4,7.6-41.1,22.7-56.1c15.1-15,34.6-22.5,58.3-22.5c22.5,0,41.1,7.5,55.7,22.6
				c14.6,15.1,22,33.7,22,55.9c0,5-0.5,10.2-1.5,15.8H43.1L43.1,160.6z M42.4,130.8h78.3c-2.2-10.1-6.9-17.7-14-22.6
				c-7.1-5-15.1-7.4-24.1-7.4c-10.6,0-19.4,2.6-26.4,7.9C49.3,113.9,44.7,121.3,42.4,130.8z"/>
			<path class="st0" d="M378.8,219.2V70.4h39.6v148.8H378.8z"/>
			<path class="st0" d="M542.4,107.3h-34.7v61.9c0,5.2,1.3,8.9,4,11.3c2.7,2.4,6.5,3.7,11.7,4c5.1,0.3,11.5,0.3,19-0.1v34.8
				c-27.2,3-46.4,0.5-57.5-7.4c-11.2-7.9-16.7-22.1-16.7-42.6v-61.9h-26.7V70.4h26.7V40.4l39.6-11.6v41.7h34.7L542.4,107.3
				L542.4,107.3z"/>
			<path class="st0" d="M983.4,160.6c5.3,18.6,19.7,28,43.3,28c15.1,0,26.6-5,34.4-14.9l31.9,17.9c-15.1,21.2-37.4,31.8-66.9,31.8
				c-25.4,0-45.7-7.4-61.1-22.3c-15.3-14.9-23-33.6-23-56.2c0-22.4,7.6-41.1,22.7-56.1c15.1-15,34.6-22.5,58.3-22.5
				c22.5,0,41.1,7.5,55.7,22.6c14.6,15.1,22,33.7,22,55.9c0,5-0.5,10.2-1.5,15.8H983.4L983.4,160.6z M982.7,130.8h78.3
				c-2.2-10.1-6.9-17.7-14-22.6c-7.1-5-15.1-7.4-24.1-7.4c-10.6,0-19.4,2.6-26.4,7.9C989.6,113.9,985,121.3,982.7,130.8z"/>
			<path class="st0" d="M303,22.6V88c-11.7-14.5-28.2-21.7-49.7-21.7c-20.7,0-38.3,7.6-52.9,22.8c-14.6,15.2-22,33.8-22,55.8
				s7.3,40.6,22,55.8c14.6,15.2,32.3,22.8,52.9,22.8c21.5,0,38.1-7.2,49.7-21.7v17.6h39.6V11L303,22.6z M291,175
				c-8,7.8-18.1,11.8-30.4,11.8c-12.3,0-22.5-3.9-30.5-11.8c-8.1-7.8-12.1-17.9-12.1-30.2c0-12.3,4-22.4,12.1-30.2
				c8.1-7.8,18.3-11.8,30.5-11.8c12.3,0,22.4,3.9,30.4,11.8c8,7.8,12,17.9,12,30.2C303,157.1,299,167.2,291,175z"/>
			<path class="st0" d="M682.3,78v10c-11.9-14.5-28.5-21.7-50-21.7c-20.5,0-38,7.6-52.6,22.8s-21.9,33.8-21.9,55.8
				s7.3,40.6,21.9,55.8c14.6,15.2,32.2,22.8,52.6,22.8c21.5,0,38.2-7.2,50-21.7v17.6h39.6V66.4L682.3,78z M670.2,175
				c-8.1,7.8-18.3,11.8-30.5,11.8c-12.3,0-22.4-3.9-30.4-11.8c-8-7.8-12-17.9-12-30.2c0-12.3,4-22.4,12-30.2
				c8-7.8,18.1-11.8,30.4-11.8s22.5,3.9,30.5,11.8c8.1,7.8,12.1,17.9,12.1,30.2C682.3,157.1,678.3,167.2,670.2,175z"/>
			<path class="st0" d="M875.3,77.7v11.2c-11.7-15.1-28-22.6-49.1-22.6c-21.5,0-39.6,7.4-54.3,22.3c-14.7,14.9-22.1,32.8-22.1,53.9
				c0,21.2,7.3,39.2,21.9,54c14.6,14.8,32.8,22.2,54.5,22.2c21.1,0,37.4-7.5,49.1-22.6v16.1c0,11.7-3.6,20.7-10.7,27.1
				c-7.2,6.3-17,9.5-29.5,9.5c-15.2,0-26.8-4.5-34.8-13.5l-39.1,11.5c6.7,11.9,16.4,20.9,28.9,27c12.6,6.1,27.2,9.2,43.7,9.2
				c22.1,0,41-6.1,56.6-18.2c15.7-12.1,23.5-29.7,23.5-52.7V66.4L875.3,77.7z M863.2,171.8c-8.1,7.6-18.4,11.5-30.8,11.5
				c-12.5,0-22.8-3.8-30.8-11.5s-12.1-17.4-12.1-29.3c0-11.7,4-21.4,12.1-29c8.1-7.6,18.4-11.5,30.8-11.5c12.5,0,22.8,3.8,30.8,11.5
				c8.1,7.6,12.1,17.3,12.1,29C875.3,154.4,871.3,164.1,863.2,171.8z"/>
			<path class="st1" d="M398.4,52.6c-6.6,0-12.2-2.3-17-7c-4.8-4.7-7.2-10.2-7.2-16.5c0-6.3,2.4-11.9,7.2-16.7
				c4.8-4.8,10.5-7.1,17-7.1c6.7,0,12.5,2.4,17.3,7.1c4.8,4.8,7.2,10.3,7.2,16.7c0,6.4-2.4,11.9-7.2,16.5
				C411,50.2,405.2,52.6,398.4,52.6z"/>
		</g>
		<g>
			<g>
				<path d="M50.7,294.7c0,13.3-10.4,23.5-23,23.5c-7.2,0-12.6-2.9-16.1-7.5V335h-10v-62.7h10v6.4c3.5-4.7,9-7.6,16.1-7.6
					C40.3,271.2,50.7,281.5,50.7,294.7z M40.8,294.7c0-8.3-6.3-14.3-14.6-14.3c-8.3,0-14.6,6-14.6,14.3c0,8.3,6.3,14.3,14.6,14.3
					C34.5,309,40.8,303,40.8,294.7z"/>
				<path d="M100.8,272.4v44.8h-10v-5.7c-3.1,4.7-8,6.9-14.3,6.9c-10.3,0-17.7-6.8-17.7-18.4v-27.5h10v26.5
					c0,6.8,4.1,10.4,10.3,10.4c6.6,0,11.7-3.8,11.7-12.9v-24H100.8L100.8,272.4z"/>
				<path d="M161.6,294.7c0,13.3-10.4,23.5-23,23.5c-7.2,0-12.6-2.9-16.1-7.6v6.4h-10v-62.7h10v24.3c3.5-4.7,9-7.5,16.1-7.5
					C151.1,271.2,161.6,281.4,161.6,294.7z M151.6,294.7c0-8.3-6.3-14.3-14.6-14.3c-8.3,0-14.6,6-14.6,14.3
					c0,8.3,6.3,14.3,14.6,14.3S151.6,303,151.6,294.7z"/>
				<path d="M170.6,251.8h10v65.3h-10V251.8z"/>
				<path d="M190.7,259.5c0-3.4,2.9-6.2,6.4-6.2c3.5,0,6.4,2.8,6.4,6.2c0,3.3-2.9,6.2-6.4,6.2C193.6,265.6,190.7,262.8,190.7,259.5z
					 M192.1,272.4h10v44.8h-10V272.4z"/>
				<path d="M247.1,304.5c0,8.9-8,13.8-18,13.8c-9.2,0-15.9-4-18.8-10.5l8.6-4.8c1.5,4,5.2,6.4,10.2,6.4c4.4,0,7.8-1.4,7.8-5
					c0-8-24.8-3.5-24.8-19.5c0-8.4,7.5-13.7,16.9-13.7c7.6,0,13.8,3.4,17.1,9.3l-8.4,4.6c-1.7-3.5-4.9-5.1-8.7-5.1
					c-3.6,0-6.7,1.5-6.7,4.7C222.3,292.8,247.1,287.9,247.1,304.5z"/>
				<path d="M297.3,289.6v27.5h-10v-26.5c0-6.8-4.1-10.4-10.3-10.4c-6.6,0-11.7,3.8-11.7,12.9v24h-10v-62.7h10v23.6
					c3.1-4.7,8-6.9,14.3-6.9C290,271.2,297.3,278,297.3,289.6z"/>
			</g>
			<path d="M379,318.5l-6.2-6.4c-4.6,3.6-10.5,5.9-18,5.9c-12.9,0-22.2-6.9-22.2-18.4c0-7.3,3.9-14.1,11.3-18
				c-2.2-3-3.7-6.4-3.7-10.9c0-10.7,8.8-17.7,19.7-17.7c8.7,0,16.4,4.6,19.9,13.1l-9,5c-1.8-5-5.7-8.1-10.8-8.1s-9.1,3.1-9.1,8
				c0,4,2.5,6.8,5.5,10l15.7,16.5c1.6-3,2.7-6.7,3.3-10.9l9,5c-1,4.6-2.8,9.2-5.4,13.3l8.4,8.9L379,318.5z M366.1,305.1l-15.9-16.6
				c-5,2.4-6.8,6.5-6.8,10.3c0,5.7,4.3,9.6,12,9.6C359.7,308.4,363.2,307.3,366.1,305.1z"/>
			<g>
				<path d="M465.3,254.9v62.2h-10v-55.2c-1.5-0.1-3-0.1-4.4-0.1c-7,0-10.9,2.8-10.9,9.7v0.9h8.6v9.3H440v35.5h-10v-35.5h-7v-9.3h7
					v-0.9c0-12.1,7-18.2,20.9-18.2C456,253.3,460.5,253.9,465.3,254.9z"/>
				<path d="M474.2,294.7c0-13.3,10.9-23.5,24.4-23.5c13.6,0,24.4,10.2,24.4,23.5c0,13.3-10.8,23.5-24.4,23.5
					C485.1,318.3,474.2,308,474.2,294.7z M513,294.7c0-8.1-6.3-14.1-14.4-14.1s-14.4,6-14.4,14.1c0,8.1,6.3,14.1,14.4,14.1
					C506.7,308.9,513,302.9,513,294.7z"/>
				<path d="M573.1,272.4v44.8h-10v-5.7c-3.1,4.7-8,6.9-14.3,6.9c-10.3,0-17.7-6.8-17.7-18.4v-27.5h10v26.5
					c0,6.8,4.1,10.4,10.3,10.4c6.6,0,11.7-3.8,11.7-12.9v-24H573.1L573.1,272.4z"/>
				<path d="M608.9,271.6V282c-6.6-0.4-14.2,2.5-14.2,12.5v22.6h-10v-44.8h10v7.5C597.4,273.8,603.1,271.6,608.9,271.6z"/>
				<path d="M614.9,259.5c0-3.4,2.9-6.2,6.4-6.2c3.5,0,6.4,2.8,6.4,6.2c0,3.3-2.9,6.2-6.4,6.2C617.7,265.6,614.9,262.8,614.9,259.5z
					 M616.3,272.4h10v44.8h-10V272.4z"/>
				<path d="M671.3,304.5c0,8.9-8,13.8-18,13.8c-9.2,0-15.9-4-18.8-10.5l8.6-4.8c1.5,4,5.2,6.4,10.2,6.4c4.4,0,7.8-1.4,7.8-5
					c0-8-24.8-3.5-24.8-19.5c0-8.4,7.5-13.7,16.9-13.7c7.6,0,13.8,3.4,17.1,9.3l-8.4,4.6c-1.7-3.5-4.9-5.1-8.7-5.1
					c-3.6,0-6.7,1.5-6.7,4.7C646.4,292.8,671.3,287.9,671.3,304.5z"/>
				<path d="M721.5,289.6v27.5h-10v-26.5c0-6.8-4.1-10.4-10.3-10.4c-6.6,0-11.7,3.8-11.7,12.9v24h-10v-62.7h10v23.6
					c3.1-4.7,8-6.9,14.3-6.9C714.1,271.2,721.5,278,721.5,289.6z"/>
			</g>
		</g>
	</g>
	<g>
		<g>
			<g>
				
					<linearGradient id="SVGID_1_" gradientUnits="userSpaceOnUse" x1="1553.4331" y1="122.981" x2="1553.4331" y2="-36.4438" gradientTransform="matrix(1 0 0 1 0 60.2957)">
					<stop  offset="0" style="stop-color:#AD7B3A"/>
					<stop  offset="0.6685" style="stop-color:#CC9537"/>
					<stop  offset="1" style="stop-color:#DDA435"/>
				</linearGradient>
				<path class="st2" d="M1630.4,114.6c0,14.6-1,27.6-2.9,39.2c-0.5,2.8-1,5.5-1.6,8.1c-5.6,19.1-23.8,33.2-45.3,33.2
					c-18.6,0-34.6-10.4-42.3-25.6c3.1,5.4,7.5,8.1,13.1,8.1c7.4,0,12.6-4.7,15.6-13.9c3-9.3,4.6-25.7,4.6-49.1c0-3.5,0-6.8-0.1-10.1
					c-0.4-18.2-1.9-31.4-4.5-39.4c-1-2.9-2.2-5.4-3.5-7.5c0,0,0-0.1-0.1-0.1c0-0.1-0.1-0.1-0.1-0.2c0,0,0,0,0,0
					c-8.1-13.9-23.4-23.2-41-23.2c-22,0-40.4,14.6-45.6,34.3c3.2-15.2,8.3-27.5,15.2-36.9c13-17.6,32.8-26.4,59.6-26.4
					c26,0,45.7,9.2,59.1,27.5C1623.7,51,1630.4,78.3,1630.4,114.6z"/>
				
					<linearGradient id="SVGID_00000171686723772602182020000016603490961611901339_" gradientUnits="userSpaceOnUse" x1="1549.0662" y1="98.9871" x2="1549.0662" y2="-60.0753" gradientTransform="matrix(1 0 0 1 0 60.2957)">
					<stop  offset="0" style="stop-color:#DDA435"/>
					<stop  offset="0.1669" style="stop-color:#DAA035"/>
					<stop  offset="0.3291" style="stop-color:#D19435"/>
					<stop  offset="0.4895" style="stop-color:#C38135"/>
					<stop  offset="0.6487" style="stop-color:#AE6536"/>
					<stop  offset="0.8072" style="stop-color:#944236"/>
					<stop  offset="0.963" style="stop-color:#741737"/>
					<stop  offset="1" style="stop-color:#6C0C37"/>
				</linearGradient>
				<path style="fill:url(#SVGID_00000171686723772602182020000016603490961611901339_);" d="M1625.8,162
					c-3.2,14.4-8.2,26.2-14.9,35.2c-13,17.5-32.8,26.2-59.6,26.2c-26.1,0-45.9-9.1-59.1-27.4c-13.3-18.2-19.9-45.4-19.9-81.4
					c0-15.3,1.1-28.9,3.2-40.8c0-0.1,0-0.1,0-0.2c0.3-1.6,0.6-3.2,0.9-4.8c0-0.1,0-0.3,0.1-0.4c5.2-19.7,23.7-34.3,45.6-34.3
					c17.6,0,32.9,9.4,41,23.2c0,0-5.5-5.5-9.2-6.2c-0.9-0.1-1.7-0.3-2.7-0.2c-7.2,0.1-12.4,4.6-15.6,13.7
					c-3.2,9.3-4.6,25.8-4.6,49.9c0,3.5,0,6.9,0.1,10.1c0.4,18.6,1.9,31.7,4.5,39.4c0.7,1.9,1.4,3.6,2.3,5.1c0,0.1,0.1,0.2,0.1,0.3
					c7.7,15.2,23.7,25.6,42.3,25.6C1602.1,195.1,1620.2,181.1,1625.8,162z"/>
			</g>
			
				<linearGradient id="SVGID_00000054251007247094025980000010313152249716797835_" gradientUnits="userSpaceOnUse" x1="1321.6185" y1="-12.8642" x2="1416.0548" y2="-12.8642" gradientTransform="matrix(1 0 0 1 0 60.2957)">
				<stop  offset="0" style="stop-color:#DDA435"/>
				<stop  offset="0.1669" style="stop-color:#DAA035"/>
				<stop  offset="0.3291" style="stop-color:#D19435"/>
				<stop  offset="0.4895" style="stop-color:#C38135"/>
				<stop  offset="0.6487" style="stop-color:#AE6536"/>
				<stop  offset="0.8072" style="stop-color:#944236"/>
				<stop  offset="0.963" style="stop-color:#741737"/>
				<stop  offset="1" style="stop-color:#6C0C37"/>
			</linearGradient>
			<path style="fill:url(#SVGID_00000054251007247094025980000010313152249716797835_);" d="M1393.1,83.2c1.4-3.5,2-7.3,2-11.1
				c0-5.6-2-9.7-5.6-13.2c-3.5-3.4-9-4.5-15.8-4.8c-6.9-0.3-14,1.9-21.2,5.8c-2.1,1.1-4.2,2.4-6.4,3.8c-10.8,6.9-25.2,5-33.6-4.6
				c-4.2-4.7-6.1-10.5-6.1-16.2c0-7.9,3.8-15.6,11.1-20.5c2.4-1.6,4.6-2.9,6.8-4.1c4.5-2.5,9.2-4.6,14.1-6.4c1.9-0.2,4-0.3,6-0.3
				c29.3,0,53,23,53,51.4C1397.4,70.2,1395.9,77,1393.1,83.2z"/>
			
				<linearGradient id="SVGID_00000013876799764872815680000003555025376913550218_" gradientUnits="userSpaceOnUse" x1="1376.2552" y1="160.2272" x2="1376.2552" y2="61.6381" gradientTransform="matrix(1 0 0 1 0 60.2957)">
				<stop  offset="0" style="stop-color:#AD7B3A"/>
				<stop  offset="0.6685" style="stop-color:#CC9537"/>
				<stop  offset="1" style="stop-color:#DDA435"/>
			</linearGradient>
			<path style="fill:url(#SVGID_00000013876799764872815680000003555025376913550218_);" d="M1445.3,33.5c-6.2-9.1-15-16.1-26.2-21
				c-11.3-4.9-24.1-7.4-38.5-7.4c-11.4,0-21.7,1.1-30.9,3.4c-3.9,1-7.7,2.1-11.3,3.4c1.9-0.2,4-0.3,6-0.3c29.3,0,53,23,53,51.4
				c0,7.2-1.5,14-4.3,20.2c-0.2,0.6-0.5,1.2-0.8,1.8c-1.9,4.1-5.2,9.1-9.9,14.8c-4.8,5.7-14.9,16.5-30.3,32.2l-46.1,45.2
				c-2.6,2.5-4.6,5.5-6,8.7c-1.4,3.2-2.1,6.8-2.1,10.3c0,15,12.5,27.1,28,27.1h68.3c-16.1,0-29.1-12.6-29.1-28.2
				c0-8.4,3.8-16,9.9-21.2v0c24.6-21.4,40.6-35.9,48.2-43.5c7.5-7.6,13.6-14.9,18.1-21.9c4.6-6.9,7.9-14,10.1-21.1
				c2.2-7.2,3.3-15,3.3-23.4C1454.6,52.7,1451.5,42.6,1445.3,33.5z"/>
			
				<linearGradient id="SVGID_00000168094304064671851940000007088468000394224026_" gradientUnits="userSpaceOnUse" x1="1424.196" y1="147.4274" x2="1352.7277" y2="114.3785" gradientTransform="matrix(1 0 0 1 0 60.2957)">
				<stop  offset="0" style="stop-color:#DDA434"/>
				<stop  offset="0.1669" style="stop-color:#DAA034"/>
				<stop  offset="0.3291" style="stop-color:#D19434"/>
				<stop  offset="0.4895" style="stop-color:#C38135"/>
				<stop  offset="0.6487" style="stop-color:#AE6535"/>
				<stop  offset="0.8072" style="stop-color:#944236"/>
				<stop  offset="0.963" style="stop-color:#741737"/>
				<stop  offset="1" style="stop-color:#6C0C37"/>
			</linearGradient>
			<path style="fill:url(#SVGID_00000168094304064671851940000007088468000394224026_);" d="M1375,175.4v-1.5
				c-6.1,5.2-9.9,12.8-9.9,21.2c0,15.6,13,28.2,29.1,28.2h30.6v-48H1375z"/>
			
				<linearGradient id="SVGID_00000082347540317635206690000018215897594229890964_" gradientUnits="userSpaceOnUse" x1="1473.3093" y1="146.7832" x2="1429.7129" y2="120.6252" gradientTransform="matrix(1 0 0 1 0 60.2957)">
				<stop  offset="0" style="stop-color:#AD7B3A"/>
				<stop  offset="0.6685" style="stop-color:#CC9537"/>
				<stop  offset="1" style="stop-color:#DDA435"/>
			</linearGradient>
			<path style="fill:url(#SVGID_00000082347540317635206690000018215897594229890964_);" d="M1424.7,223.4l45.5-44.1
				c1.3-1.3,1.3-3.4,0-4.7l-39.6-38.4c-2.2-2.1-5.9-0.6-5.9,2.4L1424.7,223.4L1424.7,223.4L1424.7,223.4z"/>
		</g>
		<g>
			<g>
				<path d="M1386.5,272.3l-17.8,46.3c-4.3,11.4-11.9,17.1-22.6,16.5V326c6.5,0.4,10-2.9,12.3-8.8l0.5-0.9l-19.6-44.1h10.9
					l13.8,32.6l11.8-32.6H1386.5L1386.5,272.3z"/>
				<path d="M1419.2,309.4c5.6,0,9.7-2.4,11.9-5.6l8.2,4.7c-4.3,6.1-11.2,9.8-20.3,9.8c-15.3,0-25.2-10.1-25.2-23.6
					c0-13.3,9.9-23.6,24.4-23.6c13.8,0,23.2,10.8,23.2,23.7c0,1.3-0.2,2.8-0.4,4h-36.8C1406,305.8,1411.8,309.4,1419.2,309.4z
					 M1431.5,290.9c-1.4-7.7-7.2-11-13.2-11c-7.5,0-12.6,4.3-14,11H1431.5z"/>
				<path d="M1502.3,272.3v44.9h-10v-6.5c-3.5,4.8-9,7.6-16.2,7.6c-12.6,0-23-10.3-23-23.6c0-13.4,10.5-23.6,23-23.6
					c7.2,0,12.7,2.9,16.2,7.5v-6.4L1502.3,272.3L1502.3,272.3z M1492.3,294.7c0-8.4-6.3-14.4-14.6-14.4c-8.3,0-14.6,6-14.6,14.4
					c0,8.4,6.3,14.4,14.6,14.4C1486,309.1,1492.3,303.1,1492.3,294.7z"/>
				<path d="M1543.7,271.5V282c-6.6-0.4-14.3,2.5-14.3,12.6v22.6h-10v-44.9h10v7.5C1532.3,273.7,1537.9,271.5,1543.7,271.5z"/>
				<path d="M1588.9,304.5c0,9-8.1,13.8-18,13.8c-9.3,0-15.9-4-18.9-10.5l8.6-4.8c1.5,4,5.2,6.5,10.3,6.5c4.4,0,7.9-1.4,7.9-5
					c0-8-24.9-3.5-24.9-19.6c0-8.4,7.5-13.7,16.9-13.7c7.6,0,13.9,3.4,17.1,9.3l-8.4,4.6c-1.7-3.5-4.9-5.1-8.7-5.1
					c-3.6,0-6.8,1.5-6.8,4.8C1564,292.8,1588.9,287.9,1588.9,304.5z"/>
			</g>
		</g>
	</g>
</g>
</svg>
