<?xml version="1.0" encoding="UTF-8"?>
<svg width="117px" height="31px" viewBox="0 0 117 31" version="1.1" xmlns="http://www.w3.org/2000/svg" xmlns:xlink="http://www.w3.org/1999/xlink">
    <title>Group 4 Copy</title>
    <g id="Explorations" stroke="none" stroke-width="1" fill="none" fill-rule="evenodd">
        <g id="Artboard-Full-Screen" transform="translate(-81.000000, -98.000000)">
            <g id="Group-4-Copy" transform="translate(81.000000, 98.000000)">
                <path d="M8.5488,24.4368 C11.544,24.4368 13.8216,23.3136 15.3504,21.0984 L12.1056,19.2264 C11.3256,20.256 10.14,20.7864 8.6112,20.7864 C6.2088,20.7864 4.7424,19.8192 4.212,17.8536 L15.9744,17.8536 C16.068,17.2608 16.1304,16.7304 16.1304,16.2 C16.1304,13.86 15.3816,11.9256 13.884,10.3344 C12.4176,8.7432 10.5144,7.9632 8.2368,7.9632 C5.8344,7.9632 3.8376,8.7432 2.3088,10.3344 C0.78,11.8944 0,13.86 0,16.2 C0,18.5712 0.78,20.5368 2.34,22.0968 C3.9,23.6568 5.9592,24.4368 8.5488,24.4368 Z M12.1056,14.7336 L4.1496,14.7336 C4.6176,12.7368 6.084,11.5824 8.2368,11.5824 C10.0776,11.5824 11.6376,12.612 12.1056,14.7336 Z M26.304,24.4368 C28.488,24.4368 30.1728,23.688 31.3584,22.1592 L31.3584,24 L35.3832,24 L35.3832,2.16 L31.3584,2.16 L31.3584,10.2408 C30.1728,8.712 28.488,7.9632 26.304,7.9632 C24.2136,7.9632 22.404,8.7744 20.9064,10.3656 C19.44,11.9568 18.6912,13.8912 18.6912,16.2 C18.6912,18.5088 19.44,20.4744 20.9064,22.0656 C22.404,23.6568 24.2136,24.4368 26.304,24.4368 Z M27.0528,20.5992 C25.8048,20.5992 24.7752,20.1936 23.9328,19.3824 C23.1216,18.54 22.716,17.4792 22.716,16.2 C22.716,14.9208 23.1216,13.86 23.9328,13.0488 C24.7752,12.2064 25.8048,11.8008 27.0528,11.8008 C28.3008,11.8008 29.3304,12.2064 30.1416,13.0488 C30.9528,13.86 31.3584,14.9208 31.3584,16.2 C31.3584,17.4792 30.9528,18.54 30.1416,19.3824 C29.3304,20.1936 28.3008,20.5992 27.0528,20.5992 Z M43.8096,24 L43.8096,8.4 L39.7848,8.4 L39.7848,24 L43.8096,24 Z M57.1344,24 L57.1344,20.3496 C54.8256,20.4744 53.6088,20.4432 53.6088,18.7584 L53.6088,12.2688 L57.1344,12.2688 L57.1344,8.4 L53.6088,8.4 L53.6088,4.032 L49.584,5.2488 L49.584,8.4 L46.8696,8.4 L46.8696,12.2688 L49.584,12.2688 L49.584,18.7584 C49.584,23.0328 51.612,24.624 57.1344,24 Z M66.996,24.4368 C69.18,24.4368 70.8648,23.688 72.0816,22.1592 L72.0816,24 L76.1064,24 L76.1064,8.4 L72.0816,8.4 L72.0816,10.2408 C70.8648,8.712 69.18,7.9632 66.996,7.9632 C64.9056,7.9632 63.1272,8.7744 61.6296,10.3656 C60.1632,11.9568 59.4144,13.8912 59.4144,16.2 C59.4144,18.5088 60.1632,20.4744 61.6296,22.0656 C63.1272,23.6568 64.9056,24.4368 66.996,24.4368 Z M67.7448,20.5992 C66.4968,20.5992 65.4672,20.1936 64.656,19.3824 C63.8448,18.54 63.4392,17.4792 63.4392,16.2 C63.4392,14.9208 63.8448,13.86 64.656,13.0488 C65.4672,12.2064 66.4968,11.8008 67.7448,11.8008 C68.9928,11.8008 70.0224,12.2064 70.8336,13.0488 C71.676,13.86 72.0816,14.9208 72.0816,16.2 C72.0816,17.4792 71.676,18.54 70.8336,19.3824 C70.0224,20.1936 68.9928,20.5992 67.7448,20.5992 Z M88.2144,30.6768 C90.4608,30.6768 92.364,30.0528 93.9552,28.7736 C95.5464,27.4944 96.3576,25.6536 96.3576,23.2512 L96.3576,8.4 L92.4264,8.4 L92.4264,10.3344 C91.2408,8.7432 89.5872,7.9632 87.4344,7.9632 C85.2504,7.9632 83.4096,8.7432 81.912,10.3032 C80.4144,11.8632 79.6656,13.7352 79.6656,15.9504 C79.6656,18.1656 80.4144,20.0688 81.8808,21.6288 C83.3784,23.1576 85.2192,23.9376 87.4344,23.9376 C89.5872,23.9376 91.2408,23.1576 92.4264,21.5664 L92.4264,23.2512 C92.4264,25.716 90.8664,27.0888 88.3392,27.0888 C86.4048,27.0888 85.032,26.3712 84.252,24.9048 L80.82,26.8704 C82.1928,29.3664 84.8448,30.6768 88.2144,30.6768 Z M88.0584,20.2248 C85.5312,20.2248 83.6904,18.4464 83.6904,15.9504 C83.6904,14.7336 84.096,13.704 84.9072,12.924 C85.7496,12.1128 86.7792,11.7072 88.0584,11.7072 C89.3376,11.7072 90.3672,12.1128 91.1784,12.924 C92.0208,13.704 92.4264,14.7336 92.4264,15.9504 C92.4264,18.4464 90.5856,20.2248 88.0584,20.2248 Z M108.4656,24.4368 C111.4608,24.4368 113.7384,23.3136 115.2672,21.0984 L112.0224,19.2264 C111.2424,20.256 110.0568,20.7864 108.528,20.7864 C106.1256,20.7864 104.6592,19.8192 104.1288,17.8536 L115.8912,17.8536 C115.9848,17.2608 116.0472,16.7304 116.0472,16.2 C116.0472,13.86 115.2984,11.9256 113.8008,10.3344 C112.3344,8.7432 110.4312,7.9632 108.1536,7.9632 C105.7512,7.9632 103.7544,8.7432 102.2256,10.3344 C100.6968,11.8944 99.9168,13.86 99.9168,16.2 C99.9168,18.5712 100.6968,20.5368 102.2568,22.0968 C103.8168,23.6568 105.876,24.4368 108.4656,24.4368 Z M112.0224,14.7336 L104.0664,14.7336 C104.5344,12.7368 106.0008,11.5824 108.1536,11.5824 C109.9944,11.5824 111.5544,12.612 112.0224,14.7336 Z" id="editage" fill="#FFFFFF" fill-rule="nonzero"></path>
                <circle id="Oval" fill="#FF0066" cx="42.1704" cy="2.4" r="2.4"></circle>
            </g>
        </g>
    </g>
</svg>