<svg width="296" height="107" viewBox="0 0 296 107" fill="none" xmlns="http://www.w3.org/2000/svg">
<path d="M87.8441 87.8826C88.1346 88.6311 88.1104 90.7252 87.7351 91.6481C87.4688 92.2971 88.0257 91.8599 88.0257 91.8599C91.5357 88.0944 87.1178 83.6807 86.9242 83.6557C86.7547 83.6308 87.1784 85.2642 86.1617 87.5458C85.1449 89.8406 86.5853 92.4086 87.0331 91.9101C87.9772 90.8749 87.8441 87.8698 87.8441 87.8698V87.8826ZM83.8741 78.319C83.7168 78.2566 83.8378 79.8526 82.5064 81.7853C81.175 83.718 82.1433 86.374 82.6395 85.9999C83.6925 85.2143 84.0073 82.3963 84.0073 82.3963C84.1404 83.1445 83.7652 85.0647 83.2568 85.8627C82.8937 86.4238 83.4868 86.1246 83.4868 86.1246C87.3841 83.2941 84.0556 78.4062 83.8741 78.3315V78.319ZM79.9767 80.501C83.8499 77.8078 80.6908 72.9449 80.5214 72.8825C80.3761 72.8202 80.4488 74.3912 79.1052 76.2491C77.7618 78.107 78.6574 80.6507 79.1536 80.2891C80.1946 79.541 80.5577 76.8725 80.5577 76.8725C80.6666 77.6082 80.2672 79.4911 79.7468 80.2516C79.3837 80.7879 79.9767 80.5135 79.9767 80.5135V80.501ZM77.0476 73.269C81.2597 71.5109 79.2021 66.2365 79.0447 66.1368C78.9116 66.0495 78.6937 67.5582 77.0476 69.0421C75.4016 70.5383 75.7283 73.1693 76.273 72.9324C77.4107 72.4336 78.3186 69.9399 78.3186 69.9399C78.2822 70.663 77.5318 72.3712 76.8903 72.9822C76.4425 73.4187 77.0598 73.269 77.0598 73.269H77.0476ZM75.0868 66.6604C74.6148 67.0719 75.2321 66.9598 75.2321 66.9598C79.5289 65.4261 77.7497 60.0519 77.6044 59.9397C77.4834 59.8399 77.1687 61.3362 75.4621 62.7328C73.7433 64.1293 73.9249 66.7851 74.4817 66.5732C75.6437 66.1368 76.6724 63.6928 76.6724 63.6928C76.5998 64.4161 75.7526 66.0745 75.0868 66.648V66.6604ZM73.3923 60.4758C72.9082 60.8374 73.5134 60.7751 73.5134 60.7751C77.7739 59.6155 76.4304 54.2913 76.2973 54.1666C76.1762 54.0668 75.7768 55.4758 74.0217 56.6977C72.2667 57.9198 72.2546 60.4883 72.7993 60.3387C73.9612 60.0021 75.1232 57.7202 75.1232 57.7202C75.0021 58.4185 74.0701 59.9521 73.3803 60.4634L73.3923 60.4758ZM72.3878 52.795C71.8552 53.0693 72.4604 53.1066 72.4604 53.1066C76.7693 52.6952 76.2973 47.3086 76.1883 47.1714C76.0915 47.0593 75.4863 48.356 73.586 49.2538C71.6858 50.139 71.2863 52.6329 71.831 52.5705C73.005 52.4458 74.4938 50.4259 74.4938 50.4259C74.2638 51.0743 73.1261 52.4084 72.3757 52.795H72.3878ZM72.6419 46.523C72.1215 46.7849 72.7146 46.8348 72.7146 46.8348C76.9629 46.4732 76.5514 41.1489 76.4425 41.0118C76.3456 40.8871 75.7404 42.1714 73.8644 43.0442C71.9883 43.9045 71.5647 46.3609 72.1094 46.3111C73.2713 46.1989 74.7601 44.2163 74.7601 44.2163C74.5301 44.8522 73.3923 46.1615 72.654 46.5355L72.6419 46.523ZM72.0367 40.0641C73.1745 40.0891 74.8569 38.3434 74.8569 38.3434C74.5664 38.9419 73.3076 40.0766 72.5451 40.3509C72.0004 40.5379 72.5693 40.6502 72.5693 40.6502C76.7572 40.8122 76.9629 35.5878 76.8661 35.4381C76.7935 35.3135 76.043 36.4855 74.1186 37.0965C72.1941 37.7075 71.4921 40.0516 72.0367 40.0641ZM73.9854 32.8695C73.4165 32.9568 73.9612 33.1812 73.9612 33.1812C78.0523 34.1039 79.1537 28.9917 79.0932 28.8296C79.0447 28.6924 78.1128 29.7148 76.1036 29.9642C74.1065 30.2136 73.0171 32.3957 73.5497 32.5079C74.6632 32.7448 76.6119 31.3358 76.6119 31.3358C76.2246 31.872 74.7842 32.7573 73.9854 32.882V32.8695ZM76.3093 26.261C77.2655 26.4604 78.9358 25.251 78.9358 25.251C78.5969 25.7123 77.3744 26.4604 76.6966 26.5727C76.2125 26.6475 76.6846 26.8345 76.6846 26.8345C80.1825 27.62 81.1265 23.2559 81.0782 23.1063C81.0297 22.994 80.2309 23.8669 78.5243 24.0789C76.8056 24.2908 75.8857 26.1612 76.3335 26.2485L76.3093 26.261ZM79.0569 21.2609C78.5364 21.3232 79.0327 21.5352 79.0327 21.5352C82.7364 22.5203 83.9104 17.8943 83.862 17.7446C83.8136 17.62 82.93 18.5177 81.1023 18.6798C79.2626 18.8419 78.1975 20.787 78.6817 20.9117C79.6983 21.1611 81.5139 19.9517 81.5139 19.9517C81.1387 20.4255 79.7952 21.186 79.069 21.2733L79.0569 21.2609ZM86.1253 11.9216C86.0164 11.8219 81.6712 11.4603 81.3686 15.1511C81.3686 15.1511 81.4049 15.6623 81.6228 15.2134C81.9254 14.5775 82.9905 13.5925 83.5231 13.393C83.5231 13.393 81.9133 14.6773 81.8043 15.6873C81.7559 16.1611 83.7652 15.7995 84.4793 14.166C85.1813 12.5451 86.2343 12.0089 86.1375 11.9341L86.1253 11.9216ZM81.2113 88.6557C78.8753 89.3668 77.3624 88.7059 77.3624 88.8803C77.3624 89.0921 80.9934 94.2169 85.0965 91.1624C85.0965 91.1624 85.5928 90.6512 84.9271 90.8256C83.9831 91.0875 81.9738 90.8128 81.2839 90.4139C81.2839 90.4139 84.1525 90.9625 85.2781 90.1519C85.8107 89.7657 83.5352 87.9327 81.1992 88.6557H81.2113ZM80.7877 85.0523C80.7877 85.0523 81.2718 84.5784 80.6303 84.7405C79.7346 84.965 77.8586 84.6782 77.2171 84.2917C77.2171 84.2917 79.892 84.94 80.9692 84.1919C81.4775 83.8427 79.3837 81.9973 77.1687 82.6333C74.9537 83.2692 73.5376 82.6083 73.5376 82.7829C73.5376 82.9824 76.8661 87.8698 80.7756 85.0647L80.7877 85.0523ZM77.1566 78.8552C77.1566 78.8552 77.6892 78.4811 77.0598 78.5309C76.1641 78.5933 74.3849 78.0073 73.8281 77.5209C73.8281 77.5209 76.2367 78.5559 77.3987 78.0197C77.9433 77.7579 76.2851 75.6631 74.0459 75.9125C71.8068 76.1494 70.548 75.289 70.5117 75.4511C70.4875 75.6382 72.9203 80.925 77.1566 78.8676V78.8552ZM74.3849 71.673C74.3849 71.673 74.9537 71.3862 74.3365 71.3363C73.465 71.274 71.831 70.4635 71.3589 69.9274C71.3589 69.9274 73.5981 71.2615 74.7842 70.8999C75.3411 70.7254 73.9734 68.4809 71.7826 68.4062C69.5918 68.3313 68.4904 67.3213 68.442 67.471C68.3936 67.658 70.0518 73.0695 74.3849 71.673ZM72.3393 65.0271C72.3393 65.0271 72.9203 64.7901 72.3151 64.6904C71.4437 64.5532 69.8944 63.6056 69.4587 63.032C69.4587 63.032 71.5889 64.5408 72.7993 64.2789C73.3682 64.1542 72.182 61.7976 70.0033 61.5482C67.8247 61.2864 66.808 60.189 66.7475 60.3387C66.6749 60.5133 67.9094 66.0495 72.3514 65.0271H72.3393ZM71.2258 58.0943C71.2258 58.0943 71.8068 57.8823 71.2258 57.7701C70.3907 57.608 68.914 56.623 68.5267 56.0493C68.5267 56.0493 70.5238 57.608 71.71 57.3961C72.2667 57.2963 71.2016 54.977 69.1077 54.6279C67.0138 54.2913 66.0697 53.1815 66.0092 53.3187C65.9365 53.4932 66.9169 58.9047 71.25 58.0818L71.2258 58.0943ZM70.657 50.9496C70.657 50.9496 71.2379 50.7999 70.6811 50.6253C69.8823 50.3759 68.5388 49.2663 68.212 48.6553C68.212 48.6553 70.0155 50.3884 71.1895 50.3012C71.7463 50.2637 70.9353 47.8822 68.914 47.3336C66.9048 46.7849 66.0818 45.6003 66.0092 45.7375C65.9244 45.8871 66.3481 51.2862 70.657 50.9371V50.9496ZM70.6206 44.316C70.6206 44.316 71.2137 44.3535 70.7296 44.0292C70.0397 43.5679 69.0835 42.109 68.9382 41.4482C68.9382 41.4482 70.1607 43.6053 71.2984 43.8796C71.831 44.0043 71.7221 41.5106 69.967 40.4132C68.212 39.3035 67.7642 37.9568 67.6552 38.0566C67.5342 38.1813 66.457 43.4058 70.6206 44.3285V44.316ZM71.3469 37.1215C71.3469 37.1215 71.9157 37.2212 71.48 36.8472C70.8627 36.3109 70.0881 34.7773 70.0276 34.1164C70.0276 34.1164 70.9716 36.3733 72.0367 36.7723C72.5451 36.9593 72.7267 34.5279 71.1411 33.2311C69.5676 31.9344 69.2892 30.5627 69.1682 30.6501C69.0351 30.7498 67.3769 35.7 71.3348 37.1215H71.3469ZM72.9687 30.6625C72.9687 30.6625 73.5134 30.862 73.1503 30.4131C72.6298 29.7772 72.1215 28.1437 72.1578 27.4704C72.1578 27.4704 72.7267 29.852 73.7191 30.4381C74.1912 30.7124 74.7601 28.3308 73.4045 26.7847C72.061 25.2385 72.0005 23.842 71.8794 23.9043C71.7342 23.9791 69.3014 28.5802 72.9687 30.6501V30.6625ZM75.6073 24.3158C75.6073 24.3158 76.0794 24.4779 75.7526 24.1038C75.2926 23.5677 74.8085 22.1836 74.8327 21.61C74.8327 21.61 75.3773 23.63 76.2367 24.1038C76.6482 24.3283 77.0719 22.2833 75.8736 20.9866C74.6875 19.7023 74.6028 18.5053 74.4938 18.5676C74.3727 18.6424 72.3999 22.6325 75.5952 24.3158H75.6073ZM78.5364 18.5676C78.5364 18.5676 78.9963 18.8419 78.7301 18.3806C78.3549 17.7197 78.1491 16.1611 78.2943 15.575C78.2943 15.575 78.4396 17.8069 79.2384 18.4928C79.6136 18.817 80.4972 16.772 79.5168 15.1636C78.5364 13.555 78.7059 12.2832 78.5848 12.3331C78.4395 12.383 75.5468 16.1236 78.5364 18.58V18.5676Z" fill="url(#paint0_linear_1628_65)"/>
<path d="M209.912 91.9164C210.36 92.4021 211.8 89.8342 210.783 87.5521C209.766 85.2702 210.19 83.6242 210.021 83.6617C209.815 83.6991 205.397 88.1134 208.919 91.8662C208.919 91.8662 209.488 92.3026 209.21 91.6544C208.835 90.7188 208.81 88.6366 209.101 87.8889C209.101 87.8889 208.968 90.894 209.912 91.9283V91.9164ZM213.458 86.1056C213.458 86.1056 214.051 86.4049 213.688 85.8438C213.18 85.0582 212.805 83.138 212.938 82.3774C212.938 82.3774 213.252 85.1829 214.306 85.9809C214.802 86.355 215.77 83.6991 214.439 81.7664C213.107 79.8337 213.216 78.2377 213.071 78.3C212.89 78.3624 209.561 83.2502 213.458 86.0931V86.1056ZM217.198 80.2327C216.678 79.4721 216.278 77.6018 216.387 76.8536C216.387 76.8536 216.751 79.522 217.791 80.2701C218.288 80.6193 219.183 78.0881 217.84 76.2302C216.496 74.3723 216.581 72.8012 216.424 72.8635C216.242 72.9384 213.083 77.7888 216.956 80.4821C216.956 80.4821 217.549 80.7689 217.186 80.2203L217.198 80.2327ZM220.066 72.9758C219.425 72.3648 218.675 70.6565 218.639 69.9333C218.639 69.9333 219.534 72.4272 220.684 72.9259C221.217 73.1628 221.543 70.5318 219.91 69.0356C218.263 67.5393 218.045 66.043 217.912 66.1303C217.767 66.2301 215.697 71.5044 219.91 73.2625C219.91 73.2625 220.527 73.4122 220.079 72.9758H220.066ZM220.284 63.6864C220.284 63.6864 221.313 66.1303 222.487 66.5667C223.032 66.7662 223.226 64.1228 221.507 62.7263C219.788 61.3297 219.486 59.8459 219.365 59.9332C219.219 60.0454 217.44 65.4196 221.737 66.9532C221.737 66.9532 222.367 67.0655 221.882 66.654C221.217 66.068 220.369 64.4221 220.297 63.6988L220.284 63.6864ZM221.834 57.7262C221.834 57.7262 223.008 60.0081 224.158 60.3447C224.702 60.4943 224.69 57.9257 222.936 56.7037C221.18 55.4818 220.781 54.0728 220.66 54.1725C220.526 54.2972 219.183 59.6215 223.443 60.7811C223.443 60.7811 224.049 60.8434 223.565 60.4818C222.874 59.9706 221.943 58.4369 221.822 57.7387L221.834 57.7262ZM222.463 50.4319C222.463 50.4319 223.952 52.4393 225.126 52.5765C225.683 52.6389 225.271 50.145 223.371 49.2598C221.471 48.3745 220.866 47.0652 220.769 47.1774C220.66 47.3146 220.2 52.7012 224.497 53.1126C224.497 53.1126 225.102 53.0753 224.57 52.801C223.819 52.4144 222.681 51.0927 222.451 50.4319H222.463ZM222.221 44.2098C222.221 44.2098 223.71 46.1799 224.86 46.3046C225.404 46.3545 224.981 43.8981 223.105 43.0377C221.229 42.1774 220.611 40.8931 220.527 41.0053C220.418 41.1425 220.006 46.4667 224.267 46.8283C224.267 46.8283 224.86 46.7784 224.339 46.5166C223.601 46.1425 222.463 44.8457 222.233 44.1973L222.221 44.2098ZM222.851 37.1025C220.926 36.4915 220.175 35.3195 220.103 35.4442C220.018 35.5938 220.224 40.8182 224.4 40.6562C224.4 40.6562 224.968 40.5439 224.436 40.3569C223.674 40.0826 222.415 38.9479 222.125 38.3494C222.125 38.3494 223.795 40.0951 224.944 40.0701C225.477 40.0701 224.787 37.7135 222.863 37.1025H222.851ZM220.357 31.3169C220.357 31.3169 222.306 32.7259 223.419 32.489C223.952 32.3768 222.863 30.2071 220.853 29.9453C218.857 29.6959 217.925 28.6734 217.864 28.8106C217.803 28.9728 218.905 34.085 222.996 33.1623C222.996 33.1623 223.541 32.9378 222.972 32.8506C222.173 32.7259 220.744 31.8406 220.345 31.3045L220.357 31.3169ZM218.469 24.0849C216.762 23.8729 215.964 23 215.915 23.1123C215.867 23.2494 216.798 27.6261 220.309 26.8405C220.309 26.8405 220.769 26.6535 220.284 26.5787C219.607 26.4664 218.372 25.7058 218.034 25.257C218.034 25.257 219.704 26.4664 220.66 26.267C221.108 26.1797 220.175 24.3093 218.469 24.0974V24.0849ZM215.467 19.9452C215.467 19.9452 217.295 21.1671 218.299 20.9053C218.784 20.7806 217.718 18.8354 215.879 18.6733C214.039 18.5113 213.156 17.6135 213.107 17.7382C213.059 17.8878 214.233 22.5138 217.936 21.5287C217.936 21.5287 218.421 21.3167 217.9 21.2544C217.174 21.1671 215.831 20.4065 215.455 19.9327L215.467 19.9452ZM212.514 14.1596C213.228 15.793 215.226 16.1546 215.177 15.6808C215.08 14.6708 213.458 13.3865 213.458 13.3865C213.979 13.586 215.055 14.571 215.358 15.2069C215.576 15.6559 215.613 15.1446 215.613 15.1446C215.31 11.4663 210.965 11.8279 210.856 11.9151C210.759 11.99 211.812 12.5261 212.514 14.1471V14.1596ZM211.691 90.1582C212.829 90.9688 215.685 90.4202 215.685 90.4202C214.995 90.8191 212.998 91.0931 212.054 90.8311C211.389 90.644 211.885 91.1679 211.885 91.1679C216 94.2232 219.619 89.0984 219.619 88.8858C219.619 88.7114 218.106 89.3723 215.77 88.6621C213.434 87.951 211.158 89.7713 211.691 90.1582ZM223.432 82.7889C223.432 82.6143 222.016 83.2752 219.801 82.6393C217.585 82.0033 215.491 83.8487 216 84.1979C217.078 84.946 219.752 84.2976 219.752 84.2976C219.11 84.6842 217.234 84.971 216.339 84.7465C215.709 84.5844 216.182 85.0582 216.182 85.0582C220.103 87.8634 223.419 82.9759 223.419 82.7764L223.432 82.7889ZM226.458 75.4446C226.433 75.2826 225.162 76.1554 222.923 75.906C220.684 75.6691 219.026 77.7514 219.57 78.0132C220.733 78.5619 223.141 77.5145 223.141 77.5145C222.585 77.9883 220.805 78.5868 219.91 78.5245C219.268 78.4746 219.813 78.8486 219.813 78.8486C224.037 80.906 226.482 75.6317 226.458 75.4322V75.4446ZM228.527 67.4769C228.479 67.3273 227.378 68.3373 225.186 68.4122C222.996 68.4869 221.628 70.7314 222.185 70.9059C223.371 71.2675 225.61 69.9333 225.61 69.9333C225.138 70.4695 223.504 71.2925 222.633 71.3423C222.016 71.3798 222.585 71.679 222.585 71.679C226.918 73.0755 228.588 67.6515 228.527 67.4769ZM230.222 60.3571C230.161 60.2075 229.145 61.3048 226.966 61.5667C224.787 61.8285 223.601 64.1727 224.17 64.2974C225.38 64.5592 227.511 63.0504 227.511 63.0504C227.075 63.6241 225.526 64.5717 224.654 64.7088C224.037 64.8086 224.63 65.0455 224.63 65.0455C229.059 66.068 230.295 60.5317 230.234 60.3571H230.222ZM230.984 53.3371C230.924 53.2 229.979 54.2972 227.885 54.6463C225.792 54.983 224.726 57.3147 225.284 57.4145C226.469 57.6264 228.467 56.0678 228.467 56.0678C228.067 56.6414 226.591 57.6264 225.755 57.7885C225.162 57.9007 225.755 58.1127 225.755 58.1127C230.088 58.9357 231.069 53.5242 230.996 53.3496L230.984 53.3371ZM230.973 45.7559C230.9 45.6188 230.088 46.8034 228.067 47.352C226.058 47.9006 225.247 50.2822 225.804 50.3197C226.978 50.3944 228.781 48.6737 228.781 48.6737C228.454 49.2723 227.111 50.3944 226.312 50.6438C225.744 50.8184 226.336 50.968 226.336 50.968C230.646 51.3046 231.069 45.9181 230.984 45.7684L230.973 45.7559ZM229.338 38.0502C229.23 37.9504 228.781 39.297 227.027 40.4068C225.271 41.5166 225.162 44.0103 225.695 43.8732C226.833 43.5989 228.055 41.4417 228.055 41.4417C227.91 42.115 226.942 43.5614 226.251 44.0228C225.768 44.347 226.36 44.3095 226.36 44.3095C230.537 43.3744 229.447 38.1624 229.326 38.0377L229.338 38.0502ZM227.813 30.6561C227.692 30.5688 227.426 31.9404 225.84 33.2372C224.267 34.5339 224.437 36.9653 224.944 36.7783C226.009 36.3793 226.954 34.1224 226.954 34.1224C226.893 34.7833 226.118 36.3169 225.501 36.8531C225.066 37.2272 225.646 37.1275 225.646 37.1275C229.604 35.706 227.946 30.7557 227.813 30.6561ZM225.126 23.9228C224.993 23.8604 224.944 25.257 223.601 26.8031C222.258 28.3493 222.827 30.7184 223.286 30.4565C224.279 29.8705 224.848 27.4889 224.848 27.4889C224.896 28.1622 224.376 29.7957 223.855 30.4316C223.492 30.8804 224.037 30.681 224.037 30.681C227.705 28.6111 225.284 24.01 225.126 23.9353V23.9228ZM222.5 18.586C222.391 18.5237 222.306 19.7207 221.12 21.005C219.922 22.2894 220.357 24.3467 220.757 24.1223C221.616 23.6484 222.16 21.6285 222.16 21.6285C222.185 22.202 221.701 23.5861 221.241 24.1223C220.914 24.4964 221.386 24.3343 221.386 24.3343C224.57 22.651 222.609 18.6609 222.487 18.586H222.5ZM218.408 12.3266C218.288 12.2892 218.445 13.5486 217.476 15.1571C216.496 16.7656 217.38 18.8105 217.755 18.4863C218.554 17.8005 218.711 15.5686 218.711 15.5686C218.857 16.1671 218.639 17.7257 218.276 18.3741C218.009 18.8354 218.481 18.5611 218.481 18.5611C221.458 16.0923 218.578 12.3516 218.432 12.3142L218.408 12.3266Z" fill="url(#paint1_linear_1628_65)"/>
<path fill-rule="evenodd" clip-rule="evenodd" d="M187.031 49.2916C187.031 53.4959 186.104 61.3311 184.62 65.5991H180.6C180.168 63.3058 179.858 54.5151 179.858 51.5848V40.587C175.478 41.566 168.95 42.6395 162.73 43.4605V48.9094C162.73 52.7314 161.617 60.2482 160.442 63.6243H156.423C156.052 61.14 155.681 53.9418 155.681 51.1389V44.2912C153.897 44.4724 152.242 44.6141 150.796 44.7051C149.436 44.7688 146.591 45.4058 145.293 45.9154C142.881 44.7688 140.037 42.794 138.12 40.9467C137.811 40.6919 137.811 40.5008 137.935 40.1823L138.429 39.0357C140.903 39.4816 144.056 39.609 146.468 39.5453C155.52 39.4193 172.255 38.1091 179.858 36.6011V10.3701C178.931 8.905 177.014 7.50357 174.85 6.61175L175.592 4.44591C175.654 4.12741 175.839 4 176.457 4C179.364 4.1274 184.187 5.08292 186.351 6.03844C187.031 6.29325 187.34 6.86656 187.278 7.69467L187.031 11.5804V49.2916ZM158.773 11.0071C167.059 11.0071 173.057 15.8484 173.057 22.5371C173.057 29.2894 167.059 34.3218 158.773 34.3218C150.549 34.3218 144.613 29.2894 144.613 22.5371C144.613 15.8484 150.549 11.0071 158.773 11.0071ZM158.773 29.0983C162.916 29.0983 165.822 26.5502 165.822 22.5371C165.822 18.5876 162.916 15.9758 158.773 15.9758C154.692 15.9758 151.785 18.5876 151.785 22.5371C151.785 26.5502 154.692 29.0983 158.773 29.0983ZM133.617 58.7831L110.491 58.5919V56.7446L117.978 55.6174C118.057 51.6077 118.097 47.565 118.097 43.6859V15.5299L110.306 16.6765V14.5107L125.826 10.7523L126.754 11.3893L126.506 21.6452V43.6859C126.506 47.5629 126.586 51.6034 126.681 55.611L133.617 56.872V58.7831ZM138.309 76.2687C139.396 76.2687 143.004 76.2357 144.16 76.1696L144.161 76.1655L145.573 75.546C145.775 75.4427 146.01 75.4427 146.246 75.546C146.75 75.718 147.793 76.3031 148.264 76.5785C148.432 76.7162 148.432 76.8538 148.365 77.0948L147.927 78.437C147.861 79.4594 147.498 81.3589 147.229 82.2983L147.827 82.6704C147.995 82.7737 148.096 82.9458 148.096 83.1179C148.096 83.7374 147.86 84.3569 147.658 84.5978L140.159 84.8648L140.158 84.8732V86.2155V86.9727V88.4871C140.158 88.9345 140.327 89.1066 140.831 89.1066C143.617 89.0749 147.971 88.6058 151.19 87.8066V75.959C150.786 75.305 149.878 74.6511 148.903 74.2381L149.306 73.1023C149.374 72.9302 149.508 72.8614 149.844 72.8614C151.19 72.8958 153.443 73.412 154.452 73.8939C154.755 74.0316 154.889 74.3069 154.856 74.7543L154.788 76.4752V82.4962L157.613 82.4293V74.1348C157.176 73.4465 156.201 72.7237 155.125 72.2763L155.528 71.106C155.596 70.934 155.73 70.8651 156.066 70.8651C157.513 70.934 159.934 71.4158 161.01 71.9321C161.38 72.1042 161.515 72.3795 161.481 72.8269L161.38 74.7543V89.141C161.38 91.2061 160.876 94.579 160.169 96.3343H158.017C157.782 95.1641 157.613 91.6191 157.613 90.1735V84.8386L154.788 84.9054V88.6936C154.788 90.9652 154.284 93.7186 153.678 95.1641H151.593C151.339 94.0915 151.205 91.5148 151.191 89.927C147.912 91.1099 143.854 91.9501 140.999 92.2042C140.528 92.2386 140.058 92.273 139.688 92.273C138.174 92.273 137.132 91.3782 136.661 90.0015C136.56 89.6229 136.493 88.9345 136.493 88.1773V86.9727V86.2155V84.6323C136.089 84.1848 135.45 83.8407 134.744 83.5997L134.946 82.6704C134.979 82.5328 135.08 82.4295 135.316 82.4295C136.415 82.4295 139.132 82.4633 140.196 82.5309C141.132 82.5193 142.908 82.4572 143.454 82.3951L143.995 82.2623C144.028 81.4676 144.058 79.1073 143.993 78.4715C143.03 78.4719 140.708 78.4775 140.125 78.5403C139.486 78.5747 138.41 78.7468 137.737 78.9533C136.762 78.4026 135.786 77.611 135.08 76.9227C134.946 76.7506 134.912 76.6129 134.979 76.4752L135.282 75.9934C136.123 76.1311 137.535 76.2687 138.309 76.2687ZM161.986 103.046C162.255 103.046 162.49 102.977 162.625 102.805C162.86 102.564 163.196 101.876 163.196 100.912C163.196 100.568 162.927 100.292 162.557 100.224C161.784 100.017 160.136 99.9138 158.992 99.9138L157.647 100.671C155.461 100.74 150.282 100.809 148.062 100.774C147.49 100.774 147.255 100.499 147.255 99.9138V98.2273V97.2636V97.0227L147.288 95.1986C147.288 94.7511 147.087 94.4414 146.717 94.3725C145.64 94.1316 143.152 93.9595 141.739 93.9595C141.437 93.9595 141.268 94.0972 141.235 94.2693L140.999 95.3018C141.907 95.5771 142.815 96.059 143.354 96.5408V97.2636V98.2273V99.9826C143.354 102.082 144.362 103.149 146.75 103.149L161.986 103.046ZM125.501 96.0246C123.113 96.1967 107.407 96.4032 105.221 96.3688C103.977 96.3343 102.228 96.1967 100.916 95.9557L100.613 96.5753C100.546 96.7129 100.58 96.9194 100.714 97.0227C101.656 97.952 103.102 98.9845 104.447 99.5008C105.389 99.2254 107.407 98.8468 108.282 98.778C110.299 98.6403 124.189 98.5027 126.51 98.5027C127.62 98.5027 129.94 98.5715 130.781 98.6748C131.252 98.4683 131.79 97.6766 131.79 96.8162C131.79 96.4376 131.588 96.1623 131.252 96.0246C130.378 95.7148 128.36 95.4051 126.981 95.3706L125.501 96.0246ZM125.535 77.1292L125.602 75.4771C125.602 75.0985 125.467 74.892 125.131 74.7543C124.189 74.3069 121.633 73.7906 120.355 73.7218C120.019 73.6874 119.918 73.7906 119.851 73.9283L119.447 75.0641C120.322 75.4083 121.196 75.9934 121.6 76.5441V80.3722L111.051 80.4938L111.071 78.5401L111.073 78.5403L111.107 76.7162C111.107 76.2687 110.938 76.0278 110.602 75.959C109.66 75.6836 107.004 75.4083 105.793 75.4427C105.423 75.4427 105.322 75.546 105.288 75.6492L105.019 76.7506C105.793 77.0259 106.768 77.6799 107.138 78.1273L107.273 88.9689C107.273 89.6229 107.407 90.6554 107.71 91.3782H109.896C110.206 91.1403 110.516 90.7427 110.723 90.1327C114.544 90.0661 122.412 90.0025 125.703 90.0359C125.938 89.7949 126.14 89.0722 126.14 88.4182C126.14 88.2117 126.006 88.0741 125.837 88.0052L124.947 87.6762C125.209 86.8743 125.434 85.4668 125.434 84.3225L125.533 77.129L125.535 77.1292ZM111.027 82.9398L121.6 82.8484V87.5956L110.98 87.6586L111.027 82.9398ZM191.878 87.6266C191.878 88.4871 191.609 89.1066 191.374 89.3131C191.239 89.4508 191.004 89.5196 190.735 89.5196L175.197 89.7605C172.843 89.795 171.834 88.6592 171.834 86.5941V82.3951V81.9133V78.6436C171.296 78.0585 170.387 77.5766 169.379 77.2668L169.648 76.1655C169.715 76.0278 169.816 75.9245 170.018 75.9245C171.38 75.9245 174.612 76.1261 175.858 76.33C179.026 76.3044 184.393 76.2177 186.228 76.1311L187.372 75.4771C188.481 75.4771 190.096 75.5804 190.97 75.7525C191.34 75.8213 191.542 76.0966 191.542 76.4408C191.542 77.3013 191.34 77.9208 191.105 78.2305C190.97 78.4026 190.735 78.437 190.466 78.437L175.837 78.6866L175.836 78.7124V81.9133V82.3951V86.4908C175.836 87.0759 176.038 87.3513 176.609 87.3513L176.609 87.3522C178.937 87.3837 184.501 87.2814 186.699 87.1792L187.708 86.5941C188.818 86.5597 190.466 86.6973 191.239 86.8694C191.643 86.9727 191.878 87.248 191.878 87.6266ZM170.186 95.7492C172.372 95.7837 188.078 95.6116 190.466 95.4051L191.946 94.7511C193.324 94.82 195.342 95.0953 196.217 95.4395C196.553 95.5427 196.755 95.8181 196.755 96.1967C196.755 97.0571 196.217 97.8487 195.746 98.0552C194.905 97.952 192.585 97.8831 191.475 97.8831C189.154 97.8831 175.264 98.0552 173.246 98.1585C172.372 98.2273 170.354 98.6059 169.412 98.8813C168.067 98.365 166.621 97.3325 165.679 96.4376C165.545 96.2999 165.511 96.0934 165.578 95.9557L165.881 95.3706C167.192 95.5771 168.941 95.7148 170.186 95.7492Z" fill="url(#paint2_linear_1628_65)"/>
<defs>
<linearGradient id="paint0_linear_1628_65" x1="66.4797" y1="39.0684" x2="90.3981" y2="39.7168" gradientUnits="userSpaceOnUse">
<stop stop-color="#E4C464"/>
<stop offset="0.2403" stop-color="#CDAB2E"/>
<stop offset="0.607148" stop-color="#E4C564"/>
<stop offset="0.78125" stop-color="#F8B805"/>
<stop offset="1" stop-color="#E4C764"/>
</linearGradient>
<linearGradient id="paint1_linear_1628_65" x1="208.042" y1="39.0705" x2="232.025" y2="39.7223" gradientUnits="userSpaceOnUse">
<stop stop-color="#E4C464"/>
<stop offset="0.2403" stop-color="#CDAB2E"/>
<stop offset="0.607148" stop-color="#E4C564"/>
<stop offset="0.78125" stop-color="#F8B805"/>
<stop offset="1" stop-color="#E4C764"/>
</linearGradient>
<linearGradient id="paint2_linear_1628_65" x1="102.554" y1="31.7636" x2="200.359" y2="39.872" gradientUnits="userSpaceOnUse">
<stop stop-color="#E4C464"/>
<stop offset="0.2403" stop-color="#CDAB2E"/>
<stop offset="0.607148" stop-color="#E4C564"/>
<stop offset="0.78125" stop-color="#F8B805"/>
<stop offset="1" stop-color="#E4C764"/>
</linearGradient>
</defs>
</svg>
